	.include "MPlayDef.s"

	.equ	mus_pc_ds8spc_seq_bgm_bgm_09_grp, voicegroup201
	.equ	mus_pc_ds8spc_seq_bgm_bgm_09_pri, 0
	.equ	mus_pc_ds8spc_seq_bgm_bgm_09_rev, 0
	.equ	mus_pc_ds8spc_seq_bgm_bgm_09_mvl, 100
	.equ	mus_pc_ds8spc_seq_bgm_bgm_09_key, 0
	.equ	mus_pc_ds8spc_seq_bgm_bgm_09_tbs, 1
	.equ	mus_pc_ds8spc_seq_bgm_bgm_09_exg, 0
	.equ	mus_pc_ds8spc_seq_bgm_bgm_09_cmp, 1

	.section .rodata
	.global	mus_pc_ds8spc_seq_bgm_bgm_09
	.align	2

@**************** Track 1 (Midi-Chn.1) ****************@

mus_pc_ds8spc_seq_bgm_bgm_09_1:
	.byte		VOL   , 127*mus_pc_ds8spc_seq_bgm_bgm_09_mvl/mxv
	.byte	KEYSH , mus_pc_ds8spc_seq_bgm_bgm_09_key+0
@ 000   ----------------------------------------
	.byte	TEMPO , 122*mus_pc_ds8spc_seq_bgm_bgm_09_tbs/2
	.byte		VOICE , 41
	.byte		PAN   , c_v-4
	.byte	W24
	.byte		N12   , An2 , v124
	.byte		N12   , Cn3 , v112
	.byte	W16
	.byte		        An2 , v124
	.byte		N12   , Cn3 , v112
	.byte	W32
	.byte		        As2 , v108
	.byte		N12   , Dn3 , v124
	.byte	W24
@ 001   ----------------------------------------
	.byte	W24
	.byte		        Cn3 
	.byte		N12   , En3 , v116
	.byte	W16
	.byte		        Cn3 , v124
	.byte		N12   , En3 , v116
	.byte	W32
	.byte		        As2 , v108
	.byte		N12   , Dn3 , v124
	.byte	W24
@ 002   ----------------------------------------
	.byte	W24
	.byte		        An2 , v120
	.byte		N12   , Cn3 , v112
	.byte	W16
	.byte		        An2 , v120
	.byte		N12   , Cn3 , v112
	.byte	W32
	.byte		        As2 , v108
	.byte		N12   , Dn3 , v120
	.byte	W24
@ 003   ----------------------------------------
	.byte	W24
	.byte		        Cn3 , v127
	.byte		N12   , En3 , v120
	.byte	W16
	.byte		        Cn3 , v127
	.byte		N12   , En3 , v120
	.byte	W24
	.byte		N06   , Cn3 , v124
	.byte		N06   , Fn3 
	.byte	W08
	.byte		N12   , Cn3 
	.byte		N12   , Fn3 
	.byte	W24
@ 004   ----------------------------------------
mus_pc_ds8spc_seq_bgm_bgm_09_1_004:
	.byte	W24
	.byte		N12   , An2 , v120
	.byte		N12   , Cn3 , v112
	.byte	W48
	.byte		        As2 , v108
	.byte		N12   , Dn3 , v120
	.byte	W24
	.byte	PEND
@ 005   ----------------------------------------
	.byte	W24
	.byte		        An2 , v124
	.byte		N12   , Cn3 , v116
	.byte	W48
	.byte		        En2 , v112
	.byte		N12   , Gn2 
	.byte	W24
@ 006   ----------------------------------------
	.byte	W24
	.byte		        An2 
	.byte		N12   , Cn3 
	.byte	W48
	.byte		        As2 , v108
	.byte		N12   , Dn3 , v112
	.byte	W24
@ 007   ----------------------------------------
	.byte	W24
	.byte		        An2 
	.byte		N12   , Cn3 , v124
	.byte	W40
	.byte		N01   , Gn2 , v116
	.byte		N01   , Cn3 , v108
	.byte	W08
	.byte		N12   
	.byte		N12   , En3 , v116
	.byte	W24
@ 008   ----------------------------------------
	.byte	W24
	.byte		        An2 , v124
	.byte		N12   , Cn3 , v112
	.byte	W48
	.byte		        As2 , v108
	.byte		N12   , Dn3 , v124
	.byte	W24
@ 009   ----------------------------------------
	.byte	W24
	.byte		        An2 
	.byte		N12   , Cn3 , v116
	.byte	W48
	.byte		        En2 
	.byte		N12   , Gn2 , v120
	.byte	W24
@ 010   ----------------------------------------
	.byte	PATT
	 .word	mus_pc_ds8spc_seq_bgm_bgm_09_1_004
@ 011   ----------------------------------------
	.byte	W24
	.byte		N12   , Cn3 , v127
	.byte		N12   , En3 , v120
	.byte	W40
	.byte		N06   , An2 , v124
	.byte		N06   , Cn3 
	.byte	W08
	.byte		N12   , An2 
	.byte		N12   , Cn3 
	.byte	W24
@ 012   ----------------------------------------
	.byte	W96
@ 013   ----------------------------------------
	.byte	W96
@ 014   ----------------------------------------
	.byte	W96
@ 015   ----------------------------------------
	.byte	W96
@ 016   ----------------------------------------
	.byte	W96
@ 017   ----------------------------------------
	.byte	W96
@ 018   ----------------------------------------
	.byte	W96
@ 019   ----------------------------------------
	.byte	W48
	.byte		N08   , Gn3 , v127
	.byte		N20   , Cn4 
	.byte	W08
	.byte		N08   , En3 
	.byte		N20   , Gn3 
	.byte	W08
	.byte		N08   , Cn3 
	.byte		N08   , En3 
	.byte	W08
	.byte		N32   , Gn2 
	.byte		N08   , Cn3 
	.byte	W08
	.byte		N32   
	.byte		N08   , En3 
	.byte	W08
	.byte		N32   
	.byte		N08   , Gn3 
	.byte	W08
@ 020   ----------------------------------------
	.byte		N52   
	.byte		N52   , Cn4 
	.byte	W96
@ 021   ----------------------------------------
mus_pc_ds8spc_seq_bgm_bgm_09_1_021:
	.byte	W16
	.byte		N06   , Fn2 , v116
	.byte		N06   , An2 
	.byte	W08
	.byte		N12   , An2 , v112
	.byte		N12   , Cn3 
	.byte	W16
	.byte		        Fn2 , v116
	.byte		N12   , An2 
	.byte	W24
	.byte		N06   , Fn2 
	.byte		N06   , As2 , v104
	.byte	W08
	.byte		N12   
	.byte		N12   , Dn3 , v116
	.byte	W16
	.byte		        Fn2 
	.byte		N12   , As2 , v104
	.byte	W08
	.byte	PEND
@ 022   ----------------------------------------
mus_pc_ds8spc_seq_bgm_bgm_09_1_022:
	.byte	W16
	.byte		N06   , Fn2 , v116
	.byte		N06   , Cn3 , v104
	.byte	W08
	.byte		N12   
	.byte		N12   , En3 , v116
	.byte	W16
	.byte		        Fn2 
	.byte		N12   , An2 , v104
	.byte	W24
	.byte		N06   , En2 , v112
	.byte		N06   , Gn2 
	.byte	W08
	.byte		N12   
	.byte		N12   , Cn3 
	.byte	W24
	.byte	PEND
@ 023   ----------------------------------------
	.byte	PATT
	 .word	mus_pc_ds8spc_seq_bgm_bgm_09_1_021
@ 024   ----------------------------------------
	.byte	W16
	.byte		N06   , Fn2 , v116
	.byte		N06   , An2 
	.byte	W08
	.byte		N12   , An2 , v112
	.byte		N12   , Cn3 
	.byte	W16
	.byte		        Fn2 , v116
	.byte		N12   , An2 
	.byte	W24
	.byte		N06   , Gn2 
	.byte		N06   , Cn3 , v108
	.byte	W08
	.byte		N12   
	.byte		N12   , En3 , v116
	.byte	W24
@ 025   ----------------------------------------
	.byte	PATT
	 .word	mus_pc_ds8spc_seq_bgm_bgm_09_1_021
@ 026   ----------------------------------------
	.byte	PATT
	 .word	mus_pc_ds8spc_seq_bgm_bgm_09_1_022
@ 027   ----------------------------------------
	.byte	PATT
	 .word	mus_pc_ds8spc_seq_bgm_bgm_09_1_021
@ 028   ----------------------------------------
	.byte	W16
	.byte		N06   , En2 , v124
	.byte		N06   , Gn2 , v127
	.byte	W08
	.byte		N12   , Gn2 , v120
	.byte		N12   , Cn3 , v124
	.byte	W16
	.byte		        Gn2 , v120
	.byte		N12   , Cn3 , v124
	.byte	W24
	.byte		N06   , Fn2 , v116
	.byte		N06   , Cn3 
	.byte	W08
	.byte		N12   , An2 
	.byte		N12   , Cn3 
	.byte	W24
@ 029   ----------------------------------------
	.byte	W24
	.byte		        An2 
	.byte		N12   , Cn3 , v104
	.byte	W16
	.byte		        An2 , v116
	.byte		N12   , Cn3 , v104
	.byte	W32
	.byte		        As2 , v100
	.byte		N12   , Dn3 , v116
	.byte	W24
@ 030   ----------------------------------------
	.byte	W24
	.byte		        Cn3 
	.byte		N12   , En3 , v108
	.byte	W16
	.byte		        Cn3 , v116
	.byte		N12   , En3 , v108
	.byte	W32
	.byte		        As2 , v100
	.byte		N12   , Dn3 , v116
	.byte	W24
@ 031   ----------------------------------------
	.byte	W24
	.byte		        An2 , v112
	.byte		N12   , Cn3 , v104
	.byte	W16
	.byte		        An2 , v112
	.byte		N12   , Cn3 , v104
	.byte	W32
	.byte		        As2 , v100
	.byte		N12   , Dn3 , v112
	.byte	W24
@ 032   ----------------------------------------
	.byte	W24
	.byte		        Cn3 , v124
	.byte		N12   , En3 , v120
	.byte	W16
	.byte		        Cn3 , v124
	.byte		N12   , En3 , v120
	.byte	W24
	.byte		N06   , Cn3 , v116
	.byte		N06   , Fn3 
	.byte	W08
	.byte		N12   , Cn3 
	.byte		N12   , Fn3 
	.byte	W12
	.byte	FINE

@**************** Track 2 (Midi-Chn.2) ****************@

mus_pc_ds8spc_seq_bgm_bgm_09_2:
	.byte		VOL   , 127*mus_pc_ds8spc_seq_bgm_bgm_09_mvl/mxv
	.byte	KEYSH , mus_pc_ds8spc_seq_bgm_bgm_09_key+0
@ 000   ----------------------------------------
	.byte		VOICE , 43
	.byte		PAN   , c_v+6
	.byte		N42   , Fn1 , v116
	.byte	W48
	.byte		        Fn1 , v112
	.byte	W48
@ 001   ----------------------------------------
	.byte		N42   
	.byte	W48
	.byte		N42   
	.byte	W48
@ 002   ----------------------------------------
mus_pc_ds8spc_seq_bgm_bgm_09_2_002:
	.byte		N42   , Fn1 , v124
	.byte	W48
	.byte		        Fn1 , v120
	.byte	W48
	.byte	PEND
@ 003   ----------------------------------------
	.byte		        Gn1 , v116
	.byte	W48
	.byte		N12   , Fn1 , v124
	.byte	W16
	.byte		N32   , Fn1 , v116
	.byte	W32
@ 004   ----------------------------------------
	.byte		N42   , Fn1 , v120
	.byte	W48
	.byte		N42   
	.byte	W48
@ 005   ----------------------------------------
	.byte		N42   
	.byte	W48
	.byte		        Cn1 , v124
	.byte	W48
@ 006   ----------------------------------------
	.byte		        Fn1 , v112
	.byte	W48
	.byte		        Fn1 , v124
	.byte	W48
@ 007   ----------------------------------------
	.byte		        Fn1 , v112
	.byte	W48
	.byte		        En1 , v120
	.byte	W48
@ 008   ----------------------------------------
	.byte		        Fn1 , v116
	.byte	W48
	.byte		        Fn1 , v112
	.byte	W48
@ 009   ----------------------------------------
	.byte		N42   
	.byte	W48
	.byte		        Cn1 
	.byte	W48
@ 010   ----------------------------------------
	.byte	PATT
	 .word	mus_pc_ds8spc_seq_bgm_bgm_09_2_002
@ 011   ----------------------------------------
	.byte		N42   , Gn1 , v116
	.byte	W48
	.byte		        Fn1 , v124
	.byte	W48
@ 012   ----------------------------------------
	.byte	W96
@ 013   ----------------------------------------
	.byte	W96
@ 014   ----------------------------------------
	.byte	W96
@ 015   ----------------------------------------
	.byte	W96
@ 016   ----------------------------------------
	.byte	W96
@ 017   ----------------------------------------
	.byte	W96
@ 018   ----------------------------------------
	.byte	W96
@ 019   ----------------------------------------
	.byte	W96
@ 020   ----------------------------------------
	.byte	W96
@ 021   ----------------------------------------
	.byte	W96
@ 022   ----------------------------------------
	.byte	W96
@ 023   ----------------------------------------
	.byte	W96
@ 024   ----------------------------------------
	.byte	W96
@ 025   ----------------------------------------
	.byte	W96
@ 026   ----------------------------------------
	.byte	W96
@ 027   ----------------------------------------
	.byte	W96
@ 028   ----------------------------------------
	.byte	W96
@ 029   ----------------------------------------
	.byte	W96
@ 030   ----------------------------------------
	.byte	W96
@ 031   ----------------------------------------
	.byte	W96
@ 032   ----------------------------------------
	.byte	W84
	.byte	FINE

@**************** Track 3 (Midi-Chn.3) ****************@

mus_pc_ds8spc_seq_bgm_bgm_09_3:
	.byte		VOL   , 127*mus_pc_ds8spc_seq_bgm_bgm_09_mvl/mxv
	.byte	KEYSH , mus_pc_ds8spc_seq_bgm_bgm_09_key+0
@ 000   ----------------------------------------
	.byte		VOICE , 12
	.byte		PAN   , c_v+0
	.byte		N18   , Fn1 , v100
	.byte	W24
	.byte		N12   , An1 , v104
	.byte		N12   , Cn2 , v092
	.byte	W16
	.byte		        An1 , v104
	.byte		N12   , Cn2 , v092
	.byte	W08
	.byte		N18   , Fn1 , v100
	.byte	W24
	.byte		        As1 , v092
	.byte		N18   , Dn2 , v100
	.byte	W24
@ 001   ----------------------------------------
	.byte		        Fn1 
	.byte	W24
	.byte		N12   , Cn2 , v104
	.byte		N12   , En2 , v096
	.byte	W16
	.byte		        Cn2 , v104
	.byte		N12   , En2 , v096
	.byte	W08
	.byte		N18   , Fn1 , v100
	.byte	W24
	.byte		        As1 , v092
	.byte		N18   , Dn2 , v100
	.byte	W24
@ 002   ----------------------------------------
	.byte		        Fn1 , v104
	.byte	W24
	.byte		N16   , An1 , v100
	.byte		N16   , Cn2 , v092
	.byte	W16
	.byte		N18   , An1 , v100
	.byte		N18   , Cn2 , v092
	.byte	W08
	.byte		        Fn1 , v104
	.byte	W24
	.byte		        As1 , v092
	.byte		N18   , Dn2 , v100
	.byte	W24
@ 003   ----------------------------------------
	.byte		        Gn1 
	.byte	W24
	.byte		N12   , Cn2 
	.byte		N12   , En2 
	.byte	W16
	.byte		        Cn2 
	.byte		N12   , En2 
	.byte	W08
	.byte		        Fn1 , v104
	.byte	W16
	.byte		N06   
	.byte		N06   , Cn2 
	.byte	W08
	.byte		N18   , An1 
	.byte		N18   , Cn2 
	.byte	W24
@ 004   ----------------------------------------
	.byte		        Fn1 
	.byte	W24
	.byte		        An1 , v100
	.byte		N18   , Cn2 , v092
	.byte	W24
	.byte		        Fn1 , v100
	.byte	W24
	.byte		        As1 , v092
	.byte		N18   , Dn2 , v100
	.byte	W24
@ 005   ----------------------------------------
	.byte		        Fn1 
	.byte	W24
	.byte		        An1 
	.byte		N18   , Cn2 
	.byte	W24
	.byte		        Cn1 , v104
	.byte	W24
	.byte		        En1 , v092
	.byte		N18   , Gn1 
	.byte	W24
@ 006   ----------------------------------------
	.byte		        Fn1 , v100
	.byte	W24
	.byte		        An1 , v096
	.byte		N18   , Cn2 , v092
	.byte	W24
	.byte		        Fn1 , v104
	.byte	W24
	.byte		        As1 , v088
	.byte		N18   , Dn2 , v092
	.byte	W24
@ 007   ----------------------------------------
	.byte		        Fn1 , v100
	.byte	W24
	.byte		        An1 , v092
	.byte		N18   , Cn2 , v104
	.byte	W24
	.byte		        En1 
	.byte	W16
	.byte		N06   , Gn1 , v096
	.byte		N06   , Cn2 , v092
	.byte	W08
	.byte		N18   
	.byte		N18   , En2 , v096
	.byte	W24
@ 008   ----------------------------------------
	.byte		        Fn1 , v100
	.byte	W24
	.byte		        An1 , v104
	.byte		N18   , Cn2 , v092
	.byte	W24
	.byte		        Fn1 , v100
	.byte	W24
	.byte		        As1 , v092
	.byte		N18   , Dn2 , v100
	.byte	W24
@ 009   ----------------------------------------
	.byte		        Fn1 
	.byte	W24
	.byte		        An1 , v104
	.byte		N18   , Cn2 , v096
	.byte	W24
	.byte		        Cn1 , v100
	.byte	W24
	.byte		        En1 , v096
	.byte		N18   , Gn1 , v100
	.byte	W24
@ 010   ----------------------------------------
	.byte		        Fn1 , v104
	.byte	W24
	.byte		        An1 , v100
	.byte		N18   , Cn2 , v092
	.byte	W24
	.byte		        Fn1 , v104
	.byte	W24
	.byte		        As1 , v092
	.byte		N18   , Dn2 , v100
	.byte	W24
@ 011   ----------------------------------------
	.byte		        Gn1 
	.byte	W24
	.byte		        Cn2 
	.byte		N18   , En2 
	.byte	W24
	.byte		        Fn1 , v104
	.byte	W16
	.byte		N06   , An1 
	.byte		N06   , Cn2 
	.byte	W08
	.byte		N18   , An1 
	.byte		N18   , Cn2 
	.byte	W24
@ 012   ----------------------------------------
	.byte	W96
@ 013   ----------------------------------------
	.byte	W96
@ 014   ----------------------------------------
	.byte	W96
@ 015   ----------------------------------------
	.byte	W96
@ 016   ----------------------------------------
	.byte	W96
@ 017   ----------------------------------------
	.byte	W96
@ 018   ----------------------------------------
	.byte	W96
@ 019   ----------------------------------------
	.byte	W48
	.byte		N32   , Cn3 , v108
	.byte	W08
	.byte		N20   , Gn2 , v104
	.byte	W08
	.byte		N16   , En2 
	.byte	W08
	.byte		N20   , Cn2 
	.byte	W08
	.byte		        En2 
	.byte	W08
	.byte		        Gn2 , v108
	.byte	W08
@ 020   ----------------------------------------
	.byte		N52   , Cn3 , v104
	.byte	W96
@ 021   ----------------------------------------
	.byte	W96
@ 022   ----------------------------------------
	.byte	W96
@ 023   ----------------------------------------
	.byte	W96
@ 024   ----------------------------------------
	.byte	W96
@ 025   ----------------------------------------
	.byte	W96
@ 026   ----------------------------------------
	.byte	W96
@ 027   ----------------------------------------
	.byte	W96
@ 028   ----------------------------------------
	.byte	W96
@ 029   ----------------------------------------
	.byte		N06   , Fn1 , v100
	.byte	W24
	.byte		        An1 , v104
	.byte		N06   , Cn2 , v092
	.byte	W16
	.byte		        An1 , v104
	.byte		N06   , Cn2 , v092
	.byte	W08
	.byte		        Fn1 , v100
	.byte	W24
	.byte		        As1 , v092
	.byte		N06   , Dn2 , v100
	.byte	W24
@ 030   ----------------------------------------
	.byte		        Fn1 
	.byte	W24
	.byte		        Cn2 , v104
	.byte		N06   , En2 , v096
	.byte	W16
	.byte		        Cn2 , v104
	.byte		N06   , En2 , v096
	.byte	W08
	.byte		        Fn1 , v100
	.byte	W24
	.byte		        As1 , v092
	.byte		N06   , Dn2 , v100
	.byte	W24
@ 031   ----------------------------------------
	.byte		        Fn1 , v104
	.byte	W24
	.byte		        An1 , v100
	.byte		N06   , Cn2 , v092
	.byte	W16
	.byte		        An1 , v100
	.byte		N06   , Cn2 , v092
	.byte	W08
	.byte		        Fn1 , v104
	.byte	W24
	.byte		        As1 , v092
	.byte		N06   , Dn2 , v100
	.byte	W24
@ 032   ----------------------------------------
	.byte	W64
	.byte		        Fn1 , v104
	.byte		N06   , Cn2 
	.byte	W08
	.byte		        An1 , v116
	.byte		N06   , Cn2 
	.byte	W12
	.byte	FINE

@**************** Track 4 (Midi-Chn.4) ****************@

mus_pc_ds8spc_seq_bgm_bgm_09_4:
	.byte		VOL   , 127*mus_pc_ds8spc_seq_bgm_bgm_09_mvl/mxv
	.byte	KEYSH , mus_pc_ds8spc_seq_bgm_bgm_09_key+0
@ 000   ----------------------------------------
	.byte		VOICE , 48
	.byte		PAN   , c_v+0
	.byte	W96
@ 001   ----------------------------------------
	.byte	W96
@ 002   ----------------------------------------
	.byte	W96
@ 003   ----------------------------------------
	.byte	W96
@ 004   ----------------------------------------
	.byte	W96
@ 005   ----------------------------------------
	.byte	W96
@ 006   ----------------------------------------
	.byte	W96
@ 007   ----------------------------------------
	.byte	W96
@ 008   ----------------------------------------
	.byte	W96
@ 009   ----------------------------------------
	.byte	W96
@ 010   ----------------------------------------
	.byte	W96
@ 011   ----------------------------------------
	.byte	W96
@ 012   ----------------------------------------
	.byte		N16   , As2 , v108
	.byte	W16
	.byte		N08   , Dn3 , v116
	.byte	W24
	.byte		        Fn3 , v108
	.byte	W08
	.byte		N24   , En3 , v112
	.byte	W24
	.byte		N16   , Dn3 , v116
	.byte	W16
	.byte		N88   , En3 , v104
	.byte	W08
@ 013   ----------------------------------------
	.byte	W96
@ 014   ----------------------------------------
	.byte		N16   , Cn3 , v116
	.byte	W16
	.byte		N08   , En3 , v112
	.byte	W24
	.byte		        Gn3 , v116
	.byte	W08
	.byte		N24   , Fn3 
	.byte	W24
	.byte		N16   , En3 
	.byte	W16
	.byte		N80   , Fn3 , v120
	.byte	W08
@ 015   ----------------------------------------
	.byte	W96
@ 016   ----------------------------------------
	.byte		N16   , Dn3 , v124
	.byte	W16
	.byte		N08   , Fn3 
	.byte	W24
	.byte		        An3 
	.byte	W08
	.byte		N24   , Gn3 
	.byte	W24
	.byte		N16   , Fn3 , v120
	.byte	W16
	.byte		N24   , En3 , v116
	.byte	W08
@ 017   ----------------------------------------
	.byte	W16
	.byte		N08   , Fn3 , v120
	.byte	W08
	.byte		N16   , Gn3 , v124
	.byte	W16
	.byte		N48   , An3 
	.byte	W56
@ 018   ----------------------------------------
	.byte		N08   , As3 
	.byte	W16
	.byte		        As3 , v120
	.byte	W16
	.byte		N08   
	.byte	W16
	.byte		N16   , As3 , v124
	.byte	W16
	.byte		        An3 , v116
	.byte	W16
	.byte		        As3 , v120
	.byte	W16
@ 019   ----------------------------------------
	.byte		N12   , Cn4 
	.byte	W96
@ 020   ----------------------------------------
	.byte	W96
@ 021   ----------------------------------------
	.byte	W96
@ 022   ----------------------------------------
	.byte	W96
@ 023   ----------------------------------------
	.byte	W96
@ 024   ----------------------------------------
	.byte	W96
@ 025   ----------------------------------------
	.byte	W96
@ 026   ----------------------------------------
	.byte	W96
@ 027   ----------------------------------------
	.byte	W96
@ 028   ----------------------------------------
	.byte	W96
@ 029   ----------------------------------------
	.byte	W96
@ 030   ----------------------------------------
	.byte	W96
@ 031   ----------------------------------------
	.byte	W96
@ 032   ----------------------------------------
	.byte	W84
	.byte	FINE

@**************** Track 5 (Midi-Chn.5) ****************@

mus_pc_ds8spc_seq_bgm_bgm_09_5:
	.byte		VOL   , 127*mus_pc_ds8spc_seq_bgm_bgm_09_mvl/mxv
	.byte	KEYSH , mus_pc_ds8spc_seq_bgm_bgm_09_key+0
@ 000   ----------------------------------------
	.byte		VOICE , 48
	.byte		PAN   , c_v+0
	.byte	W96
@ 001   ----------------------------------------
	.byte	W96
@ 002   ----------------------------------------
	.byte	W96
@ 003   ----------------------------------------
	.byte	W96
@ 004   ----------------------------------------
	.byte	W96
@ 005   ----------------------------------------
	.byte	W96
@ 006   ----------------------------------------
	.byte	W96
@ 007   ----------------------------------------
	.byte	W96
@ 008   ----------------------------------------
	.byte		N09   , Fn3 , v100
	.byte	W16
	.byte		N07   , Gn3 , v108
	.byte	W08
	.byte		N08   , An3 , v104
	.byte	W16
	.byte		        Cn4 , v116
	.byte	W24
	.byte		        As3 , v108
	.byte	W08
	.byte		        An3 , v096
	.byte	W16
	.byte		N06   , Gn3 , v104
	.byte	W08
@ 009   ----------------------------------------
	.byte		N09   , Fn3 , v108
	.byte	W16
	.byte		N06   , Gn3 , v100
	.byte	W08
	.byte		N08   , An3 , v108
	.byte	W16
	.byte		        Cn3 , v112
	.byte	W56
@ 010   ----------------------------------------
	.byte	W96
@ 011   ----------------------------------------
	.byte	W96
@ 012   ----------------------------------------
	.byte	W96
@ 013   ----------------------------------------
	.byte	W96
@ 014   ----------------------------------------
	.byte	W96
@ 015   ----------------------------------------
	.byte	W96
@ 016   ----------------------------------------
	.byte	W96
@ 017   ----------------------------------------
	.byte	W96
@ 018   ----------------------------------------
	.byte	W96
@ 019   ----------------------------------------
	.byte	W96
@ 020   ----------------------------------------
	.byte	W96
@ 021   ----------------------------------------
	.byte	W96
@ 022   ----------------------------------------
	.byte	W96
@ 023   ----------------------------------------
	.byte	W96
@ 024   ----------------------------------------
	.byte	W96
@ 025   ----------------------------------------
	.byte	W96
@ 026   ----------------------------------------
	.byte	W96
@ 027   ----------------------------------------
	.byte	W96
@ 028   ----------------------------------------
	.byte	W96
@ 029   ----------------------------------------
	.byte	W96
@ 030   ----------------------------------------
	.byte	W96
@ 031   ----------------------------------------
	.byte	W96
@ 032   ----------------------------------------
	.byte	W84
	.byte	FINE

@**************** Track 6 (Midi-Chn.6) ****************@

mus_pc_ds8spc_seq_bgm_bgm_09_6:
	.byte		VOL   , 127*mus_pc_ds8spc_seq_bgm_bgm_09_mvl/mxv
	.byte	KEYSH , mus_pc_ds8spc_seq_bgm_bgm_09_key+0
@ 000   ----------------------------------------
	.byte		VOICE , 9
	.byte		PAN   , c_v+0
	.byte	W96
@ 001   ----------------------------------------
	.byte	W96
@ 002   ----------------------------------------
	.byte	W96
@ 003   ----------------------------------------
	.byte		N08   , En4 , v088
	.byte	W16
	.byte		        Dn4 , v084
	.byte	W08
	.byte		        Cn4 , v076
	.byte	W16
	.byte		        En4 , v080
	.byte	W08
	.byte		        Fn4 , v084
	.byte	W48
@ 004   ----------------------------------------
	.byte	W96
@ 005   ----------------------------------------
	.byte	W96
@ 006   ----------------------------------------
	.byte	W96
@ 007   ----------------------------------------
	.byte	W96
@ 008   ----------------------------------------
	.byte	W96
@ 009   ----------------------------------------
	.byte	W96
@ 010   ----------------------------------------
	.byte	W96
@ 011   ----------------------------------------
	.byte	W96
@ 012   ----------------------------------------
	.byte	W96
@ 013   ----------------------------------------
	.byte	W96
@ 014   ----------------------------------------
	.byte	W96
@ 015   ----------------------------------------
	.byte	W96
@ 016   ----------------------------------------
	.byte	W96
@ 017   ----------------------------------------
	.byte	W96
@ 018   ----------------------------------------
	.byte	W96
@ 019   ----------------------------------------
	.byte	W96
@ 020   ----------------------------------------
	.byte	W40
	.byte	W01
	.byte		N02   , Cn3 , v076
	.byte	W01
	.byte		        Dn3 , v080
	.byte	W01
	.byte		N03   , En3 , v084
	.byte	W01
	.byte		N02   , Fn3 , v092
	.byte	W01
	.byte		N03   , Gn3 , v104
	.byte	W01
	.byte		        An3 , v100
	.byte	W01
	.byte		N04   , Bn3 , v104
	.byte	W02
	.byte		        Cn4 , v100
	.byte	W44
	.byte	W03
@ 021   ----------------------------------------
	.byte	W96
@ 022   ----------------------------------------
	.byte	W96
@ 023   ----------------------------------------
	.byte	W96
@ 024   ----------------------------------------
	.byte	W96
@ 025   ----------------------------------------
	.byte	W96
@ 026   ----------------------------------------
	.byte	W96
@ 027   ----------------------------------------
	.byte	W96
@ 028   ----------------------------------------
	.byte	W96
@ 029   ----------------------------------------
	.byte	W96
@ 030   ----------------------------------------
	.byte	W96
@ 031   ----------------------------------------
	.byte	W96
@ 032   ----------------------------------------
	.byte	W84
	.byte	FINE

@**************** Track 7 (Midi-Chn.7) ****************@

mus_pc_ds8spc_seq_bgm_bgm_09_7:
	.byte		VOL   , 127*mus_pc_ds8spc_seq_bgm_bgm_09_mvl/mxv
	.byte	KEYSH , mus_pc_ds8spc_seq_bgm_bgm_09_key+0
@ 000   ----------------------------------------
	.byte		VOICE , 73
	.byte		PAN   , c_v-9
	.byte	W96
@ 001   ----------------------------------------
	.byte	W96
@ 002   ----------------------------------------
	.byte	W96
@ 003   ----------------------------------------
	.byte	W96
@ 004   ----------------------------------------
	.byte	W96
@ 005   ----------------------------------------
	.byte	W96
@ 006   ----------------------------------------
	.byte	W96
@ 007   ----------------------------------------
	.byte	W96
@ 008   ----------------------------------------
	.byte	W96
@ 009   ----------------------------------------
	.byte	W96
@ 010   ----------------------------------------
	.byte	W96
@ 011   ----------------------------------------
	.byte	W96
@ 012   ----------------------------------------
	.byte	W96
@ 013   ----------------------------------------
	.byte	W96
@ 014   ----------------------------------------
	.byte	W96
@ 015   ----------------------------------------
	.byte	W96
@ 016   ----------------------------------------
	.byte	W96
@ 017   ----------------------------------------
	.byte	W96
@ 018   ----------------------------------------
	.byte	W96
@ 019   ----------------------------------------
	.byte	W96
@ 020   ----------------------------------------
	.byte	W96
@ 021   ----------------------------------------
mus_pc_ds8spc_seq_bgm_bgm_09_7_021:
	.byte		N16   , Fn4 , v092
	.byte	W16
	.byte		N12   , Gn4 , v100
	.byte	W08
	.byte		N16   , An4 , v096
	.byte	W16
	.byte		N24   , Cn5 , v108
	.byte	W24
	.byte		N08   , As4 , v104
	.byte	W08
	.byte		N16   , An4 , v088
	.byte	W16
	.byte		N08   , Gn4 , v096
	.byte	W08
	.byte	PEND
@ 022   ----------------------------------------
mus_pc_ds8spc_seq_bgm_bgm_09_7_022:
	.byte		N16   , Fn4 , v100
	.byte	W16
	.byte		N08   , Gn4 , v092
	.byte	W08
	.byte		N16   , An4 , v100
	.byte	W16
	.byte		N40   , Cn4 , v104
	.byte	W56
	.byte	PEND
@ 023   ----------------------------------------
	.byte		N16   , Fn4 , v096
	.byte	W16
	.byte		N08   , Gn4 
	.byte	W08
	.byte		N16   , An4 , v092
	.byte	W16
	.byte		N24   , Cn5 , v100
	.byte	W24
	.byte		N08   , As4 , v104
	.byte	W08
	.byte		N16   , An4 , v096
	.byte	W16
	.byte		N08   , Gn4 , v092
	.byte	W08
@ 024   ----------------------------------------
	.byte		N16   , Fn4 , v096
	.byte	W16
	.byte		N08   , En4 , v092
	.byte	W08
	.byte		N16   , Fn4 , v104
	.byte	W16
	.byte		N48   , Gn4 , v100
	.byte	W56
@ 025   ----------------------------------------
	.byte	PATT
	 .word	mus_pc_ds8spc_seq_bgm_bgm_09_7_021
@ 026   ----------------------------------------
	.byte	PATT
	 .word	mus_pc_ds8spc_seq_bgm_bgm_09_7_022
@ 027   ----------------------------------------
	.byte		N16   , Fn4 , v096
	.byte	W16
	.byte		N08   , Gn4 , v100
	.byte	W08
	.byte		N16   , An4 
	.byte	W16
	.byte		N24   , Cn5 , v108
	.byte	W24
	.byte		N08   , As4 , v092
	.byte	W08
	.byte		N16   , An4 , v104
	.byte	W16
	.byte		N08   , Gn4 , v100
	.byte	W08
@ 028   ----------------------------------------
	.byte		N16   , Fn4 , v092
	.byte	W16
	.byte		N08   , Gn4 , v100
	.byte	W08
	.byte		N16   , An4 
	.byte	W16
	.byte		N52   , Fn4 
	.byte	W56
@ 029   ----------------------------------------
	.byte	W96
@ 030   ----------------------------------------
	.byte	W96
@ 031   ----------------------------------------
	.byte	W96
@ 032   ----------------------------------------
	.byte	W84
	.byte	FINE

@**************** Track 8 (Midi-Chn.8) ****************@

mus_pc_ds8spc_seq_bgm_bgm_09_8:
	.byte		VOL   , 127*mus_pc_ds8spc_seq_bgm_bgm_09_mvl/mxv
	.byte	KEYSH , mus_pc_ds8spc_seq_bgm_bgm_09_key+0
@ 000   ----------------------------------------
	.byte		VOICE , 127
	.byte		PAN   , c_v+0
	.byte	W24
	.byte		TIE   , Cn2 , v096
	.byte	W72
@ 001   ----------------------------------------
	.byte	W48
	.byte		EOT   
	.byte	W48
@ 002   ----------------------------------------
	.byte	W24
	.byte		TIE   , Cn2 , v100
	.byte	W72
@ 003   ----------------------------------------
	.byte	W48
	.byte		EOT   
	.byte	W48
@ 004   ----------------------------------------
	.byte	W96
@ 005   ----------------------------------------
	.byte	W96
@ 006   ----------------------------------------
	.byte	W96
@ 007   ----------------------------------------
	.byte	W96
@ 008   ----------------------------------------
	.byte	W96
@ 009   ----------------------------------------
	.byte	W96
@ 010   ----------------------------------------
	.byte	W96
@ 011   ----------------------------------------
	.byte	W96
@ 012   ----------------------------------------
	.byte	W96
@ 013   ----------------------------------------
	.byte	W96
@ 014   ----------------------------------------
	.byte	W96
@ 015   ----------------------------------------
	.byte	W96
@ 016   ----------------------------------------
	.byte	W96
@ 017   ----------------------------------------
	.byte	W96
@ 018   ----------------------------------------
	.byte	W96
@ 019   ----------------------------------------
	.byte	W96
@ 020   ----------------------------------------
	.byte	W96
@ 021   ----------------------------------------
mus_pc_ds8spc_seq_bgm_bgm_09_8_021:
	.byte	W24
	.byte		N08   , Cs2 , v096
	.byte	W16
	.byte		N08   
	.byte	W24
	.byte		        Cs2 , v092
	.byte	W08
	.byte		N42   , Cn2 , v088
	.byte	W24
	.byte	PEND
@ 022   ----------------------------------------
	.byte	PATT
	 .word	mus_pc_ds8spc_seq_bgm_bgm_09_8_021
@ 023   ----------------------------------------
mus_pc_ds8spc_seq_bgm_bgm_09_8_023:
	.byte	W24
	.byte		N08   , Cs2 , v092
	.byte	W16
	.byte		N08   
	.byte	W24
	.byte		N08   
	.byte	W08
	.byte		N42   , Cn2 , v084
	.byte	W24
	.byte	PEND
@ 024   ----------------------------------------
mus_pc_ds8spc_seq_bgm_bgm_09_8_024:
	.byte	W24
	.byte		N08   , Cs2 , v096
	.byte	W16
	.byte		        Cs2 , v088
	.byte	W24
	.byte		N08   
	.byte	W08
	.byte		N16   , Cn2 
	.byte	W16
	.byte		N08   , Cs2 , v092
	.byte	W08
	.byte	PEND
@ 025   ----------------------------------------
	.byte	PATT
	 .word	mus_pc_ds8spc_seq_bgm_bgm_09_8_021
@ 026   ----------------------------------------
	.byte	PATT
	 .word	mus_pc_ds8spc_seq_bgm_bgm_09_8_021
@ 027   ----------------------------------------
	.byte	PATT
	 .word	mus_pc_ds8spc_seq_bgm_bgm_09_8_023
@ 028   ----------------------------------------
	.byte	PATT
	 .word	mus_pc_ds8spc_seq_bgm_bgm_09_8_024
@ 029   ----------------------------------------
	.byte	PATT
	 .word	mus_pc_ds8spc_seq_bgm_bgm_09_8_021
@ 030   ----------------------------------------
	.byte	PATT
	 .word	mus_pc_ds8spc_seq_bgm_bgm_09_8_021
@ 031   ----------------------------------------
	.byte	W24
	.byte		N08   , Cs2 , v092
	.byte	W16
	.byte		N08   
	.byte	W24
	.byte		N08   
	.byte	W08
	.byte		N24   , Cn2 , v084
	.byte	W24
@ 032   ----------------------------------------
	.byte	PATT
	 .word	mus_pc_ds8spc_seq_bgm_bgm_09_8_024
@ 033   ----------------------------------------
	.byte	FINE

@**************** Track 9 (Midi-Chn.9) ****************@

mus_pc_ds8spc_seq_bgm_bgm_09_9:
	.byte		VOL   , 127*mus_pc_ds8spc_seq_bgm_bgm_09_mvl/mxv
	.byte	KEYSH , mus_pc_ds8spc_seq_bgm_bgm_09_key+0
@ 000   ----------------------------------------
	.byte		VOICE , 74
	.byte		PAN   , c_v-9
	.byte	W96
@ 001   ----------------------------------------
	.byte	W96
@ 002   ----------------------------------------
	.byte	W96
@ 003   ----------------------------------------
	.byte		N08   , En4 , v096
	.byte	W16
	.byte		        Dn4 
	.byte	W08
	.byte		        Cn4 , v088
	.byte	W16
	.byte		        En4 
	.byte	W08
	.byte		        Fn4 , v096
	.byte	W48
@ 004   ----------------------------------------
	.byte		N12   , Fn3 , v108
	.byte	W15
	.byte		        Gn3 , v116
	.byte	W08
	.byte		N16   , An3 , v108
	.byte	W16
	.byte		N24   , Cn4 , v120
	.byte	W24
	.byte		N08   , As3 , v116
	.byte	W08
	.byte		N16   , An3 
	.byte	W16
	.byte		N08   , Gn3 , v108
	.byte	W08
	.byte		N16   , Fn3 , v116
	.byte	W01
@ 005   ----------------------------------------
	.byte	W15
	.byte		N08   , Gn3 , v104
	.byte	W08
	.byte		N16   , An3 , v112
	.byte	W16
	.byte		N40   , Cn3 , v116
	.byte	W56
	.byte	W01
@ 006   ----------------------------------------
	.byte	W96
@ 007   ----------------------------------------
	.byte	W96
@ 008   ----------------------------------------
	.byte	W96
@ 009   ----------------------------------------
	.byte	W92
	.byte	W03
	.byte		N16   , Fn3 , v108
	.byte	W01
@ 010   ----------------------------------------
	.byte	W15
	.byte		N08   , Gn3 
	.byte	W08
	.byte		N16   , An3 
	.byte	W16
	.byte		N24   , Cn4 , v116
	.byte	W24
	.byte		N08   , As3 
	.byte	W08
	.byte		N24   , An3 
	.byte	W24
	.byte		N16   , Gn3 , v108
	.byte	W01
@ 011   ----------------------------------------
	.byte	W15
	.byte		N08   , An3 
	.byte	W08
	.byte		N16   , Gn3 
	.byte	W16
	.byte		N40   , Fn3 
	.byte	W56
	.byte	W01
@ 012   ----------------------------------------
	.byte	W96
@ 013   ----------------------------------------
	.byte	W96
@ 014   ----------------------------------------
	.byte	W96
@ 015   ----------------------------------------
	.byte	W96
@ 016   ----------------------------------------
	.byte	W96
@ 017   ----------------------------------------
	.byte	W96
@ 018   ----------------------------------------
	.byte	W96
@ 019   ----------------------------------------
	.byte	W96
@ 020   ----------------------------------------
	.byte	W96
@ 021   ----------------------------------------
	.byte	W96
@ 022   ----------------------------------------
	.byte	W96
@ 023   ----------------------------------------
	.byte	W96
@ 024   ----------------------------------------
	.byte	W96
@ 025   ----------------------------------------
	.byte	W96
@ 026   ----------------------------------------
	.byte	W96
@ 027   ----------------------------------------
	.byte	W96
@ 028   ----------------------------------------
	.byte	W96
@ 029   ----------------------------------------
	.byte	W96
@ 030   ----------------------------------------
	.byte	W96
@ 031   ----------------------------------------
	.byte	W96
@ 032   ----------------------------------------
	.byte	W84
	.byte	FINE

@**************** Track 10 (Midi-Chn.11) ****************@

mus_pc_ds8spc_seq_bgm_bgm_09_10:
	.byte		VOL   , 127*mus_pc_ds8spc_seq_bgm_bgm_09_mvl/mxv
	.byte	KEYSH , mus_pc_ds8spc_seq_bgm_bgm_09_key+0
@ 000   ----------------------------------------
	.byte		VOICE , 69
	.byte		PAN   , c_v+0
	.byte	W96
@ 001   ----------------------------------------
	.byte	W96
@ 002   ----------------------------------------
	.byte	W96
@ 003   ----------------------------------------
	.byte	W96
@ 004   ----------------------------------------
	.byte	W96
@ 005   ----------------------------------------
	.byte	W92
	.byte	W03
	.byte		N16   , Fn2 , v108
	.byte	W01
@ 006   ----------------------------------------
	.byte	W15
	.byte		N08   , Gn2 
	.byte	W08
	.byte		N16   , An2 , v104
	.byte	W16
	.byte		N24   , Cn3 , v112
	.byte	W24
	.byte		N08   , As2 
	.byte	W08
	.byte		N14   , An2 , v108
	.byte	W14
	.byte		N08   , Gn2 , v116
	.byte	W08
	.byte		N16   , Fn2 , v112
	.byte	W03
@ 007   ----------------------------------------
	.byte	W13
	.byte		N08   , En2 , v104
	.byte	W08
	.byte		N16   , Fn2 , v112
	.byte	W16
	.byte		N48   , Gn2 , v116
	.byte	W56
	.byte	W03
@ 008   ----------------------------------------
	.byte	W96
@ 009   ----------------------------------------
	.byte	W92
	.byte	W03
	.byte		N16   , An2 , v100
	.byte	W01
@ 010   ----------------------------------------
	.byte	W15
	.byte		N08   , As2 , v104
	.byte	W08
	.byte		N16   , Cn3 
	.byte	W16
	.byte		N24   , Cn3 , v108
	.byte	W24
	.byte		N08   , Dn3 
	.byte	W08
	.byte		N24   , Fn3 
	.byte	W24
	.byte		N16   , En3 , v104
	.byte	W01
@ 011   ----------------------------------------
	.byte	W15
	.byte		N08   , Fn3 
	.byte	W08
	.byte		N16   , En3 
	.byte	W16
	.byte		N40   , Cn3 , v108
	.byte	W56
	.byte	W01
@ 012   ----------------------------------------
	.byte		N06   , As1 
	.byte	W24
	.byte		        Dn2 , v104
	.byte		N06   , Fn2 , v100
	.byte	W24
	.byte		        Cn2 
	.byte	W24
	.byte		        En2 , v088
	.byte		N06   , Gn2 
	.byte	W24
@ 013   ----------------------------------------
	.byte		        Cn2 , v104
	.byte	W24
	.byte		        En2 , v100
	.byte		N06   , An2 , v092
	.byte	W24
	.byte		N08   , En2 , v108
	.byte		N08   , An2 , v100
	.byte	W08
	.byte		        En2 
	.byte		N08   , An2 
	.byte	W08
	.byte		        En2 
	.byte		N08   , An2 
	.byte	W08
	.byte		        En2 , v108
	.byte		N08   , An2 , v100
	.byte	W24
@ 014   ----------------------------------------
	.byte		N06   , Cn2 , v108
	.byte	W24
	.byte		        En2 , v104
	.byte		N06   , An2 , v100
	.byte	W24
	.byte		        Dn2 
	.byte	W24
	.byte		        Fn2 , v088
	.byte		N06   , An2 
	.byte	W24
@ 015   ----------------------------------------
	.byte		N08   , Dn2 , v104
	.byte	W24
	.byte		N06   , Fn2 , v100
	.byte		N06   , An2 , v092
	.byte	W24
	.byte		N08   , Fn2 , v108
	.byte		N08   , An2 , v100
	.byte	W08
	.byte		        Fn2 
	.byte		N08   , An2 
	.byte	W08
	.byte		        Fn2 
	.byte		N08   , An2 
	.byte	W08
	.byte		        Fn2 , v108
	.byte		N08   , An2 , v100
	.byte	W24
@ 016   ----------------------------------------
	.byte		        As1 , v108
	.byte	W24
	.byte		        Dn2 , v112
	.byte		N08   , Fn2 , v104
	.byte	W24
	.byte		        Cn2 , v112
	.byte	W24
	.byte		        En2 , v104
	.byte		N08   , Gn2 
	.byte	W24
@ 017   ----------------------------------------
	.byte		        Cn2 , v108
	.byte	W24
	.byte		        En2 , v092
	.byte		N08   , Gn2 , v096
	.byte	W24
	.byte		        Dn2 , v108
	.byte	W24
	.byte		        Fn2 , v100
	.byte		N08   , An2 , v092
	.byte	W24
@ 018   ----------------------------------------
	.byte		        Dn2 , v112
	.byte		N08   , Fn2 
	.byte		N08   , As2 , v092
	.byte	W16
	.byte		        Dn2 , v108
	.byte		N08   , Fn2 , v104
	.byte		N08   , As2 , v092
	.byte	W16
	.byte		        Dn2 , v108
	.byte		N08   , Fn2 , v096
	.byte		N08   , As2 , v084
	.byte	W16
	.byte		N12   , Dn2 , v108
	.byte		N12   , Fn2 , v104
	.byte		N12   , As2 , v088
	.byte	W48
@ 019   ----------------------------------------
	.byte		        Cn2 , v100
	.byte		N12   , En2 
	.byte		N12   , Gn2 , v112
	.byte	W96
@ 020   ----------------------------------------
	.byte	W96
@ 021   ----------------------------------------
	.byte	W96
@ 022   ----------------------------------------
	.byte	W96
@ 023   ----------------------------------------
	.byte	W96
@ 024   ----------------------------------------
	.byte	W96
@ 025   ----------------------------------------
	.byte	W96
@ 026   ----------------------------------------
	.byte	W96
@ 027   ----------------------------------------
	.byte	W96
@ 028   ----------------------------------------
	.byte	W96
@ 029   ----------------------------------------
	.byte	W96
@ 030   ----------------------------------------
	.byte	W96
@ 031   ----------------------------------------
	.byte	W96
@ 032   ----------------------------------------
	.byte		N08   , En3 , v124
	.byte	W16
	.byte		        Dn3 , v120
	.byte	W08
	.byte		        Cn3 , v112
	.byte	W16
	.byte		        En3 , v116
	.byte	W08
	.byte		        Fn3 , v120
	.byte	W36
	.byte	FINE

@**************** Track 11 (Midi-Chn.12) ****************@

mus_pc_ds8spc_seq_bgm_bgm_09_11:
	.byte		VOL   , 127*mus_pc_ds8spc_seq_bgm_bgm_09_mvl/mxv
	.byte	KEYSH , mus_pc_ds8spc_seq_bgm_bgm_09_key+0
@ 000   ----------------------------------------
	.byte		VOICE , 71
	.byte		PAN   , c_v+11
	.byte	W96
@ 001   ----------------------------------------
	.byte	W96
@ 002   ----------------------------------------
	.byte	W96
@ 003   ----------------------------------------
	.byte	W96
@ 004   ----------------------------------------
	.byte	W96
@ 005   ----------------------------------------
	.byte	W96
@ 006   ----------------------------------------
	.byte	W96
@ 007   ----------------------------------------
	.byte	W96
@ 008   ----------------------------------------
	.byte	W96
@ 009   ----------------------------------------
	.byte	W96
@ 010   ----------------------------------------
	.byte	W96
@ 011   ----------------------------------------
	.byte	W96
@ 012   ----------------------------------------
	.byte	W96
@ 013   ----------------------------------------
	.byte	W96
@ 014   ----------------------------------------
	.byte	W96
@ 015   ----------------------------------------
	.byte	W96
@ 016   ----------------------------------------
	.byte	W96
@ 017   ----------------------------------------
	.byte	W96
@ 018   ----------------------------------------
	.byte	W96
@ 019   ----------------------------------------
	.byte	W96
@ 020   ----------------------------------------
	.byte	W96
@ 021   ----------------------------------------
	.byte		N06   , Fn1 , v112
	.byte	W24
	.byte		        An1 , v108
	.byte		N06   , Cn2 , v104
	.byte	W16
	.byte		        An1 , v108
	.byte		N06   , Cn2 , v104
	.byte	W08
	.byte		        Fn1 , v108
	.byte	W24
	.byte		        As1 , v104
	.byte		N06   , Dn2 , v108
	.byte	W24
@ 022   ----------------------------------------
	.byte		        Fn1 
	.byte	W24
	.byte		        An1 
	.byte		N06   , Cn2 
	.byte	W16
	.byte		        An1 
	.byte		N06   , Cn2 
	.byte	W08
	.byte		        Cn1 , v112
	.byte	W24
	.byte		        En1 , v104
	.byte		N06   , Gn1 
	.byte	W24
@ 023   ----------------------------------------
	.byte		        Fn1 , v112
	.byte	W24
	.byte		        An1 , v104
	.byte		N06   , Cn2 , v100
	.byte	W16
	.byte		        An1 , v104
	.byte		N06   , Cn2 , v100
	.byte	W08
	.byte		        Fn1 , v116
	.byte	W24
	.byte		        As1 , v096
	.byte		N06   , Dn2 , v104
	.byte	W24
@ 024   ----------------------------------------
	.byte		        Fn1 , v108
	.byte	W24
	.byte		        An1 , v100
	.byte		N06   , Cn2 , v112
	.byte	W16
	.byte		        An1 , v100
	.byte		N06   , Cn2 , v112
	.byte	W08
	.byte		        En1 
	.byte	W16
	.byte		        Gn1 , v108
	.byte		N06   , Cn2 , v100
	.byte	W08
	.byte		N06   
	.byte		N06   , En2 , v108
	.byte	W24
@ 025   ----------------------------------------
	.byte		        Fn1 
	.byte	W24
	.byte		        An1 , v112
	.byte		N06   , Cn2 , v104
	.byte	W16
	.byte		        An1 , v112
	.byte		N06   , Cn2 , v104
	.byte	W08
	.byte		        Fn1 , v108
	.byte	W24
	.byte		        As1 , v104
	.byte		N06   , Dn2 , v108
	.byte	W24
@ 026   ----------------------------------------
	.byte		        Fn1 
	.byte	W24
	.byte		        An1 , v112
	.byte		N06   , Cn2 , v108
	.byte	W16
	.byte		        An1 , v112
	.byte		N06   , Cn2 , v108
	.byte	W08
	.byte		        Cn1 , v112
	.byte	W24
	.byte		        En1 , v108
	.byte		N06   , Gn1 
	.byte	W24
@ 027   ----------------------------------------
	.byte		        Fn1 , v112
	.byte	W24
	.byte		        An1 , v108
	.byte		N06   , Cn2 , v100
	.byte	W16
	.byte		        An1 , v108
	.byte		N06   , Cn2 , v100
	.byte	W08
	.byte		        Fn1 , v112
	.byte	W24
	.byte		        As1 , v100
	.byte		N06   , Dn2 , v108
	.byte	W24
@ 028   ----------------------------------------
	.byte		        Gn1 
	.byte	W24
	.byte		        Cn2 , v112
	.byte		N06   , En2 , v108
	.byte	W16
	.byte		        Cn2 , v112
	.byte		N06   , En2 , v108
	.byte	W08
	.byte		        Fn1 , v116
	.byte	W16
	.byte		        An1 , v112
	.byte		N06   , Cn2 
	.byte	W08
	.byte		        An1 
	.byte		N06   , Cn2 
	.byte	W24
@ 029   ----------------------------------------
	.byte		        Fn1 , v108
	.byte	W24
	.byte		        An1 
	.byte		N06   , Cn2 , v100
	.byte	W16
	.byte		        An1 , v108
	.byte		N06   , Cn2 , v100
	.byte	W08
	.byte		        Fn1 , v108
	.byte	W24
	.byte		        As1 , v100
	.byte		N06   , Dn2 , v104
	.byte	W24
@ 030   ----------------------------------------
	.byte		        Fn1 , v108
	.byte	W24
	.byte		        Cn2 
	.byte		N06   , En2 , v104
	.byte	W16
	.byte		        Cn2 , v108
	.byte		N06   , En2 , v104
	.byte	W08
	.byte		        Fn1 , v108
	.byte	W24
	.byte		        As1 , v100
	.byte		N06   , Dn2 , v104
	.byte	W24
@ 031   ----------------------------------------
	.byte		        Fn1 , v112
	.byte	W24
	.byte		        An1 , v104
	.byte		N06   , Cn2 , v100
	.byte	W16
	.byte		        An1 , v104
	.byte		N06   , Cn2 , v100
	.byte	W08
	.byte		        Fn1 , v108
	.byte	W24
	.byte		        As1 , v096
	.byte		N06   , Dn2 , v108
	.byte	W24
@ 032   ----------------------------------------
	.byte	W64
	.byte		        Fn1 
	.byte		N06   , Cn2 
	.byte	W08
	.byte		        An1 
	.byte		N06   , Cn2 
	.byte	W12
	.byte	FINE

@**************** Track 12 (Midi-Chn.13) ****************@

mus_pc_ds8spc_seq_bgm_bgm_09_12:
	.byte		VOL   , 127*mus_pc_ds8spc_seq_bgm_bgm_09_mvl/mxv
	.byte	KEYSH , mus_pc_ds8spc_seq_bgm_bgm_09_key+0
@ 000   ----------------------------------------
	.byte		VOICE , 48
	.byte		PAN   , c_v+0
	.byte	W96
@ 001   ----------------------------------------
	.byte	W96
@ 002   ----------------------------------------
	.byte	W96
@ 003   ----------------------------------------
	.byte	W96
@ 004   ----------------------------------------
	.byte	W96
@ 005   ----------------------------------------
	.byte	W96
@ 006   ----------------------------------------
	.byte	W96
@ 007   ----------------------------------------
	.byte	W96
@ 008   ----------------------------------------
	.byte	W96
@ 009   ----------------------------------------
	.byte	W96
@ 010   ----------------------------------------
	.byte	W96
@ 011   ----------------------------------------
	.byte	W96
@ 012   ----------------------------------------
	.byte		N48   , As1 , v104
	.byte		N48   , Dn2 , v088
	.byte	W48
	.byte		        Cn2 , v096
	.byte		N48   , En2 
	.byte	W48
@ 013   ----------------------------------------
	.byte		N84   , An1 , v104
	.byte		N84   , En2 , v100
	.byte	W96
@ 014   ----------------------------------------
	.byte		N48   , An1 , v116
	.byte		N48   , En2 , v096
	.byte	W48
	.byte		        Dn2 , v104
	.byte		N48   , Fn2 , v108
	.byte	W48
@ 015   ----------------------------------------
	.byte		N84   , Dn2 , v112
	.byte		N84   , Fn2 , v104
	.byte	W96
@ 016   ----------------------------------------
	.byte		N48   , As1 , v100
	.byte		N48   , Dn2 , v096
	.byte	W48
	.byte		        Cn2 , v104
	.byte		N48   , En2 , v100
	.byte	W48
@ 017   ----------------------------------------
	.byte		        An1 , v104
	.byte		N48   , En2 , v096
	.byte	W48
	.byte		N36   , Fn2 , v108
	.byte		N36   , An2 , v096
	.byte	W48
@ 018   ----------------------------------------
	.byte		N08   , As1 , v108
	.byte		N08   , As2 
	.byte	W16
	.byte		        As1 , v104
	.byte		N08   , As2 
	.byte	W16
	.byte		        As1 , v108
	.byte		N08   , As2 
	.byte	W16
	.byte		N16   , As1 
	.byte		N16   , As2 
	.byte	W16
	.byte		        An1 , v104
	.byte		N16   , An2 
	.byte	W16
	.byte		        As1 
	.byte		N16   , Gn2 
	.byte	W16
@ 019   ----------------------------------------
	.byte		N12   , Cn2 , v108
	.byte		N12   , En2 
	.byte	W96
@ 020   ----------------------------------------
	.byte	W96
@ 021   ----------------------------------------
	.byte	W96
@ 022   ----------------------------------------
	.byte	W96
@ 023   ----------------------------------------
	.byte	W96
@ 024   ----------------------------------------
	.byte	W96
@ 025   ----------------------------------------
	.byte	W96
@ 026   ----------------------------------------
	.byte	W96
@ 027   ----------------------------------------
	.byte	W96
@ 028   ----------------------------------------
	.byte	W96
@ 029   ----------------------------------------
mus_pc_ds8spc_seq_bgm_bgm_09_12_029:
	.byte		N48   , Fn1 , v096
	.byte	W48
	.byte		        As1 
	.byte	W48
	.byte	PEND
@ 030   ----------------------------------------
	.byte		        Cn2 
	.byte	W48
	.byte		        As1 
	.byte	W48
@ 031   ----------------------------------------
	.byte	PATT
	 .word	mus_pc_ds8spc_seq_bgm_bgm_09_12_029
@ 032   ----------------------------------------
	.byte		N48   , Cn2 , v096
	.byte	W48
	.byte		N36   , Fn1 
	.byte	W36
	.byte	FINE

@******************************************************@
	.align	2

mus_pc_ds8spc_seq_bgm_bgm_09:
	.byte	12	@ NumTrks
	.byte	0	@ NumBlks
	.byte	mus_pc_ds8spc_seq_bgm_bgm_09_pri	@ Priority
	.byte	mus_pc_ds8spc_seq_bgm_bgm_09_rev	@ Reverb.

	.word	mus_pc_ds8spc_seq_bgm_bgm_09_grp

	.word	mus_pc_ds8spc_seq_bgm_bgm_09_1
	.word	mus_pc_ds8spc_seq_bgm_bgm_09_2
	.word	mus_pc_ds8spc_seq_bgm_bgm_09_3
	.word	mus_pc_ds8spc_seq_bgm_bgm_09_4
	.word	mus_pc_ds8spc_seq_bgm_bgm_09_5
	.word	mus_pc_ds8spc_seq_bgm_bgm_09_6
	.word	mus_pc_ds8spc_seq_bgm_bgm_09_7
	.word	mus_pc_ds8spc_seq_bgm_bgm_09_8
	.word	mus_pc_ds8spc_seq_bgm_bgm_09_9
	.word	mus_pc_ds8spc_seq_bgm_bgm_09_10
	.word	mus_pc_ds8spc_seq_bgm_bgm_09_11
	.word	mus_pc_ds8spc_seq_bgm_bgm_09_12

	.end
