        .include "MPlayDef.s"

        .equ    mus_thppme_290_credits_medley_grp, voicegroup149
        .equ    mus_thppme_290_credits_medley_pri, 0
        .equ    mus_thppme_290_credits_medley_rev, reverb_set+50
        .equ    mus_thppme_290_credits_medley_key, 0

        .section .rodata
        .global mus_thppme_290_credits_medley
        .align  2

@****************** Track 0 (Midi-Chn.0) ******************@

mus_thppme_290_credits_medley_0:
        .byte   KEYSH , mus_thppme_290_credits_medley_key+0
@ 000   ----------------------------------------
        .byte   TEMPO , 120/2
        .byte   W96
@ 001   ----------------------------------------
        .byte   TEMPO , 104/2
        .byte           VOICE , 73
        .byte           VOL   , 80
        .byte           N24   , Gn4 , v100
        .byte   W24
        .byte                   As4
        .byte   W24
        .byte           N48   , Dn5
        .byte   W48
@ 002   ----------------------------------------
mus_thppme_290_credits_medley_0_2:
        .byte           N24   , Cn5 , v100
        .byte   W24
        .byte                   As4
        .byte   W24
        .byte           N48   , An4
        .byte   W48
        .byte   PEND
@ 003   ----------------------------------------
        .byte           N24   , Gn4
        .byte   W24
        .byte                   Fn4
        .byte   W24
        .byte           TIE   , Gn4
        .byte   W48
@ 004   ----------------------------------------
        .byte   W84
        .byte           EOT
        .byte   W12
@ 005   ----------------------------------------
        .byte           N24
        .byte   W24
        .byte                   As4
        .byte   W24
        .byte           N48   , Dn5
        .byte   W48
@ 006   ----------------------------------------
        .byte   PATT
         .word  mus_thppme_290_credits_medley_0_2
@ 007   ----------------------------------------
        .byte           N48   , Fn5 , v100
        .byte   W48
        .byte           TIE   , Dn5
        .byte   W48
@ 008   ----------------------------------------
        .byte   W84
        .byte           EOT
        .byte   W12
@ 009   ----------------------------------------
        .byte   W96
@ 010   ----------------------------------------
        .byte   W96
@ 011   ----------------------------------------
        .byte   W96
@ 012   ----------------------------------------
        .byte   W96
@ 013   ----------------------------------------
        .byte   W96
@ 014   ----------------------------------------
        .byte   W48
        .byte   TEMPO , 102/2
        .byte   W24
        .byte   TEMPO , 84/2
        .byte   W23
        .byte   TEMPO , 72/2
        .byte   W01
@ 015   ----------------------------------------
        .byte   W12
        .byte   TEMPO , 64/2
        .byte   W12
        .byte   TEMPO , 58/2
        .byte   W12
        .byte   TEMPO , 14/2
        .byte   W12
        .byte   TEMPO , 130/2
        .byte   W48
@ 016   ----------------------------------------
        .byte   W96
@ 017   ----------------------------------------
        .byte   W96
@ 018   ----------------------------------------
        .byte   W96
@ 019   ----------------------------------------
        .byte   W96
@ 020   ----------------------------------------
        .byte   W96
@ 021   ----------------------------------------
        .byte   W96
@ 022   ----------------------------------------
        .byte   W96
@ 023   ----------------------------------------
        .byte   W96
@ 024   ----------------------------------------
        .byte   W96
@ 025   ----------------------------------------
        .byte   W96
@ 026   ----------------------------------------
        .byte   W96
@ 027   ----------------------------------------
        .byte   W96
@ 028   ----------------------------------------
        .byte   W96
@ 029   ----------------------------------------
        .byte   W96
@ 030   ----------------------------------------
        .byte   W96
@ 031   ----------------------------------------
        .byte   W96
@ 032   ----------------------------------------
        .byte   W96
@ 033   ----------------------------------------
        .byte   W96
@ 034   ----------------------------------------
        .byte   W96
@ 035   ----------------------------------------
        .byte   W96
@ 036   ----------------------------------------
        .byte   W96
@ 037   ----------------------------------------
        .byte   W96
@ 038   ----------------------------------------
        .byte   W96
@ 039   ----------------------------------------
        .byte   W96
@ 040   ----------------------------------------
        .byte   W96
@ 041   ----------------------------------------
        .byte   W96
@ 042   ----------------------------------------
        .byte   W96
@ 043   ----------------------------------------
        .byte   W96
@ 044   ----------------------------------------
        .byte   W96
@ 045   ----------------------------------------
        .byte   W96
@ 046   ----------------------------------------
        .byte   W96
@ 047   ----------------------------------------
        .byte   W96
@ 048   ----------------------------------------
        .byte   W96
@ 049   ----------------------------------------
        .byte   W96
@ 050   ----------------------------------------
        .byte   W96
@ 051   ----------------------------------------
        .byte   W96
@ 052   ----------------------------------------
        .byte   W96
@ 053   ----------------------------------------
        .byte   W96
@ 054   ----------------------------------------
        .byte   W96
@ 055   ----------------------------------------
        .byte   W96
@ 056   ----------------------------------------
        .byte   W96
@ 057   ----------------------------------------
        .byte   W96
@ 058   ----------------------------------------
        .byte   W96
@ 059   ----------------------------------------
        .byte   W96
@ 060   ----------------------------------------
        .byte   W96
@ 061   ----------------------------------------
        .byte   W96
@ 062   ----------------------------------------
        .byte   W96
@ 063   ----------------------------------------
        .byte   W96
@ 064   ----------------------------------------
        .byte   W96
@ 065   ----------------------------------------
        .byte   W96
@ 066   ----------------------------------------
        .byte           VOICE , 14
        .byte           VOL   , 120
        .byte   W48
        .byte           N24   , Cs4
        .byte   W48
@ 067   ----------------------------------------
        .byte   TEMPO , 168/2
        .byte   W96
@ 068   ----------------------------------------
        .byte   W96
@ 069   ----------------------------------------
        .byte   W96
@ 070   ----------------------------------------
        .byte   W96
@ 071   ----------------------------------------
        .byte   W96
@ 072   ----------------------------------------
        .byte   W96
@ 073   ----------------------------------------
        .byte   W96
@ 074   ----------------------------------------
        .byte   W96
@ 075   ----------------------------------------
        .byte   W96
@ 076   ----------------------------------------
        .byte   W96
@ 077   ----------------------------------------
        .byte   W96
@ 078   ----------------------------------------
        .byte   W96
@ 079   ----------------------------------------
        .byte   W96
@ 080   ----------------------------------------
        .byte   W96
@ 081   ----------------------------------------
        .byte   W96
@ 082   ----------------------------------------
        .byte   W96
@ 083   ----------------------------------------
        .byte   W96
@ 084   ----------------------------------------
        .byte   W96
@ 085   ----------------------------------------
        .byte   W96
@ 086   ----------------------------------------
        .byte   W96
@ 087   ----------------------------------------
        .byte   W96
@ 088   ----------------------------------------
        .byte   W96
@ 089   ----------------------------------------
        .byte   W96
@ 090   ----------------------------------------
        .byte   W96
@ 091   ----------------------------------------
        .byte   W96
@ 092   ----------------------------------------
        .byte   W96
@ 093   ----------------------------------------
        .byte   W96
@ 094   ----------------------------------------
        .byte   W96
@ 095   ----------------------------------------
        .byte   W96
@ 096   ----------------------------------------
        .byte   W96
@ 097   ----------------------------------------
        .byte   W96
@ 098   ----------------------------------------
        .byte   W60
        .byte   W02
        .byte   TEMPO , 152/2
        .byte   W01
        .byte   TEMPO , 170/2
        .byte   W32
        .byte   W01
@ 099   ----------------------------------------
        .byte   W10
        .byte   TEMPO , 172/2
        .byte   W42
        .byte   W01
        .byte   TEMPO , 174/2
        .byte   W42
        .byte   W01
@ 100   ----------------------------------------
        .byte   TEMPO , 176/2
        .byte   W42
        .byte   W01
        .byte   TEMPO , 178/2
        .byte   W04
        .byte   TEMPO , 150/2
        .byte   W01
        .byte   TEMPO , 140/2
        .byte   W12
        .byte   TEMPO , 122/2
        .byte   W12
        .byte   TEMPO , 102/2
        .byte   W12
        .byte   TEMPO , 84/2
        .byte   W12
@ 101   ----------------------------------------
        .byte   TEMPO , 64/2
        .byte   W01
        .byte   TEMPO , 62/2
        .byte   W01
        .byte   TEMPO , 70/2
        .byte   W02
        .byte   TEMPO , 56/2
        .byte   W92
@ 102   ----------------------------------------
        .byte   W96
@ 103   ----------------------------------------
        .byte   W96
@ 104   ----------------------------------------
        .byte   W96
@ 105   ----------------------------------------
        .byte   W96
@ 106   ----------------------------------------
        .byte   W96
@ 107   ----------------------------------------
        .byte   W96
@ 108   ----------------------------------------
        .byte   W96
@ 109   ----------------------------------------
        .byte   W96
@ 110   ----------------------------------------
        .byte   W18
        .byte   TEMPO , 30/2
        .byte   W17
        .byte   TEMPO , 10/2
        .byte   W13
        .byte   TEMPO , 104/2
        .byte   W48
@ 111   ----------------------------------------
        .byte   W96
@ 112   ----------------------------------------
        .byte   W96
@ 113   ----------------------------------------
        .byte   W96
@ 114   ----------------------------------------
        .byte   W96
@ 115   ----------------------------------------
        .byte   W96
@ 116   ----------------------------------------
        .byte   W96
@ 117   ----------------------------------------
        .byte   W96
@ 118   ----------------------------------------
        .byte   W96
@ 119   ----------------------------------------
        .byte   W06
        .byte   FINE

@****************** Track 1 (Midi-Chn.1) ******************@

mus_thppme_290_credits_medley_1:
        .byte   KEYSH , mus_thppme_290_credits_medley_key+0
@ 000   ----------------------------------------
        .byte   W96
@ 001   ----------------------------------------
        .byte           VOICE , 68
        .byte           VOL   , 70
        .byte           N24   , Gn3 , v100
        .byte   W24
        .byte                   As3
        .byte   W24
        .byte           N48   , Dn4
        .byte   W48
@ 002   ----------------------------------------
mus_thppme_290_credits_medley_1_2:
        .byte           N24   , Cn4 , v100
        .byte   W24
        .byte                   As3
        .byte   W24
        .byte           N48   , An3
        .byte   W48
        .byte   PEND
@ 003   ----------------------------------------
        .byte           N24   , Gn3
        .byte   W24
        .byte                   Fn3
        .byte   W24
        .byte           TIE   , Gn3
        .byte   W48
@ 004   ----------------------------------------
        .byte   W84
        .byte           EOT
        .byte   W12
@ 005   ----------------------------------------
        .byte           N24
        .byte   W24
        .byte                   As3
        .byte   W24
        .byte           N48   , Dn4
        .byte   W48
@ 006   ----------------------------------------
        .byte   PATT
         .word  mus_thppme_290_credits_medley_1_2
@ 007   ----------------------------------------
        .byte           N48   , Fn4 , v100
        .byte   W48
        .byte           TIE   , Dn4
        .byte   W48
@ 008   ----------------------------------------
        .byte   W84
        .byte           EOT
        .byte   W12
@ 009   ----------------------------------------
        .byte   W96
@ 010   ----------------------------------------
        .byte   W96
@ 011   ----------------------------------------
        .byte   W96
@ 012   ----------------------------------------
        .byte   W96
@ 013   ----------------------------------------
        .byte   W96
@ 014   ----------------------------------------
        .byte   W96
@ 015   ----------------------------------------
        .byte   W48
        .byte           N06   , Gn3
        .byte   W12
        .byte                   Dn4
        .byte   W12
        .byte                   An3
        .byte   W06
        .byte                   As3
        .byte   W06
        .byte                   Fn3
        .byte   W06
        .byte                   Dn3
        .byte   W06
@ 016   ----------------------------------------
mus_thppme_290_credits_medley_1_16:
        .byte           N06   , Dn3 , v100
        .byte   W12
        .byte                   As3
        .byte   W12
        .byte                   An3
        .byte   W06
        .byte                   As3
        .byte   W06
        .byte                   Fn3
        .byte   W06
        .byte                   An3
        .byte   W06
        .byte                   Gn3
        .byte   W12
        .byte                   Dn4
        .byte   W12
        .byte                   An3
        .byte   W06
        .byte                   As3
        .byte   W06
        .byte                   Fn3
        .byte   W06
        .byte                   Dn3
        .byte   W06
        .byte   PEND
@ 017   ----------------------------------------
        .byte   PATT
         .word  mus_thppme_290_credits_medley_1_16
@ 018   ----------------------------------------
        .byte   PATT
         .word  mus_thppme_290_credits_medley_1_16
@ 019   ----------------------------------------
        .byte   PATT
         .word  mus_thppme_290_credits_medley_1_16
@ 020   ----------------------------------------
        .byte   PATT
         .word  mus_thppme_290_credits_medley_1_16
@ 021   ----------------------------------------
        .byte   PATT
         .word  mus_thppme_290_credits_medley_1_16
@ 022   ----------------------------------------
        .byte   PATT
         .word  mus_thppme_290_credits_medley_1_16
@ 023   ----------------------------------------
        .byte   PATT
         .word  mus_thppme_290_credits_medley_1_16
@ 024   ----------------------------------------
        .byte   PATT
         .word  mus_thppme_290_credits_medley_1_16
@ 025   ----------------------------------------
        .byte   PATT
         .word  mus_thppme_290_credits_medley_1_16
@ 026   ----------------------------------------
        .byte   PATT
         .word  mus_thppme_290_credits_medley_1_16
@ 027   ----------------------------------------
        .byte   PATT
         .word  mus_thppme_290_credits_medley_1_16
@ 028   ----------------------------------------
        .byte   PATT
         .word  mus_thppme_290_credits_medley_1_16
@ 029   ----------------------------------------
        .byte   PATT
         .word  mus_thppme_290_credits_medley_1_16
@ 030   ----------------------------------------
        .byte   PATT
         .word  mus_thppme_290_credits_medley_1_16
@ 031   ----------------------------------------
        .byte   PATT
         .word  mus_thppme_290_credits_medley_1_16
@ 032   ----------------------------------------
        .byte   PATT
         .word  mus_thppme_290_credits_medley_1_16
@ 033   ----------------------------------------
        .byte   PATT
         .word  mus_thppme_290_credits_medley_1_16
@ 034   ----------------------------------------
        .byte   PATT
         .word  mus_thppme_290_credits_medley_1_16
@ 035   ----------------------------------------
        .byte           N06   , Dn3 , v100
        .byte   W12
        .byte                   As3
        .byte   W12
        .byte                   An3
        .byte   W06
        .byte                   As3
        .byte   W06
        .byte                   Fn3
        .byte   W06
        .byte                   An3
        .byte   W54
@ 036   ----------------------------------------
        .byte   W96
@ 037   ----------------------------------------
        .byte   W96
@ 038   ----------------------------------------
        .byte   W96
@ 039   ----------------------------------------
        .byte   W96
@ 040   ----------------------------------------
        .byte   W96
@ 041   ----------------------------------------
        .byte   W96
@ 042   ----------------------------------------
        .byte   W96
@ 043   ----------------------------------------
        .byte   W96
@ 044   ----------------------------------------
        .byte   W96
@ 045   ----------------------------------------
        .byte   W96
@ 046   ----------------------------------------
        .byte   W96
@ 047   ----------------------------------------
        .byte   W96
@ 048   ----------------------------------------
        .byte   W96
@ 049   ----------------------------------------
        .byte   W96
@ 050   ----------------------------------------
        .byte   W96
@ 051   ----------------------------------------
        .byte   W96
@ 052   ----------------------------------------
        .byte   W48
        .byte           TIE
        .byte   W48
@ 053   ----------------------------------------
        .byte   W96
@ 054   ----------------------------------------
        .byte   W24
        .byte           EOT
        .byte           N24   , Bn3
        .byte   W24
        .byte           TIE   , Cs4
        .byte   W48
@ 055   ----------------------------------------
        .byte   W96
@ 056   ----------------------------------------
        .byte   W48
        .byte           EOT
        .byte           TIE   , As3
        .byte   W48
@ 057   ----------------------------------------
        .byte   W96
@ 058   ----------------------------------------
        .byte   W48
        .byte           EOT
        .byte           N48   , An3
        .byte   W48
@ 059   ----------------------------------------
mus_thppme_290_credits_medley_1_59:
        .byte           N48   , Bn3 , v100
        .byte   W48
        .byte           N96   , Cs4
        .byte   W48
        .byte   PEND
@ 060   ----------------------------------------
mus_thppme_290_credits_medley_1_60:
        .byte   W48
        .byte           N48   , An3 , v100
        .byte   W48
        .byte   PEND
@ 061   ----------------------------------------
        .byte   PATT
         .word  mus_thppme_290_credits_medley_1_59
@ 062   ----------------------------------------
        .byte   PATT
         .word  mus_thppme_290_credits_medley_1_60
@ 063   ----------------------------------------
        .byte   PATT
         .word  mus_thppme_290_credits_medley_1_59
@ 064   ----------------------------------------
        .byte   PATT
         .word  mus_thppme_290_credits_medley_1_60
@ 065   ----------------------------------------
        .byte   PATT
         .word  mus_thppme_290_credits_medley_1_59
@ 066   ----------------------------------------
        .byte   W96
@ 067   ----------------------------------------
        .byte           VOICE , 44
        .byte           VOL   , 80
        .byte           N12   , Fn1 , v100
        .byte   W12
        .byte                   Fn1
        .byte   W12
        .byte                   Gs1
        .byte   W12
        .byte                   As1
        .byte   W12
        .byte                   Fn1
        .byte   W12
        .byte                   Cn2
        .byte   W12
        .byte                   Gn1
        .byte   W12
        .byte                   Ds1
        .byte   W12
@ 068   ----------------------------------------
mus_thppme_290_credits_medley_1_68:
        .byte           N12   , Cs1 , v100
        .byte   W12
        .byte                   Cs1
        .byte   W12
        .byte                   Gn1
        .byte   W12
        .byte                   Gs1
        .byte   W12
        .byte                   Ds1
        .byte   W12
        .byte                   As1
        .byte   W12
        .byte                   Gs1
        .byte   W12
        .byte                   Ds1
        .byte   W12
        .byte   PEND
@ 069   ----------------------------------------
mus_thppme_290_credits_medley_1_69:
        .byte           N12   , Fn1 , v100
        .byte   W12
        .byte                   Fn1
        .byte   W12
        .byte                   Gs1
        .byte   W12
        .byte                   As1
        .byte   W12
        .byte                   Fn1
        .byte   W12
        .byte                   Cn2
        .byte   W12
        .byte                   Gn1
        .byte   W12
        .byte                   Ds1
        .byte   W12
        .byte   PEND
@ 070   ----------------------------------------
        .byte   PATT
         .word  mus_thppme_290_credits_medley_1_68
@ 071   ----------------------------------------
        .byte   PATT
         .word  mus_thppme_290_credits_medley_1_69
@ 072   ----------------------------------------
        .byte   PATT
         .word  mus_thppme_290_credits_medley_1_68
@ 073   ----------------------------------------
        .byte   PATT
         .word  mus_thppme_290_credits_medley_1_69
@ 074   ----------------------------------------
        .byte   PATT
         .word  mus_thppme_290_credits_medley_1_68
@ 075   ----------------------------------------
        .byte   W96
@ 076   ----------------------------------------
        .byte   W96
@ 077   ----------------------------------------
        .byte   W96
@ 078   ----------------------------------------
        .byte   W96
@ 079   ----------------------------------------
        .byte   W96
@ 080   ----------------------------------------
        .byte   W96
@ 081   ----------------------------------------
        .byte   W96
@ 082   ----------------------------------------
        .byte   W96
@ 083   ----------------------------------------
        .byte   W96
@ 084   ----------------------------------------
        .byte   W96
@ 085   ----------------------------------------
        .byte   W96
@ 086   ----------------------------------------
        .byte   W96
@ 087   ----------------------------------------
        .byte   W96
@ 088   ----------------------------------------
        .byte   W96
@ 089   ----------------------------------------
        .byte   W96
@ 090   ----------------------------------------
        .byte   W96
@ 091   ----------------------------------------
        .byte   W96
@ 092   ----------------------------------------
        .byte   W96
@ 093   ----------------------------------------
        .byte   W96
@ 094   ----------------------------------------
        .byte   W96
@ 095   ----------------------------------------
        .byte   W96
@ 096   ----------------------------------------
        .byte   W96
@ 097   ----------------------------------------
        .byte   W96
@ 098   ----------------------------------------
        .byte   W96
@ 099   ----------------------------------------
        .byte   W96
@ 100   ----------------------------------------
        .byte   W96
@ 101   ----------------------------------------
        .byte   W96
@ 102   ----------------------------------------
        .byte   W96
@ 103   ----------------------------------------
        .byte   W96
@ 104   ----------------------------------------
        .byte   W96
@ 105   ----------------------------------------
        .byte   W96
@ 106   ----------------------------------------
        .byte   W96
@ 107   ----------------------------------------
        .byte   W96
@ 108   ----------------------------------------
        .byte   W96
@ 109   ----------------------------------------
        .byte   W96
@ 110   ----------------------------------------
        .byte   W96
@ 111   ----------------------------------------
        .byte   W96
@ 112   ----------------------------------------
        .byte   W96
@ 113   ----------------------------------------
        .byte           VOICE , 68
        .byte           VOL   , 70
        .byte   W96
@ 114   ----------------------------------------
        .byte   W48
        .byte           N06   , Dn3 , v100
        .byte   W12
        .byte                   An3
        .byte   W12
        .byte                   En3
        .byte   W06
        .byte                   Fn3
        .byte   W06
        .byte                   Cn3
        .byte   W06
        .byte                   An2
        .byte   W06
@ 115   ----------------------------------------
mus_thppme_290_credits_medley_1_115:
        .byte           N06   , An2 , v100
        .byte   W12
        .byte                   Fn3
        .byte   W12
        .byte                   En3
        .byte   W06
        .byte                   Fn3
        .byte   W06
        .byte                   Cn3
        .byte   W06
        .byte                   En3
        .byte   W06
        .byte                   Dn3
        .byte   W12
        .byte                   An3
        .byte   W12
        .byte                   En3
        .byte   W06
        .byte                   Fn3
        .byte   W06
        .byte                   Cn3
        .byte   W06
        .byte                   An2
        .byte   W06
        .byte   PEND
@ 116   ----------------------------------------
        .byte   PATT
         .word  mus_thppme_290_credits_medley_1_115
@ 117   ----------------------------------------
        .byte   PATT
         .word  mus_thppme_290_credits_medley_1_115
@ 118   ----------------------------------------
        .byte           N06   , An2 , v100
        .byte   W12
        .byte                   Fn3
        .byte   W12
        .byte                   En3
        .byte   W06
        .byte                   Fn3
        .byte   W06
        .byte                   Cn3
        .byte   W06
        .byte                   En3
        .byte   W06
        .byte                   Dn3
        .byte   W48
@ 119   ----------------------------------------
        .byte   W06
        .byte   FINE

@****************** Track 2 (Midi-Chn.2) ******************@

mus_thppme_290_credits_medley_2:
        .byte   KEYSH , mus_thppme_290_credits_medley_key+0
@ 000   ----------------------------------------
        .byte   W96
@ 001   ----------------------------------------
        .byte           VOICE , 56
        .byte           VOL   , 85
        .byte   W96
@ 002   ----------------------------------------
        .byte   W96
@ 003   ----------------------------------------
        .byte   W96
@ 004   ----------------------------------------
        .byte   W96
@ 005   ----------------------------------------
        .byte   W96
@ 006   ----------------------------------------
        .byte   W96
@ 007   ----------------------------------------
        .byte   W96
@ 008   ----------------------------------------
        .byte   W96
@ 009   ----------------------------------------
        .byte           N24   , Dn4 , v100
        .byte   W24
        .byte                   Fn4
        .byte   W24
        .byte           N48   , Gn4
        .byte   W48
@ 010   ----------------------------------------
        .byte           N24   , Fn4
        .byte   W24
        .byte                   Dn4
        .byte   W24
        .byte           N48   , Cn4
        .byte   W48
@ 011   ----------------------------------------
        .byte           N24
        .byte   W24
        .byte                   Fn4
        .byte   W24
        .byte           N48   , Dn4
        .byte   W48
@ 012   ----------------------------------------
        .byte           N24   , Cn4
        .byte   W24
        .byte                   An3
        .byte   W24
        .byte           N48   , Gn3
        .byte   W48
@ 013   ----------------------------------------
        .byte           N24
        .byte   W24
        .byte                   An3
        .byte   W24
        .byte           N48   , As3
        .byte   W48
@ 014   ----------------------------------------
        .byte           N24
        .byte   W24
        .byte                   Cn4
        .byte   W24
        .byte                   An3
        .byte   W24
        .byte                   Gn3
        .byte   W24
@ 015   ----------------------------------------
        .byte           N48   , Fn3
        .byte   W48
        .byte           N12   , Gn3
        .byte   W48
@ 016   ----------------------------------------
mus_thppme_290_credits_medley_2_16:
        .byte   W48
        .byte           N12   , Gn3 , v100
        .byte   W48
        .byte   PEND
@ 017   ----------------------------------------
        .byte   PATT
         .word  mus_thppme_290_credits_medley_2_16
@ 018   ----------------------------------------
        .byte   PATT
         .word  mus_thppme_290_credits_medley_2_16
@ 019   ----------------------------------------
        .byte   W96
@ 020   ----------------------------------------
        .byte   W96
@ 021   ----------------------------------------
        .byte   W96
@ 022   ----------------------------------------
        .byte   W96
@ 023   ----------------------------------------
        .byte   W96
@ 024   ----------------------------------------
        .byte   W96
@ 025   ----------------------------------------
        .byte   W96
@ 026   ----------------------------------------
        .byte   W96
@ 027   ----------------------------------------
        .byte   W48
        .byte           N24   , Gn3 , v100
        .byte   W24
        .byte                   Gn3
        .byte   W24
@ 028   ----------------------------------------
mus_thppme_290_credits_medley_2_28:
        .byte           N18   , Fn3 , v100
        .byte   W18
        .byte                   An3
        .byte   W18
        .byte           N66   , As3
        .byte   W60
        .byte   PEND
@ 029   ----------------------------------------
mus_thppme_290_credits_medley_2_29:
        .byte   W12
        .byte           N12   , Ds4 , v100
        .byte   W12
        .byte                   Dn4
        .byte   W12
        .byte                   As3
        .byte   W12
        .byte           N24   , Gn3
        .byte   W24
        .byte                   Gn3
        .byte   W24
        .byte   PEND
@ 030   ----------------------------------------
mus_thppme_290_credits_medley_2_30:
        .byte           N18   , Fn3 , v100
        .byte   W18
        .byte                   Cn4
        .byte   W18
        .byte           N48   , As3
        .byte   W48
        .byte           N24   , Dn4
        .byte   W12
        .byte   PEND
@ 031   ----------------------------------------
        .byte   PATT
         .word  mus_thppme_290_credits_medley_2_29
@ 032   ----------------------------------------
mus_thppme_290_credits_medley_2_32:
        .byte           N18   , Fn3 , v100
        .byte   W18
        .byte                   An3
        .byte   W18
        .byte           N48   , As3
        .byte   W48
        .byte           N24
        .byte   W12
        .byte   PEND
@ 033   ----------------------------------------
mus_thppme_290_credits_medley_2_33:
        .byte   W12
        .byte           N12   , Cn4 , v100
        .byte   W12
        .byte                   Dn4
        .byte   W12
        .byte                   Fn4
        .byte   W12
        .byte           N18   , Gn4
        .byte   W18
        .byte                   As4
        .byte   W18
        .byte           N12   , An4
        .byte   W12
        .byte   PEND
@ 034   ----------------------------------------
mus_thppme_290_credits_medley_2_34:
        .byte           N18   , Gn4 , v100
        .byte   W18
        .byte                   Fn4
        .byte   W18
        .byte           TIE   , Gn4
        .byte   W60
        .byte   PEND
@ 035   ----------------------------------------
        .byte   W48
        .byte           EOT
        .byte   W48
@ 036   ----------------------------------------
        .byte   W96
@ 037   ----------------------------------------
        .byte   W96
@ 038   ----------------------------------------
        .byte   W96
@ 039   ----------------------------------------
        .byte   W96
@ 040   ----------------------------------------
        .byte   W96
@ 041   ----------------------------------------
        .byte   W96
@ 042   ----------------------------------------
        .byte   W96
@ 043   ----------------------------------------
        .byte   W96
@ 044   ----------------------------------------
mus_thppme_290_credits_medley_2_44:
        .byte   W24
        .byte           N12   , Cs4 , v100
        .byte   W12
        .byte                   Gs4
        .byte   W12
        .byte           N36   , Fs4
        .byte   W36
        .byte           N12   , En4
        .byte   W12
        .byte   PEND
@ 045   ----------------------------------------
mus_thppme_290_credits_medley_2_45:
        .byte           N18   , Ds4 , v100
        .byte   W18
        .byte                   Bn3
        .byte   W18
        .byte           N72   , Cs4
        .byte   W60
        .byte   PEND
@ 046   ----------------------------------------
        .byte   PATT
         .word  mus_thppme_290_credits_medley_2_44
@ 047   ----------------------------------------
mus_thppme_290_credits_medley_2_47:
        .byte           N18   , Ds4 , v100
        .byte   W18
        .byte                   Bn4
        .byte   W18
        .byte           N72   , Gs4
        .byte   W60
        .byte   PEND
@ 048   ----------------------------------------
        .byte   PATT
         .word  mus_thppme_290_credits_medley_2_44
@ 049   ----------------------------------------
        .byte   PATT
         .word  mus_thppme_290_credits_medley_2_45
@ 050   ----------------------------------------
mus_thppme_290_credits_medley_2_50:
        .byte   W24
        .byte           N12   , Cs4 , v100
        .byte   W12
        .byte                   Ds4
        .byte   W12
        .byte                   En4
        .byte   W12
        .byte                   Ds4
        .byte   W12
        .byte                   Bn3
        .byte   W12
        .byte           N60   , Cs4
        .byte   W12
        .byte   PEND
@ 051   ----------------------------------------
        .byte   W48
        .byte                   Gs4
        .byte   W48
@ 052   ----------------------------------------
        .byte   PATT
         .word  mus_thppme_290_credits_medley_2_44
@ 053   ----------------------------------------
        .byte   PATT
         .word  mus_thppme_290_credits_medley_2_45
@ 054   ----------------------------------------
        .byte   PATT
         .word  mus_thppme_290_credits_medley_2_44
@ 055   ----------------------------------------
        .byte   PATT
         .word  mus_thppme_290_credits_medley_2_47
@ 056   ----------------------------------------
        .byte   PATT
         .word  mus_thppme_290_credits_medley_2_44
@ 057   ----------------------------------------
        .byte   PATT
         .word  mus_thppme_290_credits_medley_2_45
@ 058   ----------------------------------------
        .byte   PATT
         .word  mus_thppme_290_credits_medley_2_50
@ 059   ----------------------------------------
        .byte   W48
        .byte           TIE   , Cs5 , v100
        .byte   W48
@ 060   ----------------------------------------
        .byte   W96
@ 061   ----------------------------------------
        .byte   W96
@ 062   ----------------------------------------
        .byte   W48
        .byte           EOT
        .byte   W48
@ 063   ----------------------------------------
        .byte   W96
@ 064   ----------------------------------------
mus_thppme_290_credits_medley_2_64:
        .byte   W48
        .byte           N48   , En5 , v100
        .byte   W48
        .byte   PEND
@ 065   ----------------------------------------
mus_thppme_290_credits_medley_2_65:
        .byte           N48   , Ds5 , v100
        .byte   W48
        .byte           N84   , Cs5
        .byte   W48
        .byte   PEND
@ 066   ----------------------------------------
        .byte   W36
        .byte           N06
        .byte   W06
        .byte                   Cs5
        .byte   W06
        .byte           N04
        .byte   W48
@ 067   ----------------------------------------
mus_thppme_290_credits_medley_2_67:
        .byte           N12   , Cn4 , v100
        .byte   W24
        .byte           N06
        .byte   W12
        .byte           N12   , Fn3
        .byte   W36
        .byte           N24   , Gn3
        .byte   W24
        .byte   PEND
@ 068   ----------------------------------------
        .byte           N12   , Cn3
        .byte   W12
        .byte                   Fn3
        .byte   W24
        .byte                   Gn3
        .byte   W36
        .byte           N06   , Gs3
        .byte   W12
        .byte                   As2
        .byte   W12
@ 069   ----------------------------------------
        .byte   PATT
         .word  mus_thppme_290_credits_medley_2_67
@ 070   ----------------------------------------
        .byte           N12   , Cn3 , v100
        .byte   W12
        .byte                   Fn3
        .byte   W24
        .byte                   Gn3
        .byte   W36
        .byte                   Gs3
        .byte   W12
        .byte                   As3
        .byte   W12
@ 071   ----------------------------------------
        .byte                   Cn3
        .byte           N12   , Cn4
        .byte   W24
        .byte           N06
        .byte   W12
        .byte           N12   , Fn4
        .byte   W36
        .byte           N24   , Gn4
        .byte   W24
@ 072   ----------------------------------------
mus_thppme_290_credits_medley_2_72:
        .byte           N12   , Cn4 , v100
        .byte   W12
        .byte                   Fn4
        .byte   W24
        .byte                   Gn4
        .byte   W36
        .byte                   Gs4
        .byte   W12
        .byte                   As4
        .byte   W12
        .byte   PEND
@ 073   ----------------------------------------
mus_thppme_290_credits_medley_2_73:
        .byte           N12   , Cn5 , v100
        .byte   W24
        .byte           N06
        .byte   W12
        .byte           N12   , Fn5
        .byte   W36
        .byte           N24   , Gn5
        .byte   W24
        .byte   PEND
@ 074   ----------------------------------------
mus_thppme_290_credits_medley_2_74:
        .byte           N12   , Cn5 , v100
        .byte   W12
        .byte                   Fn5
        .byte   W24
        .byte                   Gn5
        .byte   W36
        .byte           N24   , Gs5
        .byte   W24
        .byte   PEND
@ 075   ----------------------------------------
        .byte   W96
@ 076   ----------------------------------------
        .byte   W96
@ 077   ----------------------------------------
        .byte   W96
@ 078   ----------------------------------------
        .byte   W96
@ 079   ----------------------------------------
        .byte   W96
@ 080   ----------------------------------------
        .byte   W96
@ 081   ----------------------------------------
        .byte   W96
@ 082   ----------------------------------------
        .byte   W96
@ 083   ----------------------------------------
        .byte   W96
@ 084   ----------------------------------------
        .byte   W96
@ 085   ----------------------------------------
        .byte   W96
@ 086   ----------------------------------------
        .byte   W96
@ 087   ----------------------------------------
        .byte   W96
@ 088   ----------------------------------------
        .byte   W96
@ 089   ----------------------------------------
        .byte   W96
@ 090   ----------------------------------------
        .byte   W96
@ 091   ----------------------------------------
        .byte   W96
@ 092   ----------------------------------------
        .byte   W96
@ 093   ----------------------------------------
        .byte   W96
@ 094   ----------------------------------------
        .byte   W96
@ 095   ----------------------------------------
        .byte   W96
@ 096   ----------------------------------------
        .byte   W96
@ 097   ----------------------------------------
        .byte   W96
@ 098   ----------------------------------------
        .byte   W96
@ 099   ----------------------------------------
        .byte   W96
@ 100   ----------------------------------------
        .byte   W96
@ 101   ----------------------------------------
mus_thppme_290_credits_medley_2_101:
        .byte   W12
        .byte           N12   , An4 , v100
        .byte   W12
        .byte                   An4
        .byte   W12
        .byte                   Cn5
        .byte   W12
        .byte           N36   , Dn5
        .byte   W36
        .byte           N06   , Cn5
        .byte   W06
        .byte                   Dn5
        .byte   W06
        .byte   PEND
@ 102   ----------------------------------------
mus_thppme_290_credits_medley_2_102:
        .byte           N12   , Cn5 , v100
        .byte   W12
        .byte                   An4
        .byte   W12
        .byte                   Gn4
        .byte   W12
        .byte                   Cn5
        .byte   W12
        .byte           N48   , An4
        .byte   W48
        .byte   PEND
@ 103   ----------------------------------------
        .byte   PATT
         .word  mus_thppme_290_credits_medley_2_101
@ 104   ----------------------------------------
mus_thppme_290_credits_medley_2_104:
        .byte           N12   , Fn5 , v100
        .byte   W12
        .byte                   En5
        .byte   W12
        .byte                   Dn5
        .byte   W12
        .byte                   Cn5
        .byte   W12
        .byte           N54   , Dn5
        .byte   W48
        .byte   PEND
@ 105   ----------------------------------------
mus_thppme_290_credits_medley_2_105:
        .byte   W12
        .byte           N06   , Cn5 , v100
        .byte   W06
        .byte                   Dn5
        .byte   W06
        .byte           N12   , Cn5
        .byte   W12
        .byte                   An4
        .byte   W12
        .byte           N54   , Gn4
        .byte   W48
        .byte   PEND
@ 106   ----------------------------------------
mus_thppme_290_credits_medley_2_106:
        .byte   W12
        .byte           N06   , Cn5 , v100
        .byte   W06
        .byte                   Dn5
        .byte   W06
        .byte           N12   , Cn5
        .byte   W12
        .byte                   Gn4
        .byte   W12
        .byte           N54   , Fn4
        .byte   W48
        .byte   PEND
@ 107   ----------------------------------------
mus_thppme_290_credits_medley_2_107:
        .byte   W12
        .byte           N12   , Dn4 , v100
        .byte   W12
        .byte                   Dn4
        .byte   W12
        .byte                   En4
        .byte   W12
        .byte           N36   , Fn4
        .byte   W36
        .byte           N12   , Gn4
        .byte   W12
        .byte   PEND
@ 108   ----------------------------------------
mus_thppme_290_credits_medley_2_108:
        .byte           N36   , En4 , v100
        .byte   W36
        .byte           N12   , Dn4
        .byte   W12
        .byte           N54
        .byte   W48
        .byte   PEND
@ 109   ----------------------------------------
        .byte   PATT
         .word  mus_thppme_290_credits_medley_2_107
@ 110   ----------------------------------------
mus_thppme_290_credits_medley_2_110:
        .byte           N18   , En4 , v100
        .byte   W18
        .byte                   Gn4
        .byte   W18
        .byte           N12   , Cn5
        .byte   W12
        .byte           TIE   , Dn5
        .byte   W48
        .byte   PEND
@ 111   ----------------------------------------
        .byte   W96
@ 112   ----------------------------------------
        .byte   W96
@ 113   ----------------------------------------
        .byte   W96
@ 114   ----------------------------------------
        .byte   W96
@ 115   ----------------------------------------
mus_thppme_290_credits_medley_2_115:
        .byte   W48
        .byte           EOT   , Dn5
        .byte           N06   , Dn4 , v100
        .byte   W12
        .byte                   An4
        .byte   W12
        .byte                   En4
        .byte   W06
        .byte                   Fn4
        .byte   W06
        .byte                   Cn4
        .byte   W06
        .byte                   An3
        .byte   W06
        .byte   PEND
@ 116   ----------------------------------------
mus_thppme_290_credits_medley_2_116:
        .byte           N06   , An3 , v100
        .byte   W12
        .byte                   Fn4
        .byte   W12
        .byte                   En4
        .byte   W06
        .byte                   Fn4
        .byte   W06
        .byte                   Cn4
        .byte   W06
        .byte                   En4
        .byte   W06
        .byte                   Dn4
        .byte   W12
        .byte                   An4
        .byte   W12
        .byte                   En4
        .byte   W06
        .byte                   Fn4
        .byte   W06
        .byte                   Cn4
        .byte   W06
        .byte                   An3
        .byte   W06
        .byte   PEND
@ 117   ----------------------------------------
        .byte   PATT
         .word  mus_thppme_290_credits_medley_2_116
@ 118   ----------------------------------------
mus_thppme_290_credits_medley_2_118:
        .byte           N06   , An3 , v100
        .byte   W12
        .byte                   Fn4
        .byte   W12
        .byte                   En4
        .byte   W06
        .byte                   Fn4
        .byte   W06
        .byte                   Cn4
        .byte   W06
        .byte                   En4
        .byte   W06
        .byte                   Dn4
        .byte   W36
        .byte                   Dn4 , v127
        .byte   W06
        .byte                   Dn4
        .byte   W06
        .byte   PEND
@ 119   ----------------------------------------
        .byte                   Dn4
        .byte   W06
        .byte   FINE

@****************** Track 3 (Midi-Chn.3) ******************@

mus_thppme_290_credits_medley_3:
        .byte   KEYSH , mus_thppme_290_credits_medley_key+0
@ 000   ----------------------------------------
        .byte   W96
@ 001   ----------------------------------------
        .byte           VOICE , 47
        .byte           VOL   , 70
        .byte   W96
@ 002   ----------------------------------------
        .byte   W96
@ 003   ----------------------------------------
        .byte   W96
@ 004   ----------------------------------------
        .byte   W96
@ 005   ----------------------------------------
        .byte   W96
@ 006   ----------------------------------------
        .byte   W96
@ 007   ----------------------------------------
        .byte   W96
@ 008   ----------------------------------------
        .byte   W96
@ 009   ----------------------------------------
        .byte           N24   , Dn1 , v100
        .byte   W48
        .byte                   Ds1
        .byte   W48
@ 010   ----------------------------------------
mus_thppme_290_credits_medley_3_10:
        .byte   W48
        .byte           N24   , Fn1 , v100
        .byte   W48
        .byte   PEND
@ 011   ----------------------------------------
        .byte   W48
        .byte                   Gn1
        .byte   W48
@ 012   ----------------------------------------
        .byte                   Fn1
        .byte   W24
        .byte                   Dn1
        .byte   W24
        .byte                   Ds1
        .byte   W48
@ 013   ----------------------------------------
        .byte   W48
        .byte                   Ds1
        .byte   W48
@ 014   ----------------------------------------
        .byte   PATT
         .word  mus_thppme_290_credits_medley_3_10
@ 015   ----------------------------------------
        .byte           N06   , Fn1 , v100
        .byte   W06
        .byte                   Fn1
        .byte   W06
        .byte                   Fn1
        .byte   W06
        .byte                   Fn1
        .byte   W06
        .byte                   Fn1
        .byte   W06
        .byte                   Fn1
        .byte   W06
        .byte                   Fn1
        .byte   W06
        .byte                   Fn1
        .byte   W06
        .byte           N24   , Gn1
        .byte   W48
@ 016   ----------------------------------------
mus_thppme_290_credits_medley_3_16:
        .byte   W36
        .byte           N06   , Gn1 , v100
        .byte   W06
        .byte                   Gn1
        .byte   W06
        .byte           N24
        .byte   W48
        .byte   PEND
@ 017   ----------------------------------------
        .byte   PATT
         .word  mus_thppme_290_credits_medley_3_16
@ 018   ----------------------------------------
        .byte   PATT
         .word  mus_thppme_290_credits_medley_3_16
@ 019   ----------------------------------------
        .byte   W96
@ 020   ----------------------------------------
        .byte   W96
@ 021   ----------------------------------------
        .byte   W96
@ 022   ----------------------------------------
        .byte   W96
@ 023   ----------------------------------------
        .byte   W96
@ 024   ----------------------------------------
        .byte   W96
@ 025   ----------------------------------------
        .byte   W96
@ 026   ----------------------------------------
        .byte   W96
@ 027   ----------------------------------------
        .byte   W96
@ 028   ----------------------------------------
        .byte   W96
@ 029   ----------------------------------------
        .byte   W96
@ 030   ----------------------------------------
        .byte   W96
@ 031   ----------------------------------------
        .byte   W96
@ 032   ----------------------------------------
        .byte   W96
@ 033   ----------------------------------------
        .byte   W96
@ 034   ----------------------------------------
        .byte   W96
@ 035   ----------------------------------------
        .byte   W96
@ 036   ----------------------------------------
        .byte   W96
@ 037   ----------------------------------------
        .byte   W96
@ 038   ----------------------------------------
        .byte   W96
@ 039   ----------------------------------------
        .byte   W96
@ 040   ----------------------------------------
        .byte   W96
@ 041   ----------------------------------------
        .byte   W96
@ 042   ----------------------------------------
        .byte   W96
@ 043   ----------------------------------------
        .byte   W96
@ 044   ----------------------------------------
        .byte   W96
@ 045   ----------------------------------------
        .byte   W96
@ 046   ----------------------------------------
        .byte   W96
@ 047   ----------------------------------------
        .byte   W96
@ 048   ----------------------------------------
        .byte   W96
@ 049   ----------------------------------------
        .byte   W96
@ 050   ----------------------------------------
        .byte   W96
@ 051   ----------------------------------------
        .byte   W96
@ 052   ----------------------------------------
        .byte   W96
@ 053   ----------------------------------------
        .byte   W96
@ 054   ----------------------------------------
        .byte   W96
@ 055   ----------------------------------------
        .byte   W96
@ 056   ----------------------------------------
        .byte   W96
@ 057   ----------------------------------------
        .byte   W96
@ 058   ----------------------------------------
        .byte   W96
@ 059   ----------------------------------------
        .byte   W96
@ 060   ----------------------------------------
        .byte   W96
@ 061   ----------------------------------------
        .byte   W96
@ 062   ----------------------------------------
        .byte   W96
@ 063   ----------------------------------------
        .byte   W96
@ 064   ----------------------------------------
        .byte   W96
@ 065   ----------------------------------------
        .byte   W96
@ 066   ----------------------------------------
        .byte   W24
        .byte           N06   , Gs1 , v100
        .byte   W12
        .byte                   Cs2
        .byte   W06
        .byte                   Cs2
        .byte   W06
        .byte                   Cs2
        .byte   W48
@ 067   ----------------------------------------
mus_thppme_290_credits_medley_3_67:
        .byte           N06   , Fn1 , v100
        .byte   W12
        .byte                   Dn2
        .byte   W12
        .byte                   Dn2
        .byte   W12
        .byte                   Fn1
        .byte   W12
        .byte                   Dn2
        .byte   W12
        .byte                   Dn2
        .byte   W12
        .byte                   Fn1
        .byte   W12
        .byte                   Dn2
        .byte   W12
        .byte   PEND
@ 068   ----------------------------------------
        .byte   PATT
         .word  mus_thppme_290_credits_medley_3_67
@ 069   ----------------------------------------
        .byte   PATT
         .word  mus_thppme_290_credits_medley_3_67
@ 070   ----------------------------------------
        .byte   PATT
         .word  mus_thppme_290_credits_medley_3_67
@ 071   ----------------------------------------
        .byte   PATT
         .word  mus_thppme_290_credits_medley_3_67
@ 072   ----------------------------------------
        .byte   PATT
         .word  mus_thppme_290_credits_medley_3_67
@ 073   ----------------------------------------
        .byte   PATT
         .word  mus_thppme_290_credits_medley_3_67
@ 074   ----------------------------------------
        .byte   PATT
         .word  mus_thppme_290_credits_medley_3_67
@ 075   ----------------------------------------
        .byte   W96
@ 076   ----------------------------------------
        .byte   W96
@ 077   ----------------------------------------
        .byte   W96
@ 078   ----------------------------------------
        .byte   W96
@ 079   ----------------------------------------
        .byte   W96
@ 080   ----------------------------------------
        .byte   W96
@ 081   ----------------------------------------
        .byte   W96
@ 082   ----------------------------------------
        .byte   W96
@ 083   ----------------------------------------
        .byte   W96
@ 084   ----------------------------------------
        .byte   W96
@ 085   ----------------------------------------
        .byte   W96
@ 086   ----------------------------------------
        .byte   W96
@ 087   ----------------------------------------
        .byte   W96
@ 088   ----------------------------------------
        .byte   W96
@ 089   ----------------------------------------
        .byte   W96
@ 090   ----------------------------------------
        .byte   W96
@ 091   ----------------------------------------
        .byte   W96
@ 092   ----------------------------------------
        .byte   W96
@ 093   ----------------------------------------
        .byte   W96
@ 094   ----------------------------------------
        .byte   W96
@ 095   ----------------------------------------
        .byte   W96
@ 096   ----------------------------------------
        .byte   W96
@ 097   ----------------------------------------
        .byte   W96
@ 098   ----------------------------------------
        .byte   W96
@ 099   ----------------------------------------
        .byte   W96
@ 100   ----------------------------------------
        .byte   W96
@ 101   ----------------------------------------
        .byte   W12
        .byte           N03   , An1 , v004
        .byte   W03
        .byte                   An1 , v008
        .byte   W03
        .byte                   An1 , v012
        .byte   W03
        .byte                   An1 , v016
        .byte   W03
        .byte                   An1 , v020
        .byte   W03
        .byte                   An1 , v028
        .byte   W03
        .byte                   An1 , v036
        .byte   W03
        .byte                   An1 , v044
        .byte   W03
        .byte                   An1 , v056
        .byte   W03
        .byte                   An1 , v068
        .byte   W03
        .byte                   An1 , v080
        .byte   W03
        .byte                   An1 , v092
        .byte   W03
        .byte           N12   , Dn1 , v100
        .byte           N12   , Dn2
        .byte   W48
@ 102   ----------------------------------------
mus_thppme_290_credits_medley_3_102:
        .byte           N12   , An1 , v100
        .byte   W36
        .byte                   Dn1
        .byte   W12
        .byte                   Gn1
        .byte   W48
        .byte   PEND
@ 103   ----------------------------------------
mus_thppme_290_credits_medley_3_103:
        .byte           N12   , Fn1 , v100
        .byte   W36
        .byte                   Dn1
        .byte   W12
        .byte                   Dn1
        .byte           N12   , Dn2
        .byte   W48
        .byte   PEND
@ 104   ----------------------------------------
        .byte   PATT
         .word  mus_thppme_290_credits_medley_3_102
@ 105   ----------------------------------------
        .byte   PATT
         .word  mus_thppme_290_credits_medley_3_103
@ 106   ----------------------------------------
        .byte   PATT
         .word  mus_thppme_290_credits_medley_3_102
@ 107   ----------------------------------------
        .byte           N12   , Fn1 , v100
        .byte   W48
        .byte                   Dn1
        .byte           N12   , Dn2
        .byte   W48
@ 108   ----------------------------------------
        .byte                   Dn1
        .byte           N12   , Dn2
        .byte   W36
        .byte                   Dn1
        .byte   W12
        .byte                   Dn1
        .byte           N12   , Dn2
        .byte   W12
        .byte           N03   , An1 , v004
        .byte   W03
        .byte                   An1 , v008
        .byte   W03
        .byte                   An1 , v012
        .byte   W03
        .byte                   An1 , v016
        .byte   W03
        .byte                   An1 , v020
        .byte   W03
        .byte                   An1 , v028
        .byte   W03
        .byte                   An1 , v036
        .byte   W03
        .byte                   An1 , v044
        .byte   W03
        .byte                   An1 , v056
        .byte   W03
        .byte                   An1 , v068
        .byte   W03
        .byte                   An1 , v080
        .byte   W03
        .byte                   An1 , v092
        .byte   W03
@ 109   ----------------------------------------
        .byte           N12   , Dn1 , v100
        .byte           N12   , Dn2
        .byte   W36
        .byte                   Dn1
        .byte   W12
        .byte                   Dn1
        .byte           N12   , Dn2
        .byte   W48
@ 110   ----------------------------------------
        .byte                   Dn1
        .byte           N12   , Dn2
        .byte   W18
        .byte                   Dn1
        .byte   W18
        .byte                   Dn1
        .byte   W12
        .byte                   Dn1
        .byte   W48
@ 111   ----------------------------------------
        .byte   W96
@ 112   ----------------------------------------
        .byte   W96
@ 113   ----------------------------------------
        .byte   W96
@ 114   ----------------------------------------
        .byte   W48
        .byte                   Dn2
        .byte   W12
        .byte                   Dn2
        .byte   W24
        .byte           N06
        .byte   W06
        .byte                   Dn2
        .byte   W06
@ 115   ----------------------------------------
mus_thppme_290_credits_medley_3_115:
        .byte           N12   , Dn2 , v100
        .byte   W12
        .byte                   Dn2
        .byte   W12
        .byte           N24
        .byte   W24
        .byte           N12
        .byte   W12
        .byte                   Dn2
        .byte   W24
        .byte           N06
        .byte   W06
        .byte                   Dn2
        .byte   W06
        .byte   PEND
@ 116   ----------------------------------------
        .byte   PATT
         .word  mus_thppme_290_credits_medley_3_115
@ 117   ----------------------------------------
        .byte   PATT
         .word  mus_thppme_290_credits_medley_3_115
@ 118   ----------------------------------------
        .byte           N12   , Dn2 , v100
        .byte   W12
        .byte                   Dn2
        .byte   W12
        .byte           N24
        .byte   W24
        .byte           N12
        .byte   W36
        .byte           N06   , Dn2 , v127
        .byte   W06
        .byte                   Dn2
        .byte   W06
@ 119   ----------------------------------------
        .byte                   Dn2
        .byte   W06
        .byte   FINE

@****************** Track 4 (Midi-Chn.4) ******************@

mus_thppme_290_credits_medley_4:
        .byte   KEYSH , mus_thppme_290_credits_medley_key+0
@ 000   ----------------------------------------
        .byte   W96
@ 001   ----------------------------------------
        .byte           VOICE , 58
        .byte           VOL   , 70
        .byte   W96
@ 002   ----------------------------------------
        .byte   W96
@ 003   ----------------------------------------
        .byte   W96
@ 004   ----------------------------------------
        .byte   W96
@ 005   ----------------------------------------
        .byte   W96
@ 006   ----------------------------------------
        .byte   W96
@ 007   ----------------------------------------
        .byte   W96
@ 008   ----------------------------------------
        .byte   W96
@ 009   ----------------------------------------
        .byte           N48   , Dn1 , v100
        .byte   W48
        .byte           N96   , Ds1
        .byte   W48
@ 010   ----------------------------------------
mus_thppme_290_credits_medley_4_10:
        .byte   W48
        .byte           N96   , Fn1 , v100
        .byte   W48
        .byte   PEND
@ 011   ----------------------------------------
        .byte   W48
        .byte           N48   , Gn1
        .byte   W48
@ 012   ----------------------------------------
        .byte           N24   , Fn1
        .byte   W24
        .byte                   Dn1
        .byte   W24
        .byte           N96   , Ds1
        .byte   W48
@ 013   ----------------------------------------
        .byte   W48
        .byte                   Ds1
        .byte   W48
@ 014   ----------------------------------------
        .byte   PATT
         .word  mus_thppme_290_credits_medley_4_10
@ 015   ----------------------------------------
        .byte   W48
        .byte           N12   , Gn1 , v100
        .byte   W48
@ 016   ----------------------------------------
        .byte   W96
@ 017   ----------------------------------------
        .byte   W96
@ 018   ----------------------------------------
        .byte   W96
@ 019   ----------------------------------------
        .byte   W96
@ 020   ----------------------------------------
        .byte   W96
@ 021   ----------------------------------------
        .byte   W96
@ 022   ----------------------------------------
        .byte   W96
@ 023   ----------------------------------------
        .byte   W96
@ 024   ----------------------------------------
        .byte   W96
@ 025   ----------------------------------------
        .byte   W96
@ 026   ----------------------------------------
        .byte   W96
@ 027   ----------------------------------------
        .byte   W96
@ 028   ----------------------------------------
        .byte   W96
@ 029   ----------------------------------------
        .byte   W96
@ 030   ----------------------------------------
        .byte   W96
@ 031   ----------------------------------------
        .byte   W96
@ 032   ----------------------------------------
        .byte   W96
@ 033   ----------------------------------------
        .byte   W96
@ 034   ----------------------------------------
        .byte   W96
@ 035   ----------------------------------------
        .byte   W96
@ 036   ----------------------------------------
        .byte   W96
@ 037   ----------------------------------------
        .byte   W96
@ 038   ----------------------------------------
        .byte   W96
@ 039   ----------------------------------------
        .byte   W96
@ 040   ----------------------------------------
        .byte   W96
@ 041   ----------------------------------------
        .byte   W96
@ 042   ----------------------------------------
        .byte   W96
@ 043   ----------------------------------------
        .byte   W96
@ 044   ----------------------------------------
        .byte   W96
@ 045   ----------------------------------------
        .byte   W96
@ 046   ----------------------------------------
        .byte   W96
@ 047   ----------------------------------------
        .byte   W96
@ 048   ----------------------------------------
        .byte   W96
@ 049   ----------------------------------------
        .byte   W96
@ 050   ----------------------------------------
        .byte   W96
@ 051   ----------------------------------------
        .byte   W96
@ 052   ----------------------------------------
        .byte   W96
@ 053   ----------------------------------------
        .byte   W96
@ 054   ----------------------------------------
        .byte   W96
@ 055   ----------------------------------------
        .byte   W96
@ 056   ----------------------------------------
        .byte   W96
@ 057   ----------------------------------------
        .byte   W96
@ 058   ----------------------------------------
        .byte   W96
@ 059   ----------------------------------------
        .byte   W96
@ 060   ----------------------------------------
        .byte   W96
@ 061   ----------------------------------------
        .byte   W96
@ 062   ----------------------------------------
        .byte   W96
@ 063   ----------------------------------------
        .byte   W96
@ 064   ----------------------------------------
        .byte   W96
@ 065   ----------------------------------------
        .byte   W96
@ 066   ----------------------------------------
        .byte   W96
@ 067   ----------------------------------------
        .byte   W96
@ 068   ----------------------------------------
        .byte   W96
@ 069   ----------------------------------------
        .byte   W96
@ 070   ----------------------------------------
        .byte   W96
@ 071   ----------------------------------------
        .byte   W96
@ 072   ----------------------------------------
        .byte   W96
@ 073   ----------------------------------------
        .byte   W96
@ 074   ----------------------------------------
        .byte   W96
@ 075   ----------------------------------------
        .byte   W96
@ 076   ----------------------------------------
        .byte   W96
@ 077   ----------------------------------------
        .byte   W96
@ 078   ----------------------------------------
        .byte   W96
@ 079   ----------------------------------------
        .byte   W96
@ 080   ----------------------------------------
        .byte   W96
@ 081   ----------------------------------------
        .byte   W96
@ 082   ----------------------------------------
        .byte   W96
@ 083   ----------------------------------------
        .byte   W96
@ 084   ----------------------------------------
        .byte   W96
@ 085   ----------------------------------------
        .byte   W96
@ 086   ----------------------------------------
        .byte   W96
@ 087   ----------------------------------------
        .byte   W96
@ 088   ----------------------------------------
        .byte   W96
@ 089   ----------------------------------------
        .byte   W96
@ 090   ----------------------------------------
        .byte   W96
@ 091   ----------------------------------------
mus_thppme_290_credits_medley_4_91:
        .byte           N06   , Fs1 , v100
        .byte   W12
        .byte                   Gs1
        .byte   W12
        .byte                   An1
        .byte   W12
        .byte                   Fs1
        .byte   W12
        .byte                   Gs1
        .byte   W12
        .byte                   An1
        .byte   W12
        .byte                   Bn1
        .byte   W12
        .byte                   Gs1
        .byte   W12
        .byte   PEND
@ 092   ----------------------------------------
        .byte   W96
@ 093   ----------------------------------------
        .byte   PATT
         .word  mus_thppme_290_credits_medley_4_91
@ 094   ----------------------------------------
        .byte   W96
@ 095   ----------------------------------------
mus_thppme_290_credits_medley_4_95:
        .byte           N06   , Fs1 , v100
        .byte           N06   , An1
        .byte   W12
        .byte                   Gs1
        .byte           N06   , Bn1
        .byte   W12
        .byte                   An1
        .byte           N06   , Cs2
        .byte   W12
        .byte                   Fs1
        .byte           N06   , An1
        .byte   W12
        .byte                   Gs1
        .byte           N06   , Bn1
        .byte   W12
        .byte                   An1
        .byte           N06   , Cs2
        .byte   W12
        .byte                   Bn1
        .byte           N06   , Dn2
        .byte   W12
        .byte                   Gs1
        .byte           N06   , Bn1
        .byte   W12
        .byte   PEND
@ 096   ----------------------------------------
        .byte   W96
@ 097   ----------------------------------------
        .byte   PATT
         .word  mus_thppme_290_credits_medley_4_95
@ 098   ----------------------------------------
mus_thppme_290_credits_medley_4_98:
        .byte           N06   , An1 , v100
        .byte           N06   , Cs2
        .byte   W12
        .byte                   Bn1
        .byte           N06   , Dn2
        .byte   W12
        .byte                   Cs2
        .byte           N06   , En2
        .byte   W12
        .byte                   An1
        .byte           N06   , Cs2
        .byte   W12
        .byte                   Bn1
        .byte           N06   , Dn2
        .byte   W12
        .byte                   An1
        .byte           N06   , Cs2
        .byte   W12
        .byte                   Gs1
        .byte           N06   , Bn1
        .byte   W12
        .byte                   En1
        .byte           N06   , Gs1
        .byte   W12
        .byte   PEND
@ 099   ----------------------------------------
        .byte   PATT
         .word  mus_thppme_290_credits_medley_4_95
@ 100   ----------------------------------------
        .byte   PATT
         .word  mus_thppme_290_credits_medley_4_98
@ 101   ----------------------------------------
        .byte   W48
        .byte           N48   , As1 , v127
        .byte   W48
@ 102   ----------------------------------------
mus_thppme_290_credits_medley_4_102:
        .byte           N48   , Cn2 , v127
        .byte   W48
        .byte           N72   , Dn2
        .byte   W48
        .byte   PEND
@ 103   ----------------------------------------
        .byte   W24
        .byte           N24   , An1
        .byte   W24
        .byte           N48   , As1
        .byte   W48
@ 104   ----------------------------------------
        .byte   PATT
         .word  mus_thppme_290_credits_medley_4_102
@ 105   ----------------------------------------
        .byte   W24
        .byte           N24   , An1 , v100
        .byte   W24
        .byte           N48   , As1
        .byte   W48
@ 106   ----------------------------------------
        .byte                   Gn1
        .byte   W48
        .byte                   An1
        .byte   W48
@ 107   ----------------------------------------
        .byte           N36   , Fn1
        .byte   W36
        .byte           N12   , En1
        .byte   W12
        .byte           N48   , Fn1
        .byte   W48
@ 108   ----------------------------------------
        .byte                   En1
        .byte   W48
        .byte           N60   , Dn1
        .byte   W48
@ 109   ----------------------------------------
        .byte   W12
        .byte           N12
        .byte   W12
        .byte                   Dn1
        .byte   W12
        .byte                   En1
        .byte   W12
        .byte           N48   , Fn1
        .byte   W48
@ 110   ----------------------------------------
        .byte                   En1
        .byte   W48
        .byte           TIE   , Dn1
        .byte   W48
@ 111   ----------------------------------------
        .byte   W96
@ 112   ----------------------------------------
        .byte   W96
@ 113   ----------------------------------------
        .byte   W96
@ 114   ----------------------------------------
        .byte   W96
@ 115   ----------------------------------------
        .byte   W96
@ 116   ----------------------------------------
        .byte   W96
@ 117   ----------------------------------------
        .byte   W96
@ 118   ----------------------------------------
        .byte   W60
        .byte           EOT
        .byte   W24
        .byte           N06   , Dn1 , v127
        .byte   W06
        .byte                   Dn1
        .byte   W06
@ 119   ----------------------------------------
        .byte                   Dn1
        .byte   W06
        .byte   FINE

@****************** Track 5 (Midi-Chn.5) ******************@

mus_thppme_290_credits_medley_5:
        .byte   KEYSH , mus_thppme_290_credits_medley_key+0
@ 000   ----------------------------------------
        .byte   W96
@ 001   ----------------------------------------
        .byte           VOICE , 48
        .byte           VOL   , 90
        .byte   W96
@ 002   ----------------------------------------
        .byte   W96
@ 003   ----------------------------------------
        .byte   W96
@ 004   ----------------------------------------
        .byte   W96
@ 005   ----------------------------------------
        .byte   W96
@ 006   ----------------------------------------
        .byte   W96
@ 007   ----------------------------------------
        .byte   W96
@ 008   ----------------------------------------
        .byte   W96
@ 009   ----------------------------------------
        .byte           N24   , Dn3 , v100
        .byte   W24
        .byte                   Fn3
        .byte   W24
        .byte           N48   , Gn3
        .byte   W48
@ 010   ----------------------------------------
        .byte           N24   , Fn3
        .byte   W24
        .byte                   Dn3
        .byte   W24
        .byte           N48   , Cn3
        .byte   W48
@ 011   ----------------------------------------
        .byte           N24
        .byte   W24
        .byte                   Fn3
        .byte   W24
        .byte           N48   , Dn3
        .byte   W48
@ 012   ----------------------------------------
        .byte           N24   , Cn3
        .byte   W24
        .byte                   An2
        .byte   W24
        .byte           N48   , Gn2
        .byte   W48
@ 013   ----------------------------------------
        .byte           N24
        .byte   W24
        .byte                   An2
        .byte   W24
        .byte           N48   , As2
        .byte   W48
@ 014   ----------------------------------------
        .byte           N24
        .byte   W24
        .byte                   Cn3
        .byte   W24
        .byte                   An2
        .byte   W24
        .byte                   Gn2
        .byte   W24
@ 015   ----------------------------------------
        .byte           N48   , Fn2
        .byte   W96
@ 016   ----------------------------------------
        .byte   W96
@ 017   ----------------------------------------
        .byte   W96
@ 018   ----------------------------------------
        .byte   W96
@ 019   ----------------------------------------
        .byte   PATT
         .word  mus_thppme_290_credits_medley_2_29
@ 020   ----------------------------------------
        .byte   PATT
         .word  mus_thppme_290_credits_medley_2_28
@ 021   ----------------------------------------
        .byte   PATT
         .word  mus_thppme_290_credits_medley_2_29
@ 022   ----------------------------------------
        .byte   PATT
         .word  mus_thppme_290_credits_medley_2_30
@ 023   ----------------------------------------
        .byte   PATT
         .word  mus_thppme_290_credits_medley_2_29
@ 024   ----------------------------------------
        .byte   PATT
         .word  mus_thppme_290_credits_medley_2_32
@ 025   ----------------------------------------
        .byte   PATT
         .word  mus_thppme_290_credits_medley_2_33
@ 026   ----------------------------------------
        .byte   PATT
         .word  mus_thppme_290_credits_medley_2_34
@ 027   ----------------------------------------
        .byte   W42
        .byte           EOT   , Gn4
        .byte   W06
        .byte           N24   , Gn3 , v100
        .byte   W24
        .byte                   Gn3
        .byte   W24
@ 028   ----------------------------------------
        .byte   PATT
         .word  mus_thppme_290_credits_medley_2_28
@ 029   ----------------------------------------
        .byte   PATT
         .word  mus_thppme_290_credits_medley_2_29
@ 030   ----------------------------------------
        .byte   PATT
         .word  mus_thppme_290_credits_medley_2_30
@ 031   ----------------------------------------
        .byte   PATT
         .word  mus_thppme_290_credits_medley_2_29
@ 032   ----------------------------------------
        .byte   PATT
         .word  mus_thppme_290_credits_medley_2_32
@ 033   ----------------------------------------
        .byte   PATT
         .word  mus_thppme_290_credits_medley_2_33
@ 034   ----------------------------------------
        .byte   PATT
         .word  mus_thppme_290_credits_medley_2_34
@ 035   ----------------------------------------
        .byte   W48
        .byte           EOT   , Gn4
        .byte   W48
@ 036   ----------------------------------------
        .byte   W96
@ 037   ----------------------------------------
        .byte   W96
@ 038   ----------------------------------------
        .byte   W96
@ 039   ----------------------------------------
        .byte   W96
@ 040   ----------------------------------------
        .byte   W96
@ 041   ----------------------------------------
        .byte   W96
@ 042   ----------------------------------------
        .byte   W96
@ 043   ----------------------------------------
        .byte   W96
@ 044   ----------------------------------------
        .byte   W48
        .byte           N12   , An4 , v076
        .byte   W24
        .byte                   An4
        .byte   W24
@ 045   ----------------------------------------
        .byte                   An4
        .byte   W24
        .byte                   An4
        .byte   W24
        .byte                   An4
        .byte   W24
        .byte                   An4
        .byte   W24
@ 046   ----------------------------------------
        .byte                   An4
        .byte   W24
        .byte           N24   , Bn4
        .byte   W24
        .byte           N12   , Cs5
        .byte   W24
        .byte                   Cs5
        .byte   W24
@ 047   ----------------------------------------
        .byte                   Cs5
        .byte   W24
        .byte                   Cs5
        .byte   W24
        .byte                   Cs5
        .byte   W24
        .byte                   Cs5
        .byte   W24
@ 048   ----------------------------------------
        .byte                   Cs5
        .byte   W24
        .byte           N24
        .byte   W24
        .byte           N12   , As4
        .byte   W24
        .byte                   As4
        .byte   W24
@ 049   ----------------------------------------
        .byte                   As4
        .byte   W24
        .byte                   As4
        .byte   W24
        .byte                   As4
        .byte   W24
        .byte                   As4
        .byte   W24
@ 050   ----------------------------------------
        .byte                   As4
        .byte   W24
        .byte           N24
        .byte   W24
        .byte           N12   , An4
        .byte   W24
        .byte                   An4
        .byte   W24
@ 051   ----------------------------------------
        .byte                   Bn4
        .byte   W24
        .byte                   Bn4
        .byte   W24
        .byte                   Cs5 , v100
        .byte   W15
        .byte           VOL   , 0
        .byte   W03
        .byte           PAN   , c_v+63
        .byte   W03
        .byte           VOL   , 1
        .byte           PAN   , c_v+59
        .byte   W01
        .byte           VOL   , 4
        .byte   W01
        .byte                   0
        .byte   W01
        .byte           N72   , Gs4
        .byte   W09
        .byte           PAN   , c_v+43
        .byte   W02
        .byte           VOL   , 4
        .byte   W10
        .byte           PAN   , c_v+27
        .byte   W02
        .byte           VOL   , 16
        .byte   W01
@ 052   ----------------------------------------
        .byte   W09
        .byte           PAN   , c_v+11
        .byte   W02
        .byte           VOL   , 36
        .byte   W10
        .byte           PAN   , c_v-5
        .byte   W03
        .byte           VOL   , 64
        .byte   W09
        .byte           PAN   , c_v-21
        .byte   W03
        .byte           VOL   , 99
        .byte   W01
        .byte                   102
        .byte   W08
        .byte           PAN   , c_v-37
        .byte   W03
        .byte                   c_v+0
        .byte           VOL   , 91
        .byte           N36   , Fs4
        .byte   W36
        .byte           N12   , En4
        .byte   W12
@ 053   ----------------------------------------
        .byte   PATT
         .word  mus_thppme_290_credits_medley_2_45
@ 054   ----------------------------------------
        .byte   PATT
         .word  mus_thppme_290_credits_medley_2_44
@ 055   ----------------------------------------
        .byte   PATT
         .word  mus_thppme_290_credits_medley_2_47
@ 056   ----------------------------------------
        .byte   PATT
         .word  mus_thppme_290_credits_medley_2_44
@ 057   ----------------------------------------
        .byte   PATT
         .word  mus_thppme_290_credits_medley_2_45
@ 058   ----------------------------------------
        .byte   PATT
         .word  mus_thppme_290_credits_medley_2_50
@ 059   ----------------------------------------
        .byte   W48
        .byte           TIE   , Cs5 , v100
        .byte   W48
@ 060   ----------------------------------------
        .byte   W96
@ 061   ----------------------------------------
        .byte   W96
@ 062   ----------------------------------------
        .byte   W48
        .byte           EOT
        .byte   W48
@ 063   ----------------------------------------
        .byte   W96
@ 064   ----------------------------------------
        .byte   PATT
         .word  mus_thppme_290_credits_medley_2_64
@ 065   ----------------------------------------
        .byte   PATT
         .word  mus_thppme_290_credits_medley_2_65
@ 066   ----------------------------------------
        .byte   W36
        .byte           N06   , Cs5 , v100
        .byte   W06
        .byte                   Cs5
        .byte   W06
        .byte                   Cs5
        .byte   W48
@ 067   ----------------------------------------
        .byte   W96
@ 068   ----------------------------------------
        .byte   W96
@ 069   ----------------------------------------
        .byte   W96
@ 070   ----------------------------------------
        .byte           N72   , Gs4
        .byte   W72
        .byte           N06   , Gn4
        .byte   W06
        .byte                   Gs4
        .byte   W06
        .byte                   Gn4
        .byte   W06
        .byte                   Fn4
        .byte   W06
@ 071   ----------------------------------------
        .byte           TIE
        .byte   W96
@ 072   ----------------------------------------
        .byte   W96
@ 073   ----------------------------------------
        .byte           EOT
        .byte           TIE   , Cn5
        .byte   W96
@ 074   ----------------------------------------
        .byte   W96
@ 075   ----------------------------------------
        .byte           EOT
        .byte   W96
@ 076   ----------------------------------------
        .byte   W48
        .byte           N12   , Cn4
        .byte           N12   , Cn5
        .byte   W12
        .byte                   As3
        .byte           N12   , As4
        .byte   W12
        .byte                   Gs3
        .byte           N12   , Gs4
        .byte   W12
        .byte                   Gn3
        .byte           N12   , Gn4
        .byte   W12
@ 077   ----------------------------------------
mus_thppme_290_credits_medley_5_77:
        .byte           N12   , Fs3 , v100
        .byte           N12   , Fs4
        .byte   W12
        .byte                   Gs3
        .byte           N12   , Gs4
        .byte   W12
        .byte           N24   , An3
        .byte           N24   , An4
        .byte   W24
        .byte           N12   , Gs3
        .byte           N12   , Gs4
        .byte   W12
        .byte                   Fs3
        .byte           N12   , Fs4
        .byte   W12
        .byte                   En3
        .byte           N12   , En4
        .byte   W12
        .byte           N72   , Fs3
        .byte           N72   , Fs4
        .byte   W12
        .byte   PEND
@ 078   ----------------------------------------
mus_thppme_290_credits_medley_5_78:
        .byte   W60
        .byte           N12   , Cs3 , v100
        .byte           N12   , Cs4
        .byte   W12
        .byte                   Fs3
        .byte           N12   , Fs4
        .byte   W12
        .byte                   Cs3
        .byte           N12   , Cs4
        .byte   W12
        .byte   PEND
@ 079   ----------------------------------------
mus_thppme_290_credits_medley_5_79:
        .byte           N12   , Fs3 , v100
        .byte           N12   , Fs4
        .byte   W12
        .byte                   Gs3
        .byte           N12   , Gs4
        .byte   W12
        .byte           N24   , An3
        .byte           N24   , An4
        .byte   W24
        .byte           N12   , Gs3
        .byte           N12   , Gs4
        .byte   W12
        .byte                   Fs3
        .byte           N12   , Fs4
        .byte   W12
        .byte                   En3
        .byte           N12   , En4
        .byte   W12
        .byte           N48   , Cs4
        .byte           N48   , Cs5
        .byte   W12
        .byte   PEND
@ 080   ----------------------------------------
mus_thppme_290_credits_medley_5_80:
        .byte   W36
        .byte           N24   , Cs4 , v100
        .byte           N24   , Cs5
        .byte   W24
        .byte           N12   , Bn3
        .byte           N12   , Bn4
        .byte   W12
        .byte                   An3
        .byte           N12   , An4
        .byte   W12
        .byte                   Gs3
        .byte           N12   , Gs4
        .byte   W12
        .byte   PEND
@ 081   ----------------------------------------
mus_thppme_290_credits_medley_5_81:
        .byte           N12   , Fs3 , v100
        .byte           N12   , Fs4
        .byte   W12
        .byte                   Gs3
        .byte           N12   , Gs4
        .byte   W12
        .byte           N24   , An3
        .byte           N24   , An4
        .byte   W24
        .byte           N12   , Gs3
        .byte           N12   , Gs4
        .byte   W12
        .byte                   Fs3
        .byte           N12   , Fs4
        .byte   W12
        .byte                   En3
        .byte           N12   , En4
        .byte   W12
        .byte           N24   , Cs4
        .byte           N24   , Cs5
        .byte   W12
        .byte   PEND
@ 082   ----------------------------------------
mus_thppme_290_credits_medley_5_82:
        .byte   W12
        .byte           N12   , Bn3 , v100
        .byte           N12   , Bn4
        .byte   W12
        .byte                   An3
        .byte           N12   , An4
        .byte   W12
        .byte                   Bn3
        .byte           N12   , Bn4
        .byte   W12
        .byte                   An3
        .byte           N12   , An4
        .byte   W12
        .byte                   Gs3
        .byte           N12   , Gs4
        .byte   W12
        .byte                   Fs3
        .byte           N12   , Fs4
        .byte   W12
        .byte                   En3
        .byte           N12   , En4
        .byte   W12
        .byte   PEND
@ 083   ----------------------------------------
        .byte   PATT
         .word  mus_thppme_290_credits_medley_5_77
@ 084   ----------------------------------------
        .byte   PATT
         .word  mus_thppme_290_credits_medley_5_78
@ 085   ----------------------------------------
        .byte   PATT
         .word  mus_thppme_290_credits_medley_5_79
@ 086   ----------------------------------------
        .byte   PATT
         .word  mus_thppme_290_credits_medley_5_80
@ 087   ----------------------------------------
        .byte   PATT
         .word  mus_thppme_290_credits_medley_5_81
@ 088   ----------------------------------------
        .byte   PATT
         .word  mus_thppme_290_credits_medley_5_82
@ 089   ----------------------------------------
        .byte           N12   , An3 , v100
        .byte           N12   , An4
        .byte   W12
        .byte                   Bn3
        .byte           N12   , Bn4
        .byte   W12
        .byte           N24   , Cs4
        .byte           N24   , Cs5
        .byte   W24
        .byte           N12   , Bn3
        .byte           N12   , Bn4
        .byte   W12
        .byte                   Cs4
        .byte           N12   , Cs5
        .byte   W12
        .byte                   En4
        .byte           N12   , En5
        .byte   W12
        .byte           TIE   , Fs4
        .byte           TIE   , Fs5
        .byte   W12
@ 090   ----------------------------------------
        .byte   W96
@ 091   ----------------------------------------
        .byte           EOT   , Fs4
        .byte                   Fs5
        .byte   W96
@ 092   ----------------------------------------
        .byte   W96
@ 093   ----------------------------------------
        .byte   W96
@ 094   ----------------------------------------
        .byte   W96
@ 095   ----------------------------------------
        .byte   W96
@ 096   ----------------------------------------
        .byte   W96
@ 097   ----------------------------------------
        .byte   W96
@ 098   ----------------------------------------
        .byte   W96
@ 099   ----------------------------------------
        .byte           N12   , An2
        .byte   W12
        .byte                   Bn2
        .byte   W12
        .byte                   Cs3
        .byte   W12
        .byte                   An2
        .byte   W12
        .byte                   Bn2
        .byte   W12
        .byte                   Cs3
        .byte   W12
        .byte                   Dn3
        .byte   W12
        .byte                   Bn2
        .byte   W12
@ 100   ----------------------------------------
        .byte                   Cs3
        .byte           N12   , Cs4
        .byte   W12
        .byte                   Dn3
        .byte           N12   , Dn4
        .byte   W12
        .byte                   En3
        .byte           N12   , En4
        .byte   W12
        .byte                   Cs3
        .byte           N12   , Cs4
        .byte   W12
        .byte                   Dn3
        .byte           N12   , Dn4
        .byte           N12   , Dn5
        .byte   W12
        .byte                   Cs3
        .byte           N12   , Cs4
        .byte           N12   , Cs5
        .byte   W12
        .byte                   Bn2
        .byte           N12   , Bn3
        .byte           N12   , Bn4
        .byte   W12
        .byte                   Gs2
        .byte           N12   , Gs3
        .byte           N12   , Gs4
        .byte   W12
@ 101   ----------------------------------------
        .byte   PATT
         .word  mus_thppme_290_credits_medley_2_101
@ 102   ----------------------------------------
        .byte   PATT
         .word  mus_thppme_290_credits_medley_2_102
@ 103   ----------------------------------------
        .byte   PATT
         .word  mus_thppme_290_credits_medley_2_101
@ 104   ----------------------------------------
        .byte   PATT
         .word  mus_thppme_290_credits_medley_2_104
@ 105   ----------------------------------------
        .byte   PATT
         .word  mus_thppme_290_credits_medley_2_105
@ 106   ----------------------------------------
        .byte   PATT
         .word  mus_thppme_290_credits_medley_2_106
@ 107   ----------------------------------------
        .byte   PATT
         .word  mus_thppme_290_credits_medley_2_107
@ 108   ----------------------------------------
        .byte   PATT
         .word  mus_thppme_290_credits_medley_2_108
@ 109   ----------------------------------------
        .byte   PATT
         .word  mus_thppme_290_credits_medley_2_107
@ 110   ----------------------------------------
        .byte   PATT
         .word  mus_thppme_290_credits_medley_2_110
@ 111   ----------------------------------------
        .byte   W96
@ 112   ----------------------------------------
        .byte   W96
@ 113   ----------------------------------------
        .byte   W96
@ 114   ----------------------------------------
        .byte   W96
@ 115   ----------------------------------------
        .byte   W96
@ 116   ----------------------------------------
        .byte   W96
@ 117   ----------------------------------------
        .byte   W48
        .byte           EOT   , Dn5
        .byte           N06   , Dn5 , v100
        .byte   W12
        .byte                   An5
        .byte   W12
        .byte                   En5
        .byte   W06
        .byte                   Fn5
        .byte   W06
        .byte                   Cn5
        .byte   W06
        .byte                   An4
        .byte   W06
@ 118   ----------------------------------------
        .byte                   An4
        .byte   W12
        .byte                   Fn5
        .byte   W12
        .byte                   En5
        .byte   W06
        .byte                   Fn5
        .byte   W06
        .byte                   Cn5
        .byte   W06
        .byte                   En5
        .byte   W06
        .byte                   Dn5
        .byte   W36
        .byte                   Dn5 , v127
        .byte   W06
        .byte                   Dn5
        .byte   W06
@ 119   ----------------------------------------
        .byte                   Dn5
        .byte   W06
        .byte   FINE

@****************** Track 6 (Midi-Chn.6) ******************@

mus_thppme_290_credits_medley_6:
        .byte   KEYSH , mus_thppme_290_credits_medley_key+0
@ 000   ----------------------------------------
        .byte   W96
@ 001   ----------------------------------------
        .byte           VOICE , 81
        .byte           VOL   , 80
        .byte   W96
@ 002   ----------------------------------------
        .byte   W96
@ 003   ----------------------------------------
        .byte   W96
@ 004   ----------------------------------------
        .byte   W96
@ 005   ----------------------------------------
        .byte   W96
@ 006   ----------------------------------------
        .byte   W96
@ 007   ----------------------------------------
        .byte   W96
@ 008   ----------------------------------------
        .byte   W96
@ 009   ----------------------------------------
        .byte   W96
@ 010   ----------------------------------------
        .byte   W96
@ 011   ----------------------------------------
        .byte   W96
@ 012   ----------------------------------------
        .byte   W96
@ 013   ----------------------------------------
        .byte   W96
@ 014   ----------------------------------------
        .byte   W96
@ 015   ----------------------------------------
        .byte   W96
@ 016   ----------------------------------------
        .byte   W96
@ 017   ----------------------------------------
        .byte   W96
@ 018   ----------------------------------------
        .byte   W96
@ 019   ----------------------------------------
        .byte   W96
@ 020   ----------------------------------------
        .byte   W96
@ 021   ----------------------------------------
        .byte   W96
@ 022   ----------------------------------------
        .byte   W96
@ 023   ----------------------------------------
        .byte   W96
@ 024   ----------------------------------------
        .byte   W96
@ 025   ----------------------------------------
        .byte   W96
@ 026   ----------------------------------------
        .byte   W96
@ 027   ----------------------------------------
        .byte   W96
@ 028   ----------------------------------------
        .byte   W96
@ 029   ----------------------------------------
        .byte   W96
@ 030   ----------------------------------------
        .byte   W96
@ 031   ----------------------------------------
        .byte   W96
@ 032   ----------------------------------------
        .byte   W96
@ 033   ----------------------------------------
        .byte   W96
@ 034   ----------------------------------------
        .byte   W96
@ 035   ----------------------------------------
        .byte   W96
@ 036   ----------------------------------------
        .byte   W96
@ 037   ----------------------------------------
        .byte   W96
@ 038   ----------------------------------------
        .byte   W96
@ 039   ----------------------------------------
        .byte   W48
        .byte           N06   , Cs1 , v100
        .byte   W06
        .byte                   Cs1
        .byte   W06
        .byte                   Gs1
        .byte   W06
        .byte                   Cs2
        .byte   W18
        .byte                   Cs2
        .byte   W06
        .byte                   Gs1
        .byte   W06
@ 040   ----------------------------------------
mus_thppme_290_credits_medley_6_40:
        .byte           N06   , Ds1 , v100
        .byte   W06
        .byte                   Ds1
        .byte   W06
        .byte                   Bn1
        .byte   W06
        .byte                   Ds2
        .byte   W18
        .byte                   Ds2
        .byte   W06
        .byte                   Bn1
        .byte   W06
        .byte                   En1
        .byte   W06
        .byte                   En1
        .byte   W06
        .byte                   Cs2
        .byte   W06
        .byte                   En2
        .byte   W18
        .byte                   En2
        .byte   W06
        .byte                   Cs2
        .byte   W06
        .byte   PEND
@ 041   ----------------------------------------
        .byte                   Ds1
        .byte   W06
        .byte                   Ds1
        .byte   W06
        .byte                   Bn1
        .byte   W06
        .byte                   Ds2
        .byte   W18
        .byte                   Ds2
        .byte   W06
        .byte                   Bn1
        .byte   W06
        .byte                   Cs1
        .byte   W06
        .byte                   Cs1
        .byte   W06
        .byte                   Gs1
        .byte   W06
        .byte                   Cs2
        .byte   W18
        .byte                   Cs2
        .byte   W06
        .byte                   Gs1
        .byte   W06
@ 042   ----------------------------------------
        .byte   PATT
         .word  mus_thppme_290_credits_medley_6_40
@ 043   ----------------------------------------
        .byte           N06   , Ds1 , v100
        .byte   W06
        .byte                   Ds1
        .byte   W06
        .byte                   Bn1
        .byte   W06
        .byte                   Ds2
        .byte   W18
        .byte                   Ds2
        .byte   W06
        .byte                   Bn1
        .byte   W54
@ 044   ----------------------------------------
        .byte   W48
        .byte                   An2 , v060
        .byte   W12
        .byte                   En3
        .byte   W12
        .byte                   An2
        .byte   W12
        .byte                   En3
        .byte   W12
@ 045   ----------------------------------------
mus_thppme_290_credits_medley_6_45:
        .byte           N06   , An2 , v060
        .byte   W12
        .byte                   En3
        .byte   W12
        .byte                   An2
        .byte   W12
        .byte                   En3
        .byte   W12
        .byte                   An2
        .byte   W12
        .byte                   En3
        .byte   W12
        .byte                   An2
        .byte   W12
        .byte                   En3
        .byte   W12
        .byte   PEND
@ 046   ----------------------------------------
mus_thppme_290_credits_medley_6_46:
        .byte           N06   , An2 , v060
        .byte   W12
        .byte                   En3
        .byte   W12
        .byte                   Bn2
        .byte   W12
        .byte                   Fs3
        .byte   W12
        .byte                   Cs3
        .byte   W12
        .byte                   Gs3
        .byte   W12
        .byte                   Cs3
        .byte   W12
        .byte                   Gs3
        .byte   W12
        .byte   PEND
@ 047   ----------------------------------------
mus_thppme_290_credits_medley_6_47:
        .byte           N06   , Cs3 , v060
        .byte   W12
        .byte                   Gs3
        .byte   W12
        .byte                   Cs3
        .byte   W12
        .byte                   Gs3
        .byte   W12
        .byte                   Cs3
        .byte   W12
        .byte                   Gs3
        .byte   W12
        .byte                   Cs3
        .byte   W12
        .byte                   Gs3
        .byte   W12
        .byte   PEND
@ 048   ----------------------------------------
mus_thppme_290_credits_medley_6_48:
        .byte           N06   , Cs3 , v060
        .byte   W12
        .byte                   Gs3
        .byte   W12
        .byte                   Cs3
        .byte   W12
        .byte                   Gs3
        .byte   W12
        .byte                   As2
        .byte   W12
        .byte                   Fs3
        .byte   W12
        .byte                   As2
        .byte   W12
        .byte                   Fs3
        .byte   W12
        .byte   PEND
@ 049   ----------------------------------------
mus_thppme_290_credits_medley_6_49:
        .byte           N06   , As2 , v060
        .byte   W12
        .byte                   Fs3
        .byte   W12
        .byte                   As2
        .byte   W12
        .byte                   Fs3
        .byte   W12
        .byte                   As2
        .byte   W12
        .byte                   Fs3
        .byte   W12
        .byte                   As2
        .byte   W12
        .byte                   Fs3
        .byte   W12
        .byte   PEND
@ 050   ----------------------------------------
mus_thppme_290_credits_medley_6_50:
        .byte           N06   , As2 , v060
        .byte   W12
        .byte                   Fs3
        .byte   W12
        .byte                   As2
        .byte   W12
        .byte                   Fs3
        .byte   W12
        .byte                   An2
        .byte   W12
        .byte                   En3
        .byte   W12
        .byte                   An2
        .byte   W12
        .byte                   En3
        .byte   W12
        .byte   PEND
@ 051   ----------------------------------------
mus_thppme_290_credits_medley_6_51:
        .byte           N06   , Bn2 , v060
        .byte   W12
        .byte                   Fs3
        .byte   W12
        .byte                   Bn2
        .byte   W12
        .byte                   Fs3
        .byte   W12
        .byte                   Cs3
        .byte   W12
        .byte                   Gs3
        .byte   W12
        .byte                   Cs3
        .byte   W12
        .byte                   Gs3
        .byte   W12
        .byte   PEND
@ 052   ----------------------------------------
mus_thppme_290_credits_medley_6_52:
        .byte           N06   , Cs3 , v060
        .byte   W12
        .byte                   Gs3
        .byte   W12
        .byte                   Cs3
        .byte   W12
        .byte                   Gs3
        .byte   W12
        .byte                   An2
        .byte   W12
        .byte                   En3
        .byte   W12
        .byte                   An2
        .byte   W12
        .byte                   En3
        .byte   W12
        .byte   PEND
@ 053   ----------------------------------------
        .byte   PATT
         .word  mus_thppme_290_credits_medley_6_45
@ 054   ----------------------------------------
        .byte   PATT
         .word  mus_thppme_290_credits_medley_6_46
@ 055   ----------------------------------------
        .byte   PATT
         .word  mus_thppme_290_credits_medley_6_47
@ 056   ----------------------------------------
        .byte   PATT
         .word  mus_thppme_290_credits_medley_6_48
@ 057   ----------------------------------------
        .byte   PATT
         .word  mus_thppme_290_credits_medley_6_49
@ 058   ----------------------------------------
        .byte   PATT
         .word  mus_thppme_290_credits_medley_6_50
@ 059   ----------------------------------------
        .byte   PATT
         .word  mus_thppme_290_credits_medley_6_51
@ 060   ----------------------------------------
        .byte   PATT
         .word  mus_thppme_290_credits_medley_6_52
@ 061   ----------------------------------------
        .byte   PATT
         .word  mus_thppme_290_credits_medley_6_51
@ 062   ----------------------------------------
        .byte   PATT
         .word  mus_thppme_290_credits_medley_6_52
@ 063   ----------------------------------------
        .byte   PATT
         .word  mus_thppme_290_credits_medley_6_51
@ 064   ----------------------------------------
        .byte   PATT
         .word  mus_thppme_290_credits_medley_6_52
@ 065   ----------------------------------------
        .byte   PATT
         .word  mus_thppme_290_credits_medley_6_51
@ 066   ----------------------------------------
        .byte           N06   , Cs3 , v060
        .byte   W12
        .byte                   Gs3
        .byte   W12
        .byte                   Cs3
        .byte   W12
        .byte                   Gs3
        .byte   W60
@ 067   ----------------------------------------
mus_thppme_290_credits_medley_6_67:
        .byte           N12   , Cn5 , v100
        .byte   W24
        .byte           N06
        .byte   W12
        .byte           N12   , Fn4
        .byte   W36
        .byte           N24   , Gn4
        .byte   W24
        .byte   PEND
@ 068   ----------------------------------------
        .byte           N12   , Cn4
        .byte   W12
        .byte                   Fn4
        .byte   W24
        .byte                   Gn4
        .byte   W36
        .byte           N06   , Gs4
        .byte   W12
        .byte                   As3
        .byte   W12
@ 069   ----------------------------------------
        .byte   PATT
         .word  mus_thppme_290_credits_medley_6_67
@ 070   ----------------------------------------
        .byte   PATT
         .word  mus_thppme_290_credits_medley_2_72
@ 071   ----------------------------------------
        .byte   PATT
         .word  mus_thppme_290_credits_medley_2_73
@ 072   ----------------------------------------
        .byte           N12   , Cn5 , v100
        .byte   W12
        .byte                   Fn5
        .byte   W24
        .byte                   Gn5
        .byte   W36
        .byte                   Gs5
        .byte   W12
        .byte                   As5
        .byte   W12
@ 073   ----------------------------------------
        .byte   PATT
         .word  mus_thppme_290_credits_medley_2_73
@ 074   ----------------------------------------
        .byte   PATT
         .word  mus_thppme_290_credits_medley_2_74
@ 075   ----------------------------------------
        .byte   W96
@ 076   ----------------------------------------
        .byte   W48
        .byte           N12   , Cn5 , v100
        .byte   W12
        .byte                   As4
        .byte   W12
        .byte                   Gs4
        .byte   W12
        .byte                   Gn4
        .byte   W12
@ 077   ----------------------------------------
mus_thppme_290_credits_medley_6_77:
        .byte           N12   , Fs4 , v100
        .byte   W12
        .byte                   Gs4
        .byte   W12
        .byte           N24   , An4
        .byte   W24
        .byte           N12   , Gs4
        .byte   W12
        .byte                   Fs4
        .byte   W12
        .byte                   En4
        .byte   W12
        .byte           N72   , Fs4
        .byte   W12
        .byte   PEND
@ 078   ----------------------------------------
mus_thppme_290_credits_medley_6_78:
        .byte   W60
        .byte           N12   , Cs4 , v100
        .byte   W12
        .byte                   Fs4
        .byte   W12
        .byte                   Cs4
        .byte   W12
        .byte   PEND
@ 079   ----------------------------------------
        .byte                   Fs4
        .byte   W12
        .byte                   Gs4
        .byte   W12
        .byte           N24   , An4
        .byte   W24
        .byte           N12   , Gs4
        .byte   W12
        .byte                   Fs4
        .byte   W12
        .byte                   En4
        .byte   W12
        .byte           N48   , Cs5
        .byte   W12
@ 080   ----------------------------------------
        .byte   W36
        .byte           N24
        .byte   W24
        .byte           N12   , Bn4
        .byte   W12
        .byte                   An4
        .byte   W12
        .byte                   Gs4
        .byte   W12
@ 081   ----------------------------------------
mus_thppme_290_credits_medley_6_81:
        .byte           N12   , Fs4 , v100
        .byte   W12
        .byte                   Gs4
        .byte   W12
        .byte           N24   , An4
        .byte   W24
        .byte           N12   , Gs4
        .byte   W12
        .byte                   Fs4
        .byte   W12
        .byte                   En4
        .byte   W12
        .byte           N24   , Cs5
        .byte   W12
        .byte   PEND
@ 082   ----------------------------------------
mus_thppme_290_credits_medley_6_82:
        .byte   W12
        .byte           N12   , Bn4 , v100
        .byte   W12
        .byte                   An4
        .byte   W12
        .byte                   Bn4
        .byte   W12
        .byte                   An4
        .byte   W12
        .byte                   Gs4
        .byte   W12
        .byte                   Fs4
        .byte   W12
        .byte                   En4
        .byte   W12
        .byte   PEND
@ 083   ----------------------------------------
        .byte   PATT
         .word  mus_thppme_290_credits_medley_6_77
@ 084   ----------------------------------------
        .byte   PATT
         .word  mus_thppme_290_credits_medley_6_78
@ 085   ----------------------------------------
        .byte           N12   , Fs4 , v100
        .byte   W12
        .byte                   Gs4
        .byte   W12
        .byte           N24   , An4
        .byte   W24
        .byte           N12   , Gs4
        .byte   W12
        .byte                   Fs4
        .byte   W12
        .byte                   En4
        .byte   W12
        .byte           N48   , Cs4
        .byte           N48   , Cs5
        .byte   W12
@ 086   ----------------------------------------
        .byte   W36
        .byte           N24   , Cs4
        .byte           N24   , Cs5
        .byte   W24
        .byte           N12   , Bn3
        .byte           N12   , Bn4
        .byte   W12
        .byte                   An4
        .byte   W12
        .byte                   Gs4
        .byte   W12
@ 087   ----------------------------------------
        .byte   PATT
         .word  mus_thppme_290_credits_medley_6_81
@ 088   ----------------------------------------
        .byte   PATT
         .word  mus_thppme_290_credits_medley_6_82
@ 089   ----------------------------------------
        .byte           N12   , An4 , v100
        .byte   W12
        .byte                   Bn4
        .byte   W12
        .byte           N24   , Cs5
        .byte   W24
        .byte           N12   , Bn4
        .byte   W12
        .byte                   Cs5
        .byte   W12
        .byte                   En5
        .byte   W12
        .byte           TIE   , Fs5
        .byte   W12
@ 090   ----------------------------------------
        .byte   W96
@ 091   ----------------------------------------
        .byte           EOT
        .byte   W96
@ 092   ----------------------------------------
        .byte   W96
@ 093   ----------------------------------------
        .byte   W96
@ 094   ----------------------------------------
        .byte   W96
@ 095   ----------------------------------------
mus_thppme_290_credits_medley_6_95:
        .byte           N06   , An1 , v100
        .byte   W12
        .byte                   Bn1
        .byte   W12
        .byte                   Cs2
        .byte   W12
        .byte                   An1
        .byte   W12
        .byte                   Bn1
        .byte   W12
        .byte                   Cs2
        .byte   W12
        .byte                   Dn2
        .byte   W12
        .byte                   Bn1
        .byte   W12
        .byte   PEND
@ 096   ----------------------------------------
        .byte   W96
@ 097   ----------------------------------------
        .byte   PATT
         .word  mus_thppme_290_credits_medley_6_95
@ 098   ----------------------------------------
mus_thppme_290_credits_medley_6_98:
        .byte           N06   , Cs2 , v100
        .byte   W12
        .byte                   Dn2
        .byte   W12
        .byte                   En2
        .byte   W12
        .byte                   Cs2
        .byte   W12
        .byte                   Dn2
        .byte   W12
        .byte                   Cs2
        .byte   W12
        .byte                   Bn1
        .byte   W12
        .byte                   Gs1
        .byte   W12
        .byte   PEND
@ 099   ----------------------------------------
        .byte   PATT
         .word  mus_thppme_290_credits_medley_6_95
@ 100   ----------------------------------------
        .byte   PATT
         .word  mus_thppme_290_credits_medley_6_98
@ 101   ----------------------------------------
        .byte   PATT
         .word  mus_thppme_290_credits_medley_2_101
@ 102   ----------------------------------------
        .byte   PATT
         .word  mus_thppme_290_credits_medley_2_102
@ 103   ----------------------------------------
        .byte   PATT
         .word  mus_thppme_290_credits_medley_2_101
@ 104   ----------------------------------------
        .byte   PATT
         .word  mus_thppme_290_credits_medley_2_104
@ 105   ----------------------------------------
        .byte   PATT
         .word  mus_thppme_290_credits_medley_2_105
@ 106   ----------------------------------------
        .byte   PATT
         .word  mus_thppme_290_credits_medley_2_106
@ 107   ----------------------------------------
        .byte   PATT
         .word  mus_thppme_290_credits_medley_2_107
@ 108   ----------------------------------------
        .byte   PATT
         .word  mus_thppme_290_credits_medley_2_108
@ 109   ----------------------------------------
        .byte   PATT
         .word  mus_thppme_290_credits_medley_2_107
@ 110   ----------------------------------------
        .byte   PATT
         .word  mus_thppme_290_credits_medley_2_110
@ 111   ----------------------------------------
        .byte   W96
@ 112   ----------------------------------------
        .byte   W96
@ 113   ----------------------------------------
        .byte   W96
@ 114   ----------------------------------------
        .byte   W96
@ 115   ----------------------------------------
        .byte   W96
@ 116   ----------------------------------------
        .byte   PATT
         .word  mus_thppme_290_credits_medley_2_115
@ 117   ----------------------------------------
        .byte   PATT
         .word  mus_thppme_290_credits_medley_2_116
@ 118   ----------------------------------------
        .byte   PATT
         .word  mus_thppme_290_credits_medley_2_118
@ 119   ----------------------------------------
        .byte           N06   , Dn4 , v127
        .byte   W06
        .byte   FINE

@****************** Track 7 (Midi-Chn.7) ******************@

mus_thppme_290_credits_medley_7:
        .byte   KEYSH , mus_thppme_290_credits_medley_key+0
@ 000   ----------------------------------------
        .byte   W96
@ 001   ----------------------------------------
        .byte           VOICE , 80
        .byte           VOL   , 70
        .byte   W96
@ 002   ----------------------------------------
        .byte   W96
@ 003   ----------------------------------------
        .byte   W96
@ 004   ----------------------------------------
        .byte   W96
@ 005   ----------------------------------------
        .byte   W96
@ 006   ----------------------------------------
        .byte   W96
@ 007   ----------------------------------------
        .byte   W96
@ 008   ----------------------------------------
        .byte   W96
@ 009   ----------------------------------------
        .byte   W96
@ 010   ----------------------------------------
        .byte   W96
@ 011   ----------------------------------------
        .byte   W96
@ 012   ----------------------------------------
        .byte   W96
@ 013   ----------------------------------------
        .byte   W96
@ 014   ----------------------------------------
        .byte   W96
@ 015   ----------------------------------------
        .byte   W96
@ 016   ----------------------------------------
        .byte   W96
@ 017   ----------------------------------------
        .byte   W96
@ 018   ----------------------------------------
        .byte   W96
@ 019   ----------------------------------------
        .byte           N24   , Ds1 , v100
        .byte   W24
        .byte           N12   , As1
        .byte   W12
        .byte                   Gn1
        .byte   W12
        .byte                   Ds1
        .byte   W12
        .byte                   As1
        .byte   W12
        .byte                   Ds1
        .byte   W12
        .byte                   As1
        .byte   W12
@ 020   ----------------------------------------
mus_thppme_290_credits_medley_7_20:
        .byte           N12   , Fn1 , v100
        .byte   W12
        .byte                   Cn2
        .byte   W12
        .byte                   Fn1
        .byte   W12
        .byte                   Cn2
        .byte   W12
        .byte                   Gn1
        .byte   W12
        .byte                   Dn2
        .byte   W12
        .byte                   Gn1
        .byte   W12
        .byte                   Dn2
        .byte   W12
        .byte   PEND
@ 021   ----------------------------------------
mus_thppme_290_credits_medley_7_21:
        .byte           N12   , Gn1 , v100
        .byte   W12
        .byte                   Dn2
        .byte   W12
        .byte                   Gn1
        .byte   W12
        .byte                   Dn2
        .byte   W12
        .byte                   Ds1
        .byte   W12
        .byte                   As1
        .byte   W12
        .byte                   Ds1
        .byte   W12
        .byte                   As1
        .byte   W12
        .byte   PEND
@ 022   ----------------------------------------
        .byte   PATT
         .word  mus_thppme_290_credits_medley_7_20
@ 023   ----------------------------------------
        .byte   PATT
         .word  mus_thppme_290_credits_medley_7_21
@ 024   ----------------------------------------
        .byte   PATT
         .word  mus_thppme_290_credits_medley_7_20
@ 025   ----------------------------------------
        .byte   PATT
         .word  mus_thppme_290_credits_medley_7_21
@ 026   ----------------------------------------
        .byte   PATT
         .word  mus_thppme_290_credits_medley_7_20
@ 027   ----------------------------------------
        .byte   PATT
         .word  mus_thppme_290_credits_medley_7_21
@ 028   ----------------------------------------
        .byte   PATT
         .word  mus_thppme_290_credits_medley_7_20
@ 029   ----------------------------------------
        .byte   PATT
         .word  mus_thppme_290_credits_medley_7_21
@ 030   ----------------------------------------
        .byte   PATT
         .word  mus_thppme_290_credits_medley_7_20
@ 031   ----------------------------------------
        .byte   PATT
         .word  mus_thppme_290_credits_medley_7_21
@ 032   ----------------------------------------
        .byte   PATT
         .word  mus_thppme_290_credits_medley_7_20
@ 033   ----------------------------------------
        .byte   PATT
         .word  mus_thppme_290_credits_medley_7_21
@ 034   ----------------------------------------
        .byte   PATT
         .word  mus_thppme_290_credits_medley_7_20
@ 035   ----------------------------------------
        .byte           N12   , Gn1 , v100
        .byte   W12
        .byte                   Dn2
        .byte   W12
        .byte                   Gn1
        .byte   W12
        .byte                   Dn2
        .byte   W12
        .byte                   Cs4
        .byte   W12
        .byte                   Cs4
        .byte   W12
        .byte                   Cs4
        .byte   W12
        .byte                   Cn4
        .byte   W12
@ 036   ----------------------------------------
mus_thppme_290_credits_medley_7_36:
        .byte           N18   , Cs4 , v100
        .byte   W18
        .byte                   Cs4
        .byte   W18
        .byte           N12
        .byte   W12
        .byte                   An3
        .byte   W12
        .byte                   An3
        .byte   W12
        .byte                   Cs4
        .byte   W12
        .byte                   Cs4
        .byte   W12
        .byte   PEND
@ 037   ----------------------------------------
mus_thppme_290_credits_medley_7_37:
        .byte           N18   , Cn4 , v100
        .byte   W18
        .byte                   Gs3
        .byte   W18
        .byte           N12   , Fs3
        .byte   W12
        .byte                   Cs4
        .byte   W12
        .byte                   Cs4
        .byte   W12
        .byte                   Cs4
        .byte   W12
        .byte                   Cn4
        .byte   W12
        .byte   PEND
@ 038   ----------------------------------------
        .byte   PATT
         .word  mus_thppme_290_credits_medley_7_36
@ 039   ----------------------------------------
        .byte           N48   , Cn4 , v100
        .byte   W48
        .byte           N12   , Cs4
        .byte   W12
        .byte                   Cs4
        .byte   W12
        .byte                   Cs4
        .byte   W12
        .byte                   Cn4
        .byte   W12
@ 040   ----------------------------------------
        .byte   PATT
         .word  mus_thppme_290_credits_medley_7_36
@ 041   ----------------------------------------
        .byte   PATT
         .word  mus_thppme_290_credits_medley_7_37
@ 042   ----------------------------------------
        .byte   PATT
         .word  mus_thppme_290_credits_medley_7_36
@ 043   ----------------------------------------
        .byte           N48   , Ds4 , v100
        .byte   W96
@ 044   ----------------------------------------
        .byte   W48
        .byte           N12   , An1
        .byte   W24
        .byte                   An1
        .byte   W24
@ 045   ----------------------------------------
        .byte                   An1
        .byte   W24
        .byte                   An1
        .byte   W24
        .byte                   An1
        .byte   W24
        .byte                   An1
        .byte   W24
@ 046   ----------------------------------------
        .byte                   An1
        .byte   W24
        .byte           N24   , Bn1
        .byte   W24
        .byte           N12   , Cs2
        .byte   W24
        .byte                   Cs2
        .byte   W24
@ 047   ----------------------------------------
        .byte                   Cs2
        .byte   W24
        .byte                   Cs2
        .byte   W24
        .byte                   Cs2
        .byte   W24
        .byte                   Cs2
        .byte   W24
@ 048   ----------------------------------------
        .byte                   Cs2
        .byte   W24
        .byte           N24
        .byte   W24
        .byte           N12   , As1
        .byte   W24
        .byte                   As1
        .byte   W24
@ 049   ----------------------------------------
        .byte                   As1
        .byte   W24
        .byte                   As1
        .byte   W24
        .byte                   As1
        .byte   W24
        .byte                   As1
        .byte   W24
@ 050   ----------------------------------------
        .byte                   As1
        .byte   W24
        .byte           N24
        .byte   W24
        .byte           N12   , An1
        .byte   W24
        .byte                   An1
        .byte   W24
@ 051   ----------------------------------------
        .byte                   Bn1
        .byte   W24
        .byte                   Bn1
        .byte   W24
        .byte                   Cs2
        .byte   W24
        .byte                   Cs2
        .byte   W24
@ 052   ----------------------------------------
        .byte                   Cs2
        .byte   W24
        .byte           N24
        .byte   W24
        .byte           N12   , An1
        .byte   W12
        .byte           N06   , En2
        .byte   W12
        .byte                   An2
        .byte   W12
        .byte           N12   , En2
        .byte   W12
@ 053   ----------------------------------------
        .byte                   An1
        .byte   W12
        .byte           N06   , En2
        .byte   W12
        .byte                   An2
        .byte   W12
        .byte           N12   , En2
        .byte   W12
        .byte                   An1
        .byte   W12
        .byte           N06   , En2
        .byte   W12
        .byte                   An2
        .byte   W12
        .byte           N12   , En2
        .byte   W12
@ 054   ----------------------------------------
        .byte                   An1
        .byte   W12
        .byte           N06   , En2
        .byte   W12
        .byte                   Fs2
        .byte   W12
        .byte           N12   , Bn2
        .byte   W12
        .byte                   Cs2
        .byte   W12
        .byte           N06   , Gs2
        .byte   W12
        .byte                   Cs3
        .byte   W12
        .byte           N12   , Gs2
        .byte   W12
@ 055   ----------------------------------------
        .byte                   Cs2
        .byte   W12
        .byte           N06   , Gs2
        .byte   W12
        .byte                   Cs3
        .byte   W12
        .byte           N12   , Gs2
        .byte   W12
        .byte                   Cs2
        .byte   W12
        .byte           N06   , Gs2
        .byte   W12
        .byte                   Cs3
        .byte   W12
        .byte           N12   , Gs2
        .byte   W12
@ 056   ----------------------------------------
        .byte                   Cs2
        .byte   W12
        .byte           N06   , Gs2
        .byte   W12
        .byte                   Cs3
        .byte   W12
        .byte           N12   , Cs2
        .byte   W12
        .byte                   As1
        .byte   W12
        .byte           N06   , Fs2
        .byte   W12
        .byte                   As2
        .byte   W12
        .byte           N12   , Fs2
        .byte   W12
@ 057   ----------------------------------------
        .byte                   As1
        .byte   W12
        .byte           N06   , Fs2
        .byte   W12
        .byte                   As2
        .byte   W12
        .byte           N12   , Fs2
        .byte   W12
        .byte                   As1
        .byte   W12
        .byte           N06   , Fs2
        .byte   W12
        .byte                   As2
        .byte   W12
        .byte           N12   , Fs2
        .byte   W12
@ 058   ----------------------------------------
        .byte                   As1
        .byte   W12
        .byte           N06   , Fs2
        .byte   W12
        .byte                   As2
        .byte   W12
        .byte           N12   , Fs2
        .byte   W12
        .byte                   An1
        .byte   W12
        .byte           N06   , En2
        .byte   W12
        .byte                   An2
        .byte   W12
        .byte           N12   , En2
        .byte   W12
@ 059   ----------------------------------------
mus_thppme_290_credits_medley_7_59:
        .byte           N12   , Bn1 , v100
        .byte   W12
        .byte           N06   , Fs2
        .byte   W12
        .byte                   Bn2
        .byte   W12
        .byte           N12   , Fs2
        .byte   W12
        .byte                   Cs2
        .byte   W12
        .byte           N06   , Gs2
        .byte   W12
        .byte                   Cs3
        .byte   W12
        .byte           N12   , Gs2
        .byte   W12
        .byte   PEND
@ 060   ----------------------------------------
mus_thppme_290_credits_medley_7_60:
        .byte           N12   , Cs2 , v100
        .byte   W12
        .byte           N06   , Gs2
        .byte   W12
        .byte                   Cs3
        .byte   W12
        .byte           N12   , Gs2
        .byte   W12
        .byte                   An1
        .byte   W12
        .byte           N06   , En2
        .byte   W12
        .byte                   An2
        .byte   W12
        .byte           N12   , En2
        .byte   W12
        .byte   PEND
@ 061   ----------------------------------------
        .byte   PATT
         .word  mus_thppme_290_credits_medley_7_59
@ 062   ----------------------------------------
        .byte   PATT
         .word  mus_thppme_290_credits_medley_7_60
@ 063   ----------------------------------------
        .byte   PATT
         .word  mus_thppme_290_credits_medley_7_59
@ 064   ----------------------------------------
        .byte   PATT
         .word  mus_thppme_290_credits_medley_7_60
@ 065   ----------------------------------------
        .byte   PATT
         .word  mus_thppme_290_credits_medley_7_59
@ 066   ----------------------------------------
        .byte           N12   , Cs2 , v100
        .byte   W12
        .byte           N06   , Gs2
        .byte   W12
        .byte                   Cs3
        .byte   W12
        .byte                   Cs3
        .byte   W06
        .byte                   Cs3
        .byte   W06
        .byte                   Cs3
        .byte   W48
@ 067   ----------------------------------------
        .byte   PATT
         .word  mus_thppme_290_credits_medley_1_69
@ 068   ----------------------------------------
        .byte   PATT
         .word  mus_thppme_290_credits_medley_1_68
@ 069   ----------------------------------------
        .byte   PATT
         .word  mus_thppme_290_credits_medley_1_69
@ 070   ----------------------------------------
        .byte   PATT
         .word  mus_thppme_290_credits_medley_1_68
@ 071   ----------------------------------------
        .byte   PATT
         .word  mus_thppme_290_credits_medley_1_69
@ 072   ----------------------------------------
        .byte   PATT
         .word  mus_thppme_290_credits_medley_1_68
@ 073   ----------------------------------------
        .byte   PATT
         .word  mus_thppme_290_credits_medley_1_69
@ 074   ----------------------------------------
        .byte   PATT
         .word  mus_thppme_290_credits_medley_1_68
@ 075   ----------------------------------------
        .byte   W96
@ 076   ----------------------------------------
        .byte   W48
        .byte           N12   , Cn2 , v100
        .byte   W12
        .byte                   As1
        .byte   W12
        .byte                   Gs1
        .byte   W12
        .byte                   Gn1
        .byte   W12
@ 077   ----------------------------------------
mus_thppme_290_credits_medley_7_77:
        .byte           N12   , Fs1 , v100
        .byte   W12
        .byte                   Cs2
        .byte   W12
        .byte                   Fs1
        .byte   W12
        .byte                   Cs2
        .byte   W12
        .byte                   Fs1
        .byte   W12
        .byte                   Cs2
        .byte   W12
        .byte                   Fs1
        .byte   W12
        .byte                   Cs2
        .byte   W12
        .byte   PEND
@ 078   ----------------------------------------
        .byte   PATT
         .word  mus_thppme_290_credits_medley_7_77
@ 079   ----------------------------------------
mus_thppme_290_credits_medley_7_79:
        .byte           N12   , Dn1 , v100
        .byte   W12
        .byte                   An1
        .byte   W12
        .byte                   Dn1
        .byte   W12
        .byte                   An1
        .byte   W12
        .byte                   Dn1
        .byte   W12
        .byte                   An1
        .byte   W12
        .byte                   Dn1
        .byte   W12
        .byte                   An1
        .byte   W12
        .byte   PEND
@ 080   ----------------------------------------
        .byte   PATT
         .word  mus_thppme_290_credits_medley_7_79
@ 081   ----------------------------------------
mus_thppme_290_credits_medley_7_81:
        .byte           N12   , En1 , v100
        .byte   W12
        .byte                   Bn1
        .byte   W12
        .byte                   En1
        .byte   W12
        .byte                   Bn1
        .byte   W12
        .byte                   En1
        .byte   W12
        .byte                   Bn1
        .byte   W12
        .byte                   En1
        .byte   W12
        .byte                   Bn1
        .byte   W12
        .byte   PEND
@ 082   ----------------------------------------
        .byte   PATT
         .word  mus_thppme_290_credits_medley_7_81
@ 083   ----------------------------------------
        .byte   PATT
         .word  mus_thppme_290_credits_medley_7_77
@ 084   ----------------------------------------
        .byte   PATT
         .word  mus_thppme_290_credits_medley_7_77
@ 085   ----------------------------------------
        .byte   PATT
         .word  mus_thppme_290_credits_medley_7_79
@ 086   ----------------------------------------
        .byte   PATT
         .word  mus_thppme_290_credits_medley_7_79
@ 087   ----------------------------------------
        .byte   PATT
         .word  mus_thppme_290_credits_medley_7_81
@ 088   ----------------------------------------
        .byte   PATT
         .word  mus_thppme_290_credits_medley_7_81
@ 089   ----------------------------------------
        .byte           N12   , Dn1 , v100
        .byte   W12
        .byte                   An1
        .byte   W12
        .byte                   En2
        .byte   W12
        .byte                   An2
        .byte   W12
        .byte                   En1
        .byte   W12
        .byte                   Bn1
        .byte   W12
        .byte                   Fs2
        .byte   W12
        .byte           N24   , Fs1
        .byte   W12
@ 090   ----------------------------------------
        .byte   W12
        .byte           N12   , Cs2
        .byte   W12
        .byte                   Fs1
        .byte   W12
        .byte                   Cs2
        .byte   W12
        .byte                   Fs1
        .byte   W12
        .byte                   Cs2
        .byte   W12
        .byte                   Fs1
        .byte   W12
        .byte                   Cs2
        .byte   W12
@ 091   ----------------------------------------
        .byte   PATT
         .word  mus_thppme_290_credits_medley_4_91
@ 092   ----------------------------------------
        .byte   W96
@ 093   ----------------------------------------
        .byte   PATT
         .word  mus_thppme_290_credits_medley_4_91
@ 094   ----------------------------------------
        .byte   W96
@ 095   ----------------------------------------
        .byte   PATT
         .word  mus_thppme_290_credits_medley_4_91
@ 096   ----------------------------------------
        .byte   W96
@ 097   ----------------------------------------
        .byte   PATT
         .word  mus_thppme_290_credits_medley_4_91
@ 098   ----------------------------------------
mus_thppme_290_credits_medley_7_98:
        .byte           N06   , An1 , v100
        .byte   W12
        .byte                   Bn1
        .byte   W12
        .byte                   Cs2
        .byte   W12
        .byte                   An1
        .byte   W12
        .byte                   Bn1
        .byte   W12
        .byte                   An1
        .byte   W12
        .byte                   Gs1
        .byte   W12
        .byte                   En1
        .byte   W12
        .byte   PEND
@ 099   ----------------------------------------
        .byte   PATT
         .word  mus_thppme_290_credits_medley_4_91
@ 100   ----------------------------------------
        .byte   PATT
         .word  mus_thppme_290_credits_medley_7_98
@ 101   ----------------------------------------
        .byte   W48
        .byte           N48   , Fn3 , v120
        .byte   W48
@ 102   ----------------------------------------
        .byte                   En3
        .byte   W48
        .byte                   Gn3
        .byte   W48
@ 103   ----------------------------------------
        .byte           N36   , Fn3
        .byte   W36
        .byte           N12   , En3
        .byte   W12
        .byte           N48   , Fn3
        .byte   W48
@ 104   ----------------------------------------
        .byte                   Gn3
        .byte   W48
        .byte           N72   , An3
        .byte   W48
@ 105   ----------------------------------------
        .byte   W24
        .byte           N24   , Cn4
        .byte   W24
        .byte           N72   , Dn4
        .byte   W48
@ 106   ----------------------------------------
        .byte   W24
        .byte           N24   , En4
        .byte   W24
        .byte           N60   , Fn4
        .byte   W48
@ 107   ----------------------------------------
mus_thppme_290_credits_medley_7_107:
        .byte   W12
        .byte           N12   , Dn4 , v120
        .byte   W12
        .byte                   Dn4
        .byte   W12
        .byte                   En4
        .byte   W12
        .byte           N36   , Fn4
        .byte   W36
        .byte           N12   , Gn4
        .byte   W12
        .byte   PEND
@ 108   ----------------------------------------
        .byte           N36   , En4
        .byte   W36
        .byte           N12   , Dn4
        .byte   W12
        .byte           N54
        .byte   W48
@ 109   ----------------------------------------
        .byte   PATT
         .word  mus_thppme_290_credits_medley_7_107
@ 110   ----------------------------------------
        .byte           N18   , En4 , v120
        .byte   W18
        .byte                   Gn4
        .byte   W18
        .byte           N12   , Cn5
        .byte   W12
        .byte           N06   , Dn2
        .byte           TIE   , Dn5
        .byte   W12
        .byte           N06   , Dn2
        .byte   W24
        .byte                   Dn2
        .byte   W06
        .byte                   Dn2
        .byte   W06
@ 111   ----------------------------------------
mus_thppme_290_credits_medley_7_111:
        .byte           N06   , Dn2 , v120
        .byte   W12
        .byte                   Dn2
        .byte   W12
        .byte           N24
        .byte   W24
        .byte           N06
        .byte   W12
        .byte                   Dn2
        .byte   W24
        .byte                   Dn2
        .byte   W06
        .byte                   Dn2
        .byte   W06
        .byte   PEND
@ 112   ----------------------------------------
        .byte   PATT
         .word  mus_thppme_290_credits_medley_7_111
@ 113   ----------------------------------------
        .byte   PATT
         .word  mus_thppme_290_credits_medley_7_111
@ 114   ----------------------------------------
        .byte   PATT
         .word  mus_thppme_290_credits_medley_7_111
@ 115   ----------------------------------------
        .byte   PATT
         .word  mus_thppme_290_credits_medley_7_111
@ 116   ----------------------------------------
        .byte   PATT
         .word  mus_thppme_290_credits_medley_7_111
@ 117   ----------------------------------------
        .byte   PATT
         .word  mus_thppme_290_credits_medley_7_111
@ 118   ----------------------------------------
        .byte           N06   , Dn2 , v120
        .byte   W12
        .byte                   Dn2
        .byte   W12
        .byte           N24
        .byte   W24
        .byte           N06
        .byte   W12
        .byte           EOT   , Dn5
        .byte   W24
        .byte           N06   , Dn2 , v127
        .byte   W06
        .byte                   Dn2
        .byte   W06
@ 119   ----------------------------------------
        .byte                   Dn2
        .byte   W06
        .byte   FINE

@****************** Track 8 (Midi-Chn.9) ******************@

mus_thppme_290_credits_medley_8:
        .byte   KEYSH , mus_thppme_290_credits_medley_key+0
@ 000   ----------------------------------------
        .byte   W96
@ 001   ----------------------------------------
        .byte           VOICE , 0
        .byte           VOL   , 80
        .byte   W96
@ 002   ----------------------------------------
        .byte   W96
@ 003   ----------------------------------------
        .byte   W96
@ 004   ----------------------------------------
        .byte   W96
@ 005   ----------------------------------------
        .byte   W96
@ 006   ----------------------------------------
        .byte   W96
@ 007   ----------------------------------------
        .byte   W48
        .byte           N03   , Cs2 , v004
        .byte   W03
        .byte                   Cs2 , v008
        .byte   W03
        .byte                   Cs2
        .byte   W03
        .byte                   Cs2
        .byte   W03
        .byte                   Cs2
        .byte   W03
        .byte                   Cs2 , v012
        .byte   W03
        .byte                   Cs2
        .byte   W03
        .byte                   Cs2 , v016
        .byte   W03
        .byte                   Cs2 , v020
        .byte   W03
        .byte                   Cs2
        .byte   W03
        .byte                   Cs2
        .byte   W03
        .byte                   Cs2 , v024
        .byte   W03
        .byte                   Cs2
        .byte   W03
        .byte                   Cs2 , v028
        .byte   W03
        .byte                   Cs2
        .byte   W03
        .byte                   Cs2 , v032
        .byte   W03
@ 008   ----------------------------------------
        .byte                   Cs2
        .byte   W03
        .byte                   Cs2 , v036
        .byte   W03
        .byte                   Cs2 , v040
        .byte   W03
        .byte                   Cs2 , v044
        .byte   W03
        .byte                   Cs2 , v048
        .byte   W03
        .byte                   Cs2 , v052
        .byte   W03
        .byte                   Cs2 , v056
        .byte   W03
        .byte                   Cs2 , v060
        .byte   W03
        .byte                   Cs2 , v064
        .byte   W03
        .byte                   Cs2 , v068
        .byte   W03
        .byte                   Cs2 , v072
        .byte   W03
        .byte                   Cs2
        .byte   W03
        .byte                   Cs2 , v076
        .byte   W03
        .byte                   Cs2 , v080
        .byte   W03
        .byte                   Cs2 , v084
        .byte   W03
        .byte                   Cs2 , v088
        .byte   W03
        .byte                   Cs2
        .byte   W03
        .byte                   Cs2 , v084
        .byte   W03
        .byte                   Cs2 , v080
        .byte   W03
        .byte                   Cs2 , v072
        .byte   W03
        .byte                   Cs2 , v068
        .byte   W03
        .byte                   Cs2 , v060
        .byte   W03
        .byte                   Cs2 , v056
        .byte   W03
        .byte                   Cs2 , v048
        .byte   W03
        .byte                   Cs2 , v044
        .byte   W03
        .byte                   Cs2 , v036
        .byte   W03
        .byte                   Cs2 , v032
        .byte   W03
        .byte                   Cs2 , v024
        .byte   W03
        .byte                   Cs2 , v020
        .byte   W03
        .byte                   Cs2 , v016
        .byte   W03
        .byte                   Cs2 , v008
        .byte   W03
        .byte                   Cs2 , v004
        .byte   W03
@ 009   ----------------------------------------
        .byte   W96
@ 010   ----------------------------------------
        .byte   W96
@ 011   ----------------------------------------
        .byte   W96
@ 012   ----------------------------------------
        .byte   W96
@ 013   ----------------------------------------
        .byte   W96
@ 014   ----------------------------------------
        .byte   W96
@ 015   ----------------------------------------
        .byte   W48
        .byte           N06   , Dn1 , v100
        .byte           N24   , Cs2
        .byte   W48
@ 016   ----------------------------------------
mus_thppme_290_credits_medley_8_16:
        .byte   W36
        .byte           N06   , Dn1 , v100
        .byte   W06
        .byte                   Dn1
        .byte   W06
        .byte                   Dn1
        .byte           N24   , Cs2
        .byte   W48
        .byte   PEND
@ 017   ----------------------------------------
        .byte   PATT
         .word  mus_thppme_290_credits_medley_8_16
@ 018   ----------------------------------------
        .byte   PATT
         .word  mus_thppme_290_credits_medley_8_16
@ 019   ----------------------------------------
        .byte   W12
        .byte           N06   , Dn1 , v100
        .byte   W12
        .byte                   Dn1
        .byte   W12
        .byte                   Dn1
        .byte   W06
        .byte           N03
        .byte   W03
        .byte                   Dn1 , v064
        .byte   W03
        .byte           N06   , Dn1 , v100
        .byte           N24   , Cs2
        .byte   W12
        .byte           N03   , Dn1 , v068
        .byte   W03
        .byte                   Dn1 , v076
        .byte   W03
        .byte                   Dn1 , v100
        .byte   W06
        .byte                   Dn1
        .byte   W12
        .byte                   Dn1 , v068
        .byte   W03
        .byte                   Dn1 , v076
        .byte   W03
        .byte                   Dn1 , v100
        .byte   W06
@ 020   ----------------------------------------
mus_thppme_290_credits_medley_8_20:
        .byte           N03   , Dn1 , v100
        .byte   W06
        .byte                   Dn1
        .byte   W06
        .byte                   Dn1
        .byte   W12
        .byte                   Dn1
        .byte   W12
        .byte                   Dn1
        .byte   W06
        .byte                   Dn1
        .byte   W03
        .byte                   Dn1 , v060
        .byte   W03
        .byte           N06   , Dn1 , v100
        .byte   W12
        .byte           N03   , Dn1 , v068
        .byte   W03
        .byte                   Dn1 , v076
        .byte   W03
        .byte                   Dn1 , v100
        .byte   W06
        .byte                   Dn1
        .byte   W12
        .byte                   Dn1 , v068
        .byte   W03
        .byte                   Dn1 , v076
        .byte   W03
        .byte                   Dn1 , v100
        .byte   W06
        .byte   PEND
@ 021   ----------------------------------------
mus_thppme_290_credits_medley_8_21:
        .byte           N03   , Dn1 , v100
        .byte   W06
        .byte                   Dn1
        .byte   W06
        .byte                   Dn1
        .byte   W12
        .byte                   Dn1
        .byte   W12
        .byte                   Dn1
        .byte   W06
        .byte                   Dn1
        .byte   W03
        .byte                   Dn1 , v060
        .byte   W03
        .byte           N06   , Dn1 , v100
        .byte           N24   , Cs2
        .byte   W12
        .byte           N03   , Dn1 , v068
        .byte   W03
        .byte                   Dn1 , v076
        .byte   W03
        .byte                   Dn1 , v100
        .byte   W06
        .byte                   Dn1
        .byte   W12
        .byte                   Dn1 , v068
        .byte   W03
        .byte                   Dn1 , v076
        .byte   W03
        .byte                   Dn1 , v100
        .byte   W06
        .byte   PEND
@ 022   ----------------------------------------
        .byte   PATT
         .word  mus_thppme_290_credits_medley_8_20
@ 023   ----------------------------------------
        .byte   PATT
         .word  mus_thppme_290_credits_medley_8_21
@ 024   ----------------------------------------
        .byte   PATT
         .word  mus_thppme_290_credits_medley_8_20
@ 025   ----------------------------------------
        .byte   PATT
         .word  mus_thppme_290_credits_medley_8_21
@ 026   ----------------------------------------
        .byte   PATT
         .word  mus_thppme_290_credits_medley_8_20
@ 027   ----------------------------------------
        .byte   PATT
         .word  mus_thppme_290_credits_medley_8_21
@ 028   ----------------------------------------
        .byte   PATT
         .word  mus_thppme_290_credits_medley_8_20
@ 029   ----------------------------------------
        .byte   PATT
         .word  mus_thppme_290_credits_medley_8_21
@ 030   ----------------------------------------
        .byte   PATT
         .word  mus_thppme_290_credits_medley_8_20
@ 031   ----------------------------------------
        .byte   PATT
         .word  mus_thppme_290_credits_medley_8_21
@ 032   ----------------------------------------
        .byte   PATT
         .word  mus_thppme_290_credits_medley_8_20
@ 033   ----------------------------------------
        .byte   PATT
         .word  mus_thppme_290_credits_medley_8_21
@ 034   ----------------------------------------
        .byte           N03   , Dn1 , v100
        .byte           N24   , Cs2
        .byte   W06
        .byte           N03   , Dn1
        .byte   W06
        .byte                   Dn1
        .byte   W12
        .byte                   Dn1
        .byte   W12
        .byte                   Dn1
        .byte   W06
        .byte                   Dn1
        .byte   W03
        .byte                   Dn1 , v060
        .byte   W03
        .byte           N06   , Dn1 , v100
        .byte           N24   , Cs2
        .byte   W12
        .byte           N03   , Dn1 , v068
        .byte   W03
        .byte                   Dn1 , v076
        .byte   W03
        .byte                   Dn1 , v100
        .byte   W06
        .byte                   Dn1
        .byte   W12
        .byte                   Dn1 , v068
        .byte   W03
        .byte                   Dn1 , v076
        .byte   W03
        .byte                   Dn1 , v100
        .byte   W06
@ 035   ----------------------------------------
        .byte                   Dn1
        .byte   W06
        .byte                   Dn1
        .byte   W06
        .byte                   Dn1
        .byte   W12
        .byte                   Dn1
        .byte   W12
        .byte                   Dn1
        .byte   W06
        .byte                   Dn1
        .byte   W03
        .byte                   Dn1 , v060
        .byte   W03
        .byte           N06   , Dn1 , v100
        .byte   W48
@ 036   ----------------------------------------
mus_thppme_290_credits_medley_8_36:
        .byte   W36
        .byte           N06   , Dn1 , v100
        .byte   W06
        .byte                   Dn1
        .byte   W06
        .byte                   Dn1
        .byte   W48
        .byte   PEND
@ 037   ----------------------------------------
        .byte                   Dn1
        .byte   W18
        .byte                   Dn1
        .byte   W18
        .byte                   Dn1
        .byte   W06
        .byte                   Dn1
        .byte   W06
        .byte                   Dn1
        .byte   W48
@ 038   ----------------------------------------
        .byte   PATT
         .word  mus_thppme_290_credits_medley_8_36
@ 039   ----------------------------------------
        .byte           N06   , Dn1 , v100
        .byte   W18
        .byte                   Dn1
        .byte   W18
        .byte                   Dn1
        .byte   W06
        .byte                   Dn1
        .byte   W06
        .byte                   Dn1
        .byte           N06   , Cs2
        .byte   W24
        .byte                   Dn1
        .byte   W12
        .byte           N03
        .byte   W03
        .byte                   Dn1
        .byte   W03
        .byte                   Dn1
        .byte   W03
        .byte                   Dn1
        .byte   W03
@ 040   ----------------------------------------
mus_thppme_290_credits_medley_8_40:
        .byte           N06   , Dn1 , v100
        .byte   W24
        .byte                   Dn1
        .byte   W12
        .byte           N03
        .byte   W03
        .byte                   Dn1
        .byte   W03
        .byte                   Dn1
        .byte   W03
        .byte                   Dn1
        .byte   W03
        .byte           N06
        .byte   W12
        .byte                   Dn1
        .byte   W12
        .byte                   Dn1
        .byte   W06
        .byte                   Dn1
        .byte   W06
        .byte           N03
        .byte   W03
        .byte                   Dn1
        .byte   W03
        .byte                   Dn1
        .byte   W03
        .byte                   Dn1
        .byte   W03
        .byte   PEND
@ 041   ----------------------------------------
        .byte           N06
        .byte   W24
        .byte                   Dn1
        .byte   W12
        .byte           N03
        .byte   W03
        .byte                   Dn1
        .byte   W03
        .byte                   Dn1
        .byte   W03
        .byte                   Dn1
        .byte   W03
        .byte           N06
        .byte   W24
        .byte                   Dn1
        .byte   W12
        .byte           N03
        .byte   W03
        .byte                   Dn1
        .byte   W03
        .byte                   Dn1
        .byte   W03
        .byte                   Dn1
        .byte   W03
@ 042   ----------------------------------------
        .byte   PATT
         .word  mus_thppme_290_credits_medley_8_40
@ 043   ----------------------------------------
        .byte           N06   , Dn1 , v100
        .byte   W24
        .byte                   Dn1
        .byte   W12
        .byte           N03
        .byte   W03
        .byte                   Dn1
        .byte   W03
        .byte                   Dn1
        .byte   W03
        .byte                   Dn1
        .byte   W03
        .byte           N06
        .byte           N12   , Cs2
        .byte   W12
        .byte           N06   , Dn1
        .byte   W06
        .byte                   Dn1
        .byte   W06
        .byte                   Cn1
        .byte           N06   , Cs2
        .byte   W12
        .byte                   Dn1
        .byte           N06   , Cs2
        .byte   W12
@ 044   ----------------------------------------
        .byte                   Dn1
        .byte   W06
        .byte                   Dn1
        .byte   W06
        .byte                   Cn1
        .byte           N06   , Cs2
        .byte   W12
        .byte                   Dn1
        .byte           N06   , Cs2
        .byte   W24
        .byte                   Dn1
        .byte           N06   , Cs2
        .byte   W24
        .byte                   Dn1
        .byte   W24
@ 045   ----------------------------------------
mus_thppme_290_credits_medley_8_45:
        .byte           N06   , Dn1 , v100
        .byte   W24
        .byte                   Dn1
        .byte   W24
        .byte                   Dn1
        .byte   W24
        .byte                   Dn1
        .byte   W24
        .byte   PEND
@ 046   ----------------------------------------
        .byte   PATT
         .word  mus_thppme_290_credits_medley_8_45
@ 047   ----------------------------------------
        .byte   PATT
         .word  mus_thppme_290_credits_medley_8_45
@ 048   ----------------------------------------
        .byte   PATT
         .word  mus_thppme_290_credits_medley_8_45
@ 049   ----------------------------------------
        .byte   PATT
         .word  mus_thppme_290_credits_medley_8_45
@ 050   ----------------------------------------
        .byte   PATT
         .word  mus_thppme_290_credits_medley_8_45
@ 051   ----------------------------------------
        .byte   PATT
         .word  mus_thppme_290_credits_medley_8_45
@ 052   ----------------------------------------
        .byte           N06   , Dn1 , v100
        .byte   W12
        .byte                   Cn1
        .byte           N06   , Dn1
        .byte   W06
        .byte                   Cn1
        .byte           N06   , Dn1
        .byte   W06
        .byte                   Dn1
        .byte   W06
        .byte                   Dn1
        .byte   W06
        .byte           N03
        .byte   W03
        .byte                   Dn1
        .byte   W03
        .byte                   Dn1
        .byte   W03
        .byte                   Dn1
        .byte   W03
        .byte           N06   , Cn1
        .byte           N06   , Cs2
        .byte   W12
        .byte                   Cn1
        .byte   W12
        .byte                   Dn1
        .byte   W12
        .byte                   Cn1
        .byte   W06
        .byte                   Dn1
        .byte   W06
@ 053   ----------------------------------------
mus_thppme_290_credits_medley_8_53:
        .byte           N06   , Cn1 , v100
        .byte   W06
        .byte                   Dn1
        .byte   W06
        .byte                   Cn1
        .byte   W12
        .byte                   Dn1
        .byte   W12
        .byte                   Cn1
        .byte   W06
        .byte                   Cn1
        .byte   W06
        .byte                   Cn1
        .byte   W12
        .byte                   Cn1
        .byte   W12
        .byte                   Dn1
        .byte   W12
        .byte                   Cn1
        .byte   W06
        .byte                   Dn1
        .byte   W06
        .byte   PEND
@ 054   ----------------------------------------
        .byte   PATT
         .word  mus_thppme_290_credits_medley_8_53
@ 055   ----------------------------------------
        .byte   PATT
         .word  mus_thppme_290_credits_medley_8_53
@ 056   ----------------------------------------
        .byte   PATT
         .word  mus_thppme_290_credits_medley_8_53
@ 057   ----------------------------------------
        .byte   PATT
         .word  mus_thppme_290_credits_medley_8_53
@ 058   ----------------------------------------
        .byte           N06   , Cn1 , v100
        .byte   W06
        .byte                   Dn1
        .byte   W06
        .byte                   Cn1
        .byte   W12
        .byte                   Dn1
        .byte   W12
        .byte                   Cn1
        .byte   W06
        .byte                   Cn1
        .byte   W06
        .byte                   Cn1
        .byte           N06   , Cs2
        .byte   W12
        .byte                   Cn1
        .byte   W12
        .byte                   Dn1
        .byte   W12
        .byte                   Cn1
        .byte   W06
        .byte                   Dn1
        .byte   W06
@ 059   ----------------------------------------
mus_thppme_290_credits_medley_8_59:
        .byte           N06   , Cn1 , v100
        .byte           N06   , Cs2
        .byte   W06
        .byte                   Dn1
        .byte   W06
        .byte                   Cn1
        .byte   W12
        .byte                   Dn1
        .byte   W12
        .byte                   Cn1
        .byte   W06
        .byte                   Cn1
        .byte   W06
        .byte                   Cn1
        .byte           N06   , Cs2
        .byte   W12
        .byte                   Cn1
        .byte   W12
        .byte                   Dn1
        .byte   W12
        .byte                   Cn1
        .byte   W06
        .byte                   Dn1
        .byte   W06
        .byte   PEND
@ 060   ----------------------------------------
        .byte   PATT
         .word  mus_thppme_290_credits_medley_8_59
@ 061   ----------------------------------------
        .byte   PATT
         .word  mus_thppme_290_credits_medley_8_59
@ 062   ----------------------------------------
        .byte   PATT
         .word  mus_thppme_290_credits_medley_8_59
@ 063   ----------------------------------------
        .byte   PATT
         .word  mus_thppme_290_credits_medley_8_59
@ 064   ----------------------------------------
        .byte   PATT
         .word  mus_thppme_290_credits_medley_8_59
@ 065   ----------------------------------------
        .byte   PATT
         .word  mus_thppme_290_credits_medley_8_59
@ 066   ----------------------------------------
        .byte           N06   , Cn1 , v100
        .byte           N06   , Cs2
        .byte   W06
        .byte                   Dn1
        .byte   W06
        .byte                   Cn1
        .byte   W12
        .byte                   Cn1
        .byte           N06   , Dn1
        .byte           N06   , Ds2
        .byte   W12
        .byte                   Cn1
        .byte           N06   , Dn1
        .byte   W06
        .byte                   Cn1
        .byte           N06   , Dn1
        .byte   W06
        .byte           N12   , Cn1
        .byte           N06   , Dn1
        .byte           N06   , Cs2
        .byte   W36
        .byte           N03   , Dn1 , v052
        .byte   W03
        .byte                   Dn1 , v064
        .byte   W03
        .byte                   Dn1 , v076
        .byte   W03
        .byte                   Dn1 , v088
        .byte   W03
@ 067   ----------------------------------------
        .byte           N06   , Cn1 , v100
        .byte           N06   , Dn1
        .byte           N06   , Cs2
        .byte   W12
        .byte                   As1
        .byte   W12
        .byte                   Cn1
        .byte   W12
        .byte                   As1
        .byte   W12
        .byte                   Cn1
        .byte   W12
        .byte                   As1
        .byte   W12
        .byte                   Cn1
        .byte   W12
        .byte                   As1
        .byte   W12
@ 068   ----------------------------------------
mus_thppme_290_credits_medley_8_68:
        .byte           N06   , Cn1 , v100
        .byte   W12
        .byte                   As1
        .byte   W12
        .byte                   Cn1
        .byte   W12
        .byte                   As1
        .byte   W12
        .byte                   Cn1
        .byte   W12
        .byte                   As1
        .byte   W12
        .byte                   Cn1
        .byte   W12
        .byte                   As1
        .byte   W12
        .byte   PEND
@ 069   ----------------------------------------
mus_thppme_290_credits_medley_8_69:
        .byte           N06   , Cn1 , v100
        .byte           N06   , Cs2
        .byte   W12
        .byte                   As1
        .byte   W12
        .byte                   Cn1
        .byte   W12
        .byte                   As1
        .byte   W12
        .byte                   Cn1
        .byte   W12
        .byte                   As1
        .byte   W12
        .byte                   Cn1
        .byte   W12
        .byte                   As1
        .byte   W12
        .byte   PEND
@ 070   ----------------------------------------
        .byte   PATT
         .word  mus_thppme_290_credits_medley_8_68
@ 071   ----------------------------------------
        .byte   PATT
         .word  mus_thppme_290_credits_medley_8_69
@ 072   ----------------------------------------
        .byte   PATT
         .word  mus_thppme_290_credits_medley_8_68
@ 073   ----------------------------------------
        .byte   PATT
         .word  mus_thppme_290_credits_medley_8_69
@ 074   ----------------------------------------
        .byte   PATT
         .word  mus_thppme_290_credits_medley_8_68
@ 075   ----------------------------------------
        .byte           N06   , Dn1 , v072
        .byte           N06   , Cs2 , v100
        .byte   W06
        .byte                   Dn1 , v084
        .byte   W06
        .byte                   Dn1 , v092
        .byte   W06
        .byte                   Dn1 , v100
        .byte   W06
        .byte                   Dn1 , v104
        .byte   W12
        .byte                   Dn1 , v084
        .byte   W06
        .byte                   Dn1 , v092
        .byte   W06
        .byte                   Dn1 , v100
        .byte   W06
        .byte                   Dn1 , v104
        .byte   W06
        .byte                   Dn1 , v108
        .byte   W12
        .byte                   Dn1 , v076
        .byte   W06
        .byte                   Dn1 , v084
        .byte   W06
        .byte                   Dn1 , v088
        .byte   W06
        .byte                   Dn1 , v092
        .byte   W06
@ 076   ----------------------------------------
        .byte                   Cn1 , v100
        .byte           N06   , Dn1 , v096
        .byte           N06   , Cs2 , v100
        .byte   W06
        .byte                   Dn1 , v096
        .byte   W06
        .byte                   Dn1 , v100
        .byte   W06
        .byte                   Dn1 , v104
        .byte   W06
        .byte                   Cn1 , v100
        .byte           N06   , Dn1 , v104
        .byte           N06   , Cs2 , v100
        .byte   W06
        .byte                   Dn1 , v108
        .byte   W06
        .byte                   Dn1
        .byte   W06
        .byte                   Dn1 , v112
        .byte   W06
        .byte                   Cn1 , v100
        .byte           N06   , Dn1 , v112
        .byte           N06   , Cs2 , v100
        .byte   W06
        .byte                   Dn1 , v116
        .byte   W06
        .byte                   Dn1
        .byte   W06
        .byte                   Dn1 , v120
        .byte   W06
        .byte                   Cn1 , v100
        .byte           N06   , Dn1 , v120
        .byte           N06   , Cs2 , v100
        .byte   W06
        .byte                   Dn1 , v124
        .byte   W06
        .byte                   Dn1
        .byte   W06
        .byte                   Dn1 , v127
        .byte   W06
@ 077   ----------------------------------------
mus_thppme_290_credits_medley_8_77:
        .byte           N06   , Cn1 , v100
        .byte           N06   , Cs2
        .byte   W12
        .byte                   Dn1
        .byte   W12
        .byte                   Cn1
        .byte           N06   , Fn2
        .byte   W12
        .byte                   Dn1
        .byte   W12
        .byte                   Cn1
        .byte           N06   , Fn2
        .byte   W12
        .byte                   Dn1
        .byte   W12
        .byte                   Cn1
        .byte           N06   , Fn2
        .byte   W12
        .byte                   Dn1
        .byte   W06
        .byte                   Dn1
        .byte   W06
        .byte   PEND
@ 078   ----------------------------------------
mus_thppme_290_credits_medley_8_78:
        .byte           N06   , Cn1 , v100
        .byte           N06   , Fn2
        .byte   W12
        .byte                   Dn1
        .byte           N06   , Fn2
        .byte   W12
        .byte                   Cn1
        .byte   W12
        .byte                   Dn1
        .byte   W12
        .byte                   Cn1
        .byte           N06   , Fn2
        .byte   W12
        .byte                   Dn1
        .byte           N06   , Fn2
        .byte   W12
        .byte                   Cn1
        .byte   W12
        .byte                   Dn1
        .byte   W06
        .byte                   Dn1
        .byte   W06
        .byte   PEND
@ 079   ----------------------------------------
        .byte   PATT
         .word  mus_thppme_290_credits_medley_8_77
@ 080   ----------------------------------------
        .byte   PATT
         .word  mus_thppme_290_credits_medley_8_78
@ 081   ----------------------------------------
        .byte   PATT
         .word  mus_thppme_290_credits_medley_8_77
@ 082   ----------------------------------------
        .byte   PATT
         .word  mus_thppme_290_credits_medley_8_78
@ 083   ----------------------------------------
        .byte   PATT
         .word  mus_thppme_290_credits_medley_8_77
@ 084   ----------------------------------------
        .byte   PATT
         .word  mus_thppme_290_credits_medley_8_78
@ 085   ----------------------------------------
        .byte   PATT
         .word  mus_thppme_290_credits_medley_8_77
@ 086   ----------------------------------------
        .byte   PATT
         .word  mus_thppme_290_credits_medley_8_78
@ 087   ----------------------------------------
        .byte   PATT
         .word  mus_thppme_290_credits_medley_8_77
@ 088   ----------------------------------------
        .byte           N06   , Cn1 , v100
        .byte           N06   , Fn2
        .byte   W12
        .byte                   Dn1
        .byte           N06   , Fn2
        .byte   W12
        .byte                   Cn1
        .byte   W12
        .byte                   Dn1
        .byte   W12
        .byte                   Cn1
        .byte           N06   , Fn2
        .byte   W12
        .byte                   Dn1
        .byte           N06   , Fn2
        .byte   W06
        .byte                   Dn1
        .byte   W06
        .byte                   Cn1
        .byte   W12
        .byte                   Dn1
        .byte           N06   , An2
        .byte   W06
        .byte                   Dn1
        .byte   W06
@ 089   ----------------------------------------
        .byte                   Cn1
        .byte           N06   , Cs2
        .byte   W24
        .byte                   An2
        .byte   W12
        .byte                   Dn1
        .byte   W12
        .byte                   Cn1
        .byte           N06   , Cs2
        .byte   W24
        .byte                   An2
        .byte   W12
        .byte                   Cs2
        .byte   W12
@ 090   ----------------------------------------
        .byte   W84
        .byte                   Dn1
        .byte   W06
        .byte                   Dn1
        .byte   W06
@ 091   ----------------------------------------
        .byte                   Dn1
        .byte           N06   , Fs1
        .byte   W12
        .byte           N03   , Dn1 , v068
        .byte   W03
        .byte                   Dn1 , v076
        .byte   W03
        .byte                   Dn1 , v100
        .byte   W06
        .byte                   Dn1
        .byte   W12
        .byte                   Dn1 , v068
        .byte   W03
        .byte                   Dn1 , v076
        .byte   W03
        .byte                   Dn1 , v100
        .byte   W06
        .byte                   Dn1
        .byte   W06
        .byte                   Dn1
        .byte   W06
        .byte                   Dn1
        .byte   W12
        .byte                   Dn1
        .byte   W12
        .byte                   Dn1
        .byte   W06
        .byte                   Dn1
        .byte   W03
        .byte                   Dn1 , v060
        .byte   W03
@ 092   ----------------------------------------
mus_thppme_290_credits_medley_8_92:
        .byte           N06   , Dn1 , v100
        .byte   W12
        .byte           N03   , Dn1 , v068
        .byte   W03
        .byte                   Dn1 , v076
        .byte   W03
        .byte                   Dn1 , v100
        .byte   W06
        .byte                   Dn1
        .byte   W12
        .byte                   Dn1 , v068
        .byte   W03
        .byte                   Dn1 , v076
        .byte   W03
        .byte                   Dn1 , v100
        .byte   W06
        .byte                   Dn1
        .byte   W06
        .byte                   Dn1
        .byte   W06
        .byte                   Dn1
        .byte   W12
        .byte                   Dn1
        .byte   W12
        .byte                   Dn1
        .byte   W06
        .byte                   Dn1
        .byte   W03
        .byte                   Dn1 , v060
        .byte   W03
        .byte   PEND
@ 093   ----------------------------------------
        .byte   PATT
         .word  mus_thppme_290_credits_medley_8_92
@ 094   ----------------------------------------
        .byte   PATT
         .word  mus_thppme_290_credits_medley_8_92
@ 095   ----------------------------------------
        .byte   PATT
         .word  mus_thppme_290_credits_medley_8_92
@ 096   ----------------------------------------
        .byte   PATT
         .word  mus_thppme_290_credits_medley_8_92
@ 097   ----------------------------------------
        .byte   PATT
         .word  mus_thppme_290_credits_medley_8_92
@ 098   ----------------------------------------
        .byte   PATT
         .word  mus_thppme_290_credits_medley_8_92
@ 099   ----------------------------------------
        .byte   PATT
         .word  mus_thppme_290_credits_medley_8_92
@ 100   ----------------------------------------
        .byte   PATT
         .word  mus_thppme_290_credits_medley_8_92
@ 101   ----------------------------------------
mus_thppme_290_credits_medley_8_101:
        .byte   W48
        .byte           N06   , Cs2 , v100
        .byte           N06   , An2
        .byte   W48
        .byte   PEND
@ 102   ----------------------------------------
        .byte   W96
@ 103   ----------------------------------------
        .byte   PATT
         .word  mus_thppme_290_credits_medley_8_101
@ 104   ----------------------------------------
        .byte   W96
@ 105   ----------------------------------------
        .byte   PATT
         .word  mus_thppme_290_credits_medley_8_101
@ 106   ----------------------------------------
        .byte   W96
@ 107   ----------------------------------------
        .byte   PATT
         .word  mus_thppme_290_credits_medley_8_101
@ 108   ----------------------------------------
mus_thppme_290_credits_medley_8_108:
        .byte           N06   , Cs2 , v100
        .byte           N06   , An2
        .byte   W48
        .byte                   Cs2
        .byte           N06   , An2
        .byte   W48
        .byte   PEND
@ 109   ----------------------------------------
        .byte   PATT
         .word  mus_thppme_290_credits_medley_8_108
@ 110   ----------------------------------------
        .byte           N06   , Cs2 , v100
        .byte           N06   , An2
        .byte   W18
        .byte                   Cs2
        .byte           N06   , An2
        .byte   W18
        .byte                   Cs2
        .byte           N06   , An2
        .byte   W12
        .byte                   Dn1
        .byte           N06   , Cs2
        .byte           N06   , An2
        .byte   W12
        .byte                   Dn1
        .byte   W24
        .byte                   Dn1
        .byte   W06
        .byte                   Dn1
        .byte   W06
@ 111   ----------------------------------------
mus_thppme_290_credits_medley_8_111:
        .byte           N06   , Dn1 , v100
        .byte   W12
        .byte                   Dn1
        .byte   W12
        .byte           N03   , Dn1 , v072
        .byte   W03
        .byte                   Dn1
        .byte   W03
        .byte                   Dn1
        .byte   W03
        .byte                   Dn1
        .byte   W03
        .byte                   Dn1
        .byte   W03
        .byte                   Dn1
        .byte   W03
        .byte                   Dn1
        .byte   W03
        .byte                   Dn1
        .byte   W03
        .byte           N06   , Dn1 , v100
        .byte   W12
        .byte                   Dn1
        .byte   W24
        .byte                   Dn1
        .byte   W06
        .byte                   Dn1
        .byte   W06
        .byte   PEND
@ 112   ----------------------------------------
        .byte   PATT
         .word  mus_thppme_290_credits_medley_8_111
@ 113   ----------------------------------------
        .byte   PATT
         .word  mus_thppme_290_credits_medley_8_111
@ 114   ----------------------------------------
        .byte   PATT
         .word  mus_thppme_290_credits_medley_8_111
@ 115   ----------------------------------------
        .byte   PATT
         .word  mus_thppme_290_credits_medley_8_111
@ 116   ----------------------------------------
        .byte   PATT
         .word  mus_thppme_290_credits_medley_8_111
@ 117   ----------------------------------------
        .byte   PATT
         .word  mus_thppme_290_credits_medley_8_111
@ 118   ----------------------------------------
        .byte           N06   , Dn1 , v100
        .byte   W12
        .byte                   Dn1
        .byte   W12
        .byte           N03   , Dn1 , v072
        .byte   W03
        .byte                   Dn1
        .byte   W03
        .byte                   Dn1
        .byte   W03
        .byte                   Dn1
        .byte   W03
        .byte                   Dn1
        .byte   W03
        .byte                   Dn1
        .byte   W03
        .byte                   Dn1
        .byte   W03
        .byte                   Dn1
        .byte   W03
        .byte           N06   , Dn1 , v100
        .byte   W36
        .byte                   Dn1 , v127
        .byte   W06
        .byte                   Dn1
        .byte   W06
@ 119   ----------------------------------------
        .byte                   Dn1
        .byte           N06   , Cs2
        .byte   W06
        .byte   FINE

@****************** Track 9 (Midi-Chn.8) ******************@

mus_thppme_290_credits_medley_9:
        .byte   KEYSH , mus_thppme_290_credits_medley_key+0
@ 000   ----------------------------------------
        .byte   W96
@ 001   ----------------------------------------
        .byte           VOICE , 46
        .byte           VOL   , 60
        .byte   W48
        .byte           N06   , Ds2 , v100
        .byte   W06
        .byte                   Gn2
        .byte   W06
        .byte                   As2
        .byte   W06
        .byte                   Ds3
        .byte   W06
        .byte                   Gn3
        .byte   W06
        .byte                   As3
        .byte   W06
        .byte                   Ds4
        .byte   W06
        .byte                   Gn4
        .byte   W06
@ 002   ----------------------------------------
mus_thppme_290_credits_medley_9_2:
        .byte           N06   , Gn2 , v100
        .byte   W06
        .byte                   As2
        .byte   W06
        .byte                   Ds3
        .byte   W06
        .byte                   Gn3
        .byte   W06
        .byte                   As3
        .byte   W06
        .byte                   Ds4
        .byte   W06
        .byte                   Gn4
        .byte   W06
        .byte                   As4
        .byte   W06
        .byte                   Fn2
        .byte   W06
        .byte                   An2
        .byte   W06
        .byte                   Cn3
        .byte   W06
        .byte                   Fn3
        .byte   W06
        .byte                   An3
        .byte   W06
        .byte                   Cn4
        .byte   W06
        .byte                   Fn4
        .byte   W06
        .byte                   An4
        .byte   W06
        .byte   PEND
@ 003   ----------------------------------------
mus_thppme_290_credits_medley_9_3:
        .byte           N06   , An2 , v100
        .byte   W06
        .byte                   Cn3
        .byte   W06
        .byte                   Fn3
        .byte   W06
        .byte                   An3
        .byte   W06
        .byte                   Cn4
        .byte   W06
        .byte                   Fn4
        .byte   W06
        .byte                   An4
        .byte   W06
        .byte                   Cn5
        .byte   W06
        .byte                   Gn2
        .byte   W06
        .byte                   An2
        .byte   W06
        .byte                   As2
        .byte   W06
        .byte                   Cn3
        .byte   W06
        .byte                   Dn3
        .byte   W06
        .byte                   Gn3
        .byte   W06
        .byte                   An3
        .byte   W06
        .byte                   As3
        .byte   W06
        .byte   PEND
@ 004   ----------------------------------------
mus_thppme_290_credits_medley_9_4:
        .byte           N06   , Gn4 , v100
        .byte   W06
        .byte                   An4
        .byte   W06
        .byte                   As4
        .byte   W06
        .byte                   Cn5
        .byte   W06
        .byte                   Dn5
        .byte   W06
        .byte                   Gn5
        .byte   W06
        .byte                   An5
        .byte   W06
        .byte                   As5
        .byte   W06
        .byte                   An5
        .byte   W06
        .byte                   Gn5
        .byte   W06
        .byte                   Dn5
        .byte   W06
        .byte                   Cn5
        .byte   W06
        .byte                   Gn5
        .byte   W06
        .byte                   Dn5
        .byte   W06
        .byte                   Cn5
        .byte   W06
        .byte                   As4
        .byte   W06
        .byte   PEND
@ 005   ----------------------------------------
mus_thppme_290_credits_medley_9_5:
        .byte           N06   , Gn4 , v100
        .byte   W06
        .byte                   As3
        .byte   W06
        .byte                   An3
        .byte   W06
        .byte                   Gn3
        .byte   W06
        .byte                   Dn3
        .byte   W06
        .byte                   Cn3
        .byte   W06
        .byte                   As2
        .byte   W06
        .byte                   Gn2
        .byte   W06
        .byte                   Ds2
        .byte   W06
        .byte                   Gn2
        .byte   W06
        .byte                   As2
        .byte   W06
        .byte                   Ds3
        .byte   W06
        .byte                   Gn3
        .byte   W06
        .byte                   As3
        .byte   W06
        .byte                   Ds4
        .byte   W06
        .byte                   Gn4
        .byte   W06
        .byte   PEND
@ 006   ----------------------------------------
        .byte   PATT
         .word  mus_thppme_290_credits_medley_9_2
@ 007   ----------------------------------------
        .byte   PATT
         .word  mus_thppme_290_credits_medley_9_3
@ 008   ----------------------------------------
        .byte   PATT
         .word  mus_thppme_290_credits_medley_9_4
@ 009   ----------------------------------------
        .byte   PATT
         .word  mus_thppme_290_credits_medley_9_5
@ 010   ----------------------------------------
        .byte   PATT
         .word  mus_thppme_290_credits_medley_9_2
@ 011   ----------------------------------------
        .byte   PATT
         .word  mus_thppme_290_credits_medley_9_3
@ 012   ----------------------------------------
        .byte           N06   , Gn4 , v100
        .byte   W06
        .byte                   An4
        .byte   W06
        .byte                   As4
        .byte   W06
        .byte                   Cn5
        .byte   W06
        .byte                   Dn5
        .byte   W06
        .byte                   Gn5
        .byte   W06
        .byte                   An5
        .byte   W06
        .byte                   As5
        .byte   W06
        .byte           N08
        .byte   W08
        .byte                   Cn6
        .byte   W08
        .byte                   Gn5
        .byte   W08
        .byte                   As5
        .byte   W08
        .byte                   Cn6
        .byte   W08
        .byte                   Gn5
        .byte   W08
@ 013   ----------------------------------------
        .byte           N06   , As5
        .byte   W06
        .byte                   An5
        .byte   W06
        .byte                   Gn5
        .byte   W06
        .byte                   Fn5
        .byte   W06
        .byte                   Dn5
        .byte   W06
        .byte                   Cn5
        .byte   W06
        .byte                   As4
        .byte   W06
        .byte                   An4
        .byte   W06
        .byte                   Ds2
        .byte   W06
        .byte                   Gn2
        .byte   W06
        .byte                   As2
        .byte   W06
        .byte                   Ds3
        .byte   W06
        .byte                   Gn3
        .byte   W06
        .byte                   As3
        .byte   W06
        .byte                   Ds4
        .byte   W06
        .byte                   Gn4
        .byte   W06
@ 014   ----------------------------------------
        .byte   PATT
         .word  mus_thppme_290_credits_medley_9_2
@ 015   ----------------------------------------
        .byte           N06   , An2 , v100
        .byte   W06
        .byte                   Cn3
        .byte   W06
        .byte                   Fn3
        .byte   W06
        .byte                   An3
        .byte   W06
        .byte                   Cn4
        .byte   W06
        .byte                   Fn4
        .byte   W06
        .byte                   An4
        .byte   W06
        .byte                   Cn5
        .byte   W54
@ 016   ----------------------------------------
        .byte   W96
@ 017   ----------------------------------------
        .byte   W96
@ 018   ----------------------------------------
        .byte   W96
@ 019   ----------------------------------------
        .byte   W96
@ 020   ----------------------------------------
        .byte   W96
@ 021   ----------------------------------------
        .byte   W96
@ 022   ----------------------------------------
        .byte   W96
@ 023   ----------------------------------------
        .byte   W96
@ 024   ----------------------------------------
        .byte   W96
@ 025   ----------------------------------------
        .byte   W96
@ 026   ----------------------------------------
        .byte   W96
@ 027   ----------------------------------------
        .byte   W96
@ 028   ----------------------------------------
        .byte   W96
@ 029   ----------------------------------------
        .byte   W96
@ 030   ----------------------------------------
        .byte   W96
@ 031   ----------------------------------------
        .byte   W96
@ 032   ----------------------------------------
        .byte   W96
@ 033   ----------------------------------------
        .byte   W96
@ 034   ----------------------------------------
        .byte   W96
@ 035   ----------------------------------------
        .byte   W96
@ 036   ----------------------------------------
        .byte   W96
@ 037   ----------------------------------------
        .byte   W96
@ 038   ----------------------------------------
        .byte   W96
@ 039   ----------------------------------------
        .byte   W48
        .byte                   Fs3 , v064
        .byte   W06
        .byte                   Cs3
        .byte   W06
        .byte                   Cs4
        .byte   W06
        .byte                   Gs3
        .byte   W06
        .byte                   Fs3
        .byte   W06
        .byte                   Cs3
        .byte   W06
        .byte                   Cs4
        .byte   W06
        .byte                   Gs3
        .byte   W06
@ 040   ----------------------------------------
mus_thppme_290_credits_medley_9_40:
        .byte           N06   , Gs3 , v064
        .byte   W06
        .byte                   Ds3
        .byte   W06
        .byte                   Ds4
        .byte   W06
        .byte                   Bn3
        .byte   W06
        .byte                   Gs3
        .byte   W06
        .byte                   Ds3
        .byte   W06
        .byte                   Ds4
        .byte   W06
        .byte                   Bn3
        .byte   W06
        .byte                   An3
        .byte   W06
        .byte                   En3
        .byte   W06
        .byte                   En4
        .byte   W06
        .byte                   Cs4
        .byte   W06
        .byte                   An3
        .byte   W06
        .byte                   En3
        .byte   W06
        .byte                   En4
        .byte   W06
        .byte                   Cs4
        .byte   W06
        .byte   PEND
@ 041   ----------------------------------------
        .byte                   Gs3
        .byte   W06
        .byte                   Ds3
        .byte   W06
        .byte                   Ds4
        .byte   W06
        .byte                   Bn3
        .byte   W06
        .byte                   Gs3
        .byte   W06
        .byte                   Ds3
        .byte   W06
        .byte                   Ds4
        .byte   W06
        .byte                   Bn3
        .byte   W06
        .byte                   Fs3
        .byte   W06
        .byte                   Cs3
        .byte   W06
        .byte                   Cs4
        .byte   W06
        .byte                   Gs3
        .byte   W06
        .byte                   Fs3
        .byte   W06
        .byte                   Cs3
        .byte   W06
        .byte                   Cs4
        .byte   W06
        .byte                   Gs3
        .byte   W06
@ 042   ----------------------------------------
        .byte   PATT
         .word  mus_thppme_290_credits_medley_9_40
@ 043   ----------------------------------------
        .byte           N06   , Gs3 , v064
        .byte   W06
        .byte                   Ds3
        .byte   W06
        .byte                   Ds4
        .byte   W06
        .byte                   Bn3
        .byte   W06
        .byte                   Gs3
        .byte   W06
        .byte                   Ds3
        .byte   W06
        .byte                   Ds4
        .byte   W06
        .byte                   Bn3
        .byte   W54
@ 044   ----------------------------------------
        .byte   W96
@ 045   ----------------------------------------
        .byte   W96
@ 046   ----------------------------------------
        .byte   W96
@ 047   ----------------------------------------
        .byte   W96
@ 048   ----------------------------------------
        .byte   W96
@ 049   ----------------------------------------
        .byte   W96
@ 050   ----------------------------------------
        .byte   W96
@ 051   ----------------------------------------
        .byte   W96
@ 052   ----------------------------------------
        .byte   W48
        .byte                   An2 , v076
        .byte   W06
        .byte                   En3
        .byte   W06
        .byte                   An3
        .byte   W06
        .byte                   En3
        .byte   W06
        .byte                   An3
        .byte   W06
        .byte                   En3
        .byte   W06
        .byte                   An3
        .byte   W06
        .byte                   En3
        .byte   W06
@ 053   ----------------------------------------
        .byte                   An2
        .byte   W06
        .byte                   En3
        .byte   W06
        .byte                   An3
        .byte   W06
        .byte                   En3
        .byte   W06
        .byte                   An3
        .byte   W06
        .byte                   En3
        .byte   W06
        .byte                   An3
        .byte   W06
        .byte                   En3
        .byte   W06
        .byte                   An2
        .byte   W06
        .byte                   En3
        .byte   W06
        .byte                   An3
        .byte   W06
        .byte                   En3
        .byte   W06
        .byte                   An3
        .byte   W06
        .byte                   En3
        .byte   W06
        .byte                   An3
        .byte   W06
        .byte                   En3
        .byte   W06
@ 054   ----------------------------------------
        .byte                   An2
        .byte   W06
        .byte                   En3
        .byte   W06
        .byte                   An3
        .byte   W06
        .byte                   En3
        .byte   W06
        .byte                   Bn2
        .byte   W06
        .byte                   Fs3
        .byte   W06
        .byte                   As3
        .byte   W06
        .byte                   Fs3
        .byte   W06
        .byte                   Cs3
        .byte   W06
        .byte                   Gs3
        .byte   W06
        .byte                   Cs4
        .byte   W06
        .byte                   Gs3
        .byte   W06
        .byte                   Cs4
        .byte   W06
        .byte                   Gs3
        .byte   W06
        .byte                   Cs4
        .byte   W06
        .byte                   Gs3
        .byte   W06
@ 055   ----------------------------------------
        .byte                   Cs3
        .byte   W06
        .byte                   Gs3
        .byte   W06
        .byte                   Cs4
        .byte   W06
        .byte                   Gs3
        .byte   W06
        .byte                   Cs4
        .byte   W06
        .byte                   Gs3
        .byte   W06
        .byte                   Cs4
        .byte   W06
        .byte                   Gs3
        .byte   W06
        .byte                   Cs3
        .byte   W06
        .byte                   Gs3
        .byte   W06
        .byte                   Cs4
        .byte   W06
        .byte                   Gs3
        .byte   W06
        .byte                   Cs4
        .byte   W06
        .byte                   Gs3
        .byte   W06
        .byte                   Cs4
        .byte   W06
        .byte                   Gs3
        .byte   W06
@ 056   ----------------------------------------
        .byte                   Cs3
        .byte   W06
        .byte                   Gs3
        .byte   W06
        .byte                   Cs4
        .byte   W06
        .byte                   Gs3
        .byte   W06
        .byte                   Cs3
        .byte   W06
        .byte                   Gs3
        .byte   W06
        .byte                   Cn4
        .byte   W06
        .byte                   Gs3
        .byte   W06
        .byte                   As2
        .byte   W06
        .byte                   Fs3
        .byte   W06
        .byte                   As3
        .byte   W06
        .byte                   Fs3
        .byte   W06
        .byte                   As3
        .byte   W06
        .byte                   Fs3
        .byte   W06
        .byte                   As3
        .byte   W06
        .byte                   Fs3
        .byte   W06
@ 057   ----------------------------------------
        .byte                   As2
        .byte   W06
        .byte                   Fs3
        .byte   W06
        .byte                   As3
        .byte   W06
        .byte                   Fs3
        .byte   W06
        .byte                   As3
        .byte   W06
        .byte                   Fs3
        .byte   W06
        .byte                   As3
        .byte   W06
        .byte                   Fs3
        .byte   W06
        .byte                   As2
        .byte   W06
        .byte                   Fs3
        .byte   W06
        .byte                   As3
        .byte   W06
        .byte                   Fs3
        .byte   W06
        .byte                   As3
        .byte   W06
        .byte                   Fs3
        .byte   W06
        .byte                   As3
        .byte   W06
        .byte                   Fs3
        .byte   W06
@ 058   ----------------------------------------
        .byte                   As2
        .byte   W06
        .byte                   Fs3
        .byte   W06
        .byte                   As3
        .byte   W06
        .byte                   Fs3
        .byte   W06
        .byte                   As2
        .byte   W06
        .byte                   Fs3
        .byte   W06
        .byte                   As3
        .byte   W06
        .byte                   Fs3
        .byte   W06
        .byte                   An2
        .byte   W06
        .byte                   En3
        .byte   W06
        .byte                   An3
        .byte   W06
        .byte                   En3
        .byte   W06
        .byte                   An3
        .byte   W06
        .byte                   En3
        .byte   W06
        .byte                   An3
        .byte   W06
        .byte                   En3
        .byte   W06
@ 059   ----------------------------------------
mus_thppme_290_credits_medley_9_59:
        .byte           N06   , Bn2 , v076
        .byte   W06
        .byte                   Fs3
        .byte   W06
        .byte                   Bn3
        .byte   W06
        .byte                   Fs3
        .byte   W06
        .byte                   Bn3
        .byte   W06
        .byte                   Fs3
        .byte   W06
        .byte                   Bn3
        .byte   W06
        .byte                   Fs3
        .byte   W06
        .byte                   Cs3
        .byte   W06
        .byte                   Gs3
        .byte   W06
        .byte                   Cs4
        .byte   W06
        .byte                   Gs3
        .byte   W06
        .byte                   Cs4
        .byte   W06
        .byte                   Gs3
        .byte   W06
        .byte                   Cs4
        .byte   W06
        .byte                   Gs3
        .byte   W06
        .byte   PEND
@ 060   ----------------------------------------
mus_thppme_290_credits_medley_9_60:
        .byte           N06   , Cs3 , v076
        .byte   W06
        .byte                   Gs3
        .byte   W06
        .byte                   Cs4
        .byte   W06
        .byte                   Gs3
        .byte   W06
        .byte                   Cs4
        .byte   W06
        .byte                   Gs3
        .byte   W06
        .byte                   Cs4
        .byte   W06
        .byte                   Gs3
        .byte   W06
        .byte                   An2
        .byte   W06
        .byte                   En3
        .byte   W06
        .byte                   An3
        .byte   W06
        .byte                   En3
        .byte   W06
        .byte                   An3
        .byte   W06
        .byte                   En3
        .byte   W06
        .byte                   An3
        .byte   W06
        .byte                   En3
        .byte   W06
        .byte   PEND
@ 061   ----------------------------------------
        .byte   PATT
         .word  mus_thppme_290_credits_medley_9_59
@ 062   ----------------------------------------
        .byte   PATT
         .word  mus_thppme_290_credits_medley_9_60
@ 063   ----------------------------------------
        .byte   PATT
         .word  mus_thppme_290_credits_medley_9_59
@ 064   ----------------------------------------
        .byte   PATT
         .word  mus_thppme_290_credits_medley_9_60
@ 065   ----------------------------------------
        .byte   PATT
         .word  mus_thppme_290_credits_medley_9_59
@ 066   ----------------------------------------
        .byte           N06   , Cs3 , v076
        .byte   W06
        .byte                   Gs3
        .byte   W06
        .byte                   Cs4
        .byte   W06
        .byte                   Gs3
        .byte   W06
        .byte                   Cs4
        .byte   W06
        .byte                   Gs3
        .byte   W06
        .byte                   Cs4
        .byte   W06
        .byte                   Gs3
        .byte   W54
@ 067   ----------------------------------------
        .byte           N12   , Cn5 , v100
        .byte   W96
@ 068   ----------------------------------------
        .byte   W96
@ 069   ----------------------------------------
        .byte   W96
@ 070   ----------------------------------------
        .byte   W96
@ 071   ----------------------------------------
        .byte   W96
@ 072   ----------------------------------------
        .byte   W96
@ 073   ----------------------------------------
        .byte   W96
@ 074   ----------------------------------------
        .byte   W96
@ 075   ----------------------------------------
        .byte   W96
@ 076   ----------------------------------------
        .byte   W96
@ 077   ----------------------------------------
mus_thppme_290_credits_medley_9_77:
        .byte           N06   , Cs4 , v100
        .byte   W06
        .byte                   En4
        .byte   W06
        .byte                   Fs4
        .byte   W06
        .byte                   An4
        .byte   W06
        .byte                   Fs4
        .byte   W06
        .byte                   En4
        .byte   W06
        .byte                   Cs4
        .byte   W06
        .byte                   En4
        .byte   W06
        .byte                   Gs4
        .byte   W06
        .byte                   Fs4
        .byte   W06
        .byte                   En4
        .byte   W06
        .byte                   Cs4
        .byte   W06
        .byte                   An3
        .byte   W06
        .byte                   Bn3
        .byte   W06
        .byte                   Cs4
        .byte   W06
        .byte                   En4
        .byte   W06
        .byte   PEND
@ 078   ----------------------------------------
mus_thppme_290_credits_medley_9_78:
        .byte           N12   , Fs4 , v100
        .byte   W12
        .byte                   Cs5
        .byte   W12
        .byte                   Fs4
        .byte   W12
        .byte                   Bn4
        .byte   W12
        .byte                   En4
        .byte   W12
        .byte                   An4
        .byte   W12
        .byte                   Cs4
        .byte   W12
        .byte                   Gs4
        .byte   W12
        .byte   PEND
@ 079   ----------------------------------------
mus_thppme_290_credits_medley_9_79:
        .byte           N06   , An3 , v100
        .byte   W06
        .byte                   Bn3
        .byte   W06
        .byte                   Dn4
        .byte   W06
        .byte                   Fs4
        .byte   W06
        .byte                   Dn4
        .byte   W06
        .byte                   Bn3
        .byte   W06
        .byte                   An3
        .byte   W06
        .byte                   Bn3
        .byte   W06
        .byte                   En4
        .byte   W06
        .byte                   Dn4
        .byte   W06
        .byte                   Cs4
        .byte   W06
        .byte                   Bn3
        .byte   W06
        .byte                   Cs4
        .byte   W06
        .byte                   En4
        .byte   W06
        .byte                   Fs4
        .byte   W06
        .byte                   Gs4
        .byte   W06
        .byte   PEND
@ 080   ----------------------------------------
mus_thppme_290_credits_medley_9_80:
        .byte           N12   , An4 , v100
        .byte   W12
        .byte                   Fs5
        .byte   W12
        .byte                   An4
        .byte   W12
        .byte                   En5
        .byte   W12
        .byte                   Gs4
        .byte   W12
        .byte                   Dn5
        .byte   W12
        .byte                   Fs4
        .byte   W12
        .byte                   Cs5
        .byte   W12
        .byte   PEND
@ 081   ----------------------------------------
mus_thppme_290_credits_medley_9_81:
        .byte           N06   , Bn3 , v100
        .byte   W06
        .byte                   Cs4
        .byte   W06
        .byte                   En4
        .byte   W06
        .byte                   Gs4
        .byte   W06
        .byte                   En4
        .byte   W06
        .byte                   Cs4
        .byte   W06
        .byte                   Bn3
        .byte   W06
        .byte                   Cs4
        .byte   W06
        .byte                   En4
        .byte   W06
        .byte                   Gs4
        .byte   W06
        .byte                   En4
        .byte   W06
        .byte                   Cs4
        .byte   W06
        .byte                   Bn3
        .byte   W06
        .byte                   Cs4
        .byte   W06
        .byte                   En4
        .byte   W06
        .byte                   Gs4
        .byte   W06
        .byte   PEND
@ 082   ----------------------------------------
mus_thppme_290_credits_medley_9_82:
        .byte           N06   , Cs5 , v100
        .byte   W06
        .byte                   Bn4
        .byte   W06
        .byte                   An4
        .byte   W06
        .byte                   Gs4
        .byte   W06
        .byte                   An4
        .byte   W06
        .byte                   Gs4
        .byte   W06
        .byte                   Fs4
        .byte   W06
        .byte                   En4
        .byte   W06
        .byte                   Fs4
        .byte   W06
        .byte                   En4
        .byte   W06
        .byte                   Dn4
        .byte   W06
        .byte                   Cs4
        .byte   W06
        .byte                   En4
        .byte   W06
        .byte                   Dn4
        .byte   W06
        .byte                   Cs4
        .byte   W06
        .byte                   Bn3
        .byte   W06
        .byte   PEND
@ 083   ----------------------------------------
        .byte   PATT
         .word  mus_thppme_290_credits_medley_9_77
@ 084   ----------------------------------------
        .byte   PATT
         .word  mus_thppme_290_credits_medley_9_78
@ 085   ----------------------------------------
        .byte   PATT
         .word  mus_thppme_290_credits_medley_9_79
@ 086   ----------------------------------------
        .byte   PATT
         .word  mus_thppme_290_credits_medley_9_80
@ 087   ----------------------------------------
        .byte   PATT
         .word  mus_thppme_290_credits_medley_9_81
@ 088   ----------------------------------------
        .byte   PATT
         .word  mus_thppme_290_credits_medley_9_82
@ 089   ----------------------------------------
        .byte           N06   , Dn4 , v100
        .byte   W06
        .byte                   Fs4
        .byte   W06
        .byte                   An4
        .byte   W06
        .byte                   Dn5
        .byte   W06
        .byte                   En5
        .byte   W06
        .byte                   Fs5
        .byte   W06
        .byte                   An5
        .byte   W06
        .byte                   Fs5
        .byte   W06
        .byte                   En4
        .byte   W06
        .byte                   Gs4
        .byte   W06
        .byte                   Bn4
        .byte   W06
        .byte                   En5
        .byte   W06
        .byte                   Bn4
        .byte   W06
        .byte                   Gs4
        .byte   W06
        .byte                   En4
        .byte   W06
        .byte                   Bn3
        .byte   W06
@ 090   ----------------------------------------
        .byte                   Fs3
        .byte   W06
        .byte                   An3
        .byte   W06
        .byte                   Cs4
        .byte   W06
        .byte                   Fs4
        .byte   W06
        .byte                   An4
        .byte   W06
        .byte                   Cs5
        .byte   W06
        .byte                   Fs5
        .byte   W06
        .byte                   An5
        .byte   W06
        .byte                   Cs6
        .byte   W06
        .byte                   An5
        .byte   W06
        .byte                   Fs5
        .byte   W06
        .byte                   Cs5
        .byte   W06
        .byte                   An4
        .byte   W06
        .byte                   Fs4
        .byte   W06
        .byte                   Cs4
        .byte   W06
        .byte                   An3
        .byte   W06
@ 091   ----------------------------------------
mus_thppme_290_credits_medley_9_91:
        .byte           N06   , Fs3 , v100
        .byte   W12
        .byte                   Gs3
        .byte   W12
        .byte                   An3
        .byte   W12
        .byte                   Fs3
        .byte   W12
        .byte                   Gs3
        .byte   W12
        .byte                   An3
        .byte   W12
        .byte                   Bn3
        .byte   W12
        .byte                   Gs3
        .byte   W12
        .byte   PEND
@ 092   ----------------------------------------
        .byte   W96
@ 093   ----------------------------------------
        .byte   PATT
         .word  mus_thppme_290_credits_medley_9_91
@ 094   ----------------------------------------
        .byte   W96
@ 095   ----------------------------------------
mus_thppme_290_credits_medley_9_95:
        .byte           N06   , An3 , v100
        .byte   W12
        .byte                   Bn3
        .byte   W12
        .byte                   Cs4
        .byte   W12
        .byte                   An3
        .byte   W12
        .byte                   Bn3
        .byte   W12
        .byte                   Cs4
        .byte   W12
        .byte                   Dn4
        .byte   W12
        .byte                   Bn3
        .byte   W12
        .byte   PEND
@ 096   ----------------------------------------
        .byte   W96
@ 097   ----------------------------------------
        .byte   PATT
         .word  mus_thppme_290_credits_medley_9_95
@ 098   ----------------------------------------
mus_thppme_290_credits_medley_9_98:
        .byte           N06   , Cs4 , v100
        .byte   W12
        .byte                   Dn4
        .byte   W12
        .byte                   En4
        .byte   W12
        .byte                   Cs4
        .byte   W12
        .byte                   Dn4
        .byte   W12
        .byte                   Cs4
        .byte   W12
        .byte                   Bn3
        .byte   W12
        .byte                   Gs3
        .byte   W12
        .byte   PEND
@ 099   ----------------------------------------
        .byte   PATT
         .word  mus_thppme_290_credits_medley_9_95
@ 100   ----------------------------------------
        .byte   PATT
         .word  mus_thppme_290_credits_medley_9_98
@ 101   ----------------------------------------
        .byte   W96
@ 102   ----------------------------------------
        .byte   W96
@ 103   ----------------------------------------
        .byte   W96
@ 104   ----------------------------------------
        .byte   W96
@ 105   ----------------------------------------
        .byte   W96
@ 106   ----------------------------------------
        .byte   W96
@ 107   ----------------------------------------
        .byte   W96
@ 108   ----------------------------------------
        .byte   W96
@ 109   ----------------------------------------
        .byte   W96
@ 110   ----------------------------------------
        .byte   W96
@ 111   ----------------------------------------
        .byte   W96
@ 112   ----------------------------------------
        .byte   W96
@ 113   ----------------------------------------
        .byte   W96
@ 114   ----------------------------------------
        .byte   W96
@ 115   ----------------------------------------
        .byte   W96
@ 116   ----------------------------------------
        .byte   W96
@ 117   ----------------------------------------
        .byte   W96
@ 118   ----------------------------------------
        .byte   W96
@ 119   ----------------------------------------
        .byte   W06
        .byte   FINE


@********************** End of Song ***********************@

        .align  2
mus_thppme_290_credits_medley:
        .byte   10                      @ Num Tracks
        .byte   0                       @ Unknown
        .byte   mus_thppme_290_credits_medley_pri @ Priority
        .byte   mus_thppme_290_credits_medley_rev @ Reverb

        .word   mus_thppme_290_credits_medley_grp

        .word   mus_thppme_290_credits_medley_0
        .word   mus_thppme_290_credits_medley_1
        .word   mus_thppme_290_credits_medley_2
        .word   mus_thppme_290_credits_medley_3
        .word   mus_thppme_290_credits_medley_4
        .word   mus_thppme_290_credits_medley_5
        .word   mus_thppme_290_credits_medley_6
        .word   mus_thppme_290_credits_medley_7
        .word   mus_thppme_290_credits_medley_8
        .word   mus_thppme_290_credits_medley_9

        .end
