        .include "MPlayDef.s"

        .equ    mus_thpprf_nobeta_2_grp, voicegroup210
        .equ    mus_thpprf_nobeta_2_pri, 0
        .equ    mus_thpprf_nobeta_2_rev, reverb_set+50
        .equ    mus_thpprf_nobeta_2_key, 0

        .section .rodata
        .global mus_thpprf_nobeta_2
        .align  2

@****************** Track 0 (Midi-Chn.0) ******************@

mus_thpprf_nobeta_2_0:
        .byte   KEYSH , mus_thpprf_nobeta_2_key+0
@ 000   ----------------------------------------
        .byte   TEMPO , 500/2
        .byte           PAN   , c_v+21
        .byte           VOICE , 1
        .byte           VOL   , 94
        .byte   W96
@ 001   ----------------------------------------
        .byte   TEMPO , 250/2
        .byte           TIE   , Bn3 , v112
        .byte           TIE   , Bn2
        .byte   W96
@ 002   ----------------------------------------
mus_thpprf_nobeta_2_0_2:
        .byte   W48
        .byte           EOT   , Bn2
        .byte                   Bn3
        .byte           TIE   , Fs4 , v112
        .byte           TIE   , Fs3
        .byte   W48
        .byte   PEND
@ 003   ----------------------------------------
        .byte   W96
@ 004   ----------------------------------------
mus_thpprf_nobeta_2_0_4:
        .byte           EOT   , Fs3
        .byte                   Fs4
        .byte           TIE   , Cs4 , v112
        .byte           TIE   , Cs3
        .byte   W96
        .byte   PEND
@ 005   ----------------------------------------
        .byte   W96
@ 006   ----------------------------------------
mus_thpprf_nobeta_2_0_6:
        .byte           EOT   , Cs3
        .byte                   Cs4
        .byte           N48   , Dn4 , v112
        .byte           N48   , Dn3
        .byte   W48
        .byte                   En4
        .byte           N48   , En3
        .byte   W48
        .byte   PEND
@ 007   ----------------------------------------
mus_thpprf_nobeta_2_0_7:
        .byte           TIE   , Fs4 , v112
        .byte           TIE   , Fs3
        .byte   W96
        .byte   PEND
@ 008   ----------------------------------------
mus_thpprf_nobeta_2_0_8:
        .byte   W48
        .byte           EOT   , Fs3
        .byte                   Fs4
        .byte           TIE   , Gn4 , v112
        .byte           TIE   , Gn3
        .byte   W48
        .byte   PEND
@ 009   ----------------------------------------
        .byte   W96
@ 010   ----------------------------------------
        .byte           EOT
        .byte           EOT   , Gn4
        .byte           TIE   , Fs4
        .byte           TIE   , Fs3
        .byte   W96
@ 011   ----------------------------------------
mus_thpprf_nobeta_2_0_11:
        .byte   W48
        .byte           EOT   , Fs3
        .byte                   Fs4
        .byte           TIE   , En4 , v112
        .byte           TIE   , En3
        .byte   W48
        .byte   PEND
@ 012   ----------------------------------------
        .byte   W96
@ 013   ----------------------------------------
        .byte           EOT
        .byte           EOT   , En4
        .byte           N48   , Dn4
        .byte           TIE   , Dn3
        .byte   W48
        .byte           N48   , Cs4
        .byte   W48
@ 014   ----------------------------------------
        .byte                   Dn4
        .byte   W48
        .byte           EOT   , Dn3
        .byte           TIE   , An4
        .byte           TIE   , An3
        .byte   W48
@ 015   ----------------------------------------
        .byte   W96
@ 016   ----------------------------------------
        .byte           EOT
        .byte           EOT   , An4
        .byte           TIE   , Cs5
        .byte           TIE   , Cs4
        .byte   W96
@ 017   ----------------------------------------
        .byte   W48
        .byte           EOT
        .byte           EOT   , Cs5
        .byte           N96   , An4
        .byte           N96   , An3
        .byte   W48
@ 018   ----------------------------------------
        .byte   W48
        .byte           N48   , En4
        .byte           N48   , En3
        .byte   W48
@ 019   ----------------------------------------
        .byte   PATT
         .word  mus_thpprf_nobeta_2_0_7
@ 020   ----------------------------------------
        .byte   PATT
         .word  mus_thpprf_nobeta_2_0_11
@ 021   ----------------------------------------
        .byte   W96
@ 022   ----------------------------------------
        .byte           EOT   , En3
        .byte                   En4
        .byte           TIE   , Dn4 , v112
        .byte           TIE   , Dn3
        .byte   W96
@ 023   ----------------------------------------
        .byte   W48
        .byte           EOT
        .byte           EOT   , Dn4
        .byte           TIE   , Cs4
        .byte           TIE   , Cs3
        .byte   W48
@ 024   ----------------------------------------
        .byte   W96
@ 025   ----------------------------------------
        .byte           EOT
        .byte           EOT   , Cs4
        .byte           VOICE , 48
        .byte           TIE   , Bn3
        .byte           TIE   , Bn2
        .byte   W96
@ 026   ----------------------------------------
        .byte   PATT
         .word  mus_thpprf_nobeta_2_0_2
@ 027   ----------------------------------------
        .byte   W96
@ 028   ----------------------------------------
        .byte   PATT
         .word  mus_thpprf_nobeta_2_0_4
@ 029   ----------------------------------------
        .byte   W96
@ 030   ----------------------------------------
        .byte   PATT
         .word  mus_thpprf_nobeta_2_0_6
@ 031   ----------------------------------------
        .byte   PATT
         .word  mus_thpprf_nobeta_2_0_7
@ 032   ----------------------------------------
        .byte   PATT
         .word  mus_thpprf_nobeta_2_0_8
@ 033   ----------------------------------------
        .byte   W96
@ 034   ----------------------------------------
        .byte           EOT   , Gn3
        .byte                   Gn4
        .byte           TIE   , An4 , v112
        .byte           TIE   , An3
        .byte   W96
@ 035   ----------------------------------------
        .byte   W48
        .byte           EOT
        .byte           EOT   , An4
        .byte           TIE   , Fs4
        .byte           TIE   , Fs3
        .byte   W48
@ 036   ----------------------------------------
        .byte   W96
@ 037   ----------------------------------------
        .byte           EOT
        .byte           EOT   , Fs4
        .byte           TIE   , Dn4
        .byte           TIE   , Dn3
        .byte   W96
@ 038   ----------------------------------------
        .byte   W96
@ 039   ----------------------------------------
        .byte           EOT
        .byte           EOT   , Dn4
        .byte           N48
        .byte           N48   , Dn3
        .byte   W48
        .byte                   Cs4
        .byte           N48   , Cs3
        .byte   W48
@ 040   ----------------------------------------
        .byte                   Dn4
        .byte           N48   , Dn3
        .byte   W48
        .byte           N72   , En4
        .byte           N72   , En3
        .byte   W48
@ 041   ----------------------------------------
        .byte   W24
        .byte                   Fs4
        .byte           N72   , Fs3
        .byte   W72
@ 042   ----------------------------------------
        .byte                   Dn4
        .byte           N72   , Dn3
        .byte   W72
        .byte                   Cs4
        .byte           N72   , Cs3
        .byte   W24
@ 043   ----------------------------------------
        .byte   W48
        .byte           TIE   , Bn3
        .byte           TIE   , Bn2
        .byte   W48
@ 044   ----------------------------------------
        .byte   W96
@ 045   ----------------------------------------
        .byte           EOT
        .byte           EOT   , Bn3
        .byte           N96   , An3
        .byte           N96   , An2
        .byte   W96
@ 046   ----------------------------------------
        .byte           N48   , Bn3
        .byte           N48   , Bn2
        .byte   W48
        .byte           TIE   , Cs4
        .byte           TIE   , Cs3
        .byte   W48
@ 047   ----------------------------------------
        .byte   W96
@ 048   ----------------------------------------
        .byte   W96
@ 049   ----------------------------------------
        .byte   W48
        .byte           EOT
        .byte           EOT   , Cs4
        .byte   W48
@ 050   ----------------------------------------
        .byte   TEMPO , 96/2
        .byte   W84
        .byte   TEMPO , 56/2
        .byte   W12
@ 051   ----------------------------------------
        .byte   TEMPO , 260/2
        .byte           VOL   , 100
        .byte           N96   , Bn1 , v117
        .byte           N96   , Fs1 , v108
        .byte   W96
@ 052   ----------------------------------------
mus_thpprf_nobeta_2_0_52:
        .byte           N48   , Bn1 , v117
        .byte           N48   , Fs1 , v108
        .byte   W48
        .byte           N96   , Bn1 , v117
        .byte           N96   , Fs1 , v108
        .byte   W48
        .byte   PEND
@ 053   ----------------------------------------
mus_thpprf_nobeta_2_0_53:
        .byte   W48
        .byte           N48   , Bn1 , v117
        .byte           N48   , Fs1 , v108
        .byte   W48
        .byte   PEND
@ 054   ----------------------------------------
mus_thpprf_nobeta_2_0_54:
        .byte           N96   , Bn1 , v117
        .byte           N96   , Fs1 , v108
        .byte   W96
        .byte   PEND
@ 055   ----------------------------------------
        .byte   PATT
         .word  mus_thpprf_nobeta_2_0_52
@ 056   ----------------------------------------
        .byte   PATT
         .word  mus_thpprf_nobeta_2_0_53
@ 057   ----------------------------------------
        .byte   PATT
         .word  mus_thpprf_nobeta_2_0_54
@ 058   ----------------------------------------
        .byte   PATT
         .word  mus_thpprf_nobeta_2_0_52
@ 059   ----------------------------------------
        .byte   PATT
         .word  mus_thpprf_nobeta_2_0_53
@ 060   ----------------------------------------
        .byte   PATT
         .word  mus_thpprf_nobeta_2_0_54
@ 061   ----------------------------------------
mus_thpprf_nobeta_2_0_61:
        .byte           N48   , Bn1 , v117
        .byte           N48   , Fs1 , v108
        .byte   W48
        .byte                   Bn1 , v117
        .byte           N48   , Fs1 , v108
        .byte   W48
        .byte   PEND
@ 062   ----------------------------------------
        .byte   PATT
         .word  mus_thpprf_nobeta_2_0_61
@ 063   ----------------------------------------
        .byte   W96
@ 064   ----------------------------------------
        .byte   W96
@ 065   ----------------------------------------
        .byte   W96
@ 066   ----------------------------------------
        .byte   W96
@ 067   ----------------------------------------
        .byte   W96
@ 068   ----------------------------------------
        .byte   W96
@ 069   ----------------------------------------
        .byte   W96
@ 070   ----------------------------------------
        .byte   W96
@ 071   ----------------------------------------
        .byte   W96
@ 072   ----------------------------------------
        .byte   W96
@ 073   ----------------------------------------
        .byte   W96
@ 074   ----------------------------------------
mus_thpprf_nobeta_2_0_LOOP:
        .byte   W96
@ 075   ----------------------------------------
        .byte   W96
@ 076   ----------------------------------------
        .byte   W96
@ 077   ----------------------------------------
        .byte   W96
@ 078   ----------------------------------------
        .byte   W96
@ 079   ----------------------------------------
        .byte   W96
@ 080   ----------------------------------------
        .byte   W96
@ 081   ----------------------------------------
        .byte   W96
@ 082   ----------------------------------------
        .byte   W96
@ 083   ----------------------------------------
        .byte   W96
@ 084   ----------------------------------------
        .byte   W96
@ 085   ----------------------------------------
        .byte   W96
@ 086   ----------------------------------------
        .byte   W96
@ 087   ----------------------------------------
        .byte   W96
@ 088   ----------------------------------------
        .byte   W96
@ 089   ----------------------------------------
        .byte   W96
@ 090   ----------------------------------------
        .byte   W96
@ 091   ----------------------------------------
        .byte   W96
@ 092   ----------------------------------------
        .byte   W96
@ 093   ----------------------------------------
        .byte   W96
@ 094   ----------------------------------------
        .byte   W96
@ 095   ----------------------------------------
        .byte   W96
@ 096   ----------------------------------------
        .byte   W96
@ 097   ----------------------------------------
        .byte   W96
@ 098   ----------------------------------------
        .byte   W96
@ 099   ----------------------------------------
        .byte   W96
@ 100   ----------------------------------------
        .byte   W96
@ 101   ----------------------------------------
        .byte   W96
@ 102   ----------------------------------------
        .byte   W96
@ 103   ----------------------------------------
        .byte   W96
@ 104   ----------------------------------------
        .byte   W96
@ 105   ----------------------------------------
        .byte   W96
@ 106   ----------------------------------------
        .byte   W96
@ 107   ----------------------------------------
        .byte   W96
@ 108   ----------------------------------------
        .byte   W96
@ 109   ----------------------------------------
        .byte   W96
@ 110   ----------------------------------------
        .byte   W96
@ 111   ----------------------------------------
        .byte   W96
@ 112   ----------------------------------------
        .byte   W96
@ 113   ----------------------------------------
        .byte   W96
@ 114   ----------------------------------------
        .byte   W96
@ 115   ----------------------------------------
        .byte   W96
@ 116   ----------------------------------------
        .byte   W96
@ 117   ----------------------------------------
        .byte   W96
@ 118   ----------------------------------------
        .byte   W96
@ 119   ----------------------------------------
        .byte   W96
@ 120   ----------------------------------------
        .byte   W96
@ 121   ----------------------------------------
        .byte   W96
@ 122   ----------------------------------------
        .byte   W96
@ 123   ----------------------------------------
        .byte   W96
@ 124   ----------------------------------------
        .byte   W96
@ 125   ----------------------------------------
        .byte   W96
@ 126   ----------------------------------------
        .byte   W96
@ 127   ----------------------------------------
        .byte   W96
@ 128   ----------------------------------------
        .byte   W96
@ 129   ----------------------------------------
        .byte   W96
@ 130   ----------------------------------------
        .byte   W96
@ 131   ----------------------------------------
        .byte   W96
@ 132   ----------------------------------------
        .byte   W96
@ 133   ----------------------------------------
        .byte   W96
@ 134   ----------------------------------------
        .byte   W48
        .byte           VOICE , 1
        .byte           N24   , Dn4 , v112
        .byte           N24   , Dn3
        .byte   W24
        .byte                   En4
        .byte           N24   , En3
        .byte   W24
@ 135   ----------------------------------------
        .byte           N96   , Fs4
        .byte           N96   , Fs3
        .byte   W96
@ 136   ----------------------------------------
        .byte           N48   , Gn4
        .byte           N48   , Gn3
        .byte   W48
        .byte           N96   , En4
        .byte           N96   , En3
        .byte   W48
@ 137   ----------------------------------------
        .byte   W96
@ 138   ----------------------------------------
mus_thpprf_nobeta_2_0_138:
        .byte           N96   , En4 , v112
        .byte           N96   , En3
        .byte   W96
        .byte   PEND
@ 139   ----------------------------------------
        .byte           N48   , Fs4
        .byte           N48   , Fs3
        .byte   W48
        .byte                   Dn4
        .byte           N48   , Dn3
        .byte   W48
@ 140   ----------------------------------------
        .byte   W48
        .byte           VOICE , 73
        .byte           VOL   , 106
        .byte           N24   , Cs3
        .byte   W24
        .byte                   Dn3
        .byte   W24
@ 141   ----------------------------------------
        .byte           N96   , An3
        .byte   W96
@ 142   ----------------------------------------
        .byte           N48   , Fs3
        .byte   W48
        .byte           TIE   , Gs3
        .byte   W48
@ 143   ----------------------------------------
        .byte   W96
@ 144   ----------------------------------------
        .byte           EOT
        .byte           N96   , Gn3
        .byte   W96
@ 145   ----------------------------------------
        .byte           N24   , Fs3
        .byte   W24
        .byte                   En3
        .byte   W24
        .byte           TIE   , Fs3
        .byte   W48
@ 146   ----------------------------------------
        .byte   W96
@ 147   ----------------------------------------
        .byte           EOT
        .byte           VOICE , 5
        .byte           VOL   , 94
        .byte           N96   , Fs2
        .byte   W96
@ 148   ----------------------------------------
        .byte           N48   , Gn2
        .byte   W48
        .byte           TIE   , En2
        .byte   W48
@ 149   ----------------------------------------
        .byte   W92
        .byte   W01
        .byte           EOT
        .byte   W03
@ 150   ----------------------------------------
        .byte           N96
        .byte   W96
@ 151   ----------------------------------------
        .byte           N48   , Fs2
        .byte   W48
        .byte           N96   , Dn2
        .byte   W48
@ 152   ----------------------------------------
        .byte   W48
        .byte           N24   , Cs2
        .byte   W24
        .byte                   Dn2
        .byte   W24
@ 153   ----------------------------------------
        .byte           N96   , An2
        .byte   W96
@ 154   ----------------------------------------
        .byte           N48   , Bn2
        .byte   W48
        .byte           N92   , Gn2
        .byte   W48
@ 155   ----------------------------------------
        .byte   W48
        .byte           N48
        .byte   W48
@ 156   ----------------------------------------
        .byte           N96   , Dn3
        .byte   W96
@ 157   ----------------------------------------
        .byte           N48   , En3
        .byte   W48
        .byte           TIE   , Cs3
        .byte   W48
@ 158   ----------------------------------------
        .byte   W96
@ 159   ----------------------------------------
        .byte           EOT
        .byte           VOICE , 3
        .byte           VOL   , 114
        .byte           TIE   , Dn0
        .byte   W96
@ 160   ----------------------------------------
        .byte   W96
@ 161   ----------------------------------------
        .byte   W96
@ 162   ----------------------------------------
mus_thpprf_nobeta_2_0_162:
        .byte           EOT   , Dn0
        .byte           TIE   , En0 , v112
        .byte   W96
        .byte   PEND
@ 163   ----------------------------------------
mus_thpprf_nobeta_2_0_163:
        .byte   W48
        .byte           EOT   , En0
        .byte           N96   , Fs0 , v112
        .byte   W48
        .byte   PEND
@ 164   ----------------------------------------
mus_thpprf_nobeta_2_0_164:
        .byte   W48
        .byte           N48   , Dn0 , v112
        .byte   W48
        .byte   PEND
@ 165   ----------------------------------------
        .byte           TIE   , An0
        .byte   W96
@ 166   ----------------------------------------
mus_thpprf_nobeta_2_0_166:
        .byte   W48
        .byte           EOT   , An0
        .byte           TIE   , Fs0 , v112
        .byte   W48
        .byte   PEND
@ 167   ----------------------------------------
        .byte   W96
@ 168   ----------------------------------------
mus_thpprf_nobeta_2_0_168:
        .byte           EOT   , Fs0
        .byte           TIE   , En0 , v112
        .byte   W96
        .byte   PEND
@ 169   ----------------------------------------
        .byte   PATT
         .word  mus_thpprf_nobeta_2_0_163
@ 170   ----------------------------------------
mus_thpprf_nobeta_2_0_170:
        .byte   W48
        .byte           N48   , En0 , v112
        .byte   W48
        .byte   PEND
@ 171   ----------------------------------------
        .byte           TIE   , Dn0
        .byte   W96
@ 172   ----------------------------------------
        .byte   W96
@ 173   ----------------------------------------
        .byte   W96
@ 174   ----------------------------------------
        .byte   PATT
         .word  mus_thpprf_nobeta_2_0_162
@ 175   ----------------------------------------
mus_thpprf_nobeta_2_0_175:
        .byte   W48
        .byte           EOT   , En0
        .byte           TIE   , Fs0 , v112
        .byte   W48
        .byte   PEND
@ 176   ----------------------------------------
        .byte   W96
@ 177   ----------------------------------------
mus_thpprf_nobeta_2_0_177:
        .byte           EOT   , Fs0
        .byte           TIE   , An0 , v112
        .byte   W96
        .byte   PEND
@ 178   ----------------------------------------
mus_thpprf_nobeta_2_0_178:
        .byte   W48
        .byte           EOT   , An0
        .byte           TIE   , Gn0 , v112
        .byte   W48
        .byte   PEND
@ 179   ----------------------------------------
        .byte   W96
@ 180   ----------------------------------------
mus_thpprf_nobeta_2_0_180:
        .byte           EOT   , Gn0
        .byte           TIE   , An0 , v112
        .byte   W96
        .byte   PEND
@ 181   ----------------------------------------
mus_thpprf_nobeta_2_0_181:
        .byte   W48
        .byte           EOT   , An0
        .byte           TIE   , Bn0 , v112
        .byte   W48
        .byte   PEND
@ 182   ----------------------------------------
        .byte   W96
@ 183   ----------------------------------------
        .byte           EOT
        .byte           VOICE , 48
        .byte   W96
@ 184   ----------------------------------------
        .byte   W96
@ 185   ----------------------------------------
        .byte   W96
@ 186   ----------------------------------------
        .byte           VOL   , 100
        .byte           N96   , Bn1 , v117
        .byte           N96   , Fs1 , v108
        .byte   W96
@ 187   ----------------------------------------
        .byte   PATT
         .word  mus_thpprf_nobeta_2_0_52
@ 188   ----------------------------------------
        .byte   PATT
         .word  mus_thpprf_nobeta_2_0_53
@ 189   ----------------------------------------
        .byte   PATT
         .word  mus_thpprf_nobeta_2_0_54
@ 190   ----------------------------------------
        .byte   PATT
         .word  mus_thpprf_nobeta_2_0_52
@ 191   ----------------------------------------
        .byte   PATT
         .word  mus_thpprf_nobeta_2_0_53
@ 192   ----------------------------------------
        .byte   PATT
         .word  mus_thpprf_nobeta_2_0_54
@ 193   ----------------------------------------
        .byte   PATT
         .word  mus_thpprf_nobeta_2_0_61
@ 194   ----------------------------------------
        .byte   PATT
         .word  mus_thpprf_nobeta_2_0_61
@ 195   ----------------------------------------
        .byte   PATT
         .word  mus_thpprf_nobeta_2_0_54
@ 196   ----------------------------------------
        .byte   PATT
         .word  mus_thpprf_nobeta_2_0_52
@ 197   ----------------------------------------
        .byte   PATT
         .word  mus_thpprf_nobeta_2_0_53
@ 198   ----------------------------------------
        .byte   PATT
         .word  mus_thpprf_nobeta_2_0_54
@ 199   ----------------------------------------
        .byte   PATT
         .word  mus_thpprf_nobeta_2_0_52
@ 200   ----------------------------------------
        .byte   PATT
         .word  mus_thpprf_nobeta_2_0_53
@ 201   ----------------------------------------
        .byte   PATT
         .word  mus_thpprf_nobeta_2_0_54
@ 202   ----------------------------------------
        .byte   PATT
         .word  mus_thpprf_nobeta_2_0_52
@ 203   ----------------------------------------
        .byte   PATT
         .word  mus_thpprf_nobeta_2_0_53
@ 204   ----------------------------------------
        .byte   PATT
         .word  mus_thpprf_nobeta_2_0_54
@ 205   ----------------------------------------
        .byte   PATT
         .word  mus_thpprf_nobeta_2_0_61
@ 206   ----------------------------------------
        .byte   PATT
         .word  mus_thpprf_nobeta_2_0_61
@ 207   ----------------------------------------
        .byte   W96
@ 208   ----------------------------------------
        .byte   W96
@ 209   ----------------------------------------
        .byte   W96
@ 210   ----------------------------------------
        .byte   W96
@ 211   ----------------------------------------
        .byte   W96
@ 212   ----------------------------------------
        .byte   W96
@ 213   ----------------------------------------
        .byte   W96
@ 214   ----------------------------------------
        .byte   W96
@ 215   ----------------------------------------
        .byte   W96
@ 216   ----------------------------------------
        .byte   W96
@ 217   ----------------------------------------
        .byte   W96
@ 218   ----------------------------------------
        .byte   GOTO
         .word  mus_thpprf_nobeta_2_0_LOOP
        .byte   FINE

@****************** Track 1 (Midi-Chn.1) ******************@

mus_thpprf_nobeta_2_1:
        .byte   KEYSH , mus_thpprf_nobeta_2_key+0
@ 000   ----------------------------------------
        .byte           PAN   , c_v-39
        .byte           VOICE , 7
        .byte           VOL   , 100
        .byte   W96
@ 001   ----------------------------------------
        .byte           TIE   , Bn2 , v112
        .byte   W96
@ 002   ----------------------------------------
        .byte   W48
        .byte           EOT
        .byte           TIE   , Fs3
        .byte   W48
@ 003   ----------------------------------------
        .byte   W96
@ 004   ----------------------------------------
        .byte           EOT
        .byte           TIE   , Cs3
        .byte   W96
@ 005   ----------------------------------------
        .byte   W96
@ 006   ----------------------------------------
        .byte           EOT
        .byte           N48   , Dn3
        .byte   W48
        .byte                   En3
        .byte   W48
@ 007   ----------------------------------------
        .byte           TIE   , Fs3
        .byte   W96
@ 008   ----------------------------------------
        .byte   W48
        .byte           EOT
        .byte           TIE   , Gn3
        .byte   W48
@ 009   ----------------------------------------
        .byte   W96
@ 010   ----------------------------------------
        .byte           EOT
        .byte           TIE   , Fs3
        .byte   W96
@ 011   ----------------------------------------
mus_thpprf_nobeta_2_1_11:
        .byte   W48
        .byte           EOT   , Fs3
        .byte           TIE   , En3 , v112
        .byte   W48
        .byte   PEND
@ 012   ----------------------------------------
        .byte   W96
@ 013   ----------------------------------------
        .byte           EOT
        .byte           N48   , Dn3
        .byte   W48
        .byte                   Cs3
        .byte   W48
@ 014   ----------------------------------------
        .byte                   Dn3
        .byte   W48
        .byte           TIE   , An3
        .byte   W48
@ 015   ----------------------------------------
        .byte   W96
@ 016   ----------------------------------------
        .byte           EOT
        .byte           TIE   , Cs4
        .byte   W96
@ 017   ----------------------------------------
        .byte   W48
        .byte           EOT
        .byte           N96   , An3
        .byte   W48
@ 018   ----------------------------------------
mus_thpprf_nobeta_2_1_18:
        .byte   W48
        .byte           N48   , En3 , v112
        .byte   W48
        .byte   PEND
@ 019   ----------------------------------------
        .byte           TIE   , Fs3
        .byte   W96
@ 020   ----------------------------------------
        .byte   PATT
         .word  mus_thpprf_nobeta_2_1_11
@ 021   ----------------------------------------
        .byte   W96
@ 022   ----------------------------------------
        .byte           EOT   , En3
        .byte           TIE   , Dn3 , v112
        .byte   W96
@ 023   ----------------------------------------
        .byte   W48
        .byte           EOT
        .byte           TIE   , Cs3
        .byte   W48
@ 024   ----------------------------------------
        .byte   W96
@ 025   ----------------------------------------
        .byte           EOT
        .byte           VOICE , 36
        .byte           VOL   , 112
        .byte           TIE   , Bn2
        .byte   W96
@ 026   ----------------------------------------
        .byte   W96
@ 027   ----------------------------------------
        .byte   W96
@ 028   ----------------------------------------
mus_thpprf_nobeta_2_1_28:
        .byte           EOT   , Bn2
        .byte           TIE   , An2 , v112
        .byte   W96
        .byte   PEND
@ 029   ----------------------------------------
        .byte   W96
@ 030   ----------------------------------------
        .byte   W96
@ 031   ----------------------------------------
mus_thpprf_nobeta_2_1_31:
        .byte           EOT   , An2
        .byte           TIE   , Bn2 , v112
        .byte   W96
        .byte   PEND
@ 032   ----------------------------------------
        .byte   W96
@ 033   ----------------------------------------
        .byte   W96
@ 034   ----------------------------------------
        .byte           EOT
        .byte           TIE   , Dn3
        .byte   W96
@ 035   ----------------------------------------
        .byte   W96
@ 036   ----------------------------------------
        .byte   W96
@ 037   ----------------------------------------
        .byte           EOT
        .byte           TIE   , Gs2
        .byte   W96
@ 038   ----------------------------------------
        .byte   W96
@ 039   ----------------------------------------
        .byte   W96
@ 040   ----------------------------------------
        .byte   W96
@ 041   ----------------------------------------
        .byte   W96
@ 042   ----------------------------------------
mus_thpprf_nobeta_2_1_42:
        .byte           EOT   , Gs2
        .byte           TIE   , Gn2 , v112
        .byte   W96
        .byte   PEND
@ 043   ----------------------------------------
mus_thpprf_nobeta_2_1_43:
        .byte   W48
        .byte           EOT   , Gn2
        .byte           TIE   , Fs2 , v112
        .byte   W48
        .byte   PEND
@ 044   ----------------------------------------
        .byte   W96
@ 045   ----------------------------------------
        .byte           EOT
        .byte           TIE   , En2
        .byte   W96
@ 046   ----------------------------------------
        .byte   W48
        .byte           EOT
        .byte           TIE   , Fs2
        .byte   W48
@ 047   ----------------------------------------
        .byte   W96
@ 048   ----------------------------------------
        .byte   W96
@ 049   ----------------------------------------
        .byte   W48
        .byte           EOT
        .byte           TIE   , Bn2
        .byte           TIE   , Bn1
        .byte   W48
@ 050   ----------------------------------------
        .byte   W84
        .byte           EOT
        .byte           EOT   , Bn2
        .byte   W12
@ 051   ----------------------------------------
        .byte   W96
@ 052   ----------------------------------------
        .byte   W96
@ 053   ----------------------------------------
        .byte   W96
@ 054   ----------------------------------------
        .byte   W96
@ 055   ----------------------------------------
        .byte   W96
@ 056   ----------------------------------------
        .byte   W96
@ 057   ----------------------------------------
        .byte   W96
@ 058   ----------------------------------------
        .byte   W96
@ 059   ----------------------------------------
        .byte   W96
@ 060   ----------------------------------------
        .byte   W96
@ 061   ----------------------------------------
        .byte   W96
@ 062   ----------------------------------------
        .byte   W96
@ 063   ----------------------------------------
        .byte           VOICE , 48
        .byte           VOL   , 103
        .byte           N48   , Fs2
        .byte   W48
        .byte                   Bn1
        .byte   W48
@ 064   ----------------------------------------
        .byte           N96   , En2
        .byte   W96
@ 065   ----------------------------------------
mus_thpprf_nobeta_2_1_65:
        .byte           N48   , Dn2 , v112
        .byte   W48
        .byte                   En2
        .byte   W48
        .byte   PEND
@ 066   ----------------------------------------
        .byte           N96   , Fs2
        .byte   W96
@ 067   ----------------------------------------
        .byte                   Bn2
        .byte   W96
@ 068   ----------------------------------------
        .byte                   Dn3
        .byte   W96
@ 069   ----------------------------------------
mus_thpprf_nobeta_2_1_69:
        .byte           N48   , Cs3 , v112
        .byte   W48
        .byte                   Fs2
        .byte   W48
        .byte   PEND
@ 070   ----------------------------------------
        .byte           TIE   , An2
        .byte   W96
@ 071   ----------------------------------------
mus_thpprf_nobeta_2_1_71:
        .byte   W48
        .byte           EOT   , An2
        .byte           N48   , Gs2 , v112
        .byte   W48
        .byte   PEND
@ 072   ----------------------------------------
        .byte           TIE   , Fs2
        .byte   W96
@ 073   ----------------------------------------
        .byte   W96
@ 074   ----------------------------------------
        .byte           EOT
mus_thpprf_nobeta_2_1_LOOP:
        .byte           N48   , Gn2 , v112
        .byte   W48
        .byte                   Bn1
        .byte   W48
@ 075   ----------------------------------------
        .byte           TIE   , En2
        .byte   W96
@ 076   ----------------------------------------
        .byte   W48
        .byte           EOT
        .byte           N48   , Fs2
        .byte   W48
@ 077   ----------------------------------------
        .byte                   En2
        .byte   W48
        .byte           TIE   , Dn2
        .byte   W48
@ 078   ----------------------------------------
        .byte   W96
@ 079   ----------------------------------------
        .byte           EOT
        .byte           N48
        .byte   W48
        .byte                   Cn2
        .byte   W48
@ 080   ----------------------------------------
        .byte                   Dn2
        .byte   W48
        .byte           N96   , En2
        .byte   W48
@ 081   ----------------------------------------
        .byte   W48
        .byte                   Dn2
        .byte   W48
@ 082   ----------------------------------------
        .byte   W48
        .byte                   En2
        .byte   W48
@ 083   ----------------------------------------
        .byte   W48
        .byte           TIE   , Fs2
        .byte   W48
@ 084   ----------------------------------------
        .byte   W96
@ 085   ----------------------------------------
        .byte   W96
@ 086   ----------------------------------------
        .byte   W96
@ 087   ----------------------------------------
        .byte           EOT
        .byte           VOICE , 4
        .byte           VOL   , 94
        .byte           N48   , Fs3
        .byte   W48
        .byte                   Bn2
        .byte   W48
@ 088   ----------------------------------------
        .byte           N96   , En3
        .byte   W96
@ 089   ----------------------------------------
        .byte           N48   , Dn3
        .byte   W48
        .byte                   En3
        .byte   W48
@ 090   ----------------------------------------
        .byte           N96   , Fs3
        .byte   W96
@ 091   ----------------------------------------
        .byte                   Bn3
        .byte   W96
@ 092   ----------------------------------------
        .byte                   Dn4
        .byte   W96
@ 093   ----------------------------------------
        .byte           N48   , En4
        .byte   W48
        .byte                   Dn4
        .byte   W48
@ 094   ----------------------------------------
        .byte           TIE   , Cs4
        .byte   W96
@ 095   ----------------------------------------
        .byte   W96
@ 096   ----------------------------------------
        .byte           EOT
        .byte           N48   , Bn3
        .byte   W48
        .byte           TIE   , An3
        .byte   W48
@ 097   ----------------------------------------
        .byte   W96
@ 098   ----------------------------------------
        .byte   W96
@ 099   ----------------------------------------
        .byte           EOT
        .byte           N48   , Bn3
        .byte   W48
        .byte                   An3
        .byte   W48
@ 100   ----------------------------------------
        .byte           N96   , Bn3
        .byte   W96
@ 101   ----------------------------------------
        .byte           N48   , Cs4
        .byte   W48
        .byte                   Dn4
        .byte   W48
@ 102   ----------------------------------------
        .byte           N96   , En4
        .byte   W96
@ 103   ----------------------------------------
        .byte                   Cs4
        .byte   W96
@ 104   ----------------------------------------
        .byte           N48   , An3
        .byte   W48
        .byte                   En4
        .byte   W48
@ 105   ----------------------------------------
        .byte                   Fs4
        .byte   W48
        .byte                   En4
        .byte   W48
@ 106   ----------------------------------------
        .byte           N96   , Fs4
        .byte   W96
@ 107   ----------------------------------------
        .byte                   Dn4
        .byte   W96
@ 108   ----------------------------------------
        .byte           TIE   , An4
        .byte   W96
@ 109   ----------------------------------------
        .byte   W96
@ 110   ----------------------------------------
        .byte   W48
        .byte           EOT
        .byte   W48
@ 111   ----------------------------------------
        .byte           VOICE , 36
        .byte           VOL   , 109
        .byte           N09   , Dn2
        .byte   W12
        .byte                   Dn2
        .byte   W12
        .byte                   Dn2
        .byte   W12
        .byte                   Dn2
        .byte   W12
        .byte                   Dn2
        .byte   W12
        .byte                   Dn2
        .byte   W12
        .byte                   Dn2
        .byte   W12
        .byte                   Dn2
        .byte   W12
@ 112   ----------------------------------------
mus_thpprf_nobeta_2_1_112:
        .byte           N09   , Dn2 , v112
        .byte   W12
        .byte                   Dn2
        .byte   W12
        .byte                   Dn2
        .byte   W12
        .byte                   Dn2
        .byte   W12
        .byte                   Dn2
        .byte   W12
        .byte                   Dn2
        .byte   W12
        .byte                   Dn2
        .byte   W12
        .byte                   Dn2
        .byte   W12
        .byte   PEND
@ 113   ----------------------------------------
        .byte   PATT
         .word  mus_thpprf_nobeta_2_1_112
@ 114   ----------------------------------------
mus_thpprf_nobeta_2_1_114:
        .byte           N09   , En2 , v112
        .byte   W12
        .byte                   En2
        .byte   W12
        .byte                   En2
        .byte   W12
        .byte                   En2
        .byte   W12
        .byte                   En2
        .byte   W12
        .byte                   En2
        .byte   W12
        .byte                   En2
        .byte   W12
        .byte                   En2
        .byte   W12
        .byte   PEND
@ 115   ----------------------------------------
mus_thpprf_nobeta_2_1_115:
        .byte           N09   , En2 , v112
        .byte   W12
        .byte                   En2
        .byte   W12
        .byte                   En2
        .byte   W12
        .byte                   En2
        .byte   W12
        .byte                   Fs2
        .byte   W12
        .byte                   Fs2
        .byte   W12
        .byte                   Fs2
        .byte   W12
        .byte                   Fs2
        .byte   W12
        .byte   PEND
@ 116   ----------------------------------------
mus_thpprf_nobeta_2_1_116:
        .byte           N09   , Fs2 , v112
        .byte   W12
        .byte                   Fs2
        .byte   W12
        .byte                   Fs2
        .byte   W12
        .byte                   Fs2
        .byte   W12
        .byte                   Dn2
        .byte   W12
        .byte                   Dn2
        .byte   W12
        .byte                   Dn2
        .byte   W12
        .byte                   Dn2
        .byte   W12
        .byte   PEND
@ 117   ----------------------------------------
mus_thpprf_nobeta_2_1_117:
        .byte           N09   , An2 , v112
        .byte   W12
        .byte                   An2
        .byte   W12
        .byte                   An2
        .byte   W12
        .byte                   An2
        .byte   W12
        .byte                   An2
        .byte   W12
        .byte                   An2
        .byte   W12
        .byte                   An2
        .byte   W12
        .byte                   An2
        .byte   W12
        .byte   PEND
@ 118   ----------------------------------------
mus_thpprf_nobeta_2_1_118:
        .byte           N09   , An2 , v112
        .byte   W12
        .byte                   An2
        .byte   W12
        .byte                   An2
        .byte   W12
        .byte                   An2
        .byte   W12
        .byte                   Fs2
        .byte   W12
        .byte                   Fs2
        .byte   W12
        .byte                   Fs2
        .byte   W12
        .byte                   Fs2
        .byte   W12
        .byte   PEND
@ 119   ----------------------------------------
mus_thpprf_nobeta_2_1_119:
        .byte           N09   , Fs2 , v112
        .byte   W12
        .byte                   Fs2
        .byte   W12
        .byte                   Fs2
        .byte   W12
        .byte                   Fs2
        .byte   W12
        .byte                   Fs2
        .byte   W12
        .byte                   Fs2
        .byte   W12
        .byte                   Fs2
        .byte   W12
        .byte                   Fs2
        .byte   W12
        .byte   PEND
@ 120   ----------------------------------------
        .byte   PATT
         .word  mus_thpprf_nobeta_2_1_114
@ 121   ----------------------------------------
        .byte   PATT
         .word  mus_thpprf_nobeta_2_1_115
@ 122   ----------------------------------------
mus_thpprf_nobeta_2_1_122:
        .byte           N09   , Fs2 , v112
        .byte   W12
        .byte                   Fs2
        .byte   W12
        .byte                   Fs2
        .byte   W12
        .byte                   Fs2
        .byte   W12
        .byte                   En2
        .byte   W12
        .byte                   En2
        .byte   W12
        .byte                   En2
        .byte   W12
        .byte                   En2
        .byte   W12
        .byte   PEND
@ 123   ----------------------------------------
        .byte   PATT
         .word  mus_thpprf_nobeta_2_1_112
@ 124   ----------------------------------------
        .byte   PATT
         .word  mus_thpprf_nobeta_2_1_112
@ 125   ----------------------------------------
        .byte   PATT
         .word  mus_thpprf_nobeta_2_1_112
@ 126   ----------------------------------------
        .byte   PATT
         .word  mus_thpprf_nobeta_2_1_114
@ 127   ----------------------------------------
        .byte   PATT
         .word  mus_thpprf_nobeta_2_1_115
@ 128   ----------------------------------------
        .byte   PATT
         .word  mus_thpprf_nobeta_2_1_119
@ 129   ----------------------------------------
        .byte   PATT
         .word  mus_thpprf_nobeta_2_1_117
@ 130   ----------------------------------------
mus_thpprf_nobeta_2_1_130:
        .byte           N09   , An2 , v112
        .byte   W12
        .byte                   An2
        .byte   W12
        .byte                   An2
        .byte   W12
        .byte                   An2
        .byte   W12
        .byte                   Gn2
        .byte   W12
        .byte                   Gn2
        .byte   W12
        .byte                   Gn2
        .byte   W12
        .byte                   Gn2
        .byte   W12
        .byte   PEND
@ 131   ----------------------------------------
mus_thpprf_nobeta_2_1_131:
        .byte           N09   , Gn2 , v112
        .byte   W12
        .byte                   Gn2
        .byte   W12
        .byte                   Gn2
        .byte   W12
        .byte                   Gn2
        .byte   W12
        .byte                   Gn2
        .byte   W12
        .byte                   Gn2
        .byte   W12
        .byte                   Gn2
        .byte   W12
        .byte                   Gn2
        .byte   W12
        .byte   PEND
@ 132   ----------------------------------------
        .byte   PATT
         .word  mus_thpprf_nobeta_2_1_117
@ 133   ----------------------------------------
mus_thpprf_nobeta_2_1_133:
        .byte           N09   , An2 , v112
        .byte   W12
        .byte                   An2
        .byte   W12
        .byte                   An2
        .byte   W12
        .byte                   An2
        .byte   W12
        .byte                   Bn2
        .byte   W12
        .byte                   Bn2
        .byte   W12
        .byte                   Bn2
        .byte   W12
        .byte                   Bn2
        .byte   W12
        .byte   PEND
@ 134   ----------------------------------------
mus_thpprf_nobeta_2_1_134:
        .byte           N09   , Bn2 , v112
        .byte   W12
        .byte                   Bn2
        .byte   W12
        .byte                   Bn2
        .byte   W12
        .byte                   Bn2
        .byte   W12
        .byte                   Bn2
        .byte   W12
        .byte                   Bn2
        .byte   W12
        .byte                   Bn2
        .byte   W12
        .byte                   Bn2
        .byte   W12
        .byte   PEND
@ 135   ----------------------------------------
        .byte   W96
@ 136   ----------------------------------------
        .byte   W96
@ 137   ----------------------------------------
        .byte   W96
@ 138   ----------------------------------------
        .byte   W96
@ 139   ----------------------------------------
        .byte   W96
@ 140   ----------------------------------------
        .byte   W96
@ 141   ----------------------------------------
        .byte   W96
@ 142   ----------------------------------------
        .byte   W96
@ 143   ----------------------------------------
        .byte   W96
@ 144   ----------------------------------------
        .byte   W96
@ 145   ----------------------------------------
        .byte   W96
@ 146   ----------------------------------------
        .byte   W96
@ 147   ----------------------------------------
        .byte           VOICE , 4
        .byte           VOL   , 94
        .byte           N96   , Fs3
        .byte   W96
@ 148   ----------------------------------------
        .byte           N48   , Gn3
        .byte   W48
        .byte           TIE   , En3
        .byte   W48
@ 149   ----------------------------------------
        .byte   W92
        .byte   W01
        .byte           EOT
        .byte   W03
@ 150   ----------------------------------------
        .byte           N96
        .byte   W96
@ 151   ----------------------------------------
        .byte           N48   , Fs3
        .byte   W48
        .byte           N96   , Dn3
        .byte   W48
@ 152   ----------------------------------------
        .byte   W48
        .byte           N24   , Cs3
        .byte   W24
        .byte                   Dn3
        .byte   W24
@ 153   ----------------------------------------
        .byte           N96   , An3
        .byte   W96
@ 154   ----------------------------------------
        .byte           N48   , Bn3
        .byte   W48
        .byte           N92   , Gn3
        .byte   W48
@ 155   ----------------------------------------
        .byte   W48
        .byte           N48
        .byte   W48
@ 156   ----------------------------------------
        .byte           N96   , Dn4
        .byte   W96
@ 157   ----------------------------------------
        .byte           N48   , En4
        .byte   W48
        .byte           TIE   , Cs4
        .byte   W48
@ 158   ----------------------------------------
        .byte   W96
@ 159   ----------------------------------------
        .byte           EOT
        .byte           VOICE , 36
        .byte           VOL   , 109
        .byte           N09   , Dn2
        .byte   W12
        .byte                   Dn2
        .byte   W12
        .byte                   Dn2
        .byte   W12
        .byte                   Dn2
        .byte   W12
        .byte                   Dn2
        .byte   W12
        .byte                   Dn2
        .byte   W12
        .byte                   Dn2
        .byte   W12
        .byte                   Dn2
        .byte   W12
@ 160   ----------------------------------------
        .byte   PATT
         .word  mus_thpprf_nobeta_2_1_112
@ 161   ----------------------------------------
        .byte   PATT
         .word  mus_thpprf_nobeta_2_1_112
@ 162   ----------------------------------------
        .byte   PATT
         .word  mus_thpprf_nobeta_2_1_114
@ 163   ----------------------------------------
        .byte   PATT
         .word  mus_thpprf_nobeta_2_1_115
@ 164   ----------------------------------------
        .byte   PATT
         .word  mus_thpprf_nobeta_2_1_116
@ 165   ----------------------------------------
        .byte   PATT
         .word  mus_thpprf_nobeta_2_1_117
@ 166   ----------------------------------------
        .byte   PATT
         .word  mus_thpprf_nobeta_2_1_118
@ 167   ----------------------------------------
        .byte   PATT
         .word  mus_thpprf_nobeta_2_1_119
@ 168   ----------------------------------------
        .byte   PATT
         .word  mus_thpprf_nobeta_2_1_114
@ 169   ----------------------------------------
        .byte   PATT
         .word  mus_thpprf_nobeta_2_1_115
@ 170   ----------------------------------------
        .byte   PATT
         .word  mus_thpprf_nobeta_2_1_122
@ 171   ----------------------------------------
        .byte   PATT
         .word  mus_thpprf_nobeta_2_1_112
@ 172   ----------------------------------------
        .byte   PATT
         .word  mus_thpprf_nobeta_2_1_112
@ 173   ----------------------------------------
        .byte   PATT
         .word  mus_thpprf_nobeta_2_1_112
@ 174   ----------------------------------------
        .byte   PATT
         .word  mus_thpprf_nobeta_2_1_114
@ 175   ----------------------------------------
        .byte   PATT
         .word  mus_thpprf_nobeta_2_1_115
@ 176   ----------------------------------------
        .byte   PATT
         .word  mus_thpprf_nobeta_2_1_119
@ 177   ----------------------------------------
        .byte   PATT
         .word  mus_thpprf_nobeta_2_1_117
@ 178   ----------------------------------------
        .byte   PATT
         .word  mus_thpprf_nobeta_2_1_130
@ 179   ----------------------------------------
        .byte   PATT
         .word  mus_thpprf_nobeta_2_1_131
@ 180   ----------------------------------------
        .byte   PATT
         .word  mus_thpprf_nobeta_2_1_117
@ 181   ----------------------------------------
        .byte   PATT
         .word  mus_thpprf_nobeta_2_1_133
@ 182   ----------------------------------------
        .byte   PATT
         .word  mus_thpprf_nobeta_2_1_134
@ 183   ----------------------------------------
        .byte   W96
@ 184   ----------------------------------------
        .byte   W96
@ 185   ----------------------------------------
        .byte   W96
@ 186   ----------------------------------------
        .byte   W96
@ 187   ----------------------------------------
        .byte   W96
@ 188   ----------------------------------------
        .byte   W96
@ 189   ----------------------------------------
        .byte   W96
@ 190   ----------------------------------------
        .byte   W96
@ 191   ----------------------------------------
        .byte   W96
@ 192   ----------------------------------------
        .byte   W96
@ 193   ----------------------------------------
        .byte   W96
@ 194   ----------------------------------------
        .byte   W96
@ 195   ----------------------------------------
        .byte           VOICE , 48
        .byte           VOL   , 97
        .byte   W96
@ 196   ----------------------------------------
        .byte   W96
@ 197   ----------------------------------------
        .byte   W96
@ 198   ----------------------------------------
        .byte   W96
@ 199   ----------------------------------------
        .byte   W96
@ 200   ----------------------------------------
        .byte   W96
@ 201   ----------------------------------------
        .byte   W96
@ 202   ----------------------------------------
        .byte   W96
@ 203   ----------------------------------------
        .byte   W96
@ 204   ----------------------------------------
        .byte   W96
@ 205   ----------------------------------------
        .byte   W96
@ 206   ----------------------------------------
        .byte   W96
@ 207   ----------------------------------------
        .byte                   103
        .byte           N48   , Fs2 , v112
        .byte   W48
        .byte                   Bn1
        .byte   W48
@ 208   ----------------------------------------
        .byte           N96   , En2
        .byte   W96
@ 209   ----------------------------------------
        .byte   PATT
         .word  mus_thpprf_nobeta_2_1_65
@ 210   ----------------------------------------
        .byte           N96   , Fs2 , v112
        .byte   W96
@ 211   ----------------------------------------
        .byte                   Bn2
        .byte   W96
@ 212   ----------------------------------------
        .byte                   Dn3
        .byte   W96
@ 213   ----------------------------------------
        .byte   PATT
         .word  mus_thpprf_nobeta_2_1_69
@ 214   ----------------------------------------
        .byte           TIE   , An2 , v112
        .byte   W96
@ 215   ----------------------------------------
        .byte   PATT
         .word  mus_thpprf_nobeta_2_1_71
@ 216   ----------------------------------------
        .byte           TIE   , Fs2 , v112
        .byte   W96
@ 217   ----------------------------------------
        .byte   W96
@ 218   ----------------------------------------
        .byte           EOT
        .byte   GOTO
         .word  mus_thpprf_nobeta_2_1_LOOP
        .byte   FINE

@****************** Track 2 (Midi-Chn.2) ******************@

mus_thpprf_nobeta_2_2:
        .byte   KEYSH , mus_thpprf_nobeta_2_key+0
@ 000   ----------------------------------------
        .byte           PAN   , c_v-20
        .byte           VOICE , 48
        .byte           VOL   , 112
        .byte   W96
@ 001   ----------------------------------------
        .byte   W96
@ 002   ----------------------------------------
        .byte   W96
@ 003   ----------------------------------------
        .byte   W96
@ 004   ----------------------------------------
        .byte   W96
@ 005   ----------------------------------------
        .byte   W96
@ 006   ----------------------------------------
        .byte   W96
@ 007   ----------------------------------------
        .byte   W96
@ 008   ----------------------------------------
        .byte   W96
@ 009   ----------------------------------------
        .byte   W96
@ 010   ----------------------------------------
        .byte   W96
@ 011   ----------------------------------------
        .byte   W96
@ 012   ----------------------------------------
        .byte   W96
@ 013   ----------------------------------------
        .byte   W96
@ 014   ----------------------------------------
        .byte   W96
@ 015   ----------------------------------------
        .byte   W96
@ 016   ----------------------------------------
        .byte   W96
@ 017   ----------------------------------------
        .byte   W96
@ 018   ----------------------------------------
        .byte   W96
@ 019   ----------------------------------------
        .byte   W96
@ 020   ----------------------------------------
        .byte   W96
@ 021   ----------------------------------------
        .byte   W96
@ 022   ----------------------------------------
        .byte   W96
@ 023   ----------------------------------------
        .byte   W96
@ 024   ----------------------------------------
        .byte   W96
@ 025   ----------------------------------------
        .byte   W96
@ 026   ----------------------------------------
        .byte   W96
@ 027   ----------------------------------------
        .byte   W96
@ 028   ----------------------------------------
        .byte   W96
@ 029   ----------------------------------------
        .byte   W96
@ 030   ----------------------------------------
        .byte   W96
@ 031   ----------------------------------------
        .byte   W96
@ 032   ----------------------------------------
        .byte   W96
@ 033   ----------------------------------------
        .byte   W96
@ 034   ----------------------------------------
        .byte   W96
@ 035   ----------------------------------------
        .byte   W96
@ 036   ----------------------------------------
        .byte   W96
@ 037   ----------------------------------------
        .byte   W96
@ 038   ----------------------------------------
        .byte   W96
@ 039   ----------------------------------------
        .byte   W96
@ 040   ----------------------------------------
        .byte   W96
@ 041   ----------------------------------------
        .byte   W96
@ 042   ----------------------------------------
        .byte   W96
@ 043   ----------------------------------------
        .byte   W96
@ 044   ----------------------------------------
        .byte   W96
@ 045   ----------------------------------------
        .byte   W96
@ 046   ----------------------------------------
        .byte   W96
@ 047   ----------------------------------------
        .byte   W96
@ 048   ----------------------------------------
        .byte   W96
@ 049   ----------------------------------------
        .byte   W96
@ 050   ----------------------------------------
        .byte   W96
@ 051   ----------------------------------------
        .byte   W96
@ 052   ----------------------------------------
        .byte   W96
@ 053   ----------------------------------------
        .byte   W96
@ 054   ----------------------------------------
        .byte   W96
@ 055   ----------------------------------------
        .byte   W96
@ 056   ----------------------------------------
        .byte   W96
@ 057   ----------------------------------------
        .byte   W96
@ 058   ----------------------------------------
        .byte   W96
@ 059   ----------------------------------------
        .byte   W96
@ 060   ----------------------------------------
        .byte   W96
@ 061   ----------------------------------------
        .byte   W96
@ 062   ----------------------------------------
        .byte   W96
@ 063   ----------------------------------------
        .byte   W96
@ 064   ----------------------------------------
        .byte   W96
@ 065   ----------------------------------------
        .byte   W96
@ 066   ----------------------------------------
        .byte   W96
@ 067   ----------------------------------------
        .byte   W96
@ 068   ----------------------------------------
        .byte   W96
@ 069   ----------------------------------------
        .byte   W96
@ 070   ----------------------------------------
        .byte   W96
@ 071   ----------------------------------------
        .byte   W96
@ 072   ----------------------------------------
        .byte   W96
@ 073   ----------------------------------------
        .byte   W96
@ 074   ----------------------------------------
mus_thpprf_nobeta_2_2_LOOP:
        .byte   W96
@ 075   ----------------------------------------
        .byte   W96
@ 076   ----------------------------------------
        .byte   W96
@ 077   ----------------------------------------
        .byte   W96
@ 078   ----------------------------------------
        .byte   W96
@ 079   ----------------------------------------
        .byte   W96
@ 080   ----------------------------------------
        .byte   W96
@ 081   ----------------------------------------
        .byte   W96
@ 082   ----------------------------------------
        .byte   W96
@ 083   ----------------------------------------
        .byte   W96
@ 084   ----------------------------------------
        .byte   W96
@ 085   ----------------------------------------
        .byte   W96
@ 086   ----------------------------------------
        .byte   W96
@ 087   ----------------------------------------
        .byte   W96
@ 088   ----------------------------------------
        .byte   W96
@ 089   ----------------------------------------
        .byte   W96
@ 090   ----------------------------------------
        .byte   W96
@ 091   ----------------------------------------
        .byte   W96
@ 092   ----------------------------------------
        .byte   W96
@ 093   ----------------------------------------
        .byte   W96
@ 094   ----------------------------------------
        .byte   W96
@ 095   ----------------------------------------
        .byte   W96
@ 096   ----------------------------------------
        .byte   W96
@ 097   ----------------------------------------
        .byte   W96
@ 098   ----------------------------------------
        .byte   W96
@ 099   ----------------------------------------
        .byte   W96
@ 100   ----------------------------------------
        .byte   W96
@ 101   ----------------------------------------
        .byte   W96
@ 102   ----------------------------------------
        .byte   W96
@ 103   ----------------------------------------
        .byte   W96
@ 104   ----------------------------------------
        .byte   W96
@ 105   ----------------------------------------
        .byte   W96
@ 106   ----------------------------------------
        .byte   W96
@ 107   ----------------------------------------
        .byte   W96
@ 108   ----------------------------------------
        .byte   W96
@ 109   ----------------------------------------
        .byte   W96
@ 110   ----------------------------------------
        .byte           VOL   , 94
        .byte           N48   , Bn3 , v112
        .byte   W48
        .byte                   Cs4
        .byte   W48
@ 111   ----------------------------------------
mus_thpprf_nobeta_2_2_111:
        .byte           N09   , Dn4 , v112
        .byte   W12
        .byte                   Dn4
        .byte   W12
        .byte                   Cs4
        .byte   W12
        .byte                   Cs4
        .byte   W12
        .byte                   Dn4
        .byte   W12
        .byte                   Dn4
        .byte   W12
        .byte                   An4
        .byte   W12
        .byte                   An4
        .byte   W12
        .byte   PEND
@ 112   ----------------------------------------
mus_thpprf_nobeta_2_2_112:
        .byte           N09   , Dn4 , v112
        .byte   W12
        .byte                   Dn4
        .byte   W12
        .byte                   En4
        .byte   W12
        .byte                   En4
        .byte   W12
        .byte                   Fs4
        .byte   W12
        .byte                   Fs4
        .byte   W12
        .byte                   En4
        .byte   W12
        .byte                   En4
        .byte   W12
        .byte   PEND
@ 113   ----------------------------------------
mus_thpprf_nobeta_2_2_113:
        .byte           N09   , Fs4 , v112
        .byte   W12
        .byte                   Fs4
        .byte   W12
        .byte                   Bn4
        .byte   W12
        .byte                   Bn4
        .byte   W12
        .byte                   An4
        .byte   W12
        .byte                   An4
        .byte   W12
        .byte                   Fs4
        .byte   W12
        .byte                   Fs4
        .byte   W12
        .byte   PEND
@ 114   ----------------------------------------
mus_thpprf_nobeta_2_2_114:
        .byte           N09   , En4 , v112
        .byte   W12
        .byte                   En4
        .byte   W12
        .byte                   Dn4
        .byte   W12
        .byte                   Dn4
        .byte   W12
        .byte                   En4
        .byte   W12
        .byte                   En4
        .byte   W12
        .byte                   Cs4
        .byte   W12
        .byte                   Cs4
        .byte   W12
        .byte   PEND
@ 115   ----------------------------------------
mus_thpprf_nobeta_2_2_115:
        .byte           N09   , Gn4 , v112
        .byte   W12
        .byte                   Gn4
        .byte   W12
        .byte                   An4
        .byte   W12
        .byte                   An4
        .byte   W12
        .byte                   Fs4
        .byte   W12
        .byte                   Fs4
        .byte   W12
        .byte                   En4
        .byte   W12
        .byte                   En4
        .byte   W12
        .byte   PEND
@ 116   ----------------------------------------
mus_thpprf_nobeta_2_2_116:
        .byte           N09   , Dn4 , v112
        .byte   W12
        .byte                   Dn4
        .byte   W12
        .byte                   Cs4
        .byte   W12
        .byte                   Cs4
        .byte   W12
        .byte                   Bn3
        .byte   W12
        .byte                   Bn3
        .byte   W12
        .byte                   An3
        .byte   W12
        .byte                   An3
        .byte   W12
        .byte   PEND
@ 117   ----------------------------------------
mus_thpprf_nobeta_2_2_117:
        .byte           N09   , Bn3 , v112
        .byte   W12
        .byte                   Bn3
        .byte   W12
        .byte                   An3
        .byte   W12
        .byte                   An3
        .byte   W12
        .byte                   Bn3
        .byte   W12
        .byte                   Bn3
        .byte   W12
        .byte                   Fs4
        .byte   W12
        .byte                   Fs4
        .byte   W12
        .byte   PEND
@ 118   ----------------------------------------
mus_thpprf_nobeta_2_2_118:
        .byte           N09   , Bn4 , v112
        .byte   W12
        .byte                   Bn4
        .byte   W12
        .byte                   Gn4
        .byte   W12
        .byte                   Gn4
        .byte   W12
        .byte                   Fs4
        .byte   W12
        .byte                   Fs4
        .byte   W12
        .byte                   En4
        .byte   W12
        .byte                   En4
        .byte   W12
        .byte   PEND
@ 119   ----------------------------------------
        .byte                   Dn4
        .byte   W12
        .byte                   Dn4
        .byte   W36
        .byte                   Dn4
        .byte   W12
        .byte                   Dn4
        .byte   W12
        .byte                   En4
        .byte   W12
        .byte                   En4
        .byte   W12
@ 120   ----------------------------------------
mus_thpprf_nobeta_2_2_120:
        .byte           N09   , Cs4 , v112
        .byte   W12
        .byte                   Cs4
        .byte   W12
        .byte                   Cs4
        .byte   W12
        .byte                   Cs4
        .byte   W36
        .byte                   Cs4
        .byte   W12
        .byte                   Cs4
        .byte   W12
        .byte   PEND
@ 121   ----------------------------------------
mus_thpprf_nobeta_2_2_121:
        .byte           N09   , Dn4 , v112
        .byte   W12
        .byte                   Dn4
        .byte   W12
        .byte                   En4
        .byte   W12
        .byte                   En4
        .byte   W12
        .byte                   Fs4
        .byte   W12
        .byte                   Fs4
        .byte   W12
        .byte                   An4
        .byte   W12
        .byte                   An4
        .byte   W12
        .byte   PEND
@ 122   ----------------------------------------
mus_thpprf_nobeta_2_2_122:
        .byte           N09   , Dn4 , v112
        .byte   W12
        .byte                   Dn4
        .byte   W12
        .byte                   Fs4
        .byte   W12
        .byte                   Fs4
        .byte   W12
        .byte                   En4
        .byte   W12
        .byte                   En4
        .byte   W36
        .byte   PEND
@ 123   ----------------------------------------
        .byte   PATT
         .word  mus_thpprf_nobeta_2_2_111
@ 124   ----------------------------------------
        .byte   PATT
         .word  mus_thpprf_nobeta_2_2_112
@ 125   ----------------------------------------
        .byte   PATT
         .word  mus_thpprf_nobeta_2_2_113
@ 126   ----------------------------------------
        .byte   PATT
         .word  mus_thpprf_nobeta_2_2_114
@ 127   ----------------------------------------
        .byte   PATT
         .word  mus_thpprf_nobeta_2_2_115
@ 128   ----------------------------------------
        .byte   PATT
         .word  mus_thpprf_nobeta_2_2_116
@ 129   ----------------------------------------
        .byte           N09   , An4 , v112
        .byte   W12
        .byte                   An4
        .byte   W12
        .byte                   Gs4
        .byte   W12
        .byte                   Gs4
        .byte   W12
        .byte                   An4
        .byte   W12
        .byte                   An4
        .byte   W12
        .byte                   En4
        .byte   W12
        .byte                   En4
        .byte   W12
@ 130   ----------------------------------------
        .byte                   Fs4
        .byte   W12
        .byte                   Fs4
        .byte   W12
        .byte                   An4
        .byte   W12
        .byte                   An4
        .byte   W12
        .byte                   Gn4
        .byte   W12
        .byte                   Gn4
        .byte   W12
        .byte                   En4
        .byte   W12
        .byte                   En4
        .byte   W12
@ 131   ----------------------------------------
        .byte                   Cs4
        .byte   W12
        .byte                   Cs4
        .byte   W12
        .byte                   Cs4
        .byte   W24
        .byte                   Cs4
        .byte   W12
        .byte                   Cs4
        .byte   W12
        .byte                   En4
        .byte   W12
        .byte                   En4
        .byte   W12
@ 132   ----------------------------------------
        .byte                   Fs4
        .byte   W12
        .byte                   Fs4
        .byte   W12
        .byte                   Fs4
        .byte   W12
        .byte                   Fs4
        .byte   W12
        .byte                   En4
        .byte   W12
        .byte                   En4
        .byte   W12
        .byte                   En4
        .byte   W12
        .byte                   En4
        .byte   W12
@ 133   ----------------------------------------
        .byte                   Dn4
        .byte   W12
        .byte                   Dn4
        .byte   W12
        .byte                   Fs4
        .byte   W12
        .byte                   Fs4
        .byte   W12
        .byte                   En4
        .byte   W12
        .byte                   En4
        .byte   W12
        .byte                   En4
        .byte   W12
        .byte                   En4
        .byte   W12
@ 134   ----------------------------------------
        .byte                   En4
        .byte   W12
        .byte                   En4
        .byte   W84
@ 135   ----------------------------------------
        .byte   W96
@ 136   ----------------------------------------
        .byte   W96
@ 137   ----------------------------------------
        .byte   W96
@ 138   ----------------------------------------
        .byte   W96
@ 139   ----------------------------------------
        .byte   W96
@ 140   ----------------------------------------
        .byte   W96
@ 141   ----------------------------------------
        .byte   W96
@ 142   ----------------------------------------
        .byte   W96
@ 143   ----------------------------------------
        .byte   W96
@ 144   ----------------------------------------
        .byte   W96
@ 145   ----------------------------------------
        .byte   W96
@ 146   ----------------------------------------
        .byte   W96
@ 147   ----------------------------------------
        .byte           VOL   , 92
        .byte           N96   , Fs4
        .byte           N96   , Fs3
        .byte   W96
@ 148   ----------------------------------------
        .byte           N48   , Gn4
        .byte           N48   , Gn3
        .byte   W48
        .byte           TIE   , En4
        .byte           TIE   , En3
        .byte   W48
@ 149   ----------------------------------------
        .byte   W92
        .byte   W01
        .byte           EOT
        .byte           EOT   , En4
        .byte   W03
@ 150   ----------------------------------------
        .byte   PATT
         .word  mus_thpprf_nobeta_2_0_138
@ 151   ----------------------------------------
        .byte           N48   , Fs4 , v112
        .byte           N48   , Fs3
        .byte   W48
        .byte           N96   , Dn4
        .byte           N96   , Dn3
        .byte   W48
@ 152   ----------------------------------------
        .byte   W48
        .byte           N24   , Cs4
        .byte           N24   , Cs3
        .byte   W24
        .byte                   Dn4
        .byte           N24   , Dn3
        .byte   W24
@ 153   ----------------------------------------
        .byte           N96   , An4
        .byte           N96   , An3
        .byte   W96
@ 154   ----------------------------------------
        .byte           N48   , Bn4
        .byte           N48   , Bn3
        .byte   W48
        .byte           N92   , Gn4
        .byte           N92   , Gn3
        .byte   W48
@ 155   ----------------------------------------
        .byte   W48
        .byte           N48   , Gn4
        .byte           N48   , Gn3
        .byte   W48
@ 156   ----------------------------------------
        .byte           N96   , Dn5
        .byte           N96   , Dn4
        .byte   W96
@ 157   ----------------------------------------
        .byte           N48   , En5
        .byte           N48   , En4
        .byte   W48
        .byte           TIE   , Cs5
        .byte           TIE   , Cs4
        .byte   W48
@ 158   ----------------------------------------
        .byte   W96
@ 159   ----------------------------------------
        .byte           EOT
        .byte           EOT   , Cs5
        .byte           VOL   , 94
        .byte           N09   , Dn4
        .byte   W12
        .byte                   Dn4
        .byte   W12
        .byte                   Cs4
        .byte   W12
        .byte                   Cs4
        .byte   W12
        .byte                   Dn4
        .byte   W12
        .byte                   Dn4
        .byte   W12
        .byte                   An4
        .byte   W12
        .byte                   An4
        .byte   W12
@ 160   ----------------------------------------
        .byte   PATT
         .word  mus_thpprf_nobeta_2_2_112
@ 161   ----------------------------------------
        .byte   PATT
         .word  mus_thpprf_nobeta_2_2_113
@ 162   ----------------------------------------
        .byte   PATT
         .word  mus_thpprf_nobeta_2_2_114
@ 163   ----------------------------------------
        .byte   PATT
         .word  mus_thpprf_nobeta_2_2_115
@ 164   ----------------------------------------
        .byte   PATT
         .word  mus_thpprf_nobeta_2_2_116
@ 165   ----------------------------------------
        .byte   PATT
         .word  mus_thpprf_nobeta_2_2_117
@ 166   ----------------------------------------
        .byte   PATT
         .word  mus_thpprf_nobeta_2_2_118
@ 167   ----------------------------------------
        .byte           N09   , Dn4 , v112
        .byte   W12
        .byte                   Dn4
        .byte   W12
        .byte                   Dn4
        .byte   W24
        .byte                   Dn4
        .byte   W12
        .byte                   Dn4
        .byte   W12
        .byte                   En4
        .byte   W12
        .byte                   En4
        .byte   W12
@ 168   ----------------------------------------
        .byte   PATT
         .word  mus_thpprf_nobeta_2_2_120
@ 169   ----------------------------------------
        .byte   PATT
         .word  mus_thpprf_nobeta_2_2_121
@ 170   ----------------------------------------
        .byte   PATT
         .word  mus_thpprf_nobeta_2_2_122
@ 171   ----------------------------------------
        .byte   PATT
         .word  mus_thpprf_nobeta_2_2_111
@ 172   ----------------------------------------
        .byte   PATT
         .word  mus_thpprf_nobeta_2_2_112
@ 173   ----------------------------------------
        .byte   PATT
         .word  mus_thpprf_nobeta_2_2_113
@ 174   ----------------------------------------
        .byte   PATT
         .word  mus_thpprf_nobeta_2_2_114
@ 175   ----------------------------------------
        .byte   PATT
         .word  mus_thpprf_nobeta_2_2_115
@ 176   ----------------------------------------
        .byte   PATT
         .word  mus_thpprf_nobeta_2_2_116
@ 177   ----------------------------------------
        .byte           N09   , Dn4 , v112
        .byte   W12
        .byte                   Dn4
        .byte   W12
        .byte                   Dn4
        .byte   W24
        .byte                   An4
        .byte   W12
        .byte                   An4
        .byte   W12
        .byte                   An4
        .byte   W24
@ 178   ----------------------------------------
        .byte                   Dn4
        .byte   W12
        .byte                   Dn4
        .byte   W12
        .byte                   Dn4
        .byte   W72
@ 179   ----------------------------------------
        .byte                   Dn4
        .byte   W12
        .byte                   Dn4
        .byte   W12
        .byte                   Dn4
        .byte   W24
        .byte                   En4
        .byte   W12
        .byte                   En4
        .byte   W12
        .byte                   En4
        .byte   W24
@ 180   ----------------------------------------
        .byte                   Fs4
        .byte   W12
        .byte                   Fs4
        .byte   W12
        .byte                   Fs4
        .byte   W72
@ 181   ----------------------------------------
        .byte   W48
        .byte                   En4
        .byte   W12
        .byte                   En4
        .byte   W12
        .byte                   En4
        .byte   W24
@ 182   ----------------------------------------
        .byte                   Fs4
        .byte   W12
        .byte                   Fs4
        .byte   W12
        .byte                   Fs4
        .byte   W24
        .byte                   En4
        .byte   W12
        .byte                   En4
        .byte   W12
        .byte                   En4
        .byte   W24
@ 183   ----------------------------------------
        .byte           VOL   , 97
        .byte           TIE   , Bn2
        .byte           TIE   , Fs2 , v103
        .byte           TIE   , Bn1 , v112
        .byte           TIE   , Fs1 , v103
        .byte   W96
@ 184   ----------------------------------------
        .byte   W96
@ 185   ----------------------------------------
        .byte   W96
@ 186   ----------------------------------------
        .byte           EOT
        .byte           EOT   , Bn1
        .byte                   Fs2
        .byte                   Bn2
        .byte   W96
@ 187   ----------------------------------------
        .byte   W96
@ 188   ----------------------------------------
        .byte   W96
@ 189   ----------------------------------------
        .byte   W96
@ 190   ----------------------------------------
        .byte   W96
@ 191   ----------------------------------------
        .byte   W96
@ 192   ----------------------------------------
        .byte   W96
@ 193   ----------------------------------------
        .byte   W96
@ 194   ----------------------------------------
        .byte   W96
@ 195   ----------------------------------------
        .byte   W96
@ 196   ----------------------------------------
        .byte   W96
@ 197   ----------------------------------------
        .byte   W96
@ 198   ----------------------------------------
        .byte   W96
@ 199   ----------------------------------------
        .byte   W96
@ 200   ----------------------------------------
        .byte   W96
@ 201   ----------------------------------------
        .byte   W96
@ 202   ----------------------------------------
        .byte   W96
@ 203   ----------------------------------------
        .byte   W96
@ 204   ----------------------------------------
        .byte   W96
@ 205   ----------------------------------------
        .byte   W96
@ 206   ----------------------------------------
        .byte   W96
@ 207   ----------------------------------------
        .byte   W96
@ 208   ----------------------------------------
        .byte   W96
@ 209   ----------------------------------------
        .byte   W96
@ 210   ----------------------------------------
        .byte   W96
@ 211   ----------------------------------------
        .byte   W96
@ 212   ----------------------------------------
        .byte   W96
@ 213   ----------------------------------------
        .byte   W96
@ 214   ----------------------------------------
        .byte   W96
@ 215   ----------------------------------------
        .byte   W96
@ 216   ----------------------------------------
        .byte   W96
@ 217   ----------------------------------------
        .byte   W96
@ 218   ----------------------------------------
        .byte           VOL   , 112
        .byte   GOTO
         .word  mus_thpprf_nobeta_2_2_LOOP
        .byte   FINE

@****************** Track 3 (Midi-Chn.3) ******************@

mus_thpprf_nobeta_2_3:
        .byte   KEYSH , mus_thpprf_nobeta_2_key+0
@ 000   ----------------------------------------
        .byte           PAN   , c_v+24
        .byte           VOICE , 48
        .byte           VOL   , 79
        .byte   W96
@ 001   ----------------------------------------
        .byte   W96
@ 002   ----------------------------------------
        .byte   W96
@ 003   ----------------------------------------
        .byte   W96
@ 004   ----------------------------------------
        .byte   W96
@ 005   ----------------------------------------
        .byte   W96
@ 006   ----------------------------------------
        .byte   W96
@ 007   ----------------------------------------
        .byte   W96
@ 008   ----------------------------------------
        .byte   W96
@ 009   ----------------------------------------
        .byte   W96
@ 010   ----------------------------------------
        .byte   W96
@ 011   ----------------------------------------
        .byte   W96
@ 012   ----------------------------------------
        .byte   W96
@ 013   ----------------------------------------
        .byte   W96
@ 014   ----------------------------------------
        .byte   W96
@ 015   ----------------------------------------
        .byte   W96
@ 016   ----------------------------------------
        .byte   W96
@ 017   ----------------------------------------
        .byte   W96
@ 018   ----------------------------------------
        .byte   W96
@ 019   ----------------------------------------
        .byte   W96
@ 020   ----------------------------------------
        .byte   W96
@ 021   ----------------------------------------
        .byte   W96
@ 022   ----------------------------------------
        .byte   W96
@ 023   ----------------------------------------
        .byte   W96
@ 024   ----------------------------------------
        .byte   W96
@ 025   ----------------------------------------
        .byte   W96
@ 026   ----------------------------------------
        .byte   W96
@ 027   ----------------------------------------
        .byte   W96
@ 028   ----------------------------------------
        .byte   W96
@ 029   ----------------------------------------
        .byte   W96
@ 030   ----------------------------------------
        .byte   W96
@ 031   ----------------------------------------
        .byte   W96
@ 032   ----------------------------------------
        .byte   W96
@ 033   ----------------------------------------
        .byte   W96
@ 034   ----------------------------------------
        .byte   W96
@ 035   ----------------------------------------
        .byte   W96
@ 036   ----------------------------------------
        .byte   W96
@ 037   ----------------------------------------
        .byte   W96
@ 038   ----------------------------------------
        .byte   W96
@ 039   ----------------------------------------
        .byte   W96
@ 040   ----------------------------------------
        .byte   W96
@ 041   ----------------------------------------
        .byte   W96
@ 042   ----------------------------------------
        .byte   W96
@ 043   ----------------------------------------
        .byte   W96
@ 044   ----------------------------------------
        .byte   W96
@ 045   ----------------------------------------
        .byte   W96
@ 046   ----------------------------------------
        .byte   W96
@ 047   ----------------------------------------
        .byte   W96
@ 048   ----------------------------------------
        .byte   W96
@ 049   ----------------------------------------
        .byte   W96
@ 050   ----------------------------------------
        .byte   W96
@ 051   ----------------------------------------
        .byte   W96
@ 052   ----------------------------------------
        .byte   W96
@ 053   ----------------------------------------
        .byte   W96
@ 054   ----------------------------------------
        .byte   W96
@ 055   ----------------------------------------
        .byte   W96
@ 056   ----------------------------------------
        .byte   W96
@ 057   ----------------------------------------
        .byte   W96
@ 058   ----------------------------------------
        .byte   W96
@ 059   ----------------------------------------
        .byte   W96
@ 060   ----------------------------------------
        .byte   W96
@ 061   ----------------------------------------
        .byte   W96
@ 062   ----------------------------------------
        .byte   W96
@ 063   ----------------------------------------
        .byte   W96
@ 064   ----------------------------------------
        .byte   W96
@ 065   ----------------------------------------
        .byte   W96
@ 066   ----------------------------------------
        .byte   W96
@ 067   ----------------------------------------
        .byte   W96
@ 068   ----------------------------------------
        .byte   W96
@ 069   ----------------------------------------
        .byte   W96
@ 070   ----------------------------------------
        .byte   W96
@ 071   ----------------------------------------
        .byte   W96
@ 072   ----------------------------------------
        .byte   W96
@ 073   ----------------------------------------
        .byte   W96
@ 074   ----------------------------------------
mus_thpprf_nobeta_2_3_LOOP:
        .byte   W96
@ 075   ----------------------------------------
        .byte   W96
@ 076   ----------------------------------------
        .byte   W96
@ 077   ----------------------------------------
        .byte   W96
@ 078   ----------------------------------------
        .byte   W96
@ 079   ----------------------------------------
        .byte   W96
@ 080   ----------------------------------------
        .byte   W96
@ 081   ----------------------------------------
        .byte   W96
@ 082   ----------------------------------------
        .byte   W96
@ 083   ----------------------------------------
        .byte   W96
@ 084   ----------------------------------------
        .byte   W96
@ 085   ----------------------------------------
        .byte   W96
@ 086   ----------------------------------------
        .byte   W96
@ 087   ----------------------------------------
        .byte   W96
@ 088   ----------------------------------------
        .byte   W96
@ 089   ----------------------------------------
        .byte   W96
@ 090   ----------------------------------------
        .byte   W96
@ 091   ----------------------------------------
        .byte   W96
@ 092   ----------------------------------------
        .byte   W96
@ 093   ----------------------------------------
        .byte   W96
@ 094   ----------------------------------------
        .byte   W96
@ 095   ----------------------------------------
        .byte   W96
@ 096   ----------------------------------------
        .byte   W96
@ 097   ----------------------------------------
        .byte   W96
@ 098   ----------------------------------------
        .byte   W96
@ 099   ----------------------------------------
        .byte   W96
@ 100   ----------------------------------------
        .byte   W96
@ 101   ----------------------------------------
        .byte   W96
@ 102   ----------------------------------------
        .byte   W96
@ 103   ----------------------------------------
        .byte   W96
@ 104   ----------------------------------------
        .byte   W96
@ 105   ----------------------------------------
        .byte   W96
@ 106   ----------------------------------------
        .byte   W96
@ 107   ----------------------------------------
        .byte   W96
@ 108   ----------------------------------------
        .byte   W96
@ 109   ----------------------------------------
        .byte   W96
@ 110   ----------------------------------------
        .byte           N48   , Bn2 , v112
        .byte   W48
        .byte                   Cs3
        .byte   W48
@ 111   ----------------------------------------
mus_thpprf_nobeta_2_3_111:
        .byte           N09   , Dn3 , v112
        .byte   W12
        .byte                   Dn3
        .byte   W12
        .byte                   Cs3
        .byte   W12
        .byte                   Cs3
        .byte   W12
        .byte                   Dn3
        .byte   W12
        .byte                   Dn3
        .byte   W12
        .byte                   An3
        .byte   W12
        .byte                   An3
        .byte   W12
        .byte   PEND
@ 112   ----------------------------------------
mus_thpprf_nobeta_2_3_112:
        .byte           N09   , Dn3 , v112
        .byte   W12
        .byte                   Dn3
        .byte   W12
        .byte                   En3
        .byte   W12
        .byte                   En3
        .byte   W12
        .byte                   Fs3
        .byte   W12
        .byte                   Fs3
        .byte   W12
        .byte                   En3
        .byte   W12
        .byte                   En3
        .byte   W12
        .byte   PEND
@ 113   ----------------------------------------
mus_thpprf_nobeta_2_3_113:
        .byte           N09   , Fs3 , v112
        .byte   W12
        .byte                   Fs3
        .byte   W12
        .byte                   Bn3
        .byte   W12
        .byte                   Bn3
        .byte   W12
        .byte                   An3
        .byte   W12
        .byte                   An3
        .byte   W12
        .byte                   Fs3
        .byte   W12
        .byte                   Fs3
        .byte   W12
        .byte   PEND
@ 114   ----------------------------------------
mus_thpprf_nobeta_2_3_114:
        .byte           N09   , En3 , v112
        .byte   W12
        .byte                   En3
        .byte   W12
        .byte                   Dn3
        .byte   W12
        .byte                   Dn3
        .byte   W12
        .byte                   En3
        .byte   W12
        .byte                   En3
        .byte   W12
        .byte                   Cs3
        .byte   W12
        .byte                   Cs3
        .byte   W12
        .byte   PEND
@ 115   ----------------------------------------
mus_thpprf_nobeta_2_3_115:
        .byte           N09   , Gn3 , v112
        .byte   W12
        .byte                   Gn3
        .byte   W12
        .byte                   An3
        .byte   W12
        .byte                   An3
        .byte   W12
        .byte                   Fs3
        .byte   W12
        .byte                   Fs3
        .byte   W12
        .byte                   En3
        .byte   W12
        .byte                   En3
        .byte   W12
        .byte   PEND
@ 116   ----------------------------------------
mus_thpprf_nobeta_2_3_116:
        .byte           N09   , Dn3 , v112
        .byte   W12
        .byte                   Dn3
        .byte   W12
        .byte                   Cs3
        .byte   W12
        .byte                   Cs3
        .byte   W12
        .byte                   Bn2
        .byte   W12
        .byte                   Bn2
        .byte   W12
        .byte                   An2
        .byte   W12
        .byte                   An2
        .byte   W12
        .byte   PEND
@ 117   ----------------------------------------
mus_thpprf_nobeta_2_3_117:
        .byte           N09   , Bn2 , v112
        .byte   W12
        .byte                   Bn2
        .byte   W12
        .byte                   An2
        .byte   W12
        .byte                   An2
        .byte   W12
        .byte                   Bn2
        .byte   W12
        .byte                   Bn2
        .byte   W12
        .byte                   Fs3
        .byte   W12
        .byte                   Fs3
        .byte   W12
        .byte   PEND
@ 118   ----------------------------------------
mus_thpprf_nobeta_2_3_118:
        .byte           N09   , Bn3 , v112
        .byte   W12
        .byte                   Bn3
        .byte   W12
        .byte                   Gn3
        .byte   W12
        .byte                   Gn3
        .byte   W12
        .byte                   Fs3
        .byte   W12
        .byte                   Fs3
        .byte   W12
        .byte                   En3
        .byte   W12
        .byte                   En3
        .byte   W12
        .byte   PEND
@ 119   ----------------------------------------
        .byte                   Dn3
        .byte   W12
        .byte                   Dn3
        .byte   W36
        .byte                   Dn3
        .byte   W12
        .byte                   Dn3
        .byte   W12
        .byte                   En3
        .byte   W12
        .byte                   En3
        .byte   W12
@ 120   ----------------------------------------
mus_thpprf_nobeta_2_3_120:
        .byte           N09   , Cs3 , v112
        .byte   W12
        .byte                   Cs3
        .byte   W12
        .byte                   Cs3
        .byte   W12
        .byte                   Cs3
        .byte   W36
        .byte                   Cs3
        .byte   W12
        .byte                   Cs3
        .byte   W12
        .byte   PEND
@ 121   ----------------------------------------
mus_thpprf_nobeta_2_3_121:
        .byte           N09   , Dn3 , v112
        .byte   W12
        .byte                   Dn3
        .byte   W12
        .byte                   En3
        .byte   W12
        .byte                   En3
        .byte   W12
        .byte                   Fs3
        .byte   W12
        .byte                   Fs3
        .byte   W12
        .byte                   An3
        .byte   W12
        .byte                   An3
        .byte   W12
        .byte   PEND
@ 122   ----------------------------------------
mus_thpprf_nobeta_2_3_122:
        .byte           N09   , Dn3 , v112
        .byte   W12
        .byte                   Dn3
        .byte   W12
        .byte                   Fs3
        .byte   W12
        .byte                   Fs3
        .byte   W12
        .byte                   En3
        .byte   W12
        .byte                   En3
        .byte   W36
        .byte   PEND
@ 123   ----------------------------------------
        .byte   PATT
         .word  mus_thpprf_nobeta_2_3_111
@ 124   ----------------------------------------
        .byte   PATT
         .word  mus_thpprf_nobeta_2_3_112
@ 125   ----------------------------------------
        .byte   PATT
         .word  mus_thpprf_nobeta_2_3_113
@ 126   ----------------------------------------
        .byte   PATT
         .word  mus_thpprf_nobeta_2_3_114
@ 127   ----------------------------------------
        .byte   PATT
         .word  mus_thpprf_nobeta_2_3_115
@ 128   ----------------------------------------
        .byte   PATT
         .word  mus_thpprf_nobeta_2_3_116
@ 129   ----------------------------------------
        .byte           N09   , An3 , v112
        .byte   W12
        .byte                   An3
        .byte   W12
        .byte                   Gs3
        .byte   W12
        .byte                   Gs3
        .byte   W12
        .byte                   An3
        .byte   W12
        .byte                   An3
        .byte   W12
        .byte                   En3
        .byte   W12
        .byte                   En3
        .byte   W12
@ 130   ----------------------------------------
        .byte                   Fs3
        .byte   W12
        .byte                   Fs3
        .byte   W12
        .byte                   An3
        .byte   W12
        .byte                   An3
        .byte   W12
        .byte                   Gn3
        .byte   W12
        .byte                   Gn3
        .byte   W12
        .byte                   En3
        .byte   W12
        .byte                   En3
        .byte   W12
@ 131   ----------------------------------------
        .byte                   Cs3
        .byte   W12
        .byte                   Cs3
        .byte   W12
        .byte                   Cs3
        .byte   W24
        .byte                   Cs3
        .byte   W12
        .byte                   Cs3
        .byte   W12
        .byte                   En3
        .byte   W12
        .byte                   En3
        .byte   W12
@ 132   ----------------------------------------
        .byte                   Fs3
        .byte   W12
        .byte                   Fs3
        .byte   W12
        .byte                   Fs3
        .byte   W12
        .byte                   Fs3
        .byte   W12
        .byte                   En3
        .byte   W12
        .byte                   En3
        .byte   W12
        .byte                   En3
        .byte   W12
        .byte                   En3
        .byte   W12
@ 133   ----------------------------------------
        .byte                   Dn3
        .byte   W12
        .byte                   Dn3
        .byte   W12
        .byte                   Fs3
        .byte   W12
        .byte                   Fs3
        .byte   W12
        .byte                   En3
        .byte   W12
        .byte                   En3
        .byte   W12
        .byte                   En3
        .byte   W12
        .byte                   En3
        .byte   W12
@ 134   ----------------------------------------
        .byte                   En3
        .byte   W12
        .byte                   En3
        .byte   W84
@ 135   ----------------------------------------
        .byte   W96
@ 136   ----------------------------------------
        .byte   W96
@ 137   ----------------------------------------
        .byte   W96
@ 138   ----------------------------------------
        .byte   W96
@ 139   ----------------------------------------
        .byte   W96
@ 140   ----------------------------------------
        .byte   W96
@ 141   ----------------------------------------
        .byte   W96
@ 142   ----------------------------------------
        .byte   W96
@ 143   ----------------------------------------
        .byte   W96
@ 144   ----------------------------------------
        .byte   W96
@ 145   ----------------------------------------
        .byte   W96
@ 146   ----------------------------------------
        .byte   W96
@ 147   ----------------------------------------
        .byte   W96
@ 148   ----------------------------------------
        .byte   W96
@ 149   ----------------------------------------
        .byte   W96
@ 150   ----------------------------------------
        .byte   W96
@ 151   ----------------------------------------
        .byte   W96
@ 152   ----------------------------------------
        .byte   W96
@ 153   ----------------------------------------
        .byte   W96
@ 154   ----------------------------------------
        .byte   W96
@ 155   ----------------------------------------
        .byte   W96
@ 156   ----------------------------------------
        .byte   W96
@ 157   ----------------------------------------
        .byte   W96
@ 158   ----------------------------------------
        .byte   W96
@ 159   ----------------------------------------
        .byte   PATT
         .word  mus_thpprf_nobeta_2_3_111
@ 160   ----------------------------------------
        .byte   PATT
         .word  mus_thpprf_nobeta_2_3_112
@ 161   ----------------------------------------
        .byte   PATT
         .word  mus_thpprf_nobeta_2_3_113
@ 162   ----------------------------------------
        .byte   PATT
         .word  mus_thpprf_nobeta_2_3_114
@ 163   ----------------------------------------
        .byte   PATT
         .word  mus_thpprf_nobeta_2_3_115
@ 164   ----------------------------------------
        .byte   PATT
         .word  mus_thpprf_nobeta_2_3_116
@ 165   ----------------------------------------
        .byte   PATT
         .word  mus_thpprf_nobeta_2_3_117
@ 166   ----------------------------------------
        .byte   PATT
         .word  mus_thpprf_nobeta_2_3_118
@ 167   ----------------------------------------
        .byte           N09   , Dn3 , v112
        .byte   W12
        .byte                   Dn3
        .byte   W12
        .byte                   Dn3
        .byte   W24
        .byte                   Dn3
        .byte   W12
        .byte                   Dn3
        .byte   W12
        .byte                   En3
        .byte   W12
        .byte                   En3
        .byte   W12
@ 168   ----------------------------------------
        .byte   PATT
         .word  mus_thpprf_nobeta_2_3_120
@ 169   ----------------------------------------
        .byte   PATT
         .word  mus_thpprf_nobeta_2_3_121
@ 170   ----------------------------------------
        .byte   PATT
         .word  mus_thpprf_nobeta_2_3_122
@ 171   ----------------------------------------
        .byte   PATT
         .word  mus_thpprf_nobeta_2_3_111
@ 172   ----------------------------------------
        .byte   PATT
         .word  mus_thpprf_nobeta_2_3_112
@ 173   ----------------------------------------
        .byte   PATT
         .word  mus_thpprf_nobeta_2_3_113
@ 174   ----------------------------------------
        .byte   PATT
         .word  mus_thpprf_nobeta_2_3_114
@ 175   ----------------------------------------
        .byte   PATT
         .word  mus_thpprf_nobeta_2_3_115
@ 176   ----------------------------------------
        .byte   PATT
         .word  mus_thpprf_nobeta_2_3_116
@ 177   ----------------------------------------
        .byte           N09   , Dn3 , v112
        .byte   W12
        .byte                   Dn3
        .byte   W12
        .byte                   Dn3
        .byte   W24
        .byte                   An3
        .byte   W12
        .byte                   An3
        .byte   W12
        .byte                   An3
        .byte   W24
@ 178   ----------------------------------------
        .byte                   Dn3
        .byte   W12
        .byte                   Dn3
        .byte   W12
        .byte                   Dn3
        .byte   W72
@ 179   ----------------------------------------
        .byte                   Dn3
        .byte   W12
        .byte                   Dn3
        .byte   W12
        .byte                   Dn3
        .byte   W24
        .byte                   En3
        .byte   W12
        .byte                   En3
        .byte   W12
        .byte                   En3
        .byte   W24
@ 180   ----------------------------------------
        .byte                   Fs3
        .byte   W12
        .byte                   Fs3
        .byte   W12
        .byte                   Fs3
        .byte   W72
@ 181   ----------------------------------------
        .byte   W48
        .byte                   En3
        .byte   W12
        .byte                   En3
        .byte   W12
        .byte                   En3
        .byte   W24
@ 182   ----------------------------------------
        .byte                   Fs3
        .byte   W12
        .byte                   Fs3
        .byte   W12
        .byte                   Fs3
        .byte   W24
        .byte                   En3
        .byte   W12
        .byte                   En3
        .byte   W12
        .byte                   En3
        .byte   W24
@ 183   ----------------------------------------
        .byte   W96
@ 184   ----------------------------------------
        .byte   W96
@ 185   ----------------------------------------
        .byte   W96
@ 186   ----------------------------------------
        .byte   W96
@ 187   ----------------------------------------
        .byte   W96
@ 188   ----------------------------------------
        .byte   W96
@ 189   ----------------------------------------
        .byte   W96
@ 190   ----------------------------------------
        .byte   W96
@ 191   ----------------------------------------
        .byte   W96
@ 192   ----------------------------------------
        .byte   W96
@ 193   ----------------------------------------
        .byte   W96
@ 194   ----------------------------------------
        .byte   W96
@ 195   ----------------------------------------
        .byte   W96
@ 196   ----------------------------------------
        .byte   W96
@ 197   ----------------------------------------
        .byte   W96
@ 198   ----------------------------------------
        .byte   W96
@ 199   ----------------------------------------
        .byte   W96
@ 200   ----------------------------------------
        .byte   W96
@ 201   ----------------------------------------
        .byte   W96
@ 202   ----------------------------------------
        .byte   W96
@ 203   ----------------------------------------
        .byte   W96
@ 204   ----------------------------------------
        .byte   W96
@ 205   ----------------------------------------
        .byte   W96
@ 206   ----------------------------------------
        .byte   W96
@ 207   ----------------------------------------
        .byte   W96
@ 208   ----------------------------------------
        .byte   W96
@ 209   ----------------------------------------
        .byte   W96
@ 210   ----------------------------------------
        .byte   W96
@ 211   ----------------------------------------
        .byte   W96
@ 212   ----------------------------------------
        .byte   W96
@ 213   ----------------------------------------
        .byte   W96
@ 214   ----------------------------------------
        .byte   W96
@ 215   ----------------------------------------
        .byte   W96
@ 216   ----------------------------------------
        .byte   W96
@ 217   ----------------------------------------
        .byte   W96
@ 218   ----------------------------------------
        .byte   GOTO
         .word  mus_thpprf_nobeta_2_3_LOOP
        .byte   FINE

@****************** Track 4 (Midi-Chn.4) ******************@

mus_thpprf_nobeta_2_4:
        .byte   KEYSH , mus_thpprf_nobeta_2_key+0
@ 000   ----------------------------------------
        .byte           PAN   , c_v+49
        .byte           VOICE , 36
        .byte           VOL   , 112
        .byte   W96
@ 001   ----------------------------------------
        .byte           TIE   , Bn2 , v112
        .byte   W96
@ 002   ----------------------------------------
        .byte   W96
@ 003   ----------------------------------------
        .byte   W96
@ 004   ----------------------------------------
        .byte   PATT
         .word  mus_thpprf_nobeta_2_1_28
@ 005   ----------------------------------------
        .byte   W96
@ 006   ----------------------------------------
        .byte   W96
@ 007   ----------------------------------------
        .byte   PATT
         .word  mus_thpprf_nobeta_2_1_31
@ 008   ----------------------------------------
        .byte   W96
@ 009   ----------------------------------------
        .byte   W96
@ 010   ----------------------------------------
        .byte   PATT
         .word  mus_thpprf_nobeta_2_1_28
@ 011   ----------------------------------------
        .byte   W96
@ 012   ----------------------------------------
        .byte   W96
@ 013   ----------------------------------------
        .byte           EOT   , An2
        .byte           TIE   , Gs2 , v112
        .byte   W96
@ 014   ----------------------------------------
        .byte   W96
@ 015   ----------------------------------------
        .byte   W96
@ 016   ----------------------------------------
        .byte           EOT
        .byte           TIE   , Cs3
        .byte   W96
@ 017   ----------------------------------------
        .byte   W96
@ 018   ----------------------------------------
        .byte   W96
@ 019   ----------------------------------------
        .byte           EOT
        .byte           TIE   , Bn2
        .byte   W96
@ 020   ----------------------------------------
        .byte   W96
@ 021   ----------------------------------------
        .byte   W96
@ 022   ----------------------------------------
        .byte   PATT
         .word  mus_thpprf_nobeta_2_1_28
@ 023   ----------------------------------------
        .byte   W96
@ 024   ----------------------------------------
        .byte   W96
@ 025   ----------------------------------------
        .byte           EOT   , An2
        .byte           VOICE , 48
        .byte           VOL   , 94
        .byte           TIE   , Bn1 , v112
        .byte   W96
@ 026   ----------------------------------------
        .byte   W96
@ 027   ----------------------------------------
        .byte   W96
@ 028   ----------------------------------------
        .byte           EOT
        .byte           TIE   , An1
        .byte   W96
@ 029   ----------------------------------------
        .byte   W96
@ 030   ----------------------------------------
        .byte   W96
@ 031   ----------------------------------------
mus_thpprf_nobeta_2_4_31:
        .byte           EOT   , An1
        .byte           TIE   , Bn1 , v112
        .byte   W96
        .byte   PEND
@ 032   ----------------------------------------
        .byte   W96
@ 033   ----------------------------------------
        .byte   W96
@ 034   ----------------------------------------
        .byte           EOT
        .byte           TIE   , Dn2
        .byte   W96
@ 035   ----------------------------------------
        .byte   W96
@ 036   ----------------------------------------
        .byte   W96
@ 037   ----------------------------------------
        .byte           EOT
        .byte           TIE   , Gs1
        .byte   W96
@ 038   ----------------------------------------
        .byte   W96
@ 039   ----------------------------------------
        .byte   W96
@ 040   ----------------------------------------
        .byte   W96
@ 041   ----------------------------------------
        .byte   W96
@ 042   ----------------------------------------
        .byte           EOT
        .byte           TIE   , Gn1
        .byte   W96
@ 043   ----------------------------------------
        .byte   W48
        .byte           EOT
        .byte           TIE   , Fs1
        .byte   W48
@ 044   ----------------------------------------
        .byte   W96
@ 045   ----------------------------------------
        .byte           EOT
        .byte           TIE   , En1
        .byte   W96
@ 046   ----------------------------------------
mus_thpprf_nobeta_2_4_46:
        .byte   W48
        .byte           EOT   , En1
        .byte           TIE   , Fs1 , v112
        .byte   W48
        .byte   PEND
@ 047   ----------------------------------------
        .byte   W96
@ 048   ----------------------------------------
        .byte   W96
@ 049   ----------------------------------------
        .byte   W48
        .byte           EOT
        .byte           TIE   , Bn1
        .byte   W48
@ 050   ----------------------------------------
        .byte   W84
        .byte           EOT
        .byte   W12
@ 051   ----------------------------------------
        .byte   W96
@ 052   ----------------------------------------
        .byte   W96
@ 053   ----------------------------------------
        .byte   W96
@ 054   ----------------------------------------
        .byte   W96
@ 055   ----------------------------------------
        .byte   W96
@ 056   ----------------------------------------
        .byte   W96
@ 057   ----------------------------------------
        .byte   W96
@ 058   ----------------------------------------
        .byte   W96
@ 059   ----------------------------------------
        .byte   W96
@ 060   ----------------------------------------
        .byte   W96
@ 061   ----------------------------------------
        .byte   W96
@ 062   ----------------------------------------
        .byte   W96
@ 063   ----------------------------------------
        .byte           VOL   , 100
        .byte           TIE
        .byte   W96
@ 064   ----------------------------------------
        .byte   W96
@ 065   ----------------------------------------
        .byte   W96
@ 066   ----------------------------------------
        .byte   W96
@ 067   ----------------------------------------
        .byte   W96
@ 068   ----------------------------------------
mus_thpprf_nobeta_2_4_68:
        .byte           EOT   , Bn1
        .byte           N96   , Dn2 , v112
        .byte   W96
        .byte   PEND
@ 069   ----------------------------------------
        .byte                   Cs2
        .byte   W96
@ 070   ----------------------------------------
        .byte           TIE   , An1
        .byte   W96
@ 071   ----------------------------------------
        .byte   W96
@ 072   ----------------------------------------
        .byte   W96
@ 073   ----------------------------------------
        .byte   W96
@ 074   ----------------------------------------
        .byte           EOT
mus_thpprf_nobeta_2_4_LOOP:
        .byte           TIE   , Gn1 , v112
        .byte   W96
@ 075   ----------------------------------------
        .byte   W96
@ 076   ----------------------------------------
        .byte   W96
@ 077   ----------------------------------------
        .byte   W48
        .byte           EOT
        .byte           TIE   , Dn1
        .byte   W48
@ 078   ----------------------------------------
        .byte   W96
@ 079   ----------------------------------------
        .byte   W96
@ 080   ----------------------------------------
        .byte   W48
        .byte           EOT
        .byte           TIE   , En1
        .byte   W48
@ 081   ----------------------------------------
        .byte   W96
@ 082   ----------------------------------------
        .byte   W96
@ 083   ----------------------------------------
        .byte   PATT
         .word  mus_thpprf_nobeta_2_4_46
@ 084   ----------------------------------------
        .byte   W96
@ 085   ----------------------------------------
        .byte   W96
@ 086   ----------------------------------------
        .byte   W96
@ 087   ----------------------------------------
        .byte           EOT   , Fs1
        .byte           TIE   , Bn1 , v112
        .byte   W96
@ 088   ----------------------------------------
        .byte   W96
@ 089   ----------------------------------------
        .byte   W96
@ 090   ----------------------------------------
        .byte   W96
@ 091   ----------------------------------------
        .byte   W96
@ 092   ----------------------------------------
        .byte   PATT
         .word  mus_thpprf_nobeta_2_4_68
@ 093   ----------------------------------------
        .byte           N96   , En2 , v112
        .byte   W96
@ 094   ----------------------------------------
        .byte           TIE   , Cs2
        .byte   W96
@ 095   ----------------------------------------
        .byte   W96
@ 096   ----------------------------------------
        .byte           EOT
        .byte           N48   , Bn1
        .byte   W48
        .byte           TIE   , An1
        .byte   W48
@ 097   ----------------------------------------
        .byte   W96
@ 098   ----------------------------------------
        .byte   W96
@ 099   ----------------------------------------
        .byte   PATT
         .word  mus_thpprf_nobeta_2_4_31
@ 100   ----------------------------------------
        .byte   W96
@ 101   ----------------------------------------
        .byte   W96
@ 102   ----------------------------------------
        .byte           EOT   , Bn1
        .byte           TIE   , En2 , v112
        .byte   W96
@ 103   ----------------------------------------
        .byte   W96
@ 104   ----------------------------------------
        .byte   W96
@ 105   ----------------------------------------
        .byte           EOT
        .byte           TIE   , Fs2
        .byte   W96
@ 106   ----------------------------------------
        .byte   W96
@ 107   ----------------------------------------
        .byte           EOT
        .byte           N96   , Dn2
        .byte   W96
@ 108   ----------------------------------------
        .byte           TIE   , An2
        .byte   W96
@ 109   ----------------------------------------
        .byte   W72
        .byte           EOT
        .byte   W24
@ 110   ----------------------------------------
        .byte   W96
@ 111   ----------------------------------------
        .byte   W96
@ 112   ----------------------------------------
        .byte   W96
@ 113   ----------------------------------------
        .byte   W96
@ 114   ----------------------------------------
        .byte   W96
@ 115   ----------------------------------------
        .byte   W96
@ 116   ----------------------------------------
        .byte   W96
@ 117   ----------------------------------------
        .byte   W96
@ 118   ----------------------------------------
        .byte   W96
@ 119   ----------------------------------------
        .byte   W96
@ 120   ----------------------------------------
        .byte   W96
@ 121   ----------------------------------------
        .byte   W96
@ 122   ----------------------------------------
        .byte   W96
@ 123   ----------------------------------------
        .byte   W96
@ 124   ----------------------------------------
        .byte   W96
@ 125   ----------------------------------------
        .byte   W96
@ 126   ----------------------------------------
        .byte   W96
@ 127   ----------------------------------------
        .byte   W96
@ 128   ----------------------------------------
        .byte   W96
@ 129   ----------------------------------------
        .byte   W96
@ 130   ----------------------------------------
        .byte   W96
@ 131   ----------------------------------------
        .byte   W96
@ 132   ----------------------------------------
        .byte   W96
@ 133   ----------------------------------------
        .byte   W96
@ 134   ----------------------------------------
        .byte   W48
        .byte           VOICE , 7
        .byte           VOL   , 103
        .byte           N24   , Dn3
        .byte   W24
        .byte                   En3
        .byte   W24
@ 135   ----------------------------------------
        .byte           N96   , Fs3
        .byte   W96
@ 136   ----------------------------------------
        .byte           N48   , Gn3
        .byte   W48
        .byte           N96   , En3
        .byte   W48
@ 137   ----------------------------------------
        .byte   W96
@ 138   ----------------------------------------
        .byte                   En3
        .byte   W96
@ 139   ----------------------------------------
        .byte           N48   , Fs3
        .byte   W48
        .byte                   Dn3
        .byte   W48
@ 140   ----------------------------------------
        .byte   W96
@ 141   ----------------------------------------
        .byte   W96
@ 142   ----------------------------------------
        .byte   W96
@ 143   ----------------------------------------
        .byte   W96
@ 144   ----------------------------------------
        .byte   W96
@ 145   ----------------------------------------
        .byte   W96
@ 146   ----------------------------------------
        .byte   W96
@ 147   ----------------------------------------
        .byte   W96
@ 148   ----------------------------------------
        .byte   W96
@ 149   ----------------------------------------
        .byte   W96
@ 150   ----------------------------------------
        .byte   W96
@ 151   ----------------------------------------
        .byte   W96
@ 152   ----------------------------------------
        .byte   W96
@ 153   ----------------------------------------
        .byte   W96
@ 154   ----------------------------------------
        .byte   W96
@ 155   ----------------------------------------
        .byte   W96
@ 156   ----------------------------------------
        .byte   W96
@ 157   ----------------------------------------
        .byte   W96
@ 158   ----------------------------------------
        .byte   W96
@ 159   ----------------------------------------
        .byte           VOICE , 5
        .byte           VOL   , 85
        .byte           TIE
        .byte   W96
@ 160   ----------------------------------------
        .byte   W96
@ 161   ----------------------------------------
        .byte   W96
@ 162   ----------------------------------------
mus_thpprf_nobeta_2_4_162:
        .byte           EOT   , Dn3
        .byte           TIE   , En3 , v112
        .byte   W96
        .byte   PEND
@ 163   ----------------------------------------
mus_thpprf_nobeta_2_4_163:
        .byte   W48
        .byte           EOT   , En3
        .byte           N96   , Fs3 , v112
        .byte   W48
        .byte   PEND
@ 164   ----------------------------------------
        .byte   W48
        .byte           N48   , Dn3
        .byte   W48
@ 165   ----------------------------------------
        .byte           TIE   , An3
        .byte   W96
@ 166   ----------------------------------------
        .byte   W48
        .byte           EOT
        .byte           TIE   , Fs3
        .byte   W48
@ 167   ----------------------------------------
        .byte   W96
@ 168   ----------------------------------------
        .byte           EOT
        .byte           TIE   , En3
        .byte   W96
@ 169   ----------------------------------------
        .byte   PATT
         .word  mus_thpprf_nobeta_2_4_163
@ 170   ----------------------------------------
        .byte   PATT
         .word  mus_thpprf_nobeta_2_1_18
@ 171   ----------------------------------------
        .byte           TIE   , Dn3 , v112
        .byte   W96
@ 172   ----------------------------------------
        .byte   W96
@ 173   ----------------------------------------
        .byte   W96
@ 174   ----------------------------------------
        .byte   PATT
         .word  mus_thpprf_nobeta_2_4_162
@ 175   ----------------------------------------
        .byte   W48
        .byte           EOT   , En3
        .byte           TIE   , Fs3 , v112
        .byte   W48
@ 176   ----------------------------------------
        .byte   W96
@ 177   ----------------------------------------
        .byte           EOT
        .byte           TIE   , An3
        .byte   W96
@ 178   ----------------------------------------
        .byte   W96
@ 179   ----------------------------------------
        .byte   W72
        .byte           EOT
        .byte   W24
@ 180   ----------------------------------------
        .byte           TIE
        .byte   W96
@ 181   ----------------------------------------
        .byte   W96
@ 182   ----------------------------------------
        .byte   W96
@ 183   ----------------------------------------
        .byte           EOT
        .byte   W96
@ 184   ----------------------------------------
        .byte   W96
@ 185   ----------------------------------------
        .byte   W96
@ 186   ----------------------------------------
        .byte   W96
@ 187   ----------------------------------------
        .byte   W96
@ 188   ----------------------------------------
        .byte   W96
@ 189   ----------------------------------------
        .byte   W96
@ 190   ----------------------------------------
        .byte   W96
@ 191   ----------------------------------------
        .byte   W96
@ 192   ----------------------------------------
        .byte   W96
@ 193   ----------------------------------------
        .byte   W96
@ 194   ----------------------------------------
        .byte   W96
@ 195   ----------------------------------------
        .byte           VOICE , 48
        .byte           VOL   , 100
        .byte   W96
@ 196   ----------------------------------------
        .byte   W96
@ 197   ----------------------------------------
        .byte   W96
@ 198   ----------------------------------------
        .byte   W96
@ 199   ----------------------------------------
        .byte   W96
@ 200   ----------------------------------------
        .byte   W96
@ 201   ----------------------------------------
        .byte   W96
@ 202   ----------------------------------------
        .byte   W96
@ 203   ----------------------------------------
        .byte   W96
@ 204   ----------------------------------------
        .byte   W96
@ 205   ----------------------------------------
        .byte   W96
@ 206   ----------------------------------------
        .byte   W96
@ 207   ----------------------------------------
        .byte           TIE   , Bn1
        .byte   W96
@ 208   ----------------------------------------
        .byte   W96
@ 209   ----------------------------------------
        .byte   W96
@ 210   ----------------------------------------
        .byte   W96
@ 211   ----------------------------------------
        .byte   W96
@ 212   ----------------------------------------
        .byte   PATT
         .word  mus_thpprf_nobeta_2_4_68
@ 213   ----------------------------------------
        .byte           N96   , Cs2 , v112
        .byte   W96
@ 214   ----------------------------------------
        .byte           TIE   , An1
        .byte   W96
@ 215   ----------------------------------------
        .byte   W96
@ 216   ----------------------------------------
        .byte   W96
@ 217   ----------------------------------------
        .byte   W96
@ 218   ----------------------------------------
        .byte           EOT
        .byte   GOTO
         .word  mus_thpprf_nobeta_2_4_LOOP
        .byte   FINE

@****************** Track 5 (Midi-Chn.5) ******************@

mus_thpprf_nobeta_2_5:
        .byte   KEYSH , mus_thpprf_nobeta_2_key+0
@ 000   ----------------------------------------
        .byte           PAN   , c_v+11
        .byte           VOICE , 36
        .byte           VOL   , 112
        .byte   W96
@ 001   ----------------------------------------
        .byte   W96
@ 002   ----------------------------------------
        .byte   W96
@ 003   ----------------------------------------
        .byte   W96
@ 004   ----------------------------------------
        .byte   W96
@ 005   ----------------------------------------
        .byte   W96
@ 006   ----------------------------------------
        .byte   W96
@ 007   ----------------------------------------
        .byte   W96
@ 008   ----------------------------------------
        .byte   W96
@ 009   ----------------------------------------
        .byte   W96
@ 010   ----------------------------------------
        .byte   W96
@ 011   ----------------------------------------
        .byte   W96
@ 012   ----------------------------------------
        .byte   W96
@ 013   ----------------------------------------
        .byte   W96
@ 014   ----------------------------------------
        .byte   W96
@ 015   ----------------------------------------
        .byte   W96
@ 016   ----------------------------------------
        .byte   W96
@ 017   ----------------------------------------
        .byte   W96
@ 018   ----------------------------------------
        .byte   W96
@ 019   ----------------------------------------
        .byte   W96
@ 020   ----------------------------------------
        .byte   W96
@ 021   ----------------------------------------
        .byte   W96
@ 022   ----------------------------------------
        .byte   W96
@ 023   ----------------------------------------
        .byte   W96
@ 024   ----------------------------------------
        .byte   W96
@ 025   ----------------------------------------
        .byte   W96
@ 026   ----------------------------------------
        .byte   W96
@ 027   ----------------------------------------
        .byte   W96
@ 028   ----------------------------------------
        .byte   W96
@ 029   ----------------------------------------
        .byte   W96
@ 030   ----------------------------------------
        .byte   W96
@ 031   ----------------------------------------
        .byte   W96
@ 032   ----------------------------------------
        .byte   W96
@ 033   ----------------------------------------
        .byte   W96
@ 034   ----------------------------------------
        .byte   W96
@ 035   ----------------------------------------
        .byte   W96
@ 036   ----------------------------------------
        .byte   W96
@ 037   ----------------------------------------
        .byte   W96
@ 038   ----------------------------------------
        .byte   W96
@ 039   ----------------------------------------
        .byte   W96
@ 040   ----------------------------------------
        .byte   W96
@ 041   ----------------------------------------
        .byte   W96
@ 042   ----------------------------------------
        .byte   W96
@ 043   ----------------------------------------
        .byte   W96
@ 044   ----------------------------------------
        .byte   W96
@ 045   ----------------------------------------
        .byte   W96
@ 046   ----------------------------------------
        .byte   W96
@ 047   ----------------------------------------
        .byte   W96
@ 048   ----------------------------------------
        .byte   W96
@ 049   ----------------------------------------
        .byte   W96
@ 050   ----------------------------------------
        .byte   W96
@ 051   ----------------------------------------
mus_thpprf_nobeta_2_5_51:
        .byte           N12   , Bn2 , v112
        .byte   W24
        .byte                   Bn2
        .byte   W24
        .byte                   Bn2
        .byte   W24
        .byte                   Bn2
        .byte   W24
        .byte   PEND
@ 052   ----------------------------------------
        .byte   PATT
         .word  mus_thpprf_nobeta_2_5_51
@ 053   ----------------------------------------
        .byte   PATT
         .word  mus_thpprf_nobeta_2_5_51
@ 054   ----------------------------------------
        .byte   PATT
         .word  mus_thpprf_nobeta_2_5_51
@ 055   ----------------------------------------
        .byte   PATT
         .word  mus_thpprf_nobeta_2_5_51
@ 056   ----------------------------------------
        .byte   PATT
         .word  mus_thpprf_nobeta_2_5_51
@ 057   ----------------------------------------
        .byte   PATT
         .word  mus_thpprf_nobeta_2_5_51
@ 058   ----------------------------------------
        .byte   PATT
         .word  mus_thpprf_nobeta_2_5_51
@ 059   ----------------------------------------
        .byte   PATT
         .word  mus_thpprf_nobeta_2_5_51
@ 060   ----------------------------------------
        .byte   PATT
         .word  mus_thpprf_nobeta_2_5_51
@ 061   ----------------------------------------
        .byte   PATT
         .word  mus_thpprf_nobeta_2_5_51
@ 062   ----------------------------------------
        .byte   PATT
         .word  mus_thpprf_nobeta_2_5_51
@ 063   ----------------------------------------
        .byte   PATT
         .word  mus_thpprf_nobeta_2_5_51
@ 064   ----------------------------------------
        .byte   PATT
         .word  mus_thpprf_nobeta_2_5_51
@ 065   ----------------------------------------
        .byte   PATT
         .word  mus_thpprf_nobeta_2_5_51
@ 066   ----------------------------------------
        .byte   PATT
         .word  mus_thpprf_nobeta_2_5_51
@ 067   ----------------------------------------
        .byte   PATT
         .word  mus_thpprf_nobeta_2_5_51
@ 068   ----------------------------------------
mus_thpprf_nobeta_2_5_68:
        .byte           N12   , Dn3 , v112
        .byte   W24
        .byte                   Dn3
        .byte   W24
        .byte                   Dn3
        .byte   W24
        .byte                   Dn3
        .byte   W24
        .byte   PEND
@ 069   ----------------------------------------
mus_thpprf_nobeta_2_5_69:
        .byte           N12   , Cs3 , v112
        .byte   W24
        .byte                   Cs3
        .byte   W24
        .byte                   Cs3
        .byte   W24
        .byte                   Cs3
        .byte   W24
        .byte   PEND
@ 070   ----------------------------------------
mus_thpprf_nobeta_2_5_70:
        .byte           N12   , An2 , v112
        .byte   W24
        .byte                   An2
        .byte   W24
        .byte                   An2
        .byte   W24
        .byte                   An2
        .byte   W24
        .byte   PEND
@ 071   ----------------------------------------
        .byte   PATT
         .word  mus_thpprf_nobeta_2_5_70
@ 072   ----------------------------------------
        .byte   PATT
         .word  mus_thpprf_nobeta_2_5_70
@ 073   ----------------------------------------
        .byte   PATT
         .word  mus_thpprf_nobeta_2_5_70
@ 074   ----------------------------------------
mus_thpprf_nobeta_2_5_LOOP:
        .byte           N12   , Gn2 , v112
        .byte   W24
        .byte                   Gn2
        .byte   W24
        .byte                   Gn2
        .byte   W24
        .byte                   Gn2
        .byte   W24
@ 075   ----------------------------------------
mus_thpprf_nobeta_2_5_75:
        .byte           N12   , Gn2 , v112
        .byte   W24
        .byte                   Gn2
        .byte   W24
        .byte                   Gn2
        .byte   W24
        .byte                   Gn2
        .byte   W24
        .byte   PEND
@ 076   ----------------------------------------
        .byte   PATT
         .word  mus_thpprf_nobeta_2_5_75
@ 077   ----------------------------------------
        .byte           N12   , Gn2 , v112
        .byte   W24
        .byte                   Gn2
        .byte   W24
        .byte                   Dn2
        .byte   W24
        .byte                   Dn2
        .byte   W24
@ 078   ----------------------------------------
mus_thpprf_nobeta_2_5_78:
        .byte           N12   , Dn2 , v112
        .byte   W24
        .byte                   Dn2
        .byte   W24
        .byte                   Dn2
        .byte   W24
        .byte                   Dn2
        .byte   W24
        .byte   PEND
@ 079   ----------------------------------------
        .byte   PATT
         .word  mus_thpprf_nobeta_2_5_78
@ 080   ----------------------------------------
        .byte           N12   , Dn2 , v112
        .byte   W24
        .byte                   Dn2
        .byte   W24
        .byte                   En2
        .byte   W24
        .byte                   En2
        .byte   W24
@ 081   ----------------------------------------
mus_thpprf_nobeta_2_5_81:
        .byte           N12   , En2 , v112
        .byte   W24
        .byte                   En2
        .byte   W24
        .byte                   En2
        .byte   W24
        .byte                   En2
        .byte   W24
        .byte   PEND
@ 082   ----------------------------------------
        .byte   PATT
         .word  mus_thpprf_nobeta_2_5_81
@ 083   ----------------------------------------
        .byte           N12   , En2 , v112
        .byte   W24
        .byte                   En2
        .byte   W24
        .byte                   Fs2
        .byte   W24
        .byte                   Fs2
        .byte   W24
@ 084   ----------------------------------------
mus_thpprf_nobeta_2_5_84:
        .byte           N12   , Fs2 , v112
        .byte   W24
        .byte                   Fs2
        .byte   W24
        .byte                   Fs2
        .byte   W24
        .byte                   Fs2
        .byte   W24
        .byte   PEND
@ 085   ----------------------------------------
        .byte   PATT
         .word  mus_thpprf_nobeta_2_5_84
@ 086   ----------------------------------------
        .byte   PATT
         .word  mus_thpprf_nobeta_2_5_84
@ 087   ----------------------------------------
        .byte   PATT
         .word  mus_thpprf_nobeta_2_5_51
@ 088   ----------------------------------------
        .byte   PATT
         .word  mus_thpprf_nobeta_2_5_51
@ 089   ----------------------------------------
        .byte   PATT
         .word  mus_thpprf_nobeta_2_5_51
@ 090   ----------------------------------------
        .byte   PATT
         .word  mus_thpprf_nobeta_2_5_51
@ 091   ----------------------------------------
        .byte   PATT
         .word  mus_thpprf_nobeta_2_5_51
@ 092   ----------------------------------------
        .byte   PATT
         .word  mus_thpprf_nobeta_2_5_68
@ 093   ----------------------------------------
mus_thpprf_nobeta_2_5_93:
        .byte           N12   , En3 , v112
        .byte   W24
        .byte                   En3
        .byte   W24
        .byte                   En3
        .byte   W24
        .byte                   En3
        .byte   W24
        .byte   PEND
@ 094   ----------------------------------------
        .byte   PATT
         .word  mus_thpprf_nobeta_2_5_69
@ 095   ----------------------------------------
        .byte   PATT
         .word  mus_thpprf_nobeta_2_5_69
@ 096   ----------------------------------------
        .byte           N12   , Bn2 , v112
        .byte   W24
        .byte                   Bn2
        .byte   W24
        .byte                   An2
        .byte   W24
        .byte                   An2
        .byte   W24
@ 097   ----------------------------------------
        .byte   PATT
         .word  mus_thpprf_nobeta_2_5_70
@ 098   ----------------------------------------
        .byte   PATT
         .word  mus_thpprf_nobeta_2_5_70
@ 099   ----------------------------------------
        .byte   PATT
         .word  mus_thpprf_nobeta_2_5_51
@ 100   ----------------------------------------
        .byte   PATT
         .word  mus_thpprf_nobeta_2_5_51
@ 101   ----------------------------------------
        .byte   PATT
         .word  mus_thpprf_nobeta_2_5_51
@ 102   ----------------------------------------
        .byte   PATT
         .word  mus_thpprf_nobeta_2_5_93
@ 103   ----------------------------------------
        .byte   PATT
         .word  mus_thpprf_nobeta_2_5_93
@ 104   ----------------------------------------
        .byte   PATT
         .word  mus_thpprf_nobeta_2_5_93
@ 105   ----------------------------------------
mus_thpprf_nobeta_2_5_105:
        .byte           N12   , Fs3 , v112
        .byte   W24
        .byte                   Fs3
        .byte   W24
        .byte                   Fs3
        .byte   W24
        .byte                   Fs3
        .byte   W24
        .byte   PEND
@ 106   ----------------------------------------
        .byte   PATT
         .word  mus_thpprf_nobeta_2_5_105
@ 107   ----------------------------------------
        .byte   PATT
         .word  mus_thpprf_nobeta_2_5_68
@ 108   ----------------------------------------
        .byte           N12   , An3 , v112
        .byte   W24
        .byte                   An3
        .byte   W24
        .byte                   An3
        .byte   W24
        .byte                   An3
        .byte   W24
@ 109   ----------------------------------------
        .byte                   An3
        .byte   W24
        .byte                   An3
        .byte   W24
        .byte                   An3
        .byte   W48
@ 110   ----------------------------------------
        .byte   W96
@ 111   ----------------------------------------
        .byte           VOICE , 3
        .byte           VOL   , 114
        .byte           TIE   , Dn0
        .byte   W96
@ 112   ----------------------------------------
        .byte   W96
@ 113   ----------------------------------------
        .byte   W96
@ 114   ----------------------------------------
        .byte   PATT
         .word  mus_thpprf_nobeta_2_0_162
@ 115   ----------------------------------------
        .byte   PATT
         .word  mus_thpprf_nobeta_2_0_163
@ 116   ----------------------------------------
        .byte   PATT
         .word  mus_thpprf_nobeta_2_0_164
@ 117   ----------------------------------------
        .byte           TIE   , An0 , v112
        .byte   W96
@ 118   ----------------------------------------
        .byte   PATT
         .word  mus_thpprf_nobeta_2_0_166
@ 119   ----------------------------------------
        .byte   W96
@ 120   ----------------------------------------
        .byte   PATT
         .word  mus_thpprf_nobeta_2_0_168
@ 121   ----------------------------------------
        .byte   PATT
         .word  mus_thpprf_nobeta_2_0_163
@ 122   ----------------------------------------
        .byte   PATT
         .word  mus_thpprf_nobeta_2_0_170
@ 123   ----------------------------------------
        .byte           TIE   , Dn0 , v112
        .byte   W96
@ 124   ----------------------------------------
        .byte   W96
@ 125   ----------------------------------------
        .byte   W96
@ 126   ----------------------------------------
        .byte   PATT
         .word  mus_thpprf_nobeta_2_0_162
@ 127   ----------------------------------------
        .byte   PATT
         .word  mus_thpprf_nobeta_2_0_175
@ 128   ----------------------------------------
        .byte   W96
@ 129   ----------------------------------------
        .byte   PATT
         .word  mus_thpprf_nobeta_2_0_177
@ 130   ----------------------------------------
        .byte   PATT
         .word  mus_thpprf_nobeta_2_0_178
@ 131   ----------------------------------------
        .byte   W96
@ 132   ----------------------------------------
        .byte   PATT
         .word  mus_thpprf_nobeta_2_0_180
@ 133   ----------------------------------------
        .byte   PATT
         .word  mus_thpprf_nobeta_2_0_181
@ 134   ----------------------------------------
        .byte   W96
@ 135   ----------------------------------------
        .byte           EOT   , Bn0
        .byte           VOICE , 48
        .byte           VOL   , 100
        .byte           TIE   , Fs2 , v112
        .byte   W96
@ 136   ----------------------------------------
        .byte   W48
        .byte           EOT
        .byte           TIE   , En2
        .byte   W48
@ 137   ----------------------------------------
        .byte   W96
@ 138   ----------------------------------------
        .byte           EOT
        .byte           TIE
        .byte   W96
@ 139   ----------------------------------------
        .byte   W48
        .byte           EOT
        .byte           TIE   , Dn2
        .byte   W48
@ 140   ----------------------------------------
        .byte   W96
@ 141   ----------------------------------------
        .byte           EOT
        .byte           TIE   , An2
        .byte   W96
@ 142   ----------------------------------------
        .byte   W48
        .byte           EOT
        .byte           TIE   , Gs2
        .byte   W48
@ 143   ----------------------------------------
        .byte   W96
@ 144   ----------------------------------------
        .byte   PATT
         .word  mus_thpprf_nobeta_2_1_42
@ 145   ----------------------------------------
        .byte   PATT
         .word  mus_thpprf_nobeta_2_1_43
@ 146   ----------------------------------------
        .byte   W96
@ 147   ----------------------------------------
        .byte           EOT   , Fs2
        .byte           TIE   , Fs2 , v112
        .byte           TIE   , Fs1
        .byte   W96
@ 148   ----------------------------------------
        .byte   W48
        .byte           EOT
        .byte           EOT   , Fs2
        .byte           TIE   , En2
        .byte           TIE   , En1
        .byte   W48
@ 149   ----------------------------------------
        .byte   W96
@ 150   ----------------------------------------
        .byte           EOT
        .byte           EOT   , En2
        .byte           TIE
        .byte           TIE   , En1
        .byte   W96
@ 151   ----------------------------------------
        .byte   W48
        .byte           EOT
        .byte           EOT   , En2
        .byte           N96   , Dn2
        .byte           N96   , Dn1
        .byte   W48
@ 152   ----------------------------------------
        .byte   W48
        .byte           N24   , Cs2
        .byte           N24   , Cs1
        .byte   W24
        .byte                   Dn2
        .byte           N24   , Dn1
        .byte   W24
@ 153   ----------------------------------------
        .byte           N96   , An2
        .byte           N96   , An1
        .byte   W96
@ 154   ----------------------------------------
        .byte           N48   , Bn2
        .byte           N48   , Bn1
        .byte   W48
        .byte           N96   , Gn2
        .byte           N96   , Gn1
        .byte   W48
@ 155   ----------------------------------------
        .byte   W48
        .byte           N48   , Gn2
        .byte           N48   , Gn1
        .byte   W48
@ 156   ----------------------------------------
        .byte           N96   , Dn3
        .byte           N96   , Dn2
        .byte   W96
@ 157   ----------------------------------------
        .byte           N48   , En3
        .byte           N48   , En2
        .byte   W48
        .byte           TIE   , Cs3
        .byte           TIE   , Cs2
        .byte   W48
@ 158   ----------------------------------------
        .byte   W96
@ 159   ----------------------------------------
        .byte           EOT
        .byte           EOT   , Cs3
        .byte           VOICE , 4
        .byte           VOL   , 85
        .byte           TIE   , Dn4
        .byte   W96
@ 160   ----------------------------------------
        .byte   W96
@ 161   ----------------------------------------
        .byte   W96
@ 162   ----------------------------------------
mus_thpprf_nobeta_2_5_162:
        .byte           EOT   , Dn4
        .byte           TIE   , En4 , v112
        .byte   W96
        .byte   PEND
@ 163   ----------------------------------------
mus_thpprf_nobeta_2_5_163:
        .byte   W48
        .byte           EOT   , En4
        .byte           N96   , Fs4 , v112
        .byte   W48
        .byte   PEND
@ 164   ----------------------------------------
        .byte   W48
        .byte           N48   , Dn4
        .byte   W48
@ 165   ----------------------------------------
        .byte           TIE   , An4
        .byte   W96
@ 166   ----------------------------------------
        .byte   W48
        .byte           EOT
        .byte           TIE   , Fs4
        .byte   W48
@ 167   ----------------------------------------
        .byte   W96
@ 168   ----------------------------------------
        .byte           EOT
        .byte           TIE   , En4
        .byte   W96
@ 169   ----------------------------------------
        .byte   PATT
         .word  mus_thpprf_nobeta_2_5_163
@ 170   ----------------------------------------
        .byte   W48
        .byte           N48   , En4 , v112
        .byte   W48
@ 171   ----------------------------------------
        .byte           TIE   , Dn4
        .byte   W96
@ 172   ----------------------------------------
        .byte   W96
@ 173   ----------------------------------------
        .byte   W96
@ 174   ----------------------------------------
        .byte   PATT
         .word  mus_thpprf_nobeta_2_5_162
@ 175   ----------------------------------------
        .byte   W48
        .byte           EOT   , En4
        .byte           TIE   , Fs4 , v112
        .byte   W48
@ 176   ----------------------------------------
        .byte   W96
@ 177   ----------------------------------------
        .byte           EOT
        .byte           TIE   , An4
        .byte   W96
@ 178   ----------------------------------------
        .byte   W96
@ 179   ----------------------------------------
        .byte   W72
        .byte           EOT
        .byte   W24
@ 180   ----------------------------------------
        .byte           TIE
        .byte   W96
@ 181   ----------------------------------------
        .byte   W96
@ 182   ----------------------------------------
        .byte   W96
@ 183   ----------------------------------------
        .byte           EOT
        .byte   W96
@ 184   ----------------------------------------
        .byte   W96
@ 185   ----------------------------------------
        .byte   W96
@ 186   ----------------------------------------
        .byte   W96
@ 187   ----------------------------------------
        .byte   W96
@ 188   ----------------------------------------
        .byte   W96
@ 189   ----------------------------------------
        .byte   W96
@ 190   ----------------------------------------
        .byte   W96
@ 191   ----------------------------------------
        .byte   W96
@ 192   ----------------------------------------
        .byte   W96
@ 193   ----------------------------------------
        .byte   W96
@ 194   ----------------------------------------
        .byte   W96
@ 195   ----------------------------------------
        .byte           VOICE , 36
        .byte           VOL   , 112
        .byte           N12   , Bn2
        .byte   W24
        .byte                   Bn2
        .byte   W24
        .byte                   Bn2
        .byte   W24
        .byte                   Bn2
        .byte   W24
@ 196   ----------------------------------------
        .byte   PATT
         .word  mus_thpprf_nobeta_2_5_51
@ 197   ----------------------------------------
        .byte   PATT
         .word  mus_thpprf_nobeta_2_5_51
@ 198   ----------------------------------------
        .byte   PATT
         .word  mus_thpprf_nobeta_2_5_51
@ 199   ----------------------------------------
        .byte   PATT
         .word  mus_thpprf_nobeta_2_5_51
@ 200   ----------------------------------------
        .byte   PATT
         .word  mus_thpprf_nobeta_2_5_51
@ 201   ----------------------------------------
        .byte   PATT
         .word  mus_thpprf_nobeta_2_5_51
@ 202   ----------------------------------------
        .byte   PATT
         .word  mus_thpprf_nobeta_2_5_51
@ 203   ----------------------------------------
        .byte   PATT
         .word  mus_thpprf_nobeta_2_5_51
@ 204   ----------------------------------------
        .byte   PATT
         .word  mus_thpprf_nobeta_2_5_51
@ 205   ----------------------------------------
        .byte   PATT
         .word  mus_thpprf_nobeta_2_5_51
@ 206   ----------------------------------------
        .byte   PATT
         .word  mus_thpprf_nobeta_2_5_51
@ 207   ----------------------------------------
        .byte   PATT
         .word  mus_thpprf_nobeta_2_5_51
@ 208   ----------------------------------------
        .byte   PATT
         .word  mus_thpprf_nobeta_2_5_51
@ 209   ----------------------------------------
        .byte   PATT
         .word  mus_thpprf_nobeta_2_5_51
@ 210   ----------------------------------------
        .byte   PATT
         .word  mus_thpprf_nobeta_2_5_51
@ 211   ----------------------------------------
        .byte   PATT
         .word  mus_thpprf_nobeta_2_5_51
@ 212   ----------------------------------------
        .byte   PATT
         .word  mus_thpprf_nobeta_2_5_68
@ 213   ----------------------------------------
        .byte   PATT
         .word  mus_thpprf_nobeta_2_5_69
@ 214   ----------------------------------------
        .byte   PATT
         .word  mus_thpprf_nobeta_2_5_70
@ 215   ----------------------------------------
        .byte   PATT
         .word  mus_thpprf_nobeta_2_5_70
@ 216   ----------------------------------------
        .byte   PATT
         .word  mus_thpprf_nobeta_2_5_70
@ 217   ----------------------------------------
        .byte   PATT
         .word  mus_thpprf_nobeta_2_5_70
@ 218   ----------------------------------------
        .byte   GOTO
         .word  mus_thpprf_nobeta_2_5_LOOP
        .byte   FINE

@****************** Track 6 (Midi-Chn.6) ******************@

mus_thpprf_nobeta_2_6:
        .byte   KEYSH , mus_thpprf_nobeta_2_key+0
@ 000   ----------------------------------------
        .byte           PAN   , c_v-14
        .byte           VOICE , 5
        .byte           VOL   , 112
        .byte   W96
@ 001   ----------------------------------------
        .byte   W96
@ 002   ----------------------------------------
        .byte   W96
@ 003   ----------------------------------------
        .byte   W96
@ 004   ----------------------------------------
        .byte   W96
@ 005   ----------------------------------------
        .byte   W96
@ 006   ----------------------------------------
        .byte   W96
@ 007   ----------------------------------------
        .byte   W96
@ 008   ----------------------------------------
        .byte   W96
@ 009   ----------------------------------------
        .byte   W96
@ 010   ----------------------------------------
        .byte   W96
@ 011   ----------------------------------------
        .byte   W96
@ 012   ----------------------------------------
        .byte   W96
@ 013   ----------------------------------------
        .byte   W96
@ 014   ----------------------------------------
        .byte   W96
@ 015   ----------------------------------------
        .byte   W96
@ 016   ----------------------------------------
        .byte   W96
@ 017   ----------------------------------------
        .byte   W96
@ 018   ----------------------------------------
        .byte   W96
@ 019   ----------------------------------------
        .byte   W96
@ 020   ----------------------------------------
        .byte   W96
@ 021   ----------------------------------------
        .byte   W96
@ 022   ----------------------------------------
        .byte   W96
@ 023   ----------------------------------------
        .byte   W96
@ 024   ----------------------------------------
        .byte   W96
@ 025   ----------------------------------------
        .byte   W96
@ 026   ----------------------------------------
        .byte   W96
@ 027   ----------------------------------------
        .byte   W96
@ 028   ----------------------------------------
        .byte   W96
@ 029   ----------------------------------------
        .byte   W96
@ 030   ----------------------------------------
        .byte   W96
@ 031   ----------------------------------------
        .byte   W96
@ 032   ----------------------------------------
        .byte   W96
@ 033   ----------------------------------------
        .byte   W96
@ 034   ----------------------------------------
        .byte   W96
@ 035   ----------------------------------------
        .byte   W96
@ 036   ----------------------------------------
        .byte   W96
@ 037   ----------------------------------------
        .byte   W96
@ 038   ----------------------------------------
        .byte   W96
@ 039   ----------------------------------------
        .byte   W96
@ 040   ----------------------------------------
        .byte   W96
@ 041   ----------------------------------------
        .byte   W96
@ 042   ----------------------------------------
        .byte   W96
@ 043   ----------------------------------------
        .byte   W96
@ 044   ----------------------------------------
        .byte   W96
@ 045   ----------------------------------------
        .byte   W96
@ 046   ----------------------------------------
        .byte   W96
@ 047   ----------------------------------------
        .byte   W96
@ 048   ----------------------------------------
        .byte   W96
@ 049   ----------------------------------------
        .byte   W96
@ 050   ----------------------------------------
        .byte   W96
@ 051   ----------------------------------------
        .byte   W96
@ 052   ----------------------------------------
        .byte   W96
@ 053   ----------------------------------------
        .byte   W96
@ 054   ----------------------------------------
        .byte   W96
@ 055   ----------------------------------------
        .byte   W96
@ 056   ----------------------------------------
        .byte   W96
@ 057   ----------------------------------------
        .byte   W96
@ 058   ----------------------------------------
        .byte   W96
@ 059   ----------------------------------------
        .byte   W96
@ 060   ----------------------------------------
        .byte   W96
@ 061   ----------------------------------------
        .byte   W96
@ 062   ----------------------------------------
        .byte   W96
@ 063   ----------------------------------------
        .byte   W96
@ 064   ----------------------------------------
        .byte   W96
@ 065   ----------------------------------------
        .byte   W96
@ 066   ----------------------------------------
        .byte   W96
@ 067   ----------------------------------------
        .byte   W96
@ 068   ----------------------------------------
        .byte   W96
@ 069   ----------------------------------------
        .byte   W96
@ 070   ----------------------------------------
        .byte   W96
@ 071   ----------------------------------------
        .byte   W96
@ 072   ----------------------------------------
        .byte   W96
@ 073   ----------------------------------------
        .byte   W96
@ 074   ----------------------------------------
mus_thpprf_nobeta_2_6_LOOP:
        .byte   W96
@ 075   ----------------------------------------
        .byte   W96
@ 076   ----------------------------------------
        .byte   W96
@ 077   ----------------------------------------
        .byte   W96
@ 078   ----------------------------------------
        .byte   W96
@ 079   ----------------------------------------
        .byte   W96
@ 080   ----------------------------------------
        .byte   W96
@ 081   ----------------------------------------
        .byte   W96
@ 082   ----------------------------------------
        .byte   W96
@ 083   ----------------------------------------
        .byte   W96
@ 084   ----------------------------------------
        .byte   W96
@ 085   ----------------------------------------
        .byte   W96
@ 086   ----------------------------------------
        .byte   W96
@ 087   ----------------------------------------
        .byte           VOL   , 94
        .byte           N48   , Fs2 , v112
        .byte   W48
        .byte                   Bn1
        .byte   W48
@ 088   ----------------------------------------
        .byte           N96   , En2
        .byte   W96
@ 089   ----------------------------------------
        .byte   PATT
         .word  mus_thpprf_nobeta_2_1_65
@ 090   ----------------------------------------
        .byte           N96   , Fs2 , v112
        .byte   W96
@ 091   ----------------------------------------
        .byte                   Bn2
        .byte   W96
@ 092   ----------------------------------------
        .byte                   Dn3
        .byte   W96
@ 093   ----------------------------------------
        .byte           N48   , En3
        .byte   W48
        .byte                   Dn3
        .byte   W48
@ 094   ----------------------------------------
        .byte           TIE   , Cs3
        .byte   W96
@ 095   ----------------------------------------
        .byte   W96
@ 096   ----------------------------------------
        .byte           EOT
        .byte           N48   , Bn2
        .byte   W48
        .byte           TIE   , An2
        .byte   W48
@ 097   ----------------------------------------
        .byte   W96
@ 098   ----------------------------------------
        .byte   W96
@ 099   ----------------------------------------
        .byte           EOT
        .byte           N48   , Bn2
        .byte   W48
        .byte                   An2
        .byte   W48
@ 100   ----------------------------------------
        .byte           N96   , Bn2
        .byte   W96
@ 101   ----------------------------------------
        .byte           N48   , Cs3
        .byte   W48
        .byte                   Dn3
        .byte   W48
@ 102   ----------------------------------------
        .byte           N96   , En3
        .byte   W96
@ 103   ----------------------------------------
        .byte                   Cs3
        .byte   W96
@ 104   ----------------------------------------
        .byte           N48   , An2
        .byte   W48
        .byte                   En3
        .byte   W48
@ 105   ----------------------------------------
        .byte                   Fs3
        .byte   W48
        .byte                   En3
        .byte   W48
@ 106   ----------------------------------------
        .byte           N96   , Fs3
        .byte   W96
@ 107   ----------------------------------------
        .byte                   Dn3
        .byte   W96
@ 108   ----------------------------------------
        .byte           TIE   , An3
        .byte   W96
@ 109   ----------------------------------------
        .byte   W96
@ 110   ----------------------------------------
        .byte   W48
        .byte           EOT
        .byte   W48
@ 111   ----------------------------------------
mus_thpprf_nobeta_2_6_111:
        .byte           VOICE , 48
        .byte           VOL   , 96
        .byte           TIE   , Dn1 , v112
        .byte           TIE   , Dn0
        .byte   W96
        .byte   PEND
@ 112   ----------------------------------------
        .byte   W96
@ 113   ----------------------------------------
        .byte   W96
@ 114   ----------------------------------------
mus_thpprf_nobeta_2_6_114:
        .byte           EOT   , Dn0
        .byte                   Dn1
        .byte           TIE   , En1 , v112
        .byte           TIE   , En0
        .byte   W96
        .byte   PEND
@ 115   ----------------------------------------
mus_thpprf_nobeta_2_6_115:
        .byte   W48
        .byte           EOT   , En0
        .byte                   En1
        .byte           N96   , Fs1 , v112
        .byte           N96   , Fs0
        .byte   W48
        .byte   PEND
@ 116   ----------------------------------------
mus_thpprf_nobeta_2_6_116:
        .byte   W48
        .byte           N48   , Dn1 , v112
        .byte           N48   , Dn0
        .byte   W48
        .byte   PEND
@ 117   ----------------------------------------
mus_thpprf_nobeta_2_6_117:
        .byte           TIE   , An1 , v112
        .byte           TIE   , An0
        .byte   W96
        .byte   PEND
@ 118   ----------------------------------------
mus_thpprf_nobeta_2_6_118:
        .byte   W48
        .byte           EOT   , An0
        .byte                   An1
        .byte           TIE   , Fs1 , v112
        .byte           TIE   , Fs0
        .byte   W48
        .byte   PEND
@ 119   ----------------------------------------
        .byte   W96
@ 120   ----------------------------------------
mus_thpprf_nobeta_2_6_120:
        .byte           EOT   , Fs0
        .byte                   Fs1
        .byte           TIE   , En1 , v112
        .byte           TIE   , En0
        .byte   W96
        .byte   PEND
@ 121   ----------------------------------------
        .byte   PATT
         .word  mus_thpprf_nobeta_2_6_115
@ 122   ----------------------------------------
mus_thpprf_nobeta_2_6_122:
        .byte   W48
        .byte           N48   , En1 , v112
        .byte           N48   , En0
        .byte   W48
        .byte   PEND
@ 123   ----------------------------------------
mus_thpprf_nobeta_2_6_123:
        .byte           TIE   , Dn1 , v112
        .byte           TIE   , Dn0
        .byte   W96
        .byte   PEND
@ 124   ----------------------------------------
        .byte   W96
@ 125   ----------------------------------------
        .byte   W96
@ 126   ----------------------------------------
        .byte   PATT
         .word  mus_thpprf_nobeta_2_6_114
@ 127   ----------------------------------------
mus_thpprf_nobeta_2_6_127:
        .byte   W48
        .byte           EOT   , En0
        .byte                   En1
        .byte           TIE   , Fs1 , v112
        .byte           TIE   , Fs0
        .byte   W48
        .byte   PEND
@ 128   ----------------------------------------
        .byte   W96
@ 129   ----------------------------------------
mus_thpprf_nobeta_2_6_129:
        .byte           EOT   , Fs0
        .byte                   Fs1
        .byte           TIE   , An1 , v112
        .byte           TIE   , An0
        .byte   W96
        .byte   PEND
@ 130   ----------------------------------------
mus_thpprf_nobeta_2_6_130:
        .byte   W48
        .byte           EOT   , An0
        .byte                   An1
        .byte           TIE   , Gn1 , v112
        .byte           TIE   , Gn0
        .byte   W48
        .byte   PEND
@ 131   ----------------------------------------
        .byte   W96
@ 132   ----------------------------------------
mus_thpprf_nobeta_2_6_132:
        .byte           EOT   , Gn0
        .byte                   Gn1
        .byte           TIE   , An1 , v112
        .byte           TIE   , An0
        .byte   W96
        .byte   PEND
@ 133   ----------------------------------------
mus_thpprf_nobeta_2_6_133:
        .byte   W48
        .byte           EOT   , An0
        .byte                   An1
        .byte           TIE   , Bn1 , v112
        .byte           TIE   , Bn0
        .byte   W48
        .byte   PEND
@ 134   ----------------------------------------
        .byte   W96
@ 135   ----------------------------------------
        .byte           EOT
        .byte           EOT   , Bn1
        .byte           VOICE , 36
        .byte           VOL   , 112
        .byte           N09   , Fs2
        .byte   W12
        .byte                   Fs2
        .byte   W12
        .byte                   Fs2
        .byte   W12
        .byte                   Fs2
        .byte   W12
        .byte                   Fs2
        .byte   W12
        .byte                   Fs2
        .byte   W12
        .byte                   Fs2
        .byte   W12
        .byte                   Fs2
        .byte   W12
@ 136   ----------------------------------------
        .byte   PATT
         .word  mus_thpprf_nobeta_2_1_122
@ 137   ----------------------------------------
        .byte   PATT
         .word  mus_thpprf_nobeta_2_1_114
@ 138   ----------------------------------------
        .byte   PATT
         .word  mus_thpprf_nobeta_2_1_114
@ 139   ----------------------------------------
mus_thpprf_nobeta_2_6_139:
        .byte           N09   , En2 , v112
        .byte   W12
        .byte                   En2
        .byte   W12
        .byte                   En2
        .byte   W12
        .byte                   En2
        .byte   W12
        .byte                   Dn2
        .byte   W12
        .byte                   Dn2
        .byte   W12
        .byte                   Dn2
        .byte   W12
        .byte                   Dn2
        .byte   W12
        .byte   PEND
@ 140   ----------------------------------------
        .byte   PATT
         .word  mus_thpprf_nobeta_2_1_112
@ 141   ----------------------------------------
        .byte   PATT
         .word  mus_thpprf_nobeta_2_1_117
@ 142   ----------------------------------------
        .byte           N09   , An2 , v112
        .byte   W12
        .byte                   An2
        .byte   W12
        .byte                   An2
        .byte   W12
        .byte                   An2
        .byte   W12
        .byte                   Gs2
        .byte   W12
        .byte                   Gs2
        .byte   W12
        .byte                   Gs2
        .byte   W12
        .byte                   Gs2
        .byte   W12
@ 143   ----------------------------------------
        .byte                   Gs2
        .byte   W12
        .byte                   Gs2
        .byte   W12
        .byte                   Gs2
        .byte   W12
        .byte                   Gs2
        .byte   W12
        .byte                   Gs2
        .byte   W12
        .byte                   Gs2
        .byte   W12
        .byte                   Gs2
        .byte   W12
        .byte                   Gs2
        .byte   W12
@ 144   ----------------------------------------
        .byte   PATT
         .word  mus_thpprf_nobeta_2_1_131
@ 145   ----------------------------------------
        .byte           N09   , Gn2 , v112
        .byte   W12
        .byte                   Gn2
        .byte   W12
        .byte                   Gn2
        .byte   W12
        .byte                   Gn2
        .byte   W12
        .byte                   Fs2
        .byte   W12
        .byte                   Fs2
        .byte   W12
        .byte                   Fs2
        .byte   W12
        .byte                   Fs2
        .byte   W12
@ 146   ----------------------------------------
        .byte   PATT
         .word  mus_thpprf_nobeta_2_1_119
@ 147   ----------------------------------------
        .byte   PATT
         .word  mus_thpprf_nobeta_2_1_119
@ 148   ----------------------------------------
        .byte   PATT
         .word  mus_thpprf_nobeta_2_1_122
@ 149   ----------------------------------------
        .byte   PATT
         .word  mus_thpprf_nobeta_2_1_114
@ 150   ----------------------------------------
        .byte   PATT
         .word  mus_thpprf_nobeta_2_1_114
@ 151   ----------------------------------------
        .byte   PATT
         .word  mus_thpprf_nobeta_2_6_139
@ 152   ----------------------------------------
        .byte           N09   , Dn2 , v112
        .byte   W12
        .byte                   Dn2
        .byte   W12
        .byte                   Dn2
        .byte   W12
        .byte                   Dn2
        .byte   W12
        .byte                   Cs2
        .byte   W12
        .byte                   Cs2
        .byte   W12
        .byte                   Dn2
        .byte   W12
        .byte                   Dn2
        .byte   W12
@ 153   ----------------------------------------
        .byte   PATT
         .word  mus_thpprf_nobeta_2_1_117
@ 154   ----------------------------------------
        .byte           N09   , Bn2 , v112
        .byte   W12
        .byte                   Bn2
        .byte   W12
        .byte                   Bn2
        .byte   W12
        .byte                   Bn2
        .byte   W12
        .byte                   Gn2
        .byte   W12
        .byte                   Gn2
        .byte   W12
        .byte                   Gn2
        .byte   W12
        .byte                   Gn2
        .byte   W12
@ 155   ----------------------------------------
        .byte   PATT
         .word  mus_thpprf_nobeta_2_1_131
@ 156   ----------------------------------------
        .byte           N09   , Dn3 , v112
        .byte   W12
        .byte                   Dn3
        .byte   W12
        .byte                   Dn3
        .byte   W12
        .byte                   Dn3
        .byte   W12
        .byte                   Dn3
        .byte   W12
        .byte                   Dn3
        .byte   W12
        .byte                   Dn3
        .byte   W12
        .byte                   Dn3
        .byte   W12
@ 157   ----------------------------------------
        .byte                   En3
        .byte   W12
        .byte                   En3
        .byte   W12
        .byte                   En3
        .byte   W12
        .byte                   En3
        .byte   W12
        .byte                   Cs3
        .byte   W12
        .byte                   Cs3
        .byte   W12
        .byte                   Cs3
        .byte   W12
        .byte                   Cs3
        .byte   W12
@ 158   ----------------------------------------
        .byte                   Cs3
        .byte   W12
        .byte                   Cs3
        .byte   W12
        .byte                   Cs3
        .byte   W12
        .byte                   Cs3
        .byte   W12
        .byte                   Cs3
        .byte   W12
        .byte                   Cs3
        .byte   W12
        .byte                   Cs3
        .byte   W12
        .byte                   Cs3
        .byte   W12
@ 159   ----------------------------------------
        .byte   PATT
         .word  mus_thpprf_nobeta_2_6_111
@ 160   ----------------------------------------
        .byte   W96
@ 161   ----------------------------------------
        .byte   W96
@ 162   ----------------------------------------
        .byte   PATT
         .word  mus_thpprf_nobeta_2_6_114
@ 163   ----------------------------------------
        .byte   PATT
         .word  mus_thpprf_nobeta_2_6_115
@ 164   ----------------------------------------
        .byte   PATT
         .word  mus_thpprf_nobeta_2_6_116
@ 165   ----------------------------------------
        .byte   PATT
         .word  mus_thpprf_nobeta_2_6_117
@ 166   ----------------------------------------
        .byte   PATT
         .word  mus_thpprf_nobeta_2_6_118
@ 167   ----------------------------------------
        .byte   W96
@ 168   ----------------------------------------
        .byte   PATT
         .word  mus_thpprf_nobeta_2_6_120
@ 169   ----------------------------------------
        .byte   PATT
         .word  mus_thpprf_nobeta_2_6_115
@ 170   ----------------------------------------
        .byte   PATT
         .word  mus_thpprf_nobeta_2_6_122
@ 171   ----------------------------------------
        .byte   PATT
         .word  mus_thpprf_nobeta_2_6_123
@ 172   ----------------------------------------
        .byte   W96
@ 173   ----------------------------------------
        .byte   W96
@ 174   ----------------------------------------
        .byte   PATT
         .word  mus_thpprf_nobeta_2_6_114
@ 175   ----------------------------------------
        .byte   PATT
         .word  mus_thpprf_nobeta_2_6_127
@ 176   ----------------------------------------
        .byte   W96
@ 177   ----------------------------------------
        .byte   PATT
         .word  mus_thpprf_nobeta_2_6_129
@ 178   ----------------------------------------
        .byte   PATT
         .word  mus_thpprf_nobeta_2_6_130
@ 179   ----------------------------------------
        .byte   W96
@ 180   ----------------------------------------
        .byte   PATT
         .word  mus_thpprf_nobeta_2_6_132
@ 181   ----------------------------------------
        .byte   PATT
         .word  mus_thpprf_nobeta_2_6_133
@ 182   ----------------------------------------
        .byte   W96
@ 183   ----------------------------------------
        .byte           EOT   , Bn0
        .byte                   Bn1
        .byte   W96
@ 184   ----------------------------------------
        .byte   W96
@ 185   ----------------------------------------
        .byte   W96
@ 186   ----------------------------------------
        .byte   W96
@ 187   ----------------------------------------
        .byte   W96
@ 188   ----------------------------------------
        .byte   W96
@ 189   ----------------------------------------
        .byte   W96
@ 190   ----------------------------------------
        .byte   W96
@ 191   ----------------------------------------
        .byte   W96
@ 192   ----------------------------------------
        .byte   W96
@ 193   ----------------------------------------
        .byte   W96
@ 194   ----------------------------------------
        .byte   W96
@ 195   ----------------------------------------
        .byte   W96
@ 196   ----------------------------------------
        .byte   W96
@ 197   ----------------------------------------
        .byte   W96
@ 198   ----------------------------------------
        .byte   W96
@ 199   ----------------------------------------
        .byte   W96
@ 200   ----------------------------------------
        .byte   W96
@ 201   ----------------------------------------
        .byte   W96
@ 202   ----------------------------------------
        .byte   W96
@ 203   ----------------------------------------
        .byte   W96
@ 204   ----------------------------------------
        .byte   W96
@ 205   ----------------------------------------
        .byte   W96
@ 206   ----------------------------------------
        .byte   W96
@ 207   ----------------------------------------
        .byte   W96
@ 208   ----------------------------------------
        .byte   W96
@ 209   ----------------------------------------
        .byte   W96
@ 210   ----------------------------------------
        .byte   W96
@ 211   ----------------------------------------
        .byte   W96
@ 212   ----------------------------------------
        .byte   W96
@ 213   ----------------------------------------
        .byte   W96
@ 214   ----------------------------------------
        .byte   W96
@ 215   ----------------------------------------
        .byte   W96
@ 216   ----------------------------------------
        .byte   W96
@ 217   ----------------------------------------
        .byte   W96
@ 218   ----------------------------------------
        .byte           VOICE , 5
        .byte           VOL   , 112
        .byte   GOTO
         .word  mus_thpprf_nobeta_2_6_LOOP
        .byte   FINE

@****************** Track 7 (Midi-Chn.7) ******************@

mus_thpprf_nobeta_2_7:
        .byte   KEYSH , mus_thpprf_nobeta_2_key+0
@ 000   ----------------------------------------
        .byte           VOICE , 47
        .byte           VOL   , 109
        .byte   W96
@ 001   ----------------------------------------
        .byte   W96
@ 002   ----------------------------------------
        .byte   W96
@ 003   ----------------------------------------
        .byte   W96
@ 004   ----------------------------------------
        .byte   W96
@ 005   ----------------------------------------
        .byte   W96
@ 006   ----------------------------------------
        .byte   W96
@ 007   ----------------------------------------
        .byte   W96
@ 008   ----------------------------------------
        .byte   W96
@ 009   ----------------------------------------
        .byte   W96
@ 010   ----------------------------------------
        .byte   W96
@ 011   ----------------------------------------
        .byte   W96
@ 012   ----------------------------------------
        .byte   W96
@ 013   ----------------------------------------
        .byte   W96
@ 014   ----------------------------------------
        .byte   W96
@ 015   ----------------------------------------
        .byte   W96
@ 016   ----------------------------------------
        .byte   W96
@ 017   ----------------------------------------
        .byte   W96
@ 018   ----------------------------------------
        .byte   W96
@ 019   ----------------------------------------
        .byte   W96
@ 020   ----------------------------------------
        .byte   W96
@ 021   ----------------------------------------
        .byte   W96
@ 022   ----------------------------------------
        .byte   W96
@ 023   ----------------------------------------
        .byte   W96
@ 024   ----------------------------------------
        .byte   W96
@ 025   ----------------------------------------
        .byte   W96
@ 026   ----------------------------------------
        .byte   W96
@ 027   ----------------------------------------
        .byte   W96
@ 028   ----------------------------------------
        .byte   W96
@ 029   ----------------------------------------
        .byte   W96
@ 030   ----------------------------------------
        .byte   W96
@ 031   ----------------------------------------
        .byte   W96
@ 032   ----------------------------------------
        .byte   W96
@ 033   ----------------------------------------
        .byte   W96
@ 034   ----------------------------------------
        .byte   W96
@ 035   ----------------------------------------
        .byte   W96
@ 036   ----------------------------------------
        .byte   W96
@ 037   ----------------------------------------
        .byte   W96
@ 038   ----------------------------------------
mus_thpprf_nobeta_2_7_38:
        .byte           N06   , Fs1 , v123
        .byte   W09
        .byte                   Fs1
        .byte   W09
        .byte                   Fs1
        .byte   W09
        .byte                   Fs1
        .byte   W09
        .byte                   Fs1
        .byte   W12
        .byte           N24   , Cn2
        .byte   W48
        .byte   PEND
@ 039   ----------------------------------------
        .byte   W96
@ 040   ----------------------------------------
mus_thpprf_nobeta_2_7_40:
        .byte   W48
        .byte           N24   , Cn2 , v123
        .byte   W48
        .byte   PEND
@ 041   ----------------------------------------
        .byte   W24
        .byte                   Cn2
        .byte   W72
@ 042   ----------------------------------------
        .byte                   Cn2
        .byte   W72
        .byte                   Cn2
        .byte   W24
@ 043   ----------------------------------------
        .byte   PATT
         .word  mus_thpprf_nobeta_2_7_40
@ 044   ----------------------------------------
        .byte   W48
        .byte           N06   , Fs1 , v123
        .byte   W09
        .byte                   Fs1
        .byte   W09
        .byte                   Fs1
        .byte   W09
        .byte                   Fs1
        .byte   W09
        .byte                   Fs1
        .byte   W12
@ 045   ----------------------------------------
        .byte           N24   , Cn2
        .byte   W96
@ 046   ----------------------------------------
        .byte                   Cn2
        .byte   W96
@ 047   ----------------------------------------
        .byte   PATT
         .word  mus_thpprf_nobeta_2_7_40
@ 048   ----------------------------------------
        .byte   W96
@ 049   ----------------------------------------
        .byte   PATT
         .word  mus_thpprf_nobeta_2_7_38
@ 050   ----------------------------------------
        .byte   W96
@ 051   ----------------------------------------
mus_thpprf_nobeta_2_7_51:
        .byte           VOL   , 112
        .byte           N24   , Cn2 , v123
        .byte   W48
        .byte                   Cn2
        .byte   W48
        .byte   PEND
@ 052   ----------------------------------------
        .byte   PATT
         .word  mus_thpprf_nobeta_2_7_38
@ 053   ----------------------------------------
mus_thpprf_nobeta_2_7_53:
        .byte           N24   , Cn2 , v123
        .byte   W48
        .byte                   Cn2
        .byte   W48
        .byte   PEND
@ 054   ----------------------------------------
        .byte   PATT
         .word  mus_thpprf_nobeta_2_7_53
@ 055   ----------------------------------------
mus_thpprf_nobeta_2_7_55:
        .byte           N24   , Fs1 , v123
        .byte   W48
        .byte                   Cn2
        .byte   W48
        .byte   PEND
@ 056   ----------------------------------------
        .byte   PATT
         .word  mus_thpprf_nobeta_2_7_53
@ 057   ----------------------------------------
        .byte   PATT
         .word  mus_thpprf_nobeta_2_7_53
@ 058   ----------------------------------------
        .byte   PATT
         .word  mus_thpprf_nobeta_2_7_38
@ 059   ----------------------------------------
        .byte   PATT
         .word  mus_thpprf_nobeta_2_7_53
@ 060   ----------------------------------------
mus_thpprf_nobeta_2_7_60:
        .byte           N24   , Cn2 , v123
        .byte   W72
        .byte                   Fs1
        .byte   W24
        .byte   PEND
@ 061   ----------------------------------------
mus_thpprf_nobeta_2_7_61:
        .byte           N24   , Cn2 , v123
        .byte   W24
        .byte                   Fs1
        .byte   W24
        .byte                   Cn2
        .byte   W48
        .byte   PEND
@ 062   ----------------------------------------
mus_thpprf_nobeta_2_7_62:
        .byte           N06   , Cn2 , v123
        .byte   W09
        .byte                   Cn2
        .byte   W09
        .byte                   Cn2
        .byte   W09
        .byte                   Cn2
        .byte   W09
        .byte                   Cn2
        .byte   W09
        .byte                   Cn2
        .byte   W09
        .byte                   Cn2
        .byte   W09
        .byte                   Cn2
        .byte   W09
        .byte                   Cn2
        .byte   W09
        .byte                   Cn2
        .byte   W09
        .byte                   Cn2
        .byte   W06
        .byte   PEND
@ 063   ----------------------------------------
        .byte   W96
@ 064   ----------------------------------------
        .byte   W96
@ 065   ----------------------------------------
        .byte   W96
@ 066   ----------------------------------------
        .byte   W96
@ 067   ----------------------------------------
        .byte   W96
@ 068   ----------------------------------------
        .byte   W96
@ 069   ----------------------------------------
        .byte   W96
@ 070   ----------------------------------------
        .byte   W96
@ 071   ----------------------------------------
        .byte   W96
@ 072   ----------------------------------------
        .byte   W96
@ 073   ----------------------------------------
        .byte   W96
@ 074   ----------------------------------------
mus_thpprf_nobeta_2_7_LOOP:
        .byte   W96
@ 075   ----------------------------------------
        .byte   W96
@ 076   ----------------------------------------
        .byte   W96
@ 077   ----------------------------------------
        .byte   W96
@ 078   ----------------------------------------
        .byte   W96
@ 079   ----------------------------------------
        .byte   W96
@ 080   ----------------------------------------
        .byte   W96
@ 081   ----------------------------------------
        .byte   W96
@ 082   ----------------------------------------
        .byte   W96
@ 083   ----------------------------------------
        .byte   W96
@ 084   ----------------------------------------
        .byte   W96
@ 085   ----------------------------------------
        .byte   W96
@ 086   ----------------------------------------
        .byte   W96
@ 087   ----------------------------------------
        .byte   W96
@ 088   ----------------------------------------
        .byte   W96
@ 089   ----------------------------------------
        .byte   W96
@ 090   ----------------------------------------
        .byte   W96
@ 091   ----------------------------------------
        .byte   W96
@ 092   ----------------------------------------
        .byte   W96
@ 093   ----------------------------------------
        .byte   W96
@ 094   ----------------------------------------
        .byte   W96
@ 095   ----------------------------------------
        .byte   W96
@ 096   ----------------------------------------
        .byte   W96
@ 097   ----------------------------------------
        .byte   W96
@ 098   ----------------------------------------
        .byte   W96
@ 099   ----------------------------------------
        .byte   W96
@ 100   ----------------------------------------
        .byte   W96
@ 101   ----------------------------------------
        .byte   W96
@ 102   ----------------------------------------
        .byte   W96
@ 103   ----------------------------------------
        .byte   W96
@ 104   ----------------------------------------
        .byte   W96
@ 105   ----------------------------------------
        .byte   W96
@ 106   ----------------------------------------
        .byte   W96
@ 107   ----------------------------------------
        .byte   W96
@ 108   ----------------------------------------
        .byte   W96
@ 109   ----------------------------------------
        .byte   W96
@ 110   ----------------------------------------
        .byte   W96
@ 111   ----------------------------------------
        .byte           VOL   , 109
        .byte           N24   , Cn2 , v123
        .byte   W48
        .byte                   Fs1
        .byte   W24
        .byte                   Cn2 , v112
        .byte   W24
@ 112   ----------------------------------------
mus_thpprf_nobeta_2_7_112:
        .byte   W24
        .byte           N24   , Fs1 , v123
        .byte   W24
        .byte                   Cn2
        .byte   W48
        .byte   PEND
@ 113   ----------------------------------------
        .byte   PATT
         .word  mus_thpprf_nobeta_2_7_53
@ 114   ----------------------------------------
mus_thpprf_nobeta_2_7_114:
        .byte           N24   , Cn2 , v123
        .byte   W48
        .byte                   Fs1
        .byte   W24
        .byte                   Cn2 , v112
        .byte   W24
        .byte   PEND
@ 115   ----------------------------------------
        .byte   PATT
         .word  mus_thpprf_nobeta_2_7_112
@ 116   ----------------------------------------
        .byte   PATT
         .word  mus_thpprf_nobeta_2_7_53
@ 117   ----------------------------------------
        .byte   PATT
         .word  mus_thpprf_nobeta_2_7_114
@ 118   ----------------------------------------
        .byte   PATT
         .word  mus_thpprf_nobeta_2_7_112
@ 119   ----------------------------------------
        .byte   PATT
         .word  mus_thpprf_nobeta_2_7_53
@ 120   ----------------------------------------
        .byte   PATT
         .word  mus_thpprf_nobeta_2_7_114
@ 121   ----------------------------------------
        .byte   PATT
         .word  mus_thpprf_nobeta_2_7_112
@ 122   ----------------------------------------
        .byte   PATT
         .word  mus_thpprf_nobeta_2_7_53
@ 123   ----------------------------------------
        .byte   PATT
         .word  mus_thpprf_nobeta_2_7_114
@ 124   ----------------------------------------
        .byte   PATT
         .word  mus_thpprf_nobeta_2_7_112
@ 125   ----------------------------------------
        .byte   PATT
         .word  mus_thpprf_nobeta_2_7_53
@ 126   ----------------------------------------
        .byte   PATT
         .word  mus_thpprf_nobeta_2_7_114
@ 127   ----------------------------------------
        .byte   PATT
         .word  mus_thpprf_nobeta_2_7_112
@ 128   ----------------------------------------
        .byte   PATT
         .word  mus_thpprf_nobeta_2_7_53
@ 129   ----------------------------------------
        .byte   PATT
         .word  mus_thpprf_nobeta_2_7_114
@ 130   ----------------------------------------
        .byte   PATT
         .word  mus_thpprf_nobeta_2_7_112
@ 131   ----------------------------------------
        .byte   PATT
         .word  mus_thpprf_nobeta_2_7_53
@ 132   ----------------------------------------
        .byte   PATT
         .word  mus_thpprf_nobeta_2_7_114
@ 133   ----------------------------------------
        .byte   PATT
         .word  mus_thpprf_nobeta_2_7_112
@ 134   ----------------------------------------
        .byte   PATT
         .word  mus_thpprf_nobeta_2_7_53
@ 135   ----------------------------------------
        .byte   W96
@ 136   ----------------------------------------
        .byte   W96
@ 137   ----------------------------------------
        .byte   W96
@ 138   ----------------------------------------
        .byte   W96
@ 139   ----------------------------------------
        .byte   W96
@ 140   ----------------------------------------
        .byte   W96
@ 141   ----------------------------------------
        .byte   W96
@ 142   ----------------------------------------
        .byte   W96
@ 143   ----------------------------------------
        .byte   W96
@ 144   ----------------------------------------
        .byte   W96
@ 145   ----------------------------------------
        .byte   W96
@ 146   ----------------------------------------
        .byte   W96
@ 147   ----------------------------------------
        .byte   W96
@ 148   ----------------------------------------
        .byte   W96
@ 149   ----------------------------------------
        .byte   W96
@ 150   ----------------------------------------
        .byte   W96
@ 151   ----------------------------------------
        .byte   W96
@ 152   ----------------------------------------
        .byte   W96
@ 153   ----------------------------------------
        .byte   W96
@ 154   ----------------------------------------
        .byte   W96
@ 155   ----------------------------------------
        .byte   W96
@ 156   ----------------------------------------
        .byte   W96
@ 157   ----------------------------------------
        .byte   W96
@ 158   ----------------------------------------
        .byte   W96
@ 159   ----------------------------------------
        .byte   PATT
         .word  mus_thpprf_nobeta_2_7_114
@ 160   ----------------------------------------
        .byte   PATT
         .word  mus_thpprf_nobeta_2_7_112
@ 161   ----------------------------------------
        .byte   PATT
         .word  mus_thpprf_nobeta_2_7_53
@ 162   ----------------------------------------
        .byte   PATT
         .word  mus_thpprf_nobeta_2_7_114
@ 163   ----------------------------------------
        .byte   PATT
         .word  mus_thpprf_nobeta_2_7_112
@ 164   ----------------------------------------
        .byte   PATT
         .word  mus_thpprf_nobeta_2_7_53
@ 165   ----------------------------------------
        .byte   PATT
         .word  mus_thpprf_nobeta_2_7_114
@ 166   ----------------------------------------
        .byte   PATT
         .word  mus_thpprf_nobeta_2_7_112
@ 167   ----------------------------------------
        .byte   PATT
         .word  mus_thpprf_nobeta_2_7_53
@ 168   ----------------------------------------
        .byte   PATT
         .word  mus_thpprf_nobeta_2_7_114
@ 169   ----------------------------------------
        .byte   PATT
         .word  mus_thpprf_nobeta_2_7_112
@ 170   ----------------------------------------
        .byte   PATT
         .word  mus_thpprf_nobeta_2_7_53
@ 171   ----------------------------------------
        .byte   PATT
         .word  mus_thpprf_nobeta_2_7_114
@ 172   ----------------------------------------
        .byte   PATT
         .word  mus_thpprf_nobeta_2_7_112
@ 173   ----------------------------------------
        .byte   PATT
         .word  mus_thpprf_nobeta_2_7_53
@ 174   ----------------------------------------
        .byte   PATT
         .word  mus_thpprf_nobeta_2_7_114
@ 175   ----------------------------------------
        .byte   PATT
         .word  mus_thpprf_nobeta_2_7_112
@ 176   ----------------------------------------
        .byte   PATT
         .word  mus_thpprf_nobeta_2_7_53
@ 177   ----------------------------------------
        .byte   PATT
         .word  mus_thpprf_nobeta_2_7_114
@ 178   ----------------------------------------
        .byte   PATT
         .word  mus_thpprf_nobeta_2_7_112
@ 179   ----------------------------------------
        .byte   PATT
         .word  mus_thpprf_nobeta_2_7_53
@ 180   ----------------------------------------
        .byte   PATT
         .word  mus_thpprf_nobeta_2_7_114
@ 181   ----------------------------------------
        .byte   PATT
         .word  mus_thpprf_nobeta_2_7_112
@ 182   ----------------------------------------
        .byte   PATT
         .word  mus_thpprf_nobeta_2_7_53
@ 183   ----------------------------------------
        .byte   PATT
         .word  mus_thpprf_nobeta_2_7_51
@ 184   ----------------------------------------
        .byte   PATT
         .word  mus_thpprf_nobeta_2_7_38
@ 185   ----------------------------------------
        .byte   PATT
         .word  mus_thpprf_nobeta_2_7_53
@ 186   ----------------------------------------
        .byte   PATT
         .word  mus_thpprf_nobeta_2_7_53
@ 187   ----------------------------------------
        .byte   PATT
         .word  mus_thpprf_nobeta_2_7_55
@ 188   ----------------------------------------
        .byte   PATT
         .word  mus_thpprf_nobeta_2_7_53
@ 189   ----------------------------------------
        .byte   PATT
         .word  mus_thpprf_nobeta_2_7_53
@ 190   ----------------------------------------
        .byte   PATT
         .word  mus_thpprf_nobeta_2_7_38
@ 191   ----------------------------------------
        .byte   PATT
         .word  mus_thpprf_nobeta_2_7_53
@ 192   ----------------------------------------
        .byte   PATT
         .word  mus_thpprf_nobeta_2_7_60
@ 193   ----------------------------------------
        .byte   PATT
         .word  mus_thpprf_nobeta_2_7_61
@ 194   ----------------------------------------
        .byte   PATT
         .word  mus_thpprf_nobeta_2_7_62
@ 195   ----------------------------------------
        .byte   PATT
         .word  mus_thpprf_nobeta_2_7_53
@ 196   ----------------------------------------
        .byte   PATT
         .word  mus_thpprf_nobeta_2_7_38
@ 197   ----------------------------------------
        .byte   PATT
         .word  mus_thpprf_nobeta_2_7_53
@ 198   ----------------------------------------
        .byte   PATT
         .word  mus_thpprf_nobeta_2_7_53
@ 199   ----------------------------------------
        .byte   PATT
         .word  mus_thpprf_nobeta_2_7_55
@ 200   ----------------------------------------
        .byte   PATT
         .word  mus_thpprf_nobeta_2_7_53
@ 201   ----------------------------------------
        .byte   PATT
         .word  mus_thpprf_nobeta_2_7_53
@ 202   ----------------------------------------
        .byte   PATT
         .word  mus_thpprf_nobeta_2_7_38
@ 203   ----------------------------------------
        .byte   PATT
         .word  mus_thpprf_nobeta_2_7_53
@ 204   ----------------------------------------
        .byte   PATT
         .word  mus_thpprf_nobeta_2_7_60
@ 205   ----------------------------------------
        .byte   PATT
         .word  mus_thpprf_nobeta_2_7_61
@ 206   ----------------------------------------
        .byte   PATT
         .word  mus_thpprf_nobeta_2_7_62
@ 207   ----------------------------------------
        .byte   W96
@ 208   ----------------------------------------
        .byte   W96
@ 209   ----------------------------------------
        .byte   W96
@ 210   ----------------------------------------
        .byte   W96
@ 211   ----------------------------------------
        .byte   W96
@ 212   ----------------------------------------
        .byte   W96
@ 213   ----------------------------------------
        .byte   W96
@ 214   ----------------------------------------
        .byte   W96
@ 215   ----------------------------------------
        .byte   W96
@ 216   ----------------------------------------
        .byte   W96
@ 217   ----------------------------------------
        .byte   W96
@ 218   ----------------------------------------
        .byte   GOTO
         .word  mus_thpprf_nobeta_2_7_LOOP
        .byte   FINE

@****************** Track 8 (Midi-Chn.8) ******************@

mus_thpprf_nobeta_2_8:
        .byte   KEYSH , mus_thpprf_nobeta_2_key+0
@ 000   ----------------------------------------
        .byte           VOICE , 0
        .byte           VOL   , 94
        .byte   W96
@ 001   ----------------------------------------
        .byte   W96
@ 002   ----------------------------------------
        .byte   W96
@ 003   ----------------------------------------
        .byte   W96
@ 004   ----------------------------------------
        .byte   W96
@ 005   ----------------------------------------
        .byte   W96
@ 006   ----------------------------------------
        .byte   W96
@ 007   ----------------------------------------
        .byte   W96
@ 008   ----------------------------------------
        .byte   W96
@ 009   ----------------------------------------
        .byte   W96
@ 010   ----------------------------------------
        .byte   W96
@ 011   ----------------------------------------
        .byte   W96
@ 012   ----------------------------------------
        .byte   W96
@ 013   ----------------------------------------
        .byte   W96
@ 014   ----------------------------------------
        .byte   W96
@ 015   ----------------------------------------
        .byte   W96
@ 016   ----------------------------------------
        .byte   W96
@ 017   ----------------------------------------
        .byte   W96
@ 018   ----------------------------------------
        .byte   W96
@ 019   ----------------------------------------
        .byte   W96
@ 020   ----------------------------------------
        .byte   W96
@ 021   ----------------------------------------
        .byte   W96
@ 022   ----------------------------------------
        .byte   W96
@ 023   ----------------------------------------
        .byte   W96
@ 024   ----------------------------------------
        .byte   W96
@ 025   ----------------------------------------
        .byte   W96
@ 026   ----------------------------------------
        .byte   W96
@ 027   ----------------------------------------
        .byte   W96
@ 028   ----------------------------------------
        .byte   W96
@ 029   ----------------------------------------
        .byte   W96
@ 030   ----------------------------------------
        .byte   W96
@ 031   ----------------------------------------
        .byte   W96
@ 032   ----------------------------------------
        .byte   W96
@ 033   ----------------------------------------
        .byte   W96
@ 034   ----------------------------------------
        .byte   W96
@ 035   ----------------------------------------
        .byte   W96
@ 036   ----------------------------------------
        .byte   W96
@ 037   ----------------------------------------
        .byte   W96
@ 038   ----------------------------------------
        .byte   W96
@ 039   ----------------------------------------
        .byte   W96
@ 040   ----------------------------------------
mus_thpprf_nobeta_2_8_40:
        .byte   W48
        .byte           N60   , An2 , v100
        .byte           N60   , Cs2
        .byte   W48
        .byte   PEND
@ 041   ----------------------------------------
        .byte   W96
@ 042   ----------------------------------------
        .byte   W96
@ 043   ----------------------------------------
        .byte   PATT
         .word  mus_thpprf_nobeta_2_8_40
@ 044   ----------------------------------------
        .byte   W96
@ 045   ----------------------------------------
        .byte   W96
@ 046   ----------------------------------------
        .byte   W96
@ 047   ----------------------------------------
mus_thpprf_nobeta_2_8_47:
        .byte   W30
        .byte           N03   , An2 , v031
        .byte           N03   , Cs2
        .byte   W03
        .byte                   An2 , v039
        .byte           N03   , Cs2
        .byte   W03
        .byte                   An2 , v045
        .byte           N03   , Cs2
        .byte   W03
        .byte                   An2
        .byte           N03   , Cs2
        .byte   W03
        .byte                   An2 , v050
        .byte           N03   , Cs2
        .byte   W03
        .byte                   An2 , v055
        .byte           N03   , Cs2
        .byte   W03
        .byte                   An2 , v059
        .byte           N03   , Cs2
        .byte   W03
        .byte                   An2 , v063
        .byte           N03   , Cs2
        .byte   W03
        .byte                   An2 , v067
        .byte           N03   , Cs2
        .byte   W03
        .byte                   An2 , v071
        .byte           N03   , Cs2
        .byte   W03
        .byte                   An2 , v078
        .byte           N03   , Cs2
        .byte   W03
        .byte                   An2 , v081
        .byte           N03   , Cs2
        .byte   W03
        .byte                   An2 , v084
        .byte           N03   , Cs2
        .byte   W03
        .byte                   An2
        .byte           N03   , Cs2
        .byte   W03
        .byte                   An2 , v087
        .byte           N03   , Cs2
        .byte   W03
        .byte                   An2 , v090
        .byte           N03   , Cs2
        .byte   W03
        .byte                   An2 , v092
        .byte           N03   , Cs2
        .byte   W03
        .byte                   An2 , v095
        .byte           N03   , Cs2
        .byte   W03
        .byte                   An2
        .byte           N03   , Cs2
        .byte   W03
        .byte                   An2 , v098
        .byte           N03   , Cs2
        .byte   W03
        .byte                   An2 , v100
        .byte           N03   , Cs2
        .byte   W03
        .byte                   An2
        .byte           N03   , Cs2
        .byte   W03
        .byte   PEND
@ 048   ----------------------------------------
mus_thpprf_nobeta_2_8_48:
        .byte           N60   , An2 , v100
        .byte           N60   , Cs2
        .byte   W96
        .byte   PEND
@ 049   ----------------------------------------
        .byte   W96
@ 050   ----------------------------------------
        .byte   W96
@ 051   ----------------------------------------
        .byte   PATT
         .word  mus_thpprf_nobeta_2_8_48
@ 052   ----------------------------------------
        .byte   W96
@ 053   ----------------------------------------
        .byte   W96
@ 054   ----------------------------------------
        .byte   W96
@ 055   ----------------------------------------
        .byte   W96
@ 056   ----------------------------------------
        .byte   W96
@ 057   ----------------------------------------
        .byte   PATT
         .word  mus_thpprf_nobeta_2_8_48
@ 058   ----------------------------------------
        .byte   W96
@ 059   ----------------------------------------
        .byte   W96
@ 060   ----------------------------------------
        .byte   W96
@ 061   ----------------------------------------
        .byte   W96
@ 062   ----------------------------------------
        .byte   PATT
         .word  mus_thpprf_nobeta_2_8_47
@ 063   ----------------------------------------
mus_thpprf_nobeta_2_8_63:
        .byte           N60   , An2 , v100
        .byte           N05   , Fs2 , v117
        .byte           N60   , Cs2 , v100
        .byte   W24
        .byte           N05   , Fs1 , v114
        .byte   W24
        .byte                   Fs2 , v117
        .byte   W24
        .byte                   Fs1 , v114
        .byte   W24
        .byte   PEND
@ 064   ----------------------------------------
mus_thpprf_nobeta_2_8_64:
        .byte           N05   , Fs2 , v117
        .byte   W24
        .byte                   Fs1 , v114
        .byte   W24
        .byte                   Fs2 , v117
        .byte           N05   , Fs1 , v114
        .byte   W06
        .byte                   Fs1
        .byte   W06
        .byte                   Fs1
        .byte   W06
        .byte                   Fs1
        .byte   W06
        .byte                   Fs1
        .byte   W06
        .byte                   Fs1
        .byte   W06
        .byte                   Fs1
        .byte   W06
        .byte                   Fs1
        .byte   W06
        .byte   PEND
@ 065   ----------------------------------------
mus_thpprf_nobeta_2_8_65:
        .byte           N05   , Fs2 , v117
        .byte           N20   , Dn1
        .byte   W24
        .byte           N05   , Fs1 , v114
        .byte   W24
        .byte                   Fs2 , v117
        .byte   W24
        .byte                   Fs1 , v114
        .byte   W24
        .byte   PEND
@ 066   ----------------------------------------
mus_thpprf_nobeta_2_8_66:
        .byte           N05   , Fs2 , v117
        .byte   W24
        .byte                   Fs1 , v114
        .byte   W24
        .byte                   Fs2 , v117
        .byte   W24
        .byte                   Fs1 , v114
        .byte   W24
        .byte   PEND
@ 067   ----------------------------------------
        .byte   PATT
         .word  mus_thpprf_nobeta_2_8_64
@ 068   ----------------------------------------
        .byte   PATT
         .word  mus_thpprf_nobeta_2_8_65
@ 069   ----------------------------------------
        .byte   PATT
         .word  mus_thpprf_nobeta_2_8_66
@ 070   ----------------------------------------
mus_thpprf_nobeta_2_8_70:
        .byte           N05   , Fs2 , v117
        .byte   W48
        .byte                   Fs2
        .byte           N05   , Fs1 , v114
        .byte   W06
        .byte                   Fs1
        .byte   W06
        .byte                   Fs1
        .byte   W06
        .byte                   Fs1
        .byte   W06
        .byte                   Fs1
        .byte   W06
        .byte                   Fs1
        .byte   W06
        .byte                   Fs1
        .byte   W06
        .byte                   Fs1
        .byte   W06
        .byte   PEND
@ 071   ----------------------------------------
        .byte   PATT
         .word  mus_thpprf_nobeta_2_8_65
@ 072   ----------------------------------------
        .byte   PATT
         .word  mus_thpprf_nobeta_2_8_66
@ 073   ----------------------------------------
        .byte   PATT
         .word  mus_thpprf_nobeta_2_8_64
@ 074   ----------------------------------------
mus_thpprf_nobeta_2_8_LOOP:
        .byte           N05   , Fs2 , v117
        .byte           N20   , Dn1
        .byte   W24
        .byte           N05   , Fs1 , v114
        .byte   W24
        .byte                   Fs2 , v117
        .byte   W24
        .byte                   Fs1 , v114
        .byte   W24
@ 075   ----------------------------------------
        .byte   PATT
         .word  mus_thpprf_nobeta_2_8_66
@ 076   ----------------------------------------
        .byte   PATT
         .word  mus_thpprf_nobeta_2_8_64
@ 077   ----------------------------------------
        .byte   PATT
         .word  mus_thpprf_nobeta_2_8_65
@ 078   ----------------------------------------
        .byte   PATT
         .word  mus_thpprf_nobeta_2_8_66
@ 079   ----------------------------------------
        .byte   PATT
         .word  mus_thpprf_nobeta_2_8_64
@ 080   ----------------------------------------
        .byte   PATT
         .word  mus_thpprf_nobeta_2_8_65
@ 081   ----------------------------------------
        .byte   PATT
         .word  mus_thpprf_nobeta_2_8_66
@ 082   ----------------------------------------
        .byte   PATT
         .word  mus_thpprf_nobeta_2_8_64
@ 083   ----------------------------------------
        .byte   PATT
         .word  mus_thpprf_nobeta_2_8_65
@ 084   ----------------------------------------
        .byte   PATT
         .word  mus_thpprf_nobeta_2_8_66
@ 085   ----------------------------------------
        .byte   PATT
         .word  mus_thpprf_nobeta_2_8_66
@ 086   ----------------------------------------
mus_thpprf_nobeta_2_8_86:
        .byte           N05   , Fs2 , v117
        .byte   W24
        .byte                   Fs1 , v114
        .byte   W06
        .byte           N03   , An2 , v031
        .byte           N03   , Cs2
        .byte   W03
        .byte                   An2 , v039
        .byte           N03   , Cs2
        .byte   W03
        .byte                   An2 , v045
        .byte           N03   , Cs2
        .byte   W03
        .byte                   An2
        .byte           N03   , Cs2
        .byte   W03
        .byte                   An2 , v050
        .byte           N03   , Cs2
        .byte   W03
        .byte                   An2 , v055
        .byte           N03   , Cs2
        .byte   W03
        .byte                   An2 , v059
        .byte           N05   , Fs2 , v117
        .byte           N03   , Cs2 , v059
        .byte   W03
        .byte                   An2 , v063
        .byte           N03   , Cs2
        .byte   W03
        .byte                   An2 , v067
        .byte           N03   , Cs2
        .byte   W03
        .byte                   An2 , v071
        .byte           N03   , Cs2
        .byte   W03
        .byte                   An2 , v078
        .byte           N03   , Cs2
        .byte   W03
        .byte                   An2 , v081
        .byte           N03   , Cs2
        .byte   W03
        .byte                   An2 , v084
        .byte           N03   , Cs2
        .byte   W03
        .byte                   An2
        .byte           N03   , Cs2
        .byte   W03
        .byte                   An2 , v087
        .byte           N03   , Cs2
        .byte           N05   , Fs1 , v114
        .byte   W03
        .byte           N03   , An2 , v090
        .byte           N03   , Cs2
        .byte   W03
        .byte                   An2 , v092
        .byte           N03   , Cs2
        .byte   W03
        .byte                   An2 , v095
        .byte           N03   , Cs2
        .byte   W03
        .byte                   An2
        .byte           N03   , Cs2
        .byte   W03
        .byte                   An2 , v098
        .byte           N03   , Cs2
        .byte   W03
        .byte                   An2 , v100
        .byte           N03   , Cs2
        .byte   W03
        .byte                   An2
        .byte           N03   , Cs2
        .byte   W03
        .byte   PEND
@ 087   ----------------------------------------
        .byte   PATT
         .word  mus_thpprf_nobeta_2_8_63
@ 088   ----------------------------------------
        .byte   PATT
         .word  mus_thpprf_nobeta_2_8_64
@ 089   ----------------------------------------
        .byte   PATT
         .word  mus_thpprf_nobeta_2_8_65
@ 090   ----------------------------------------
        .byte   PATT
         .word  mus_thpprf_nobeta_2_8_66
@ 091   ----------------------------------------
        .byte   PATT
         .word  mus_thpprf_nobeta_2_8_64
@ 092   ----------------------------------------
        .byte   PATT
         .word  mus_thpprf_nobeta_2_8_65
@ 093   ----------------------------------------
        .byte   PATT
         .word  mus_thpprf_nobeta_2_8_66
@ 094   ----------------------------------------
        .byte   PATT
         .word  mus_thpprf_nobeta_2_8_64
@ 095   ----------------------------------------
        .byte   PATT
         .word  mus_thpprf_nobeta_2_8_65
@ 096   ----------------------------------------
        .byte   PATT
         .word  mus_thpprf_nobeta_2_8_66
@ 097   ----------------------------------------
        .byte   PATT
         .word  mus_thpprf_nobeta_2_8_66
@ 098   ----------------------------------------
        .byte   PATT
         .word  mus_thpprf_nobeta_2_8_86
@ 099   ----------------------------------------
        .byte   PATT
         .word  mus_thpprf_nobeta_2_8_63
@ 100   ----------------------------------------
        .byte   PATT
         .word  mus_thpprf_nobeta_2_8_64
@ 101   ----------------------------------------
        .byte   PATT
         .word  mus_thpprf_nobeta_2_8_65
@ 102   ----------------------------------------
        .byte   PATT
         .word  mus_thpprf_nobeta_2_8_66
@ 103   ----------------------------------------
        .byte   PATT
         .word  mus_thpprf_nobeta_2_8_64
@ 104   ----------------------------------------
        .byte   PATT
         .word  mus_thpprf_nobeta_2_8_65
@ 105   ----------------------------------------
        .byte   PATT
         .word  mus_thpprf_nobeta_2_8_66
@ 106   ----------------------------------------
        .byte   PATT
         .word  mus_thpprf_nobeta_2_8_64
@ 107   ----------------------------------------
        .byte   PATT
         .word  mus_thpprf_nobeta_2_8_65
@ 108   ----------------------------------------
        .byte   PATT
         .word  mus_thpprf_nobeta_2_8_66
@ 109   ----------------------------------------
        .byte   PATT
         .word  mus_thpprf_nobeta_2_8_66
@ 110   ----------------------------------------
        .byte           N05   , Fs2 , v117
        .byte   W30
        .byte           N03   , An2 , v031
        .byte           N03   , Cs2
        .byte   W03
        .byte                   An2 , v039
        .byte           N03   , Cs2
        .byte   W03
        .byte                   An2 , v045
        .byte           N03   , Cs2
        .byte   W03
        .byte                   An2
        .byte           N03   , Cs2
        .byte   W03
        .byte                   An2 , v050
        .byte           N03   , Cs2
        .byte   W03
        .byte                   An2 , v055
        .byte           N03   , Cs2
        .byte   W03
        .byte                   An2 , v059
        .byte           N05   , Fs2 , v117
        .byte           N03   , Cs2 , v059
        .byte   W03
        .byte                   An2 , v063
        .byte           N03   , Cs2
        .byte   W03
        .byte                   An2 , v067
        .byte           N03   , Cs2
        .byte   W03
        .byte                   An2 , v071
        .byte           N03   , Cs2
        .byte   W03
        .byte                   An2 , v078
        .byte           N03   , Cs2
        .byte   W03
        .byte                   An2 , v081
        .byte           N03   , Cs2
        .byte   W03
        .byte                   An2 , v084
        .byte           N03   , Cs2
        .byte   W03
        .byte                   An2
        .byte           N03   , Cs2
        .byte   W03
        .byte                   An2 , v087
        .byte           N03   , Cs2
        .byte   W03
        .byte                   An2 , v090
        .byte           N03   , Cs2
        .byte   W03
        .byte                   An2 , v092
        .byte           N03   , Cs2
        .byte   W03
        .byte                   An2 , v095
        .byte           N03   , Cs2
        .byte   W03
        .byte                   An2
        .byte           N03   , Cs2
        .byte   W03
        .byte                   An2 , v098
        .byte           N03   , Cs2
        .byte   W03
        .byte                   An2 , v100
        .byte           N03   , Cs2
        .byte   W03
        .byte                   An2
        .byte           N03   , Cs2
        .byte   W03
@ 111   ----------------------------------------
mus_thpprf_nobeta_2_8_111:
        .byte           N60   , An2 , v100
        .byte           N60   , Cs2
        .byte           N10   , Cn1 , v127
        .byte   W48
        .byte           N05   , Fs1 , v114
        .byte   W12
        .byte                   Fs1
        .byte   W12
        .byte                   Fs1
        .byte   W12
        .byte                   Fs1
        .byte   W12
        .byte   PEND
@ 112   ----------------------------------------
mus_thpprf_nobeta_2_8_112:
        .byte           N05   , Fs1 , v114
        .byte   W48
        .byte           N10   , Cn1 , v127
        .byte   W48
        .byte   PEND
@ 113   ----------------------------------------
mus_thpprf_nobeta_2_8_113:
        .byte           N05   , Fs1 , v114
        .byte   W06
        .byte                   Fs1
        .byte   W06
        .byte                   Fs1
        .byte   W06
        .byte                   Fs1
        .byte   W06
        .byte                   Fs1
        .byte   W06
        .byte                   Fs1
        .byte   W06
        .byte                   Fs1
        .byte   W06
        .byte                   Fs1
        .byte   W06
        .byte           N20   , Dn1 , v117
        .byte   W48
        .byte   PEND
@ 114   ----------------------------------------
mus_thpprf_nobeta_2_8_114:
        .byte           N10   , Cn1 , v127
        .byte   W48
        .byte           N05   , Fs1 , v114
        .byte   W12
        .byte                   Fs1
        .byte   W12
        .byte                   Fs1
        .byte   W12
        .byte                   Fs1
        .byte   W12
        .byte   PEND
@ 115   ----------------------------------------
        .byte   PATT
         .word  mus_thpprf_nobeta_2_8_112
@ 116   ----------------------------------------
        .byte   PATT
         .word  mus_thpprf_nobeta_2_8_113
@ 117   ----------------------------------------
        .byte   PATT
         .word  mus_thpprf_nobeta_2_8_114
@ 118   ----------------------------------------
        .byte   PATT
         .word  mus_thpprf_nobeta_2_8_112
@ 119   ----------------------------------------
        .byte   PATT
         .word  mus_thpprf_nobeta_2_8_113
@ 120   ----------------------------------------
        .byte   PATT
         .word  mus_thpprf_nobeta_2_8_114
@ 121   ----------------------------------------
        .byte   PATT
         .word  mus_thpprf_nobeta_2_8_112
@ 122   ----------------------------------------
mus_thpprf_nobeta_2_8_122:
        .byte           N05   , Fs1 , v114
        .byte   W06
        .byte                   Fs1
        .byte   W06
        .byte                   Fs1
        .byte   W06
        .byte                   Fs1
        .byte   W06
        .byte                   Fs1
        .byte   W06
        .byte           N03   , An2 , v031
        .byte           N03   , Cs2
        .byte           N05   , Fs1 , v114
        .byte   W03
        .byte           N03   , An2 , v039
        .byte           N03   , Cs2
        .byte   W03
        .byte                   An2 , v045
        .byte           N03   , Cs2
        .byte           N05   , Fs1 , v114
        .byte   W03
        .byte           N03   , An2 , v045
        .byte           N03   , Cs2
        .byte   W03
        .byte                   An2 , v050
        .byte           N03   , Cs2
        .byte           N05   , Fs1 , v114
        .byte   W03
        .byte           N03   , An2 , v055
        .byte           N03   , Cs2
        .byte   W03
        .byte                   An2 , v059
        .byte           N03   , Cs2
        .byte           N20   , Dn1 , v117
        .byte   W03
        .byte           N03   , An2 , v063
        .byte           N03   , Cs2
        .byte   W03
        .byte                   An2 , v067
        .byte           N03   , Cs2
        .byte   W03
        .byte                   An2 , v071
        .byte           N03   , Cs2
        .byte   W03
        .byte                   An2 , v078
        .byte           N03   , Cs2
        .byte   W03
        .byte                   An2 , v081
        .byte           N03   , Cs2
        .byte   W03
        .byte                   An2 , v084
        .byte           N03   , Cs2
        .byte   W03
        .byte                   An2
        .byte           N03   , Cs2
        .byte   W03
        .byte                   An2 , v087
        .byte           N03   , Cs2
        .byte   W03
        .byte                   An2 , v090
        .byte           N03   , Cs2
        .byte   W03
        .byte                   An2 , v092
        .byte           N03   , Cs2
        .byte   W03
        .byte                   An2 , v095
        .byte           N03   , Cs2
        .byte   W03
        .byte                   An2
        .byte           N03   , Cs2
        .byte   W03
        .byte                   An2 , v098
        .byte           N03   , Cs2
        .byte   W03
        .byte                   An2 , v100
        .byte           N03   , Cs2
        .byte   W03
        .byte                   An2
        .byte           N03   , Cs2
        .byte   W03
        .byte   PEND
@ 123   ----------------------------------------
        .byte   PATT
         .word  mus_thpprf_nobeta_2_8_111
@ 124   ----------------------------------------
        .byte   PATT
         .word  mus_thpprf_nobeta_2_8_112
@ 125   ----------------------------------------
        .byte   PATT
         .word  mus_thpprf_nobeta_2_8_113
@ 126   ----------------------------------------
        .byte   PATT
         .word  mus_thpprf_nobeta_2_8_114
@ 127   ----------------------------------------
        .byte   PATT
         .word  mus_thpprf_nobeta_2_8_112
@ 128   ----------------------------------------
        .byte   PATT
         .word  mus_thpprf_nobeta_2_8_113
@ 129   ----------------------------------------
        .byte   PATT
         .word  mus_thpprf_nobeta_2_8_114
@ 130   ----------------------------------------
        .byte   PATT
         .word  mus_thpprf_nobeta_2_8_112
@ 131   ----------------------------------------
        .byte   PATT
         .word  mus_thpprf_nobeta_2_8_113
@ 132   ----------------------------------------
mus_thpprf_nobeta_2_8_132:
        .byte           N10   , Cn1 , v127
        .byte   W48
        .byte           N05   , Fs1 , v114
        .byte   W12
        .byte                   Fs1
        .byte   W12
        .byte                   Fs1
        .byte   W09
        .byte                   Fs1
        .byte   W15
        .byte   PEND
@ 133   ----------------------------------------
        .byte   PATT
         .word  mus_thpprf_nobeta_2_8_112
@ 134   ----------------------------------------
        .byte   PATT
         .word  mus_thpprf_nobeta_2_8_122
@ 135   ----------------------------------------
        .byte   PATT
         .word  mus_thpprf_nobeta_2_8_63
@ 136   ----------------------------------------
        .byte   PATT
         .word  mus_thpprf_nobeta_2_8_66
@ 137   ----------------------------------------
mus_thpprf_nobeta_2_8_137:
        .byte           N05   , Fs2 , v117
        .byte           N05   , Fs1 , v114
        .byte   W06
        .byte                   Fs1
        .byte   W06
        .byte                   Fs1
        .byte   W06
        .byte                   Fs1
        .byte   W06
        .byte                   Fs1
        .byte   W06
        .byte                   Fs1
        .byte   W06
        .byte                   Fs1
        .byte   W06
        .byte                   Fs1
        .byte   W06
        .byte                   Fs2 , v117
        .byte           N20   , Dn1
        .byte   W48
        .byte   PEND
@ 138   ----------------------------------------
        .byte   PATT
         .word  mus_thpprf_nobeta_2_8_66
@ 139   ----------------------------------------
        .byte   PATT
         .word  mus_thpprf_nobeta_2_8_66
@ 140   ----------------------------------------
        .byte   PATT
         .word  mus_thpprf_nobeta_2_8_86
@ 141   ----------------------------------------
        .byte   PATT
         .word  mus_thpprf_nobeta_2_8_63
@ 142   ----------------------------------------
        .byte   PATT
         .word  mus_thpprf_nobeta_2_8_66
@ 143   ----------------------------------------
        .byte   PATT
         .word  mus_thpprf_nobeta_2_8_137
@ 144   ----------------------------------------
        .byte   PATT
         .word  mus_thpprf_nobeta_2_8_66
@ 145   ----------------------------------------
        .byte   PATT
         .word  mus_thpprf_nobeta_2_8_66
@ 146   ----------------------------------------
        .byte   PATT
         .word  mus_thpprf_nobeta_2_8_86
@ 147   ----------------------------------------
        .byte   PATT
         .word  mus_thpprf_nobeta_2_8_63
@ 148   ----------------------------------------
        .byte   PATT
         .word  mus_thpprf_nobeta_2_8_66
@ 149   ----------------------------------------
        .byte   PATT
         .word  mus_thpprf_nobeta_2_8_137
@ 150   ----------------------------------------
        .byte   PATT
         .word  mus_thpprf_nobeta_2_8_66
@ 151   ----------------------------------------
        .byte   PATT
         .word  mus_thpprf_nobeta_2_8_66
@ 152   ----------------------------------------
        .byte   PATT
         .word  mus_thpprf_nobeta_2_8_86
@ 153   ----------------------------------------
        .byte   PATT
         .word  mus_thpprf_nobeta_2_8_63
@ 154   ----------------------------------------
        .byte   PATT
         .word  mus_thpprf_nobeta_2_8_66
@ 155   ----------------------------------------
        .byte   PATT
         .word  mus_thpprf_nobeta_2_8_137
@ 156   ----------------------------------------
        .byte   PATT
         .word  mus_thpprf_nobeta_2_8_66
@ 157   ----------------------------------------
        .byte   PATT
         .word  mus_thpprf_nobeta_2_8_66
@ 158   ----------------------------------------
        .byte   PATT
         .word  mus_thpprf_nobeta_2_8_86
@ 159   ----------------------------------------
        .byte   PATT
         .word  mus_thpprf_nobeta_2_8_111
@ 160   ----------------------------------------
        .byte   PATT
         .word  mus_thpprf_nobeta_2_8_112
@ 161   ----------------------------------------
        .byte   PATT
         .word  mus_thpprf_nobeta_2_8_113
@ 162   ----------------------------------------
        .byte   PATT
         .word  mus_thpprf_nobeta_2_8_114
@ 163   ----------------------------------------
        .byte   PATT
         .word  mus_thpprf_nobeta_2_8_112
@ 164   ----------------------------------------
        .byte   PATT
         .word  mus_thpprf_nobeta_2_8_113
@ 165   ----------------------------------------
        .byte   PATT
         .word  mus_thpprf_nobeta_2_8_114
@ 166   ----------------------------------------
        .byte   PATT
         .word  mus_thpprf_nobeta_2_8_112
@ 167   ----------------------------------------
        .byte   PATT
         .word  mus_thpprf_nobeta_2_8_113
@ 168   ----------------------------------------
        .byte   PATT
         .word  mus_thpprf_nobeta_2_8_114
@ 169   ----------------------------------------
        .byte   PATT
         .word  mus_thpprf_nobeta_2_8_112
@ 170   ----------------------------------------
        .byte   PATT
         .word  mus_thpprf_nobeta_2_8_122
@ 171   ----------------------------------------
        .byte   PATT
         .word  mus_thpprf_nobeta_2_8_111
@ 172   ----------------------------------------
        .byte   PATT
         .word  mus_thpprf_nobeta_2_8_112
@ 173   ----------------------------------------
        .byte   PATT
         .word  mus_thpprf_nobeta_2_8_113
@ 174   ----------------------------------------
        .byte   PATT
         .word  mus_thpprf_nobeta_2_8_114
@ 175   ----------------------------------------
        .byte   PATT
         .word  mus_thpprf_nobeta_2_8_112
@ 176   ----------------------------------------
        .byte   PATT
         .word  mus_thpprf_nobeta_2_8_122
@ 177   ----------------------------------------
        .byte   PATT
         .word  mus_thpprf_nobeta_2_8_111
@ 178   ----------------------------------------
        .byte   PATT
         .word  mus_thpprf_nobeta_2_8_112
@ 179   ----------------------------------------
        .byte   PATT
         .word  mus_thpprf_nobeta_2_8_113
@ 180   ----------------------------------------
        .byte   PATT
         .word  mus_thpprf_nobeta_2_8_132
@ 181   ----------------------------------------
        .byte   PATT
         .word  mus_thpprf_nobeta_2_8_112
@ 182   ----------------------------------------
        .byte   PATT
         .word  mus_thpprf_nobeta_2_8_122
@ 183   ----------------------------------------
        .byte   PATT
         .word  mus_thpprf_nobeta_2_8_48
@ 184   ----------------------------------------
        .byte   W96
@ 185   ----------------------------------------
        .byte   W96
@ 186   ----------------------------------------
        .byte   W96
@ 187   ----------------------------------------
        .byte   W96
@ 188   ----------------------------------------
        .byte   W96
@ 189   ----------------------------------------
        .byte   PATT
         .word  mus_thpprf_nobeta_2_8_48
@ 190   ----------------------------------------
        .byte   W96
@ 191   ----------------------------------------
        .byte   W96
@ 192   ----------------------------------------
        .byte   W96
@ 193   ----------------------------------------
        .byte   W96
@ 194   ----------------------------------------
        .byte   W96
@ 195   ----------------------------------------
        .byte   PATT
         .word  mus_thpprf_nobeta_2_8_48
@ 196   ----------------------------------------
        .byte   W96
@ 197   ----------------------------------------
        .byte   W96
@ 198   ----------------------------------------
        .byte   W96
@ 199   ----------------------------------------
        .byte   W96
@ 200   ----------------------------------------
        .byte   W96
@ 201   ----------------------------------------
        .byte   PATT
         .word  mus_thpprf_nobeta_2_8_48
@ 202   ----------------------------------------
        .byte   W96
@ 203   ----------------------------------------
        .byte   W96
@ 204   ----------------------------------------
        .byte   W96
@ 205   ----------------------------------------
        .byte   W96
@ 206   ----------------------------------------
        .byte   PATT
         .word  mus_thpprf_nobeta_2_8_47
@ 207   ----------------------------------------
        .byte   PATT
         .word  mus_thpprf_nobeta_2_8_63
@ 208   ----------------------------------------
        .byte   PATT
         .word  mus_thpprf_nobeta_2_8_64
@ 209   ----------------------------------------
        .byte   PATT
         .word  mus_thpprf_nobeta_2_8_65
@ 210   ----------------------------------------
        .byte   PATT
         .word  mus_thpprf_nobeta_2_8_66
@ 211   ----------------------------------------
        .byte   PATT
         .word  mus_thpprf_nobeta_2_8_64
@ 212   ----------------------------------------
        .byte   PATT
         .word  mus_thpprf_nobeta_2_8_65
@ 213   ----------------------------------------
        .byte   PATT
         .word  mus_thpprf_nobeta_2_8_66
@ 214   ----------------------------------------
        .byte   PATT
         .word  mus_thpprf_nobeta_2_8_70
@ 215   ----------------------------------------
        .byte   PATT
         .word  mus_thpprf_nobeta_2_8_65
@ 216   ----------------------------------------
        .byte   PATT
         .word  mus_thpprf_nobeta_2_8_66
@ 217   ----------------------------------------
        .byte   PATT
         .word  mus_thpprf_nobeta_2_8_64
@ 218   ----------------------------------------
        .byte   GOTO
         .word  mus_thpprf_nobeta_2_8_LOOP
        .byte   FINE


@********************** End of Song ***********************@

        .align  2
mus_thpprf_nobeta_2:
        .byte   9                       @ Num Tracks
        .byte   0                       @ Unknown
        .byte   mus_thpprf_nobeta_2_pri @ Priority
        .byte   mus_thpprf_nobeta_2_rev @ Reverb

        .word   mus_thpprf_nobeta_2_grp

        .word   mus_thpprf_nobeta_2_0
        .word   mus_thpprf_nobeta_2_1
        .word   mus_thpprf_nobeta_2_2
        .word   mus_thpprf_nobeta_2_3
        .word   mus_thpprf_nobeta_2_4
        .word   mus_thpprf_nobeta_2_5
        .word   mus_thpprf_nobeta_2_6
        .word   mus_thpprf_nobeta_2_7
        .word   mus_thpprf_nobeta_2_8

        .end
