        .include "MPlayDef.s"

        .equ    mus_geese_test1_grp, voicegroup_common_main
        .equ    mus_geese_test1_pri, 0
        .equ    mus_geese_test1_rev, reverb_set+50
        .equ    mus_geese_test1_key, 0

        .section .rodata
        .global mus_geese_test1
        .align  2

@****************** Track 0 (Midi-Chn.1) ******************@

mus_geese_test1_0:
        .byte   KEYSH , mus_geese_test1_key+0
@ 000   ----------------------------------------
        .byte           VOICE , 48
        .byte           TIE   , GnM1 , v100
        .byte           TIE   , Gn0
        .byte           TIE   , Gn1
        .byte           TIE   , GnM2
        .byte           BENDR , 12
        .byte           VOL   , 103
        .byte   W72
        .byte                   100
        .byte   W06
        .byte                   95
        .byte   W06
        .byte                   93
        .byte   W06
        .byte                   92
        .byte   W06
@ 001   ----------------------------------------
        .byte   TEMPO , 160/2
        .byte                   86
        .byte   W06
        .byte                   82
        .byte   W06
        .byte                   80
        .byte   W06
        .byte                   78
        .byte   W06
        .byte                   77
        .byte   W06
        .byte                   76
        .byte   W12
        .byte                   75
        .byte   W06
        .byte                   73
        .byte   W06
        .byte                   71
        .byte   W06
        .byte                   69
        .byte   W06
        .byte                   67
        .byte   W12
        .byte                   65
        .byte   W06
        .byte                   63
        .byte   W06
        .byte                   59
        .byte   W06
@ 002   ----------------------------------------
        .byte           EOT
        .byte           EOT   , GnM1
        .byte                   Gn0
        .byte                   Gn1
        .byte   TEMPO , 166/2
        .byte           VOL   , 57
        .byte   W96
@ 003   ----------------------------------------
        .byte   W96
@ 004   ----------------------------------------
        .byte   W96
@ 005   ----------------------------------------
        .byte   W96
@ 006   ----------------------------------------
        .byte   W96
@ 007   ----------------------------------------
        .byte   W96
@ 008   ----------------------------------------
        .byte   W96
@ 009   ----------------------------------------
        .byte   W96
@ 010   ----------------------------------------
        .byte   W96
@ 011   ----------------------------------------
        .byte   W96
@ 012   ----------------------------------------
        .byte   W96
@ 013   ----------------------------------------
        .byte   W96
@ 014   ----------------------------------------
        .byte   W96
@ 015   ----------------------------------------
        .byte   W96
@ 016   ----------------------------------------
        .byte   W96
@ 017   ----------------------------------------
        .byte   W96
@ 018   ----------------------------------------
mus_geese_test1_0_18:
        .byte           VOL   , 96
        .byte           N36   , As3
        .byte   W36
        .byte                   An3
        .byte   W36
        .byte           N24   , Fn3
        .byte   W24
@ 019   ----------------------------------------
mus_geese_test1_0_19:
        .byte           N48   , Ds3 , v100
        .byte   W48
        .byte           N12
        .byte   W12
        .byte                   Fn3
        .byte   W12
        .byte           N24   , Gn3
        .byte   W24
        .byte   PEND
@ 020   ----------------------------------------
mus_geese_test1_0_20:
        .byte           N36   , Fn3 , v100
        .byte   W36
        .byte                   Gn3
        .byte   W36
        .byte           TIE   , Ds3
        .byte   W24
        .byte   PEND
@ 021   ----------------------------------------
        .byte   W96
@ 022   ----------------------------------------
mus_geese_test1_0_22:
        .byte           EOT   , Ds3
        .byte           N36   , As3 , v100
        .byte   W36
        .byte                   An3
        .byte   W36
        .byte           N24   , Fn3
        .byte   W24
        .byte   PEND
@ 023   ----------------------------------------
mus_geese_test1_0_23:
        .byte           N36   , Ds3 , v100
        .byte   W36
        .byte                   An3
        .byte   W36
        .byte           N24   , Fn3
        .byte   W24
        .byte   PEND
@ 024   ----------------------------------------
mus_geese_test1_0_24:
        .byte           N36   , Cn4 , v100
        .byte   W36
        .byte                   Bn3
        .byte   W36
        .byte           TIE   , Gn3
        .byte   W24
        .byte   PEND
@ 025   ----------------------------------------
        .byte   W96
@ 026   ----------------------------------------
        .byte           EOT
        .byte   W96
@ 027   ----------------------------------------
        .byte   W96
@ 028   ----------------------------------------
        .byte   W96
@ 029   ----------------------------------------
        .byte   W96
@ 030   ----------------------------------------
        .byte   W96
@ 031   ----------------------------------------
        .byte   W96
@ 032   ----------------------------------------
        .byte   W96
@ 033   ----------------------------------------
        .byte   W96
@ 034   ----------------------------------------
mus_geese_test1_0_34:
        .byte           N36   , As3 , v100
        .byte   W36
        .byte                   An3
        .byte   W36
        .byte           N24   , Fn3
        .byte   W24
        .byte   PEND
@ 035   ----------------------------------------
        .byte   PATT
         .word  mus_geese_test1_0_19
@ 036   ----------------------------------------
        .byte   PATT
         .word  mus_geese_test1_0_20
@ 037   ----------------------------------------
        .byte   W96
@ 038   ----------------------------------------
mus_geese_test1_0_38:
        .byte           EOT   , Ds3
        .byte           N36   , Dn3 , v100
        .byte   W36
        .byte                   Ds3
        .byte   W36
        .byte           N24   , Fn3
        .byte   W24
        .byte   PEND
@ 039   ----------------------------------------
mus_geese_test1_0_39:
        .byte           N18   , Cn4 , v100
        .byte   W18
        .byte                   Bn3
        .byte   W18
        .byte           N12   , Gn3
        .byte   W12
        .byte           N18   , As3
        .byte   W18
        .byte                   An3
        .byte   W18
        .byte           N12   , Fn3
        .byte   W12
        .byte   PEND
@ 040   ----------------------------------------
        .byte           TIE   , Gn3
        .byte   W96
@ 041   ----------------------------------------
        .byte   W96
@ 042   ----------------------------------------
        .byte           EOT
        .byte   W96
@ 043   ----------------------------------------
        .byte   W96
@ 044   ----------------------------------------
        .byte   W96
@ 045   ----------------------------------------
        .byte   W96
@ 046   ----------------------------------------
        .byte   W96
@ 047   ----------------------------------------
        .byte   W96
@ 048   ----------------------------------------
        .byte   W96
@ 049   ----------------------------------------
        .byte   W96
@ 050   ----------------------------------------
        .byte   W96
@ 051   ----------------------------------------
        .byte   W96
@ 052   ----------------------------------------
        .byte   W96
@ 053   ----------------------------------------
        .byte   W96
@ 054   ----------------------------------------
        .byte   W96
@ 055   ----------------------------------------
        .byte   W96
@ 056   ----------------------------------------
        .byte   W96
@ 057   ----------------------------------------
        .byte   W96
@ 058   ----------------------------------------
mus_geese_test1_0_58:
        .byte           N15   , Cn3 , v100
        .byte   W15
        .byte                   Ds3
        .byte   W16
        .byte                   Gn3
        .byte   W15
        .byte           N16   , An3
        .byte   W16
        .byte           N15   , As3
        .byte   W15
        .byte           N19   , Cn4
        .byte   W19
        .byte   PEND
@ 059   ----------------------------------------
        .byte           N96   , An3
        .byte   W96
@ 060   ----------------------------------------
mus_geese_test1_0_60:
        .byte           N15   , Gs3 , v100
        .byte   W15
        .byte           N16   , Ds3
        .byte   W16
        .byte                   Dn3
        .byte   W17
        .byte                   Cn3
        .byte   W16
        .byte                   Dn3
        .byte   W16
        .byte           N56   , Gn3 , v100 , gtp2
        .byte   W16
        .byte   PEND
@ 061   ----------------------------------------
mus_geese_test1_0_61:
        .byte   W42
        .byte           N54   , Fn3 , v100
        .byte   W54
        .byte   PEND
@ 062   ----------------------------------------
        .byte   PATT
         .word  mus_geese_test1_0_58
@ 063   ----------------------------------------
        .byte           N96   , An3 , v100
        .byte   W96
@ 064   ----------------------------------------
mus_geese_test1_0_64:
        .byte           N16   , Gs3 , v100
        .byte   W16
        .byte                   Gn3
        .byte   W16
        .byte                   As3
        .byte   W16
        .byte                   Gs3
        .byte   W16
        .byte                   Dn4
        .byte   W16
        .byte           TIE   , Ds4
        .byte   W16
        .byte   PEND
@ 065   ----------------------------------------
        .byte   W92
        .byte   W03
        .byte           EOT
        .byte   W01
@ 066   ----------------------------------------
mus_geese_test1_0_66:
        .byte           N24   , Dn4 , v100
        .byte   W24
        .byte           N12   , Gn3
        .byte   W12
        .byte           N24   , Ds4
        .byte   W24
        .byte           N12   , Gn3
        .byte   W12
        .byte           N24   , Fn4
        .byte   W24
        .byte   PEND
@ 067   ----------------------------------------
mus_geese_test1_0_67:
        .byte           N12   , Gn4 , v100
        .byte   W12
        .byte           N24   , Ds4
        .byte   W24
        .byte           N12   , Dn4
        .byte   W12
        .byte           N18   , Cn4
        .byte   W18
        .byte                   Bn3
        .byte   W18
        .byte           N12   , Dn4
        .byte   W12
        .byte   PEND
@ 068   ----------------------------------------
mus_geese_test1_0_68:
        .byte           N06   , Ds4 , v100
        .byte   W06
        .byte                   Dn4
        .byte   W06
        .byte           TIE   , Ds4
        .byte   W84
        .byte   PEND
@ 069   ----------------------------------------
        .byte   W96
@ 070   ----------------------------------------
        .byte           EOT
        .byte   W96
@ 071   ----------------------------------------
        .byte   W96
@ 072   ----------------------------------------
        .byte   W96
@ 073   ----------------------------------------
        .byte   W96
@ 074   ----------------------------------------
        .byte   W96
@ 075   ----------------------------------------
        .byte   W96
@ 076   ----------------------------------------
        .byte   PATT
         .word  mus_geese_test1_0_34
@ 077   ----------------------------------------
        .byte   PATT
         .word  mus_geese_test1_0_19
@ 078   ----------------------------------------
        .byte   PATT
         .word  mus_geese_test1_0_20
@ 079   ----------------------------------------
        .byte   W96
@ 080   ----------------------------------------
        .byte   PATT
         .word  mus_geese_test1_0_22
@ 081   ----------------------------------------
        .byte   PATT
         .word  mus_geese_test1_0_23
@ 082   ----------------------------------------
        .byte   PATT
         .word  mus_geese_test1_0_24
@ 083   ----------------------------------------
        .byte   W96
@ 084   ----------------------------------------
        .byte           EOT   , Gn3
        .byte   W96
@ 085   ----------------------------------------
        .byte   W96
@ 086   ----------------------------------------
        .byte   W96
@ 087   ----------------------------------------
        .byte   W96
@ 088   ----------------------------------------
        .byte   W96
@ 089   ----------------------------------------
        .byte   W96
@ 090   ----------------------------------------
        .byte   W96
@ 091   ----------------------------------------
        .byte   W96
@ 092   ----------------------------------------
        .byte   PATT
         .word  mus_geese_test1_0_34
@ 093   ----------------------------------------
        .byte   PATT
         .word  mus_geese_test1_0_19
@ 094   ----------------------------------------
        .byte   PATT
         .word  mus_geese_test1_0_20
@ 095   ----------------------------------------
        .byte   W96
@ 096   ----------------------------------------
        .byte   PATT
         .word  mus_geese_test1_0_38
@ 097   ----------------------------------------
        .byte   PATT
         .word  mus_geese_test1_0_39
@ 098   ----------------------------------------
        .byte           TIE   , Gn3 , v100
        .byte   W96
@ 099   ----------------------------------------
        .byte   W96
@ 100   ----------------------------------------
        .byte           EOT
        .byte   W96
@ 101   ----------------------------------------
        .byte   W96
@ 102   ----------------------------------------
        .byte   W96
@ 103   ----------------------------------------
        .byte   W96
@ 104   ----------------------------------------
        .byte   W96
@ 105   ----------------------------------------
        .byte   W96
@ 106   ----------------------------------------
        .byte   W96
@ 107   ----------------------------------------
        .byte   W96
@ 108   ----------------------------------------
        .byte   W96
@ 109   ----------------------------------------
        .byte   W96
@ 110   ----------------------------------------
        .byte   W96
@ 111   ----------------------------------------
        .byte   W96
@ 112   ----------------------------------------
        .byte   W96
@ 113   ----------------------------------------
        .byte   W96
@ 114   ----------------------------------------
        .byte   W96
@ 115   ----------------------------------------
        .byte   W96
@ 116   ----------------------------------------
        .byte   PATT
         .word  mus_geese_test1_0_58
@ 117   ----------------------------------------
        .byte           N96   , An3 , v100
        .byte   W96
@ 118   ----------------------------------------
        .byte   PATT
         .word  mus_geese_test1_0_60
@ 119   ----------------------------------------
        .byte   PATT
         .word  mus_geese_test1_0_61
@ 120   ----------------------------------------
        .byte   PATT
         .word  mus_geese_test1_0_58
@ 121   ----------------------------------------
        .byte           N96   , An3 , v100
        .byte   W96
@ 122   ----------------------------------------
        .byte   PATT
         .word  mus_geese_test1_0_64
@ 123   ----------------------------------------
        .byte   W92
        .byte   W03
        .byte           EOT   , Ds4
        .byte   W01
@ 124   ----------------------------------------
        .byte   PATT
         .word  mus_geese_test1_0_66
@ 125   ----------------------------------------
        .byte   PATT
         .word  mus_geese_test1_0_67
@ 126   ----------------------------------------
        .byte   PATT
         .word  mus_geese_test1_0_68
@ 127   ----------------------------------------
        .byte   W96
@ 128   ----------------------------------------
        .byte           EOT   , Ds4
        .byte   W96
@ 129   ----------------------------------------
        .byte   W96
@ 130   ----------------------------------------
        .byte   W96
@ 131   ----------------------------------------
        .byte   W96
@ 132   ----------------------------------------
        .byte   W96
@ 133   ----------------------------------------
        .byte   W96
@ 134   ----------------------------------------
@        .byte   W56
@        .byte   TEMPO , 150/2
@        .byte   W40
@ 135   ----------------------------------------
        .byte   GOTO
        .word   mus_geese_test1_0_18
        .byte   FINE

@****************** Track 1 (Midi-Chn.2) ******************@

mus_geese_test1_1:
        .byte   KEYSH , mus_geese_test1_key+0
@ 000   ----------------------------------------
        .byte           VOICE , 83 @ Square-2
        .byte           TIE   , Gn1 , v100
        .byte           TIE   , Gn0
        .byte           TIE   , GnM1
        .byte           TIE   , GnM2
        .byte           BENDR , 12
        .byte           VOL   , 103
        .byte   W72
        .byte                   99
        .byte   W06
        .byte                   97
        .byte   W06
        .byte                   92
        .byte   W06
        .byte                   89
        .byte   W06
@ 001   ----------------------------------------
        .byte                   83
        .byte   W06
        .byte                   80
        .byte   W06
        .byte                   77
        .byte   W06
        .byte                   75
        .byte   W06
        .byte                   74
        .byte   W06
        .byte                   70
        .byte   W06
        .byte                   66
        .byte   W18
        .byte                   64
        .byte   W12
        .byte                   62
        .byte   W06
        .byte                   61
        .byte   W06
        .byte                   59
        .byte   W06
        .byte                   57
        .byte   W06
        .byte                   55
        .byte   W06
@ 002   ----------------------------------------
        .byte           EOT   , Gn1
        .byte                   Gn0
        .byte                   GnM1
        .byte                   GnM2
        .byte           VOL   , 53
        .byte   W96
@ 003   ----------------------------------------
        .byte   W96
@ 004   ----------------------------------------
        .byte   W96
@ 005   ----------------------------------------
        .byte   W96
@ 006   ----------------------------------------
        .byte   W96
@ 007   ----------------------------------------
        .byte   W96
@ 008   ----------------------------------------
        .byte   W96
@ 009   ----------------------------------------
        .byte   W96
@ 010   ----------------------------------------
        .byte   W96
@ 011   ----------------------------------------
        .byte   W96
@ 012   ----------------------------------------
        .byte   W96
@ 013   ----------------------------------------
        .byte   W96
@ 014   ----------------------------------------
        .byte   W96
@ 015   ----------------------------------------
        .byte   W96
@ 016   ----------------------------------------
        .byte   W96
@ 017   ----------------------------------------
        .byte   W96
@ 018   ----------------------------------------
mus_geese_test1_1_18:
        .byte           VOL   , 53
        .byte   W96
@ 019   ----------------------------------------
        .byte   W96
@ 020   ----------------------------------------
        .byte   W96
@ 021   ----------------------------------------
        .byte   W96
@ 022   ----------------------------------------
        .byte   W96
@ 023   ----------------------------------------
        .byte   W96
@ 024   ----------------------------------------
        .byte   W96
@ 025   ----------------------------------------
        .byte   W96
@ 026   ----------------------------------------
        .byte   W96
@ 027   ----------------------------------------
        .byte   W96
@ 028   ----------------------------------------
        .byte   W96
@ 029   ----------------------------------------
        .byte   W96
@ 030   ----------------------------------------
        .byte   W96
@ 031   ----------------------------------------
        .byte   W96
@ 032   ----------------------------------------
        .byte   W96
@ 033   ----------------------------------------
        .byte   W96
@ 034   ----------------------------------------
        .byte   W96
@ 035   ----------------------------------------
        .byte   W96
@ 036   ----------------------------------------
        .byte   W96
@ 037   ----------------------------------------
        .byte   W96
@ 038   ----------------------------------------
        .byte   W96
@ 039   ----------------------------------------
        .byte   W96
@ 040   ----------------------------------------
        .byte   W96
@ 041   ----------------------------------------
        .byte   W96
@ 042   ----------------------------------------
        .byte           VOL   , 96 @ 66
        .byte           N72   , Gs1
        .byte           N72   , Gs2
        .byte   W72
        .byte           N24   , Ds3
        .byte           N24   , Ds2
        .byte   W24
@ 043   ----------------------------------------
mus_geese_test1_1_43:
        .byte           N24   , Dn2 , v100
        .byte           N24   , Dn3
        .byte   W24
        .byte                   Cn3
        .byte           N24   , Cn2
        .byte   W24
        .byte                   As2
        .byte           N24   , As1
        .byte   W24
        .byte                   Cn2
        .byte           N24   , Cn3
        .byte   W24
        .byte   PEND
@ 044   ----------------------------------------
mus_geese_test1_1_44:
        .byte           N72   , Bn2 , v100
        .byte           N72   , Bn1
        .byte   W72
        .byte           N24   , Gn3
        .byte           N24   , Gn2
        .byte   W24
        .byte   PEND
@ 045   ----------------------------------------
mus_geese_test1_1_45:
        .byte           N24   , Fn2 , v100
        .byte           N24   , Fn3
        .byte   W24
        .byte                   Ds3
        .byte           N24   , Ds2
        .byte   W24
        .byte                   Dn3
        .byte           N24   , Dn2
        .byte   W24
        .byte                   Cn3
        .byte           N24   , Cn2
        .byte   W24
        .byte   PEND
@ 046   ----------------------------------------
mus_geese_test1_1_46:
        .byte           N72   , Ds3 , v100
        .byte           N72   , Ds2
        .byte   W72
        .byte           N12   , Dn3
        .byte           N12   , Dn2
        .byte   W12
        .byte                   Ds3
        .byte           N12   , Ds2
        .byte   W12
        .byte   PEND
@ 047   ----------------------------------------
mus_geese_test1_1_47:
        .byte           N48   , Cn2 , v100
        .byte           N48   , Cn3
        .byte   W48
        .byte           N24   , Gs1
        .byte           N24   , Gs2
        .byte   W24
        .byte                   Fn2
        .byte           N24   , Fn1
        .byte   W24
        .byte   PEND
@ 048   ----------------------------------------
mus_geese_test1_1_48:
        .byte           TIE   , Gn1 , v100
        .byte           TIE   , Gn2
        .byte   W96
        .byte   PEND
@ 049   ----------------------------------------
        .byte   W96
@ 050   ----------------------------------------
        .byte           EOT
        .byte           EOT   , Gn1
        .byte           N72   , Gs1
        .byte           N72   , Gs2
        .byte   W72
        .byte           N24   , Ds2
        .byte           N24   , Ds3
        .byte   W24
@ 051   ----------------------------------------
mus_geese_test1_1_51:
        .byte           N24   , Dn2 , v100
        .byte           N24   , Dn3
        .byte   W24
        .byte                   Cn2
        .byte           N24   , Cn3
        .byte   W24
        .byte                   As2
        .byte           N24   , As1
        .byte   W24
        .byte                   Cn2
        .byte           N24   , Cn3
        .byte   W24
        .byte   PEND
@ 052   ----------------------------------------
mus_geese_test1_1_52:
        .byte           N72   , Bn1 , v100
        .byte           N72   , Bn2
        .byte   W72
        .byte           N24   , Gn3
        .byte           N24   , Gn2
        .byte   W24
        .byte   PEND
@ 053   ----------------------------------------
mus_geese_test1_1_53:
        .byte           N24   , Fn3 , v100
        .byte           N24   , Fn2
        .byte   W24
        .byte                   Ds3
        .byte           N24   , Ds2
        .byte   W24
        .byte                   Dn2
        .byte           N24   , Dn3
        .byte   W24
        .byte                   Cn3
        .byte           N24   , Cn2
        .byte   W24
        .byte   PEND
@ 054   ----------------------------------------
mus_geese_test1_1_54:
        .byte           N72   , Ds3 , v100
        .byte           N72   , Ds2
        .byte   W72
        .byte           N24   , Dn3
        .byte           N24   , Dn2
        .byte   W24
        .byte   PEND
@ 055   ----------------------------------------
mus_geese_test1_1_55:
        .byte           N18   , Fn3 , v100
        .byte           N18   , Fn2
        .byte   W18
        .byte                   Bn2
        .byte           N18   , Bn3
        .byte   W18
        .byte           N12   , Cn3
        .byte           N12   , Cn4
        .byte   W12
        .byte           N18   , Bn2
        .byte           N18   , Bn3
        .byte   W18
        .byte                   Gs3
        .byte           N18   , Gs2
        .byte   W18
        .byte           N12   , Gn3
        .byte           N12   , Gn2
        .byte   W12
        .byte   PEND
@ 056   ----------------------------------------
mus_geese_test1_1_56:
        .byte           N72   , Bn2 , v100
        .byte           N72   , Bn3
        .byte   W72
        .byte           N06   , Cn3
        .byte           N06   , Cn2
        .byte   W06
        .byte                   En2
        .byte           N06   , En3
        .byte   W06
        .byte                   Gn3
        .byte           N06   , Gn2
        .byte   W06
        .byte                   As2
        .byte           N06   , As3
        .byte   W06
        .byte   PEND
@ 057   ----------------------------------------
mus_geese_test1_1_57:
        .byte           N06   , Bn3 , v100
        .byte           N06   , Bn2
        .byte   W06
        .byte                   Cn4
        .byte           N06   , Cn3
        .byte   W06
        .byte                   Bn3
        .byte           N06   , Bn2
        .byte   W06
        .byte                   Gs3
        .byte           N06   , Gs2
        .byte   W06
        .byte                   An2
        .byte           N06   , An3
        .byte   W06
        .byte                   Bn2
        .byte           N06   , Bn3
        .byte   W06
        .byte                   An3
        .byte           N06   , An2
        .byte   W06
        .byte                   Fs3
        .byte           N06   , Fs2
        .byte   W06
        .byte                   Gn2
        .byte           N06   , Gn3
        .byte   W06
        .byte                   Gs3
        .byte           N06   , Gs2
        .byte   W06
        .byte                   Gn2
        .byte           N06   , Gn3
        .byte   W06
        .byte                   Fn2
        .byte           N06   , Fn3
        .byte   W06
        .byte                   Fs3
        .byte           N06   , Fs2
        .byte   W06
        .byte                   Gn2
        .byte           N06   , Gn3
        .byte   W06
        .byte                   Fs2
        .byte           N06   , Fs3
        .byte   W06
        .byte                   Dn2
        .byte           N06   , Dn3
        .byte   W06
        .byte   PEND
@ 058   ----------------------------------------
        .byte   W96
@ 059   ----------------------------------------
        .byte   W96
@ 060   ----------------------------------------
        .byte   W96
@ 061   ----------------------------------------
        .byte   W96
@ 062   ----------------------------------------
        .byte   W96
@ 063   ----------------------------------------
        .byte   W96
@ 064   ----------------------------------------
        .byte   W96
@ 065   ----------------------------------------
        .byte   W96
@ 066   ----------------------------------------
        .byte   W96
@ 067   ----------------------------------------
        .byte   W96
@ 068   ----------------------------------------
        .byte   W96
@ 069   ----------------------------------------
        .byte   W96
@ 070   ----------------------------------------
        .byte   W96
@ 071   ----------------------------------------
        .byte   W96
@ 072   ----------------------------------------
        .byte   W96
@ 073   ----------------------------------------
        .byte   W96
@ 074   ----------------------------------------
        .byte   W96
@ 075   ----------------------------------------
        .byte   W96
@ 076   ----------------------------------------
        .byte   W96
@ 077   ----------------------------------------
        .byte   W96
@ 078   ----------------------------------------
        .byte   W96
@ 079   ----------------------------------------
        .byte   W96
@ 080   ----------------------------------------
        .byte   W96
@ 081   ----------------------------------------
        .byte   W96
@ 082   ----------------------------------------
        .byte   W96
@ 083   ----------------------------------------
        .byte   W96
@ 084   ----------------------------------------
        .byte   W96
@ 085   ----------------------------------------
        .byte   W96
@ 086   ----------------------------------------
        .byte   W96
@ 087   ----------------------------------------
        .byte   W96
@ 088   ----------------------------------------
        .byte   W96
@ 089   ----------------------------------------
        .byte   W96
@ 090   ----------------------------------------
        .byte   W96
@ 091   ----------------------------------------
        .byte   W96
@ 092   ----------------------------------------
        .byte   W96
@ 093   ----------------------------------------
        .byte   W96
@ 094   ----------------------------------------
        .byte   W96
@ 095   ----------------------------------------
        .byte   W96
@ 096   ----------------------------------------
        .byte   W96
@ 097   ----------------------------------------
        .byte   W96
@ 098   ----------------------------------------
        .byte   W96
@ 099   ----------------------------------------
        .byte   W96
@ 100   ----------------------------------------
        .byte           N72   , Gs1
        .byte           N72   , Gs2
        .byte   W72
        .byte           N24   , Ds3
        .byte           N24   , Ds2
        .byte   W24
@ 101   ----------------------------------------
        .byte   PATT
         .word  mus_geese_test1_1_43
@ 102   ----------------------------------------
        .byte   PATT
         .word  mus_geese_test1_1_44
@ 103   ----------------------------------------
        .byte   PATT
         .word  mus_geese_test1_1_45
@ 104   ----------------------------------------
        .byte           N72   , Ds3 , v100
        .byte           N72   , Ds2
        .byte   W72
        .byte           N12   , Dn3
        .byte           N12   , Dn2
        .byte   W12
        .byte                   Ds2
        .byte           N12   , Ds3
        .byte   W12
@ 105   ----------------------------------------
        .byte   PATT
         .word  mus_geese_test1_1_47
@ 106   ----------------------------------------
mus_geese_test1_1_106:
        .byte           TIE   , Gn2 , v100
        .byte           TIE   , Gn1
        .byte   W96
        .byte   PEND
@ 107   ----------------------------------------
        .byte   W96
@ 108   ----------------------------------------
mus_geese_test1_1_108:
        .byte           EOT   , Gn1
        .byte                   Gn2
        .byte           N72   , Gs1 , v100
        .byte           N72   , Gs2
        .byte   W72
        .byte           N24   , Ds2
        .byte           N24   , Ds3
        .byte   W24
        .byte   PEND
@ 109   ----------------------------------------
        .byte   PATT
         .word  mus_geese_test1_1_51
@ 110   ----------------------------------------
        .byte   PATT
         .word  mus_geese_test1_1_52
@ 111   ----------------------------------------
        .byte   PATT
         .word  mus_geese_test1_1_53
@ 112   ----------------------------------------
        .byte   PATT
         .word  mus_geese_test1_1_54
@ 113   ----------------------------------------
        .byte           N18   , Fn3 , v100
        .byte           N18   , Fn2
        .byte   W18
        .byte                   Bn2
        .byte           N18   , Bn3
        .byte   W18
        .byte           N12   , Cn4
        .byte           N12   , Cn3
        .byte   W12
        .byte           N18   , Bn2
        .byte           N18   , Bn3
        .byte   W18
        .byte                   Gs3
        .byte           N18   , Gs2
        .byte   W18
        .byte           N12   , Gn2
        .byte           N12   , Gn3
        .byte   W12
@ 114   ----------------------------------------
        .byte           N72   , Bn2
        .byte           N72   , Bn3
        .byte   W72
        .byte           N06   , Cn3
        .byte           N06   , Cn2
        .byte   W06
        .byte                   En2
        .byte           N06   , En3
        .byte   W06
        .byte                   Gn2
        .byte           N06   , Gn3
        .byte   W06
        .byte                   As2
        .byte           N06   , As3
        .byte   W06
@ 115   ----------------------------------------
        .byte                   Bn3
        .byte           N06   , Bn2
        .byte   W06
        .byte                   Cn3
        .byte           N06   , Cn4
        .byte   W06
        .byte                   Bn3
        .byte           N06   , Bn2
        .byte   W06
        .byte                   Gs2
        .byte           N06   , Gs3
        .byte   W06
        .byte                   An2
        .byte           N06   , An3
        .byte   W06
        .byte                   Bn2
        .byte           N06   , Bn3
        .byte   W06
        .byte                   An2
        .byte           N06   , An3
        .byte   W06
        .byte                   Fs2
        .byte           N06   , Fs3
        .byte   W06
        .byte                   Gn3
        .byte           N06   , Gn2
        .byte   W06
        .byte                   Gs3
        .byte           N06   , Gs2
        .byte   W06
        .byte                   Gn3
        .byte           N06   , Gn2
        .byte   W06
        .byte                   Fn2
        .byte           N06   , Fn3
        .byte   W06
        .byte                   Fs2
        .byte           N06   , Fs3
        .byte   W06
        .byte                   Gn3
        .byte           N06   , Gn2
        .byte   W06
        .byte                   Fs3
        .byte           N06   , Fs2
        .byte   W06
        .byte                   Dn2
        .byte           N06   , Dn3
        .byte   W06
@ 116   ----------------------------------------
        .byte   W96
@ 117   ----------------------------------------
        .byte   W96
@ 118   ----------------------------------------
        .byte   W96
@ 119   ----------------------------------------
        .byte   W96
@ 120   ----------------------------------------
        .byte   W96
@ 121   ----------------------------------------
        .byte   W96
@ 122   ----------------------------------------
        .byte   W96
@ 123   ----------------------------------------
        .byte   W96
@ 124   ----------------------------------------
        .byte   W96
@ 125   ----------------------------------------
        .byte   W96
@ 126   ----------------------------------------
        .byte   W96
@ 127   ----------------------------------------
        .byte   W96
@ 128   ----------------------------------------
        .byte   W96
@ 129   ----------------------------------------
        .byte   W96
@ 130   ----------------------------------------
        .byte   W96
@ 131   ----------------------------------------
        .byte   W96
@ 132   ----------------------------------------
        .byte   W96
@ 133   ----------------------------------------
        .byte   W96
@ 134   ----------------------------------------
@        .byte   W96
@ 135   ----------------------------------------
        .byte   GOTO
        .word   mus_geese_test1_1_18
        .byte   FINE

@****************** Track 2 (Midi-Chn.9) ******************@

mus_geese_test1_2:
        .byte   KEYSH , mus_geese_test1_key+0
@ 000   ----------------------------------------
        .byte           VOICE , 0 @ Drum
        .byte           N24   , En2 , v100
        .byte           BENDR , 12
        .byte           VOL   , 112
        .byte   W96
@ 001   ----------------------------------------
        .byte   W96
@ 002   ----------------------------------------
        .byte           N12   , Dn1
        .byte           N06   , Cn2
        .byte           N06   , Cs2
        .byte   W06
        .byte                   Cn2
        .byte   W06
        .byte                   Cn1
        .byte           N06   , An1
        .byte   W06
        .byte                   An1
        .byte   W06
        .byte                   Cn1
        .byte           N06   , Gn1
        .byte   W12
        .byte           VOL   , 87
        .byte           N06   , Dn1
        .byte   W18
        .byte           VOL   , 76
        .byte           N06
        .byte   W18
        .byte           VOL   , 67
        .byte           N06
        .byte   W24
@ 003   ----------------------------------------
        .byte   W96
@ 004   ----------------------------------------
        .byte           VOL   , 103
        .byte           N12
        .byte           N06   , Cn2
        .byte   W06
        .byte                   Cn2
        .byte   W06
        .byte                   An1
        .byte           N06   , Cn1
        .byte   W06
        .byte                   An1
        .byte   W06
        .byte                   Gn1
        .byte           N06   , Cn1
        .byte   W12
        .byte           VOL   , 87
        .byte           N06   , Dn1
        .byte   W18
        .byte           VOL   , 75
        .byte           N06
        .byte   W18
        .byte           VOL   , 67
        .byte           N06
        .byte   W24
@ 005   ----------------------------------------
        .byte   W96
@ 006   ----------------------------------------
        .byte           VOL   , 102
        .byte           N12
        .byte           N06   , Cn2
        .byte   W06
        .byte                   Cn2
        .byte   W06
        .byte                   An1
        .byte           N06   , Cn1
        .byte   W06
        .byte                   An1
        .byte   W06
        .byte                   Gn1
        .byte           N06   , Cn1
        .byte   W12
        .byte           VOL   , 87
        .byte           N06   , Dn1
        .byte   W18
        .byte           VOL   , 76
        .byte           N06
        .byte   W18
        .byte           VOL   , 65
        .byte           N06
        .byte   W24
@ 007   ----------------------------------------
        .byte   W96
@ 008   ----------------------------------------
        .byte           VOL   , 102
        .byte           N12
        .byte           N12   , An1
        .byte           N12   , Bn1
        .byte           N12   , Cn2
        .byte   W12
        .byte                   Cn1
        .byte           N12   , Bn0
        .byte           N12   , Fn1
        .byte           N12   , Gn1
        .byte           N12   , An1
        .byte   W12
        .byte                   Bn0
        .byte           N12   , Fn1
        .byte           N12   , Gn1
        .byte           N12   , An1
        .byte   W12
        .byte                   An1
        .byte           N12   , Bn1
        .byte           N12   , Cn2
        .byte           N12   , Dn1
        .byte   W12
        .byte                   Bn0
        .byte           N12   , Gn1
        .byte           N12   , An1
        .byte           N12   , Cn1
        .byte           N12   , Fn1
        .byte   W12
        .byte                   Bn0
        .byte           N12   , Fn1
        .byte           N12   , Gn1
        .byte           N12   , An1
        .byte   W12
        .byte                   Dn1
        .byte           N12   , An1
        .byte           N12   , Bn1
        .byte           N12   , Cn2
        .byte   W12
        .byte                   Bn0
        .byte           N12   , Fn1
        .byte           N12   , Gn1
        .byte           N12   , An1
        .byte           N12   , Cn1
        .byte   W12
@ 009   ----------------------------------------
        .byte                   An1
        .byte           N12   , Gn1
        .byte           N12   , Fn1
        .byte           N12   , Bn0
        .byte   W12
        .byte                   Cn2
        .byte           N12   , Bn1
        .byte           N12   , An1
        .byte           N12   , Dn1
        .byte   W12
        .byte                   Cn1
        .byte           N12   , Bn0
        .byte   W12
        .byte                   Bn0
        .byte   W12
        .byte           N06   , Dn2
        .byte           N06   , Dn1
        .byte           N12   , Cn1
        .byte   W06
        .byte           N06   , Dn2
        .byte           N06   , Dn1
        .byte   W06
        .byte                   Cn2
        .byte           N06   , Dn1
        .byte           N12   , Cn1
        .byte   W06
        .byte           N06   , Cn2
        .byte           N06   , Dn1
        .byte   W06
        .byte           N12   , Cn1
        .byte           N06   , Dn1
        .byte           N06   , An1
        .byte   W06
        .byte                   Dn1
        .byte           N06   , An1
        .byte   W06
        .byte           N12   , Cn1
        .byte           N06   , Dn1
        .byte           N06   , Gn1
        .byte   W06
        .byte                   Dn1
        .byte           N06   , Gn1
        .byte   W06
@ 010   ----------------------------------------
        .byte           VOL   , 87
        .byte           N06   , Fs1
        .byte           N12   , Cs2
        .byte           N12   , Bn0
        .byte           N12   , Cn1
        .byte   W12
        .byte                   Bn0
        .byte           N06   , Fs1
        .byte   W06
        .byte                   Fs1
        .byte   W06
        .byte                   Fs1
        .byte           N12   , Dn1
        .byte   W12
        .byte           N06   , Fs1
        .byte   W06
        .byte                   Fs1
        .byte   W06
        .byte                   Fs1
        .byte           N12   , Bn0
        .byte           N12   , Cn1
        .byte   W12
        .byte           N06   , Fs1
        .byte   W06
        .byte                   Fs1
        .byte   W06
        .byte           N12   , Dn1
        .byte           N06   , Fs1
        .byte   W12
        .byte                   Fs1
        .byte   W06
        .byte                   Fs1
        .byte   W06
@ 011   ----------------------------------------
        .byte           N12   , Bn0
        .byte           N12   , Cn1
        .byte           N06   , Fs1
        .byte   W12
        .byte                   Fs1
        .byte   W06
        .byte                   Fs1
        .byte   W06
        .byte           N12   , Dn1
        .byte           N06   , Fs1
        .byte   W12
        .byte                   Fs1
        .byte   W06
        .byte                   Fs1
        .byte   W06
        .byte           N12   , Cn1
        .byte           N12   , Bn0
        .byte           N06   , Fs1
        .byte   W12
        .byte                   Fs1
        .byte   W06
        .byte                   Fs1
        .byte   W06
        .byte           N12   , Dn1
        .byte           N06   , Fs1
        .byte           N12   , An2
        .byte   W12
        .byte           N06   , Fs1
        .byte   W06
        .byte                   Fs1
        .byte   W06
@ 012   ----------------------------------------
mus_geese_test1_2_12:
        .byte           N06   , Fs1 , v100
        .byte           N12   , Bn0
        .byte           N12   , Cn1
        .byte           N12   , Cs2
        .byte   W12
        .byte                   Bn0
        .byte           N06   , Fs1
        .byte   W06
        .byte                   Fs1
        .byte   W06
        .byte                   Fs1
        .byte           N12   , Dn1
        .byte   W12
        .byte           N06   , Fs1
        .byte   W06
        .byte                   Fs1
        .byte   W06
        .byte           N12   , Cn1
        .byte           N12   , Bn0
        .byte           N06   , Fs1
        .byte   W12
        .byte                   Fs1
        .byte   W06
        .byte                   Fs1
        .byte   W06
        .byte           N12   , Dn1
        .byte           N06   , Fs1
        .byte   W12
        .byte                   Fs1
        .byte   W06
        .byte                   Fs1
        .byte   W06
        .byte   PEND
@ 013   ----------------------------------------
        .byte           N12   , Bn0
        .byte           N12   , Cn1
        .byte           N06   , Fs1
        .byte   W12
        .byte                   Fs1
        .byte   W06
        .byte                   Fs1
        .byte   W06
        .byte           N12   , Dn1
        .byte           N06   , Fs1
        .byte   W12
        .byte                   Fs1
        .byte   W06
        .byte                   Fs1
        .byte   W06
        .byte           N12   , Bn0
        .byte           N06   , Fs1
        .byte           N12   , Cn1
        .byte   W12
        .byte           N06   , Fs1
        .byte   W06
        .byte                   Fs1
        .byte   W06
        .byte                   Fs1
        .byte           N12   , Dn1
        .byte   W12
        .byte           N06   , Fs1
        .byte   W06
        .byte                   Fs1
        .byte   W06
@ 014   ----------------------------------------
        .byte           N12   , Cs2
        .byte           N06   , Fs1
        .byte           N12   , Cn1
        .byte           N12   , Bn0
        .byte   W12
        .byte                   Bn0
        .byte           N06   , Fs1
        .byte   W06
        .byte                   Fs1
        .byte   W06
        .byte                   Fs1
        .byte           N12   , Dn1
        .byte   W12
        .byte           N06   , Fs1
        .byte   W06
        .byte                   Fs1
        .byte   W06
        .byte           N12   , Cn1
        .byte           N12   , Bn0
        .byte           N06   , Fs1
        .byte   W12
        .byte                   Fs1
        .byte   W06
        .byte                   Fs1
        .byte   W06
        .byte           N12   , Dn1
        .byte           N06   , Fs1
        .byte   W12
        .byte                   Fs1
        .byte   W06
        .byte                   Fs1
        .byte   W06
@ 015   ----------------------------------------
        .byte           N12   , Cn1
        .byte           N12   , Bn0
        .byte           N06   , Fs1
        .byte   W12
        .byte                   Fs1
        .byte   W06
        .byte                   Fs1
        .byte   W06
        .byte           N12   , Dn1
        .byte           N06   , Fs1
        .byte   W12
        .byte                   Fs1
        .byte   W06
        .byte                   Fs1
        .byte   W06
        .byte           N12   , Cn1
        .byte           N12   , Bn0
        .byte           N06   , Fs1
        .byte           N12   , Cs2
        .byte   W12
        .byte           N06   , Fs1
        .byte   W06
        .byte                   Fs1
        .byte   W06
        .byte           N12   , Dn1
        .byte           N06   , Fs1
        .byte           N12   , Cs2
        .byte   W12
        .byte           N06   , Fs1
        .byte   W06
        .byte                   Fs1
        .byte   W06
@ 016   ----------------------------------------
        .byte   PATT
         .word  mus_geese_test1_2_12
@ 017   ----------------------------------------
        .byte           N12   , Cn1 , v100
        .byte           N12   , Bn0
        .byte           N06   , Fs1
        .byte   W12
        .byte                   Fs1
        .byte   W06
        .byte                   Fs1
        .byte   W06
        .byte           N12   , Dn1
        .byte           N06   , Fs1
        .byte   W12
        .byte                   Fs1
        .byte   W06
        .byte                   Fs1
        .byte   W06
        .byte           N12   , Bn0
        .byte           N06   , Fs1
        .byte           N12   , Cn1
        .byte           N06   , Dn2
        .byte   W06
        .byte                   Dn2
        .byte   W06
        .byte                   Fs1
        .byte           N06   , Cn2
        .byte   W06
        .byte                   Fs1
        .byte           N06   , Cn2
        .byte   W06
        .byte           N12   , An2
        .byte           N12   , Dn1
        .byte           N06   , Fs1
        .byte           N06   , Bn1
        .byte   W06
        .byte                   Bn1
        .byte   W06
        .byte                   Fs1
        .byte           N06   , An1
        .byte   W06
        .byte                   Fs1
        .byte           N06   , An1
        .byte   W06
@ 018   ----------------------------------------
mus_geese_test1_2_18:
        .byte           N12   , Cn1
        .byte           N12   , Bn0
        .byte           N12   , Cs2
        .byte           N06   , Fs1
        .byte   W12
        .byte                   Fs1
        .byte           N12   , Bn0
        .byte   W06
        .byte           N06   , Fs1
        .byte   W06
        .byte                   Fs1
        .byte           N12   , Dn1
        .byte   W12
        .byte           N06   , Fs1
        .byte   W06
        .byte                   Fs1
        .byte   W06
        .byte                   Fs1
        .byte           N12   , Bn0
        .byte           N12   , Cn1
        .byte   W12
        .byte           N06   , Fs1
        .byte   W06
        .byte                   Fs1
        .byte   W06
        .byte                   Fs1
        .byte           N12   , Dn1
        .byte   W12
        .byte           N06   , Fs1
        .byte   W06
        .byte                   Fs1
        .byte   W06
@ 019   ----------------------------------------
mus_geese_test1_2_19:
        .byte           N06   , Fs1 , v100
        .byte           N12   , Bn0
        .byte           N12   , Cn1
        .byte   W12
        .byte           N06   , Fs1
        .byte   W06
        .byte                   Fs1
        .byte   W06
        .byte           N12   , Dn1
        .byte           N06   , Fs1
        .byte   W12
        .byte                   Fs1
        .byte   W06
        .byte                   Fs1
        .byte   W06
        .byte                   Fs1
        .byte           N12   , Bn0
        .byte           N12   , Cn1
        .byte   W12
        .byte           N06   , Fs1
        .byte   W06
        .byte                   Fs1
        .byte   W06
        .byte           N12   , Dn1
        .byte           N06   , Fs1
        .byte   W12
        .byte                   Fs1
        .byte   W06
        .byte                   Fs1
        .byte   W06
        .byte   PEND
@ 020   ----------------------------------------
        .byte                   Fs1
        .byte           N12   , Bn0
        .byte           N12   , Cn1
        .byte   W12
        .byte                   Bn0
        .byte           N06   , Fs1
        .byte   W06
        .byte                   Fs1
        .byte   W06
        .byte           N12   , Dn1
        .byte           N06   , Fs1
        .byte   W12
        .byte                   Fs1
        .byte   W06
        .byte                   Fs1
        .byte   W06
        .byte                   Fs1
        .byte           N12   , Bn0
        .byte           N12   , Cn1
        .byte   W12
        .byte           N06   , Fs1
        .byte   W06
        .byte                   Fs1
        .byte   W06
        .byte                   Fs1
        .byte           N12   , Dn1
        .byte   W12
        .byte           N06   , Fs1
        .byte   W06
        .byte                   Fs1
        .byte   W06
@ 021   ----------------------------------------
        .byte           N12   , Cn1
        .byte           N12   , Bn0
        .byte           N06   , Fs1
        .byte   W12
        .byte                   Fs1
        .byte   W06
        .byte                   Fs1
        .byte   W06
        .byte           N12   , Dn1
        .byte           N06   , Fs1
        .byte   W12
        .byte                   Fs1
        .byte   W06
        .byte                   Fs1
        .byte   W06
        .byte           N12   , Bn0
        .byte           N06   , Fs1
        .byte           N12   , Cn1
        .byte   W12
        .byte           N06   , Fs1
        .byte   W06
        .byte                   Fs1
        .byte   W06
        .byte           N12   , Dn1
        .byte           N06   , Fs1
        .byte   W12
        .byte                   Fs1
        .byte   W06
        .byte                   Fs1
        .byte   W06
@ 022   ----------------------------------------
        .byte           N12   , Cn1
        .byte           N06   , Fs1
        .byte           N12   , Bn0
        .byte   W12
        .byte           N06   , Fs1
        .byte           N12   , Bn0
        .byte   W06
        .byte           N06   , Fs1
        .byte   W06
        .byte           N12   , Dn1
        .byte           N06   , Fs1
        .byte   W12
        .byte                   Fs1
        .byte   W06
        .byte                   Fs1
        .byte   W06
        .byte           N12   , Cn1
        .byte           N12   , Bn0
        .byte           N06   , Fs1
        .byte   W12
        .byte                   Fs1
        .byte   W06
        .byte                   Fs1
        .byte   W06
        .byte           N12   , Dn1
        .byte           N06   , Fs1
        .byte   W12
        .byte                   Fs1
        .byte   W06
        .byte                   Fs1
        .byte   W06
@ 023   ----------------------------------------
mus_geese_test1_2_23:
        .byte           N12   , Cn1 , v100
        .byte           N12   , Bn0
        .byte           N06   , Fs1
        .byte   W12
        .byte                   Fs1
        .byte   W06
        .byte                   Fs1
        .byte   W06
        .byte           N12   , Dn1
        .byte           N06   , Fs1
        .byte   W12
        .byte                   Fs1
        .byte   W06
        .byte                   Fs1
        .byte   W06
        .byte           N12   , Cn1
        .byte           N12   , Bn0
        .byte           N06   , Fs1
        .byte   W12
        .byte                   Fs1
        .byte   W06
        .byte                   Fs1
        .byte   W06
        .byte           N12   , Dn1
        .byte           N06   , Fs1
        .byte   W12
        .byte                   Fs1
        .byte   W06
        .byte                   Fs1
        .byte   W06
        .byte   PEND
@ 024   ----------------------------------------
        .byte           N12   , Cn1
        .byte           N12   , Bn0
        .byte           N06   , Fs1
        .byte   W12
        .byte                   Fs1
        .byte           N12   , Bn0
        .byte   W06
        .byte           N06   , Fs1
        .byte   W06
        .byte           N12   , Dn1
        .byte           N06   , Fs1
        .byte   W12
        .byte                   Fs1
        .byte   W06
        .byte                   Fs1
        .byte   W06
        .byte           N12   , Cn1
        .byte           N12   , Bn0
        .byte           N06   , Fs1
        .byte   W12
        .byte                   Fs1
        .byte   W06
        .byte                   Fs1
        .byte   W06
        .byte           N12   , Dn1
        .byte           N06   , Fs1
        .byte   W12
        .byte                   Fs1
        .byte   W06
        .byte                   Fs1
        .byte   W06
@ 025   ----------------------------------------
        .byte   PATT
         .word  mus_geese_test1_2_23
@ 026   ----------------------------------------
        .byte           N06   , Fs1 , v100
        .byte           N12   , Cn1
        .byte           N12   , Bn0
        .byte           N12   , Cs2
        .byte   W12
        .byte                   Bn0
        .byte           N06   , Fs1
        .byte   W06
        .byte                   Fs1
        .byte   W06
        .byte                   Fs1
        .byte           N12   , Dn1
        .byte   W12
        .byte           N06   , Fs1
        .byte   W06
        .byte                   Fs1
        .byte   W06
        .byte           N12   , Cn1
        .byte           N12   , Bn0
        .byte           N06   , Fs1
        .byte   W12
        .byte                   Fs1
        .byte   W06
        .byte                   Fs1
        .byte   W06
        .byte           N12   , Dn1
        .byte           N06   , Fs1
        .byte   W12
        .byte                   Fs1
        .byte   W06
        .byte                   Fs1
        .byte   W06
@ 027   ----------------------------------------
        .byte           N12   , Cn1
        .byte           N12   , Bn0
        .byte           N06   , Fs1
        .byte   W12
        .byte                   Fs1
        .byte   W06
        .byte                   Fs1
        .byte   W06
        .byte           N12   , Dn1
        .byte           N06   , Fs1
        .byte   W12
        .byte                   Fs1
        .byte   W06
        .byte                   Fs1
        .byte   W06
        .byte           N12   , Cn1
        .byte           N12   , Bn0
        .byte           N06   , Fs1
        .byte   W12
        .byte                   Fs1
        .byte   W06
        .byte                   Fs1
        .byte   W06
        .byte           N12   , Dn1
        .byte           N06   , Fs1
        .byte           N12   , An2
        .byte   W12
        .byte           N06   , Fs1
        .byte   W06
        .byte                   Fs1
        .byte   W06
@ 028   ----------------------------------------
        .byte   PATT
         .word  mus_geese_test1_2_12
@ 029   ----------------------------------------
        .byte           N06   , Fs1 , v100
        .byte           N12   , Bn0
        .byte           N12   , Cn1
        .byte   W12
        .byte           N06   , Fs1
        .byte   W06
        .byte                   Fs1
        .byte   W06
        .byte                   Fs1
        .byte           N12   , Dn1
        .byte   W12
        .byte           N06   , Fs1
        .byte   W06
        .byte                   Fs1
        .byte   W06
        .byte           N12   , Bn0
        .byte           N06   , Fs1
        .byte           N12   , Cn1
        .byte   W12
        .byte           N06   , Fs1
        .byte   W06
        .byte                   Fs1
        .byte   W06
        .byte                   Fs1
        .byte           N12   , Dn1
        .byte   W12
        .byte           N06   , Fs1
        .byte   W06
        .byte                   Fs1
        .byte   W06
@ 030   ----------------------------------------
        .byte                   Fs1
        .byte           N12   , Cn1
        .byte           N12   , Bn0
        .byte           N12   , Cs2
        .byte   W12
        .byte           N06   , Fs1
        .byte           N12   , Bn0
        .byte   W06
        .byte           N06   , Fs1
        .byte   W06
        .byte                   Fs1
        .byte           N12   , Dn1
        .byte   W12
        .byte           N06   , Fs1
        .byte   W06
        .byte                   Fs1
        .byte   W06
        .byte           N12   , Cn1
        .byte           N12   , Bn0
        .byte           N06   , Fs1
        .byte   W12
        .byte                   Fs1
        .byte   W06
        .byte                   Fs1
        .byte   W06
        .byte           N12   , Dn1
        .byte           N06   , Fs1
        .byte   W12
        .byte                   Fs1
        .byte   W06
        .byte                   Fs1
        .byte   W06
@ 031   ----------------------------------------
        .byte                   Fs1
        .byte           N12   , Bn0
        .byte           N12   , Cn1
        .byte   W12
        .byte           N06   , Fs1
        .byte   W06
        .byte                   Fs1
        .byte   W06
        .byte                   Fs1
        .byte           N12   , Dn1
        .byte   W12
        .byte           N06   , Fs1
        .byte   W06
        .byte                   Fs1
        .byte   W06
        .byte           N12   , Cn1
        .byte           N12   , Bn0
        .byte           N06   , Fs1
        .byte           N12   , Cs2
        .byte   W12
        .byte           N06   , Fs1
        .byte   W06
        .byte                   Fs1
        .byte   W06
        .byte                   Fs1
        .byte           N12   , Dn1
        .byte           N12   , Cs2
        .byte   W12
        .byte           N06   , Fs1
        .byte   W06
        .byte                   Fs1
        .byte   W06
@ 032   ----------------------------------------
        .byte                   Fs1
        .byte           N12   , Bn0
        .byte           N12   , Cn1
        .byte           N12   , Cs2
        .byte   W12
        .byte           N06   , Fs1
        .byte           N12   , Bn0
        .byte   W06
        .byte           N06   , Fs1
        .byte   W06
        .byte                   Fs1
        .byte           N12   , Dn1
        .byte   W12
        .byte           N06   , Fs1
        .byte   W06
        .byte                   Fs1
        .byte   W06
        .byte                   Fs1
        .byte           N12   , Bn0
        .byte           N12   , Cn1
        .byte   W12
        .byte           N06   , Fs1
        .byte   W06
        .byte                   Fs1
        .byte   W06
        .byte           N12   , Dn1
        .byte           N06   , Fs1
        .byte   W12
        .byte                   Fs1
        .byte   W06
        .byte                   Fs1
        .byte   W06
@ 033   ----------------------------------------
        .byte           N12   , Cn1
        .byte           N12   , Bn0
        .byte           N06   , Fs1
        .byte   W12
        .byte                   Fs1
        .byte   W06
        .byte                   Fs1
        .byte   W06
        .byte           N12   , Dn1
        .byte           N06   , Fs1
        .byte   W12
        .byte                   Fs1
        .byte   W06
        .byte                   Fs1
        .byte   W06
        .byte           N12   , Cn1
        .byte           N06   , Dn2
        .byte           N06   , Fs1
        .byte           N12   , Bn0
        .byte   W06
        .byte           N06   , Dn2
        .byte   W06
        .byte                   Fs1
        .byte           N06   , Cn2
        .byte   W06
        .byte                   Fs1
        .byte           N06   , Cn2
        .byte   W06
        .byte           N12   , Dn1
        .byte           N06   , Fs1
        .byte           N06   , Bn1
        .byte           N12   , An2
        .byte   W06
        .byte           N06   , Bn1
        .byte   W06
        .byte                   An1
        .byte           N06   , Fs1
        .byte   W06
        .byte                   An1
        .byte           N06   , Fs1
        .byte   W06
@ 034   ----------------------------------------
mus_geese_test1_2_34:
        .byte           N12   , Cs2 , v100
        .byte           N12   , Cn1
        .byte           N12   , Bn0
        .byte           N06   , Fs1
        .byte   W12
        .byte           N12   , Bn0
        .byte           N06   , Fs1
        .byte   W06
        .byte                   Fs1
        .byte   W06
        .byte           N12   , Dn1
        .byte           N06   , Fs1
        .byte   W12
        .byte                   Fs1
        .byte   W06
        .byte                   Fs1
        .byte   W06
        .byte           N12   , Cn1
        .byte           N12   , Bn0
        .byte           N06   , Fs1
        .byte   W12
        .byte                   Fs1
        .byte   W06
        .byte                   Fs1
        .byte   W06
        .byte           N12   , Dn1
        .byte           N06   , Fs1
        .byte   W12
        .byte                   Fs1
        .byte   W06
        .byte                   Fs1
        .byte   W06
        .byte   PEND
@ 035   ----------------------------------------
        .byte   PATT
         .word  mus_geese_test1_2_23
@ 036   ----------------------------------------
mus_geese_test1_2_36:
        .byte           N12   , Cn1 , v100
        .byte           N12   , Bn0
        .byte           N06   , Fs1
        .byte   W12
        .byte           N12   , Bn0
        .byte           N06   , Fs1
        .byte   W06
        .byte                   Fs1
        .byte   W06
        .byte           N12   , Dn1
        .byte           N06   , Fs1
        .byte   W12
        .byte                   Fs1
        .byte   W06
        .byte                   Fs1
        .byte   W06
        .byte           N12   , Cn1
        .byte           N12   , Bn0
        .byte           N06   , Fs1
        .byte   W12
        .byte                   Fs1
        .byte   W06
        .byte                   Fs1
        .byte   W06
        .byte           N12   , Dn1
        .byte           N06   , Fs1
        .byte   W12
        .byte                   Fs1
        .byte   W06
        .byte                   Fs1
        .byte   W06
        .byte   PEND
@ 037   ----------------------------------------
        .byte                   Fs1
        .byte           N12   , Bn0
        .byte           N12   , Cn1
        .byte   W12
        .byte           N06   , Fs1
        .byte   W06
        .byte                   Fs1
        .byte   W06
        .byte           N12   , Dn1
        .byte           N06   , Fs1
        .byte   W12
        .byte                   Fs1
        .byte   W06
        .byte                   Fs1
        .byte   W06
        .byte           N12   , Cn1
        .byte           N12   , Bn0
        .byte           N06   , Fs1
        .byte   W12
        .byte                   Fs1
        .byte   W06
        .byte                   Fs1
        .byte   W06
        .byte           N12   , Dn1
        .byte           N06   , Fs1
        .byte   W12
        .byte                   Fs1
        .byte   W06
        .byte                   Fs1
        .byte   W06
@ 038   ----------------------------------------
        .byte           N12   , Cn1
        .byte           N12   , Bn0
        .byte           N06   , Fs1
        .byte   W12
        .byte           N12   , Bn0
        .byte           N06   , Fs1
        .byte   W06
        .byte                   Fs1
        .byte   W06
        .byte           N12   , Dn1
        .byte           N06   , Fs1
        .byte   W12
        .byte                   Fs1
        .byte   W06
        .byte                   Fs1
        .byte   W06
        .byte           N12   , Bn0
        .byte           N12   , Cn1
        .byte           N06   , Fs1
        .byte   W12
        .byte                   Fs1
        .byte   W06
        .byte                   Fs1
        .byte   W06
        .byte           N12   , Dn1
        .byte           N06   , Fs1
        .byte   W12
        .byte                   Fs1
        .byte   W06
        .byte                   Fs1
        .byte   W06
@ 039   ----------------------------------------
        .byte   PATT
         .word  mus_geese_test1_2_23
@ 040   ----------------------------------------
mus_geese_test1_2_40:
        .byte           N12   , Bn0 , v100
        .byte           N12   , Cn1
        .byte           N06   , Fs1
        .byte   W12
        .byte           N12   , Bn0
        .byte           N06   , Fs1
        .byte   W06
        .byte                   Fs1
        .byte   W06
        .byte           N12   , Dn1
        .byte           N06   , Fs1
        .byte   W12
        .byte                   Fs1
        .byte   W06
        .byte                   Fs1
        .byte   W06
        .byte           N12   , Cn1
        .byte           N12   , Bn0
        .byte           N06   , Fs1
        .byte   W12
        .byte                   Fs1
        .byte   W06
        .byte                   Fs1
        .byte   W06
        .byte           N12   , Dn1
        .byte           N06   , Fs1
        .byte   W12
        .byte                   Fs1
        .byte   W06
        .byte                   Fs1
        .byte   W06
        .byte   PEND
@ 041   ----------------------------------------
        .byte           N12   , Cn1
        .byte           N12   , Bn0
        .byte           N06   , Fs1
        .byte   W12
        .byte                   Fs1
        .byte   W06
        .byte                   Fs1
        .byte   W06
        .byte           N12   , Dn1
        .byte           N06   , Fs1
        .byte   W12
        .byte                   Fs1
        .byte   W06
        .byte                   Fs1
        .byte   W06
        .byte           N12   , Cn1
        .byte           N12   , Bn0
        .byte           N06   , Fs1
        .byte   W12
        .byte                   Fs1
        .byte   W06
        .byte                   Fs1
        .byte   W06
        .byte                   Fs1
        .byte           N12   , Dn1
        .byte   W12
        .byte           N06   , Fs1
        .byte   W06
        .byte                   Fs1
        .byte   W06
@ 042   ----------------------------------------
        .byte           N12   , Ds2
        .byte           N12   , Cs2
        .byte           N12   , Bn0
        .byte           N12   , Cn1
        .byte   W12
        .byte                   Bn0
        .byte   W12
        .byte                   Ds2
        .byte           N12   , Dn1
        .byte   W24
        .byte                   Cn1
        .byte           N12   , Bn0
        .byte           N12   , Ds2
        .byte   W24
        .byte                   Dn1
        .byte           N12   , Ds2
        .byte   W24
@ 043   ----------------------------------------
        .byte                   Ds2
        .byte           N12   , Cn1
        .byte           N12   , Bn0
        .byte   W24
        .byte                   Dn1
        .byte           N12   , Ds2
        .byte   W24
        .byte                   Ds2
        .byte           N12   , Bn0
        .byte           N12   , Cn1
        .byte   W24
        .byte                   Dn1
        .byte           N12   , Ds2
        .byte   W24
@ 044   ----------------------------------------
mus_geese_test1_2_44:
        .byte           N12   , Ds2 , v100
        .byte           N12   , Bn0
        .byte           N12   , Cn1
        .byte   W12
        .byte                   Bn0
        .byte   W12
        .byte                   Ds2
        .byte           N12   , Dn1
        .byte   W24
        .byte                   Cn1
        .byte           N12   , Bn0
        .byte           N12   , Ds2
        .byte   W24
        .byte                   Dn1
        .byte           N12   , Ds2
        .byte   W24
        .byte   PEND
@ 045   ----------------------------------------
        .byte                   Ds2
        .byte           N12   , Bn0
        .byte           N12   , Cn1
        .byte   W24
        .byte                   Dn1
        .byte           N12   , Ds2
        .byte   W24
        .byte                   Bn0
        .byte           N12   , Ds2
        .byte           N12   , Cn1
        .byte   W24
        .byte                   Ds2
        .byte           N12   , Dn1
        .byte   W24
@ 046   ----------------------------------------
        .byte   PATT
         .word  mus_geese_test1_2_44
@ 047   ----------------------------------------
        .byte           N12   , Cn1 , v100
        .byte           N12   , Bn0
        .byte           N12   , Ds2
        .byte   W24
        .byte                   Dn1
        .byte           N12   , Ds2
        .byte   W24
        .byte                   Cn1
        .byte           N12   , Ds2
        .byte           N12   , Bn0
        .byte   W24
        .byte                   Ds2
        .byte           N12   , Dn1
        .byte   W24
@ 048   ----------------------------------------
        .byte                   Bn0
        .byte           N12   , Cn1
        .byte           N12   , Cs2
        .byte           N06   , Fs1
        .byte   W12
        .byte           N12   , Bn0
        .byte           N06   , Fs1
        .byte   W06
        .byte                   Fs1
        .byte   W06
        .byte           N12   , Dn1
        .byte           N06   , Fs1
        .byte   W12
        .byte                   Fs1
        .byte   W06
        .byte                   Fs1
        .byte   W06
        .byte           N12   , Cn1
        .byte           N12   , Bn0
        .byte           N06   , Fs1
        .byte   W12
        .byte                   Fs1
        .byte   W06
        .byte                   Fs1
        .byte   W06
        .byte           N12   , Dn1
        .byte           N06   , Fs1
        .byte   W12
        .byte                   Fs1
        .byte   W06
        .byte                   Fs1
        .byte   W06
@ 049   ----------------------------------------
        .byte           N12   , Bn0
        .byte           N12   , Cn1
        .byte           N06   , Fs1
        .byte   W12
        .byte                   Fs1
        .byte   W06
        .byte                   Fs1
        .byte   W06
        .byte           N12   , Dn1
        .byte           N06   , Fs1
        .byte   W12
        .byte                   Fs1
        .byte   W06
        .byte                   Fs1
        .byte   W06
        .byte                   Fs1
        .byte           N12   , Cn1
        .byte           N12   , Bn0
        .byte   W12
        .byte           N06   , Fs1
        .byte   W06
        .byte                   Fs1
        .byte   W06
        .byte                   Fs1
        .byte           N12   , Dn1
        .byte   W12
        .byte           N06   , Fs1
        .byte   W06
        .byte                   Fs1
        .byte   W06
@ 050   ----------------------------------------
        .byte           N24   , Cs2
        .byte           N12   , Bn0
        .byte           N12   , Cn1
        .byte           N12   , Ds2
        .byte           N06   , Fs1
        .byte   W12
        .byte                   Fs1
        .byte           N12   , Bn0
        .byte   W06
        .byte           N06   , Fs1
        .byte   W06
        .byte                   Fs1
        .byte           N12   , Ds2
        .byte           N12   , Dn1
        .byte   W12
        .byte           N06   , Fs1
        .byte   W06
        .byte                   Fs1
        .byte   W06
        .byte                   Fs1
        .byte           N12   , Ds2
        .byte           N12   , Bn0
        .byte           N12   , Cn1
        .byte   W12
        .byte           N06   , Fs1
        .byte   W06
        .byte                   Fs1
        .byte   W06
        .byte                   Fs1
        .byte           N12   , Ds2
        .byte           N12   , Dn1
        .byte   W12
        .byte           N06   , Fs1
        .byte   W06
        .byte                   Fs1
        .byte   W06
@ 051   ----------------------------------------
        .byte                   Fs1
        .byte           N12   , Cn1
        .byte           N12   , Bn0
        .byte           N12   , Ds2
        .byte   W12
        .byte           N06   , Fs1
        .byte   W06
        .byte                   Fs1
        .byte   W06
        .byte           N12   , Ds2
        .byte           N12   , Dn1
        .byte           N06   , Fs1
        .byte   W12
        .byte                   Fs1
        .byte   W06
        .byte                   Fs1
        .byte   W06
        .byte                   Fs1
        .byte           N12   , Cn1
        .byte           N12   , Bn0
        .byte           N12   , Ds2
        .byte   W12
        .byte           N06   , Fs1
        .byte   W06
        .byte                   Fs1
        .byte   W06
        .byte                   Fs1
        .byte           N12   , Dn1
        .byte           N12   , Ds2
        .byte   W12
        .byte           N06   , Fs1
        .byte   W06
        .byte                   Fs1
        .byte   W06
@ 052   ----------------------------------------
        .byte                   Fs1
        .byte           N12   , Ds2
        .byte           N12   , Bn0
        .byte           N12   , Cn1
        .byte   W12
        .byte                   Bn0
        .byte           N06   , Fs1
        .byte   W06
        .byte                   Fs1
        .byte   W06
        .byte           N12   , Dn1
        .byte           N12   , Ds2
        .byte           N06   , Fs1
        .byte   W12
        .byte                   Fs1
        .byte   W06
        .byte                   Fs1
        .byte   W06
        .byte           N12   , Bn0
        .byte           N12   , Cn1
        .byte           N12   , Ds2
        .byte           N06   , Fs1
        .byte   W12
        .byte                   Fs1
        .byte   W06
        .byte                   Fs1
        .byte   W06
        .byte           N12   , Dn1
        .byte           N12   , Ds2
        .byte           N06   , Fs1
        .byte   W12
        .byte                   Fs1
        .byte   W06
        .byte                   Fs1
        .byte   W06
@ 053   ----------------------------------------
        .byte                   Fs1
        .byte           N12   , Ds2
        .byte           N12   , Bn0
        .byte           N12   , Cn1
        .byte   W12
        .byte           N06   , Fs1
        .byte   W06
        .byte                   Fs1
        .byte   W06
        .byte                   Fs1
        .byte           N12   , Ds2
        .byte           N12   , Dn1
        .byte   W12
        .byte           N06   , Fs1
        .byte   W06
        .byte                   Fs1
        .byte   W06
        .byte                   Fs1
        .byte           N12   , Ds2
        .byte           N12   , Bn0
        .byte           N12   , Cn1
        .byte   W12
        .byte           N06   , Fs1
        .byte   W06
        .byte                   Fs1
        .byte   W06
        .byte           N12   , Dn1
        .byte           N12   , Ds2
        .byte           N06   , Fs1
        .byte   W12
        .byte                   Fs1
        .byte   W06
        .byte                   Fs1
        .byte   W06
@ 054   ----------------------------------------
        .byte           N12   , Cn1
        .byte           N12   , Bn0
        .byte           N12   , Ds2
        .byte           N06   , Fs1
        .byte   W12
        .byte           N12   , Bn0
        .byte           N06   , Fs1
        .byte   W06
        .byte                   Fs1
        .byte   W06
        .byte                   Fs1
        .byte           N12   , Ds2
        .byte           N12   , Dn1
        .byte   W12
        .byte           N06   , Fs1
        .byte   W06
        .byte                   Fs1
        .byte   W06
        .byte                   Fs1
        .byte           N12   , Ds2
        .byte           N12   , Bn0
        .byte           N12   , Cn1
        .byte   W12
        .byte           N06   , Fs1
        .byte   W06
        .byte                   Fs1
        .byte   W06
        .byte           N12   , Dn1
        .byte           N12   , Ds2
        .byte           N06   , Fs1
        .byte   W12
        .byte                   Fs1
        .byte   W06
        .byte                   Fs1
        .byte   W06
@ 055   ----------------------------------------
        .byte                   Fs1
        .byte           N12   , Cn1
        .byte           N12   , Bn0
        .byte           N12   , Ds2
        .byte   W12
        .byte           N06   , Fs1
        .byte   W06
        .byte                   Fs1
        .byte   W06
        .byte                   Fs1
        .byte           N12   , Dn1
        .byte           N12   , Ds2
        .byte   W12
        .byte           N06   , Fs1
        .byte   W06
        .byte                   Fs1
        .byte   W06
        .byte           N12   , Ds2
        .byte           N12   , Bn0
        .byte           N06   , Fs1
        .byte           N12   , Cn1
        .byte   W12
        .byte           N06   , Fs1
        .byte   W06
        .byte                   Fs1
        .byte   W06
        .byte           N12   , Ds2
        .byte           N06   , Fs1
        .byte           N12   , Dn1
        .byte   W12
        .byte           N06   , Fs1
        .byte   W06
        .byte                   Fs1
        .byte   W06
@ 056   ----------------------------------------
        .byte           N12   , Cn1
        .byte           N12   , Bn0
        .byte           N12   , Ds2
        .byte           N06   , Fs1
        .byte   W12
        .byte                   Fs1
        .byte           N12   , Bn0
        .byte   W06
        .byte           N06   , Fs1
        .byte   W06
        .byte           N12   , Dn1
        .byte           N12   , Ds2
        .byte           N06   , Fs1
        .byte   W12
        .byte                   Fs1
        .byte   W06
        .byte                   Fs1
        .byte   W06
        .byte           N12   , Cn1
        .byte           N12   , Bn0
        .byte           N12   , Ds2
        .byte           N06   , Fs1
        .byte   W12
        .byte                   Fs1
        .byte   W06
        .byte                   Fs1
        .byte   W06
        .byte           N12   , Dn1
        .byte           N12   , Ds2
        .byte           N06   , Fs1
        .byte   W12
        .byte                   Fs1
        .byte   W06
        .byte                   Fs1
        .byte   W06
@ 057   ----------------------------------------
        .byte           N12   , Cn1
        .byte           N12   , Bn0
        .byte   W12
        .byte                   Cn1
        .byte           N12   , Bn0
        .byte           N06   , Dn2
        .byte   W06
        .byte                   Cn2
        .byte   W06
        .byte                   Bn1
        .byte   W06
        .byte           N12   , Cn1
        .byte           N12   , Bn0
        .byte   W06
        .byte           N06   , Cn2
        .byte   W06
        .byte                   Bn1
        .byte   W06
        .byte                   An1
        .byte   W06
        .byte           N12   , Bn0
        .byte           N12   , Cn1
        .byte   W06
        .byte           N06   , Bn1
        .byte   W06
        .byte                   An1
        .byte   W06
        .byte                   Gn1
        .byte   W06
        .byte                   Bn0
        .byte           N06   , Cn1
        .byte   W06
        .byte                   Dn1
        .byte   W06
        .byte                   Bn0
        .byte           N06   , Dn1
        .byte   W06
@ 058   ----------------------------------------
mus_geese_test1_2_58:
        .byte           N12   , Cn1 , v100
        .byte           N12   , Cs2
        .byte           N12   , Bn0
        .byte           N06   , Fs1
        .byte   W12
        .byte           N12   , Bn0
        .byte           N06   , Fs1
        .byte   W06
        .byte                   Fs1
        .byte   W06
        .byte                   Fs1
        .byte           N12   , Dn1
        .byte   W12
        .byte           N06   , Fs1
        .byte   W06
        .byte                   Fs1
        .byte   W06
        .byte           N12   , Bn0
        .byte           N12   , Cn1
        .byte           N06   , Fs1
        .byte   W12
        .byte                   Fs1
        .byte   W06
        .byte                   Fs1
        .byte   W06
        .byte           N12   , Dn1
        .byte           N06   , Fs1
        .byte   W12
        .byte                   Fs1
        .byte   W06
        .byte                   Fs1
        .byte   W06
        .byte   PEND
@ 059   ----------------------------------------
        .byte           N12   , Bn0
        .byte           N12   , Cn1
        .byte           N06   , Fs1
        .byte   W12
        .byte                   Fs1
        .byte   W06
        .byte                   Fs1
        .byte   W06
        .byte           N12   , Dn1
        .byte           N06   , Fs1
        .byte   W12
        .byte                   Fs1
        .byte   W06
        .byte                   Fs1
        .byte   W06
        .byte           N12   , Cn1
        .byte           N12   , Bn0
        .byte           N06   , Fs1
        .byte   W12
        .byte                   Fs1
        .byte   W06
        .byte                   Fs1
        .byte   W06
        .byte           N12   , Dn1
        .byte           N06   , Fs1
        .byte   W12
        .byte                   Fs1
        .byte   W06
        .byte                   Fs1
        .byte   W06
@ 060   ----------------------------------------
        .byte   PATT
         .word  mus_geese_test1_2_36
@ 061   ----------------------------------------
        .byte   PATT
         .word  mus_geese_test1_2_23
@ 062   ----------------------------------------
        .byte   PATT
         .word  mus_geese_test1_2_40
@ 063   ----------------------------------------
        .byte   PATT
         .word  mus_geese_test1_2_23
@ 064   ----------------------------------------
        .byte   PATT
         .word  mus_geese_test1_2_36
@ 065   ----------------------------------------
        .byte   PATT
         .word  mus_geese_test1_2_23
@ 066   ----------------------------------------
        .byte           N12   , Dn1 , v100
        .byte           N12   , An1
        .byte           N12   , Bn1
        .byte           N12   , Cn2
        .byte           N12   , Cs2
        .byte   W12
        .byte                   Cn1
        .byte           N12   , Bn0
        .byte           N12   , Fn1
        .byte           N12   , Gn1
        .byte           N12   , An1
        .byte   W12
        .byte                   Bn0
        .byte           N12   , Fn1
        .byte           N12   , Gn1
        .byte           N12   , An1
        .byte   W12
        .byte                   Dn1
        .byte           N12   , An1
        .byte           N12   , Bn1
        .byte           N12   , Cn2
        .byte           N12   , Cs2
        .byte   W12
        .byte                   Cn1
        .byte           N12   , Bn0
        .byte           N12   , Fn1
        .byte           N12   , Gn1
        .byte           N12   , An1
        .byte   W12
        .byte                   Bn0
        .byte           N12   , Fn1
        .byte           N12   , Gn1
        .byte           N12   , An1
        .byte   W12
        .byte                   Dn1
        .byte           N12   , An1
        .byte           N12   , Bn1
        .byte           N12   , Cn2
        .byte           N12   , Cs2
        .byte   W12
        .byte                   Cn1
        .byte           N12   , Bn0
        .byte           N12   , Fn1
        .byte           N12   , Gn1
        .byte           N12   , An1
        .byte   W12
@ 067   ----------------------------------------
        .byte                   Dn1
        .byte           N12   , An1
        .byte           N12   , Bn1
        .byte           N12   , Cn2
        .byte           N12   , Cs2
        .byte   W12
        .byte                   An1
        .byte           N12   , Gn1
        .byte           N12   , Fn1
        .byte           N12   , Bn0
        .byte           N12   , Cn1
        .byte   W12
        .byte                   Cn1
        .byte           N12   , Bn0
        .byte           N12   , Fn1
        .byte           N12   , Gn1
        .byte           N12   , An1
        .byte   W12
        .byte                   Cn2
        .byte           N12   , Bn1
        .byte           N12   , An1
        .byte           N12   , Dn1
        .byte           N12   , Cs2
        .byte   W12
        .byte                   An1
        .byte           N12   , Gn1
        .byte           N12   , Fn1
        .byte           N12   , Bn0
        .byte           N12   , Cn1
        .byte   W12
        .byte                   Bn0
        .byte           N12   , Fn1
        .byte           N12   , Gn1
        .byte           N12   , An1
        .byte   W12
        .byte                   Dn1
        .byte           N12   , An1
        .byte           N12   , Bn1
        .byte           N12   , Cn2
        .byte           N12   , Cs2
        .byte   W12
        .byte                   Cn1
        .byte           N12   , An1
        .byte           N12   , Gn1
        .byte           N12   , Fn1
        .byte           N12   , Bn0
        .byte   W12
@ 068   ----------------------------------------
        .byte   PATT
         .word  mus_geese_test1_2_34
@ 069   ----------------------------------------
        .byte           N06   , Fs1 , v100
        .byte           N12   , Bn0
        .byte           N12   , Cn1
        .byte   W12
        .byte           N06   , Fs1
        .byte   W06
        .byte                   Fs1
        .byte   W06
        .byte                   Fs1
        .byte           N12   , Dn1
        .byte   W12
        .byte           N06   , Fs1
        .byte   W06
        .byte                   Fs1
        .byte   W06
        .byte           N12   , Cn1
        .byte           N12   , Bn0
        .byte           N06   , Fs1
        .byte   W12
        .byte                   Fs1
        .byte   W06
        .byte                   Fs1
        .byte   W06
        .byte                   Fs1
        .byte           N12   , Dn1
        .byte   W12
        .byte           N06   , Fs1
        .byte   W06
        .byte                   Fs1
        .byte   W06
@ 070   ----------------------------------------
        .byte           N12   , Bn0
        .byte           N12   , Cn1
        .byte           N06   , Fs1
        .byte   W12
        .byte           N12   , Bn0
        .byte           N06   , Fs1
        .byte   W06
        .byte                   Fs1
        .byte   W06
        .byte           N12   , Dn1
        .byte           N06   , Fs1
        .byte   W12
        .byte                   Fs1
        .byte   W06
        .byte                   Fs1
        .byte   W06
        .byte           N12   , Bn0
        .byte           N12   , Cn1
        .byte           N06   , Fs1
        .byte   W12
        .byte                   Fs1
        .byte   W06
        .byte                   Fs1
        .byte   W06
        .byte                   Fs1
        .byte           N12   , Dn1
        .byte   W12
        .byte           N06   , Fs1
        .byte   W06
        .byte                   Fs1
        .byte   W06
@ 071   ----------------------------------------
        .byte           N12   , Cn1
        .byte           N12   , Bn0
        .byte           N06   , Fs1
        .byte   W12
        .byte                   Fs1
        .byte   W06
        .byte                   Fs1
        .byte   W06
        .byte                   Fs1
        .byte           N12   , Dn1
        .byte   W12
        .byte           N06   , Fs1
        .byte   W06
        .byte                   Fs1
        .byte   W06
        .byte           N12   , Bn0
        .byte           N12   , Cn1
        .byte           N06   , Fs1
        .byte   W12
        .byte                   Fs1
        .byte   W06
        .byte                   Fs1
        .byte   W06
        .byte                   Fs1
        .byte           N12   , Dn1
        .byte   W12
        .byte           N06   , Fs1
        .byte   W06
        .byte                   Fs1
        .byte   W06
@ 072   ----------------------------------------
        .byte                   Fs1
        .byte           N12   , Cn1
        .byte           N12   , Bn0
        .byte   W12
        .byte           N06   , Fs1
        .byte           N12   , Bn0
        .byte   W06
        .byte           N06   , Fs1
        .byte   W06
        .byte                   Fs1
        .byte           N12   , Dn1
        .byte   W12
        .byte           N06   , Fs1
        .byte   W06
        .byte                   Fs1
        .byte   W06
        .byte                   Fs1
        .byte           N12   , Cn1
        .byte           N12   , Bn0
        .byte   W12
        .byte           N06   , Fs1
        .byte   W06
        .byte                   Fs1
        .byte   W06
        .byte                   Fs1
        .byte           N12   , Dn1
        .byte   W12
        .byte           N06   , Fs1
        .byte   W06
        .byte                   Fs1
        .byte   W06
@ 073   ----------------------------------------
mus_geese_test1_2_73:
        .byte           N12   , Cn1 , v100
        .byte           N12   , Bn0
        .byte           N06   , Fs1
        .byte   W12
        .byte                   Fs1
        .byte   W06
        .byte                   Fs1
        .byte   W06
        .byte                   Fs1
        .byte           N12   , Dn1
        .byte   W12
        .byte           N06   , Fs1
        .byte   W06
        .byte                   Fs1
        .byte   W06
        .byte                   Fs1
        .byte           N12   , Bn0
        .byte           N12   , Cn1
        .byte   W12
        .byte           N06   , Fs1
        .byte   W06
        .byte                   Fs1
        .byte   W06
        .byte                   Fs1
        .byte           N12   , Dn1
        .byte   W12
        .byte           N06   , Fs1
        .byte   W06
        .byte                   Fs1
        .byte   W06
        .byte   PEND
@ 074   ----------------------------------------
        .byte   PATT
         .word  mus_geese_test1_2_36
@ 075   ----------------------------------------
        .byte           N06   , Fs1 , v100
        .byte           N12   , Bn0
        .byte           N12   , Cn1
        .byte   W12
        .byte           N06   , Fs1
        .byte   W06
        .byte                   Fs1
        .byte   W06
        .byte                   Fs1
        .byte           N12   , Dn1
        .byte   W12
        .byte           N06   , Fs1
        .byte   W06
        .byte                   Fs1
        .byte   W06
        .byte           N12   , Cn1
        .byte           N12   , Bn0
        .byte           N06   , Fs1
        .byte   W12
        .byte                   Fs1
        .byte   W06
        .byte                   Fs1
        .byte   W06
        .byte           N12   , Dn1
        .byte           N06   , Fs1
        .byte   W12
        .byte                   Fs1
        .byte   W06
        .byte                   Fs1
        .byte   W06
@ 076   ----------------------------------------
        .byte           N12   , Cn1
        .byte           N12   , Bn0
        .byte           N12   , Cs2
        .byte           N06   , Fs1
        .byte   W12
        .byte           N12   , Bn0
        .byte           N06   , Fs1
        .byte   W06
        .byte                   Fs1
        .byte   W06
        .byte                   Fs1
        .byte           N12   , Dn1
        .byte   W12
        .byte           N06   , Fs1
        .byte   W06
        .byte                   Fs1
        .byte   W06
        .byte                   Fs1
        .byte           N12   , Bn0
        .byte           N12   , Cn1
        .byte   W12
        .byte           N06   , Fs1
        .byte   W06
        .byte                   Fs1
        .byte   W06
        .byte                   Fs1
        .byte           N12   , Dn1
        .byte   W12
        .byte           N06   , Fs1
        .byte   W06
        .byte                   Fs1
        .byte   W06
@ 077   ----------------------------------------
        .byte   PATT
         .word  mus_geese_test1_2_19
@ 078   ----------------------------------------
        .byte           N12   , Cn1 , v100
        .byte           N12   , Bn0
        .byte           N06   , Fs1
        .byte   W12
        .byte           N12   , Bn0
        .byte           N06   , Fs1
        .byte   W06
        .byte                   Fs1
        .byte   W06
        .byte                   Fs1
        .byte           N12   , Dn1
        .byte   W12
        .byte           N06   , Fs1
        .byte   W06
        .byte                   Fs1
        .byte   W06
        .byte                   Fs1
        .byte           N12   , Bn0
        .byte           N12   , Cn1
        .byte   W12
        .byte           N06   , Fs1
        .byte   W06
        .byte                   Fs1
        .byte   W06
        .byte           N12   , Dn1
        .byte           N06   , Fs1
        .byte   W12
        .byte                   Fs1
        .byte   W06
        .byte                   Fs1
        .byte   W06
@ 079   ----------------------------------------
        .byte           N12   , Cn1
        .byte           N12   , Bn0
        .byte           N06   , Fs1
        .byte   W12
        .byte                   Fs1
        .byte   W06
        .byte                   Fs1
        .byte   W06
        .byte           N12   , Dn1
        .byte           N06   , Fs1
        .byte   W12
        .byte                   Fs1
        .byte   W06
        .byte                   Fs1
        .byte   W06
        .byte           N12   , Cn1
        .byte           N06   , Fs1
        .byte           N12   , Bn0
        .byte   W12
        .byte           N06   , Fs1
        .byte   W06
        .byte                   Fs1
        .byte   W06
        .byte           N12   , Dn1
        .byte           N06   , Fs1
        .byte   W12
        .byte                   Fs1
        .byte   W06
        .byte                   Fs1
        .byte   W06
@ 080   ----------------------------------------
        .byte           N12   , Cn1
        .byte           N06   , Fs1
        .byte           N12   , Bn0
        .byte   W12
        .byte                   Bn0
        .byte           N06   , Fs1
        .byte   W06
        .byte                   Fs1
        .byte   W06
        .byte           N12   , Dn1
        .byte           N06   , Fs1
        .byte   W12
        .byte                   Fs1
        .byte   W06
        .byte                   Fs1
        .byte   W06
        .byte           N12   , Cn1
        .byte           N12   , Bn0
        .byte           N06   , Fs1
        .byte   W12
        .byte                   Fs1
        .byte   W06
        .byte                   Fs1
        .byte   W06
        .byte           N12   , Dn1
        .byte           N06   , Fs1
        .byte   W12
        .byte                   Fs1
        .byte   W06
        .byte                   Fs1
        .byte   W06
@ 081   ----------------------------------------
        .byte   PATT
         .word  mus_geese_test1_2_23
@ 082   ----------------------------------------
        .byte           N06   , Fs1 , v100
        .byte           N12   , Bn0
        .byte           N12   , Cn1
        .byte   W12
        .byte           N06   , Fs1
        .byte           N12   , Bn0
        .byte   W06
        .byte           N06   , Fs1
        .byte   W06
        .byte                   Fs1
        .byte           N12   , Dn1
        .byte   W12
        .byte           N06   , Fs1
        .byte   W06
        .byte                   Fs1
        .byte   W06
        .byte           N12   , Cn1
        .byte           N12   , Bn0
        .byte           N06   , Fs1
        .byte   W12
        .byte                   Fs1
        .byte   W06
        .byte                   Fs1
        .byte   W06
        .byte                   Fs1
        .byte           N12   , Dn1
        .byte   W12
        .byte           N06   , Fs1
        .byte   W06
        .byte                   Fs1
        .byte   W06
@ 083   ----------------------------------------
mus_geese_test1_2_83:
        .byte           N06   , Fs1 , v100
        .byte           N12   , Bn0
        .byte           N12   , Cn1
        .byte   W12
        .byte           N06   , Fs1
        .byte   W06
        .byte                   Fs1
        .byte   W06
        .byte                   Fs1
        .byte           N12   , Dn1
        .byte   W12
        .byte           N06   , Fs1
        .byte   W06
        .byte                   Fs1
        .byte   W06
        .byte                   Fs1
        .byte           N12   , Bn0
        .byte           N12   , Cn1
        .byte   W12
        .byte           N06   , Fs1
        .byte   W06
        .byte                   Fs1
        .byte   W06
        .byte                   Fs1
        .byte           N12   , Dn1
        .byte   W12
        .byte           N06   , Fs1
        .byte   W06
        .byte                   Fs1
        .byte   W06
        .byte   PEND
@ 084   ----------------------------------------
        .byte                   Fs1
        .byte           N12   , Cn1
        .byte           N12   , Bn0
        .byte           N12   , Cs2
        .byte   W12
        .byte                   Bn0
        .byte           N06   , Fs1
        .byte   W06
        .byte                   Fs1
        .byte   W06
        .byte           N12   , Dn1
        .byte           N06   , Fs1
        .byte   W12
        .byte                   Fs1
        .byte   W06
        .byte                   Fs1
        .byte   W06
        .byte                   Fs1
        .byte           N12   , Bn0
        .byte           N12   , Cn1
        .byte   W12
        .byte           N06   , Fs1
        .byte   W06
        .byte                   Fs1
        .byte   W06
        .byte           N12   , Dn1
        .byte           N06   , Fs1
        .byte   W12
        .byte                   Fs1
        .byte   W06
        .byte                   Fs1
        .byte   W06
@ 085   ----------------------------------------
        .byte                   Fs1
        .byte           N12   , Bn0
        .byte           N12   , Cn1
        .byte   W12
        .byte           N06   , Fs1
        .byte   W06
        .byte                   Fs1
        .byte   W06
        .byte                   Fs1
        .byte           N12   , Dn1
        .byte   W12
        .byte           N06   , Fs1
        .byte   W06
        .byte                   Fs1
        .byte   W06
        .byte           N12   , Cn1
        .byte           N12   , Bn0
        .byte           N06   , Fs1
        .byte   W12
        .byte                   Fs1
        .byte   W06
        .byte                   Fs1
        .byte   W06
        .byte           N12   , Dn1
        .byte           N06   , Fs1
        .byte           N12   , An2
        .byte   W12
        .byte           N06   , Fs1
        .byte   W06
        .byte                   Fs1
        .byte   W06
@ 086   ----------------------------------------
        .byte                   Fs1
        .byte           N12   , Bn0
        .byte           N12   , Cn1
        .byte           N12   , Cs2
        .byte   W12
        .byte                   Bn0
        .byte           N06   , Fs1
        .byte   W06
        .byte                   Fs1
        .byte   W06
        .byte           N12   , Dn1
        .byte           N06   , Fs1
        .byte   W12
        .byte                   Fs1
        .byte   W06
        .byte                   Fs1
        .byte   W06
        .byte                   Fs1
        .byte           N12   , Bn0
        .byte           N12   , Cn1
        .byte   W12
        .byte           N06   , Fs1
        .byte   W06
        .byte                   Fs1
        .byte   W06
        .byte           N12   , Dn1
        .byte           N06   , Fs1
        .byte   W12
        .byte                   Fs1
        .byte   W06
        .byte                   Fs1
        .byte   W06
@ 087   ----------------------------------------
        .byte           N12   , Cn1
        .byte           N12   , Bn0
        .byte           N06   , Fs1
        .byte   W12
        .byte                   Fs1
        .byte   W06
        .byte                   Fs1
        .byte   W06
        .byte           N12   , Dn1
        .byte           N06   , Fs1
        .byte   W12
        .byte                   Fs1
        .byte   W06
        .byte                   Fs1
        .byte   W06
        .byte           N12   , Bn0
        .byte           N06   , Fs1
        .byte           N12   , Cn1
        .byte   W12
        .byte           N06   , Fs1
        .byte   W06
        .byte                   Fs1
        .byte   W06
        .byte                   Fs1
        .byte           N12   , Dn1
        .byte   W12
        .byte           N06   , Fs1
        .byte   W06
        .byte                   Fs1
        .byte   W06
@ 088   ----------------------------------------
        .byte                   Fs1
        .byte           N12   , Cn1
        .byte           N12   , Bn0
        .byte           N12   , Cs2
        .byte   W12
        .byte           N06   , Fs1
        .byte           N12   , Bn0
        .byte   W06
        .byte           N06   , Fs1
        .byte   W06
        .byte           N12   , Dn1
        .byte           N06   , Fs1
        .byte   W12
        .byte                   Fs1
        .byte   W06
        .byte                   Fs1
        .byte   W06
        .byte                   Fs1
        .byte           N12   , Bn0
        .byte           N12   , Cn1
        .byte   W12
        .byte           N06   , Fs1
        .byte   W06
        .byte                   Fs1
        .byte   W06
        .byte           N12   , Dn1
        .byte           N06   , Fs1
        .byte   W12
        .byte                   Fs1
        .byte   W06
        .byte                   Fs1
        .byte   W06
@ 089   ----------------------------------------
        .byte           N12   , Cn1
        .byte           N12   , Bn0
        .byte           N06   , Fs1
        .byte   W12
        .byte                   Fs1
        .byte   W06
        .byte                   Fs1
        .byte   W06
        .byte           N12   , Dn1
        .byte           N06   , Fs1
        .byte   W12
        .byte                   Fs1
        .byte   W06
        .byte                   Fs1
        .byte   W06
        .byte           N12   , Cn1
        .byte           N12   , Bn0
        .byte           N06   , Fs1
        .byte           N12   , Cs2
        .byte   W12
        .byte           N06   , Fs1
        .byte   W06
        .byte                   Fs1
        .byte   W06
        .byte                   Fs1
        .byte           N12   , Dn1
        .byte           N12   , Cs2
        .byte   W12
        .byte           N06   , Fs1
        .byte   W06
        .byte                   Fs1
        .byte   W06
@ 090   ----------------------------------------
        .byte           N12   , Cs2
        .byte           N12   , Cn1
        .byte           N12   , Bn0
        .byte           N06   , Fs1
        .byte   W12
        .byte           N12   , Bn0
        .byte           N06   , Fs1
        .byte   W06
        .byte                   Fs1
        .byte   W06
        .byte                   Fs1
        .byte           N12   , Dn1
        .byte   W12
        .byte           N06   , Fs1
        .byte   W06
        .byte                   Fs1
        .byte   W06
        .byte                   Fs1
        .byte           N12   , Bn0
        .byte           N12   , Cn1
        .byte   W12
        .byte           N06   , Fs1
        .byte   W06
        .byte                   Fs1
        .byte   W06
        .byte                   Fs1
        .byte           N12   , Dn1
        .byte   W12
        .byte           N06   , Fs1
        .byte   W06
        .byte                   Fs1
        .byte   W06
@ 091   ----------------------------------------
        .byte           N12   , Cn1
        .byte           N12   , Bn0
        .byte           N06   , Fs1
        .byte   W12
        .byte                   Fs1
        .byte   W06
        .byte                   Fs1
        .byte   W06
        .byte           N12   , Dn1
        .byte           N06   , Fs1
        .byte   W12
        .byte                   Fs1
        .byte   W06
        .byte                   Fs1
        .byte   W06
        .byte           N12   , Cn1
        .byte           N06   , Dn2
        .byte           N06   , Fs1
        .byte           N12   , Bn0
        .byte   W06
        .byte           N06   , Dn2
        .byte   W06
        .byte                   Fs1
        .byte           N06   , Cn2
        .byte   W06
        .byte                   Cn2
        .byte           N06   , Fs1
        .byte   W06
        .byte           N12   , An2
        .byte           N06   , Bn1
        .byte           N06   , Fs1
        .byte           N12   , Dn1
        .byte   W06
        .byte           N06   , Bn1
        .byte   W06
        .byte                   Fs1
        .byte           N06   , An1
        .byte   W06
        .byte                   An1
        .byte           N06   , Fs1
        .byte   W06
@ 092   ----------------------------------------
        .byte           N12   , Cs2
        .byte           N12   , Cn1
        .byte           N12   , Bn0
        .byte           N06   , Fs1
        .byte   W12
        .byte                   Fs1
        .byte           N12   , Bn0
        .byte   W06
        .byte           N06   , Fs1
        .byte   W06
        .byte           N12   , Dn1
        .byte           N06   , Fs1
        .byte   W12
        .byte                   Fs1
        .byte   W06
        .byte                   Fs1
        .byte   W06
        .byte           N12   , Cn1
        .byte           N12   , Bn0
        .byte           N06   , Fs1
        .byte   W12
        .byte                   Fs1
        .byte   W06
        .byte                   Fs1
        .byte   W06
        .byte           N12   , Dn1
        .byte           N06   , Fs1
        .byte   W12
        .byte                   Fs1
        .byte   W06
        .byte                   Fs1
        .byte   W06
@ 093   ----------------------------------------
        .byte   PATT
         .word  mus_geese_test1_2_23
@ 094   ----------------------------------------
        .byte           N06   , Fs1 , v100
        .byte           N12   , Bn0
        .byte           N12   , Cn1
        .byte   W12
        .byte                   Bn0
        .byte           N06   , Fs1
        .byte   W06
        .byte                   Fs1
        .byte   W06
        .byte                   Fs1
        .byte           N12   , Dn1
        .byte   W12
        .byte           N06   , Fs1
        .byte   W06
        .byte                   Fs1
        .byte   W06
        .byte           N12   , Cn1
        .byte           N12   , Bn0
        .byte           N06   , Fs1
        .byte   W12
        .byte                   Fs1
        .byte   W06
        .byte                   Fs1
        .byte   W06
        .byte                   Fs1
        .byte           N12   , Dn1
        .byte   W12
        .byte           N06   , Fs1
        .byte   W06
        .byte                   Fs1
        .byte   W06
@ 095   ----------------------------------------
        .byte   PATT
         .word  mus_geese_test1_2_19
@ 096   ----------------------------------------
        .byte           N12   , Cn1 , v100
        .byte           N12   , Bn0
        .byte           N06   , Fs1
        .byte   W12
        .byte                   Fs1
        .byte           N12   , Bn0
        .byte   W06
        .byte           N06   , Fs1
        .byte   W06
        .byte                   Fs1
        .byte           N12   , Dn1
        .byte   W12
        .byte           N06   , Fs1
        .byte   W06
        .byte                   Fs1
        .byte   W06
        .byte                   Fs1
        .byte           N12   , Cn1
        .byte           N12   , Bn0
        .byte   W12
        .byte           N06   , Fs1
        .byte   W06
        .byte                   Fs1
        .byte   W06
        .byte                   Fs1
        .byte           N12   , Dn1
        .byte   W12
        .byte           N06   , Fs1
        .byte   W06
        .byte                   Fs1
        .byte   W06
@ 097   ----------------------------------------
        .byte   PATT
         .word  mus_geese_test1_2_19
@ 098   ----------------------------------------
        .byte           N06   , Fs1 , v100
        .byte           N12   , Cn1
        .byte           N12   , Bn0
        .byte   W12
        .byte                   Bn0
        .byte           N06   , Fs1
        .byte   W06
        .byte                   Fs1
        .byte   W06
        .byte                   Fs1
        .byte           N12   , Dn1
        .byte   W12
        .byte           N06   , Fs1
        .byte   W06
        .byte                   Fs1
        .byte   W06
        .byte                   Fs1
        .byte           N12   , Bn0
        .byte           N12   , Cn1
        .byte   W12
        .byte           N06   , Fs1
        .byte   W06
        .byte                   Fs1
        .byte   W06
        .byte           N12   , Dn1
        .byte           N06   , Fs1
        .byte   W12
        .byte                   Fs1
        .byte   W06
        .byte                   Fs1
        .byte   W06
@ 099   ----------------------------------------
        .byte           N12   , Cn1
        .byte           N12   , Bn0
        .byte           N06   , Fs1
        .byte   W12
        .byte                   Fs1
        .byte   W06
        .byte                   Fs1
        .byte   W06
        .byte           N12   , Dn1
        .byte           N06   , Fs1
        .byte   W12
        .byte                   Fs1
        .byte   W06
        .byte                   Fs1
        .byte   W06
        .byte                   Fs1
        .byte           N12   , Bn0
        .byte           N12   , Cn1
        .byte   W12
        .byte           N06   , Fs1
        .byte   W06
        .byte                   Fs1
        .byte   W06
        .byte                   Fs1
        .byte           N12   , Dn1
        .byte   W12
        .byte           N06   , Fs1
        .byte   W06
        .byte                   Fs1
        .byte   W06
@ 100   ----------------------------------------
        .byte           N12   , Ds2
        .byte           N12   , Cs2
        .byte           N12   , Bn0
        .byte           N12   , Cn1
        .byte   W12
        .byte                   Bn0
        .byte   W12
        .byte                   Ds2
        .byte           N12   , Dn1
        .byte   W24
        .byte                   Ds2
        .byte           N12   , Bn0
        .byte           N12   , Cn1
        .byte   W24
        .byte                   Dn1
        .byte           N12   , Ds2
        .byte   W24
@ 101   ----------------------------------------
        .byte                   Ds2
        .byte           N12   , Cn1
        .byte           N12   , Bn0
        .byte   W24
        .byte                   Dn1
        .byte           N12   , Ds2
        .byte   W24
        .byte                   Cn1
        .byte           N12   , Bn0
        .byte           N12   , Ds2
        .byte   W24
        .byte                   Ds2
        .byte           N12   , Dn1
        .byte   W24
@ 102   ----------------------------------------
        .byte                   Ds2
        .byte           N12   , Bn0
        .byte           N12   , Cn1
        .byte   W12
        .byte                   Bn0
        .byte   W12
        .byte                   Ds2
        .byte           N12   , Dn1
        .byte   W24
        .byte                   Ds2
        .byte           N12   , Bn0
        .byte           N12   , Cn1
        .byte   W24
        .byte                   Dn1
        .byte           N12   , Ds2
        .byte   W24
@ 103   ----------------------------------------
mus_geese_test1_2_103:
        .byte           N12   , Ds2 , v100
        .byte           N12   , Bn0
        .byte           N12   , Cn1
        .byte   W24
        .byte                   Ds2
        .byte           N12   , Dn1
        .byte   W24
        .byte                   Cn1
        .byte           N12   , Ds2
        .byte           N12   , Bn0
        .byte   W24
        .byte                   Dn1
        .byte           N12   , Ds2
        .byte   W24
        .byte   PEND
@ 104   ----------------------------------------
        .byte                   Cn1
        .byte           N12   , Bn0
        .byte           N12   , Ds2
        .byte   W12
        .byte                   Bn0
        .byte   W12
        .byte                   Ds2
        .byte           N12   , Dn1
        .byte   W24
        .byte                   Ds2
        .byte           N12   , Bn0
        .byte           N12   , Cn1
        .byte   W24
        .byte                   Ds2
        .byte           N12   , Dn1
        .byte   W24
@ 105   ----------------------------------------
        .byte   PATT
         .word  mus_geese_test1_2_103
@ 106   ----------------------------------------
        .byte           N12   , Bn0 , v100
        .byte           N12   , Cn1
        .byte           N12   , Cs2
        .byte           N06   , Fs1
        .byte   W12
        .byte           N12   , Bn0
        .byte           N06   , Fs1
        .byte   W06
        .byte                   Fs1
        .byte   W06
        .byte                   Fs1
        .byte           N12   , Dn1
        .byte   W12
        .byte           N06   , Fs1
        .byte   W06
        .byte                   Fs1
        .byte   W06
        .byte                   Fs1
        .byte           N12   , Bn0
        .byte           N12   , Cn1
        .byte   W12
        .byte           N06   , Fs1
        .byte   W06
        .byte                   Fs1
        .byte   W06
        .byte           N12   , Dn1
        .byte           N06   , Fs1
        .byte   W12
        .byte                   Fs1
        .byte   W06
        .byte                   Fs1
        .byte   W06
@ 107   ----------------------------------------
        .byte           N12   , Bn0
        .byte           N12   , Cn1
        .byte           N06   , Fs1
        .byte   W12
        .byte                   Fs1
        .byte   W06
        .byte                   Fs1
        .byte   W06
        .byte           N12   , Dn1
        .byte           N06   , Fs1
        .byte   W12
        .byte                   Fs1
        .byte   W06
        .byte                   Fs1
        .byte   W06
        .byte           N12   , Bn0
        .byte           N12   , Cn1
        .byte           N06   , Fs1
        .byte   W12
        .byte                   Fs1
        .byte   W06
        .byte                   Fs1
        .byte   W06
        .byte                   Fs1
        .byte           N12   , Dn1
        .byte   W12
        .byte           N06   , Fs1
        .byte   W06
        .byte                   Fs1
        .byte   W06
@ 108   ----------------------------------------
        .byte           N24   , Cs2
        .byte           N12   , Bn0
        .byte           N12   , Cn1
        .byte           N12   , Ds2
        .byte           N06   , Fs1
        .byte   W12
        .byte           N12   , Bn0
        .byte           N06   , Fs1
        .byte   W06
        .byte                   Fs1
        .byte   W06
        .byte                   Fs1
        .byte           N12   , Ds2
        .byte           N12   , Dn1
        .byte   W12
        .byte           N06   , Fs1
        .byte   W06
        .byte                   Fs1
        .byte   W06
        .byte           N12   , Cn1
        .byte           N12   , Bn0
        .byte           N12   , Ds2
        .byte           N06   , Fs1
        .byte   W12
        .byte                   Fs1
        .byte   W06
        .byte                   Fs1
        .byte   W06
        .byte                   Fs1
        .byte           N12   , Ds2
        .byte           N12   , Dn1
        .byte   W12
        .byte           N06   , Fs1
        .byte   W06
        .byte                   Fs1
        .byte   W06
@ 109   ----------------------------------------
        .byte                   Fs1
        .byte           N12   , Cn1
        .byte           N12   , Bn0
        .byte           N12   , Ds2
        .byte   W12
        .byte           N06   , Fs1
        .byte   W06
        .byte                   Fs1
        .byte   W06
        .byte           N12   , Ds2
        .byte           N12   , Dn1
        .byte           N06   , Fs1
        .byte   W12
        .byte                   Fs1
        .byte   W06
        .byte                   Fs1
        .byte   W06
        .byte           N12   , Ds2
        .byte           N12   , Bn0
        .byte           N12   , Cn1
        .byte           N06   , Fs1
        .byte   W12
        .byte                   Fs1
        .byte   W06
        .byte                   Fs1
        .byte   W06
        .byte           N12   , Ds2
        .byte           N12   , Dn1
        .byte           N06   , Fs1
        .byte   W12
        .byte                   Fs1
        .byte   W06
        .byte                   Fs1
        .byte   W06
@ 110   ----------------------------------------
        .byte                   Fs1
        .byte           N12   , Ds2
        .byte           N12   , Bn0
        .byte           N12   , Cn1
        .byte   W12
        .byte           N06   , Fs1
        .byte           N12   , Bn0
        .byte   W06
        .byte           N06   , Fs1
        .byte   W06
        .byte           N12   , Dn1
        .byte           N12   , Ds2
        .byte           N06   , Fs1
        .byte   W12
        .byte                   Fs1
        .byte   W06
        .byte                   Fs1
        .byte   W06
        .byte                   Fs1
        .byte           N12   , Ds2
        .byte           N12   , Cn1
        .byte           N12   , Bn0
        .byte   W12
        .byte           N06   , Fs1
        .byte   W06
        .byte                   Fs1
        .byte   W06
        .byte           N12   , Dn1
        .byte           N12   , Ds2
        .byte           N06   , Fs1
        .byte   W12
        .byte                   Fs1
        .byte   W06
        .byte                   Fs1
        .byte   W06
@ 111   ----------------------------------------
        .byte                   Fs1
        .byte           N12   , Ds2
        .byte           N12   , Bn0
        .byte           N12   , Cn1
        .byte   W12
        .byte           N06   , Fs1
        .byte   W06
        .byte                   Fs1
        .byte   W06
        .byte                   Fs1
        .byte           N12   , Ds2
        .byte           N12   , Dn1
        .byte   W12
        .byte           N06   , Fs1
        .byte   W06
        .byte                   Fs1
        .byte   W06
        .byte           N12   , Cn1
        .byte           N12   , Bn0
        .byte           N12   , Ds2
        .byte           N06   , Fs1
        .byte   W12
        .byte                   Fs1
        .byte   W06
        .byte                   Fs1
        .byte   W06
        .byte           N12   , Dn1
        .byte           N12   , Ds2
        .byte           N06   , Fs1
        .byte   W12
        .byte                   Fs1
        .byte   W06
        .byte                   Fs1
        .byte   W06
@ 112   ----------------------------------------
        .byte           N12   , Cn1
        .byte           N12   , Bn0
        .byte           N12   , Ds2
        .byte           N06   , Fs1
        .byte   W12
        .byte                   Fs1
        .byte           N12   , Bn0
        .byte   W06
        .byte           N06   , Fs1
        .byte   W06
        .byte           N12   , Dn1
        .byte           N12   , Ds2
        .byte           N06   , Fs1
        .byte   W12
        .byte                   Fs1
        .byte   W06
        .byte                   Fs1
        .byte   W06
        .byte           N12   , Cn1
        .byte           N12   , Bn0
        .byte           N12   , Ds2
        .byte           N06   , Fs1
        .byte   W12
        .byte                   Fs1
        .byte   W06
        .byte                   Fs1
        .byte   W06
        .byte                   Fs1
        .byte           N12   , Ds2
        .byte           N12   , Dn1
        .byte   W12
        .byte           N06   , Fs1
        .byte   W06
        .byte                   Fs1
        .byte   W06
@ 113   ----------------------------------------
        .byte           N12   , Ds2
        .byte           N12   , Bn0
        .byte           N12   , Cn1
        .byte           N06   , Fs1
        .byte   W12
        .byte                   Fs1
        .byte   W06
        .byte                   Fs1
        .byte   W06
        .byte           N12   , Ds2
        .byte           N12   , Dn1
        .byte           N06   , Fs1
        .byte   W12
        .byte                   Fs1
        .byte   W06
        .byte                   Fs1
        .byte   W06
        .byte           N12   , Ds2
        .byte           N12   , Bn0
        .byte           N06   , Fs1
        .byte           N12   , Cn1
        .byte   W12
        .byte           N06   , Fs1
        .byte   W06
        .byte                   Fs1
        .byte   W06
        .byte           N12   , Ds2
        .byte           N06   , Fs1
        .byte           N12   , Dn1
        .byte   W12
        .byte           N06   , Fs1
        .byte   W06
        .byte                   Fs1
        .byte   W06
@ 114   ----------------------------------------
        .byte                   Fs1
        .byte           N12   , Ds2
        .byte           N12   , Bn0
        .byte           N12   , Cn1
        .byte   W12
        .byte           N06   , Fs1
        .byte           N12   , Bn0
        .byte   W06
        .byte           N06   , Fs1
        .byte   W06
        .byte                   Fs1
        .byte           N12   , Ds2
        .byte           N12   , Dn1
        .byte   W12
        .byte           N06   , Fs1
        .byte   W06
        .byte                   Fs1
        .byte   W06
        .byte           N12   , Cn1
        .byte           N12   , Bn0
        .byte           N12   , Ds2
        .byte           N06   , Fs1
        .byte   W12
        .byte                   Fs1
        .byte   W06
        .byte                   Fs1
        .byte   W06
        .byte           N12   , Dn1
        .byte           N12   , Ds2
        .byte           N06   , Fs1
        .byte   W12
        .byte                   Fs1
        .byte   W06
        .byte                   Fs1
        .byte   W06
@ 115   ----------------------------------------
        .byte           N12   , Cn1
        .byte           N12   , Bn0
        .byte   W12
        .byte                   Cn1
        .byte           N12   , Bn0
        .byte           N06   , Dn2
        .byte   W06
        .byte                   Cn2
        .byte   W06
        .byte                   Bn1
        .byte   W06
        .byte           N12   , Bn0
        .byte           N12   , Cn1
        .byte   W06
        .byte           N06   , Cn2
        .byte   W06
        .byte                   Bn1
        .byte   W06
        .byte                   An1
        .byte   W06
        .byte           N12   , Cn1
        .byte           N12   , Bn0
        .byte   W06
        .byte           N06   , Bn1
        .byte   W06
        .byte                   An1
        .byte   W06
        .byte                   Gn1
        .byte   W06
        .byte                   Bn0
        .byte           N06   , Cn1
        .byte   W06
        .byte                   Dn1
        .byte   W06
        .byte                   Bn0
        .byte           N06   , Dn1
        .byte   W06
@ 116   ----------------------------------------
        .byte   PATT
         .word  mus_geese_test1_2_58
@ 117   ----------------------------------------
        .byte           N06   , Fs1 , v100
        .byte           N12   , Cn1
        .byte           N12   , Bn0
        .byte   W12
        .byte           N06   , Fs1
        .byte   W06
        .byte                   Fs1
        .byte   W06
        .byte                   Fs1
        .byte           N12   , Dn1
        .byte   W12
        .byte           N06   , Fs1
        .byte   W06
        .byte                   Fs1
        .byte   W06
        .byte                   Fs1
        .byte           N12   , Bn0
        .byte           N12   , Cn1
        .byte   W12
        .byte           N06   , Fs1
        .byte   W06
        .byte                   Fs1
        .byte   W06
        .byte                   Fs1
        .byte           N12   , Dn1
        .byte   W12
        .byte           N06   , Fs1
        .byte   W06
        .byte                   Fs1
        .byte   W06
@ 118   ----------------------------------------
mus_geese_test1_2_118:
        .byte           N12   , Cn1 , v100
        .byte           N12   , Bn0
        .byte           N06   , Fs1
        .byte   W12
        .byte           N12   , Bn0
        .byte           N06   , Fs1
        .byte   W06
        .byte                   Fs1
        .byte   W06
        .byte           N12   , Dn1
        .byte           N06   , Fs1
        .byte   W12
        .byte                   Fs1
        .byte   W06
        .byte                   Fs1
        .byte   W06
        .byte                   Fs1
        .byte           N12   , Bn0
        .byte           N12   , Cn1
        .byte   W12
        .byte           N06   , Fs1
        .byte   W06
        .byte                   Fs1
        .byte   W06
        .byte           N12   , Dn1
        .byte           N06   , Fs1
        .byte   W12
        .byte                   Fs1
        .byte   W06
        .byte                   Fs1
        .byte   W06
        .byte   PEND
@ 119   ----------------------------------------
        .byte   PATT
         .word  mus_geese_test1_2_73
@ 120   ----------------------------------------
        .byte           N06   , Fs1 , v100
        .byte           N12   , Cn1
        .byte           N12   , Bn0
        .byte   W12
        .byte                   Bn0
        .byte           N06   , Fs1
        .byte   W06
        .byte                   Fs1
        .byte   W06
        .byte           N12   , Dn1
        .byte           N06   , Fs1
        .byte   W12
        .byte                   Fs1
        .byte   W06
        .byte                   Fs1
        .byte   W06
        .byte           N12   , Cn1
        .byte           N12   , Bn0
        .byte           N06   , Fs1
        .byte   W12
        .byte                   Fs1
        .byte   W06
        .byte                   Fs1
        .byte   W06
        .byte           N12   , Dn1
        .byte           N06   , Fs1
        .byte   W12
        .byte                   Fs1
        .byte   W06
        .byte                   Fs1
        .byte   W06
@ 121   ----------------------------------------
        .byte   PATT
         .word  mus_geese_test1_2_83
@ 122   ----------------------------------------
        .byte   PATT
         .word  mus_geese_test1_2_118
@ 123   ----------------------------------------
        .byte   PATT
         .word  mus_geese_test1_2_23
@ 124   ----------------------------------------
        .byte           N12   , Dn1 , v100
        .byte           N12   , An1
        .byte           N12   , Bn1
        .byte           N12   , Cn2
        .byte           N12   , Cs2
        .byte   W12
        .byte                   Cn1
        .byte           N12   , Bn0
        .byte           N12   , Fn1
        .byte           N12   , Gn1
        .byte           N12   , An1
        .byte   W12
        .byte                   Bn0
        .byte           N12   , Fn1
        .byte           N12   , Gn1
        .byte           N12   , An1
        .byte   W12
        .byte                   Dn1
        .byte           N12   , An1
        .byte           N12   , Bn1
        .byte           N12   , Cn2
        .byte           N12   , Cs2
        .byte   W12
        .byte                   An1
        .byte           N12   , Gn1
        .byte           N12   , Fn1
        .byte           N12   , Bn0
        .byte           N12   , Cn1
        .byte   W12
        .byte                   Bn0
        .byte           N12   , Fn1
        .byte           N12   , Gn1
        .byte           N12   , An1
        .byte   W12
        .byte                   Cs2
        .byte           N12   , Cn2
        .byte           N12   , Bn1
        .byte           N12   , An1
        .byte           N12   , Dn1
        .byte   W12
        .byte                   An1
        .byte           N12   , Gn1
        .byte           N12   , Fn1
        .byte           N12   , Bn0
        .byte           N12   , Cn1
        .byte   W12
@ 125   ----------------------------------------
        .byte                   Cs2
        .byte           N12   , Cn2
        .byte           N12   , Bn1
        .byte           N12   , An1
        .byte           N12   , Dn1
        .byte   W12
        .byte                   Cn1
        .byte           N12   , Bn0
        .byte           N12   , Fn1
        .byte           N12   , Gn1
        .byte           N12   , An1
        .byte   W12
        .byte                   Cn1
        .byte           N12   , Bn0
        .byte           N12   , Fn1
        .byte           N12   , Gn1
        .byte           N12   , An1
        .byte   W12
        .byte                   Cn2
        .byte           N12   , Bn1
        .byte           N12   , An1
        .byte           N12   , Dn1
        .byte           N12   , Cs2
        .byte   W12
        .byte                   Cn1
        .byte           N12   , Bn0
        .byte           N12   , Fn1
        .byte           N12   , Gn1
        .byte           N12   , An1
        .byte   W12
        .byte                   An1
        .byte           N12   , Gn1
        .byte           N12   , Fn1
        .byte           N12   , Bn0
        .byte   W12
        .byte                   Cs2
        .byte           N12   , Cn2
        .byte           N12   , Bn1
        .byte           N12   , An1
        .byte           N12   , Dn1
        .byte   W12
        .byte                   Bn0
        .byte           N12   , Fn1
        .byte           N12   , Gn1
        .byte           N12   , An1
        .byte           N12   , Cn1
        .byte   W12
@ 126   ----------------------------------------
        .byte           N06   , Fs1
        .byte           N12   , Bn0
        .byte           N12   , Cn1
        .byte           N12   , Cs2
        .byte   W12
        .byte                   Bn0
        .byte           N06   , Fs1
        .byte   W06
        .byte                   Fs1
        .byte   W06
        .byte                   Fs1
        .byte           N12   , Dn1
        .byte   W12
        .byte           N06   , Fs1
        .byte   W06
        .byte                   Fs1
        .byte   W06
        .byte                   Fs1
        .byte           N12   , Bn0
        .byte           N12   , Cn1
        .byte   W12
        .byte           N06   , Fs1
        .byte   W06
        .byte                   Fs1
        .byte   W06
        .byte                   Fs1
        .byte           N12   , Dn1
        .byte   W12
        .byte           N06   , Fs1
        .byte   W06
        .byte                   Fs1
        .byte   W06
@ 127   ----------------------------------------
mus_geese_test1_2_127:
        .byte           N12   , Cn1 , v100
        .byte           N12   , Bn0
        .byte           N06   , Fs1
        .byte   W12
        .byte                   Fs1
        .byte   W06
        .byte                   Fs1
        .byte   W06
        .byte           N12   , Dn1
        .byte           N06   , Fs1
        .byte   W12
        .byte                   Fs1
        .byte   W06
        .byte                   Fs1
        .byte   W06
        .byte                   Fs1
        .byte           N12   , Bn0
        .byte           N12   , Cn1
        .byte   W12
        .byte           N06   , Fs1
        .byte   W06
        .byte                   Fs1
        .byte   W06
        .byte           N12   , Dn1
        .byte           N06   , Fs1
        .byte   W12
        .byte                   Fs1
        .byte   W06
        .byte                   Fs1
        .byte   W06
        .byte   PEND
@ 128   ----------------------------------------
        .byte                   Fs1
        .byte           N12   , Cn1
        .byte           N12   , Bn0
        .byte   W12
        .byte                   Bn0
        .byte           N06   , Fs1
        .byte   W06
        .byte                   Fs1
        .byte   W06
        .byte                   Fs1
        .byte           N12   , Dn1
        .byte   W12
        .byte           N06   , Fs1
        .byte   W06
        .byte                   Fs1
        .byte   W06
        .byte                   Fs1
        .byte           N12   , Cn1
        .byte           N12   , Bn0
        .byte   W12
        .byte           N06   , Fs1
        .byte   W06
        .byte                   Fs1
        .byte   W06
        .byte           N12   , Dn1
        .byte           N06   , Fs1
        .byte   W12
        .byte                   Fs1
        .byte   W06
        .byte                   Fs1
        .byte   W06
@ 129   ----------------------------------------
        .byte                   Fs1
        .byte           N12   , Bn0
        .byte           N12   , Cn1
        .byte   W12
        .byte           N06   , Fs1
        .byte   W06
        .byte                   Fs1
        .byte   W06
        .byte           N12   , Dn1
        .byte           N06   , Fs1
        .byte   W12
        .byte                   Fs1
        .byte   W06
        .byte                   Fs1
        .byte   W06
        .byte                   Fs1
        .byte           N12   , Cn1
        .byte           N12   , Bn0
        .byte   W12
        .byte           N06   , Fs1
        .byte   W06
        .byte                   Fs1
        .byte   W06
        .byte           N12   , Dn1
        .byte           N06   , Fs1
        .byte   W12
        .byte                   Fs1
        .byte   W06
        .byte                   Fs1
        .byte   W06
@ 130   ----------------------------------------
        .byte           N12   , Bn0
        .byte           N12   , Cn1
        .byte           N06   , Fs1
        .byte   W12
        .byte                   Fs1
        .byte           N12   , Bn0
        .byte   W06
        .byte           N06   , Fs1
        .byte   W06
        .byte           N12   , Dn1
        .byte           N06   , Fs1
        .byte   W12
        .byte                   Fs1
        .byte   W06
        .byte                   Fs1
        .byte   W06
        .byte           N12   , Bn0
        .byte           N12   , Cn1
        .byte           N06   , Fs1
        .byte   W12
        .byte                   Fs1
        .byte   W06
        .byte                   Fs1
        .byte   W06
        .byte           N12   , Dn1
        .byte           N06   , Fs1
        .byte   W12
        .byte                   Fs1
        .byte   W06
        .byte                   Fs1
        .byte   W06
@ 131   ----------------------------------------
        .byte   PATT
         .word  mus_geese_test1_2_127
@ 132   ----------------------------------------
        .byte           N12   , Cn1 , v100
        .byte           N12   , Bn0
        .byte           N06   , Fs1
        .byte   W12
        .byte           N12   , Bn0
        .byte           N06   , Fs1
        .byte   W06
        .byte                   Fs1
        .byte   W06
        .byte                   Fs1
        .byte           N12   , Dn1
        .byte   W12
        .byte           N06   , Fs1
        .byte   W06
        .byte                   Fs1
        .byte   W06
        .byte           N12   , Cn1
        .byte           N12   , Bn0
        .byte           N06   , Fs1
        .byte   W12
        .byte                   Fs1
        .byte   W06
        .byte                   Fs1
        .byte   W06
        .byte                   Fs1
        .byte           N12   , Dn1
        .byte   W12
        .byte           N06   , Fs1
        .byte   W06
        .byte                   Fs1
        .byte   W06
@ 133   ----------------------------------------
        .byte           N12   , Cn1
        .byte           N12   , Bn0
        .byte           N06   , Fs1
        .byte   W12
        .byte                   Fs1
        .byte   W06
        .byte                   Fs1
        .byte   W06
        .byte                   Fs1
        .byte           N12   , Dn1
        .byte   W12
        .byte           N06   , Fs1
        .byte   W06
        .byte                   Fs1
        .byte   W06
        .byte           N12   , Cn1
        .byte           N12   , Bn0
        .byte           N06   , Fs1
        .byte   W12
        .byte                   Fs1
        .byte   W06
        .byte                   Fs1
        .byte   W06
        .byte                   Fs1
        .byte           N12   , Dn1
        .byte   W12
        .byte           N06   , Fs1
        .byte   W06
        .byte           N05
        .byte   W06
@ 134   ----------------------------------------
@        .byte   W96
@ 135   ----------------------------------------
        .byte   GOTO
        .word   mus_geese_test1_2_18
        .byte   FINE

@****************** Track 3 (Midi-Chn.4) ******************@

mus_geese_test1_3:
        .byte   KEYSH , mus_geese_test1_key+0
@ 000   ----------------------------------------
        .byte           VOICE , 126 @ Noise
        .byte           BENDR , 12
        .byte           VOL   , 74
        .byte   W48
        .byte           N12   , Ds4 , v100
        .byte   W12
        .byte                   Ds4
        .byte   W36
@ 001   ----------------------------------------
        .byte           VOL   , 55
        .byte           N12
        .byte   W12
        .byte                   Ds4
        .byte   W36
        .byte           VOL   , 25
        .byte           N12
        .byte   W12
        .byte                   Ds4
        .byte   W36
@ 002   ----------------------------------------
        .byte           VOL   , 101
        .byte   W96
@ 003   ----------------------------------------
        .byte   W72
        .byte                   72
        .byte           N12   , Cs1
        .byte           N12   , Ds4
        .byte           N12   , Fn4
        .byte   W24
@ 004   ----------------------------------------
        .byte   W96
@ 005   ----------------------------------------
        .byte                   Ds4
        .byte   W12
        .byte                   Ds4
        .byte   W84
@ 006   ----------------------------------------
        .byte   W60
        .byte                   Ds4
        .byte   W36
@ 007   ----------------------------------------
        .byte                   Ds4
        .byte   W36
        .byte                   Ds4
        .byte   W60
@ 008   ----------------------------------------
        .byte   W96
@ 009   ----------------------------------------
        .byte           VOICE , 0 @ Drum
        .byte           BENDR , 0
        .byte           VOL   , 83
        .byte           N96   , Cn3
        .byte   W48
        .byte           VOICE , 126 @ Noise
        .byte           BENDR , 12
        .byte           VOL   , 83
        .byte           N12   , Ds4
        .byte   W12
        .byte                   Ds4
        .byte   W12
        .byte                   Ds4
        .byte   W12
        .byte                   Ds4
        .byte   W12
@ 010   ----------------------------------------
        .byte   W96
@ 011   ----------------------------------------
        .byte   W96
@ 012   ----------------------------------------
        .byte   W96
@ 013   ----------------------------------------
        .byte   W96
@ 014   ----------------------------------------
        .byte   W96
@ 015   ----------------------------------------
        .byte   W96
@ 016   ----------------------------------------
        .byte   W96
@ 017   ----------------------------------------
        .byte           VOICE , 0 @ Drum
        .byte           BENDR , 0
        .byte           VOL   , 83
        .byte           N96   , Cn3
        .byte   W96
@ 018   ----------------------------------------
mus_geese_test1_3_18:
        .byte           VOICE , 0 @ Drum
        .byte           BENDR , 0
        .byte           VOL   , 83
        .byte   W96
@ 019   ----------------------------------------
        .byte   W96
@ 020   ----------------------------------------
        .byte   W96
@ 021   ----------------------------------------
        .byte   W96
@ 022   ----------------------------------------
        .byte   W96
@ 023   ----------------------------------------
        .byte   W96
@ 024   ----------------------------------------
        .byte   W96
@ 025   ----------------------------------------
        .byte   W96
@ 026   ----------------------------------------
        .byte   W96
@ 027   ----------------------------------------
        .byte   W96
@ 028   ----------------------------------------
        .byte   W96
@ 029   ----------------------------------------
        .byte   W96
@ 030   ----------------------------------------
        .byte   W96
@ 031   ----------------------------------------
        .byte   W96
@ 032   ----------------------------------------
        .byte   W96
@ 033   ----------------------------------------
        .byte                   Cn3
        .byte   W96
@ 034   ----------------------------------------
        .byte   W96
@ 035   ----------------------------------------
        .byte   W96
@ 036   ----------------------------------------
        .byte   W96
@ 037   ----------------------------------------
        .byte   W96
@ 038   ----------------------------------------
        .byte   W96
@ 039   ----------------------------------------
        .byte   W96
@ 040   ----------------------------------------
        .byte   W96
@ 041   ----------------------------------------
        .byte                   Cn3
        .byte   W96
@ 042   ----------------------------------------
        .byte   W96
@ 043   ----------------------------------------
        .byte   W96
@ 044   ----------------------------------------
        .byte   W96
@ 045   ----------------------------------------
        .byte   W96
@ 046   ----------------------------------------
        .byte   W96
@ 047   ----------------------------------------
        .byte   W96
@ 048   ----------------------------------------
        .byte   W96
@ 049   ----------------------------------------
        .byte                   Cn3
        .byte   W96
@ 050   ----------------------------------------
        .byte   W96
@ 051   ----------------------------------------
        .byte   W96
@ 052   ----------------------------------------
        .byte   W96
@ 053   ----------------------------------------
        .byte   W96
@ 054   ----------------------------------------
        .byte   W96
@ 055   ----------------------------------------
        .byte   W96
@ 056   ----------------------------------------
        .byte   W96
@ 057   ----------------------------------------
        .byte   W96
@ 058   ----------------------------------------
        .byte   W96
@ 059   ----------------------------------------
        .byte   W96
@ 060   ----------------------------------------
        .byte   W96
@ 061   ----------------------------------------
        .byte   W96
@ 062   ----------------------------------------
        .byte   W96
@ 063   ----------------------------------------
        .byte   W96
@ 064   ----------------------------------------
        .byte   W96
@ 065   ----------------------------------------
        .byte   W96
@ 066   ----------------------------------------
        .byte   W96
@ 067   ----------------------------------------
        .byte   W96
@ 068   ----------------------------------------
        .byte   W96
@ 069   ----------------------------------------
        .byte   W96
@ 070   ----------------------------------------
        .byte   W96
@ 071   ----------------------------------------
        .byte   W96
@ 072   ----------------------------------------
        .byte   W96
@ 073   ----------------------------------------
        .byte   W96
@ 074   ----------------------------------------
        .byte   W96
@ 075   ----------------------------------------
        .byte   W96
@ 076   ----------------------------------------
        .byte   W96
@ 077   ----------------------------------------
        .byte   W96
@ 078   ----------------------------------------
        .byte   W96
@ 079   ----------------------------------------
        .byte   W96
@ 080   ----------------------------------------
        .byte   W96
@ 081   ----------------------------------------
        .byte   W96
@ 082   ----------------------------------------
        .byte   W96
@ 083   ----------------------------------------
        .byte   W96
@ 084   ----------------------------------------
        .byte   W96
@ 085   ----------------------------------------
        .byte   W96
@ 086   ----------------------------------------
        .byte   W96
@ 087   ----------------------------------------
        .byte   W96
@ 088   ----------------------------------------
        .byte   W96
@ 089   ----------------------------------------
        .byte   W96
@ 090   ----------------------------------------
        .byte   W96
@ 091   ----------------------------------------
        .byte                   Cn3
        .byte   W96
@ 092   ----------------------------------------
        .byte   W96
@ 093   ----------------------------------------
        .byte   W96
@ 094   ----------------------------------------
        .byte   W96
@ 095   ----------------------------------------
        .byte   W96
@ 096   ----------------------------------------
        .byte   W96
@ 097   ----------------------------------------
        .byte   W96
@ 098   ----------------------------------------
        .byte   W96
@ 099   ----------------------------------------
        .byte                   Cn3
        .byte   W96
@ 100   ----------------------------------------
        .byte   W96
@ 101   ----------------------------------------
        .byte   W96
@ 102   ----------------------------------------
        .byte   W96
@ 103   ----------------------------------------
        .byte   W96
@ 104   ----------------------------------------
        .byte   W96
@ 105   ----------------------------------------
        .byte   W96
@ 106   ----------------------------------------
        .byte   W96
@ 107   ----------------------------------------
        .byte                   Cn3
        .byte   W96
@ 108   ----------------------------------------
        .byte   W96
@ 109   ----------------------------------------
        .byte   W96
@ 110   ----------------------------------------
        .byte   W96
@ 111   ----------------------------------------
        .byte   W96
@ 112   ----------------------------------------
        .byte   W96
@ 113   ----------------------------------------
        .byte   W96
@ 114   ----------------------------------------
        .byte   W96
@ 115   ----------------------------------------
        .byte   W96
@ 116   ----------------------------------------
        .byte   W96
@ 117   ----------------------------------------
        .byte   W96
@ 118   ----------------------------------------
        .byte   W96
@ 119   ----------------------------------------
        .byte   W96
@ 120   ----------------------------------------
        .byte   W96
@ 121   ----------------------------------------
        .byte   W96
@ 122   ----------------------------------------
        .byte   W96
@ 123   ----------------------------------------
        .byte   W96
@ 124   ----------------------------------------
        .byte   W96
@ 125   ----------------------------------------
        .byte   W96
@ 126   ----------------------------------------
        .byte   W96
@ 127   ----------------------------------------
        .byte   W96
@ 128   ----------------------------------------
        .byte   W96
@ 129   ----------------------------------------
        .byte   W96
@ 130   ----------------------------------------
        .byte   W96
@ 131   ----------------------------------------
        .byte   W96
@ 132   ----------------------------------------
        .byte   W96
@ 133   ----------------------------------------
        .byte   W96
@ 134   ----------------------------------------
@        .byte   W96
@ 135   ----------------------------------------
        .byte   GOTO
        .word   mus_geese_test1_3_18
        .byte   FINE

@****************** Track 4 (Midi-Chn.5) ******************@

mus_geese_test1_4:
        .byte   KEYSH , mus_geese_test1_key+0
@ 000   ----------------------------------------
        .byte           VOICE , 87 @ GB Wave
        .byte           BENDR , 12
        .byte           VOL   , 127 @ 96
        .byte   W96
@ 001   ----------------------------------------
        .byte   W96
@ 002   ----------------------------------------
mus_geese_test1_4_2:
        .byte           N12   , Gn2 , v100
        .byte           N12   , Cn2
        .byte           N12   , Gn1
        .byte   W12
        .byte           N06   , Gn2
        .byte           N06   , Cn2
        .byte           N06   , Gn1
        .byte   W06
        .byte                   Cn2
        .byte           N06   , Gn2
        .byte           N06   , Gn1
        .byte   W06
        .byte           N12   , An2
        .byte           N12   , Dn2
        .byte           N12   , An1
        .byte   W12
        .byte           N24   , Gn2
        .byte           N24   , Cn2
        .byte           N24   , Gn1
        .byte   W24
        .byte           N12   , An2
        .byte           N12   , Dn2
        .byte           N12   , An1
        .byte   W12
        .byte           N24   , Gn2
        .byte           N24   , Cn2
        .byte           N24   , Gn1
        .byte   W24
        .byte   PEND
@ 003   ----------------------------------------
        .byte           N12   , An2
        .byte           N12   , Dn2
        .byte           N12   , An1
        .byte   W12
        .byte           N24   , Gn2
        .byte           N24   , Cn2
        .byte           N24   , Gn1
        .byte   W24
        .byte           N12   , An2
        .byte           N12   , Dn2
        .byte           N12   , An1
        .byte   W12
        .byte           N24   , Gs1
        .byte           N24   , Ds2
        .byte           N24   , Ds1
        .byte   W24
        .byte                   Fn2
        .byte           N24   , As1
        .byte           N24   , Fn1
        .byte   W24
@ 004   ----------------------------------------
        .byte           N12   , Gn2
        .byte           N12   , Cn2
        .byte           N12   , Gn1
        .byte   W12
        .byte           N06   , Gn2
        .byte           N06   , Cn2
        .byte           N06   , Gn1
        .byte   W06
        .byte                   Gn2
        .byte           N06   , Cn2
        .byte           N06   , Gn1
        .byte   W06
        .byte           N12   , An2
        .byte           N12   , Dn2
        .byte           N12   , An1
        .byte   W12
        .byte           N24   , Gn2
        .byte           N24   , Cn2
        .byte           N24   , Gn1
        .byte   W24
        .byte           N12   , An2
        .byte           N12   , Dn2
        .byte           N12   , An1
        .byte   W12
        .byte           N24   , Gn2
        .byte           N24   , Cn2
        .byte           N24   , Gn1
        .byte   W24
@ 005   ----------------------------------------
mus_geese_test1_4_5:
        .byte           N12   , An2 , v100
        .byte           N12   , Dn2
        .byte           N12   , An1
        .byte   W12
        .byte           N24   , Gn2
        .byte           N24   , Cn2
        .byte           N24   , Gn1
        .byte   W24
        .byte           N12   , Dn2
        .byte           N12   , An2
        .byte           N12   , An1
        .byte   W12
        .byte           N24   , Ds2
        .byte           N24   , Gs1
        .byte           N24   , Ds1
        .byte   W24
        .byte                   Fn2
        .byte           N24   , As1
        .byte           N24   , Fn1
        .byte   W24
        .byte   PEND
@ 006   ----------------------------------------
        .byte           N12   , Gn2
        .byte           N12   , Cn2
        .byte           N12   , Gn1
        .byte   W12
        .byte           N06   , Gn2
        .byte           N06   , Cn2
        .byte           N06   , Gn1
        .byte   W06
        .byte                   Gn2
        .byte           N06   , Cn2
        .byte           N06   , Gn1
        .byte   W06
        .byte           N12   , Dn2
        .byte           N12   , An2
        .byte           N12   , An1
        .byte   W12
        .byte           N24   , Gn2
        .byte           N24   , Cn2
        .byte           N24   , Gn1
        .byte   W24
        .byte           N12   , An2
        .byte           N12   , Dn2
        .byte           N12   , An1
        .byte   W12
        .byte           N24   , Cn2
        .byte           N24   , Gn2
        .byte           N24   , Gn1
        .byte   W24
@ 007   ----------------------------------------
mus_geese_test1_4_7:
        .byte           N12   , An2 , v100
        .byte           N12   , Dn2
        .byte           N12   , An1
        .byte   W12
        .byte           N24   , Cn2
        .byte           N24   , Gn2
        .byte           N24   , Gn1
        .byte   W24
        .byte           N12   , Dn2
        .byte           N12   , An2
        .byte           N12   , An1
        .byte   W12
        .byte           N24   , Ds2
        .byte           N24   , Gs1
        .byte           N24   , Ds1
        .byte   W24
        .byte                   Fn2
        .byte           N24   , As1
        .byte           N24   , Fn1
        .byte   W24
        .byte   PEND
@ 008   ----------------------------------------
        .byte           N12   , Gn2
        .byte           N12   , Cn2
        .byte           N12   , Gn1
        .byte   W12
        .byte           N06   , Gn2
        .byte           N06   , Cn2
        .byte           N06   , Gn1
        .byte   W06
        .byte                   Gn2
        .byte           N06   , Cn2
        .byte           N06   , Gn1
        .byte   W06
        .byte           N12   , An2
        .byte           N12   , Dn2
        .byte           N12   , An1
        .byte   W12
        .byte           N24   , Gn2
        .byte           N24   , Cn2
        .byte           N24   , Gn1
        .byte   W24
        .byte           N12   , Dn2
        .byte           N12   , An2
        .byte           N12   , An1
        .byte   W12
        .byte           N24   , Cn2
        .byte           N24   , Gn2
        .byte           N24   , Gn1
        .byte   W24
@ 009   ----------------------------------------
        .byte           N12   , An1
        .byte           N12   , An2
        .byte           N12   , Dn2
        .byte   W12
        .byte           N24   , Gn1
        .byte           N24   , Gn2
        .byte           N24   , Cn2
        .byte   W24
        .byte           N12   , Dn2
        .byte           N12   , An2
        .byte           N12   , An1
        .byte   W12
        .byte           N24   , Gs1
        .byte           N24   , Ds2
        .byte           N24   , Ds1
        .byte   W24
        .byte                   Fn1
        .byte           N24   , Fn2
        .byte           N24   , As1
        .byte   W24
@ 010   ----------------------------------------
        .byte           VOL   , 87
        .byte           N12   , Gn1
        .byte           N12   , Cn2
        .byte           N12   , Gn2
        .byte   W12
        .byte           N06
        .byte           N06   , Cn2
        .byte           N06   , Gn1
        .byte   W06
        .byte                   Gn1
        .byte           N06   , Gn2
        .byte           N06   , Cn2
        .byte   W06
        .byte           N12   , An1
        .byte           N12   , Dn2
        .byte           N12   , An2
        .byte   W12
        .byte           N24   , Gn1
        .byte           N24   , Cn2
        .byte           N24   , Gn2
        .byte   W24
        .byte           N12   , An2
        .byte           N12   , Dn2
        .byte           N12   , An1
        .byte   W12
        .byte           N24   , Gn1
        .byte           N24   , Cn2
        .byte           N24   , Gn2
        .byte   W24
@ 011   ----------------------------------------
mus_geese_test1_4_11:
        .byte           N12   , An1 , v100
        .byte           N12   , Dn2
        .byte           N12   , An2
        .byte   W12
        .byte           N24   , Gn2
        .byte           N24   , Cn2
        .byte           N24   , Gn1
        .byte   W24
        .byte           N12   , An2
        .byte           N12   , Dn2
        .byte           N12   , An1
        .byte   W12
        .byte           N24   , Gs1
        .byte           N24   , Ds2
        .byte           N24   , Ds1
        .byte   W24
        .byte                   Fn2
        .byte           N24   , As1
        .byte           N24   , Fn1
        .byte   W24
        .byte   PEND
@ 012   ----------------------------------------
mus_geese_test1_4_12:
        .byte           N12   , Gn1 , v100
        .byte           N12   , Cn2
        .byte           N12   , Gn2
        .byte   W12
        .byte           N06
        .byte           N06   , Cn2
        .byte           N06   , Gn1
        .byte   W06
        .byte                   Gn1
        .byte           N06   , Cn2
        .byte           N06   , Gn2
        .byte   W06
        .byte           N12   , An1
        .byte           N12   , Dn2
        .byte           N12   , An2
        .byte   W12
        .byte           N24   , Gn1
        .byte           N24   , Cn2
        .byte           N24   , Gn2
        .byte   W24
        .byte           N12   , An1
        .byte           N12   , Dn2
        .byte           N12   , An2
        .byte   W12
        .byte           N24   , Gn2
        .byte           N24   , Cn2
        .byte           N24   , Gn1
        .byte   W24
        .byte   PEND
@ 013   ----------------------------------------
        .byte   PATT
         .word  mus_geese_test1_4_5
@ 014   ----------------------------------------
        .byte           N12   , Gn1 , v100
        .byte           N12   , Cn2
        .byte           N12   , Gn2
        .byte   W12
        .byte           N06
        .byte           N06   , Cn2
        .byte           N06   , Gn1
        .byte   W06
        .byte                   Gn1
        .byte           N06   , Cn2
        .byte           N06   , Gn2
        .byte   W06
        .byte           N12   , An1
        .byte           N12   , An2
        .byte           N12   , Dn2
        .byte   W12
        .byte           N24   , Gn1
        .byte           N24   , Cn2
        .byte           N24   , Gn2
        .byte   W24
        .byte           N12   , An1
        .byte           N12   , Dn2
        .byte           N12   , An2
        .byte   W12
        .byte           N24   , Cn2
        .byte           N24   , Gn2
        .byte           N24   , Gn1
        .byte   W24
@ 015   ----------------------------------------
        .byte   PATT
         .word  mus_geese_test1_4_7
@ 016   ----------------------------------------
        .byte           N12   , Gn1 , v100
        .byte           N12   , Cn2
        .byte           N12   , Gn2
        .byte   W12
        .byte           N06
        .byte           N06   , Cn2
        .byte           N06   , Gn1
        .byte   W06
        .byte                   Gn1
        .byte           N06   , Cn2
        .byte           N06   , Gn2
        .byte   W06
        .byte           N12   , An1
        .byte           N12   , Dn2
        .byte           N12   , An2
        .byte   W12
        .byte           N24   , Gn1
        .byte           N24   , Cn2
        .byte           N24   , Gn2
        .byte   W24
        .byte           N12   , An1
        .byte           N12   , An2
        .byte           N12   , Dn2
        .byte   W12
        .byte           N24   , Cn2
        .byte           N24   , Gn2
        .byte           N24   , Gn1
        .byte   W24
@ 017   ----------------------------------------
mus_geese_test1_4_17:
        .byte           N12   , Dn2 , v100
        .byte           N12   , An2
        .byte           N12   , An1
        .byte   W12
        .byte           N24   , Cn2
        .byte           N24   , Gn2
        .byte           N24   , Gn1
        .byte   W24
        .byte           N12   , Dn2
        .byte           N12   , An2
        .byte           N12   , An1
        .byte   W12
        .byte           N24   , Gs1
        .byte           N24   , Ds2
        .byte           N24   , Ds1
        .byte   W24
        .byte                   As1
        .byte           N24   , Fn2
        .byte           N24   , Fn1
        .byte   W24
        .byte   PEND
@ 018   ----------------------------------------
mus_geese_test1_4_18:
        .byte           VOL   , 127 @ 96
        .byte           N12   , Cn2 , v100
        .byte           N12   , Gn1
        .byte   W12
        .byte           N06
        .byte           N06   , Cn2
        .byte   W06
        .byte                   Gn1
        .byte           N06   , Cn2
        .byte   W06
        .byte           N12   , Dn2
        .byte           N12   , An1
        .byte   W12
        .byte           N24   , Cn2
        .byte           N24   , Gn1
        .byte   W24
        .byte           N12   , An1
        .byte           N12   , Dn2
        .byte   W12
        .byte           N24   , Cn2
        .byte           N24   , Gn1
        .byte   W24
        .byte   PEND
@ 019   ----------------------------------------
mus_geese_test1_4_19:
        .byte           N12   , Dn2 , v100
        .byte           N12   , An1
        .byte   W12
        .byte           N24   , Cn2
        .byte           N24   , Gn1
        .byte   W24
        .byte           N12   , Dn2
        .byte           N12   , An1
        .byte   W12
        .byte           N24   , Gs1
        .byte           N24   , Ds1
        .byte   W24
        .byte                   As1
        .byte           N24   , Fn1
        .byte   W24
        .byte   PEND
@ 020   ----------------------------------------
mus_geese_test1_4_20:
        .byte           N12   , Gn1 , v100
        .byte           N12   , Cn2
        .byte   W12
        .byte           N06
        .byte           N06   , Gn1
        .byte   W06
        .byte                   Gn1
        .byte           N06   , Cn2
        .byte   W06
        .byte           N12   , An1
        .byte           N12   , Dn2
        .byte   W12
        .byte           N24   , Gn1
        .byte           N24   , Cn2
        .byte   W24
        .byte           N12   , An1
        .byte           N12   , Dn2
        .byte   W12
        .byte           N24   , Cn2
        .byte           N24   , Gn1
        .byte   W24
        .byte   PEND
@ 021   ----------------------------------------
        .byte           N12   , Dn2
        .byte           N12   , An1
        .byte   W12
        .byte           N24   , Gn1
        .byte           N24   , Cn2
        .byte   W24
        .byte           N12   , Dn2
        .byte           N12   , An1
        .byte   W12
        .byte           N24   , Gs1
        .byte           N24   , Ds1
        .byte   W24
        .byte                   Fn1
        .byte           N24   , As1
        .byte   W24
@ 022   ----------------------------------------
        .byte           N12   , Gn1
        .byte           N12   , Cn2
        .byte   W12
        .byte           N06
        .byte           N06   , Gn1
        .byte   W06
        .byte                   Cn2
        .byte           N06   , Gn1
        .byte   W06
        .byte           N12   , An1
        .byte           N12   , Dn2
        .byte   W12
        .byte           N24   , Gn1
        .byte           N24   , Cn2
        .byte   W24
        .byte           N12   , Dn2
        .byte           N12   , An1
        .byte   W12
        .byte           N24   , Cn2
        .byte           N24   , Gn1
        .byte   W24
@ 023   ----------------------------------------
        .byte   PATT
         .word  mus_geese_test1_4_19
@ 024   ----------------------------------------
        .byte           N12   , Cn2 , v100
        .byte           N12   , Gn1
        .byte   W12
        .byte           N06   , Cn2
        .byte           N06   , Gn1
        .byte   W06
        .byte                   Cn2
        .byte           N06   , Gn1
        .byte   W06
        .byte           N12   , An1
        .byte           N12   , Dn2
        .byte   W12
        .byte           N24   , Gn1
        .byte           N24   , Cn2
        .byte   W24
        .byte           N12   , Dn2
        .byte           N12   , An1
        .byte   W12
        .byte           N24   , Cn2
        .byte           N24   , Gn1
        .byte   W24
@ 025   ----------------------------------------
        .byte           N12   , Dn2
        .byte           N12   , An1
        .byte   W12
        .byte           N24   , Cn2
        .byte           N24   , Gn1
        .byte   W24
        .byte           N12   , Dn2
        .byte           N12   , An1
        .byte   W12
        .byte           N24   , Ds1
        .byte           N24   , Gs1
        .byte   W24
        .byte                   Fn1
        .byte           N24   , As1
        .byte   W24
@ 026   ----------------------------------------
        .byte           N12   , Gn1
        .byte           N12   , Cn2
        .byte           N12   , Gn2
        .byte   W12
        .byte           N06
        .byte           N06   , Cn2
        .byte           N06   , Gn1
        .byte   W06
        .byte                   Gn1
        .byte           N06   , Gn2
        .byte           N06   , Cn2
        .byte   W06
        .byte           N12   , An1
        .byte           N12   , Dn2
        .byte           N12   , An2
        .byte   W12
        .byte           N24   , Gn1
        .byte           N24   , Cn2
        .byte           N24   , Gn2
        .byte   W24
        .byte           N12   , An2
        .byte           N12   , Dn2
        .byte           N12   , An1
        .byte   W12
        .byte           N24   , Gn1
        .byte           N24   , Cn2
        .byte           N24   , Gn2
        .byte   W24
@ 027   ----------------------------------------
        .byte   PATT
         .word  mus_geese_test1_4_11
@ 028   ----------------------------------------
        .byte   PATT
         .word  mus_geese_test1_4_12
@ 029   ----------------------------------------
        .byte           N12   , An1 , v100
        .byte           N12   , Dn2
        .byte           N12   , An2
        .byte   W12
        .byte           N24   , Gn2
        .byte           N24   , Cn2
        .byte           N24   , Gn1
        .byte   W24
        .byte           N12   , An1
        .byte           N12   , An2
        .byte           N12   , Dn2
        .byte   W12
        .byte           N24   , Ds2
        .byte           N24   , Gs1
        .byte           N24   , Ds1
        .byte   W24
        .byte                   Fn1
        .byte           N24   , As1
        .byte           N24   , Fn2
        .byte   W24
@ 030   ----------------------------------------
        .byte           N12   , Gn1
        .byte           N12   , Cn2
        .byte           N12   , Gn2
        .byte   W12
        .byte           N06
        .byte           N06   , Cn2
        .byte           N06   , Gn1
        .byte   W06
        .byte                   Gn1
        .byte           N06   , Cn2
        .byte           N06   , Gn2
        .byte   W06
        .byte           N12   , An1
        .byte           N12   , An2
        .byte           N12   , Dn2
        .byte   W12
        .byte           N24   , Gn1
        .byte           N24   , Cn2
        .byte           N24   , Gn2
        .byte   W24
        .byte           N12   , An2
        .byte           N12   , Dn2
        .byte           N12   , An1
        .byte   W12
        .byte           N24   , Gn1
        .byte           N24   , Gn2
        .byte           N24   , Cn2
        .byte   W24
@ 031   ----------------------------------------
        .byte           N12   , An2
        .byte           N12   , Dn2
        .byte           N12   , An1
        .byte   W12
        .byte           N24   , Gn1
        .byte           N24   , Gn2
        .byte           N24   , Cn2
        .byte   W24
        .byte           N12   , Dn2
        .byte           N12   , An2
        .byte           N12   , An1
        .byte   W12
        .byte           N24   , Ds1
        .byte           N24   , Gs1
        .byte           N24   , Ds2
        .byte   W24
        .byte                   Fn2
        .byte           N24   , As1
        .byte           N24   , Fn1
        .byte   W24
@ 032   ----------------------------------------
        .byte           N12   , Gn1
        .byte           N12   , Cn2
        .byte           N12   , Gn2
        .byte   W12
        .byte           N06
        .byte           N06   , Cn2
        .byte           N06   , Gn1
        .byte   W06
        .byte                   Gn1
        .byte           N06   , Cn2
        .byte           N06   , Gn2
        .byte   W06
        .byte           N12   , An2
        .byte           N12   , Dn2
        .byte           N12   , An1
        .byte   W12
        .byte           N24   , Gn1
        .byte           N24   , Cn2
        .byte           N24   , Gn2
        .byte   W24
        .byte           N12   , Dn2
        .byte           N12   , An2
        .byte           N12   , An1
        .byte   W12
        .byte           N24   , Gn1
        .byte           N24   , Gn2
        .byte           N24   , Cn2
        .byte   W24
@ 033   ----------------------------------------
        .byte   PATT
         .word  mus_geese_test1_4_17
@ 034   ----------------------------------------
        .byte   PATT
         .word  mus_geese_test1_4_18
@ 035   ----------------------------------------
        .byte   PATT
         .word  mus_geese_test1_4_19
@ 036   ----------------------------------------
        .byte   PATT
         .word  mus_geese_test1_4_20
@ 037   ----------------------------------------
        .byte           N12   , An1 , v100
        .byte           N12   , Dn2
        .byte   W12
        .byte           N24   , Gn1
        .byte           N24   , Cn2
        .byte   W24
        .byte           N12   , An1
        .byte           N12   , Dn2
        .byte   W12
        .byte           N24   , Gs1
        .byte           N24   , Ds1
        .byte   W24
        .byte                   Fn1
        .byte           N24   , As1
        .byte   W24
@ 038   ----------------------------------------
        .byte           N12   , Gn1
        .byte           N12   , Cn2
        .byte   W12
        .byte           N06   , Gn1
        .byte           N06   , Cn2
        .byte   W06
        .byte                   Gn1
        .byte           N06   , Cn2
        .byte   W06
        .byte           N12   , An1
        .byte           N12   , Dn2
        .byte   W12
        .byte           N24   , Gn1
        .byte           N24   , Cn2
        .byte   W24
        .byte           N12   , Dn2
        .byte           N12   , An1
        .byte   W12
        .byte           N24   , Gn1
        .byte           N24   , Cn2
        .byte   W24
@ 039   ----------------------------------------
        .byte           N12   , An1
        .byte           N12   , Dn2
        .byte   W12
        .byte           N24   , Cn2
        .byte           N24   , Gn1
        .byte   W24
        .byte           N12   , Dn2
        .byte           N12   , An1
        .byte   W12
        .byte           N24   , Ds1
        .byte           N24   , Gs1
        .byte   W24
        .byte                   As1
        .byte           N24   , Fn1
        .byte   W24
@ 040   ----------------------------------------
        .byte           N12   , Gn1
        .byte           N12   , Cn2
        .byte   W12
        .byte           N06   , Gn1
        .byte           N06   , Cn2
        .byte   W06
        .byte                   Cn2
        .byte           N06   , Gn1
        .byte   W06
        .byte           N12   , An1
        .byte           N12   , Dn2
        .byte   W12
        .byte           N24   , Gn1
        .byte           N24   , Cn2
        .byte   W24
        .byte           N12   , An1
        .byte           N12   , Dn2
        .byte   W12
        .byte           N24   , Cn2
        .byte           N24   , Gn1
        .byte   W24
@ 041   ----------------------------------------
        .byte           N12   , Dn2
        .byte           N12   , An1
        .byte   W12
        .byte           N24   , Cn2
        .byte           N24   , Gn1
        .byte   W24
        .byte           N12   , An1
        .byte           N12   , Dn2
        .byte   W12
        .byte           N24   , Gs1
        .byte           N24   , Ds1
        .byte   W24
        .byte                   As1
        .byte           N24   , Fn1
        .byte   W24
@ 042   ----------------------------------------
        .byte           N12   , Fn2
        .byte           N12   , Cn2
        .byte   W12
        .byte           N06
        .byte           N06   , Fn2
        .byte   W06
        .byte                   Cn2
        .byte           N06   , Fn2
        .byte   W06
        .byte           N12
        .byte           N12   , Cn2
        .byte   W12
        .byte                   Cn2
        .byte           N12   , Fn2
        .byte   W12
        .byte           N06
        .byte           N06   , Cn2
        .byte   W06
        .byte                   Cn2
        .byte           N06   , Fn2
        .byte   W06
        .byte           N12   , Cn2
        .byte           N12   , Fn2
        .byte   W12
        .byte           N48
        .byte           N48   , Cn2
        .byte   W24
@ 043   ----------------------------------------
        .byte   W24
        .byte           N12
        .byte           N12   , Fn2
        .byte   W12
        .byte           N06   , Cn2
        .byte           N06   , Fn2
        .byte   W06
        .byte                   Fn2
        .byte           N06   , Cn2
        .byte   W06
        .byte           N12   , Fn2
        .byte           N12   , Cn2
        .byte   W12
        .byte           N06   , Fn2
        .byte           N06   , Cn2
        .byte   W06
        .byte                   Fn2
        .byte           N06   , Cn2
        .byte   W06
        .byte           N24
        .byte           N24   , Fn2
        .byte   W24
@ 044   ----------------------------------------
        .byte           N12   , Gn2
        .byte           N12   , Dn2
        .byte   W12
        .byte           N06
        .byte           N06   , Gn2
        .byte   W06
        .byte                   Gn2
        .byte           N06   , Dn2
        .byte   W06
        .byte           N12   , Gn2
        .byte           N12   , Dn2
        .byte   W12
        .byte                   Dn2
        .byte           N12   , Gn2
        .byte   W12
        .byte           N06
        .byte           N06   , Dn2
        .byte   W06
        .byte                   Gn2
        .byte           N06   , Dn2
        .byte   W06
        .byte           N12
        .byte           N12   , Gn2
        .byte   W12
        .byte           N48
        .byte           N48   , Dn2
        .byte   W24
@ 045   ----------------------------------------
        .byte   W24
        .byte           N12   , Gn2
        .byte           N12   , Dn2
        .byte   W12
        .byte           N06   , Gn2
        .byte           N06   , Dn2
        .byte   W06
        .byte                   Dn2
        .byte           N06   , Gn2
        .byte   W06
        .byte           N12
        .byte           N12   , Dn2
        .byte   W12
        .byte           N06
        .byte           N06   , Gn2
        .byte   W06
        .byte                   Gn2
        .byte           N06   , Dn2
        .byte   W06
        .byte           N24   , Gn2
        .byte           N24   , Dn2
        .byte   W24
@ 046   ----------------------------------------
        .byte           N12   , Ds2
        .byte           N12   , Gs2
        .byte   W12
        .byte           N06   , Ds2
        .byte           N06   , Gs2
        .byte   W06
        .byte                   Ds2
        .byte           N06   , Gs2
        .byte   W06
        .byte           N12
        .byte           N12   , Ds2
        .byte   W12
        .byte                   Ds2
        .byte           N12   , Gs2
        .byte   W12
        .byte           N06   , Ds2
        .byte           N06   , Gs2
        .byte   W06
        .byte                   Gs2
        .byte           N06   , Ds2
        .byte   W06
        .byte           N12
        .byte           N12   , Gs2
        .byte   W12
        .byte           N24   , Fn2
        .byte           N24   , Cn2
        .byte   W24
@ 047   ----------------------------------------
        .byte           N12   , Ds2
        .byte           N12   , Gs1
        .byte   W12
        .byte           N06
        .byte           N06   , Ds2
        .byte   W06
        .byte                   Gs1
        .byte           N06   , Ds2
        .byte   W06
        .byte           N12
        .byte           N12   , Gs1
        .byte   W12
        .byte                   Ds2
        .byte           N12   , Gs1
        .byte   W12
        .byte           N06   , Ds2
        .byte           N06   , Gs1
        .byte   W06
        .byte                   Ds2
        .byte           N06   , Gs1
        .byte   W06
        .byte           N12   , Ds2
        .byte           N12   , Gs1
        .byte   W12
        .byte           N24
        .byte           N24   , Ds2
        .byte   W24
@ 048   ----------------------------------------
        .byte           N12   , Gn1
        .byte           N12   , Cn2
        .byte   W12
        .byte           N06   , Gn1
        .byte           N06   , Cn2
        .byte   W06
        .byte                   Cn2
        .byte           N06   , Gn1
        .byte   W06
        .byte           N12   , Cn2
        .byte           N12   , Gn1
        .byte   W12
        .byte                   Gn1
        .byte           N12   , Cn2
        .byte   W12
        .byte           N06
        .byte           N06   , Gn1
        .byte   W06
        .byte                   Gn1
        .byte           N06   , Cn2
        .byte   W06
        .byte           N12   , Gn1
        .byte           N12   , Cn2
        .byte   W12
        .byte           N24
        .byte           N24   , Gn1
        .byte   W24
@ 049   ----------------------------------------
        .byte           N12
        .byte           N12   , Cn2
        .byte   W12
        .byte           N06   , Gn1
        .byte           N06   , Cn2
        .byte   W06
        .byte                   Gn1
        .byte           N06   , Cn2
        .byte   W06
        .byte           N12   , Gn1
        .byte           N12   , Cn2
        .byte   W12
        .byte                   Cn2
        .byte           N12   , Gn1
        .byte   W12
        .byte           N06   , Cn2
        .byte           N06   , Gn1
        .byte   W06
        .byte                   Gn1
        .byte           N06   , Cn2
        .byte   W06
        .byte           N12
        .byte           N12   , Gn1
        .byte   W12
        .byte           N24
        .byte           N24   , Cn2
        .byte   W24
@ 050   ----------------------------------------
        .byte           N12   , Fn1
        .byte           N12   , Fn2
        .byte           N12   , Cn2
        .byte   W12
        .byte           N06   , Fn1
        .byte           N06   , Fn2
        .byte           N06   , Cn2
        .byte   W06
        .byte                   Fn1
        .byte           N06   , Fn2
        .byte           N06   , Cn2
        .byte   W06
        .byte           N12   , Fn1
        .byte           N12   , Fn2
        .byte           N12   , Cn2
        .byte   W12
        .byte                   Fn1
        .byte           N12   , Fn2
        .byte           N12   , Cn2
        .byte   W12
        .byte           N06   , Fn1
        .byte           N06   , Fn2
        .byte           N06   , Cn2
        .byte   W06
        .byte                   Fn1
        .byte           N06   , Fn2
        .byte           N06   , Cn2
        .byte   W06
        .byte           N12   , Fn1
        .byte           N12   , Fn2
        .byte           N12   , Cn2
        .byte   W12
        .byte           N48   , Fn1
        .byte           N48   , Fn2
        .byte           N48   , Cn2
        .byte   W24
@ 051   ----------------------------------------
        .byte   W24
        .byte           N12   , Fn1
        .byte           N12   , Cn2
        .byte           N12   , Fn2
        .byte   W12
        .byte           N06   , Fn1
        .byte           N06   , Fn2
        .byte           N06   , Cn2
        .byte   W06
        .byte                   Fn1
        .byte           N06   , Cn2
        .byte           N06   , Fn2
        .byte   W06
        .byte           N12   , Fn1
        .byte           N12   , Fn2
        .byte           N12   , Cn2
        .byte   W12
        .byte           N06   , Fn1
        .byte           N06   , Cn2
        .byte           N06   , Fn2
        .byte   W06
        .byte                   Fn1
        .byte           N06   , Cn2
        .byte           N06   , Fn2
        .byte   W06
        .byte           N24   , Fn1
        .byte           N24   , Cn2
        .byte           N24   , Fn2
        .byte   W24
@ 052   ----------------------------------------
        .byte           N12   , Gn1
        .byte           N12   , Gn2
        .byte           N12   , Dn2
        .byte   W12
        .byte           N06   , Gn1
        .byte           N06   , Gn2
        .byte           N06   , Dn2
        .byte   W06
        .byte                   Gn1
        .byte           N06   , Dn2
        .byte           N06   , Gn2
        .byte   W06
        .byte           N12   , Gn1
        .byte           N12   , Gn2
        .byte           N12   , Dn2
        .byte   W12
        .byte                   Gn1
        .byte           N12   , Gn2
        .byte           N12   , Dn2
        .byte   W12
        .byte           N06   , Gn1
        .byte           N06   , Gn2
        .byte           N06   , Dn2
        .byte   W06
        .byte                   Gn1
        .byte           N06   , Dn2
        .byte           N06   , Gn2
        .byte   W06
        .byte           N12   , Gn1
        .byte           N12   , Gn2
        .byte           N12   , Dn2
        .byte   W12
        .byte           N48   , Gn1
        .byte           N48   , Gn2
        .byte           N48   , Dn2
        .byte   W24
@ 053   ----------------------------------------
        .byte   W24
        .byte           N12   , Gn1
        .byte           N12   , Gn2
        .byte           N12   , Dn2
        .byte   W12
        .byte           N06   , Gn1
        .byte           N06   , Dn2
        .byte           N06   , Gn2
        .byte   W06
        .byte                   Gn1
        .byte           N06   , Gn2
        .byte           N06   , Dn2
        .byte   W06
        .byte           N12   , Gn1
        .byte           N12   , Gn2
        .byte           N12   , Dn2
        .byte   W12
        .byte           N06   , Gn1
        .byte           N06   , Gn2
        .byte           N06   , Dn2
        .byte   W06
        .byte                   Gn1
        .byte           N06   , Dn2
        .byte           N06   , Gn2
        .byte   W06
        .byte           N24   , Gn1
        .byte           N24   , Dn2
        .byte           N24   , Gn2
        .byte   W24
@ 054   ----------------------------------------
        .byte           N12   , Fn1
        .byte           N12   , Fn2
        .byte           N12   , Cn2
        .byte   W12
        .byte           N06
        .byte           N06   , Fn2
        .byte           N06   , Fn1
        .byte   W06
        .byte                   Cn2
        .byte           N06   , Fn2
        .byte           N06   , Fn1
        .byte   W06
        .byte           N12
        .byte           N12   , Fn2
        .byte           N12   , Cn2
        .byte   W12
        .byte                   Cn2
        .byte           N12   , Fn2
        .byte           N12   , Fn1
        .byte   W12
        .byte           N06   , Fn2
        .byte           N06   , Cn2
        .byte           N06   , Fn1
        .byte   W06
        .byte                   Cn2
        .byte           N06   , Fn2
        .byte           N06   , Fn1
        .byte   W06
        .byte           N12   , Cn2
        .byte           N12   , Fn2
        .byte           N12   , Fn1
        .byte   W12
        .byte           N48
        .byte           N48   , Fn2
        .byte           N48   , Cn2
        .byte   W24
@ 055   ----------------------------------------
        .byte   W24
        .byte           N12
        .byte           N12   , Fn2
        .byte           N12   , Fn1
        .byte   W12
        .byte           N06   , Cn2
        .byte           N06   , Fn2
        .byte           N06   , Fn1
        .byte   W06
        .byte                   Fn2
        .byte           N06   , Cn2
        .byte           N06   , Fn1
        .byte   W06
        .byte           N12
        .byte           N12   , Fn2
        .byte           N12   , Cn2
        .byte   W12
        .byte           N06   , Fn2
        .byte           N06   , Cn2
        .byte           N06   , Fn1
        .byte   W06
        .byte                   Fn2
        .byte           N06   , Cn2
        .byte           N06   , Fn1
        .byte   W06
        .byte           N24   , Cn2
        .byte           N24   , Fn2
        .byte           N24   , Fn1
        .byte   W24
@ 056   ----------------------------------------
        .byte           N12   , Gn1
        .byte           N12   , Gn2
        .byte           N12   , Dn2
        .byte   W12
        .byte           N06
        .byte           N06   , Gn2
        .byte           N06   , Gn1
        .byte   W06
        .byte                   Gn2
        .byte           N06   , Dn2
        .byte           N06   , Gn1
        .byte   W06
        .byte           N12
        .byte           N12   , Gn2
        .byte           N12   , Dn2
        .byte   W12
        .byte                   Dn2
        .byte           N12   , Gn2
        .byte           N12   , Gn1
        .byte   W12
        .byte           N06   , Gn2
        .byte           N06   , Dn2
        .byte           N06   , Gn1
        .byte   W06
        .byte                   Gn2
        .byte           N06   , Dn2
        .byte           N06   , Gn1
        .byte   W06
        .byte           N12   , Dn2
        .byte           N12   , Gn2
        .byte           N12   , Gn1
        .byte   W12
        .byte           N48   , Gn2
        .byte           N48   , Dn2
        .byte           N48   , Gn1
        .byte   W24
@ 057   ----------------------------------------
        .byte   W24
        .byte           N12
        .byte           N12   , Dn2
        .byte           N12   , Gn2
        .byte   W12
        .byte           N06   , Dn2
        .byte           N06   , Gn2
        .byte           N06   , Gn1
        .byte   W06
        .byte                   Gn1
        .byte           N06   , Dn2
        .byte           N06   , Gn2
        .byte   W06
        .byte           N12   , Gn1
        .byte           N12   , Dn2
        .byte           N12   , Gn2
        .byte   W12
        .byte           N06   , Dn2
        .byte           N06   , Gn2
        .byte           N06   , Gn1
        .byte   W06
        .byte                   Gn1
        .byte           N06   , Gn2
        .byte           N06   , Dn2
        .byte   W06
        .byte           N24   , Gn1
        .byte           N24   , Gn2
        .byte           N24   , Dn2
        .byte   W24
@ 058   ----------------------------------------
mus_geese_test1_4_58:
        .byte           N12   , Gn1 , v100
        .byte           N12   , Cn2
        .byte   W12
        .byte           N06   , An1
        .byte           N06   , En1
        .byte   W06
        .byte                   En1
        .byte           N06   , An1
        .byte   W06
        .byte           N12   , En1
        .byte           N12   , An1
        .byte   W12
        .byte                   Cn2
        .byte           N12   , Gn1
        .byte   W12
        .byte           N06   , En1
        .byte           N06   , An1
        .byte   W06
        .byte                   An1
        .byte           N06   , En1
        .byte   W06
        .byte           N12   , An1
        .byte           N12   , En1
        .byte   W12
        .byte                   Cn2
        .byte           N12   , Gn1
        .byte   W12
        .byte           N06   , En1
        .byte           N06   , An1
        .byte   W06
        .byte                   An1
        .byte           N06   , En1
        .byte   W06
        .byte   PEND
@ 059   ----------------------------------------
mus_geese_test1_4_59:
        .byte           N12   , En1 , v100
        .byte           N12   , An1
        .byte   W12
        .byte                   Cn2
        .byte           N12   , Gn1
        .byte   W12
        .byte           N06   , An1
        .byte           N06   , En1
        .byte   W06
        .byte                   En1
        .byte           N06   , An1
        .byte   W06
        .byte           N12
        .byte           N12   , En1
        .byte   W12
        .byte                   Cn2
        .byte           N12   , Gn1
        .byte   W12
        .byte           N06   , An1
        .byte           N06   , En1
        .byte   W06
        .byte                   An1
        .byte           N06   , En1
        .byte   W06
        .byte           N24   , Cn2
        .byte           N24   , Gn1
        .byte   W24
        .byte   PEND
@ 060   ----------------------------------------
mus_geese_test1_4_60:
        .byte           N12   , Cn1 , v100
        .byte           N12   , Fn1
        .byte   W12
        .byte           N06   , Dn1
        .byte           N06   , An0
        .byte   W06
        .byte                   An0
        .byte           N06   , Dn1
        .byte   W06
        .byte           N12   , An0
        .byte           N12   , Dn1
        .byte   W12
        .byte                   Fn1
        .byte           N12   , Cn1
        .byte   W12
        .byte           N06   , An0
        .byte           N06   , Dn1
        .byte   W06
        .byte                   Dn1
        .byte           N06   , An0
        .byte   W06
        .byte           N12   , Dn1
        .byte           N12   , An0
        .byte   W12
        .byte                   Fn1
        .byte           N12   , Cn1
        .byte   W12
        .byte           N06   , An0
        .byte           N06   , Dn1
        .byte   W06
        .byte                   Dn1
        .byte           N06   , An0
        .byte   W06
        .byte   PEND
@ 061   ----------------------------------------
mus_geese_test1_4_61:
        .byte           N12   , An0 , v100
        .byte           N12   , Dn1
        .byte   W12
        .byte                   Fn1
        .byte           N12   , Cn1
        .byte   W12
        .byte           N06   , Dn1
        .byte           N06   , An0
        .byte   W06
        .byte                   An0
        .byte           N06   , Dn1
        .byte   W06
        .byte           N12
        .byte           N12   , An0
        .byte   W12
        .byte                   Fn1
        .byte           N12   , Cn1
        .byte   W12
        .byte           N06   , Dn1
        .byte           N06   , An0
        .byte   W06
        .byte                   Dn1
        .byte           N06   , An0
        .byte   W06
        .byte           N24   , Fn1
        .byte           N24   , Cn1
        .byte   W24
        .byte   PEND
@ 062   ----------------------------------------
        .byte   PATT
         .word  mus_geese_test1_4_58
@ 063   ----------------------------------------
        .byte   PATT
         .word  mus_geese_test1_4_59
@ 064   ----------------------------------------
        .byte   PATT
         .word  mus_geese_test1_4_60
@ 065   ----------------------------------------
        .byte   PATT
         .word  mus_geese_test1_4_61
@ 066   ----------------------------------------
        .byte           N12   , Dn1 , v100
        .byte           N12   , Gn1
        .byte   W12
        .byte           N06   , En1
        .byte           N06   , Bn0
        .byte   W06
        .byte                   Bn0
        .byte           N06   , En1
        .byte   W06
        .byte           N12   , Bn0
        .byte           N12   , En1
        .byte   W12
        .byte                   Gn1
        .byte           N12   , Dn1
        .byte   W12
        .byte           N06   , Bn0
        .byte           N06   , En1
        .byte   W06
        .byte                   En1
        .byte           N06   , Bn0
        .byte   W06
        .byte           N12   , En1
        .byte           N12   , Bn0
        .byte   W12
        .byte                   Gn1
        .byte           N12   , Dn1
        .byte   W12
        .byte           N06   , Bn0
        .byte           N06   , En1
        .byte   W06
        .byte                   En1
        .byte           N06   , Bn0
        .byte   W06
@ 067   ----------------------------------------
        .byte           N12
        .byte           N12   , En1
        .byte   W12
        .byte                   Gn1
        .byte           N12   , Dn1
        .byte   W12
        .byte           N06   , En1
        .byte           N06   , Bn0
        .byte   W06
        .byte                   Bn0
        .byte           N06   , En1
        .byte   W06
        .byte           N12
        .byte           N12   , Bn0
        .byte   W12
        .byte                   Gn1
        .byte           N12   , Dn1
        .byte   W12
        .byte           N06   , En1
        .byte           N06   , Bn0
        .byte   W06
        .byte                   En1
        .byte           N06   , Bn0
        .byte   W06
        .byte           N24   , Gn1
        .byte           N24   , Dn1
        .byte   W24
@ 068   ----------------------------------------
        .byte   PATT
         .word  mus_geese_test1_4_2
@ 069   ----------------------------------------
        .byte           N12   , An1 , v100
        .byte           N12   , Dn2
        .byte           N12   , An2
        .byte   W12
        .byte           N24   , Gn2
        .byte           N24   , Cn2
        .byte           N24   , Gn1
        .byte   W24
        .byte           N12   , An2
        .byte           N12   , Dn2
        .byte           N12   , An1
        .byte   W12
        .byte           N24   , Ds1
        .byte           N24   , Ds2
        .byte           N24   , Gs1
        .byte   W24
        .byte                   Fn2
        .byte           N24   , As1
        .byte           N24   , Fn1
        .byte   W24
@ 070   ----------------------------------------
        .byte           N12   , Gn2
        .byte           N12   , Cn2
        .byte           N12   , Gn1
        .byte   W12
        .byte           N06
        .byte           N06   , Cn2
        .byte           N06   , Gn2
        .byte   W06
        .byte                   Gn1
        .byte           N06   , Gn2
        .byte           N06   , Cn2
        .byte   W06
        .byte           N12   , An2
        .byte           N12   , Dn2
        .byte           N12   , An1
        .byte   W12
        .byte           N24   , Gn1
        .byte           N24   , Cn2
        .byte           N24   , Gn2
        .byte   W24
        .byte           N12   , An1
        .byte           N12   , Dn2
        .byte           N12   , An2
        .byte   W12
        .byte           N24   , Gn2
        .byte           N24   , Cn2
        .byte           N24   , Gn1
        .byte   W24
@ 071   ----------------------------------------
        .byte           N12   , An2
        .byte           N12   , Dn2
        .byte           N12   , An1
        .byte   W12
        .byte           N24   , Gn1
        .byte           N24   , Cn2
        .byte           N24   , Gn2
        .byte   W24
        .byte           N12   , An1
        .byte           N12   , Dn2
        .byte           N12   , An2
        .byte   W12
        .byte           N24   , Gs1
        .byte           N24   , Ds2
        .byte           N24   , Ds1
        .byte   W24
        .byte                   Fn2
        .byte           N24   , As1
        .byte           N24   , Fn1
        .byte   W24
@ 072   ----------------------------------------
        .byte   PATT
         .word  mus_geese_test1_4_2
@ 073   ----------------------------------------
        .byte           N12   , An1 , v100
        .byte           N12   , Dn2
        .byte           N12   , An2
        .byte   W12
        .byte           N24   , Gn2
        .byte           N24   , Cn2
        .byte           N24   , Gn1
        .byte   W24
        .byte           N12   , An1
        .byte           N12   , Dn2
        .byte           N12   , An2
        .byte   W12
        .byte           N24   , Ds1
        .byte           N24   , Ds2
        .byte           N24   , Gs1
        .byte   W24
        .byte                   Fn2
        .byte           N24   , As1
        .byte           N24   , Fn1
        .byte   W24
@ 074   ----------------------------------------
        .byte           N12   , Gn2
        .byte           N12   , Cn2
        .byte           N12   , Gn1
        .byte   W12
        .byte           N06   , Gn2
        .byte           N06   , Cn2
        .byte           N06   , Gn1
        .byte   W06
        .byte                   Gn1
        .byte           N06   , Gn2
        .byte           N06   , Cn2
        .byte   W06
        .byte           N12   , An2
        .byte           N12   , Dn2
        .byte           N12   , An1
        .byte   W12
        .byte           N24   , Gn2
        .byte           N24   , Cn2
        .byte           N24   , Gn1
        .byte   W24
        .byte           N12   , An2
        .byte           N12   , Dn2
        .byte           N12   , An1
        .byte   W12
        .byte           N24   , Gn2
        .byte           N24   , Cn2
        .byte           N24   , Gn1
        .byte   W24
@ 075   ----------------------------------------
mus_geese_test1_4_75:
        .byte           N12   , An2 , v100
        .byte           N12   , Dn2
        .byte           N12   , An1
        .byte   W12
        .byte           N24   , Gn2
        .byte           N24   , Cn2
        .byte           N24   , Gn1
        .byte   W24
        .byte           N12   , An2
        .byte           N12   , Dn2
        .byte           N12   , An1
        .byte   W12
        .byte           N24   , Gs1
        .byte           N24   , Ds2
        .byte           N24   , Ds1
        .byte   W24
        .byte                   Fn1
        .byte           N24   , As1
        .byte           N24   , Fn2
        .byte   W24
        .byte   PEND
@ 076   ----------------------------------------
mus_geese_test1_4_76:
        .byte           N12   , Gn1 , v100
        .byte           N12   , Cn2
        .byte   W12
        .byte           N06   , Gn1
        .byte           N06   , Cn2
        .byte   W06
        .byte                   Cn2
        .byte           N06   , Gn1
        .byte   W06
        .byte           N12   , An1
        .byte           N12   , Dn2
        .byte   W12
        .byte           N24   , Cn2
        .byte           N24   , Gn1
        .byte   W24
        .byte           N12   , An1
        .byte           N12   , Dn2
        .byte   W12
        .byte           N24   , Gn1
        .byte           N24   , Cn2
        .byte   W24
        .byte   PEND
@ 077   ----------------------------------------
mus_geese_test1_4_77:
        .byte           N12   , An1 , v100
        .byte           N12   , Dn2
        .byte   W12
        .byte           N24   , Cn2
        .byte           N24   , Gn1
        .byte   W24
        .byte           N12   , Dn2
        .byte           N12   , An1
        .byte   W12
        .byte           N24   , Ds1
        .byte           N24   , Gs1
        .byte   W24
        .byte                   Fn1
        .byte           N24   , As1
        .byte   W24
        .byte   PEND
@ 078   ----------------------------------------
mus_geese_test1_4_78:
        .byte           N12   , Cn2 , v100
        .byte           N12   , Gn1
        .byte   W12
        .byte           N06   , Cn2
        .byte           N06   , Gn1
        .byte   W06
        .byte                   Cn2
        .byte           N06   , Gn1
        .byte   W06
        .byte           N12   , Dn2
        .byte           N12   , An1
        .byte   W12
        .byte           N24   , Gn1
        .byte           N24   , Cn2
        .byte   W24
        .byte           N12   , An1
        .byte           N12   , Dn2
        .byte   W12
        .byte           N24   , Gn1
        .byte           N24   , Cn2
        .byte   W24
        .byte   PEND
@ 079   ----------------------------------------
        .byte           N12   , An1
        .byte           N12   , Dn2
        .byte   W12
        .byte           N24   , Gn1
        .byte           N24   , Cn2
        .byte   W24
        .byte           N12   , Dn2
        .byte           N12   , An1
        .byte   W12
        .byte           N24   , Ds1
        .byte           N24   , Gs1
        .byte   W24
        .byte                   As1
        .byte           N24   , Fn1
        .byte   W24
@ 080   ----------------------------------------
        .byte           N12   , Cn2
        .byte           N12   , Gn1
        .byte   W12
        .byte           N06   , Cn2
        .byte           N06   , Gn1
        .byte   W06
        .byte                   Gn1
        .byte           N06   , Cn2
        .byte   W06
        .byte           N12   , Dn2
        .byte           N12   , An1
        .byte   W12
        .byte           N24   , Gn1
        .byte           N24   , Cn2
        .byte   W24
        .byte           N12   , Dn2
        .byte           N12   , An1
        .byte   W12
        .byte           N24   , Gn1
        .byte           N24   , Cn2
        .byte   W24
@ 081   ----------------------------------------
        .byte   PATT
         .word  mus_geese_test1_4_77
@ 082   ----------------------------------------
        .byte           N12   , Gn1 , v100
        .byte           N12   , Cn2
        .byte   W12
        .byte           N06
        .byte           N06   , Gn1
        .byte   W06
        .byte                   Gn1
        .byte           N06   , Cn2
        .byte   W06
        .byte           N12   , Dn2
        .byte           N12   , An1
        .byte   W12
        .byte           N24   , Gn1
        .byte           N24   , Cn2
        .byte   W24
        .byte           N12   , Dn2
        .byte           N12   , An1
        .byte   W12
        .byte           N24   , Gn1
        .byte           N24   , Cn2
        .byte   W24
@ 083   ----------------------------------------
        .byte           N12   , An1
        .byte           N12   , Dn2
        .byte   W12
        .byte           N24   , Cn2
        .byte           N24   , Gn1
        .byte   W24
        .byte           N12   , Dn2
        .byte           N12   , An1
        .byte   W12
        .byte           N24   , Gs1
        .byte           N24   , Ds1
        .byte   W24
        .byte                   As1
        .byte           N24   , Fn1
        .byte   W24
@ 084   ----------------------------------------
        .byte           N12   , Gn1
        .byte           N12   , Cn2
        .byte           N12   , Gn2
        .byte   W12
        .byte           N06
        .byte           N06   , Cn2
        .byte           N06   , Gn1
        .byte   W06
        .byte                   Cn2
        .byte           N06   , Gn2
        .byte           N06   , Gn1
        .byte   W06
        .byte           N12   , An2
        .byte           N12   , Dn2
        .byte           N12   , An1
        .byte   W12
        .byte           N24   , Gn2
        .byte           N24   , Cn2
        .byte           N24   , Gn1
        .byte   W24
        .byte           N12   , An2
        .byte           N12   , Dn2
        .byte           N12   , An1
        .byte   W12
        .byte           N24   , Gn1
        .byte           N24   , Cn2
        .byte           N24   , Gn2
        .byte   W24
@ 085   ----------------------------------------
        .byte           N12   , An2
        .byte           N12   , Dn2
        .byte           N12   , An1
        .byte   W12
        .byte           N24   , Gn1
        .byte           N24   , Cn2
        .byte           N24   , Gn2
        .byte   W24
        .byte           N12   , An2
        .byte           N12   , Dn2
        .byte           N12   , An1
        .byte   W12
        .byte           N24   , Gs1
        .byte           N24   , Ds2
        .byte           N24   , Ds1
        .byte   W24
        .byte                   Fn2
        .byte           N24   , As1
        .byte           N24   , Fn1
        .byte   W24
@ 086   ----------------------------------------
        .byte           N12   , Gn1
        .byte           N12   , Cn2
        .byte           N12   , Gn2
        .byte   W12
        .byte           N06
        .byte           N06   , Cn2
        .byte           N06   , Gn1
        .byte   W06
        .byte                   Gn2
        .byte           N06   , Cn2
        .byte           N06   , Gn1
        .byte   W06
        .byte           N12   , An2
        .byte           N12   , Dn2
        .byte           N12   , An1
        .byte   W12
        .byte           N24   , Gn2
        .byte           N24   , Cn2
        .byte           N24   , Gn1
        .byte   W24
        .byte           N12   , An1
        .byte           N12   , Dn2
        .byte           N12   , An2
        .byte   W12
        .byte           N24   , Gn2
        .byte           N24   , Cn2
        .byte           N24   , Gn1
        .byte   W24
@ 087   ----------------------------------------
        .byte           N12   , An2
        .byte           N12   , Dn2
        .byte           N12   , An1
        .byte   W12
        .byte           N24   , Gn1
        .byte           N24   , Cn2
        .byte           N24   , Gn2
        .byte   W24
        .byte           N12   , An1
        .byte           N12   , An2
        .byte           N12   , Dn2
        .byte   W12
        .byte           N24   , Ds2
        .byte           N24   , Gs1
        .byte           N24   , Ds1
        .byte   W24
        .byte                   Fn1
        .byte           N24   , As1
        .byte           N24   , Fn2
        .byte   W24
@ 088   ----------------------------------------
        .byte           N12   , Gn1
        .byte           N12   , Cn2
        .byte           N12   , Gn2
        .byte   W12
        .byte           N06
        .byte           N06   , Cn2
        .byte           N06   , Gn1
        .byte   W06
        .byte                   Gn2
        .byte           N06   , Cn2
        .byte           N06   , Gn1
        .byte   W06
        .byte           N12   , Dn2
        .byte           N12   , An2
        .byte           N12   , An1
        .byte   W12
        .byte           N24   , Gn2
        .byte           N24   , Cn2
        .byte           N24   , Gn1
        .byte   W24
        .byte           N12   , An2
        .byte           N12   , Dn2
        .byte           N12   , An1
        .byte   W12
        .byte           N24   , Gn1
        .byte           N24   , Gn2
        .byte           N24   , Cn2
        .byte   W24
@ 089   ----------------------------------------
        .byte           N12   , An1
        .byte           N12   , Dn2
        .byte           N12   , An2
        .byte   W12
        .byte           N24   , Cn2
        .byte           N24   , Gn2
        .byte           N24   , Gn1
        .byte   W24
        .byte           N12   , Dn2
        .byte           N12   , An2
        .byte           N12   , An1
        .byte   W12
        .byte           N24   , Ds1
        .byte           N24   , Gs1
        .byte           N24   , Ds2
        .byte   W24
        .byte                   Fn2
        .byte           N24   , As1
        .byte           N24   , Fn1
        .byte   W24
@ 090   ----------------------------------------
        .byte           N12   , Gn2
        .byte           N12   , Cn2
        .byte           N12   , Gn1
        .byte   W12
        .byte           N06
        .byte           N06   , Cn2
        .byte           N06   , Gn2
        .byte   W06
        .byte                   Gn1
        .byte           N06   , Cn2
        .byte           N06   , Gn2
        .byte   W06
        .byte           N12   , An2
        .byte           N12   , Dn2
        .byte           N12   , An1
        .byte   W12
        .byte           N24   , Gn1
        .byte           N24   , Cn2
        .byte           N24   , Gn2
        .byte   W24
        .byte           N12   , An1
        .byte           N12   , An2
        .byte           N12   , Dn2
        .byte   W12
        .byte           N24   , Cn2
        .byte           N24   , Gn2
        .byte           N24   , Gn1
        .byte   W24
@ 091   ----------------------------------------
        .byte           N12   , An1
        .byte           N12   , An2
        .byte           N12   , Dn2
        .byte   W12
        .byte           N24   , Gn1
        .byte           N24   , Gn2
        .byte           N24   , Cn2
        .byte   W24
        .byte           N12   , Dn2
        .byte           N12   , An2
        .byte           N12   , An1
        .byte   W12
        .byte           N24   , Gs1
        .byte           N24   , Ds2
        .byte           N24   , Ds1
        .byte   W24
        .byte                   As1
        .byte           N24   , Fn2
        .byte           N24   , Fn1
        .byte   W24
@ 092   ----------------------------------------
        .byte   PATT
         .word  mus_geese_test1_4_76
@ 093   ----------------------------------------
        .byte   PATT
         .word  mus_geese_test1_4_77
@ 094   ----------------------------------------
        .byte   PATT
         .word  mus_geese_test1_4_78
@ 095   ----------------------------------------
        .byte           N12   , Dn2 , v100
        .byte           N12   , An1
        .byte   W12
        .byte           N24   , Gn1
        .byte           N24   , Cn2
        .byte   W24
        .byte           N12   , An1
        .byte           N12   , Dn2
        .byte   W12
        .byte           N24   , Ds1
        .byte           N24   , Gs1
        .byte   W24
        .byte                   As1
        .byte           N24   , Fn1
        .byte   W24
@ 096   ----------------------------------------
        .byte           N12   , Cn2
        .byte           N12   , Gn1
        .byte   W12
        .byte           N06
        .byte           N06   , Cn2
        .byte   W06
        .byte                   Cn2
        .byte           N06   , Gn1
        .byte   W06
        .byte           N12   , Dn2
        .byte           N12   , An1
        .byte   W12
        .byte           N24   , Gn1
        .byte           N24   , Cn2
        .byte   W24
        .byte           N12   , Dn2
        .byte           N12   , An1
        .byte   W12
        .byte           N24   , Cn2
        .byte           N24   , Gn1
        .byte   W24
@ 097   ----------------------------------------
        .byte           N12   , Dn2
        .byte           N12   , An1
        .byte   W12
        .byte           N24   , Cn2
        .byte           N24   , Gn1
        .byte   W24
        .byte           N12   , Dn2
        .byte           N12   , An1
        .byte   W12
        .byte           N24   , Gs1
        .byte           N24   , Ds1
        .byte   W24
        .byte                   Fn1
        .byte           N24   , As1
        .byte   W24
@ 098   ----------------------------------------
        .byte           N12   , Gn1
        .byte           N12   , Cn2
        .byte   W12
        .byte           N06
        .byte           N06   , Gn1
        .byte   W06
        .byte                   Cn2
        .byte           N06   , Gn1
        .byte   W06
        .byte           N12   , An1
        .byte           N12   , Dn2
        .byte   W12
        .byte           N24   , Cn2
        .byte           N24   , Gn1
        .byte   W24
        .byte           N12   , Dn2
        .byte           N12   , An1
        .byte   W12
        .byte           N24   , Cn2
        .byte           N24   , Gn1
        .byte   W24
@ 099   ----------------------------------------
        .byte           N12   , An1
        .byte           N12   , Dn2
        .byte   W12
        .byte           N24   , Cn2
        .byte           N24   , Gn1
        .byte   W24
        .byte           N12   , An1
        .byte           N12   , Dn2
        .byte   W12
        .byte           N24   , Ds1
        .byte           N24   , Gs1
        .byte   W24
        .byte                   Fn1
        .byte           N24   , As1
        .byte   W24
@ 100   ----------------------------------------
        .byte           N12   , Fn2
        .byte           N12   , Cn2
        .byte   W12
        .byte           N06
        .byte           N06   , Fn2
        .byte   W06
        .byte                   Fn2
        .byte           N06   , Cn2
        .byte   W06
        .byte           N12
        .byte           N12   , Fn2
        .byte   W12
        .byte                   Cn2
        .byte           N12   , Fn2
        .byte   W12
        .byte           N06   , Cn2
        .byte           N06   , Fn2
        .byte   W06
        .byte                   Fn2
        .byte           N06   , Cn2
        .byte   W06
        .byte           N12
        .byte           N12   , Fn2
        .byte   W12
        .byte           N48
        .byte           N48   , Cn2
        .byte   W24
@ 101   ----------------------------------------
        .byte   W24
        .byte           N12
        .byte           N12   , Fn2
        .byte   W12
        .byte           N06   , Cn2
        .byte           N06   , Fn2
        .byte   W06
        .byte                   Cn2
        .byte           N06   , Fn2
        .byte   W06
        .byte           N12
        .byte           N12   , Cn2
        .byte   W12
        .byte           N06   , Fn2
        .byte           N06   , Cn2
        .byte   W06
        .byte                   Cn2
        .byte           N06   , Fn2
        .byte   W06
        .byte           N24   , Cn2
        .byte           N24   , Fn2
        .byte   W24
@ 102   ----------------------------------------
        .byte           N12   , Gn2
        .byte           N12   , Dn2
        .byte   W12
        .byte           N06
        .byte           N06   , Gn2
        .byte   W06
        .byte                   Dn2
        .byte           N06   , Gn2
        .byte   W06
        .byte           N12   , Dn2
        .byte           N12   , Gn2
        .byte   W12
        .byte                   Dn2
        .byte           N12   , Gn2
        .byte   W12
        .byte           N06   , Dn2
        .byte           N06   , Gn2
        .byte   W06
        .byte                   Dn2
        .byte           N06   , Gn2
        .byte   W06
        .byte           N12   , Dn2
        .byte           N12   , Gn2
        .byte   W12
        .byte           N48
        .byte           N48   , Dn2
        .byte   W24
@ 103   ----------------------------------------
        .byte   W24
        .byte           N12   , Gn2
        .byte           N12   , Dn2
        .byte   W12
        .byte           N06   , Gn2
        .byte           N06   , Dn2
        .byte   W06
        .byte                   Gn2
        .byte           N06   , Dn2
        .byte   W06
        .byte           N12   , Gn2
        .byte           N12   , Dn2
        .byte   W12
        .byte           N06
        .byte           N06   , Gn2
        .byte   W06
        .byte                   Dn2
        .byte           N06   , Gn2
        .byte   W06
        .byte           N24
        .byte           N24   , Dn2
        .byte   W24
@ 104   ----------------------------------------
        .byte           N12   , Ds2
        .byte           N12   , Gs2
        .byte   W12
        .byte           N06   , Ds2
        .byte           N06   , Gs2
        .byte   W06
        .byte                   Gs2
        .byte           N06   , Ds2
        .byte   W06
        .byte           N12
        .byte           N12   , Gs2
        .byte   W12
        .byte                   Ds2
        .byte           N12   , Gs2
        .byte   W12
        .byte           N06
        .byte           N06   , Ds2
        .byte   W06
        .byte                   Ds2
        .byte           N06   , Gs2
        .byte   W06
        .byte           N12   , Ds2
        .byte           N12   , Gs2
        .byte   W12
        .byte           N24   , Fn2
        .byte           N24   , Cn2
        .byte   W24
@ 105   ----------------------------------------
        .byte           N12   , Ds2
        .byte           N12   , Gs1
        .byte   W12
        .byte           N06
        .byte           N06   , Ds2
        .byte   W06
        .byte                   Ds2
        .byte           N06   , Gs1
        .byte   W06
        .byte           N12
        .byte           N12   , Ds2
        .byte   W12
        .byte                   Ds2
        .byte           N12   , Gs1
        .byte   W12
        .byte           N06   , Ds2
        .byte           N06   , Gs1
        .byte   W06
        .byte                   Ds2
        .byte           N06   , Gs1
        .byte   W06
        .byte           N12   , Ds2
        .byte           N12   , Gs1
        .byte   W12
        .byte           N24
        .byte           N24   , Ds2
        .byte   W24
@ 106   ----------------------------------------
        .byte           N12   , Cn2
        .byte           N12   , Gn1
        .byte   W12
        .byte           N06   , Cn2
        .byte           N06   , Gn1
        .byte   W06
        .byte                   Cn2
        .byte           N06   , Gn1
        .byte   W06
        .byte           N12   , Cn2
        .byte           N12   , Gn1
        .byte   W12
        .byte                   Cn2
        .byte           N12   , Gn1
        .byte   W12
        .byte           N06   , Cn2
        .byte           N06   , Gn1
        .byte   W06
        .byte                   Gn1
        .byte           N06   , Cn2
        .byte   W06
        .byte           N12
        .byte           N12   , Gn1
        .byte   W12
        .byte           N24   , Cn2
        .byte           N24   , Gn1
        .byte   W24
@ 107   ----------------------------------------
        .byte           N12   , Cn2
        .byte           N12   , Gn1
        .byte   W12
        .byte           N06
        .byte           N06   , Cn2
        .byte   W06
        .byte                   Cn2
        .byte           N06   , Gn1
        .byte   W06
        .byte           N12   , Cn2
        .byte           N12   , Gn1
        .byte   W12
        .byte                   Cn2
        .byte           N12   , Gn1
        .byte   W12
        .byte           N06
        .byte           N06   , Cn2
        .byte   W06
        .byte                   Cn2
        .byte           N06   , Gn1
        .byte   W06
        .byte           N12   , Cn2
        .byte           N12   , Gn1
        .byte   W12
        .byte           N24   , Cn2
        .byte           N24   , Gn1
        .byte   W24
@ 108   ----------------------------------------
        .byte           N12   , Fn1
        .byte           N12   , Fn2
        .byte           N12   , Cn2
        .byte   W12
        .byte           N06   , Fn1
        .byte           N06   , Fn2
        .byte           N06   , Cn2
        .byte   W06
        .byte                   Cn2
        .byte           N06   , Fn2
        .byte           N06   , Fn1
        .byte   W06
        .byte           N12   , Cn2
        .byte           N12   , Fn2
        .byte           N12   , Fn1
        .byte   W12
        .byte                   Fn1
        .byte           N12   , Fn2
        .byte           N12   , Cn2
        .byte   W12
        .byte           N06
        .byte           N06   , Fn2
        .byte           N06   , Fn1
        .byte   W06
        .byte                   Cn2
        .byte           N06   , Fn2
        .byte           N06   , Fn1
        .byte   W06
        .byte           N12
        .byte           N12   , Fn2
        .byte           N12   , Cn2
        .byte   W12
        .byte           N48   , Fn1
        .byte           N48   , Fn2
        .byte           N48   , Cn2
        .byte   W24
@ 109   ----------------------------------------
        .byte   W24
        .byte           N12   , Fn1
        .byte           N12   , Cn2
        .byte           N12   , Fn2
        .byte   W12
        .byte           N06   , Fn1
        .byte           N06   , Fn2
        .byte           N06   , Cn2
        .byte   W06
        .byte                   Fn2
        .byte           N06   , Cn2
        .byte           N06   , Fn1
        .byte   W06
        .byte           N12
        .byte           N12   , Fn2
        .byte           N12   , Cn2
        .byte   W12
        .byte           N06   , Fn1
        .byte           N06   , Cn2
        .byte           N06   , Fn2
        .byte   W06
        .byte                   Fn2
        .byte           N06   , Cn2
        .byte           N06   , Fn1
        .byte   W06
        .byte           N24
        .byte           N24   , Cn2
        .byte           N24   , Fn2
        .byte   W24
@ 110   ----------------------------------------
        .byte           N12   , Gn1
        .byte           N12   , Gn2
        .byte           N12   , Dn2
        .byte   W12
        .byte           N06   , Gn1
        .byte           N06   , Gn2
        .byte           N06   , Dn2
        .byte   W06
        .byte                   Gn2
        .byte           N06   , Dn2
        .byte           N06   , Gn1
        .byte   W06
        .byte           N12   , Dn2
        .byte           N12   , Gn2
        .byte           N12   , Gn1
        .byte   W12
        .byte                   Gn1
        .byte           N12   , Gn2
        .byte           N12   , Dn2
        .byte   W12
        .byte           N06
        .byte           N06   , Gn2
        .byte           N06   , Gn1
        .byte   W06
        .byte                   Gn2
        .byte           N06   , Dn2
        .byte           N06   , Gn1
        .byte   W06
        .byte           N12
        .byte           N12   , Gn2
        .byte           N12   , Dn2
        .byte   W12
        .byte           N48   , Gn1
        .byte           N48   , Gn2
        .byte           N48   , Dn2
        .byte   W24
@ 111   ----------------------------------------
        .byte   W24
        .byte           N12   , Gn1
        .byte           N12   , Gn2
        .byte           N12   , Dn2
        .byte   W12
        .byte           N06   , Gn1
        .byte           N06   , Dn2
        .byte           N06   , Gn2
        .byte   W06
        .byte                   Dn2
        .byte           N06   , Gn2
        .byte           N06   , Gn1
        .byte   W06
        .byte           N12
        .byte           N12   , Gn2
        .byte           N12   , Dn2
        .byte   W12
        .byte           N06   , Gn1
        .byte           N06   , Gn2
        .byte           N06   , Dn2
        .byte   W06
        .byte                   Gn2
        .byte           N06   , Dn2
        .byte           N06   , Gn1
        .byte   W06
        .byte           N24
        .byte           N24   , Dn2
        .byte           N24   , Gn2
        .byte   W24
@ 112   ----------------------------------------
        .byte           N12   , Fn1
        .byte           N12   , Fn2
        .byte           N12   , Cn2
        .byte   W12
        .byte           N06
        .byte           N06   , Fn2
        .byte           N06   , Fn1
        .byte   W06
        .byte                   Fn1
        .byte           N06   , Fn2
        .byte           N06   , Cn2
        .byte   W06
        .byte           N12
        .byte           N12   , Fn2
        .byte           N12   , Fn1
        .byte   W12
        .byte                   Cn2
        .byte           N12   , Fn2
        .byte           N12   , Fn1
        .byte   W12
        .byte           N06
        .byte           N06   , Cn2
        .byte           N06   , Fn2
        .byte   W06
        .byte                   Fn1
        .byte           N06   , Fn2
        .byte           N06   , Cn2
        .byte   W06
        .byte           N12
        .byte           N12   , Fn2
        .byte           N12   , Fn1
        .byte   W12
        .byte           N48
        .byte           N48   , Fn2
        .byte           N48   , Cn2
        .byte   W24
@ 113   ----------------------------------------
        .byte   W24
        .byte           N12
        .byte           N12   , Fn2
        .byte           N12   , Fn1
        .byte   W12
        .byte           N06
        .byte           N06   , Fn2
        .byte           N06   , Cn2
        .byte   W06
        .byte                   Fn2
        .byte           N06   , Cn2
        .byte           N06   , Fn1
        .byte   W06
        .byte           N12
        .byte           N12   , Fn2
        .byte           N12   , Cn2
        .byte   W12
        .byte           N06   , Fn2
        .byte           N06   , Cn2
        .byte           N06   , Fn1
        .byte   W06
        .byte                   Fn2
        .byte           N06   , Cn2
        .byte           N06   , Fn1
        .byte   W06
        .byte           N24   , Cn2
        .byte           N24   , Fn2
        .byte           N24   , Fn1
        .byte   W24
@ 114   ----------------------------------------
        .byte           N12   , Gn1
        .byte           N12   , Gn2
        .byte           N12   , Dn2
        .byte   W12
        .byte           N06
        .byte           N06   , Gn2
        .byte           N06   , Gn1
        .byte   W06
        .byte                   Gn1
        .byte           N06   , Dn2
        .byte           N06   , Gn2
        .byte   W06
        .byte           N12   , Dn2
        .byte           N12   , Gn2
        .byte           N12   , Gn1
        .byte   W12
        .byte                   Dn2
        .byte           N12   , Gn2
        .byte           N12   , Gn1
        .byte   W12
        .byte           N06
        .byte           N06   , Dn2
        .byte           N06   , Gn2
        .byte   W06
        .byte                   Gn1
        .byte           N06   , Dn2
        .byte           N06   , Gn2
        .byte   W06
        .byte           N12   , Dn2
        .byte           N12   , Gn2
        .byte           N12   , Gn1
        .byte   W12
        .byte           N48   , Gn2
        .byte           N48   , Dn2
        .byte           N48   , Gn1
        .byte   W24
@ 115   ----------------------------------------
        .byte   W24
        .byte           N12
        .byte           N12   , Dn2
        .byte           N12   , Gn2
        .byte   W12
        .byte           N06   , Gn1
        .byte           N06   , Gn2
        .byte           N06   , Dn2
        .byte   W06
        .byte                   Gn2
        .byte           N06   , Dn2
        .byte           N06   , Gn1
        .byte   W06
        .byte           N12   , Gn2
        .byte           N12   , Dn2
        .byte           N12   , Gn1
        .byte   W12
        .byte           N06
        .byte           N06   , Gn2
        .byte           N06   , Dn2
        .byte   W06
        .byte                   Gn1
        .byte           N06   , Gn2
        .byte           N06   , Dn2
        .byte   W06
        .byte           N24
        .byte           N24   , Gn2
        .byte           N24   , Gn1
        .byte   W24
@ 116   ----------------------------------------
        .byte           N12
        .byte           N12   , Cn2
        .byte   W12
        .byte           N06   , An1
        .byte           N06   , En1
        .byte   W06
        .byte                   An1
        .byte           N06   , En1
        .byte   W06
        .byte           N12   , An1
        .byte           N12   , En1
        .byte   W12
        .byte                   Gn1
        .byte           N12   , Cn2
        .byte   W12
        .byte           N06   , An1
        .byte           N06   , En1
        .byte   W06
        .byte                   En1
        .byte           N06   , An1
        .byte   W06
        .byte           N12   , En1
        .byte           N12   , An1
        .byte   W12
        .byte                   Cn2
        .byte           N12   , Gn1
        .byte   W12
        .byte           N06   , En1
        .byte           N06   , An1
        .byte   W06
        .byte                   An1
        .byte           N06   , En1
        .byte   W06
@ 117   ----------------------------------------
mus_geese_test1_4_117:
        .byte           N12   , En1 , v100
        .byte           N12   , An1
        .byte   W12
        .byte                   Gn1
        .byte           N12   , Cn2
        .byte   W12
        .byte           N06   , En1
        .byte           N06   , An1
        .byte   W06
        .byte                   An1
        .byte           N06   , En1
        .byte   W06
        .byte           N12   , An1
        .byte           N12   , En1
        .byte   W12
        .byte                   Cn2
        .byte           N12   , Gn1
        .byte   W12
        .byte           N06   , An1
        .byte           N06   , En1
        .byte   W06
        .byte                   En1
        .byte           N06   , An1
        .byte   W06
        .byte           N24   , Cn2
        .byte           N24   , Gn1
        .byte   W24
        .byte   PEND
@ 118   ----------------------------------------
        .byte           N12   , Fn1
        .byte           N12   , Cn1
        .byte   W12
        .byte           N06   , An0
        .byte           N06   , Dn1
        .byte   W06
        .byte                   An0
        .byte           N06   , Dn1
        .byte   W06
        .byte           N12   , An0
        .byte           N12   , Dn1
        .byte   W12
        .byte                   Fn1
        .byte           N12   , Cn1
        .byte   W12
        .byte           N06   , Dn1
        .byte           N06   , An0
        .byte   W06
        .byte                   An0
        .byte           N06   , Dn1
        .byte   W06
        .byte           N12
        .byte           N12   , An0
        .byte   W12
        .byte                   Fn1
        .byte           N12   , Cn1
        .byte   W12
        .byte           N06   , An0
        .byte           N06   , Dn1
        .byte   W06
        .byte                   An0
        .byte           N06   , Dn1
        .byte   W06
@ 119   ----------------------------------------
        .byte           N12   , An0
        .byte           N12   , Dn1
        .byte   W12
        .byte                   Fn1
        .byte           N12   , Cn1
        .byte   W12
        .byte           N06   , Dn1
        .byte           N06   , An0
        .byte   W06
        .byte                   An0
        .byte           N06   , Dn1
        .byte   W06
        .byte           N12   , An0
        .byte           N12   , Dn1
        .byte   W12
        .byte                   Cn1
        .byte           N12   , Fn1
        .byte   W12
        .byte           N06   , Dn1
        .byte           N06   , An0
        .byte   W06
        .byte                   An0
        .byte           N06   , Dn1
        .byte   W06
        .byte           N24   , Fn1
        .byte           N24   , Cn1
        .byte   W24
@ 120   ----------------------------------------
        .byte           N12   , Cn2
        .byte           N12   , Gn1
        .byte   W12
        .byte           N06   , An1
        .byte           N06   , En1
        .byte   W06
        .byte                   An1
        .byte           N06   , En1
        .byte   W06
        .byte           N12   , An1
        .byte           N12   , En1
        .byte   W12
        .byte                   Gn1
        .byte           N12   , Cn2
        .byte   W12
        .byte           N06   , An1
        .byte           N06   , En1
        .byte   W06
        .byte                   En1
        .byte           N06   , An1
        .byte   W06
        .byte           N12   , En1
        .byte           N12   , An1
        .byte   W12
        .byte                   Cn2
        .byte           N12   , Gn1
        .byte   W12
        .byte           N06   , En1
        .byte           N06   , An1
        .byte   W06
        .byte                   An1
        .byte           N06   , En1
        .byte   W06
@ 121   ----------------------------------------
        .byte   PATT
         .word  mus_geese_test1_4_117
@ 122   ----------------------------------------
        .byte           N12   , Fn1 , v100
        .byte           N12   , Cn1
        .byte   W12
        .byte           N06   , An0
        .byte           N06   , Dn1
        .byte   W06
        .byte                   An0
        .byte           N06   , Dn1
        .byte   W06
        .byte           N12   , An0
        .byte           N12   , Dn1
        .byte   W12
        .byte                   Fn1
        .byte           N12   , Cn1
        .byte   W12
        .byte           N06   , An0
        .byte           N06   , Dn1
        .byte   W06
        .byte                   Dn1
        .byte           N06   , An0
        .byte   W06
        .byte           N12
        .byte           N12   , Dn1
        .byte   W12
        .byte                   Cn1
        .byte           N12   , Fn1
        .byte   W12
        .byte           N06   , Dn1
        .byte           N06   , An0
        .byte   W06
        .byte                   Dn1
        .byte           N06   , An0
        .byte   W06
@ 123   ----------------------------------------
        .byte           N12   , Dn1
        .byte           N12   , An0
        .byte   W12
        .byte                   Cn1
        .byte           N12   , Fn1
        .byte   W12
        .byte           N06   , Dn1
        .byte           N06   , An0
        .byte   W06
        .byte                   Dn1
        .byte           N06   , An0
        .byte   W06
        .byte           N12   , Dn1
        .byte           N12   , An0
        .byte   W12
        .byte                   Fn1
        .byte           N12   , Cn1
        .byte   W12
        .byte           N06   , Dn1
        .byte           N06   , An0
        .byte   W06
        .byte                   An0
        .byte           N06   , Dn1
        .byte   W06
        .byte           N24   , Cn1
        .byte           N24   , Fn1
        .byte   W24
@ 124   ----------------------------------------
        .byte           N12   , Gn1
        .byte           N12   , Dn1
        .byte   W12
        .byte           N06   , Bn0
        .byte           N06   , En1
        .byte   W06
        .byte                   En1
        .byte           N06   , Bn0
        .byte   W06
        .byte           N12   , En1
        .byte           N12   , Bn0
        .byte   W12
        .byte                   Dn1
        .byte           N12   , Gn1
        .byte   W12
        .byte           N06   , Bn0
        .byte           N06   , En1
        .byte   W06
        .byte                   Bn0
        .byte           N06   , En1
        .byte   W06
        .byte           N12   , Bn0
        .byte           N12   , En1
        .byte   W12
        .byte                   Gn1
        .byte           N12   , Dn1
        .byte   W12
        .byte           N06   , En1
        .byte           N06   , Bn0
        .byte   W06
        .byte                   Bn0
        .byte           N06   , En1
        .byte   W06
@ 125   ----------------------------------------
        .byte           N12
        .byte           N12   , Bn0
        .byte   W12
        .byte                   Dn1
        .byte           N12   , Gn1
        .byte   W12
        .byte           N06   , En1
        .byte           N06   , Bn0
        .byte   W06
        .byte                   En1
        .byte           N06   , Bn0
        .byte   W06
        .byte           N12   , En1
        .byte           N12   , Bn0
        .byte   W12
        .byte                   Gn1
        .byte           N12   , Dn1
        .byte   W12
        .byte           N06   , En1
        .byte           N06   , Bn0
        .byte   W06
        .byte                   En1
        .byte           N06   , Bn0
        .byte   W06
        .byte           N24   , Dn1
        .byte           N24   , Gn1
        .byte   W24
@ 126   ----------------------------------------
mus_geese_test1_4_126:
        .byte           N12   , Gn2 , v100
        .byte           N12   , Cn2
        .byte           N12   , Gn1
        .byte   W12
        .byte           N06   , Gn2
        .byte           N06   , Cn2
        .byte           N06   , Gn1
        .byte   W06
        .byte                   Cn2
        .byte           N06   , Gn2
        .byte           N06   , Gn1
        .byte   W06
        .byte           N12   , An1
        .byte           N12   , Dn2
        .byte           N12   , An2
        .byte   W12
        .byte           N24   , Gn2
        .byte           N24   , Cn2
        .byte           N24   , Gn1
        .byte   W24
        .byte           N12   , An2
        .byte           N12   , Dn2
        .byte           N12   , An1
        .byte   W12
        .byte           N24   , Gn1
        .byte           N24   , Cn2
        .byte           N24   , Gn2
        .byte   W24
        .byte   PEND
@ 127   ----------------------------------------
        .byte   PATT
         .word  mus_geese_test1_4_75
@ 128   ----------------------------------------
        .byte           N12   , Gn1 , v100
        .byte           N12   , Cn2
        .byte           N12   , Gn2
        .byte   W12
        .byte           N06   , Gn1
        .byte           N06   , Cn2
        .byte           N06   , Gn2
        .byte   W06
        .byte                   Cn2
        .byte           N06   , Gn2
        .byte           N06   , Gn1
        .byte   W06
        .byte           N12   , An1
        .byte           N12   , Dn2
        .byte           N12   , An2
        .byte   W12
        .byte           N24   , Gn1
        .byte           N24   , Cn2
        .byte           N24   , Gn2
        .byte   W24
        .byte           N12   , An1
        .byte           N12   , Dn2
        .byte           N12   , An2
        .byte   W12
        .byte           N24   , Gn1
        .byte           N24   , Cn2
        .byte           N24   , Gn2
        .byte   W24
@ 129   ----------------------------------------
        .byte           N12   , An1
        .byte           N12   , Dn2
        .byte           N12   , An2
        .byte   W12
        .byte           N24   , Gn1
        .byte           N24   , Cn2
        .byte           N24   , Gn2
        .byte   W24
        .byte           N12   , An1
        .byte           N12   , Dn2
        .byte           N12   , An2
        .byte   W12
        .byte           N24   , Ds1
        .byte           N24   , Ds2
        .byte           N24   , Gs1
        .byte   W24
        .byte                   Fn1
        .byte           N24   , As1
        .byte           N24   , Fn2
        .byte   W24
@ 130   ----------------------------------------
        .byte           N12   , Gn1
        .byte           N12   , Cn2
        .byte           N12   , Gn2
        .byte   W12
        .byte           N06
        .byte           N06   , Cn2
        .byte           N06   , Gn1
        .byte   W06
        .byte                   Gn1
        .byte           N06   , Gn2
        .byte           N06   , Cn2
        .byte   W06
        .byte           N12   , An1
        .byte           N12   , Dn2
        .byte           N12   , An2
        .byte   W12
        .byte           N24   , Gn2
        .byte           N24   , Cn2
        .byte           N24   , Gn1
        .byte   W24
        .byte           N12   , An2
        .byte           N12   , Dn2
        .byte           N12   , An1
        .byte   W12
        .byte           N24   , Gn1
        .byte           N24   , Cn2
        .byte           N24   , Gn2
        .byte   W24
@ 131   ----------------------------------------
        .byte           N12   , An1
        .byte           N12   , Dn2
        .byte           N12   , An2
        .byte   W12
        .byte           N24   , Gn2
        .byte           N24   , Cn2
        .byte           N24   , Gn1
        .byte   W24
        .byte           N12   , An1
        .byte           N12   , Dn2
        .byte           N12   , An2
        .byte   W12
        .byte           N24   , Ds1
        .byte           N24   , Ds2
        .byte           N24   , Gs1
        .byte   W24
        .byte                   Fn1
        .byte           N24   , As1
        .byte           N24   , Fn2
        .byte   W24
@ 132   ----------------------------------------
        .byte   PATT
         .word  mus_geese_test1_4_126
@ 133   ----------------------------------------
        .byte           N12   , An1 , v100
        .byte           N12   , Dn2
        .byte           N12   , An2
        .byte   W12
        .byte           N24   , Gn2
        .byte           N24   , Cn2
        .byte           N24   , Gn1
        .byte   W24
        .byte           N12   , An1
        .byte           N12   , Dn2
        .byte           N12   , An2
        .byte   W12
        .byte           N24   , Ds1
        .byte           N24   , Ds2
        .byte           N24   , Gs1
        .byte   W24
        .byte           N23   , Fn1
        .byte           N23   , As1
        .byte           N23   , Fn2
        .byte   W24
@ 134   ----------------------------------------
@        .byte   W96
@ 135   ----------------------------------------
        .byte   GOTO
        .word   mus_geese_test1_4_18
        .byte   FINE

@****************** Track 5 (Midi-Chn.6) ******************@

mus_geese_test1_5:
        .byte   KEYSH , mus_geese_test1_key+0
@ 000   ----------------------------------------
        .byte           VOICE , 32 @ Fretless Bass 1
        .byte           BENDR , 12
        .byte           VOL   , 120
        .byte   W96
@ 001   ----------------------------------------
        .byte   W96
@ 002   ----------------------------------------
        .byte           TIE   , Cn1 , v100
        .byte   W96
@ 003   ----------------------------------------
mus_geese_test1_5_3:
        .byte   W48
        .byte           EOT   , Cn1
        .byte           N24   , Gs0 , v100
        .byte   W24
        .byte                   As0
        .byte   W24
        .byte   PEND
@ 004   ----------------------------------------
        .byte           TIE   , Cn1
        .byte   W96
@ 005   ----------------------------------------
        .byte   PATT
         .word  mus_geese_test1_5_3
@ 006   ----------------------------------------
        .byte           TIE   , Cn1 , v100
        .byte   W96
@ 007   ----------------------------------------
        .byte   PATT
         .word  mus_geese_test1_5_3
@ 008   ----------------------------------------
        .byte           N12   , Cn1 , v100
        .byte   W12
        .byte                   Cn1
        .byte   W12
        .byte                   Cn1
        .byte   W12
        .byte                   Dn1
        .byte   W12
        .byte                   Dn1
        .byte   W12
        .byte                   Dn1
        .byte   W12
        .byte                   Ds1
        .byte   W12
        .byte                   Ds1
        .byte   W12
@ 009   ----------------------------------------
        .byte                   Ds1
        .byte   W12
        .byte                   Fn1
        .byte   W12
        .byte                   Fn1
        .byte   W12
        .byte                   Fn1
        .byte   W12
        .byte                   Gs0
        .byte   W12
        .byte                   Gs0
        .byte   W12
        .byte                   As0
        .byte   W12
        .byte                   As0
        .byte   W12
@ 010   ----------------------------------------
mus_geese_test1_5_10:
        .byte           VOL   , 120
        .byte           N06   , Cn1 , v100
        .byte   W12
        .byte                   Cn1
        .byte   W06
        .byte                   Cn1
        .byte   W06
        .byte                   Cn1
        .byte   W12
        .byte                   Cn1
        .byte   W06
        .byte                   Cn1
        .byte   W06
        .byte                   Cn1
        .byte   W12
        .byte                   Cn1
        .byte   W06
        .byte                   Cn1
        .byte   W06
        .byte                   Cn1
        .byte   W12
        .byte                   Cn1
        .byte   W06
        .byte                   Cn1
        .byte   W06
        .byte   PEND
@ 011   ----------------------------------------
mus_geese_test1_5_11:
        .byte           N06   , Cn1 , v100
        .byte   W12
        .byte                   Cn1
        .byte   W06
        .byte                   Cn1
        .byte   W06
        .byte                   Cn1
        .byte   W12
        .byte                   Cn1
        .byte   W06
        .byte                   Cn1
        .byte   W06
        .byte                   Gs0
        .byte   W12
        .byte                   Gs0
        .byte   W06
        .byte                   Gs0
        .byte   W06
        .byte                   As0
        .byte   W12
        .byte                   As0
        .byte   W06
        .byte                   As0
        .byte   W06
        .byte   PEND
@ 012   ----------------------------------------
        .byte   PATT
         .word  mus_geese_test1_5_10
@ 013   ----------------------------------------
mus_geese_test1_5_13:
        .byte           N06   , Cn1 , v100
        .byte   W12
        .byte                   Cn1
        .byte   W06
        .byte                   Cn1
        .byte   W06
        .byte                   Cn1
        .byte   W12
        .byte                   Cn1
        .byte   W06
        .byte                   Cn1
        .byte   W06
        .byte                   Ds1
        .byte   W12
        .byte                   Ds1
        .byte   W06
        .byte                   Ds1
        .byte   W06
        .byte                   Fn1
        .byte   W12
        .byte                   Fn1
        .byte   W06
        .byte                   Fn1
        .byte   W06
        .byte   PEND
@ 014   ----------------------------------------
        .byte   PATT
         .word  mus_geese_test1_5_10
@ 015   ----------------------------------------
        .byte   PATT
         .word  mus_geese_test1_5_11
@ 016   ----------------------------------------
        .byte   PATT
         .word  mus_geese_test1_5_10
@ 017   ----------------------------------------
        .byte   PATT
         .word  mus_geese_test1_5_13
@ 018   ----------------------------------------
mus_geese_test1_5_18:
        .byte   PATT
         .word  mus_geese_test1_5_10
@ 019   ----------------------------------------
        .byte   PATT
         .word  mus_geese_test1_5_11
@ 020   ----------------------------------------
        .byte   PATT
         .word  mus_geese_test1_5_10
@ 021   ----------------------------------------
        .byte   PATT
         .word  mus_geese_test1_5_13
@ 022   ----------------------------------------
        .byte   PATT
         .word  mus_geese_test1_5_10
@ 023   ----------------------------------------
        .byte   PATT
         .word  mus_geese_test1_5_11
@ 024   ----------------------------------------
        .byte   PATT
         .word  mus_geese_test1_5_10
@ 025   ----------------------------------------
        .byte   PATT
         .word  mus_geese_test1_5_13
@ 026   ----------------------------------------
        .byte   PATT
         .word  mus_geese_test1_5_10
@ 027   ----------------------------------------
        .byte   PATT
         .word  mus_geese_test1_5_11
@ 028   ----------------------------------------
        .byte   PATT
         .word  mus_geese_test1_5_10
@ 029   ----------------------------------------
        .byte   PATT
         .word  mus_geese_test1_5_13
@ 030   ----------------------------------------
        .byte   PATT
         .word  mus_geese_test1_5_10
@ 031   ----------------------------------------
        .byte   PATT
         .word  mus_geese_test1_5_11
@ 032   ----------------------------------------
        .byte   PATT
         .word  mus_geese_test1_5_10
@ 033   ----------------------------------------
        .byte   PATT
         .word  mus_geese_test1_5_13
@ 034   ----------------------------------------
        .byte   PATT
         .word  mus_geese_test1_5_10
@ 035   ----------------------------------------
        .byte   PATT
         .word  mus_geese_test1_5_11
@ 036   ----------------------------------------
        .byte   PATT
         .word  mus_geese_test1_5_10
@ 037   ----------------------------------------
        .byte   PATT
         .word  mus_geese_test1_5_13
@ 038   ----------------------------------------
        .byte   PATT
         .word  mus_geese_test1_5_10
@ 039   ----------------------------------------
        .byte   PATT
         .word  mus_geese_test1_5_11
@ 040   ----------------------------------------
        .byte   PATT
         .word  mus_geese_test1_5_10
@ 041   ----------------------------------------
        .byte   PATT
         .word  mus_geese_test1_5_13
@ 042   ----------------------------------------
mus_geese_test1_5_42:
        .byte           N06   , Fn1 , v100
        .byte   W12
        .byte                   Fn1
        .byte   W06
        .byte                   Fn1
        .byte   W06
        .byte                   Fn1
        .byte   W12
        .byte                   Fn1
        .byte   W06
        .byte                   Fn1
        .byte   W06
        .byte                   Fn1
        .byte   W12
        .byte                   Fn1
        .byte   W06
        .byte                   Fn1
        .byte   W06
        .byte                   Fn1
        .byte   W12
        .byte                   Fn1
        .byte   W06
        .byte                   Fn1
        .byte   W06
        .byte   PEND
@ 043   ----------------------------------------
        .byte   PATT
         .word  mus_geese_test1_5_42
@ 044   ----------------------------------------
mus_geese_test1_5_44:
        .byte           N06   , Gn1 , v100
        .byte   W12
        .byte                   Gn1
        .byte   W06
        .byte                   Gn1
        .byte   W06
        .byte                   Gn1
        .byte   W12
        .byte                   Gn1
        .byte   W06
        .byte                   Gn1
        .byte   W06
        .byte                   Gn1
        .byte   W12
        .byte                   Gn1
        .byte   W06
        .byte                   Gn1
        .byte   W06
        .byte                   Gn1
        .byte   W12
        .byte                   Gn1
        .byte   W06
        .byte                   Gn1
        .byte   W06
        .byte   PEND
@ 045   ----------------------------------------
        .byte   PATT
         .word  mus_geese_test1_5_44
@ 046   ----------------------------------------
mus_geese_test1_5_46:
        .byte           N06   , Gs1 , v100
        .byte   W12
        .byte                   Gs1
        .byte   W06
        .byte                   Gs1
        .byte   W06
        .byte                   Gs1
        .byte   W12
        .byte                   Gs1
        .byte   W06
        .byte                   Gs1
        .byte   W06
        .byte                   Gs1
        .byte   W12
        .byte                   Gs1
        .byte   W06
        .byte                   Gs1
        .byte   W06
        .byte                   Gs1
        .byte   W12
        .byte                   Gs1
        .byte   W06
        .byte                   Gs1
        .byte   W06
        .byte   PEND
@ 047   ----------------------------------------
mus_geese_test1_5_47:
        .byte           N06   , Ds1 , v100
        .byte   W12
        .byte                   Ds1
        .byte   W06
        .byte                   Ds1
        .byte   W06
        .byte                   Ds1
        .byte   W12
        .byte                   Ds1
        .byte   W06
        .byte                   Ds1
        .byte   W06
        .byte                   Ds1
        .byte   W12
        .byte                   Ds1
        .byte   W06
        .byte                   Ds1
        .byte   W06
        .byte                   Ds1
        .byte   W12
        .byte                   Ds1
        .byte   W06
        .byte                   Ds1
        .byte   W06
        .byte   PEND
@ 048   ----------------------------------------
        .byte   PATT
         .word  mus_geese_test1_5_10
@ 049   ----------------------------------------
        .byte   PATT
         .word  mus_geese_test1_5_10
@ 050   ----------------------------------------
        .byte   PATT
         .word  mus_geese_test1_5_42
@ 051   ----------------------------------------
        .byte   PATT
         .word  mus_geese_test1_5_42
@ 052   ----------------------------------------
        .byte   PATT
         .word  mus_geese_test1_5_44
@ 053   ----------------------------------------
        .byte   PATT
         .word  mus_geese_test1_5_44
@ 054   ----------------------------------------
        .byte   PATT
         .word  mus_geese_test1_5_42
@ 055   ----------------------------------------
        .byte   PATT
         .word  mus_geese_test1_5_42
@ 056   ----------------------------------------
        .byte   PATT
         .word  mus_geese_test1_5_44
@ 057   ----------------------------------------
        .byte   PATT
         .word  mus_geese_test1_5_44
@ 058   ----------------------------------------
        .byte   PATT
         .word  mus_geese_test1_5_10
@ 059   ----------------------------------------
        .byte   PATT
         .word  mus_geese_test1_5_10
@ 060   ----------------------------------------
mus_geese_test1_5_60:
        .byte           N06   , Fn0 , v100
        .byte   W12
        .byte                   Fn0
        .byte   W06
        .byte                   Fn0
        .byte   W06
        .byte                   Fn0
        .byte   W12
        .byte                   Fn0
        .byte   W06
        .byte                   Fn0
        .byte   W06
        .byte                   Fn0
        .byte   W12
        .byte                   Fn0
        .byte   W06
        .byte                   Fn0
        .byte   W06
        .byte                   Fn0
        .byte   W12
        .byte                   Fn0
        .byte   W06
        .byte                   Fn0
        .byte   W06
        .byte   PEND
@ 061   ----------------------------------------
        .byte   PATT
         .word  mus_geese_test1_5_60
@ 062   ----------------------------------------
        .byte   PATT
         .word  mus_geese_test1_5_10
@ 063   ----------------------------------------
        .byte   PATT
         .word  mus_geese_test1_5_10
@ 064   ----------------------------------------
        .byte   PATT
         .word  mus_geese_test1_5_60
@ 065   ----------------------------------------
        .byte   PATT
         .word  mus_geese_test1_5_60
@ 066   ----------------------------------------
mus_geese_test1_5_66:
        .byte           N06   , Gn0 , v100
        .byte   W12
        .byte                   Gn0
        .byte   W06
        .byte                   Gn0
        .byte   W06
        .byte                   Gn0
        .byte   W12
        .byte                   Gn0
        .byte   W06
        .byte                   Gn0
        .byte   W06
        .byte                   Gn0
        .byte   W12
        .byte                   Gn0
        .byte   W06
        .byte                   Gn0
        .byte   W06
        .byte                   Gn0
        .byte   W12
        .byte                   Gn0
        .byte   W06
        .byte                   Gn0
        .byte   W06
        .byte   PEND
@ 067   ----------------------------------------
        .byte   PATT
         .word  mus_geese_test1_5_66
@ 068   ----------------------------------------
        .byte   PATT
         .word  mus_geese_test1_5_10
@ 069   ----------------------------------------
        .byte   PATT
         .word  mus_geese_test1_5_11
@ 070   ----------------------------------------
        .byte   PATT
         .word  mus_geese_test1_5_10
@ 071   ----------------------------------------
        .byte   PATT
         .word  mus_geese_test1_5_13
@ 072   ----------------------------------------
        .byte   PATT
         .word  mus_geese_test1_5_10
@ 073   ----------------------------------------
        .byte   PATT
         .word  mus_geese_test1_5_11
@ 074   ----------------------------------------
        .byte   PATT
         .word  mus_geese_test1_5_10
@ 075   ----------------------------------------
        .byte   PATT
         .word  mus_geese_test1_5_13
@ 076   ----------------------------------------
        .byte   PATT
         .word  mus_geese_test1_5_10
@ 077   ----------------------------------------
        .byte   PATT
         .word  mus_geese_test1_5_11
@ 078   ----------------------------------------
        .byte   PATT
         .word  mus_geese_test1_5_10
@ 079   ----------------------------------------
        .byte   PATT
         .word  mus_geese_test1_5_13
@ 080   ----------------------------------------
        .byte   PATT
         .word  mus_geese_test1_5_10
@ 081   ----------------------------------------
        .byte   PATT
         .word  mus_geese_test1_5_11
@ 082   ----------------------------------------
        .byte   PATT
         .word  mus_geese_test1_5_10
@ 083   ----------------------------------------
        .byte   PATT
         .word  mus_geese_test1_5_13
@ 084   ----------------------------------------
        .byte   PATT
         .word  mus_geese_test1_5_10
@ 085   ----------------------------------------
        .byte   PATT
         .word  mus_geese_test1_5_11
@ 086   ----------------------------------------
        .byte   PATT
         .word  mus_geese_test1_5_10
@ 087   ----------------------------------------
        .byte   PATT
         .word  mus_geese_test1_5_13
@ 088   ----------------------------------------
        .byte   PATT
         .word  mus_geese_test1_5_10
@ 089   ----------------------------------------
        .byte   PATT
         .word  mus_geese_test1_5_11
@ 090   ----------------------------------------
        .byte   PATT
         .word  mus_geese_test1_5_10
@ 091   ----------------------------------------
        .byte   PATT
         .word  mus_geese_test1_5_13
@ 092   ----------------------------------------
        .byte   PATT
         .word  mus_geese_test1_5_10
@ 093   ----------------------------------------
        .byte   PATT
         .word  mus_geese_test1_5_11
@ 094   ----------------------------------------
        .byte   PATT
         .word  mus_geese_test1_5_10
@ 095   ----------------------------------------
        .byte   PATT
         .word  mus_geese_test1_5_13
@ 096   ----------------------------------------
        .byte   PATT
         .word  mus_geese_test1_5_10
@ 097   ----------------------------------------
        .byte   PATT
         .word  mus_geese_test1_5_11
@ 098   ----------------------------------------
        .byte   PATT
         .word  mus_geese_test1_5_10
@ 099   ----------------------------------------
        .byte   PATT
         .word  mus_geese_test1_5_13
@ 100   ----------------------------------------
        .byte   PATT
         .word  mus_geese_test1_5_42
@ 101   ----------------------------------------
        .byte   PATT
         .word  mus_geese_test1_5_42
@ 102   ----------------------------------------
        .byte   PATT
         .word  mus_geese_test1_5_44
@ 103   ----------------------------------------
        .byte   PATT
         .word  mus_geese_test1_5_44
@ 104   ----------------------------------------
        .byte   PATT
         .word  mus_geese_test1_5_46
@ 105   ----------------------------------------
        .byte   PATT
         .word  mus_geese_test1_5_47
@ 106   ----------------------------------------
        .byte   PATT
         .word  mus_geese_test1_5_10
@ 107   ----------------------------------------
        .byte   PATT
         .word  mus_geese_test1_5_10
@ 108   ----------------------------------------
        .byte   PATT
         .word  mus_geese_test1_5_42
@ 109   ----------------------------------------
        .byte   PATT
         .word  mus_geese_test1_5_42
@ 110   ----------------------------------------
        .byte   PATT
         .word  mus_geese_test1_5_44
@ 111   ----------------------------------------
        .byte   PATT
         .word  mus_geese_test1_5_44
@ 112   ----------------------------------------
        .byte   PATT
         .word  mus_geese_test1_5_42
@ 113   ----------------------------------------
        .byte   PATT
         .word  mus_geese_test1_5_42
@ 114   ----------------------------------------
        .byte   PATT
         .word  mus_geese_test1_5_44
@ 115   ----------------------------------------
        .byte   PATT
         .word  mus_geese_test1_5_44
@ 116   ----------------------------------------
        .byte   PATT
         .word  mus_geese_test1_5_10
@ 117   ----------------------------------------
        .byte   PATT
         .word  mus_geese_test1_5_10
@ 118   ----------------------------------------
        .byte   PATT
         .word  mus_geese_test1_5_60
@ 119   ----------------------------------------
        .byte   PATT
         .word  mus_geese_test1_5_60
@ 120   ----------------------------------------
        .byte   PATT
         .word  mus_geese_test1_5_10
@ 121   ----------------------------------------
        .byte   PATT
         .word  mus_geese_test1_5_10
@ 122   ----------------------------------------
        .byte   PATT
         .word  mus_geese_test1_5_60
@ 123   ----------------------------------------
        .byte   PATT
         .word  mus_geese_test1_5_60
@ 124   ----------------------------------------
        .byte   PATT
         .word  mus_geese_test1_5_66
@ 125   ----------------------------------------
        .byte   PATT
         .word  mus_geese_test1_5_66
@ 126   ----------------------------------------
        .byte   PATT
         .word  mus_geese_test1_5_10
@ 127   ----------------------------------------
        .byte   PATT
         .word  mus_geese_test1_5_11
@ 128   ----------------------------------------
        .byte   PATT
         .word  mus_geese_test1_5_10
@ 129   ----------------------------------------
        .byte   PATT
         .word  mus_geese_test1_5_13
@ 130   ----------------------------------------
        .byte   PATT
         .word  mus_geese_test1_5_10
@ 131   ----------------------------------------
        .byte   PATT
         .word  mus_geese_test1_5_11
@ 132   ----------------------------------------
        .byte   PATT
         .word  mus_geese_test1_5_10
@ 133   ----------------------------------------
        .byte           N06   , Cn1 , v100
        .byte   W12
        .byte                   Cn1
        .byte   W06
        .byte                   Cn1
        .byte   W06
        .byte                   Cn1
        .byte   W12
        .byte                   Cn1
        .byte   W06
        .byte                   Cn1
        .byte   W06
        .byte                   Ds1
        .byte   W12
        .byte                   Ds1
        .byte   W06
        .byte                   Ds1
        .byte   W06
        .byte                   Fn1
        .byte   W12
        .byte                   Fn1
        .byte   W06
        .byte           N05
        .byte   W06
@ 134   ----------------------------------------
@        .byte   W96
@ 135   ----------------------------------------
        .byte   GOTO
        .word   mus_geese_test1_5_18
        .byte   FINE

@****************** Track 6 (Midi-Chn.7) ******************@

mus_geese_test1_6:
        .byte   KEYSH , mus_geese_test1_key+0
@ 000   ----------------------------------------
        .byte           VOICE , 97 @ Sampled Square 2
        .byte           BENDR , 12
        .byte           VOL   , 90
        .byte   W96
@ 001   ----------------------------------------
        .byte   W96
@ 002   ----------------------------------------
        .byte   W96
@ 003   ----------------------------------------
        .byte   W96
@ 004   ----------------------------------------
        .byte   W96
@ 005   ----------------------------------------
        .byte   W96
@ 006   ----------------------------------------
        .byte   W96
@ 007   ----------------------------------------
        .byte   W96
@ 008   ----------------------------------------
        .byte   W96
@ 009   ----------------------------------------
        .byte   W96
@ 010   ----------------------------------------
mus_geese_test1_6_10:
        .byte           VOICE , 97 @ Sampled Square 2
        .byte           BENDR , 12
        .byte           VOL   , 90
        .byte           N12   , Gn2 , v100
        .byte           N12   , Cn3
        .byte           N12   , Gn3
        .byte   W36
        .byte                   Gn2
        .byte           N12   , Cn3
        .byte           N12   , Gn3
        .byte   W36
        .byte                   Cn3
        .byte           N12   , Gn2
        .byte           N12   , Gn3
        .byte   W24
        .byte   PEND
@ 011   ----------------------------------------
mus_geese_test1_6_11:
        .byte   W12
        .byte           N12   , Cn3 , v100
        .byte           N12   , Gn2
        .byte           N12   , Gn3
        .byte   W36
        .byte                   As2
        .byte           N12   , Fn2
        .byte           N12   , Fn3
        .byte   W24
        .byte                   As2
        .byte           N12   , Fn2
        .byte           N12   , Fn3
        .byte   W24
        .byte   PEND
@ 012   ----------------------------------------
        .byte   PATT
         .word  mus_geese_test1_6_10
@ 013   ----------------------------------------
        .byte   W12
        .byte           N12   , Gn2 , v100
        .byte           N12   , Cn3
        .byte           N12   , Gn3
        .byte   W36
        .byte                   Ds3
        .byte           N12   , As2
        .byte           N12   , As3
        .byte   W24
        .byte                   Fn3
        .byte           N12   , Cn3
        .byte           N12   , Cn4
        .byte   W24
@ 014   ----------------------------------------
        .byte   PATT
         .word  mus_geese_test1_6_10
@ 015   ----------------------------------------
        .byte   PATT
         .word  mus_geese_test1_6_11
@ 016   ----------------------------------------
        .byte   PATT
         .word  mus_geese_test1_6_10
@ 017   ----------------------------------------
mus_geese_test1_6_17:
        .byte   W12
        .byte           N12   , Cn3 , v100
        .byte           N12   , Gn2
        .byte           N12   , Gn3
        .byte   W36
        .byte                   Ds3
        .byte           N12   , As2
        .byte           N12   , As3
        .byte   W24
        .byte                   Fn3
        .byte           N12   , Cn3
        .byte           N12   , Cn4
        .byte   W24
        .byte   PEND
@ 018   ----------------------------------------
mus_geese_test1_6_18:
        .byte           VOICE , 97 @ Sampled Square 2
        .byte           BENDR , 12
        .byte           VOL   , 90
        .byte   W96
@ 019   ----------------------------------------
        .byte   W96
@ 020   ----------------------------------------
        .byte   W96
@ 021   ----------------------------------------
        .byte   W96
@ 022   ----------------------------------------
        .byte   W96
@ 023   ----------------------------------------
        .byte   W96
@ 024   ----------------------------------------
        .byte   W96
@ 025   ----------------------------------------
        .byte   W96
@ 026   ----------------------------------------
mus_geese_test1_6_26:
        .byte           N12   , Gn3 , v100
        .byte           N12   , Cn3
        .byte           N12   , Gn2
        .byte   W36
        .byte                   Gn3
        .byte           N12   , Cn3
        .byte           N12   , Gn2
        .byte   W36
        .byte                   Gn3
        .byte           N12   , Gn2
        .byte           N12   , Cn3
        .byte   W24
        .byte   PEND
@ 027   ----------------------------------------
        .byte   W12
        .byte                   Gn3
        .byte           N12   , Gn2
        .byte           N12   , Cn3
        .byte   W36
        .byte                   Fn3
        .byte           N12   , Fn2
        .byte           N12   , As2
        .byte   W24
        .byte                   Fn3
        .byte           N12   , Fn2
        .byte           N12   , As2
        .byte   W24
@ 028   ----------------------------------------
        .byte   PATT
         .word  mus_geese_test1_6_26
@ 029   ----------------------------------------
        .byte   W12
        .byte           N12   , Gn3 , v100
        .byte           N12   , Cn3
        .byte           N12   , Gn2
        .byte   W36
        .byte                   As3
        .byte           N12   , As2
        .byte           N12   , Ds3
        .byte   W24
        .byte                   Fn3
        .byte           N12   , Cn3
        .byte           N12   , Cn4
        .byte   W24
@ 030   ----------------------------------------
mus_geese_test1_6_30:
        .byte           N12   , Gn3 , v100
        .byte           N12   , Cn3
        .byte           N12   , Gn2
        .byte   W36
        .byte                   Gn3
        .byte           N12   , Cn3
        .byte           N12   , Gn2
        .byte   W36
        .byte                   Cn3
        .byte           N12   , Gn2
        .byte           N12   , Gn3
        .byte   W24
        .byte   PEND
@ 031   ----------------------------------------
        .byte   W12
        .byte                   Cn3
        .byte           N12   , Gn2
        .byte           N12   , Gn3
        .byte   W36
        .byte                   As2
        .byte           N12   , Fn2
        .byte           N12   , Fn3
        .byte   W24
        .byte                   Fn3
        .byte           N12   , Fn2
        .byte           N12   , As2
        .byte   W24
@ 032   ----------------------------------------
        .byte   PATT
         .word  mus_geese_test1_6_30
@ 033   ----------------------------------------
        .byte   W12
        .byte           N12   , Gn3 , v100
        .byte           N12   , Gn2
        .byte           N12   , Cn3
        .byte   W36
        .byte                   As3
        .byte           N12   , As2
        .byte           N12   , Ds3
        .byte   W24
        .byte                   Cn4
        .byte           N12   , Cn3
        .byte           N12   , Fn3
        .byte   W24
@ 034   ----------------------------------------
        .byte   W96
@ 035   ----------------------------------------
        .byte   W96
@ 036   ----------------------------------------
        .byte   W96
@ 037   ----------------------------------------
        .byte   W96
@ 038   ----------------------------------------
        .byte   W96
@ 039   ----------------------------------------
        .byte   W96
@ 040   ----------------------------------------
        .byte   W96
@ 041   ----------------------------------------
        .byte   W96
@ 042   ----------------------------------------
        .byte   W96
@ 043   ----------------------------------------
        .byte   W96
@ 044   ----------------------------------------
        .byte   W96
@ 045   ----------------------------------------
        .byte   W96
@ 046   ----------------------------------------
        .byte   W96
@ 047   ----------------------------------------
        .byte   W96
@ 048   ----------------------------------------
        .byte   W96
@ 049   ----------------------------------------
        .byte   W96
@ 050   ----------------------------------------
        .byte   W96
@ 051   ----------------------------------------
        .byte   W96
@ 052   ----------------------------------------
        .byte   W96
@ 053   ----------------------------------------
        .byte   W96
@ 054   ----------------------------------------
        .byte   W96
@ 055   ----------------------------------------
        .byte   W96
@ 056   ----------------------------------------
        .byte   W96
@ 057   ----------------------------------------
        .byte   W96
@ 058   ----------------------------------------
mus_geese_test1_6_58:
        .byte           VOICE , 73 @ Flute
        .byte           BENDR , 12
        .byte           VOL   , 100
        .byte           N15   , Cn4 , v100
        .byte   W15
        .byte                   Ds4
        .byte   W16
        .byte                   Gn4
        .byte   W15
        .byte           N16   , An4
        .byte   W16
        .byte           N15   , As4
        .byte   W15
        .byte           N19   , Cn5
        .byte   W19
        .byte   PEND
@ 059   ----------------------------------------
        .byte           N96   , An4
        .byte   W96
@ 060   ----------------------------------------
mus_geese_test1_6_60:
        .byte           N15   , Gs4 , v100
        .byte   W15
        .byte           N16   , Ds4
        .byte   W16
        .byte                   Dn4
        .byte   W17
        .byte                   Cn4
        .byte   W16
        .byte                   Dn4
        .byte   W16
        .byte           N56   , Gn4 , v100 , gtp2
        .byte   W16
        .byte   PEND
@ 061   ----------------------------------------
mus_geese_test1_6_61:
        .byte   W42
        .byte           N54   , Fn4 , v100
        .byte   W54
        .byte   PEND
@ 062   ----------------------------------------
        .byte   PATT
         .word  mus_geese_test1_6_58
@ 063   ----------------------------------------
        .byte           N96   , An4 , v100
        .byte   W96
@ 064   ----------------------------------------
mus_geese_test1_6_64:
        .byte           N16   , Gs4 , v100
        .byte   W16
        .byte                   Gn4
        .byte   W16
        .byte                   As4
        .byte   W16
        .byte                   Gs4
        .byte   W16
        .byte                   Dn5
        .byte   W16
        .byte           TIE   , Ds5
        .byte   W16
        .byte   PEND
@ 065   ----------------------------------------
        .byte   W92
        .byte   W03
        .byte           EOT
        .byte   W01
@ 066   ----------------------------------------
mus_geese_test1_6_66:
        .byte           N24   , Dn5 , v100
        .byte   W24
        .byte           N12   , Gn4
        .byte   W12
        .byte           N24   , Ds5
        .byte   W24
        .byte           N12   , Gn4
        .byte   W12
        .byte           N24   , Fn5
        .byte   W24
        .byte   PEND
@ 067   ----------------------------------------
mus_geese_test1_6_67:
        .byte           N12   , Gn5 , v100
        .byte   W12
        .byte           N24   , Ds5
        .byte   W24
        .byte           N12   , Dn5
        .byte   W12
        .byte           N18   , Cn5
        .byte   W18
        .byte                   Bn4
        .byte   W18
        .byte           N12   , Dn5
        .byte   W12
        .byte   PEND
@ 068   ----------------------------------------
mus_geese_test1_6_68:
        .byte           N06   , Ds5 , v100
        .byte   W06
        .byte                   Dn5
        .byte   W06
        .byte           TIE   , Ds5
        .byte   W84
        .byte   PEND
@ 069   ----------------------------------------
        .byte   W96
@ 070   ----------------------------------------
        .byte           EOT
        .byte   W96
@ 071   ----------------------------------------
        .byte   W96
@ 072   ----------------------------------------
        .byte           VOICE , 97 @ Sampled Square 2
        .byte           BENDR , 12
        .byte           VOL   , 90
        .byte   W84
        .byte           N12   , Cn4
        .byte           N12   , Cn3
        .byte           N12   , Ds2
        .byte   W12
@ 073   ----------------------------------------
        .byte                   Gn3
        .byte           N12   , As1
        .byte           N12   , Gn2
        .byte   W48
        .byte                   Gn2
        .byte           N12   , As1
        .byte           N12   , Gn3
        .byte   W48
@ 074   ----------------------------------------
        .byte                   As3
        .byte           N12   , Cs2
        .byte           N12   , As2
        .byte   W48
        .byte                   As3
        .byte           N12   , Cs2
        .byte           N12   , As2
        .byte   W48
@ 075   ----------------------------------------
        .byte                   Gn3
        .byte           N12   , As1
        .byte           N12   , Gn2
        .byte   W24
        .byte                   Gs2
        .byte           N12   , Bn1
        .byte           N12   , Gs3
        .byte   W24
        .byte                   An2
        .byte           N12   , Cn2
        .byte           N12   , An3
        .byte   W24
        .byte                   As2
        .byte           N12   , Cs2
        .byte           N12   , As3
        .byte   W24
@ 076   ----------------------------------------
        .byte   W96
@ 077   ----------------------------------------
        .byte   W96
@ 078   ----------------------------------------
        .byte   W96
@ 079   ----------------------------------------
        .byte   W96
@ 080   ----------------------------------------
        .byte   W96
@ 081   ----------------------------------------
        .byte   W96
@ 082   ----------------------------------------
        .byte   W96
@ 083   ----------------------------------------
        .byte   W96
@ 084   ----------------------------------------
        .byte   PATT
         .word  mus_geese_test1_6_10
@ 085   ----------------------------------------
        .byte   PATT
         .word  mus_geese_test1_6_11
@ 086   ----------------------------------------
        .byte   PATT
         .word  mus_geese_test1_6_10
@ 087   ----------------------------------------
        .byte   W12
        .byte           N12   , Gn2 , v100
        .byte           N12   , Cn3
        .byte           N12   , Gn3
        .byte   W36
        .byte                   Ds3
        .byte           N12   , As2
        .byte           N12   , As3
        .byte   W24
        .byte                   Cn4
        .byte           N12   , Cn3
        .byte           N12   , Fn3
        .byte   W24
@ 088   ----------------------------------------
        .byte                   Gn2
        .byte           N12   , Cn3
        .byte           N12   , Gn3
        .byte   W36
        .byte                   Gn2
        .byte           N12   , Cn3
        .byte           N12   , Gn3
        .byte   W36
        .byte                   Gn3
        .byte           N12   , Gn2
        .byte           N12   , Cn3
        .byte   W24
@ 089   ----------------------------------------
        .byte   W12
        .byte                   Gn3
        .byte           N12   , Gn2
        .byte           N12   , Cn3
        .byte   W36
        .byte                   Fn3
        .byte           N12   , Fn2
        .byte           N12   , As2
        .byte   W24
        .byte                   As2
        .byte           N12   , Fn2
        .byte           N12   , Fn3
        .byte   W24
@ 090   ----------------------------------------
        .byte   PATT
         .word  mus_geese_test1_6_30
@ 091   ----------------------------------------
        .byte   PATT
         .word  mus_geese_test1_6_17
@ 092   ----------------------------------------
        .byte   W96
@ 093   ----------------------------------------
        .byte   W96
@ 094   ----------------------------------------
        .byte   W96
@ 095   ----------------------------------------
        .byte   W96
@ 096   ----------------------------------------
        .byte   W96
@ 097   ----------------------------------------
        .byte   W96
@ 098   ----------------------------------------
        .byte   W96
@ 099   ----------------------------------------
        .byte   W96
@ 100   ----------------------------------------
        .byte   W96
@ 101   ----------------------------------------
        .byte   W96
@ 102   ----------------------------------------
        .byte   W96
@ 103   ----------------------------------------
        .byte   W96
@ 104   ----------------------------------------
        .byte   W96
@ 105   ----------------------------------------
        .byte   W96
@ 106   ----------------------------------------
        .byte   W96
@ 107   ----------------------------------------
        .byte   W96
@ 108   ----------------------------------------
        .byte   W96
@ 109   ----------------------------------------
        .byte   W96
@ 110   ----------------------------------------
        .byte   W96
@ 111   ----------------------------------------
        .byte   W96
@ 112   ----------------------------------------
        .byte   W96
@ 113   ----------------------------------------
        .byte   W96
@ 114   ----------------------------------------
        .byte   W96
@ 115   ----------------------------------------
        .byte   W96
@ 116   ----------------------------------------
        .byte   PATT
         .word  mus_geese_test1_6_58
@ 117   ----------------------------------------
        .byte           N96   , An4 , v100
        .byte   W96
@ 118   ----------------------------------------
        .byte   PATT
         .word  mus_geese_test1_6_60
@ 119   ----------------------------------------
        .byte   PATT
         .word  mus_geese_test1_6_61
@ 120   ----------------------------------------
        .byte   PATT
         .word  mus_geese_test1_6_58
@ 121   ----------------------------------------
        .byte           N96   , An4 , v100
        .byte   W96
@ 122   ----------------------------------------
        .byte   PATT
         .word  mus_geese_test1_6_64
@ 123   ----------------------------------------
        .byte   W92
        .byte   W03
        .byte           EOT   , Ds5
        .byte   W01
@ 124   ----------------------------------------
        .byte   PATT
         .word  mus_geese_test1_6_66
@ 125   ----------------------------------------
        .byte   PATT
         .word  mus_geese_test1_6_67
@ 126   ----------------------------------------
        .byte   PATT
         .word  mus_geese_test1_6_68
@ 127   ----------------------------------------
        .byte   W96
@ 128   ----------------------------------------
        .byte           EOT   , Ds5
        .byte   W96
@ 129   ----------------------------------------
        .byte   W96
@ 130   ----------------------------------------
        .byte           VOICE , 97 @ Sampled Square 2
        .byte           BENDR , 12
        .byte           VOL   , 90
        .byte   W84
        .byte           N12   , Ds2 , v100
        .byte           N12   , Cn3
        .byte           N12   , Cn4
        .byte   W12
@ 131   ----------------------------------------
        .byte                   Gn2
        .byte           N12   , As1
        .byte           N12   , Gn3
        .byte   W48
        .byte                   Gn3
        .byte           N12   , As1
        .byte           N12   , Gn2
        .byte   W48
@ 132   ----------------------------------------
        .byte                   As2
        .byte           N12   , Cs2
        .byte           N12   , As3
        .byte   W48
        .byte                   As2
        .byte           N12   , Cs2
        .byte           N12   , As3
        .byte   W48
@ 133   ----------------------------------------
        .byte                   Gn2
        .byte           N12   , As1
        .byte           N12   , Gn3
        .byte   W24
        .byte                   Gs3
        .byte           N12   , Bn1
        .byte           N12   , Gs2
        .byte   W24
        .byte                   An3
        .byte           N12   , Cn2
        .byte           N12   , An2
        .byte   W24
        .byte                   As3
        .byte           N12   , Cs2
        .byte           N12   , As2
        .byte   W24
@ 134   ----------------------------------------
@        .byte   W96
@ 135   ----------------------------------------
        .byte   GOTO
        .word   mus_geese_test1_6_18
        .byte   FINE

@****************** Track 7 (Midi-Chn.8) ******************@

mus_geese_test1_7:
        .byte   KEYSH , mus_geese_test1_key+0
@ 000   ----------------------------------------
        .byte           VOICE , 97 @ Sampled Square 2
        .byte           BENDR , 12
        .byte           VOL   , 45
        .byte   W96
@ 001   ----------------------------------------
        .byte   W96
@ 002   ----------------------------------------
        .byte   W96
@ 003   ----------------------------------------
        .byte   W96
@ 004   ----------------------------------------
        .byte   W96
@ 005   ----------------------------------------
        .byte   W96
@ 006   ----------------------------------------
        .byte   W96
@ 007   ----------------------------------------
        .byte   W96
@ 008   ----------------------------------------
        .byte   W96
@ 009   ----------------------------------------
        .byte   W96
@ 010   ----------------------------------------
mus_geese_test1_7_10:
        .byte           VOICE , 97 @ Sampled Square 2
        .byte           BENDR , 12
        .byte           VOL   , 45
        .byte   W12
        .byte           N12   , Cn3 , v100
        .byte           N12   , Gn2
        .byte           N12   , Gn3
        .byte   W36
        .byte                   Cn3
        .byte           N12   , Gn2
        .byte           N12   , Gn3
        .byte   W36
        .byte                   Cn3
        .byte           N12   , Gn2
        .byte           N12   , Gn3
        .byte   W12
        .byte   PEND
@ 011   ----------------------------------------
mus_geese_test1_7_11:
        .byte   W24
        .byte           N12   , Cn3 , v100
        .byte           N12   , Gn2
        .byte           N12   , Gn3
        .byte   W36
        .byte                   As2
        .byte           N12   , Fn2
        .byte           N12   , Fn3
        .byte   W24
        .byte                   As2
        .byte           N12   , Fn2
        .byte           N12   , Fn3
        .byte   W12
        .byte   PEND
@ 012   ----------------------------------------
        .byte   PATT
         .word  mus_geese_test1_7_10
@ 013   ----------------------------------------
        .byte   W24
        .byte           N12   , Gn2 , v100
        .byte           N12   , Cn3
        .byte           N12   , Gn3
        .byte   W36
        .byte                   Ds3
        .byte           N12   , As2
        .byte           N12   , As3
        .byte   W24
        .byte                   Fn3
        .byte           N12   , Cn3
        .byte           N12   , Gn2
        .byte           N12   , Cn4
        .byte   W12
@ 014   ----------------------------------------
        .byte   PATT
         .word  mus_geese_test1_7_10
@ 015   ----------------------------------------
        .byte   PATT
         .word  mus_geese_test1_7_11
@ 016   ----------------------------------------
        .byte   PATT
         .word  mus_geese_test1_7_10
@ 017   ----------------------------------------
        .byte   W24
        .byte           N12   , Gn2 , v100
        .byte           N12   , Cn3
        .byte           N12   , Gn3
        .byte   W36
        .byte                   Ds3
        .byte           N12   , As2
        .byte           N12   , As3
        .byte   W24
        .byte                   Cn3
        .byte           N12   , Fn3
        .byte           N12   , Cn4
        .byte   W12
@ 018   ----------------------------------------
mus_geese_test1_7_18:
        .byte           VOICE , 97 @ Sampled Square 2
        .byte           BENDR , 12
        .byte           VOL   , 45
        .byte   W96
@ 019   ----------------------------------------
        .byte   W96
@ 020   ----------------------------------------
        .byte   W96
@ 021   ----------------------------------------
        .byte   W96
@ 022   ----------------------------------------
        .byte   W96
@ 023   ----------------------------------------
        .byte   W96
@ 024   ----------------------------------------
        .byte   W96
@ 025   ----------------------------------------
        .byte   W96
@ 026   ----------------------------------------
mus_geese_test1_7_26:
        .byte   W12
        .byte           N12   , Gn2 , v100
        .byte           N12   , Cn3
        .byte           N12   , Gn3
        .byte   W36
        .byte                   Gn2
        .byte           N12   , Cn3
        .byte           N12   , Gn3
        .byte   W36
        .byte                   Cn3
        .byte           N12   , Gn2
        .byte           N12   , Gn3
        .byte   W12
        .byte   PEND
@ 027   ----------------------------------------
        .byte   PATT
         .word  mus_geese_test1_7_11
@ 028   ----------------------------------------
        .byte   PATT
         .word  mus_geese_test1_7_26
@ 029   ----------------------------------------
        .byte   W24
        .byte           N12   , Gn3 , v100
        .byte           N12   , Cn3
        .byte           N12   , Gn2
        .byte   W36
        .byte                   Ds3
        .byte           N12   , As2
        .byte           N12   , As3
        .byte   W24
        .byte                   Cn4
        .byte           N12   , Cn3
        .byte           N12   , Fn3
        .byte   W12
@ 030   ----------------------------------------
mus_geese_test1_7_30:
        .byte   W12
        .byte           N12   , Gn2 , v100
        .byte           N12   , Cn3
        .byte           N12   , Gn3
        .byte   W36
        .byte                   Gn2
        .byte           N12   , Cn3
        .byte           N12   , Gn3
        .byte   W36
        .byte                   Gn3
        .byte           N12   , Gn2
        .byte           N12   , Cn3
        .byte   W12
        .byte   PEND
@ 031   ----------------------------------------
        .byte   W24
        .byte                   Gn3
        .byte           N12   , Gn2
        .byte           N12   , Cn3
        .byte   W36
        .byte                   Fn3
        .byte           N12   , Fn2
        .byte           N12   , As2
        .byte   W24
        .byte                   As2
        .byte           N12   , Fn2
        .byte           N12   , Fn3
        .byte   W12
@ 032   ----------------------------------------
        .byte   PATT
         .word  mus_geese_test1_7_26
@ 033   ----------------------------------------
        .byte   W24
        .byte           N12   , Gn3 , v100
        .byte           N12   , Gn2
        .byte           N12   , Cn3
        .byte   W36
        .byte                   Ds3
        .byte           N12   , As2
        .byte           N12   , As3
        .byte   W24
        .byte                   Fn3
        .byte           N12   , Cn3
        .byte           N12   , Cn4
        .byte   W12
@ 034   ----------------------------------------
        .byte   W96
@ 035   ----------------------------------------
        .byte   W96
@ 036   ----------------------------------------
        .byte   W96
@ 037   ----------------------------------------
        .byte   W96
@ 038   ----------------------------------------
        .byte   W96
@ 039   ----------------------------------------
        .byte   W96
@ 040   ----------------------------------------
        .byte   W96
@ 041   ----------------------------------------
        .byte   W96
@ 042   ----------------------------------------
        .byte   W96
@ 043   ----------------------------------------
        .byte   W96
@ 044   ----------------------------------------
        .byte   W96
@ 045   ----------------------------------------
        .byte   W96
@ 046   ----------------------------------------
        .byte   W96
@ 047   ----------------------------------------
        .byte   W96
@ 048   ----------------------------------------
        .byte   W96
@ 049   ----------------------------------------
        .byte   W96
@ 050   ----------------------------------------
        .byte   W96
@ 051   ----------------------------------------
        .byte   W96
@ 052   ----------------------------------------
        .byte   W96
@ 053   ----------------------------------------
        .byte   W96
@ 054   ----------------------------------------
        .byte   W96
@ 055   ----------------------------------------
        .byte   W96
@ 056   ----------------------------------------
        .byte   W96
@ 057   ----------------------------------------
        .byte   W96
@ 058   ----------------------------------------
mus_geese_test1_7_58:
        .byte           VOICE , 73 @ Flute
        .byte           BENDR , 12
        .byte           VOL   , 100
        .byte   W06
        .byte           N15   , Cn4 , v100
        .byte   W15
        .byte                   Ds4
        .byte   W16
        .byte                   Gn4
        .byte   W15
        .byte           N16   , An4
        .byte   W16
        .byte           N15   , As4
        .byte   W15
        .byte           N19   , Cn5
        .byte   W13
        .byte   PEND
@ 059   ----------------------------------------
mus_geese_test1_7_59:
        .byte   W06
        .byte           N96   , An4 , v100
        .byte   W90
        .byte   PEND
@ 060   ----------------------------------------
mus_geese_test1_7_60:
        .byte   W06
        .byte           N15   , Gs4 , v100
        .byte   W15
        .byte           N16   , Ds4
        .byte   W16
        .byte                   Dn4
        .byte   W17
        .byte                   Cn4
        .byte   W16
        .byte                   Dn4
        .byte   W16
        .byte           N56   , Gn4 , v100 , gtp2
        .byte   W10
        .byte   PEND
@ 061   ----------------------------------------
mus_geese_test1_7_61:
        .byte   W48
        .byte           N54   , Fn4 , v100
        .byte   W48
        .byte   PEND
@ 062   ----------------------------------------
        .byte   PATT
         .word  mus_geese_test1_7_58
@ 063   ----------------------------------------
        .byte   PATT
         .word  mus_geese_test1_7_59
@ 064   ----------------------------------------
mus_geese_test1_7_64:
        .byte   W06
        .byte           N16   , Gs4 , v100
        .byte   W16
        .byte                   Gn4
        .byte   W16
        .byte                   As4
        .byte   W16
        .byte                   Gs4
        .byte   W16
        .byte                   Dn5
        .byte   W16
        .byte           TIE   , Ds5
        .byte   W10
        .byte   PEND
@ 065   ----------------------------------------
        .byte   W96
@ 066   ----------------------------------------
mus_geese_test1_7_66:
        .byte   W05
        .byte           EOT   , Ds5
        .byte   W01
        .byte           N24   , Dn5 , v100
        .byte   W24
        .byte           N12   , Gn4
        .byte   W12
        .byte           N24   , Ds5
        .byte   W24
        .byte           N12   , Gn4
        .byte   W12
        .byte           N24   , Fn5
        .byte   W18
        .byte   PEND
@ 067   ----------------------------------------
mus_geese_test1_7_67:
        .byte   W06
        .byte           N12   , Gn5 , v100
        .byte   W12
        .byte           N24   , Ds5
        .byte   W24
        .byte           N12   , Dn5
        .byte   W12
        .byte           N18   , Cn5
        .byte   W18
        .byte                   Bn4
        .byte   W18
        .byte           N12   , Dn5
        .byte   W06
        .byte   PEND
@ 068   ----------------------------------------
mus_geese_test1_7_68:
        .byte   W06
        .byte           N06   , Ds5 , v100
        .byte   W06
        .byte                   Dn5
        .byte   W06
        .byte           TIE   , Ds5
        .byte   W78
        .byte   PEND
@ 069   ----------------------------------------
        .byte   W96
@ 070   ----------------------------------------
        .byte   W06
        .byte           EOT
        .byte   W90
@ 071   ----------------------------------------
        .byte   W96
@ 072   ----------------------------------------
        .byte   W96
@ 073   ----------------------------------------
        .byte           VOICE , 97 @ Sampled Square 2
        .byte           BENDR , 12
        .byte           VOL   , 45
        .byte           N12   , Ds2
        .byte           N12   , Cn3
        .byte           N12   , Cn4
        .byte   W12
        .byte                   Gn2
        .byte           N12   , As1
        .byte           N12   , Gn3
        .byte   W48
        .byte                   Gn2
        .byte           N12   , As1
        .byte           N12   , Gn3
        .byte   W36
@ 074   ----------------------------------------
        .byte   W12
        .byte                   As3
        .byte           N12   , Cs2
        .byte           N12   , As2
        .byte   W48
        .byte                   As2
        .byte           N12   , Cs2
        .byte           N12   , As3
        .byte   W36
@ 075   ----------------------------------------
        .byte   W12
        .byte                   Gn2
        .byte           N12   , As1
        .byte           N12   , Gn3
        .byte   W24
        .byte                   Gs3
        .byte           N12   , Bn1
        .byte           N12   , Gs2
        .byte   W24
        .byte                   An3
        .byte           N12   , Cn2
        .byte           N12   , An2
        .byte   W24
        .byte                   As3
        .byte           N12   , Cs2
        .byte           N12   , As2
        .byte   W12
@ 076   ----------------------------------------
        .byte   W96
@ 077   ----------------------------------------
        .byte   W96
@ 078   ----------------------------------------
        .byte   W96
@ 079   ----------------------------------------
        .byte   W96
@ 080   ----------------------------------------
        .byte   W96
@ 081   ----------------------------------------
        .byte   W96
@ 082   ----------------------------------------
        .byte   W96
@ 083   ----------------------------------------
        .byte   W96
@ 084   ----------------------------------------
mus_geese_test1_7_84:
        .byte   W12
        .byte           N12   , Gn3 , v100
        .byte           N12   , Cn3
        .byte           N12   , Gn2
        .byte   W36
        .byte                   Gn3
        .byte           N12   , Cn3
        .byte           N12   , Gn2
        .byte   W36
        .byte                   Gn3
        .byte           N12   , Gn2
        .byte           N12   , Cn3
        .byte   W12
        .byte   PEND
@ 085   ----------------------------------------
        .byte   W24
        .byte                   Gn3
        .byte           N12   , Gn2
        .byte           N12   , Cn3
        .byte   W36
        .byte                   Fn3
        .byte           N12   , Fn2
        .byte           N12   , As2
        .byte   W24
        .byte                   Fn3
        .byte           N12   , Fn2
        .byte           N12   , As2
        .byte   W12
@ 086   ----------------------------------------
        .byte   PATT
         .word  mus_geese_test1_7_84
@ 087   ----------------------------------------
        .byte   W24
        .byte           N12   , Gn3 , v100
        .byte           N12   , Cn3
        .byte           N12   , Gn2
        .byte   W36
        .byte                   As3
        .byte           N12   , As2
        .byte           N12   , Ds3
        .byte   W24
        .byte                   Fn3
        .byte           N12   , Cn3
        .byte           N12   , Cn4
        .byte   W12
@ 088   ----------------------------------------
        .byte   W12
        .byte                   Gn3
        .byte           N12   , Cn3
        .byte           N12   , Gn2
        .byte   W36
        .byte                   Gn3
        .byte           N12   , Cn3
        .byte           N12   , Gn2
        .byte   W36
        .byte                   Cn3
        .byte           N12   , Gn2
        .byte           N12   , Gn3
        .byte   W12
@ 089   ----------------------------------------
        .byte   W24
        .byte                   Cn3
        .byte           N12   , Gn2
        .byte           N12   , Gn3
        .byte   W36
        .byte                   As2
        .byte           N12   , Fn2
        .byte           N12   , Fn3
        .byte   W24
        .byte                   Fn3
        .byte           N12   , Fn2
        .byte           N12   , As2
        .byte   W12
@ 090   ----------------------------------------
        .byte   PATT
         .word  mus_geese_test1_7_30
@ 091   ----------------------------------------
        .byte   W24
        .byte           N12   , Gn3 , v100
        .byte           N12   , Gn2
        .byte           N12   , Cn3
        .byte   W36
        .byte                   As3
        .byte           N12   , As2
        .byte           N12   , Ds3
        .byte   W24
        .byte                   Cn4
        .byte           N12   , Cn3
        .byte           N12   , Fn3
        .byte   W12
@ 092   ----------------------------------------
        .byte   W96
@ 093   ----------------------------------------
        .byte   W96
@ 094   ----------------------------------------
        .byte   W96
@ 095   ----------------------------------------
        .byte   W96
@ 096   ----------------------------------------
        .byte   W96
@ 097   ----------------------------------------
        .byte   W96
@ 098   ----------------------------------------
        .byte   W96
@ 099   ----------------------------------------
        .byte   W96
@ 100   ----------------------------------------
        .byte   W96
@ 101   ----------------------------------------
        .byte   W96
@ 102   ----------------------------------------
        .byte   W96
@ 103   ----------------------------------------
        .byte   W96
@ 104   ----------------------------------------
        .byte   W96
@ 105   ----------------------------------------
        .byte   W96
@ 106   ----------------------------------------
        .byte   W96
@ 107   ----------------------------------------
        .byte   W96
@ 108   ----------------------------------------
        .byte   W96
@ 109   ----------------------------------------
        .byte   W96
@ 110   ----------------------------------------
        .byte   W96
@ 111   ----------------------------------------
        .byte   W96
@ 112   ----------------------------------------
        .byte   W96
@ 113   ----------------------------------------
        .byte   W96
@ 114   ----------------------------------------
        .byte   W96
@ 115   ----------------------------------------
        .byte   W96
@ 116   ----------------------------------------
        .byte   PATT
         .word  mus_geese_test1_7_58
@ 117   ----------------------------------------
        .byte   PATT
         .word  mus_geese_test1_7_59
@ 118   ----------------------------------------
        .byte   PATT
         .word  mus_geese_test1_7_60
@ 119   ----------------------------------------
        .byte   PATT
         .word  mus_geese_test1_7_61
@ 120   ----------------------------------------
        .byte   PATT
         .word  mus_geese_test1_7_58
@ 121   ----------------------------------------
        .byte   PATT
         .word  mus_geese_test1_7_59
@ 122   ----------------------------------------
        .byte   PATT
         .word  mus_geese_test1_7_64
@ 123   ----------------------------------------
        .byte   W96
@ 124   ----------------------------------------
        .byte   PATT
         .word  mus_geese_test1_7_66
@ 125   ----------------------------------------
        .byte   PATT
         .word  mus_geese_test1_7_67
@ 126   ----------------------------------------
        .byte   PATT
         .word  mus_geese_test1_7_68
@ 127   ----------------------------------------
        .byte   W96
@ 128   ----------------------------------------
        .byte   W06
        .byte           EOT   , Ds5
        .byte   W90
@ 129   ----------------------------------------
        .byte   W96
@ 130   ----------------------------------------
        .byte   W96
@ 131   ----------------------------------------
        .byte           VOICE , 97 @ Sampled Square 2
        .byte           BENDR , 12
        .byte           VOL   , 45
        .byte           N12   , Cn4 , v100
        .byte           N12   , Cn3
        .byte           N12   , Ds2
        .byte   W12
        .byte                   Gn3
        .byte           N12   , As1
        .byte           N12   , Gn2
        .byte   W48
        .byte                   Gn2
        .byte           N12   , As1
        .byte           N12   , Gn3
        .byte   W36
@ 132   ----------------------------------------
        .byte   W12
        .byte                   As3
        .byte           N12   , Cs2
        .byte           N12   , As2
        .byte   W48
        .byte                   As3
        .byte           N12   , Cs2
        .byte           N12   , As2
        .byte   W36
@ 133   ----------------------------------------
        .byte   W12
        .byte                   Gn3
        .byte           N12   , As1
        .byte           N12   , Gn2
        .byte   W24
        .byte                   Gs2
        .byte           N12   , Bn1
        .byte           N12   , Gs3
        .byte   W24
        .byte                   An2
        .byte           N12   , Cn2
        .byte           N12   , An3
        .byte   W24
        .byte           N11   , As2
        .byte           N11   , Cs2
        .byte           N11   , As3
        .byte   W12
@ 134   ----------------------------------------
@        .byte   W96
@ 135   ----------------------------------------
        .byte   GOTO
        .word   mus_geese_test1_7_18
        .byte   FINE

@***************** Track 8 (Midi-Chn.10) ******************@

mus_geese_test1_8:
        .byte   KEYSH , mus_geese_test1_key+0
@ 000   ----------------------------------------
        .byte           VOICE , 60 @ English horn
        .byte           BENDR , 12
        .byte           VOL   , 103
        .byte   W96
@ 001   ----------------------------------------
        .byte   W96
@ 002   ----------------------------------------
        .byte   W96
@ 003   ----------------------------------------
        .byte   W96
@ 004   ----------------------------------------
        .byte   W96
@ 005   ----------------------------------------
        .byte   W96
@ 006   ----------------------------------------
        .byte   W96
@ 007   ----------------------------------------
        .byte   W96
@ 008   ----------------------------------------
        .byte   W96
@ 009   ----------------------------------------
        .byte   W96
@ 010   ----------------------------------------
        .byte           TIE   , Cn4 , v100
        .byte   W96
@ 011   ----------------------------------------
        .byte   W84
        .byte           EOT
        .byte           N06
        .byte   W06
        .byte                   As3
        .byte   W06
@ 012   ----------------------------------------
        .byte           TIE   , Cn4
        .byte   W96
@ 013   ----------------------------------------
        .byte   W96
@ 014   ----------------------------------------
        .byte           EOT
        .byte           TIE   , Fn4
        .byte   W96
@ 015   ----------------------------------------
        .byte   W84
        .byte           EOT
        .byte           N06   , Gn4
        .byte   W06
        .byte                   As4
        .byte   W06
@ 016   ----------------------------------------
        .byte           TIE   , Cn4
        .byte   W96
@ 017   ----------------------------------------
        .byte   W96
        .byte           EOT
@ 018   ----------------------------------------
mus_geese_test1_8_18:
        .byte           VOL   , 103
        .byte           N36   , As4
        .byte   W36
        .byte                   An4
        .byte   W36
        .byte           N24   , Fn4
        .byte   W24
@ 019   ----------------------------------------
mus_geese_test1_8_19:
        .byte           N48   , Ds4 , v100
        .byte   W48
        .byte           N12
        .byte   W12
        .byte                   Fn4
        .byte   W12
        .byte           N24   , Gn4
        .byte   W24
        .byte   PEND
@ 020   ----------------------------------------
mus_geese_test1_8_20:
        .byte           N36   , Fn4 , v100
        .byte   W36
        .byte                   Gn4
        .byte   W36
        .byte           TIE   , Ds4
        .byte   W24
        .byte   PEND
@ 021   ----------------------------------------
        .byte   W96
@ 022   ----------------------------------------
mus_geese_test1_8_22:
        .byte           EOT   , Ds4
        .byte           N36   , As4 , v100
        .byte   W36
        .byte                   An4
        .byte   W36
        .byte           N24   , Fn4
        .byte   W24
        .byte   PEND
@ 023   ----------------------------------------
mus_geese_test1_8_23:
        .byte           N36   , Ds4 , v100
        .byte   W36
        .byte                   An4
        .byte   W36
        .byte           N24   , Fn4
        .byte   W24
        .byte   PEND
@ 024   ----------------------------------------
mus_geese_test1_8_24:
        .byte           N36   , Cn5 , v100
        .byte   W36
        .byte                   Bn4
        .byte   W36
        .byte           TIE   , Gn4
        .byte   W24
        .byte   PEND
@ 025   ----------------------------------------
        .byte   W96
@ 026   ----------------------------------------
        .byte           EOT
        .byte   W96
@ 027   ----------------------------------------
        .byte   W96
@ 028   ----------------------------------------
        .byte   W96
@ 029   ----------------------------------------
        .byte   W96
@ 030   ----------------------------------------
        .byte   W96
@ 031   ----------------------------------------
        .byte   W96
@ 032   ----------------------------------------
        .byte   W96
@ 033   ----------------------------------------
        .byte   W96
@ 034   ----------------------------------------
mus_geese_test1_8_34:
        .byte           N36   , As4 , v100
        .byte   W36
        .byte                   An4
        .byte   W36
        .byte           N24   , Fn4
        .byte   W24
        .byte   PEND
@ 035   ----------------------------------------
        .byte   PATT
         .word  mus_geese_test1_8_19
@ 036   ----------------------------------------
        .byte   PATT
         .word  mus_geese_test1_8_20
@ 037   ----------------------------------------
        .byte   W96
@ 038   ----------------------------------------
mus_geese_test1_8_38:
        .byte           EOT   , Ds4
        .byte           N36   , Dn4 , v100
        .byte   W36
        .byte                   Ds4
        .byte   W36
        .byte           N24   , Fn4
        .byte   W24
        .byte   PEND
@ 039   ----------------------------------------
mus_geese_test1_8_39:
        .byte           N18   , Cn5 , v100
        .byte   W18
        .byte                   Bn4
        .byte   W18
        .byte           N12   , Gn4
        .byte   W12
        .byte           N18   , As4
        .byte   W18
        .byte                   An4
        .byte   W18
        .byte           N12   , Fn4
        .byte   W12
        .byte   PEND
@ 040   ----------------------------------------
        .byte           VOL   , 101
        .byte           TIE   , Gn4
        .byte   W06
        .byte           VOL   , 97
        .byte   W06
        .byte                   93
        .byte   W06
        .byte                   90
        .byte   W06
        .byte                   87
        .byte   W06
        .byte                   85
        .byte   W06
        .byte                   83
        .byte   W06
        .byte                   76
        .byte   W06
        .byte                   74
        .byte   W06
        .byte                   68
        .byte   W06
        .byte                   67
        .byte   W12
        .byte                   65
        .byte   W12
        .byte                   64
        .byte   W06
        .byte                   61
        .byte   W06
@ 041   ----------------------------------------
        .byte                   60
        .byte   W06
        .byte                   58
        .byte   W06
        .byte                   57
        .byte   W06
        .byte                   56
        .byte   W06
        .byte                   55
        .byte   W06
        .byte                   54
        .byte   W06
        .byte                   53
        .byte   W06
        .byte                   52
        .byte   W12
        .byte                   51
        .byte   W12
        .byte                   49
        .byte   W06
        .byte                   48
        .byte   W06
        .byte                   47
        .byte   W06
        .byte                   46
        .byte   W06
        .byte                   45
        .byte   W06
@ 042   ----------------------------------------
        .byte           EOT
        .byte           VOL   , 44
        .byte   W96
@ 043   ----------------------------------------
        .byte   W96
@ 044   ----------------------------------------
        .byte   W96
@ 045   ----------------------------------------
        .byte   W96
@ 046   ----------------------------------------
        .byte   W96
@ 047   ----------------------------------------
        .byte   W96
@ 048   ----------------------------------------
        .byte   W96
@ 049   ----------------------------------------
        .byte   W96
@ 050   ----------------------------------------
        .byte   W96
@ 051   ----------------------------------------
        .byte   W96
@ 052   ----------------------------------------
        .byte   W96
@ 053   ----------------------------------------
        .byte   W96
@ 054   ----------------------------------------
        .byte   W96
@ 055   ----------------------------------------
        .byte   W96
@ 056   ----------------------------------------
        .byte   W96
@ 057   ----------------------------------------
        .byte   W96
@ 058   ----------------------------------------
        .byte                   103
        .byte   W96
@ 059   ----------------------------------------
        .byte   W96
@ 060   ----------------------------------------
        .byte   W96
@ 061   ----------------------------------------
        .byte   W96
@ 062   ----------------------------------------
        .byte   W96
@ 063   ----------------------------------------
        .byte   W96
@ 064   ----------------------------------------
        .byte   W96
@ 065   ----------------------------------------
        .byte   W96
@ 066   ----------------------------------------
        .byte   W96
@ 067   ----------------------------------------
        .byte   W96
@ 068   ----------------------------------------
        .byte   W96
@ 069   ----------------------------------------
        .byte   W96
@ 070   ----------------------------------------
        .byte   W96
@ 071   ----------------------------------------
        .byte   W96
@ 072   ----------------------------------------
        .byte   W96
@ 073   ----------------------------------------
        .byte   W96
@ 074   ----------------------------------------
        .byte   W96
@ 075   ----------------------------------------
        .byte   W96
@ 076   ----------------------------------------
        .byte   PATT
         .word  mus_geese_test1_8_34
@ 077   ----------------------------------------
        .byte   PATT
         .word  mus_geese_test1_8_19
@ 078   ----------------------------------------
        .byte   PATT
         .word  mus_geese_test1_8_20
@ 079   ----------------------------------------
        .byte   W96
@ 080   ----------------------------------------
        .byte   PATT
         .word  mus_geese_test1_8_22
@ 081   ----------------------------------------
        .byte   PATT
         .word  mus_geese_test1_8_23
@ 082   ----------------------------------------
        .byte   PATT
         .word  mus_geese_test1_8_24
@ 083   ----------------------------------------
        .byte   W96
@ 084   ----------------------------------------
        .byte           EOT   , Gn4
        .byte   W96
@ 085   ----------------------------------------
        .byte   W96
@ 086   ----------------------------------------
        .byte   W96
@ 087   ----------------------------------------
        .byte   W96
@ 088   ----------------------------------------
        .byte   W96
@ 089   ----------------------------------------
        .byte   W96
@ 090   ----------------------------------------
        .byte   W96
@ 091   ----------------------------------------
        .byte   W96
@ 092   ----------------------------------------
        .byte   PATT
         .word  mus_geese_test1_8_34
@ 093   ----------------------------------------
        .byte   PATT
         .word  mus_geese_test1_8_19
@ 094   ----------------------------------------
        .byte   PATT
         .word  mus_geese_test1_8_20
@ 095   ----------------------------------------
        .byte   W96
@ 096   ----------------------------------------
        .byte   PATT
         .word  mus_geese_test1_8_38
@ 097   ----------------------------------------
        .byte   PATT
         .word  mus_geese_test1_8_39
@ 098   ----------------------------------------
        .byte           VOL   , 99
        .byte           TIE   , Gn4 , v100
        .byte   W06
        .byte           VOL   , 96
        .byte   W06
        .byte                   93
        .byte   W06
        .byte                   89
        .byte   W06
        .byte                   85
        .byte   W06
        .byte                   78
        .byte   W06
        .byte                   77
        .byte   W06
        .byte                   76
        .byte   W06
        .byte                   75
        .byte   W06
        .byte                   72
        .byte   W06
        .byte                   70
        .byte   W06
        .byte                   67
        .byte   W06
        .byte                   64
        .byte   W06
        .byte                   61
        .byte   W06
        .byte                   59
        .byte   W06
        .byte                   57
        .byte   W06
@ 099   ----------------------------------------
        .byte                   55
        .byte   W18
        .byte                   54
        .byte   W06
        .byte                   52
        .byte   W06
        .byte                   50
        .byte   W06
        .byte                   49
        .byte   W12
        .byte                   48
        .byte   W06
        .byte                   47
        .byte   W06
        .byte                   46
        .byte   W06
        .byte                   45
        .byte   W06
        .byte                   44
        .byte   W06
        .byte                   43
        .byte   W06
        .byte                   42
        .byte   W06
        .byte                   40
        .byte   W06
@ 100   ----------------------------------------
        .byte           EOT
        .byte           VOL   , 38
        .byte   W96
@ 101   ----------------------------------------
        .byte   W96
@ 102   ----------------------------------------
        .byte   W96
@ 103   ----------------------------------------
        .byte   W96
@ 104   ----------------------------------------
        .byte   W96
@ 105   ----------------------------------------
        .byte   W96
@ 106   ----------------------------------------
        .byte   W96
@ 107   ----------------------------------------
        .byte   W96
@ 108   ----------------------------------------
        .byte   W96
@ 109   ----------------------------------------
        .byte   W96
@ 110   ----------------------------------------
        .byte   W96
@ 111   ----------------------------------------
        .byte   W96
@ 112   ----------------------------------------
        .byte   W96
@ 113   ----------------------------------------
        .byte   W96
@ 114   ----------------------------------------
        .byte   W96
@ 115   ----------------------------------------
        .byte   W96
@ 116   ----------------------------------------
        .byte                   103
        .byte   W96
@ 117   ----------------------------------------
        .byte   W96
@ 118   ----------------------------------------
        .byte   W96
@ 119   ----------------------------------------
        .byte   W96
@ 120   ----------------------------------------
        .byte   W96
@ 121   ----------------------------------------
        .byte   W96
@ 122   ----------------------------------------
        .byte   W96
@ 123   ----------------------------------------
        .byte   W96
@ 124   ----------------------------------------
        .byte   W96
@ 125   ----------------------------------------
        .byte   W96
@ 126   ----------------------------------------
        .byte   W96
@ 127   ----------------------------------------
        .byte   W96
@ 128   ----------------------------------------
        .byte   W96
@ 129   ----------------------------------------
        .byte   W96
@ 130   ----------------------------------------
        .byte   W96
@ 131   ----------------------------------------
        .byte   W96
@ 132   ----------------------------------------
        .byte   W96
@ 133   ----------------------------------------
        .byte   W96
@ 134   ----------------------------------------
@        .byte   W96
@ 135   ----------------------------------------
        .byte   GOTO
        .word   mus_geese_test1_8_18
        .byte   FINE

@***************** Track 9 (Midi-Chn.11) ******************@

mus_geese_test1_9:
        .byte   KEYSH , mus_geese_test1_key+0
@ 000   ----------------------------------------
        .byte           VOICE , 60 @ English Horn
        .byte           BENDR , 12
        .byte           VOL   , 64
        .byte   W96
@ 001   ----------------------------------------
        .byte   W96
@ 002   ----------------------------------------
        .byte   W96
@ 003   ----------------------------------------
        .byte   W96
@ 004   ----------------------------------------
        .byte   W96
@ 005   ----------------------------------------
        .byte   W96
@ 006   ----------------------------------------
        .byte   W96
@ 007   ----------------------------------------
        .byte   W96
@ 008   ----------------------------------------
        .byte   W96
@ 009   ----------------------------------------
        .byte   W96
@ 010   ----------------------------------------
        .byte   W96
@ 011   ----------------------------------------
        .byte   W96
@ 012   ----------------------------------------
        .byte   W96
@ 013   ----------------------------------------
        .byte   W96
@ 014   ----------------------------------------
        .byte   W96
@ 015   ----------------------------------------
        .byte   W96
@ 016   ----------------------------------------
        .byte   W96
@ 017   ----------------------------------------
        .byte   W96
@ 018   ----------------------------------------
mus_geese_test1_9_18:
        .byte           VOL   , 64
        .byte   W12
        .byte           N36   , As4 , v100
        .byte   W36
        .byte                   An4
        .byte   W36
        .byte           N24   , Fn4
        .byte   W12
        .byte   PEND
@ 019   ----------------------------------------
mus_geese_test1_9_19:
        .byte   W12
        .byte           N48   , Ds4 , v100
        .byte   W48
        .byte           N12
        .byte   W12
        .byte                   Fn4
        .byte   W12
        .byte           N24   , Gn4
        .byte   W12
        .byte   PEND
@ 020   ----------------------------------------
mus_geese_test1_9_20:
        .byte   W12
        .byte           N36   , Fn4 , v100
        .byte   W36
        .byte                   Gn4
        .byte   W36
        .byte           TIE   , Ds4
        .byte   W12
        .byte   PEND
@ 021   ----------------------------------------
        .byte   W96
@ 022   ----------------------------------------
mus_geese_test1_9_22:
        .byte   W12
        .byte           EOT   , Ds4
        .byte           N36   , As4 , v100
        .byte   W36
        .byte                   An4
        .byte   W36
        .byte           N24   , Fn4
        .byte   W12
        .byte   PEND
@ 023   ----------------------------------------
mus_geese_test1_9_23:
        .byte   W12
        .byte           N36   , Ds4 , v100
        .byte   W36
        .byte                   An4
        .byte   W36
        .byte           N24   , Fn4
        .byte   W12
        .byte   PEND
@ 024   ----------------------------------------
mus_geese_test1_9_24:
        .byte   W12
        .byte           N36   , Cn5 , v100
        .byte   W36
        .byte                   Bn4
        .byte   W36
        .byte           TIE   , Gn4
        .byte   W12
        .byte   PEND
@ 025   ----------------------------------------
        .byte   W96
@ 026   ----------------------------------------
        .byte   W12
        .byte           EOT
        .byte   W84
@ 027   ----------------------------------------
        .byte   W96
@ 028   ----------------------------------------
        .byte   W96
@ 029   ----------------------------------------
        .byte   W96
@ 030   ----------------------------------------
        .byte   W96
@ 031   ----------------------------------------
        .byte   W96
@ 032   ----------------------------------------
        .byte   W96
@ 033   ----------------------------------------
        .byte   W96
@ 034   ----------------------------------------
        .byte   PATT
         .word  mus_geese_test1_9_18
@ 035   ----------------------------------------
        .byte   PATT
         .word  mus_geese_test1_9_19
@ 036   ----------------------------------------
        .byte   PATT
         .word  mus_geese_test1_9_20
@ 037   ----------------------------------------
        .byte   W96
@ 038   ----------------------------------------
mus_geese_test1_9_38:
        .byte   W12
        .byte           EOT   , Ds4
        .byte           N36   , Dn4 , v100
        .byte   W36
        .byte                   Ds4
        .byte   W36
        .byte           N24   , Fn4
        .byte   W12
        .byte   PEND
@ 039   ----------------------------------------
mus_geese_test1_9_39:
        .byte   W12
        .byte           N18   , Cn5 , v100
        .byte   W18
        .byte                   Bn4
        .byte   W18
        .byte           N12   , Gn4
        .byte   W12
        .byte           N18   , As4
        .byte   W18
        .byte                   An4
        .byte   W18
        .byte   PEND
@ 040   ----------------------------------------
        .byte           N12   , Fn4
        .byte   W12
        .byte           TIE   , Gn4
        .byte   W06
        .byte           VOL   , 59
        .byte   W06
        .byte                   57
        .byte   W06
        .byte                   56
        .byte   W06
        .byte                   55
        .byte   W18
        .byte                   54
        .byte   W06
        .byte                   53
        .byte   W06
        .byte                   52
        .byte   W06
        .byte                   51
        .byte   W06
        .byte                   50
        .byte   W06
        .byte                   48
        .byte   W06
        .byte                   46
        .byte   W06
@ 041   ----------------------------------------
        .byte                   44
        .byte   W06
        .byte                   43
        .byte   W06
        .byte                   40
        .byte   W06
        .byte                   39
        .byte   W06
        .byte                   37
        .byte   W06
        .byte                   35
        .byte   W06
        .byte                   32
        .byte   W06
        .byte                   31
        .byte   W06
        .byte                   29
        .byte   W06
        .byte                   26
        .byte   W06
        .byte                   22
        .byte   W06
        .byte                   21
        .byte   W06
        .byte                   20
        .byte   W06
        .byte                   19
        .byte   W12
        .byte                   16
        .byte   W06
@ 042   ----------------------------------------
        .byte                   14
        .byte   W12
        .byte           EOT
        .byte           VOL   , 13
        .byte   W84
@ 043   ----------------------------------------
        .byte   W96
@ 044   ----------------------------------------
        .byte   W96
@ 045   ----------------------------------------
        .byte   W96
@ 046   ----------------------------------------
        .byte   W96
@ 047   ----------------------------------------
        .byte   W96
@ 048   ----------------------------------------
        .byte   W96
@ 049   ----------------------------------------
        .byte   W96
@ 050   ----------------------------------------
        .byte   W96
@ 051   ----------------------------------------
        .byte   W96
@ 052   ----------------------------------------
        .byte   W96
@ 053   ----------------------------------------
        .byte   W96
@ 054   ----------------------------------------
        .byte   W96
@ 055   ----------------------------------------
        .byte   W96
@ 056   ----------------------------------------
        .byte   W96
@ 057   ----------------------------------------
        .byte   W96
@ 058   ----------------------------------------
        .byte                   65
        .byte   W96
@ 059   ----------------------------------------
        .byte   W96
@ 060   ----------------------------------------
        .byte   W96
@ 061   ----------------------------------------
        .byte   W96
@ 062   ----------------------------------------
        .byte   W96
@ 063   ----------------------------------------
        .byte   W96
@ 064   ----------------------------------------
        .byte   W96
@ 065   ----------------------------------------
        .byte   W96
@ 066   ----------------------------------------
        .byte   W96
@ 067   ----------------------------------------
        .byte   W96
@ 068   ----------------------------------------
        .byte   W96
@ 069   ----------------------------------------
        .byte   W96
@ 070   ----------------------------------------
        .byte   W96
@ 071   ----------------------------------------
        .byte   W96
@ 072   ----------------------------------------
        .byte   W96
@ 073   ----------------------------------------
        .byte   W96
@ 074   ----------------------------------------
        .byte   W96
@ 075   ----------------------------------------
        .byte   W96
@ 076   ----------------------------------------
        .byte   PATT
         .word  mus_geese_test1_9_18
@ 077   ----------------------------------------
        .byte   PATT
         .word  mus_geese_test1_9_19
@ 078   ----------------------------------------
        .byte   PATT
         .word  mus_geese_test1_9_20
@ 079   ----------------------------------------
        .byte   W96
@ 080   ----------------------------------------
        .byte   PATT
         .word  mus_geese_test1_9_22
@ 081   ----------------------------------------
        .byte   PATT
         .word  mus_geese_test1_9_23
@ 082   ----------------------------------------
        .byte   PATT
         .word  mus_geese_test1_9_24
@ 083   ----------------------------------------
        .byte   W96
@ 084   ----------------------------------------
        .byte   W12
        .byte           EOT   , Gn4
        .byte   W84
@ 085   ----------------------------------------
        .byte   W96
@ 086   ----------------------------------------
        .byte   W96
@ 087   ----------------------------------------
        .byte   W96
@ 088   ----------------------------------------
        .byte   W96
@ 089   ----------------------------------------
        .byte   W96
@ 090   ----------------------------------------
        .byte   W96
@ 091   ----------------------------------------
        .byte   W96
@ 092   ----------------------------------------
        .byte   PATT
         .word  mus_geese_test1_9_18
@ 093   ----------------------------------------
        .byte   PATT
         .word  mus_geese_test1_9_19
@ 094   ----------------------------------------
        .byte   PATT
         .word  mus_geese_test1_9_20
@ 095   ----------------------------------------
        .byte   W96
@ 096   ----------------------------------------
        .byte   PATT
         .word  mus_geese_test1_9_38
@ 097   ----------------------------------------
        .byte   PATT
         .word  mus_geese_test1_9_39
@ 098   ----------------------------------------
        .byte           N12   , Fn4 , v100
        .byte   W12
        .byte           TIE   , Gn4
        .byte   W84
@ 099   ----------------------------------------
        .byte   W96
@ 100   ----------------------------------------
        .byte   W12
        .byte           EOT
        .byte   W84
@ 101   ----------------------------------------
        .byte   W96
@ 102   ----------------------------------------
        .byte   W96
@ 103   ----------------------------------------
        .byte   W96
@ 104   ----------------------------------------
        .byte   W96
@ 105   ----------------------------------------
        .byte   W96
@ 106   ----------------------------------------
        .byte   W96
@ 107   ----------------------------------------
        .byte   W96
@ 108   ----------------------------------------
        .byte   W96
@ 109   ----------------------------------------
        .byte   W96
@ 110   ----------------------------------------
        .byte   W96
@ 111   ----------------------------------------
        .byte   W96
@ 112   ----------------------------------------
        .byte   W96
@ 113   ----------------------------------------
        .byte   W96
@ 114   ----------------------------------------
        .byte   W96
@ 115   ----------------------------------------
        .byte   W96
@ 116   ----------------------------------------
        .byte   W96
@ 117   ----------------------------------------
        .byte   W96
@ 118   ----------------------------------------
        .byte   W96
@ 119   ----------------------------------------
        .byte   W96
@ 120   ----------------------------------------
        .byte   W96
@ 121   ----------------------------------------
        .byte   W96
@ 122   ----------------------------------------
        .byte   W96
@ 123   ----------------------------------------
        .byte   W96
@ 124   ----------------------------------------
        .byte   W96
@ 125   ----------------------------------------
        .byte   W96
@ 126   ----------------------------------------
        .byte   W96
@ 127   ----------------------------------------
        .byte   W96
@ 128   ----------------------------------------
        .byte   W96
@ 129   ----------------------------------------
        .byte   W96
@ 130   ----------------------------------------
        .byte   W96
@ 131   ----------------------------------------
        .byte   W96
@ 132   ----------------------------------------
        .byte   W96
@ 133   ----------------------------------------
        .byte   W96
@ 134   ----------------------------------------
@        .byte   W96
@ 135   ----------------------------------------
        .byte   GOTO
        .word   mus_geese_test1_9_18
        .byte   FINE

@***************** Track 10 (Midi-Chn.13) *****************@

mus_geese_test1_10:
        .byte   KEYSH , mus_geese_test1_key+0
@ 000   ----------------------------------------
        .byte           VOICE , 29 @ Overdrive Guitar
        .byte           TIE   , GnM1 , v100
        .byte           TIE   , Gn0
        .byte           TIE   , GnM2
        .byte           BENDR , 12
        .byte           VOL   , 100
        .byte   W96
@ 001   ----------------------------------------
        .byte   W96
@ 002   ----------------------------------------
        .byte           EOT   , GnM1
        .byte                   Gn0
        .byte                   GnM2
        .byte   W96
@ 003   ----------------------------------------
        .byte   W96
@ 004   ----------------------------------------
        .byte   W96
@ 005   ----------------------------------------
        .byte   W96
@ 006   ----------------------------------------
        .byte   W96
@ 007   ----------------------------------------
        .byte   W96
@ 008   ----------------------------------------
        .byte   W96
@ 009   ----------------------------------------
        .byte   W96
@ 010   ----------------------------------------
        .byte   W96
@ 011   ----------------------------------------
        .byte   W96
@ 012   ----------------------------------------
        .byte   W96
@ 013   ----------------------------------------
        .byte   W96
@ 014   ----------------------------------------
        .byte   W96
@ 015   ----------------------------------------
        .byte   W96
@ 016   ----------------------------------------
        .byte   W96
@ 017   ----------------------------------------
        .byte   W96
@ 018   ----------------------------------------
mus_geese_test1_10_18:
        .byte           VOL   , 100
        .byte   W96
@ 019   ----------------------------------------
        .byte   W96
@ 020   ----------------------------------------
        .byte   W96
@ 021   ----------------------------------------
        .byte   W96
@ 022   ----------------------------------------
        .byte   W96
@ 023   ----------------------------------------
        .byte   W96
@ 024   ----------------------------------------
        .byte   W96
@ 025   ----------------------------------------
        .byte   W96
@ 026   ----------------------------------------
        .byte   W96
@ 027   ----------------------------------------
        .byte   W96
@ 028   ----------------------------------------
        .byte   W96
@ 029   ----------------------------------------
        .byte   W96
@ 030   ----------------------------------------
        .byte   W96
@ 031   ----------------------------------------
        .byte   W96
@ 032   ----------------------------------------
        .byte   W96
@ 033   ----------------------------------------
        .byte   W96
@ 034   ----------------------------------------
        .byte   W96
@ 035   ----------------------------------------
        .byte   W96
@ 036   ----------------------------------------
        .byte   W96
@ 037   ----------------------------------------
        .byte   W96
@ 038   ----------------------------------------
        .byte   W96
@ 039   ----------------------------------------
        .byte   W96
@ 040   ----------------------------------------
        .byte   W96
@ 041   ----------------------------------------
        .byte   W96
@ 042   ----------------------------------------
        .byte           N72   , Gs1
        .byte           N72   , Gs2
        .byte   W72
        .byte           N24   , Ds2
        .byte           N24   , Ds3
        .byte   W24
@ 043   ----------------------------------------
mus_geese_test1_10_43:
        .byte           N24   , Dn3 , v100
        .byte           N24   , Dn2
        .byte   W24
        .byte                   Cn3
        .byte           N24   , Cn2
        .byte   W24
        .byte                   As1
        .byte           N24   , As2
        .byte   W24
        .byte                   Cn3
        .byte           N24   , Cn2
        .byte   W24
        .byte   PEND
@ 044   ----------------------------------------
        .byte           N72   , Bn1
        .byte           N72   , Bn2
        .byte   W72
        .byte           N24   , Gn2
        .byte           N24   , Gn3
        .byte   W24
@ 045   ----------------------------------------
        .byte                   Fn3
        .byte           N24   , Fn2
        .byte   W24
        .byte                   Ds3
        .byte           N24   , Ds2
        .byte   W24
        .byte                   Dn2
        .byte           N24   , Dn3
        .byte   W24
        .byte                   Cn2
        .byte           N24   , Cn3
        .byte   W24
@ 046   ----------------------------------------
        .byte           N72   , Ds2
        .byte           N72   , Ds3
        .byte   W72
        .byte           N12   , Dn2
        .byte           N12   , Dn3
        .byte   W12
        .byte                   Ds2
        .byte           N12   , Ds3
        .byte   W12
@ 047   ----------------------------------------
        .byte           N48   , Cn2
        .byte           N48   , Cn3
        .byte   W48
        .byte           N24   , Gs2
        .byte           N24   , Gs1
        .byte   W24
        .byte                   Fn1
        .byte           N24   , Fn2
        .byte   W24
@ 048   ----------------------------------------
        .byte   PATT
         .word  mus_geese_test1_1_48
@ 049   ----------------------------------------
        .byte   W96
@ 050   ----------------------------------------
        .byte   PATT
         .word  mus_geese_test1_1_108
@ 051   ----------------------------------------
        .byte   PATT
         .word  mus_geese_test1_1_51
@ 052   ----------------------------------------
        .byte   PATT
         .word  mus_geese_test1_1_52
@ 053   ----------------------------------------
        .byte   PATT
         .word  mus_geese_test1_1_53
@ 054   ----------------------------------------
        .byte   PATT
         .word  mus_geese_test1_1_54
@ 055   ----------------------------------------
        .byte   PATT
         .word  mus_geese_test1_1_55
@ 056   ----------------------------------------
        .byte   PATT
         .word  mus_geese_test1_1_56
@ 057   ----------------------------------------
        .byte   PATT
         .word  mus_geese_test1_1_57
@ 058   ----------------------------------------
        .byte   W96
@ 059   ----------------------------------------
        .byte   W96
@ 060   ----------------------------------------
        .byte   W96
@ 061   ----------------------------------------
        .byte   W96
@ 062   ----------------------------------------
        .byte   W96
@ 063   ----------------------------------------
        .byte   W96
@ 064   ----------------------------------------
        .byte   W96
@ 065   ----------------------------------------
        .byte   W96
@ 066   ----------------------------------------
        .byte   W96
@ 067   ----------------------------------------
        .byte   W96
@ 068   ----------------------------------------
        .byte   W96
@ 069   ----------------------------------------
        .byte   W96
@ 070   ----------------------------------------
        .byte   W96
@ 071   ----------------------------------------
        .byte   W96
@ 072   ----------------------------------------
        .byte   W96
@ 073   ----------------------------------------
        .byte   W96
@ 074   ----------------------------------------
        .byte   W96
@ 075   ----------------------------------------
        .byte   W96
@ 076   ----------------------------------------
        .byte   W96
@ 077   ----------------------------------------
        .byte   W96
@ 078   ----------------------------------------
        .byte   W96
@ 079   ----------------------------------------
        .byte   W96
@ 080   ----------------------------------------
        .byte   W96
@ 081   ----------------------------------------
        .byte   W96
@ 082   ----------------------------------------
        .byte   W96
@ 083   ----------------------------------------
        .byte   W96
@ 084   ----------------------------------------
        .byte   W96
@ 085   ----------------------------------------
        .byte   W96
@ 086   ----------------------------------------
        .byte   W96
@ 087   ----------------------------------------
        .byte   W96
@ 088   ----------------------------------------
        .byte   W96
@ 089   ----------------------------------------
        .byte   W96
@ 090   ----------------------------------------
        .byte   W96
@ 091   ----------------------------------------
        .byte   W96
@ 092   ----------------------------------------
        .byte   W96
@ 093   ----------------------------------------
        .byte   W96
@ 094   ----------------------------------------
        .byte   W96
@ 095   ----------------------------------------
        .byte   W96
@ 096   ----------------------------------------
        .byte   W96
@ 097   ----------------------------------------
        .byte   W96
@ 098   ----------------------------------------
        .byte   W96
@ 099   ----------------------------------------
        .byte   W96
@ 100   ----------------------------------------
        .byte           N72   , Gs2 , v100
        .byte           N72   , Gs1
        .byte   W72
        .byte           N24   , Ds3
        .byte           N24   , Ds2
        .byte   W24
@ 101   ----------------------------------------
        .byte   PATT
         .word  mus_geese_test1_1_51
@ 102   ----------------------------------------
        .byte   PATT
         .word  mus_geese_test1_1_44
@ 103   ----------------------------------------
        .byte   PATT
         .word  mus_geese_test1_1_45
@ 104   ----------------------------------------
        .byte   PATT
         .word  mus_geese_test1_1_46
@ 105   ----------------------------------------
        .byte           N48   , Cn3 , v100
        .byte           N48   , Cn2
        .byte   W48
        .byte           N24   , Gs1
        .byte           N24   , Gs2
        .byte   W24
        .byte                   Fn2
        .byte           N24   , Fn1
        .byte   W24
@ 106   ----------------------------------------
        .byte   PATT
         .word  mus_geese_test1_1_106
@ 107   ----------------------------------------
        .byte   W96
@ 108   ----------------------------------------
        .byte           EOT   , Gn2
        .byte                   Gn1
        .byte           N72   , Gs2 , v100
        .byte           N72   , Gs1
        .byte   W72
        .byte           N24   , Ds3
        .byte           N24   , Ds2
        .byte   W24
@ 109   ----------------------------------------
        .byte   PATT
         .word  mus_geese_test1_10_43
@ 110   ----------------------------------------
        .byte           N72   , Bn2 , v100
        .byte           N72   , Bn1
        .byte   W72
        .byte           N24   , Gn2
        .byte           N24   , Gn3
        .byte   W24
@ 111   ----------------------------------------
        .byte                   Fn2
        .byte           N24   , Fn3
        .byte   W24
        .byte                   Ds3
        .byte           N24   , Ds2
        .byte   W24
        .byte                   Dn3
        .byte           N24   , Dn2
        .byte   W24
        .byte                   Cn2
        .byte           N24   , Cn3
        .byte   W24
@ 112   ----------------------------------------
        .byte           N72   , Ds2
        .byte           N72   , Ds3
        .byte   W72
        .byte           N24   , Dn2
        .byte           N24   , Dn3
        .byte   W24
@ 113   ----------------------------------------
        .byte           N18   , Fn2
        .byte           N18   , Fn3
        .byte   W18
        .byte                   Bn3
        .byte           N18   , Bn2
        .byte   W18
        .byte           N12   , Cn4
        .byte           N12   , Cn3
        .byte   W12
        .byte           N18   , Bn3
        .byte           N18   , Bn2
        .byte   W18
        .byte                   Gs2
        .byte           N18   , Gs3
        .byte   W18
        .byte           N12   , Gn2
        .byte           N12   , Gn3
        .byte   W12
@ 114   ----------------------------------------
        .byte           N72   , Bn3
        .byte           N72   , Bn2
        .byte   W72
        .byte           N06   , Cn2
        .byte           N06   , Cn3
        .byte   W06
        .byte                   En3
        .byte           N06   , En2
        .byte   W06
        .byte                   Gn2
        .byte           N06   , Gn3
        .byte   W06
        .byte                   As3
        .byte           N06   , As2
        .byte   W06
@ 115   ----------------------------------------
        .byte                   Bn2
        .byte           N06   , Bn3
        .byte   W06
        .byte                   Cn3
        .byte           N06   , Cn4
        .byte   W06
        .byte                   Bn2
        .byte           N06   , Bn3
        .byte   W06
        .byte                   Gs2
        .byte           N06   , Gs3
        .byte   W06
        .byte                   An3
        .byte           N06   , An2
        .byte   W06
        .byte                   Bn3
        .byte           N06   , Bn2
        .byte   W06
        .byte                   An2
        .byte           N06   , An3
        .byte   W06
        .byte                   Fs2
        .byte           N06   , Fs3
        .byte   W06
        .byte                   Gn3
        .byte           N06   , Gn2
        .byte   W06
        .byte                   Gs2
        .byte           N06   , Gs3
        .byte   W06
        .byte                   Gn3
        .byte           N06   , Gn2
        .byte   W06
        .byte                   Fn3
        .byte           N06   , Fn2
        .byte   W06
        .byte                   Fs2
        .byte           N06   , Fs3
        .byte   W06
        .byte                   Gn3
        .byte           N06   , Gn2
        .byte   W06
        .byte                   Fs3
        .byte           N06   , Fs2
        .byte   W06
        .byte                   Dn3
        .byte           N06   , Dn2
        .byte   W06
@ 116   ----------------------------------------
        .byte   W96
@ 117   ----------------------------------------
        .byte   W96
@ 118   ----------------------------------------
        .byte   W96
@ 119   ----------------------------------------
        .byte   W96
@ 120   ----------------------------------------
        .byte   W96
@ 121   ----------------------------------------
        .byte   W96
@ 122   ----------------------------------------
        .byte   W96
@ 123   ----------------------------------------
        .byte   W96
@ 124   ----------------------------------------
        .byte   W96
@ 125   ----------------------------------------
        .byte   W96
@ 126   ----------------------------------------
        .byte   W96
@ 127   ----------------------------------------
        .byte   W96
@ 128   ----------------------------------------
        .byte   W96
@ 129   ----------------------------------------
        .byte   W96
@ 130   ----------------------------------------
        .byte   W96
@ 131   ----------------------------------------
        .byte   W96
@ 132   ----------------------------------------
        .byte   W96
@ 133   ----------------------------------------
        .byte   W96
@ 134   ----------------------------------------
@        .byte   W96
@ 135   ----------------------------------------
        .byte   GOTO
        .word   mus_geese_test1_10_18
        .byte   FINE

@***************** Track 11 (Midi-Chn.14) *****************@

mus_geese_test1_11:
        .byte   KEYSH , mus_geese_test1_key+0
@ 000   ----------------------------------------
        .byte           VOICE , 29 @ Overdrive Guitar
        .byte           BENDR , 12
        .byte           VOL   , 60
        .byte   W96
@ 001   ----------------------------------------
        .byte   W96
@ 002   ----------------------------------------
        .byte   W96
@ 003   ----------------------------------------
        .byte   W96
@ 004   ----------------------------------------
        .byte   W96
@ 005   ----------------------------------------
        .byte   W96
@ 006   ----------------------------------------
        .byte   W96
@ 007   ----------------------------------------
        .byte   W96
@ 008   ----------------------------------------
        .byte   W96
@ 009   ----------------------------------------
        .byte   W96
@ 010   ----------------------------------------
        .byte   W96
@ 011   ----------------------------------------
        .byte   W96
@ 012   ----------------------------------------
        .byte   W96
@ 013   ----------------------------------------
        .byte   W96
@ 014   ----------------------------------------
        .byte   W96
@ 015   ----------------------------------------
        .byte   W96
@ 016   ----------------------------------------
        .byte   W96
@ 017   ----------------------------------------
        .byte   W96
@ 018   ----------------------------------------
mus_geese_test1_11_18:
        .byte           VOL   , 60
        .byte   W96
@ 019   ----------------------------------------
        .byte   W96
@ 020   ----------------------------------------
        .byte   W96
@ 021   ----------------------------------------
        .byte   W96
@ 022   ----------------------------------------
        .byte   W96
@ 023   ----------------------------------------
        .byte   W96
@ 024   ----------------------------------------
        .byte   W96
@ 025   ----------------------------------------
        .byte   W96
@ 026   ----------------------------------------
        .byte   W96
@ 027   ----------------------------------------
        .byte   W96
@ 028   ----------------------------------------
        .byte   W96
@ 029   ----------------------------------------
        .byte   W96
@ 030   ----------------------------------------
        .byte   W96
@ 031   ----------------------------------------
        .byte   W96
@ 032   ----------------------------------------
        .byte   W96
@ 033   ----------------------------------------
        .byte   W96
@ 034   ----------------------------------------
        .byte   W96
@ 035   ----------------------------------------
        .byte   W96
@ 036   ----------------------------------------
        .byte   W96
@ 037   ----------------------------------------
        .byte   W96
@ 038   ----------------------------------------
        .byte   W96
@ 039   ----------------------------------------
        .byte   W96
@ 040   ----------------------------------------
        .byte   W96
@ 041   ----------------------------------------
        .byte   W96
@ 042   ----------------------------------------
        .byte   W12
        .byte           N72   , Gs2 , v100
        .byte           N72   , Gs1
        .byte   W72
        .byte           N24   , Ds3
        .byte           N24   , Ds2
        .byte   W12
@ 043   ----------------------------------------
        .byte   W12
        .byte                   Dn3
        .byte           N24   , Dn2
        .byte   W24
        .byte                   Cn3
        .byte           N24   , Cn2
        .byte   W24
        .byte                   As1
        .byte           N24   , As2
        .byte   W24
        .byte                   Cn2
        .byte           N24   , Cn3
        .byte   W12
@ 044   ----------------------------------------
mus_geese_test1_11_44:
        .byte   W12
        .byte           N72   , Bn1 , v100
        .byte           N72   , Bn2
        .byte   W72
        .byte           N24   , Gn3
        .byte           N24   , Gn2
        .byte   W12
        .byte   PEND
@ 045   ----------------------------------------
        .byte   W12
        .byte                   Fn2
        .byte           N24   , Fn3
        .byte   W24
        .byte                   Ds3
        .byte           N24   , Ds2
        .byte   W24
        .byte                   Dn3
        .byte           N24   , Dn2
        .byte   W24
        .byte                   Cn3
        .byte           N24   , Cn2
        .byte   W12
@ 046   ----------------------------------------
        .byte   W12
        .byte           N72   , Ds2
        .byte           N72   , Ds3
        .byte   W72
        .byte           N12   , Dn3
        .byte           N12   , Dn2
        .byte   W12
@ 047   ----------------------------------------
        .byte                   Ds2
        .byte           N12   , Ds3
        .byte   W12
        .byte           N48   , Cn3
        .byte           N48   , Cn2
        .byte   W48
        .byte           N24   , Gs1
        .byte           N24   , Gs2
        .byte   W24
        .byte                   Fn1
        .byte           N24   , Fn2
        .byte   W12
@ 048   ----------------------------------------
        .byte   W12
        .byte           TIE   , Gn2
        .byte           TIE   , Gn1
        .byte   W84
@ 049   ----------------------------------------
        .byte   W96
@ 050   ----------------------------------------
        .byte   W12
        .byte           EOT
        .byte           EOT   , Gn2
        .byte           N72   , Gs2
        .byte           N72   , Gs1
        .byte   W72
        .byte           N24   , Ds2
        .byte           N24   , Ds3
        .byte   W12
@ 051   ----------------------------------------
        .byte   W12
        .byte                   Dn3
        .byte           N24   , Dn2
        .byte   W24
        .byte                   Cn2
        .byte           N24   , Cn3
        .byte   W24
        .byte                   As1
        .byte           N24   , As2
        .byte   W24
        .byte                   Cn2
        .byte           N24   , Cn3
        .byte   W12
@ 052   ----------------------------------------
        .byte   W12
        .byte           N72   , Bn2
        .byte           N72   , Bn1
        .byte   W72
        .byte           N24   , Gn3
        .byte           N24   , Gn2
        .byte   W12
@ 053   ----------------------------------------
        .byte   W12
        .byte                   Fn2
        .byte           N24   , Fn3
        .byte   W24
        .byte                   Ds3
        .byte           N24   , Ds2
        .byte   W24
        .byte                   Dn2
        .byte           N24   , Dn3
        .byte   W24
        .byte                   Cn3
        .byte           N24   , Cn2
        .byte   W12
@ 054   ----------------------------------------
        .byte   W12
        .byte           N72   , Ds3
        .byte           N72   , Ds2
        .byte   W72
        .byte           N24   , Dn2
        .byte           N24   , Dn3
        .byte   W12
@ 055   ----------------------------------------
        .byte   W12
        .byte           N18   , Fn3
        .byte           N18   , Fn2
        .byte   W18
        .byte                   Bn2
        .byte           N18   , Bn3
        .byte   W18
        .byte           N12   , Cn4
        .byte           N12   , Cn3
        .byte   W12
        .byte           N18   , Bn2
        .byte           N18   , Bn3
        .byte   W18
        .byte                   Gs3
        .byte           N18   , Gs2
        .byte   W18
@ 056   ----------------------------------------
        .byte           N12   , Gn2
        .byte           N12   , Gn3
        .byte   W12
        .byte           N72   , Bn2
        .byte           N72   , Bn3
        .byte   W72
        .byte           N06   , Cn2
        .byte           N06   , Cn3
        .byte   W06
        .byte                   En3
        .byte           N06   , En2
        .byte   W06
@ 057   ----------------------------------------
        .byte                   Gn2
        .byte           N06   , Gn3
        .byte   W06
        .byte                   As2
        .byte           N06   , As3
        .byte   W06
        .byte                   Bn2
        .byte           N06   , Bn3
        .byte   W06
        .byte                   Cn3
        .byte           N06   , Cn4
        .byte   W06
        .byte                   Bn3
        .byte           N06   , Bn2
        .byte   W06
        .byte                   Gs3
        .byte           N06   , Gs2
        .byte   W06
        .byte                   An2
        .byte           N06   , An3
        .byte   W06
        .byte                   Bn2
        .byte           N06   , Bn3
        .byte   W06
        .byte                   An3
        .byte           N06   , An2
        .byte   W06
        .byte                   Fs2
        .byte           N06   , Fs3
        .byte   W06
        .byte                   Gn3
        .byte           N06   , Gn2
        .byte   W06
        .byte                   Gs3
        .byte           N06   , Gs2
        .byte   W06
        .byte                   Gn2
        .byte           N06   , Gn3
        .byte   W06
        .byte                   Fn3
        .byte           N06   , Fn2
        .byte   W06
        .byte                   Fs3
        .byte           N06   , Fs2
        .byte   W06
        .byte                   Gn3
        .byte           N06   , Gn2
        .byte   W06
@ 058   ----------------------------------------
mus_geese_test1_11_58:
        .byte           N06   , Fs2 , v100
        .byte           N06   , Fs3
        .byte   W06
        .byte                   Dn2
        .byte           N06   , Dn3
        .byte   W90
        .byte   PEND
@ 059   ----------------------------------------
        .byte   W96
@ 060   ----------------------------------------
        .byte   W96
@ 061   ----------------------------------------
        .byte   W96
@ 062   ----------------------------------------
        .byte   W96
@ 063   ----------------------------------------
        .byte   W96
@ 064   ----------------------------------------
        .byte   W96
@ 065   ----------------------------------------
        .byte   W96
@ 066   ----------------------------------------
        .byte   W96
@ 067   ----------------------------------------
        .byte   W96
@ 068   ----------------------------------------
        .byte   W96
@ 069   ----------------------------------------
        .byte   W96
@ 070   ----------------------------------------
        .byte   W96
@ 071   ----------------------------------------
        .byte   W96
@ 072   ----------------------------------------
        .byte   W96
@ 073   ----------------------------------------
        .byte   W96
@ 074   ----------------------------------------
        .byte   W96
@ 075   ----------------------------------------
        .byte   W96
@ 076   ----------------------------------------
        .byte   W96
@ 077   ----------------------------------------
        .byte   W96
@ 078   ----------------------------------------
        .byte   W96
@ 079   ----------------------------------------
        .byte   W96
@ 080   ----------------------------------------
        .byte   W96
@ 081   ----------------------------------------
        .byte   W96
@ 082   ----------------------------------------
        .byte   W96
@ 083   ----------------------------------------
        .byte   W96
@ 084   ----------------------------------------
        .byte   W96
@ 085   ----------------------------------------
        .byte   W96
@ 086   ----------------------------------------
        .byte   W96
@ 087   ----------------------------------------
        .byte   W96
@ 088   ----------------------------------------
        .byte   W96
@ 089   ----------------------------------------
        .byte   W96
@ 090   ----------------------------------------
        .byte   W96
@ 091   ----------------------------------------
        .byte   W96
@ 092   ----------------------------------------
        .byte   W96
@ 093   ----------------------------------------
        .byte   W96
@ 094   ----------------------------------------
        .byte   W96
@ 095   ----------------------------------------
        .byte   W96
@ 096   ----------------------------------------
        .byte   W96
@ 097   ----------------------------------------
        .byte   W96
@ 098   ----------------------------------------
        .byte   W96
@ 099   ----------------------------------------
        .byte   W96
@ 100   ----------------------------------------
        .byte   W12
        .byte           N72   , Gs1
        .byte           N72   , Gs2
        .byte   W72
        .byte           N24   , Ds2
        .byte           N24   , Ds3
        .byte   W12
@ 101   ----------------------------------------
        .byte   W12
        .byte                   Dn3
        .byte           N24   , Dn2
        .byte   W24
        .byte                   Cn3
        .byte           N24   , Cn2
        .byte   W24
        .byte                   As1
        .byte           N24   , As2
        .byte   W24
        .byte                   Cn3
        .byte           N24   , Cn2
        .byte   W12
@ 102   ----------------------------------------
        .byte   W12
        .byte           N72   , Bn1
        .byte           N72   , Bn2
        .byte   W72
        .byte           N24   , Gn2
        .byte           N24   , Gn3
        .byte   W12
@ 103   ----------------------------------------
        .byte   W12
        .byte                   Fn3
        .byte           N24   , Fn2
        .byte   W24
        .byte                   Ds3
        .byte           N24   , Ds2
        .byte   W24
        .byte                   Dn2
        .byte           N24   , Dn3
        .byte   W24
        .byte                   Cn2
        .byte           N24   , Cn3
        .byte   W12
@ 104   ----------------------------------------
        .byte   W12
        .byte           N72   , Ds2
        .byte           N72   , Ds3
        .byte   W72
        .byte           N12   , Dn2
        .byte           N12   , Dn3
        .byte   W12
@ 105   ----------------------------------------
        .byte                   Ds2
        .byte           N12   , Ds3
        .byte   W12
        .byte           N48   , Cn2
        .byte           N48   , Cn3
        .byte   W48
        .byte           N24   , Gs2
        .byte           N24   , Gs1
        .byte   W24
        .byte                   Fn1
        .byte           N24   , Fn2
        .byte   W12
@ 106   ----------------------------------------
        .byte   W12
        .byte           TIE   , Gn1
        .byte           TIE   , Gn2
        .byte   W84
@ 107   ----------------------------------------
        .byte   W96
@ 108   ----------------------------------------
        .byte   W12
        .byte           EOT
        .byte           EOT   , Gn1
        .byte           N72   , Gs1
        .byte           N72   , Gs2
        .byte   W72
        .byte           N24   , Ds2
        .byte           N24   , Ds3
        .byte   W12
@ 109   ----------------------------------------
        .byte   W12
        .byte                   Dn2
        .byte           N24   , Dn3
        .byte   W24
        .byte                   Cn2
        .byte           N24   , Cn3
        .byte   W24
        .byte                   As2
        .byte           N24   , As1
        .byte   W24
        .byte                   Cn2
        .byte           N24   , Cn3
        .byte   W12
@ 110   ----------------------------------------
        .byte   PATT
         .word  mus_geese_test1_11_44
@ 111   ----------------------------------------
        .byte   W12
        .byte           N24   , Fn3 , v100
        .byte           N24   , Fn2
        .byte   W24
        .byte                   Ds3
        .byte           N24   , Ds2
        .byte   W24
        .byte                   Dn2
        .byte           N24   , Dn3
        .byte   W24
        .byte                   Cn3
        .byte           N24   , Cn2
        .byte   W12
@ 112   ----------------------------------------
        .byte   W12
        .byte           N72   , Ds3
        .byte           N72   , Ds2
        .byte   W72
        .byte           N24   , Dn3
        .byte           N24   , Dn2
        .byte   W12
@ 113   ----------------------------------------
        .byte   W12
        .byte           N18   , Fn3
        .byte           N18   , Fn2
        .byte   W18
        .byte                   Bn2
        .byte           N18   , Bn3
        .byte   W18
        .byte           N12   , Cn3
        .byte           N12   , Cn4
        .byte   W12
        .byte           N18   , Bn2
        .byte           N18   , Bn3
        .byte   W18
        .byte                   Gs3
        .byte           N18   , Gs2
        .byte   W18
@ 114   ----------------------------------------
        .byte           N12   , Gn3
        .byte           N12   , Gn2
        .byte   W12
        .byte           N72   , Bn2
        .byte           N72   , Bn3
        .byte   W72
        .byte           N06   , Cn3
        .byte           N06   , Cn2
        .byte   W06
        .byte                   En2
        .byte           N06   , En3
        .byte   W06
@ 115   ----------------------------------------
        .byte                   Gn3
        .byte           N06   , Gn2
        .byte   W06
        .byte                   As2
        .byte           N06   , As3
        .byte   W06
        .byte                   Bn3
        .byte           N06   , Bn2
        .byte   W06
        .byte                   Cn4
        .byte           N06   , Cn3
        .byte   W06
        .byte                   Bn3
        .byte           N06   , Bn2
        .byte   W06
        .byte                   Gs3
        .byte           N06   , Gs2
        .byte   W06
        .byte                   An2
        .byte           N06   , An3
        .byte   W06
        .byte                   Bn2
        .byte           N06   , Bn3
        .byte   W06
        .byte                   An3
        .byte           N06   , An2
        .byte   W06
        .byte                   Fs3
        .byte           N06   , Fs2
        .byte   W06
        .byte                   Gn2
        .byte           N06   , Gn3
        .byte   W06
        .byte                   Gs3
        .byte           N06   , Gs2
        .byte   W06
        .byte                   Gn2
        .byte           N06   , Gn3
        .byte   W06
        .byte                   Fn2
        .byte           N06   , Fn3
        .byte   W06
        .byte                   Fs3
        .byte           N06   , Fs2
        .byte   W06
        .byte                   Gn2
        .byte           N06   , Gn3
        .byte   W06
@ 116   ----------------------------------------
        .byte   PATT
         .word  mus_geese_test1_11_58
@ 117   ----------------------------------------
        .byte   W96
@ 118   ----------------------------------------
        .byte   W96
@ 119   ----------------------------------------
        .byte   W96
@ 120   ----------------------------------------
        .byte   W96
@ 121   ----------------------------------------
        .byte   W96
@ 122   ----------------------------------------
        .byte   W96
@ 123   ----------------------------------------
        .byte   W96
@ 124   ----------------------------------------
        .byte   W96
@ 125   ----------------------------------------
        .byte   W96
@ 126   ----------------------------------------
        .byte   W96
@ 127   ----------------------------------------
        .byte   W96
@ 128   ----------------------------------------
        .byte   W96
@ 129   ----------------------------------------
        .byte   W96
@ 130   ----------------------------------------
        .byte   W96
@ 131   ----------------------------------------
        .byte   W96
@ 132   ----------------------------------------
        .byte   W96
@ 133   ----------------------------------------
        .byte   W96
@ 134   ----------------------------------------
@        .byte   W96
@ 135   ----------------------------------------
        .byte   GOTO
        .word   mus_geese_test1_11_18
        .byte   FINE

@***************** Track 12 (Midi-Chn.15) *****************@

mus_geese_test1_12:
        .byte   KEYSH , mus_geese_test1_key+0
@ 000   ----------------------------------------
        .byte           VOICE , 19 @ Church Organ 1
        .byte           BENDR , 12
        .byte           VOL   , 89
        .byte   W96
@ 001   ----------------------------------------
        .byte   W96
@ 002   ----------------------------------------
        .byte   W96
@ 003   ----------------------------------------
        .byte   W96
@ 004   ----------------------------------------
        .byte   W96
@ 005   ----------------------------------------
        .byte   W96
@ 006   ----------------------------------------
        .byte   W96
@ 007   ----------------------------------------
        .byte   W96
@ 008   ----------------------------------------
        .byte   W96
@ 009   ----------------------------------------
        .byte   W96
@ 010   ----------------------------------------
        .byte   W96
@ 011   ----------------------------------------
        .byte   W96
@ 012   ----------------------------------------
        .byte   W96
@ 013   ----------------------------------------
        .byte   W96
@ 014   ----------------------------------------
        .byte   W96
@ 015   ----------------------------------------
        .byte   W96
@ 016   ----------------------------------------
        .byte   W96
@ 017   ----------------------------------------
        .byte   W96
@ 018   ----------------------------------------
mus_geese_test1_12_18:
        .byte           VOL   , 89
        .byte   W96
@ 019   ----------------------------------------
        .byte   W96
@ 020   ----------------------------------------
        .byte   W96
@ 021   ----------------------------------------
        .byte   W96
@ 022   ----------------------------------------
        .byte   W96
@ 023   ----------------------------------------
        .byte   W96
@ 024   ----------------------------------------
        .byte   W96
@ 025   ----------------------------------------
        .byte   W96
@ 026   ----------------------------------------
        .byte   W96
@ 027   ----------------------------------------
        .byte   W96
@ 028   ----------------------------------------
        .byte   W96
@ 029   ----------------------------------------
        .byte   W96
@ 030   ----------------------------------------
        .byte   W96
@ 031   ----------------------------------------
        .byte   W96
@ 032   ----------------------------------------
        .byte   W96
@ 033   ----------------------------------------
        .byte   W96
@ 034   ----------------------------------------
        .byte   W96
@ 035   ----------------------------------------
        .byte   W96
@ 036   ----------------------------------------
        .byte   W96
@ 037   ----------------------------------------
        .byte   W96
@ 038   ----------------------------------------
        .byte   W96
@ 039   ----------------------------------------
        .byte   W96
@ 040   ----------------------------------------
        .byte   W96
@ 041   ----------------------------------------
        .byte   W96
@ 042   ----------------------------------------
mus_geese_test1_12_42:
        .byte           TIE   , Fn4 , v100
        .byte           TIE   , Cn4
        .byte           TIE   , Gs3
        .byte   W96
        .byte   PEND
@ 043   ----------------------------------------
        .byte   W96
@ 044   ----------------------------------------
mus_geese_test1_12_44:
        .byte           EOT   , Fn4
        .byte                   Cn4
        .byte                   Gs3
        .byte           TIE   , Bn3 , v100
        .byte           TIE   , Dn4
        .byte           TIE   , Gn4
        .byte   W96
        .byte   PEND
@ 045   ----------------------------------------
        .byte   W96
@ 046   ----------------------------------------
mus_geese_test1_12_46:
        .byte           EOT   , Bn3
        .byte                   Dn4
        .byte                   Gn4
        .byte           N72   , Cn4 , v100
        .byte           N72   , Ds4
        .byte           N72   , Gs4
        .byte   W72
        .byte           N24   , Fn4
        .byte           N24   , Dn4
        .byte           N24   , Cn4
        .byte   W24
        .byte   PEND
@ 047   ----------------------------------------
mus_geese_test1_12_47:
        .byte           N96   , Ds4 , v100
        .byte           N96   , Cn4
        .byte           N96   , Gs3
        .byte   W96
        .byte   PEND
@ 048   ----------------------------------------
mus_geese_test1_12_48:
        .byte           TIE   , Cn4 , v100
        .byte           TIE   , Gn3
        .byte           TIE   , Cn3
        .byte   W96
        .byte   PEND
@ 049   ----------------------------------------
        .byte   W96
@ 050   ----------------------------------------
mus_geese_test1_12_50:
        .byte           EOT   , Gn3
        .byte                   Cn4
        .byte                   Cn3
        .byte           TIE   , Fn4 , v100
        .byte           TIE   , Cn4
        .byte           TIE   , Gs3
        .byte   W96
        .byte   PEND
@ 051   ----------------------------------------
        .byte   W96
@ 052   ----------------------------------------
mus_geese_test1_12_52:
        .byte           EOT   , Cn4
        .byte                   Fn4
        .byte                   Gs3
        .byte           TIE   , Bn3 , v100
        .byte           TIE   , Dn4
        .byte           TIE   , Gn4
        .byte   W96
        .byte   PEND
@ 053   ----------------------------------------
        .byte   W96
@ 054   ----------------------------------------
mus_geese_test1_12_54:
        .byte           EOT   , Bn3
        .byte                   Gn4
        .byte                   Dn4
        .byte           TIE   , Fn4 , v100
        .byte           TIE   , Cn4
        .byte           TIE   , Gs3
        .byte   W96
        .byte   PEND
@ 055   ----------------------------------------
        .byte   W96
@ 056   ----------------------------------------
mus_geese_test1_12_56:
        .byte           EOT   , Gs3
        .byte                   Fn4
        .byte                   Cn4
        .byte           TIE   , Bn3 , v100
        .byte           TIE   , Dn4
        .byte           TIE   , Gn4
        .byte   W96
        .byte   PEND
@ 057   ----------------------------------------
        .byte   W96
@ 058   ----------------------------------------
        .byte           EOT
        .byte           EOT   , Bn3
        .byte                   Dn4
        .byte           TIE   , Cn4
        .byte           TIE   , Gn3
        .byte           TIE   , Cn3
        .byte   W96
@ 059   ----------------------------------------
        .byte   W96
@ 060   ----------------------------------------
mus_geese_test1_12_60:
        .byte           EOT   , Cn3
        .byte                   Gn3
        .byte                   Cn4
        .byte           TIE   , Fn3 , v100
        .byte           TIE   , Cn3
        .byte           TIE   , Fn2
        .byte   W96
        .byte   PEND
@ 061   ----------------------------------------
        .byte   W96
@ 062   ----------------------------------------
mus_geese_test1_12_62:
        .byte           EOT   , Cn3
        .byte                   Fn3
        .byte                   Fn2
        .byte           TIE   , Cn4 , v100
        .byte           TIE   , Gn3
        .byte           TIE   , Cn3
        .byte   W96
        .byte   PEND
@ 063   ----------------------------------------
        .byte   W96
@ 064   ----------------------------------------
mus_geese_test1_12_64:
        .byte           EOT   , Cn3
        .byte                   Gn3
        .byte                   Cn4
        .byte           TIE   , Fn2 , v100
        .byte           TIE   , Cn3
        .byte           TIE   , Fn3
        .byte   W96
        .byte   PEND
@ 065   ----------------------------------------
        .byte   W96
@ 066   ----------------------------------------
mus_geese_test1_12_66:
        .byte           EOT   , Cn3
        .byte                   Fn2
        .byte                   Fn3
        .byte           TIE   , Gn3 , v100
        .byte           TIE   , Dn4
        .byte           TIE   , Dn3
        .byte   W96
        .byte   PEND
@ 067   ----------------------------------------
        .byte   W96
@ 068   ----------------------------------------
mus_geese_test1_12_68:
        .byte           EOT   , Gn3
        .byte                   Dn4
        .byte                   Dn3
        .byte           TIE   , Cn3 , v100
        .byte           TIE   , Gn3
        .byte           TIE   , Gn2
        .byte   W96
        .byte   PEND
@ 069   ----------------------------------------
        .byte   W96
@ 070   ----------------------------------------
        .byte           VOL   , 87
        .byte   W06
        .byte                   86
        .byte   W06
        .byte                   85
        .byte   W12
        .byte                   83
        .byte   W06
        .byte                   81
        .byte   W06
        .byte                   80
        .byte   W06
        .byte                   79
        .byte   W06
        .byte                   78
        .byte   W12
        .byte                   77
        .byte   W06
        .byte                   75
        .byte   W06
        .byte                   74
        .byte   W06
        .byte                   72
        .byte   W12
        .byte                   71
        .byte   W06
@ 071   ----------------------------------------
        .byte                   70
        .byte   W12
        .byte                   69
        .byte   W12
        .byte                   68
        .byte   W06
        .byte                   67
        .byte   W06
        .byte                   66
        .byte   W06
        .byte                   65
        .byte   W18
        .byte                   64
        .byte   W06
        .byte                   63
        .byte   W06
        .byte                   62
        .byte   W06
        .byte                   61
        .byte   W06
        .byte                   60
        .byte   W06
        .byte                   59
        .byte   W06
@ 072   ----------------------------------------
        .byte           EOT
        .byte           EOT   , Cn3
        .byte                   Gn3
        .byte           VOL   , 58
        .byte   W96
@ 073   ----------------------------------------
        .byte   W96
@ 074   ----------------------------------------
        .byte   W96
@ 075   ----------------------------------------
        .byte   W96
@ 076   ----------------------------------------
        .byte   W96
@ 077   ----------------------------------------
        .byte   W96
@ 078   ----------------------------------------
        .byte   W96
@ 079   ----------------------------------------
        .byte   W96
@ 080   ----------------------------------------
        .byte   W96
@ 081   ----------------------------------------
        .byte   W96
@ 082   ----------------------------------------
        .byte   W96
@ 083   ----------------------------------------
        .byte   W96
@ 084   ----------------------------------------
        .byte   W96
@ 085   ----------------------------------------
        .byte   W96
@ 086   ----------------------------------------
        .byte   W96
@ 087   ----------------------------------------
        .byte   W96
@ 088   ----------------------------------------
        .byte   W96
@ 089   ----------------------------------------
        .byte   W96
@ 090   ----------------------------------------
        .byte   W96
@ 091   ----------------------------------------
        .byte   W96
@ 092   ----------------------------------------
        .byte   W96
@ 093   ----------------------------------------
        .byte   W96
@ 094   ----------------------------------------
        .byte   W96
@ 095   ----------------------------------------
        .byte   W96
@ 096   ----------------------------------------
        .byte   W96
@ 097   ----------------------------------------
        .byte   W96
@ 098   ----------------------------------------
        .byte   W96
@ 099   ----------------------------------------
        .byte   W96
@ 100   ----------------------------------------
        .byte   PATT
         .word  mus_geese_test1_12_42
@ 101   ----------------------------------------
        .byte   W96
@ 102   ----------------------------------------
        .byte   PATT
         .word  mus_geese_test1_12_44
@ 103   ----------------------------------------
        .byte   W96
@ 104   ----------------------------------------
        .byte   PATT
         .word  mus_geese_test1_12_46
@ 105   ----------------------------------------
        .byte   PATT
         .word  mus_geese_test1_12_47
@ 106   ----------------------------------------
        .byte   PATT
         .word  mus_geese_test1_12_48
@ 107   ----------------------------------------
        .byte   W96
@ 108   ----------------------------------------
        .byte   PATT
         .word  mus_geese_test1_12_50
@ 109   ----------------------------------------
        .byte   W96
@ 110   ----------------------------------------
        .byte   PATT
         .word  mus_geese_test1_12_52
@ 111   ----------------------------------------
        .byte   W96
@ 112   ----------------------------------------
        .byte   PATT
         .word  mus_geese_test1_12_54
@ 113   ----------------------------------------
        .byte   W96
@ 114   ----------------------------------------
        .byte   PATT
         .word  mus_geese_test1_12_56
@ 115   ----------------------------------------
        .byte   W96
@ 116   ----------------------------------------
        .byte           EOT   , Bn3
        .byte                   Gn4
        .byte                   Dn4
        .byte           TIE   , Cn4 , v100
        .byte           TIE   , Gn3
        .byte           TIE   , Cn3
        .byte   W96
@ 117   ----------------------------------------
        .byte   W96
@ 118   ----------------------------------------
        .byte   PATT
         .word  mus_geese_test1_12_60
@ 119   ----------------------------------------
        .byte   W96
@ 120   ----------------------------------------
        .byte   PATT
         .word  mus_geese_test1_12_62
@ 121   ----------------------------------------
        .byte   W96
@ 122   ----------------------------------------
        .byte   PATT
         .word  mus_geese_test1_12_64
@ 123   ----------------------------------------
        .byte   W96
@ 124   ----------------------------------------
        .byte   PATT
         .word  mus_geese_test1_12_66
@ 125   ----------------------------------------
        .byte   W96
@ 126   ----------------------------------------
        .byte   PATT
         .word  mus_geese_test1_12_68
@ 127   ----------------------------------------
        .byte   W96
@ 128   ----------------------------------------
        .byte   W96
@ 129   ----------------------------------------
        .byte   W96
@ 130   ----------------------------------------
        .byte           EOT   , Cn3
        .byte                   Gn2
        .byte                   Gn3
        .byte   W96
@ 131   ----------------------------------------
        .byte   W96
@ 132   ----------------------------------------
        .byte   W96
@ 133   ----------------------------------------
        .byte   W96
@ 134   ----------------------------------------
@        .byte   W96
@ 135   ----------------------------------------
        .byte   GOTO
        .word   mus_geese_test1_12_18
        .byte   FINE


@********************** End of Song ***********************@

        .align  2
mus_geese_test1:
        .byte   13                      @ Num Tracks
        .byte   0                       @ Unknown
        .byte   mus_geese_test1_pri     @ Priority
        .byte   mus_geese_test1_rev     @ Reverb

        .word   mus_geese_test1_grp    

        .word   mus_geese_test1_0
        .word   mus_geese_test1_1
        .word   mus_geese_test1_2
        .word   mus_geese_test1_3
        .word   mus_geese_test1_4
        .word   mus_geese_test1_5
        .word   mus_geese_test1_6
        .word   mus_geese_test1_7
        .word   mus_geese_test1_8
        .word   mus_geese_test1_9
        .word   mus_geese_test1_10
        .word   mus_geese_test1_11
        .word   mus_geese_test1_12

        .end
