        .include "MPlayDef.s"

        .equ    mus_thppme_347_wind_god_girl_grp, voicegroup_rg_sevii_route
        .equ    mus_thppme_347_wind_god_girl_pri, 0
        .equ    mus_thppme_347_wind_god_girl_rev, reverb_set+50
        .equ    mus_thppme_347_wind_god_girl_key, 0

        .section .rodata
        .global mus_thppme_347_wind_god_girl
        .align  2

@****************** Track 0 (Midi-Chn.9) ******************@

mus_thppme_347_wind_god_girl_0:
        .byte   KEYSH , mus_thppme_347_wind_god_girl_key+0
@ 000   ----------------------------------------
        .byte   TEMPO , 144/2
        .byte           VOICE , 0
        .byte           VOL   , 100
        .byte           N01   , Cs2 , v100
        .byte   W18
        .byte                   An2
        .byte   W18
        .byte                   Cs2
        .byte   W18
        .byte                   An2
        .byte   W18
        .byte                   An2
        .byte   W12
        .byte                   An2
        .byte   W12
@ 001   ----------------------------------------
        .byte                   En1
        .byte           N01   , Cs2
        .byte   W12
        .byte                   En1
        .byte   W12
        .byte                   Dn1
        .byte   W06
        .byte                   En1
        .byte   W12
        .byte                   En1
        .byte   W12
        .byte                   Dn1
        .byte   W06
        .byte                   En1
        .byte   W12
        .byte                   Dn1
        .byte   W24
@ 002   ----------------------------------------
mus_thppme_347_wind_god_girl_0_2:
        .byte           N01   , Cn1 , v100
        .byte   W12
        .byte                   Dn1 , v080
        .byte   W12
        .byte                   Cn1 , v100
        .byte   W12
        .byte                   Dn1 , v080
        .byte   W12
        .byte                   Cn1 , v100
        .byte   W12
        .byte                   Dn1 , v080
        .byte   W12
        .byte                   Cn1 , v100
        .byte   W12
        .byte                   Dn1 , v080
        .byte   W12
        .byte   PEND
@ 003   ----------------------------------------
        .byte   PATT
         .word  mus_thppme_347_wind_god_girl_0_2
@ 004   ----------------------------------------
        .byte   PATT
         .word  mus_thppme_347_wind_god_girl_0_2
@ 005   ----------------------------------------
mus_thppme_347_wind_god_girl_0_LOOP:
        .byte           N01   , Cn1 , v100
        .byte   W12
        .byte                   Dn1 , v080
        .byte   W12
        .byte                   Cn1 , v100
        .byte   W12
        .byte                   Dn1 , v080
        .byte   W12
        .byte                   Cn1 , v100
        .byte   W12
        .byte                   Dn1 , v080
        .byte   W12
        .byte                   Cn1 , v100
        .byte   W12
        .byte                   Dn1 , v080
        .byte   W12
@ 006   ----------------------------------------
        .byte   PATT
         .word  mus_thppme_347_wind_god_girl_0_2
@ 007   ----------------------------------------
        .byte   PATT
         .word  mus_thppme_347_wind_god_girl_0_2
@ 008   ----------------------------------------
        .byte   PATT
         .word  mus_thppme_347_wind_god_girl_0_2
@ 009   ----------------------------------------
        .byte           N01   , Cn1 , v100
        .byte   W12
        .byte                   Dn1 , v080
        .byte   W12
        .byte                   Cn1 , v100
        .byte   W12
        .byte                   Dn1 , v080
        .byte   W12
        .byte                   Cn1 , v100
        .byte   W06
        .byte                   Dn1 , v080
        .byte   W06
        .byte                   Dn1
        .byte   W06
        .byte                   Dn1
        .byte   W06
        .byte                   Dn1
        .byte   W06
        .byte                   Dn1
        .byte   W06
        .byte                   Dn1
        .byte   W06
        .byte                   Dn1
        .byte   W06
@ 010   ----------------------------------------
        .byte   PATT
         .word  mus_thppme_347_wind_god_girl_0_2
@ 011   ----------------------------------------
        .byte   PATT
         .word  mus_thppme_347_wind_god_girl_0_2
@ 012   ----------------------------------------
        .byte   PATT
         .word  mus_thppme_347_wind_god_girl_0_2
@ 013   ----------------------------------------
        .byte   PATT
         .word  mus_thppme_347_wind_god_girl_0_2
@ 014   ----------------------------------------
        .byte   PATT
         .word  mus_thppme_347_wind_god_girl_0_2
@ 015   ----------------------------------------
        .byte   PATT
         .word  mus_thppme_347_wind_god_girl_0_2
@ 016   ----------------------------------------
        .byte   PATT
         .word  mus_thppme_347_wind_god_girl_0_2
@ 017   ----------------------------------------
        .byte           N01   , Cn1 , v100
        .byte   W12
        .byte                   Dn1 , v080
        .byte   W12
        .byte                   Cn1 , v100
        .byte   W12
        .byte                   Dn1 , v080
        .byte   W12
        .byte                   Cn1 , v100
        .byte           N01   , Cs2
        .byte   W12
        .byte                   Dn1 , v080
        .byte   W06
        .byte                   Cs2 , v100
        .byte   W06
        .byte                   Cn1
        .byte   W12
        .byte                   Dn1 , v080
        .byte           N01   , Cs2 , v100
        .byte   W12
@ 018   ----------------------------------------
        .byte   PATT
         .word  mus_thppme_347_wind_god_girl_0_2
@ 019   ----------------------------------------
        .byte   PATT
         .word  mus_thppme_347_wind_god_girl_0_2
@ 020   ----------------------------------------
        .byte   PATT
         .word  mus_thppme_347_wind_god_girl_0_2
@ 021   ----------------------------------------
        .byte   PATT
         .word  mus_thppme_347_wind_god_girl_0_2
@ 022   ----------------------------------------
        .byte   PATT
         .word  mus_thppme_347_wind_god_girl_0_2
@ 023   ----------------------------------------
        .byte   PATT
         .word  mus_thppme_347_wind_god_girl_0_2
@ 024   ----------------------------------------
        .byte           N01   , Cn1 , v100
        .byte   W12
        .byte                   Dn1 , v080
        .byte   W12
        .byte                   Cn1 , v100
        .byte   W12
        .byte                   Dn1 , v080
        .byte   W12
        .byte                   Cn1 , v100
        .byte   W12
        .byte                   Dn1 , v080
        .byte           N01   , Cs2 , v060
        .byte   W12
        .byte                   Dn1 , v080
        .byte           N01   , Cs2
        .byte   W12
        .byte                   Dn1
        .byte           N01   , Cs2 , v100
        .byte   W12
@ 025   ----------------------------------------
        .byte                   Cn1
        .byte           N01   , Dn1 , v080
        .byte           N01   , En1 , v100
        .byte           N01   , Cs2
        .byte   W24
        .byte                   Cn1
        .byte   W24
        .byte                   Cn1
        .byte   W12
        .byte                   Dn1
        .byte   W12
        .byte                   Cn1
        .byte   W12
        .byte                   Dn1
        .byte   W12
@ 026   ----------------------------------------
        .byte   PATT
         .word  mus_thppme_347_wind_god_girl_0_2
@ 027   ----------------------------------------
        .byte   PATT
         .word  mus_thppme_347_wind_god_girl_0_2
@ 028   ----------------------------------------
        .byte   PATT
         .word  mus_thppme_347_wind_god_girl_0_2
@ 029   ----------------------------------------
        .byte   PATT
         .word  mus_thppme_347_wind_god_girl_0_2
@ 030   ----------------------------------------
        .byte   PATT
         .word  mus_thppme_347_wind_god_girl_0_2
@ 031   ----------------------------------------
        .byte   PATT
         .word  mus_thppme_347_wind_god_girl_0_2
@ 032   ----------------------------------------
        .byte   PATT
         .word  mus_thppme_347_wind_god_girl_0_2
@ 033   ----------------------------------------
        .byte   PATT
         .word  mus_thppme_347_wind_god_girl_0_2
@ 034   ----------------------------------------
        .byte   PATT
         .word  mus_thppme_347_wind_god_girl_0_2
@ 035   ----------------------------------------
        .byte   PATT
         .word  mus_thppme_347_wind_god_girl_0_2
@ 036   ----------------------------------------
        .byte   PATT
         .word  mus_thppme_347_wind_god_girl_0_2
@ 037   ----------------------------------------
        .byte   PATT
         .word  mus_thppme_347_wind_god_girl_0_2
@ 038   ----------------------------------------
        .byte   PATT
         .word  mus_thppme_347_wind_god_girl_0_2
@ 039   ----------------------------------------
        .byte   PATT
         .word  mus_thppme_347_wind_god_girl_0_2
@ 040   ----------------------------------------
        .byte   PATT
         .word  mus_thppme_347_wind_god_girl_0_2
@ 041   ----------------------------------------
        .byte           N01   , Cn1 , v100
        .byte           N01   , Dn1 , v080
        .byte   W12
        .byte                   Dn1
        .byte   W12
        .byte                   Cn1 , v100
        .byte           N01   , Dn1 , v080
        .byte   W12
        .byte                   Dn1
        .byte   W12
        .byte                   Cn1 , v100
        .byte           N01   , Dn1 , v080
        .byte   W06
        .byte                   Dn1
        .byte   W06
        .byte                   Dn1
        .byte   W06
        .byte                   Dn1
        .byte   W06
        .byte                   Cn1 , v100
        .byte           N01   , Dn1 , v080
        .byte   W06
        .byte                   Dn1
        .byte   W06
        .byte                   Dn1
        .byte   W06
        .byte                   Dn1
        .byte   W06
@ 042   ----------------------------------------
        .byte   PATT
         .word  mus_thppme_347_wind_god_girl_0_2
@ 043   ----------------------------------------
        .byte   PATT
         .word  mus_thppme_347_wind_god_girl_0_2
@ 044   ----------------------------------------
        .byte   PATT
         .word  mus_thppme_347_wind_god_girl_0_2
@ 045   ----------------------------------------
        .byte   PATT
         .word  mus_thppme_347_wind_god_girl_0_2
@ 046   ----------------------------------------
        .byte   GOTO
         .word  mus_thppme_347_wind_god_girl_0_LOOP
        .byte   FINE

@****************** Track 1 (Midi-Chn.1) ******************@

mus_thppme_347_wind_god_girl_1:
        .byte   KEYSH , mus_thppme_347_wind_god_girl_key+0
@ 000   ----------------------------------------
        .byte           VOICE , 56
        .byte           VOL   , 112
        .byte           N06   , Cn3 , v100
        .byte   W06
        .byte                   Ds3
        .byte   W06
        .byte                   Fn3
        .byte   W06
        .byte                   Ds3
        .byte   W06
        .byte                   Fn3
        .byte   W06
        .byte                   Gn3
        .byte   W06
        .byte                   Fn3
        .byte   W06
        .byte                   Gn3
        .byte   W06
        .byte                   As3
        .byte   W06
        .byte                   Gn3
        .byte   W06
        .byte                   As3
        .byte   W06
        .byte                   Cn4
        .byte   W06
        .byte                   As3
        .byte   W06
        .byte                   Cn4
        .byte   W06
        .byte           N12   , Ds4
        .byte   W12
@ 001   ----------------------------------------
        .byte   W78
        .byte           N06   , Cn4
        .byte   W06
        .byte                   Ds4
        .byte   W06
        .byte                   En4
        .byte   W06
@ 002   ----------------------------------------
        .byte           TIE   , Fn4
        .byte   W96
@ 003   ----------------------------------------
        .byte   W90
        .byte           EOT
        .byte           N03   , Cn4
        .byte   W03
        .byte                   Gs3
        .byte   W03
@ 004   ----------------------------------------
        .byte           TIE   , Fn3
        .byte   W96
@ 005   ----------------------------------------
mus_thppme_347_wind_god_girl_1_LOOP:
        .byte   W96
@ 006   ----------------------------------------
        .byte           EOT   , Fn3
        .byte   W96
@ 007   ----------------------------------------
        .byte   W96
@ 008   ----------------------------------------
        .byte   W96
@ 009   ----------------------------------------
        .byte   W96
@ 010   ----------------------------------------
mus_thppme_347_wind_god_girl_1_10:
        .byte           N18   , Fn3 , v100
        .byte   W18
        .byte                   Fn3
        .byte   W18
        .byte           N12   , Gs3
        .byte   W12
        .byte           N48   , Cn4
        .byte   W48
        .byte   PEND
@ 011   ----------------------------------------
mus_thppme_347_wind_god_girl_1_11:
        .byte   W12
        .byte           N12   , Fn3 , v100
        .byte   W12
        .byte                   Gs3
        .byte   W12
        .byte                   Cn4
        .byte   W12
        .byte           N18   , As3
        .byte   W18
        .byte                   Gn3
        .byte   W18
        .byte           N12   , Ds3
        .byte   W12
        .byte   PEND
@ 012   ----------------------------------------
mus_thppme_347_wind_god_girl_1_12:
        .byte           N18   , Fn3 , v100
        .byte   W18
        .byte                   Fn3
        .byte   W18
        .byte           N12   , An3
        .byte   W12
        .byte           N96   , Dn4
        .byte   W48
        .byte   PEND
@ 013   ----------------------------------------
mus_thppme_347_wind_god_girl_1_13:
        .byte   W48
        .byte           N48   , Dn3 , v100
        .byte   W48
        .byte   PEND
@ 014   ----------------------------------------
        .byte   PATT
         .word  mus_thppme_347_wind_god_girl_1_10
@ 015   ----------------------------------------
        .byte   PATT
         .word  mus_thppme_347_wind_god_girl_1_11
@ 016   ----------------------------------------
        .byte   PATT
         .word  mus_thppme_347_wind_god_girl_1_12
@ 017   ----------------------------------------
        .byte   W96
@ 018   ----------------------------------------
        .byte           VOL   , 80
        .byte           N12   , Cs4 , v100
        .byte   W18
        .byte                   Cs4
        .byte   W18
        .byte                   Cs4
        .byte   W12
        .byte           N48
        .byte   W48
@ 019   ----------------------------------------
mus_thppme_347_wind_god_girl_1_19:
        .byte   W12
        .byte           N36   , Cs4 , v100
        .byte   W36
        .byte           N48   , Ds4
        .byte   W48
        .byte   PEND
@ 020   ----------------------------------------
        .byte           TIE   , Fn4
        .byte   W96
@ 021   ----------------------------------------
        .byte   W96
@ 022   ----------------------------------------
        .byte           EOT
        .byte           N12   , Cs4
        .byte   W18
        .byte                   Cs4
        .byte   W18
        .byte                   Cs4
        .byte   W12
        .byte           N48
        .byte   W48
@ 023   ----------------------------------------
        .byte   PATT
         .word  mus_thppme_347_wind_god_girl_1_19
@ 024   ----------------------------------------
        .byte           N18   , Cn4 , v100
        .byte   W18
        .byte                   Cn4
        .byte   W18
        .byte           N12   , En4
        .byte   W12
        .byte           N60   , Gn4
        .byte   W48
@ 025   ----------------------------------------
        .byte   W24
        .byte           VOL   , 112
        .byte           N24   , Fn3
        .byte   W24
        .byte                   Gn3
        .byte   W24
        .byte                   Gs3
        .byte   W24
@ 026   ----------------------------------------
mus_thppme_347_wind_god_girl_1_26:
        .byte           N36   , Cn4 , v100
        .byte   W36
        .byte           N12   , As3
        .byte   W12
        .byte           N18
        .byte   W18
        .byte                   Cn4
        .byte   W18
        .byte           N12   , Ds4
        .byte   W12
        .byte   PEND
@ 027   ----------------------------------------
        .byte   PATT
         .word  mus_thppme_347_wind_god_girl_1_26
@ 028   ----------------------------------------
mus_thppme_347_wind_god_girl_1_28:
        .byte           N36   , Gs3 , v100
        .byte   W36
        .byte           N12   , Gn3
        .byte   W12
        .byte           N18
        .byte   W18
        .byte                   Gs3
        .byte   W18
        .byte           N12   , Cn4
        .byte   W12
        .byte   PEND
@ 029   ----------------------------------------
mus_thppme_347_wind_god_girl_1_29:
        .byte           N48   , Fn3 , v100
        .byte   W60
        .byte           N12
        .byte   W12
        .byte                   Gn3
        .byte   W12
        .byte                   Gs3
        .byte   W12
        .byte   PEND
@ 030   ----------------------------------------
        .byte   PATT
         .word  mus_thppme_347_wind_god_girl_1_26
@ 031   ----------------------------------------
mus_thppme_347_wind_god_girl_1_31:
        .byte           N36   , Cn4 , v100
        .byte   W36
        .byte           N12   , As3
        .byte   W12
        .byte           N18
        .byte   W18
        .byte                   Cn4
        .byte   W18
        .byte           TIE   , Fn4
        .byte   W12
        .byte   PEND
@ 032   ----------------------------------------
        .byte   W96
@ 033   ----------------------------------------
mus_thppme_347_wind_god_girl_1_33:
        .byte   W60
        .byte           EOT   , Fn4
        .byte           N24   , Cn4 , v100
        .byte   W24
        .byte           N12   , Gn4
        .byte   W12
        .byte   PEND
@ 034   ----------------------------------------
mus_thppme_347_wind_god_girl_1_34:
        .byte           N36   , Gs4 , v100
        .byte   W36
        .byte           N12   , Gn4
        .byte   W12
        .byte           N18
        .byte   W18
        .byte                   Gs4
        .byte   W18
        .byte           N12   , Cn5
        .byte   W12
        .byte   PEND
@ 035   ----------------------------------------
        .byte   PATT
         .word  mus_thppme_347_wind_god_girl_1_34
@ 036   ----------------------------------------
mus_thppme_347_wind_god_girl_1_36:
        .byte           N36   , Fn4 , v100
        .byte   W36
        .byte           N12   , Dn4
        .byte   W12
        .byte           N18
        .byte   W18
        .byte                   En4
        .byte   W18
        .byte           N12   , Fn4
        .byte   W12
        .byte   PEND
@ 037   ----------------------------------------
mus_thppme_347_wind_god_girl_1_37:
        .byte           N18   , En4 , v100
        .byte   W18
        .byte                   Fn4
        .byte   W18
        .byte           N12   , Gn4
        .byte   W12
        .byte           N24   , En4
        .byte   W24
        .byte                   Gn4
        .byte   W24
        .byte   PEND
@ 038   ----------------------------------------
        .byte   PATT
         .word  mus_thppme_347_wind_god_girl_1_34
@ 039   ----------------------------------------
        .byte           N36   , Fn5 , v100
        .byte   W36
        .byte           N12   , Ds5
        .byte   W12
        .byte           N18
        .byte   W18
        .byte                   En5
        .byte   W18
        .byte           TIE   , Fn5
        .byte   W12
@ 040   ----------------------------------------
        .byte   W96
@ 041   ----------------------------------------
        .byte   W84
        .byte           EOT
        .byte   W12
@ 042   ----------------------------------------
mus_thppme_347_wind_god_girl_1_42:
        .byte   W12
        .byte           N06   , Fn4 , v100
        .byte   W24
        .byte                   Ds4
        .byte   W24
        .byte                   Cs4
        .byte   W24
        .byte                   Cn4
        .byte   W12
        .byte   PEND
@ 043   ----------------------------------------
        .byte   PATT
         .word  mus_thppme_347_wind_god_girl_1_42
@ 044   ----------------------------------------
        .byte   PATT
         .word  mus_thppme_347_wind_god_girl_1_42
@ 045   ----------------------------------------
        .byte   PATT
         .word  mus_thppme_347_wind_god_girl_1_42
@ 046   ----------------------------------------
        .byte   GOTO
         .word  mus_thppme_347_wind_god_girl_1_LOOP
        .byte   FINE

@****************** Track 2 (Midi-Chn.2) ******************@

mus_thppme_347_wind_god_girl_2:
        .byte   KEYSH , mus_thppme_347_wind_god_girl_key+0
@ 000   ----------------------------------------
        .byte           VOICE , 81
        .byte           VOL   , 90
        .byte           N18   , Cn1 , v100
        .byte   W18
        .byte                   Ds1
        .byte   W18
        .byte                   Fn1
        .byte   W18
        .byte                   Gn1
        .byte   W18
        .byte           N12   , As1
        .byte   W12
        .byte                   Cn2
        .byte   W12
@ 001   ----------------------------------------
        .byte   W96
@ 002   ----------------------------------------
mus_thppme_347_wind_god_girl_2_2:
        .byte           N12   , Fn1 , v100
        .byte   W12
        .byte                   Fn1
        .byte   W12
        .byte                   Ds1
        .byte   W12
        .byte                   Ds1
        .byte   W12
        .byte                   Cs1
        .byte   W12
        .byte           N06
        .byte   W06
        .byte           N12   , Cn1
        .byte   W12
        .byte           N06
        .byte   W06
        .byte           N12   , Ds1
        .byte   W12
        .byte   PEND
@ 003   ----------------------------------------
        .byte   PATT
         .word  mus_thppme_347_wind_god_girl_2_2
@ 004   ----------------------------------------
        .byte   PATT
         .word  mus_thppme_347_wind_god_girl_2_2
@ 005   ----------------------------------------
mus_thppme_347_wind_god_girl_2_LOOP:
        .byte           N12   , Fn1 , v100
        .byte   W12
        .byte                   Fn1
        .byte   W12
        .byte                   Ds1
        .byte   W12
        .byte                   Ds1
        .byte   W12
        .byte                   Cs1
        .byte   W12
        .byte           N06
        .byte   W06
        .byte           N12   , Cn1
        .byte   W12
        .byte           N06
        .byte   W06
        .byte           N12   , Ds1
        .byte   W12
@ 006   ----------------------------------------
        .byte   PATT
         .word  mus_thppme_347_wind_god_girl_2_2
@ 007   ----------------------------------------
        .byte   PATT
         .word  mus_thppme_347_wind_god_girl_2_2
@ 008   ----------------------------------------
        .byte   PATT
         .word  mus_thppme_347_wind_god_girl_2_2
@ 009   ----------------------------------------
        .byte   PATT
         .word  mus_thppme_347_wind_god_girl_2_2
@ 010   ----------------------------------------
mus_thppme_347_wind_god_girl_2_10:
        .byte           N12   , Fn1 , v100
        .byte   W12
        .byte                   Fn1
        .byte   W12
        .byte                   Cn1
        .byte   W12
        .byte                   Cn1
        .byte   W12
        .byte                   Fn1
        .byte   W12
        .byte           N06
        .byte   W06
        .byte           N12   , Cn1
        .byte   W12
        .byte           N06
        .byte   W06
        .byte           N12   , Ds1
        .byte   W12
        .byte   PEND
@ 011   ----------------------------------------
mus_thppme_347_wind_god_girl_2_11:
        .byte           N12   , Fn1 , v100
        .byte   W12
        .byte                   Fn1
        .byte   W12
        .byte                   Cn1
        .byte   W12
        .byte                   Cn1
        .byte   W12
        .byte                   Fn1
        .byte   W12
        .byte           N06
        .byte   W06
        .byte           N12   , Cn2
        .byte   W12
        .byte           N06
        .byte   W06
        .byte           N12   , Ds1
        .byte   W12
        .byte   PEND
@ 012   ----------------------------------------
mus_thppme_347_wind_god_girl_2_12:
        .byte           N12   , Dn1 , v100
        .byte   W12
        .byte                   Dn1
        .byte   W12
        .byte                   An0
        .byte   W12
        .byte                   An0
        .byte   W12
        .byte                   Dn1
        .byte   W12
        .byte           N06
        .byte   W06
        .byte           N12   , An0
        .byte   W12
        .byte           N06
        .byte   W06
        .byte           N12   , Cn1
        .byte   W12
        .byte   PEND
@ 013   ----------------------------------------
        .byte   PATT
         .word  mus_thppme_347_wind_god_girl_2_12
@ 014   ----------------------------------------
        .byte   PATT
         .word  mus_thppme_347_wind_god_girl_2_10
@ 015   ----------------------------------------
        .byte   PATT
         .word  mus_thppme_347_wind_god_girl_2_11
@ 016   ----------------------------------------
        .byte   PATT
         .word  mus_thppme_347_wind_god_girl_2_12
@ 017   ----------------------------------------
        .byte   PATT
         .word  mus_thppme_347_wind_god_girl_2_12
@ 018   ----------------------------------------
mus_thppme_347_wind_god_girl_2_18:
        .byte           N12   , Cs1 , v100
        .byte   W12
        .byte                   Cs1
        .byte   W12
        .byte                   Gs0
        .byte   W12
        .byte                   Gs0
        .byte   W12
        .byte                   Cs1
        .byte   W12
        .byte           N06
        .byte   W06
        .byte           N12   , Gs0
        .byte   W12
        .byte           N06
        .byte   W06
        .byte           N12   , Cn1
        .byte   W12
        .byte   PEND
@ 019   ----------------------------------------
mus_thppme_347_wind_god_girl_2_19:
        .byte           N12   , Cs1 , v100
        .byte   W12
        .byte                   Cs1
        .byte   W12
        .byte                   Gs0
        .byte   W12
        .byte                   Gs0
        .byte   W12
        .byte                   Ds1
        .byte   W12
        .byte           N06
        .byte   W06
        .byte           N12   , As1
        .byte   W12
        .byte           N06
        .byte   W06
        .byte           N12   , Ds1
        .byte   W12
        .byte   PEND
@ 020   ----------------------------------------
        .byte   PATT
         .word  mus_thppme_347_wind_god_girl_2_10
@ 021   ----------------------------------------
        .byte           N12   , Fn1 , v100
        .byte   W12
        .byte                   Gs1
        .byte   W12
        .byte                   As1
        .byte   W12
        .byte                   Bn1
        .byte   W12
        .byte                   Cn2
        .byte   W12
        .byte           N06   , Gs1
        .byte   W06
        .byte           N12   , Fn1
        .byte   W12
        .byte           N06   , Gn1
        .byte   W06
        .byte           N12   , Ds1
        .byte   W12
@ 022   ----------------------------------------
        .byte   PATT
         .word  mus_thppme_347_wind_god_girl_2_18
@ 023   ----------------------------------------
        .byte   PATT
         .word  mus_thppme_347_wind_god_girl_2_19
@ 024   ----------------------------------------
        .byte           N18   , Cn1 , v100
        .byte   W18
        .byte                   Cn1
        .byte   W18
        .byte           N12   , Ds1
        .byte   W12
        .byte           N18   , En1
        .byte   W18
        .byte                   As1
        .byte   W18
        .byte           N12   , Bn1
        .byte   W12
@ 025   ----------------------------------------
        .byte                   Cn2
        .byte   W24
        .byte                   Fn1
        .byte   W12
        .byte                   Fn1
        .byte   W12
        .byte                   En1
        .byte   W12
        .byte                   En1
        .byte   W12
        .byte                   Ds1
        .byte   W12
        .byte                   Ds1
        .byte   W12
@ 026   ----------------------------------------
mus_thppme_347_wind_god_girl_2_26:
        .byte           N12   , Cs1 , v100
        .byte   W12
        .byte                   Cs1
        .byte   W12
        .byte                   Gs0
        .byte   W12
        .byte                   Gs0
        .byte   W12
        .byte                   Cs1
        .byte   W12
        .byte           N06
        .byte   W06
        .byte           N12   , Gs1
        .byte   W12
        .byte           N06
        .byte   W06
        .byte           N12   , Cs1
        .byte   W12
        .byte   PEND
@ 027   ----------------------------------------
mus_thppme_347_wind_god_girl_2_27:
        .byte           N12   , Ds1 , v100
        .byte   W12
        .byte                   Ds1
        .byte   W12
        .byte                   As0
        .byte   W12
        .byte                   As0
        .byte   W12
        .byte                   Ds1
        .byte   W12
        .byte           N06
        .byte   W06
        .byte           N12   , As1
        .byte   W12
        .byte           N06
        .byte   W06
        .byte           N12   , Ds1
        .byte   W12
        .byte   PEND
@ 028   ----------------------------------------
        .byte   PATT
         .word  mus_thppme_347_wind_god_girl_2_10
@ 029   ----------------------------------------
        .byte   PATT
         .word  mus_thppme_347_wind_god_girl_2_2
@ 030   ----------------------------------------
        .byte   PATT
         .word  mus_thppme_347_wind_god_girl_2_26
@ 031   ----------------------------------------
        .byte   PATT
         .word  mus_thppme_347_wind_god_girl_2_27
@ 032   ----------------------------------------
        .byte   PATT
         .word  mus_thppme_347_wind_god_girl_2_10
@ 033   ----------------------------------------
        .byte   PATT
         .word  mus_thppme_347_wind_god_girl_2_2
@ 034   ----------------------------------------
        .byte   PATT
         .word  mus_thppme_347_wind_god_girl_2_26
@ 035   ----------------------------------------
        .byte   PATT
         .word  mus_thppme_347_wind_god_girl_2_27
@ 036   ----------------------------------------
        .byte           N12   , As0 , v100
        .byte   W12
        .byte                   As0
        .byte   W12
        .byte                   Fn1
        .byte   W12
        .byte                   Fn1
        .byte   W12
        .byte                   As0
        .byte   W12
        .byte           N06
        .byte   W06
        .byte           N12   , Fn1
        .byte   W12
        .byte           N06
        .byte   W06
        .byte           N12   , As0
        .byte   W12
@ 037   ----------------------------------------
        .byte                   Cn1
        .byte   W12
        .byte           N06
        .byte   W06
        .byte           N12   , Gn1
        .byte   W12
        .byte           N06
        .byte   W06
        .byte           N12   , Cs1
        .byte   W12
        .byte                   Cn1
        .byte   W12
        .byte                   Cn1
        .byte   W12
        .byte                   Gn1
        .byte   W12
        .byte                   Gn1
        .byte   W12
@ 038   ----------------------------------------
        .byte   PATT
         .word  mus_thppme_347_wind_god_girl_2_26
@ 039   ----------------------------------------
        .byte           N12   , Ds1 , v100
        .byte   W12
        .byte                   Ds1
        .byte   W12
        .byte                   As0
        .byte   W12
        .byte                   As0
        .byte   W12
        .byte                   Ds1
        .byte   W12
        .byte           N06
        .byte   W06
        .byte           N12   , As1
        .byte   W12
        .byte           N06
        .byte   W06
        .byte           N12   , Ds2
        .byte   W12
@ 040   ----------------------------------------
        .byte                   Fn2
        .byte   W12
        .byte                   Fn2
        .byte   W12
        .byte                   Cn2
        .byte   W12
        .byte                   Cn2
        .byte   W12
        .byte                   Fn1
        .byte   W12
        .byte           N06
        .byte   W06
        .byte           N12   , Cn1
        .byte   W12
        .byte           N06
        .byte   W06
        .byte           N12   , Ds1
        .byte   W12
@ 041   ----------------------------------------
        .byte   PATT
         .word  mus_thppme_347_wind_god_girl_2_2
@ 042   ----------------------------------------
        .byte   PATT
         .word  mus_thppme_347_wind_god_girl_2_2
@ 043   ----------------------------------------
        .byte   PATT
         .word  mus_thppme_347_wind_god_girl_2_2
@ 044   ----------------------------------------
        .byte   PATT
         .word  mus_thppme_347_wind_god_girl_2_2
@ 045   ----------------------------------------
        .byte   PATT
         .word  mus_thppme_347_wind_god_girl_2_2
@ 046   ----------------------------------------
        .byte   GOTO
         .word  mus_thppme_347_wind_god_girl_2_LOOP
        .byte   FINE

@****************** Track 3 (Midi-Chn.3) ******************@

mus_thppme_347_wind_god_girl_3:
        .byte   KEYSH , mus_thppme_347_wind_god_girl_key+0
@ 000   ----------------------------------------
        .byte           VOICE , 80
        .byte           VOL   , 80
        .byte           N06   , Cn2 , v100
        .byte   W06
        .byte                   Ds2
        .byte   W06
        .byte                   Fn2
        .byte   W06
        .byte                   Ds2
        .byte   W06
        .byte                   Fn2
        .byte   W06
        .byte                   Gn2
        .byte   W06
        .byte                   Fn2
        .byte   W06
        .byte                   Gn2
        .byte   W06
        .byte                   As2
        .byte   W06
        .byte                   Gn2
        .byte   W06
        .byte                   As2
        .byte   W06
        .byte                   Cn3
        .byte   W06
        .byte                   As2
        .byte   W06
        .byte                   Cn3
        .byte   W06
        .byte           N12   , Ds3
        .byte   W12
@ 001   ----------------------------------------
        .byte   W78
        .byte           N06   , Cn3
        .byte   W06
        .byte                   Ds3
        .byte   W06
        .byte                   En3
        .byte   W06
@ 002   ----------------------------------------
        .byte           TIE   , Fn3
        .byte   W96
@ 003   ----------------------------------------
        .byte   W90
        .byte           EOT
        .byte           N03   , Cn3
        .byte   W03
        .byte                   Gs2
        .byte   W03
@ 004   ----------------------------------------
        .byte           TIE   , Fn2
        .byte   W96
@ 005   ----------------------------------------
mus_thppme_347_wind_god_girl_3_LOOP:
        .byte   W96
@ 006   ----------------------------------------
        .byte           EOT   , Fn2
        .byte   W96
@ 007   ----------------------------------------
        .byte   W96
@ 008   ----------------------------------------
        .byte   W96
@ 009   ----------------------------------------
        .byte   W96
@ 010   ----------------------------------------
        .byte   PATT
         .word  mus_thppme_347_wind_god_girl_1_10
@ 011   ----------------------------------------
        .byte   PATT
         .word  mus_thppme_347_wind_god_girl_1_11
@ 012   ----------------------------------------
        .byte   PATT
         .word  mus_thppme_347_wind_god_girl_1_12
@ 013   ----------------------------------------
        .byte   PATT
         .word  mus_thppme_347_wind_god_girl_1_13
@ 014   ----------------------------------------
        .byte   PATT
         .word  mus_thppme_347_wind_god_girl_1_10
@ 015   ----------------------------------------
        .byte   PATT
         .word  mus_thppme_347_wind_god_girl_1_11
@ 016   ----------------------------------------
        .byte   PATT
         .word  mus_thppme_347_wind_god_girl_1_12
@ 017   ----------------------------------------
        .byte   W48
        .byte           N18   , An2 , v100
        .byte   W18
        .byte                   Fn2
        .byte   W18
        .byte           N12   , An2
        .byte   W12
@ 018   ----------------------------------------
mus_thppme_347_wind_god_girl_3_18:
        .byte           N18   , Cs3 , v100
        .byte   W18
        .byte                   Cs3
        .byte   W18
        .byte           N12   , Ds3
        .byte   W12
        .byte           N48   , Fn3
        .byte   W48
        .byte   PEND
@ 019   ----------------------------------------
mus_thppme_347_wind_god_girl_3_19:
        .byte   W12
        .byte           N12   , Cs3 , v100
        .byte   W12
        .byte                   Ds3
        .byte   W12
        .byte                   Gs3
        .byte   W12
        .byte           N18   , Gn3
        .byte   W18
        .byte                   Ds3
        .byte   W18
        .byte           N12   , As2
        .byte   W12
        .byte   PEND
@ 020   ----------------------------------------
mus_thppme_347_wind_god_girl_3_20:
        .byte           N18   , Cn3 , v100
        .byte   W18
        .byte                   Cn3
        .byte   W18
        .byte           N12   , Gn3
        .byte   W12
        .byte           TIE   , Gs3
        .byte   W48
        .byte   PEND
@ 021   ----------------------------------------
        .byte   W72
        .byte           EOT
        .byte   W24
@ 022   ----------------------------------------
        .byte   PATT
         .word  mus_thppme_347_wind_god_girl_3_18
@ 023   ----------------------------------------
mus_thppme_347_wind_god_girl_3_23:
        .byte   W12
        .byte           N12   , Cs3 , v100
        .byte   W12
        .byte                   Ds3
        .byte   W12
        .byte                   Gs3
        .byte   W12
        .byte           N18   , Gn3
        .byte   W18
        .byte                   Gs3
        .byte   W18
        .byte           N12   , As3
        .byte   W12
        .byte   PEND
@ 024   ----------------------------------------
mus_thppme_347_wind_god_girl_3_24:
        .byte           N18   , En3 , v100
        .byte   W18
        .byte                   En3
        .byte   W18
        .byte           N12   , Gn3
        .byte   W12
        .byte           N60   , Cn4
        .byte   W48
        .byte   PEND
@ 025   ----------------------------------------
        .byte   W24
        .byte           N24   , Fn3
        .byte   W24
        .byte                   Gn3
        .byte   W24
        .byte                   Gs3
        .byte   W24
@ 026   ----------------------------------------
        .byte   PATT
         .word  mus_thppme_347_wind_god_girl_1_26
@ 027   ----------------------------------------
        .byte   PATT
         .word  mus_thppme_347_wind_god_girl_1_26
@ 028   ----------------------------------------
        .byte   PATT
         .word  mus_thppme_347_wind_god_girl_1_28
@ 029   ----------------------------------------
        .byte   PATT
         .word  mus_thppme_347_wind_god_girl_1_29
@ 030   ----------------------------------------
        .byte   PATT
         .word  mus_thppme_347_wind_god_girl_1_26
@ 031   ----------------------------------------
        .byte   PATT
         .word  mus_thppme_347_wind_god_girl_1_31
@ 032   ----------------------------------------
        .byte   W96
@ 033   ----------------------------------------
        .byte   PATT
         .word  mus_thppme_347_wind_god_girl_1_33
@ 034   ----------------------------------------
        .byte   PATT
         .word  mus_thppme_347_wind_god_girl_1_34
@ 035   ----------------------------------------
        .byte   PATT
         .word  mus_thppme_347_wind_god_girl_1_34
@ 036   ----------------------------------------
        .byte   PATT
         .word  mus_thppme_347_wind_god_girl_1_36
@ 037   ----------------------------------------
        .byte   PATT
         .word  mus_thppme_347_wind_god_girl_1_37
@ 038   ----------------------------------------
        .byte   PATT
         .word  mus_thppme_347_wind_god_girl_1_34
@ 039   ----------------------------------------
        .byte           N36   , Fn4 , v100
        .byte   W36
        .byte           N12   , Ds4
        .byte   W12
        .byte           N18
        .byte   W18
        .byte                   En4
        .byte   W18
        .byte           TIE   , Fn4
        .byte   W12
@ 040   ----------------------------------------
        .byte   W96
@ 041   ----------------------------------------
        .byte   W84
        .byte           EOT
        .byte   W12
@ 042   ----------------------------------------
        .byte   PATT
         .word  mus_thppme_347_wind_god_girl_1_42
@ 043   ----------------------------------------
        .byte   PATT
         .word  mus_thppme_347_wind_god_girl_1_42
@ 044   ----------------------------------------
        .byte   PATT
         .word  mus_thppme_347_wind_god_girl_1_42
@ 045   ----------------------------------------
        .byte   PATT
         .word  mus_thppme_347_wind_god_girl_1_42
@ 046   ----------------------------------------
        .byte   GOTO
         .word  mus_thppme_347_wind_god_girl_3_LOOP
        .byte   FINE

@****************** Track 4 (Midi-Chn.4) ******************@

mus_thppme_347_wind_god_girl_4:
        .byte   KEYSH , mus_thppme_347_wind_god_girl_key+0
@ 000   ----------------------------------------
        .byte           VOICE , 1
        .byte           VOL   , 60
        .byte   W96
@ 001   ----------------------------------------
        .byte   W96
@ 002   ----------------------------------------
mus_thppme_347_wind_god_girl_4_2:
        .byte   W12
        .byte           N06   , Fn4 , v100
        .byte           N06   , Gs4
        .byte   W24
        .byte                   Ds4
        .byte           N06   , Gn4
        .byte   W24
        .byte                   Cs4
        .byte           N06   , Fn4
        .byte   W24
        .byte                   Cn4
        .byte           N06   , En4
        .byte   W12
        .byte   PEND
@ 003   ----------------------------------------
        .byte   PATT
         .word  mus_thppme_347_wind_god_girl_4_2
@ 004   ----------------------------------------
        .byte   PATT
         .word  mus_thppme_347_wind_god_girl_4_2
@ 005   ----------------------------------------
mus_thppme_347_wind_god_girl_4_LOOP:
        .byte   W12
        .byte           N06   , Fn4 , v100
        .byte           N06   , Gs4
        .byte   W24
        .byte                   Ds4
        .byte           N06   , Gn4
        .byte   W24
        .byte                   Cs4
        .byte           N06   , Fn4
        .byte   W24
        .byte                   Cn4
        .byte           N06   , En4
        .byte   W12
@ 006   ----------------------------------------
        .byte   W12
        .byte                   Fn4
        .byte           N06   , Gs4
        .byte   W24
        .byte                   Ds4
        .byte           N06   , As4
        .byte   W24
        .byte                   Cs4
        .byte           N06   , Gs4
        .byte   W24
        .byte                   Cn4
        .byte           N06   , Gn4
        .byte   W12
@ 007   ----------------------------------------
        .byte           N12   , Gs4
        .byte   W12
        .byte           N06   , Fn4
        .byte           N06   , Gs4
        .byte   W12
        .byte           N12   , As4
        .byte   W12
        .byte           N06   , Ds4
        .byte           N06   , As4
        .byte   W12
        .byte           N12   , Gs4
        .byte   W12
        .byte           N06   , Cs4
        .byte           N06   , Gs4
        .byte   W06
        .byte                   Gn4
        .byte   W06
        .byte                   Fn4
        .byte   W06
        .byte                   Cn5
        .byte   W06
        .byte                   Ds5
        .byte   W06
        .byte                   Fn5
        .byte   W06
@ 008   ----------------------------------------
        .byte           N08   , Fn4
        .byte   W08
        .byte                   Cn4
        .byte   W08
        .byte                   Gs3
        .byte   W08
        .byte                   Gn4
        .byte   W08
        .byte                   Ds4
        .byte   W08
        .byte                   As3
        .byte   W08
        .byte           N06   , Cn4
        .byte   W06
        .byte                   Gs4
        .byte   W06
        .byte                   Gn4
        .byte   W06
        .byte                   Gs4
        .byte   W06
        .byte                   Gn4
        .byte   W06
        .byte                   Ds4
        .byte   W06
        .byte           N12   , As3
        .byte   W12
@ 009   ----------------------------------------
        .byte   W06
        .byte           N06   , Cn4
        .byte   W06
        .byte           N12   , Cn5
        .byte   W18
        .byte           N06   , Cn4
        .byte   W06
        .byte           N12   , As4
        .byte   W18
        .byte           N06   , Cn4
        .byte   W06
        .byte           N12   , Gs4
        .byte   W18
        .byte           N06   , Cn4
        .byte   W06
        .byte           N12   , Gn4
        .byte   W12
@ 010   ----------------------------------------
        .byte   W96
@ 011   ----------------------------------------
        .byte   W96
@ 012   ----------------------------------------
        .byte   W96
@ 013   ----------------------------------------
        .byte   W96
@ 014   ----------------------------------------
        .byte   W96
@ 015   ----------------------------------------
        .byte   W96
@ 016   ----------------------------------------
        .byte   W96
@ 017   ----------------------------------------
        .byte   W96
@ 018   ----------------------------------------
        .byte   W96
@ 019   ----------------------------------------
        .byte   W96
@ 020   ----------------------------------------
        .byte   W96
@ 021   ----------------------------------------
        .byte           N06   , Cn5
        .byte   W06
        .byte                   As4
        .byte   W06
        .byte                   Gs4
        .byte   W06
        .byte                   Fn4
        .byte   W06
        .byte                   As4
        .byte   W06
        .byte                   Gs4
        .byte   W06
        .byte                   Fn4
        .byte   W06
        .byte                   Cn4
        .byte   W06
        .byte                   Gs4
        .byte   W06
        .byte                   Gn4
        .byte   W06
        .byte                   Fn4
        .byte   W06
        .byte                   Cn4
        .byte   W06
        .byte                   Cn4
        .byte   W06
        .byte                   Dn4
        .byte   W06
        .byte                   Ds4
        .byte   W06
        .byte                   Cn4
        .byte   W06
@ 022   ----------------------------------------
        .byte   W96
@ 023   ----------------------------------------
        .byte   W96
@ 024   ----------------------------------------
        .byte           N18   , Cn3
        .byte   W18
        .byte                   Cn3
        .byte   W18
        .byte           N12   , En3
        .byte   W12
        .byte           N18   , Gn3
        .byte   W18
        .byte                   As3
        .byte   W18
        .byte           N12   , Bn3
        .byte   W12
@ 025   ----------------------------------------
        .byte                   Cn4
        .byte   W24
        .byte           N24   , Fn3
        .byte           N24   , Fn4
        .byte   W24
        .byte                   En4
        .byte           N24   , Gn4
        .byte   W24
        .byte                   Ds4
        .byte           N24   , Gs4
        .byte   W24
@ 026   ----------------------------------------
mus_thppme_347_wind_god_girl_4_26:
        .byte           N36   , Cs4 , v100
        .byte   W36
        .byte           N12
        .byte   W12
        .byte                   Cs4
        .byte   W12
        .byte           N06
        .byte   W06
        .byte           N12   , Ds4
        .byte   W12
        .byte           N06
        .byte   W06
        .byte           N12   , As4
        .byte   W12
        .byte   PEND
@ 027   ----------------------------------------
mus_thppme_347_wind_god_girl_4_27:
        .byte           N36   , Ds4 , v100
        .byte   W36
        .byte           N12
        .byte   W12
        .byte                   Ds4
        .byte   W12
        .byte           N06
        .byte   W06
        .byte           N12   , Gn4
        .byte   W12
        .byte           N06
        .byte   W06
        .byte           N12   , As4
        .byte   W12
        .byte   PEND
@ 028   ----------------------------------------
        .byte   W12
        .byte           N24   , Fn4
        .byte   W24
        .byte           N12
        .byte   W12
        .byte                   Fn4
        .byte   W12
        .byte           N06
        .byte   W06
        .byte           N12   , Cn4
        .byte   W12
        .byte           N06   , Fn4
        .byte   W06
        .byte           N12   , Cn4
        .byte   W12
@ 029   ----------------------------------------
        .byte           N24   , Fn4
        .byte   W24
        .byte                   Ds4
        .byte   W24
        .byte           N18   , Cs4
        .byte   W18
        .byte                   Cn4
        .byte   W18
        .byte           N12   , Ds4
        .byte   W12
@ 030   ----------------------------------------
        .byte   PATT
         .word  mus_thppme_347_wind_god_girl_4_26
@ 031   ----------------------------------------
        .byte   PATT
         .word  mus_thppme_347_wind_god_girl_4_27
@ 032   ----------------------------------------
mus_thppme_347_wind_god_girl_4_32:
        .byte   W12
        .byte           N12   , Fn4 , v100
        .byte   W24
        .byte                   Fn4
        .byte   W24
        .byte                   Fn4
        .byte   W24
        .byte                   Fn4
        .byte   W12
        .byte   PEND
@ 033   ----------------------------------------
        .byte           N06
        .byte   W06
        .byte                   Cn5
        .byte   W06
        .byte           N12   , Fn4
        .byte   W12
        .byte           N06   , Ds4
        .byte   W06
        .byte                   As4
        .byte   W06
        .byte           N12   , Ds4
        .byte   W12
        .byte           N06   , Cs4
        .byte   W06
        .byte                   Gs4
        .byte   W06
        .byte           N12   , Cs4
        .byte   W12
        .byte           N06   , Cn4
        .byte   W06
        .byte                   Gn4
        .byte   W06
        .byte           N12   , Cn4
        .byte   W12
@ 034   ----------------------------------------
mus_thppme_347_wind_god_girl_4_34:
        .byte           N36   , Cs4 , v100
        .byte   W36
        .byte           N12
        .byte   W12
        .byte                   Cs4
        .byte   W12
        .byte           N06
        .byte   W06
        .byte           N12   , Gn4
        .byte   W12
        .byte           N06
        .byte   W06
        .byte           N12   , As4
        .byte   W12
        .byte   PEND
@ 035   ----------------------------------------
        .byte   PATT
         .word  mus_thppme_347_wind_god_girl_4_27
@ 036   ----------------------------------------
        .byte           N36   , As3 , v100
        .byte   W36
        .byte           N12
        .byte   W12
        .byte           N18
        .byte   W18
        .byte                   Fn4
        .byte   W18
        .byte           N12   , Cs4
        .byte   W12
@ 037   ----------------------------------------
        .byte           N18   , Cn4
        .byte   W18
        .byte                   En4
        .byte   W18
        .byte           N12   , Cs4
        .byte   W12
        .byte           N24   , Cn4
        .byte   W24
        .byte                   En4
        .byte   W24
@ 038   ----------------------------------------
        .byte   PATT
         .word  mus_thppme_347_wind_god_girl_4_34
@ 039   ----------------------------------------
        .byte   PATT
         .word  mus_thppme_347_wind_god_girl_4_27
@ 040   ----------------------------------------
        .byte   PATT
         .word  mus_thppme_347_wind_god_girl_4_32
@ 041   ----------------------------------------
        .byte   W96
@ 042   ----------------------------------------
        .byte   PATT
         .word  mus_thppme_347_wind_god_girl_4_2
@ 043   ----------------------------------------
        .byte   PATT
         .word  mus_thppme_347_wind_god_girl_4_2
@ 044   ----------------------------------------
        .byte   PATT
         .word  mus_thppme_347_wind_god_girl_4_2
@ 045   ----------------------------------------
        .byte   PATT
         .word  mus_thppme_347_wind_god_girl_4_2
@ 046   ----------------------------------------
        .byte   GOTO
         .word  mus_thppme_347_wind_god_girl_4_LOOP
        .byte   FINE

@****************** Track 5 (Midi-Chn.5) ******************@

mus_thppme_347_wind_god_girl_5:
        .byte   KEYSH , mus_thppme_347_wind_god_girl_key+0
@ 000   ----------------------------------------
        .byte           VOICE , 127
        .byte           VOL   , 100
        .byte   W96
@ 001   ----------------------------------------
        .byte   W96
@ 002   ----------------------------------------
mus_thppme_347_wind_god_girl_5_2:
        .byte           N01   , Cn5 , v016
        .byte   W06
        .byte                   Cn5
        .byte   W18
        .byte                   Cn5
        .byte   W06
        .byte                   Cn5
        .byte   W18
        .byte                   Cn5
        .byte   W06
        .byte                   Cn5
        .byte   W18
        .byte                   Cn5
        .byte   W06
        .byte                   Cn5
        .byte   W18
        .byte   PEND
@ 003   ----------------------------------------
        .byte   PATT
         .word  mus_thppme_347_wind_god_girl_5_2
@ 004   ----------------------------------------
        .byte   PATT
         .word  mus_thppme_347_wind_god_girl_5_2
@ 005   ----------------------------------------
mus_thppme_347_wind_god_girl_5_LOOP:
        .byte           N01   , Cn5 , v016
        .byte   W06
        .byte                   Cn5
        .byte   W18
        .byte                   Cn5
        .byte   W06
        .byte                   Cn5
        .byte   W18
        .byte                   Cn5
        .byte   W06
        .byte                   Cn5
        .byte   W18
        .byte                   Cn5
        .byte   W06
        .byte                   Cn5
        .byte   W18
@ 006   ----------------------------------------
        .byte   PATT
         .word  mus_thppme_347_wind_god_girl_5_2
@ 007   ----------------------------------------
        .byte   PATT
         .word  mus_thppme_347_wind_god_girl_5_2
@ 008   ----------------------------------------
        .byte   PATT
         .word  mus_thppme_347_wind_god_girl_5_2
@ 009   ----------------------------------------
        .byte   PATT
         .word  mus_thppme_347_wind_god_girl_5_2
@ 010   ----------------------------------------
        .byte   PATT
         .word  mus_thppme_347_wind_god_girl_5_2
@ 011   ----------------------------------------
        .byte   PATT
         .word  mus_thppme_347_wind_god_girl_5_2
@ 012   ----------------------------------------
        .byte   PATT
         .word  mus_thppme_347_wind_god_girl_5_2
@ 013   ----------------------------------------
        .byte   PATT
         .word  mus_thppme_347_wind_god_girl_5_2
@ 014   ----------------------------------------
        .byte   PATT
         .word  mus_thppme_347_wind_god_girl_5_2
@ 015   ----------------------------------------
        .byte   PATT
         .word  mus_thppme_347_wind_god_girl_5_2
@ 016   ----------------------------------------
        .byte   PATT
         .word  mus_thppme_347_wind_god_girl_5_2
@ 017   ----------------------------------------
        .byte   PATT
         .word  mus_thppme_347_wind_god_girl_5_2
@ 018   ----------------------------------------
        .byte   PATT
         .word  mus_thppme_347_wind_god_girl_5_2
@ 019   ----------------------------------------
        .byte   PATT
         .word  mus_thppme_347_wind_god_girl_5_2
@ 020   ----------------------------------------
        .byte   PATT
         .word  mus_thppme_347_wind_god_girl_5_2
@ 021   ----------------------------------------
        .byte   PATT
         .word  mus_thppme_347_wind_god_girl_5_2
@ 022   ----------------------------------------
        .byte   PATT
         .word  mus_thppme_347_wind_god_girl_5_2
@ 023   ----------------------------------------
        .byte   PATT
         .word  mus_thppme_347_wind_god_girl_5_2
@ 024   ----------------------------------------
        .byte   PATT
         .word  mus_thppme_347_wind_god_girl_5_2
@ 025   ----------------------------------------
        .byte   W48
        .byte           N01   , Cn5 , v016
        .byte   W06
        .byte                   Cn5
        .byte   W42
@ 026   ----------------------------------------
        .byte   PATT
         .word  mus_thppme_347_wind_god_girl_5_2
@ 027   ----------------------------------------
        .byte   PATT
         .word  mus_thppme_347_wind_god_girl_5_2
@ 028   ----------------------------------------
        .byte   PATT
         .word  mus_thppme_347_wind_god_girl_5_2
@ 029   ----------------------------------------
        .byte   PATT
         .word  mus_thppme_347_wind_god_girl_5_2
@ 030   ----------------------------------------
        .byte   PATT
         .word  mus_thppme_347_wind_god_girl_5_2
@ 031   ----------------------------------------
        .byte   PATT
         .word  mus_thppme_347_wind_god_girl_5_2
@ 032   ----------------------------------------
        .byte   PATT
         .word  mus_thppme_347_wind_god_girl_5_2
@ 033   ----------------------------------------
        .byte   PATT
         .word  mus_thppme_347_wind_god_girl_5_2
@ 034   ----------------------------------------
        .byte   PATT
         .word  mus_thppme_347_wind_god_girl_5_2
@ 035   ----------------------------------------
        .byte   PATT
         .word  mus_thppme_347_wind_god_girl_5_2
@ 036   ----------------------------------------
        .byte   PATT
         .word  mus_thppme_347_wind_god_girl_5_2
@ 037   ----------------------------------------
        .byte   PATT
         .word  mus_thppme_347_wind_god_girl_5_2
@ 038   ----------------------------------------
        .byte   PATT
         .word  mus_thppme_347_wind_god_girl_5_2
@ 039   ----------------------------------------
        .byte   PATT
         .word  mus_thppme_347_wind_god_girl_5_2
@ 040   ----------------------------------------
        .byte   PATT
         .word  mus_thppme_347_wind_god_girl_5_2
@ 041   ----------------------------------------
        .byte   PATT
         .word  mus_thppme_347_wind_god_girl_5_2
@ 042   ----------------------------------------
        .byte   PATT
         .word  mus_thppme_347_wind_god_girl_5_2
@ 043   ----------------------------------------
        .byte   PATT
         .word  mus_thppme_347_wind_god_girl_5_2
@ 044   ----------------------------------------
        .byte   PATT
         .word  mus_thppme_347_wind_god_girl_5_2
@ 045   ----------------------------------------
        .byte   PATT
         .word  mus_thppme_347_wind_god_girl_5_2
@ 046   ----------------------------------------
        .byte   GOTO
         .word  mus_thppme_347_wind_god_girl_5_LOOP
        .byte   FINE

@****************** Track 6 (Midi-Chn.6) ******************@

mus_thppme_347_wind_god_girl_6:
        .byte   KEYSH , mus_thppme_347_wind_god_girl_key+0
@ 000   ----------------------------------------
        .byte           VOICE , 60
        .byte           VOL   , 60
        .byte   W96
@ 001   ----------------------------------------
        .byte   W96
@ 002   ----------------------------------------
        .byte   W96
@ 003   ----------------------------------------
        .byte   W96
@ 004   ----------------------------------------
        .byte   W96
@ 005   ----------------------------------------
mus_thppme_347_wind_god_girl_6_LOOP:
        .byte   W96
@ 006   ----------------------------------------
        .byte   PATT
         .word  mus_thppme_347_wind_god_girl_1_42
@ 007   ----------------------------------------
        .byte   PATT
         .word  mus_thppme_347_wind_god_girl_1_42
@ 008   ----------------------------------------
        .byte   PATT
         .word  mus_thppme_347_wind_god_girl_1_42
@ 009   ----------------------------------------
        .byte   PATT
         .word  mus_thppme_347_wind_god_girl_1_42
@ 010   ----------------------------------------
mus_thppme_347_wind_god_girl_6_10:
        .byte   W12
        .byte           N06   , Fn4 , v100
        .byte   W24
        .byte                   Fn4
        .byte   W24
        .byte                   Fn4
        .byte   W24
        .byte                   Ds4
        .byte   W12
        .byte   PEND
@ 011   ----------------------------------------
        .byte   PATT
         .word  mus_thppme_347_wind_god_girl_6_10
@ 012   ----------------------------------------
mus_thppme_347_wind_god_girl_6_12:
        .byte   W12
        .byte           N06   , Dn4 , v100
        .byte   W24
        .byte                   Dn4
        .byte   W24
        .byte                   Dn4
        .byte   W24
        .byte                   Cn4
        .byte   W12
        .byte   PEND
@ 013   ----------------------------------------
        .byte   PATT
         .word  mus_thppme_347_wind_god_girl_6_12
@ 014   ----------------------------------------
        .byte   PATT
         .word  mus_thppme_347_wind_god_girl_6_10
@ 015   ----------------------------------------
        .byte   PATT
         .word  mus_thppme_347_wind_god_girl_6_10
@ 016   ----------------------------------------
        .byte   PATT
         .word  mus_thppme_347_wind_god_girl_6_12
@ 017   ----------------------------------------
        .byte   W12
        .byte           N06   , Dn4 , v100
        .byte   W24
        .byte                   Dn4
        .byte   W12
        .byte           VOL   , 112
        .byte           N18   , Dn3
        .byte   W18
        .byte                   An2
        .byte   W18
        .byte           N12   , Cn3
        .byte   W12
@ 018   ----------------------------------------
        .byte   PATT
         .word  mus_thppme_347_wind_god_girl_3_18
@ 019   ----------------------------------------
        .byte   PATT
         .word  mus_thppme_347_wind_god_girl_3_19
@ 020   ----------------------------------------
        .byte   PATT
         .word  mus_thppme_347_wind_god_girl_3_20
@ 021   ----------------------------------------
        .byte   W72
        .byte           EOT   , Gs3
        .byte   W24
@ 022   ----------------------------------------
        .byte   PATT
         .word  mus_thppme_347_wind_god_girl_3_18
@ 023   ----------------------------------------
        .byte   PATT
         .word  mus_thppme_347_wind_god_girl_3_23
@ 024   ----------------------------------------
        .byte   PATT
         .word  mus_thppme_347_wind_god_girl_3_24
@ 025   ----------------------------------------
        .byte   W24
        .byte           VOL   , 60
        .byte           N24   , Fn3 , v100
        .byte   W24
        .byte                   En3
        .byte   W24
        .byte                   Ds3
        .byte   W24
@ 026   ----------------------------------------
        .byte           N48   , Cs3
        .byte   W48
        .byte           N18
        .byte   W18
        .byte                   Gs2
        .byte   W18
        .byte           N12   , Cs3
        .byte   W12
@ 027   ----------------------------------------
        .byte           N48   , Ds3
        .byte   W48
        .byte           N18
        .byte   W18
        .byte                   As2
        .byte   W18
        .byte           N12   , Ds3
        .byte   W12
@ 028   ----------------------------------------
        .byte           N48   , Cn3
        .byte   W48
        .byte           N18
        .byte   W18
        .byte                   Gs2
        .byte   W18
        .byte           N12   , Cn3
        .byte   W12
@ 029   ----------------------------------------
mus_thppme_347_wind_god_girl_6_29:
        .byte           N24   , Fn2 , v100
        .byte           N24   , Fn3
        .byte   W24
        .byte                   Ds2
        .byte           N24   , Ds3
        .byte   W24
        .byte           N18   , Cs2
        .byte           N18   , Cs3
        .byte   W18
        .byte                   Cn2
        .byte           N18   , Cn3
        .byte   W18
        .byte           N12   , Ds2
        .byte           N12   , Ds3
        .byte   W12
        .byte   PEND
@ 030   ----------------------------------------
mus_thppme_347_wind_god_girl_6_30:
        .byte           N48   , Cs3 , v100
        .byte   W48
        .byte           N18
        .byte   W18
        .byte                   Gs3
        .byte   W18
        .byte           N12   , Cs3
        .byte   W12
        .byte   PEND
@ 031   ----------------------------------------
        .byte           N48   , Ds3
        .byte   W48
        .byte           N18
        .byte   W18
        .byte                   As2
        .byte   W18
        .byte           N96   , Fn2
        .byte   W12
@ 032   ----------------------------------------
        .byte   W96
@ 033   ----------------------------------------
        .byte   PATT
         .word  mus_thppme_347_wind_god_girl_6_29
@ 034   ----------------------------------------
        .byte   PATT
         .word  mus_thppme_347_wind_god_girl_6_30
@ 035   ----------------------------------------
        .byte           N48   , Ds3 , v100
        .byte   W48
        .byte           N18
        .byte   W18
        .byte                   As3
        .byte   W18
        .byte           N12   , Ds3
        .byte   W12
@ 036   ----------------------------------------
        .byte           N48   , As2
        .byte   W48
        .byte           N18
        .byte   W18
        .byte                   Fn3
        .byte   W18
        .byte           N12   , Cs3
        .byte   W12
@ 037   ----------------------------------------
        .byte           N18   , Cn3
        .byte   W18
        .byte                   En3
        .byte   W18
        .byte           N12   , Cs3
        .byte   W12
        .byte           N24   , Cn3
        .byte   W24
        .byte                   En3
        .byte   W24
@ 038   ----------------------------------------
        .byte   PATT
         .word  mus_thppme_347_wind_god_girl_6_30
@ 039   ----------------------------------------
        .byte           N48   , Ds3 , v100
        .byte   W48
        .byte           N18
        .byte   W18
        .byte                   As3
        .byte   W18
        .byte           N96   , Fn3
        .byte   W12
@ 040   ----------------------------------------
        .byte   W96
@ 041   ----------------------------------------
        .byte   W96
@ 042   ----------------------------------------
        .byte   W96
@ 043   ----------------------------------------
        .byte   W96
@ 044   ----------------------------------------
        .byte   W96
@ 045   ----------------------------------------
        .byte   W96
@ 046   ----------------------------------------
        .byte   GOTO
         .word  mus_thppme_347_wind_god_girl_6_LOOP
        .byte   FINE

@****************** Track 7 (Midi-Chn.7) ******************@

mus_thppme_347_wind_god_girl_7:
        .byte   KEYSH , mus_thppme_347_wind_god_girl_key+0
@ 000   ----------------------------------------
        .byte           VOICE , 48
        .byte           VOL   , 60
        .byte           N18   , Cn1 , v100
        .byte   W18
        .byte                   Ds1
        .byte   W18
        .byte                   Fn1
        .byte   W18
        .byte                   Gn1
        .byte   W18
        .byte           N12   , As1
        .byte   W12
        .byte                   Cn2
        .byte   W12
@ 001   ----------------------------------------
        .byte   W96
@ 002   ----------------------------------------
mus_thppme_347_wind_god_girl_7_2:
        .byte           N24   , Fn1 , v100
        .byte   W24
        .byte                   Ds1
        .byte   W24
        .byte           N18   , Cs1
        .byte   W18
        .byte                   Cn1
        .byte   W18
        .byte           N12   , Ds1
        .byte   W12
        .byte   PEND
@ 003   ----------------------------------------
        .byte   PATT
         .word  mus_thppme_347_wind_god_girl_7_2
@ 004   ----------------------------------------
        .byte   PATT
         .word  mus_thppme_347_wind_god_girl_7_2
@ 005   ----------------------------------------
mus_thppme_347_wind_god_girl_7_LOOP:
        .byte           N24   , Fn1 , v100
        .byte   W24
        .byte                   Ds1
        .byte   W24
        .byte           N18   , Cs1
        .byte   W18
        .byte                   Cn1
        .byte   W18
        .byte           N12   , Ds1
        .byte   W12
@ 006   ----------------------------------------
        .byte   PATT
         .word  mus_thppme_347_wind_god_girl_7_2
@ 007   ----------------------------------------
        .byte   PATT
         .word  mus_thppme_347_wind_god_girl_7_2
@ 008   ----------------------------------------
        .byte   PATT
         .word  mus_thppme_347_wind_god_girl_7_2
@ 009   ----------------------------------------
        .byte   PATT
         .word  mus_thppme_347_wind_god_girl_7_2
@ 010   ----------------------------------------
        .byte   W96
@ 011   ----------------------------------------
        .byte   W96
@ 012   ----------------------------------------
        .byte   W96
@ 013   ----------------------------------------
        .byte   W96
@ 014   ----------------------------------------
        .byte   W96
@ 015   ----------------------------------------
        .byte   W96
@ 016   ----------------------------------------
        .byte   W96
@ 017   ----------------------------------------
        .byte           VOICE , 83
        .byte           VOL   , 80
        .byte   W96
@ 018   ----------------------------------------
mus_thppme_347_wind_god_girl_7_18:
        .byte           N18   , Gs2 , v080
        .byte   W18
        .byte                   Gs2
        .byte   W18
        .byte           N12
        .byte   W12
        .byte           N48   , Cs3
        .byte   W48
        .byte   PEND
@ 019   ----------------------------------------
        .byte   W12
        .byte           N12   , Gs2
        .byte   W12
        .byte                   As2
        .byte   W12
        .byte                   Ds3
        .byte   W12
        .byte           N18   , As2
        .byte   W18
        .byte                   As2
        .byte   W18
        .byte           N12   , Ds2
        .byte   W12
@ 020   ----------------------------------------
        .byte           N18   , Fn2
        .byte   W18
        .byte                   Fn2
        .byte   W18
        .byte           N12   , Cn3
        .byte   W12
        .byte           TIE   , Fn3
        .byte   W48
@ 021   ----------------------------------------
        .byte   W72
        .byte           EOT
        .byte   W24
@ 022   ----------------------------------------
        .byte   PATT
         .word  mus_thppme_347_wind_god_girl_7_18
@ 023   ----------------------------------------
        .byte   W12
        .byte           N12   , Gs2 , v080
        .byte   W12
        .byte                   As2
        .byte   W12
        .byte                   Fn3
        .byte   W12
        .byte           N18   , Ds3
        .byte   W18
        .byte                   Ds3
        .byte   W18
        .byte           N12
        .byte   W12
@ 024   ----------------------------------------
        .byte           N18   , Cn3
        .byte   W18
        .byte                   Cn3
        .byte   W18
        .byte           N12   , En3
        .byte   W12
        .byte           N60   , Gn3
        .byte   W48
@ 025   ----------------------------------------
        .byte   W24
        .byte           N24   , Fn2
        .byte   W24
        .byte                   En2
        .byte   W24
        .byte                   Ds2
        .byte   W24
@ 026   ----------------------------------------
        .byte   W96
@ 027   ----------------------------------------
        .byte   W96
@ 028   ----------------------------------------
        .byte   W96
@ 029   ----------------------------------------
        .byte   W96
@ 030   ----------------------------------------
        .byte   W96
@ 031   ----------------------------------------
        .byte   W96
@ 032   ----------------------------------------
        .byte   W96
@ 033   ----------------------------------------
        .byte   W96
@ 034   ----------------------------------------
        .byte   W96
@ 035   ----------------------------------------
        .byte   W96
@ 036   ----------------------------------------
        .byte   W96
@ 037   ----------------------------------------
        .byte   W96
@ 038   ----------------------------------------
        .byte   W96
@ 039   ----------------------------------------
        .byte   W96
@ 040   ----------------------------------------
        .byte   W96
@ 041   ----------------------------------------
        .byte           VOICE , 48
        .byte           VOL   , 60
        .byte   W96
@ 042   ----------------------------------------
        .byte   PATT
         .word  mus_thppme_347_wind_god_girl_7_2
@ 043   ----------------------------------------
        .byte   PATT
         .word  mus_thppme_347_wind_god_girl_7_2
@ 044   ----------------------------------------
        .byte   PATT
         .word  mus_thppme_347_wind_god_girl_7_2
@ 045   ----------------------------------------
        .byte   PATT
         .word  mus_thppme_347_wind_god_girl_7_2
@ 046   ----------------------------------------
        .byte   GOTO
         .word  mus_thppme_347_wind_god_girl_7_LOOP
        .byte   FINE


@********************** End of Song ***********************@

        .align  2
mus_thppme_347_wind_god_girl:
        .byte   8                       @ Num Tracks
        .byte   0                       @ Unknown
        .byte   mus_thppme_347_wind_god_girl_pri @ Priority
        .byte   mus_thppme_347_wind_god_girl_rev @ Reverb

        .word   mus_thppme_347_wind_god_girl_grp

        .word   mus_thppme_347_wind_god_girl_0
        .word   mus_thppme_347_wind_god_girl_1
        .word   mus_thppme_347_wind_god_girl_2
        .word   mus_thppme_347_wind_god_girl_3
        .word   mus_thppme_347_wind_god_girl_4
        .word   mus_thppme_347_wind_god_girl_5
        .word   mus_thppme_347_wind_god_girl_6
        .word   mus_thppme_347_wind_god_girl_7

        .end
