	.include "MPlayDef.s"

	.equ	mus_thpp_edmadley_grp, voicegroup201
	.equ	mus_thpp_edmadley_pri, 0
	.equ	mus_thpp_edmadley_rev, 0
	.equ	mus_thpp_edmadley_mvl, 127
	.equ	mus_thpp_edmadley_key, 0
	.equ	mus_thpp_edmadley_tbs, 1
	.equ	mus_thpp_edmadley_exg, 0
	.equ	mus_thpp_edmadley_cmp, 1

	.section .rodata
	.global	mus_thpp_edmadley
	.align	2

@**************** Track 1 (Midi-Chn.1) ****************@

mus_thpp_edmadley_1:
	.byte	KEYSH , mus_thpp_edmadley_key+0
@ 000   ----------------------------------------
	.byte	W96
@ 001   ----------------------------------------
	.byte	TEMPO , 100*mus_thpp_edmadley_tbs/2
	.byte		VOICE , 73
	.byte		VOL   , 100*mus_thpp_edmadley_mvl/mxv
	.byte		PAN   , c_v+0
	.byte		BEND  , c_v+0
	.byte		N24   , Gn4 , v112
	.byte	W24
	.byte		        As4 
	.byte	W24
	.byte		N48   , Dn5 
	.byte	W48
@ 002   ----------------------------------------
mus_thpp_edmadley_1_002:
	.byte		N24   , Cn5 , v112
	.byte	W24
	.byte		        As4 
	.byte	W24
	.byte		N48   , An4 
	.byte	W48
	.byte	PEND
@ 003   ----------------------------------------
	.byte		N24   , Gn4 
	.byte	W24
	.byte		        Fn4 
	.byte	W24
	.byte		TIE   , Gn4 
	.byte	W48
@ 004   ----------------------------------------
	.byte	W84
	.byte		EOT   
	.byte	W12
@ 005   ----------------------------------------
	.byte		N24   
	.byte	W24
	.byte		        As4 
	.byte	W24
	.byte		N48   , Dn5 
	.byte	W48
@ 006   ----------------------------------------
	.byte	PATT
	 .word	mus_thpp_edmadley_1_002
@ 007   ----------------------------------------
	.byte		N48   , Fn5 , v112
	.byte	W48
	.byte		TIE   , Dn5 
	.byte	W48
@ 008   ----------------------------------------
	.byte	W84
	.byte		EOT   
	.byte	W12
@ 009   ----------------------------------------
	.byte	W96
@ 010   ----------------------------------------
	.byte	W96
@ 011   ----------------------------------------
	.byte	W96
@ 012   ----------------------------------------
	.byte	W96
@ 013   ----------------------------------------
	.byte	W96
@ 014   ----------------------------------------
	.byte	W48
	.byte	TEMPO , 100*mus_thpp_edmadley_tbs/2
	.byte	W24
	.byte	TEMPO , 84*mus_thpp_edmadley_tbs/2
	.byte	W23
	.byte	TEMPO , 72*mus_thpp_edmadley_tbs/2
	.byte	W01
@ 015   ----------------------------------------
	.byte	W12
	.byte	TEMPO , 64*mus_thpp_edmadley_tbs/2
	.byte	W12
	.byte	TEMPO , 58*mus_thpp_edmadley_tbs/2
	.byte	W12
	.byte	TEMPO , 14*mus_thpp_edmadley_tbs/2
	.byte	W12
	.byte	TEMPO , 122*mus_thpp_edmadley_tbs/2
	.byte	W48
@ 016   ----------------------------------------
	.byte	W96
@ 017   ----------------------------------------
	.byte	W96
@ 018   ----------------------------------------
	.byte	W96
@ 019   ----------------------------------------
	.byte	W96
@ 020   ----------------------------------------
	.byte	W96
@ 021   ----------------------------------------
	.byte	W96
@ 022   ----------------------------------------
	.byte	W96
@ 023   ----------------------------------------
	.byte	W96
@ 024   ----------------------------------------
	.byte	W96
@ 025   ----------------------------------------
	.byte	W96
@ 026   ----------------------------------------
	.byte	W96
@ 027   ----------------------------------------
	.byte	W96
@ 028   ----------------------------------------
	.byte	W96
@ 029   ----------------------------------------
	.byte	W96
@ 030   ----------------------------------------
	.byte	W96
@ 031   ----------------------------------------
	.byte	W96
@ 032   ----------------------------------------
	.byte	W96
@ 033   ----------------------------------------
	.byte	W96
@ 034   ----------------------------------------
	.byte	W96
@ 035   ----------------------------------------
	.byte	W96
@ 036   ----------------------------------------
	.byte	W96
@ 037   ----------------------------------------
	.byte	W96
@ 038   ----------------------------------------
	.byte	W96
@ 039   ----------------------------------------
	.byte	W96
@ 040   ----------------------------------------
	.byte	W96
@ 041   ----------------------------------------
	.byte	W96
@ 042   ----------------------------------------
	.byte	W96
@ 043   ----------------------------------------
	.byte	W96
@ 044   ----------------------------------------
	.byte	W96
@ 045   ----------------------------------------
	.byte	W96
@ 046   ----------------------------------------
	.byte	W96
@ 047   ----------------------------------------
	.byte	W96
@ 048   ----------------------------------------
	.byte	W96
@ 049   ----------------------------------------
	.byte	W96
@ 050   ----------------------------------------
	.byte	W96
@ 051   ----------------------------------------
	.byte	W96
@ 052   ----------------------------------------
	.byte	W96
@ 053   ----------------------------------------
	.byte	W96
@ 054   ----------------------------------------
	.byte	W96
@ 055   ----------------------------------------
	.byte	W96
@ 056   ----------------------------------------
	.byte	W96
@ 057   ----------------------------------------
	.byte	W96
@ 058   ----------------------------------------
	.byte	W96
@ 059   ----------------------------------------
	.byte	W96
@ 060   ----------------------------------------
	.byte	W96
@ 061   ----------------------------------------
	.byte	W96
@ 062   ----------------------------------------
	.byte	W96
@ 063   ----------------------------------------
	.byte	W96
@ 064   ----------------------------------------
	.byte	W96
@ 065   ----------------------------------------
	.byte	W96
@ 066   ----------------------------------------
	.byte	W96
@ 067   ----------------------------------------
	.byte	TEMPO , 164*mus_thpp_edmadley_tbs/2
	.byte	W96
@ 068   ----------------------------------------
	.byte	W96
@ 069   ----------------------------------------
	.byte	W96
@ 070   ----------------------------------------
	.byte	W96
@ 071   ----------------------------------------
	.byte	W96
@ 072   ----------------------------------------
	.byte	W96
@ 073   ----------------------------------------
	.byte	W96
@ 074   ----------------------------------------
	.byte	W96
@ 075   ----------------------------------------
	.byte	W96
@ 076   ----------------------------------------
	.byte	W96
@ 077   ----------------------------------------
	.byte	W96
@ 078   ----------------------------------------
	.byte	W96
@ 079   ----------------------------------------
	.byte	W96
@ 080   ----------------------------------------
	.byte	W96
@ 081   ----------------------------------------
	.byte	W96
@ 082   ----------------------------------------
	.byte	W96
@ 083   ----------------------------------------
	.byte	W96
@ 084   ----------------------------------------
	.byte	W96
@ 085   ----------------------------------------
	.byte	W96
@ 086   ----------------------------------------
	.byte	W96
@ 087   ----------------------------------------
	.byte	W96
@ 088   ----------------------------------------
	.byte	W96
@ 089   ----------------------------------------
	.byte	W96
@ 090   ----------------------------------------
	.byte	W96
@ 091   ----------------------------------------
	.byte	W96
@ 092   ----------------------------------------
	.byte	W96
@ 093   ----------------------------------------
	.byte	W96
@ 094   ----------------------------------------
	.byte	W96
@ 095   ----------------------------------------
	.byte	W96
@ 096   ----------------------------------------
	.byte	W96
@ 097   ----------------------------------------
	.byte	W96
@ 098   ----------------------------------------
	.byte	W60
	.byte	W02
	.byte	TEMPO , 152*mus_thpp_edmadley_tbs/2
	.byte	W01
	.byte	TEMPO , 170*mus_thpp_edmadley_tbs/2
	.byte	W21
	.byte	TEMPO , 170*mus_thpp_edmadley_tbs/2
	.byte	W12
@ 099   ----------------------------------------
	.byte	W10
	.byte	TEMPO , 172*mus_thpp_edmadley_tbs/2
	.byte	W21
	.byte	TEMPO , 172*mus_thpp_edmadley_tbs/2
	.byte	W22
	.byte	TEMPO , 174*mus_thpp_edmadley_tbs/2
	.byte	W21
	.byte	TEMPO , 174*mus_thpp_edmadley_tbs/2
	.byte	W22
@ 100   ----------------------------------------
	.byte	TEMPO , 176*mus_thpp_edmadley_tbs/2
	.byte	W21
	.byte	TEMPO , 176*mus_thpp_edmadley_tbs/2
	.byte	W22
	.byte	TEMPO , 178*mus_thpp_edmadley_tbs/2
	.byte	W04
	.byte	TEMPO , 150*mus_thpp_edmadley_tbs/2
	.byte	W01
	.byte	TEMPO , 140*mus_thpp_edmadley_tbs/2
	.byte	W12
	.byte	TEMPO , 122*mus_thpp_edmadley_tbs/2
	.byte	W12
	.byte	TEMPO , 102*mus_thpp_edmadley_tbs/2
	.byte	W12
	.byte	TEMPO , 84*mus_thpp_edmadley_tbs/2
	.byte	W12
@ 101   ----------------------------------------
	.byte	TEMPO , 64*mus_thpp_edmadley_tbs/2
	.byte	W01
	.byte	TEMPO , 62*mus_thpp_edmadley_tbs/2
	.byte	W01
	.byte	TEMPO , 70*mus_thpp_edmadley_tbs/2
	.byte	W02
	.byte	TEMPO , 56*mus_thpp_edmadley_tbs/2
	.byte	W92
@ 102   ----------------------------------------
	.byte	W96
@ 103   ----------------------------------------
	.byte	W96
@ 104   ----------------------------------------
	.byte	W96
@ 105   ----------------------------------------
	.byte	W96
@ 106   ----------------------------------------
	.byte	W96
@ 107   ----------------------------------------
	.byte	W96
@ 108   ----------------------------------------
	.byte	W96
@ 109   ----------------------------------------
	.byte	W96
@ 110   ----------------------------------------
	.byte	W18
	.byte	TEMPO , 30*mus_thpp_edmadley_tbs/2
	.byte	W17
	.byte	TEMPO , 10*mus_thpp_edmadley_tbs/2
	.byte	W13
	.byte	TEMPO , 104*mus_thpp_edmadley_tbs/2
	.byte	W48
@ 111   ----------------------------------------
	.byte	W96
@ 112   ----------------------------------------
	.byte	W96
@ 113   ----------------------------------------
	.byte	W96
@ 114   ----------------------------------------
	.byte	W48
	.byte	TEMPO , 104*mus_thpp_edmadley_tbs/2
	.byte	W48
@ 115   ----------------------------------------
	.byte	W96
@ 116   ----------------------------------------
	.byte	W96
@ 117   ----------------------------------------
	.byte	W96
@ 118   ----------------------------------------
	.byte	W96
@ 119   ----------------------------------------
	.byte	W06
	.byte	FINE

@**************** Track 2 (Midi-Chn.2) ****************@

mus_thpp_edmadley_2:
	.byte	KEYSH , mus_thpp_edmadley_key+0
@ 000   ----------------------------------------
	.byte	W96
@ 001   ----------------------------------------
	.byte		VOICE , 68
	.byte		VOL   , 94*mus_thpp_edmadley_mvl/mxv
	.byte		PAN   , c_v+0
	.byte		BEND  , c_v+0
	.byte		N24   , Gn3 , v112
	.byte	W24
	.byte		        As3 
	.byte	W24
	.byte		N48   , Dn4 
	.byte	W48
@ 002   ----------------------------------------
mus_thpp_edmadley_2_002:
	.byte		N24   , Cn4 , v112
	.byte	W24
	.byte		        As3 
	.byte	W24
	.byte		N48   , An3 
	.byte	W48
	.byte	PEND
@ 003   ----------------------------------------
	.byte		N24   , Gn3 
	.byte	W24
	.byte		        Fn3 
	.byte	W24
	.byte		TIE   , Gn3 
	.byte	W48
@ 004   ----------------------------------------
	.byte	W84
	.byte		EOT   
	.byte	W12
@ 005   ----------------------------------------
	.byte		N24   
	.byte	W24
	.byte		        As3 
	.byte	W24
	.byte		N48   , Dn4 
	.byte	W48
@ 006   ----------------------------------------
	.byte	PATT
	 .word	mus_thpp_edmadley_2_002
@ 007   ----------------------------------------
	.byte		N48   , Fn4 , v112
	.byte	W48
	.byte		TIE   , Dn4 
	.byte	W48
@ 008   ----------------------------------------
	.byte	W84
	.byte		EOT   
	.byte	W12
@ 009   ----------------------------------------
	.byte	W96
@ 010   ----------------------------------------
	.byte	W96
@ 011   ----------------------------------------
	.byte	W96
@ 012   ----------------------------------------
	.byte	W96
@ 013   ----------------------------------------
	.byte	W96
@ 014   ----------------------------------------
	.byte	W96
@ 015   ----------------------------------------
	.byte	W48
	.byte		N06   , Gn3 
	.byte	W12
	.byte		        Dn4 
	.byte	W12
	.byte		        An3 
	.byte	W06
	.byte		        As3 
	.byte	W06
	.byte		        Fn3 
	.byte	W06
	.byte		        Dn3 
	.byte	W06
@ 016   ----------------------------------------
mus_thpp_edmadley_2_016:
	.byte		N06   , Dn3 , v112
	.byte	W12
	.byte		        As3 
	.byte	W12
	.byte		        An3 
	.byte	W06
	.byte		        As3 
	.byte	W06
	.byte		        Fn3 
	.byte	W06
	.byte		        An3 
	.byte	W06
	.byte		        Gn3 
	.byte	W12
	.byte		        Dn4 
	.byte	W12
	.byte		        An3 
	.byte	W06
	.byte		        As3 
	.byte	W06
	.byte		        Fn3 
	.byte	W06
	.byte		        Dn3 
	.byte	W06
	.byte	PEND
@ 017   ----------------------------------------
	.byte	PATT
	 .word	mus_thpp_edmadley_2_016
@ 018   ----------------------------------------
	.byte	PATT
	 .word	mus_thpp_edmadley_2_016
@ 019   ----------------------------------------
	.byte	PATT
	 .word	mus_thpp_edmadley_2_016
@ 020   ----------------------------------------
	.byte	PATT
	 .word	mus_thpp_edmadley_2_016
@ 021   ----------------------------------------
	.byte	PATT
	 .word	mus_thpp_edmadley_2_016
@ 022   ----------------------------------------
	.byte	PATT
	 .word	mus_thpp_edmadley_2_016
@ 023   ----------------------------------------
	.byte	PATT
	 .word	mus_thpp_edmadley_2_016
@ 024   ----------------------------------------
	.byte	PATT
	 .word	mus_thpp_edmadley_2_016
@ 025   ----------------------------------------
	.byte	PATT
	 .word	mus_thpp_edmadley_2_016
@ 026   ----------------------------------------
	.byte	PATT
	 .word	mus_thpp_edmadley_2_016
@ 027   ----------------------------------------
	.byte	PATT
	 .word	mus_thpp_edmadley_2_016
@ 028   ----------------------------------------
	.byte	PATT
	 .word	mus_thpp_edmadley_2_016
@ 029   ----------------------------------------
	.byte	PATT
	 .word	mus_thpp_edmadley_2_016
@ 030   ----------------------------------------
	.byte	PATT
	 .word	mus_thpp_edmadley_2_016
@ 031   ----------------------------------------
	.byte	PATT
	 .word	mus_thpp_edmadley_2_016
@ 032   ----------------------------------------
	.byte	PATT
	 .word	mus_thpp_edmadley_2_016
@ 033   ----------------------------------------
	.byte	PATT
	 .word	mus_thpp_edmadley_2_016
@ 034   ----------------------------------------
	.byte	PATT
	 .word	mus_thpp_edmadley_2_016
@ 035   ----------------------------------------
	.byte		N06   , Dn3 , v112
	.byte	W12
	.byte		        As3 
	.byte	W12
	.byte		        An3 
	.byte	W06
	.byte		        As3 
	.byte	W06
	.byte		        Fn3 
	.byte	W06
	.byte		        An3 
	.byte	W54
@ 036   ----------------------------------------
	.byte	W96
@ 037   ----------------------------------------
	.byte	W96
@ 038   ----------------------------------------
	.byte	W96
@ 039   ----------------------------------------
	.byte	W96
@ 040   ----------------------------------------
	.byte	W96
@ 041   ----------------------------------------
	.byte	W96
@ 042   ----------------------------------------
	.byte	W96
@ 043   ----------------------------------------
	.byte	W96
@ 044   ----------------------------------------
	.byte	W96
@ 045   ----------------------------------------
	.byte	W96
@ 046   ----------------------------------------
	.byte	W96
@ 047   ----------------------------------------
	.byte	W96
@ 048   ----------------------------------------
	.byte	W96
@ 049   ----------------------------------------
	.byte	W96
@ 050   ----------------------------------------
	.byte	W96
@ 051   ----------------------------------------
	.byte	W96
@ 052   ----------------------------------------
	.byte	W48
	.byte		TIE   
	.byte	W48
@ 053   ----------------------------------------
	.byte	W96
@ 054   ----------------------------------------
	.byte	W24
	.byte		EOT   
	.byte		N24   , Bn3 
	.byte	W24
	.byte		TIE   , Cs4 
	.byte	W48
@ 055   ----------------------------------------
	.byte	W96
@ 056   ----------------------------------------
	.byte	W48
	.byte		EOT   
	.byte		TIE   , As3 
	.byte	W48
@ 057   ----------------------------------------
	.byte	W96
@ 058   ----------------------------------------
	.byte	W48
	.byte		EOT   
	.byte		N48   , An3 
	.byte	W48
@ 059   ----------------------------------------
mus_thpp_edmadley_2_059:
	.byte		N48   , Bn3 , v112
	.byte	W48
	.byte		N96   , Cs4 
	.byte	W48
	.byte	PEND
@ 060   ----------------------------------------
	.byte	W48
	.byte		N48   , An3 
	.byte	W48
@ 061   ----------------------------------------
	.byte	PATT
	 .word	mus_thpp_edmadley_2_059
@ 062   ----------------------------------------
	.byte	W48
	.byte		N48   , An3 , v112
	.byte	W48
@ 063   ----------------------------------------
	.byte	PATT
	 .word	mus_thpp_edmadley_2_059
@ 064   ----------------------------------------
	.byte	W48
	.byte		N48   , An3 , v112
	.byte	W48
@ 065   ----------------------------------------
	.byte	PATT
	 .word	mus_thpp_edmadley_2_059
@ 066   ----------------------------------------
	.byte	W96
@ 067   ----------------------------------------
	.byte	W96
@ 068   ----------------------------------------
	.byte	W96
@ 069   ----------------------------------------
	.byte	W96
@ 070   ----------------------------------------
	.byte	W96
@ 071   ----------------------------------------
	.byte	W96
@ 072   ----------------------------------------
	.byte	W96
@ 073   ----------------------------------------
	.byte	W96
@ 074   ----------------------------------------
	.byte	W96
@ 075   ----------------------------------------
	.byte	W96
@ 076   ----------------------------------------
	.byte	W96
@ 077   ----------------------------------------
	.byte	W96
@ 078   ----------------------------------------
	.byte	W96
@ 079   ----------------------------------------
	.byte	W96
@ 080   ----------------------------------------
	.byte	W96
@ 081   ----------------------------------------
	.byte	W96
@ 082   ----------------------------------------
	.byte	W96
@ 083   ----------------------------------------
	.byte	W96
@ 084   ----------------------------------------
	.byte	W96
@ 085   ----------------------------------------
	.byte	W96
@ 086   ----------------------------------------
	.byte	W96
@ 087   ----------------------------------------
	.byte	W96
@ 088   ----------------------------------------
	.byte	W96
@ 089   ----------------------------------------
	.byte	W96
@ 090   ----------------------------------------
	.byte	W96
@ 091   ----------------------------------------
	.byte	W96
@ 092   ----------------------------------------
	.byte	W96
@ 093   ----------------------------------------
	.byte	W96
@ 094   ----------------------------------------
	.byte	W96
@ 095   ----------------------------------------
	.byte	W96
@ 096   ----------------------------------------
	.byte	W96
@ 097   ----------------------------------------
	.byte	W96
@ 098   ----------------------------------------
	.byte	W96
@ 099   ----------------------------------------
	.byte	W96
@ 100   ----------------------------------------
	.byte	W96
@ 101   ----------------------------------------
	.byte	W96
@ 102   ----------------------------------------
	.byte	W96
@ 103   ----------------------------------------
	.byte	W96
@ 104   ----------------------------------------
	.byte	W96
@ 105   ----------------------------------------
	.byte	W96
@ 106   ----------------------------------------
	.byte	W96
@ 107   ----------------------------------------
	.byte	W96
@ 108   ----------------------------------------
	.byte	W96
@ 109   ----------------------------------------
	.byte	W96
@ 110   ----------------------------------------
	.byte	W96
@ 111   ----------------------------------------
	.byte	W96
@ 112   ----------------------------------------
	.byte	W96
@ 113   ----------------------------------------
	.byte	W96
@ 114   ----------------------------------------
	.byte	W48
	.byte		N06   , Dn3 , v112
	.byte	W12
	.byte		        An3 
	.byte	W12
	.byte		        En3 
	.byte	W06
	.byte		        Fn3 
	.byte	W06
	.byte		        Cn3 
	.byte	W06
	.byte		        An2 
	.byte	W06
@ 115   ----------------------------------------
mus_thpp_edmadley_2_115:
	.byte		N06   , An2 , v112
	.byte	W12
	.byte		        Fn3 
	.byte	W12
	.byte		        En3 
	.byte	W06
	.byte		        Fn3 
	.byte	W06
	.byte		        Cn3 
	.byte	W06
	.byte		        En3 
	.byte	W06
	.byte		        Dn3 
	.byte	W12
	.byte		        An3 
	.byte	W12
	.byte		        En3 
	.byte	W06
	.byte		        Fn3 
	.byte	W06
	.byte		        Cn3 
	.byte	W06
	.byte		        An2 
	.byte	W06
	.byte	PEND
@ 116   ----------------------------------------
	.byte	PATT
	 .word	mus_thpp_edmadley_2_115
@ 117   ----------------------------------------
	.byte	PATT
	 .word	mus_thpp_edmadley_2_115
@ 118   ----------------------------------------
	.byte		N06   , An2 , v112
	.byte	W12
	.byte		        Fn3 
	.byte	W12
	.byte		        En3 
	.byte	W06
	.byte		        Fn3 
	.byte	W06
	.byte		        Cn3 
	.byte	W06
	.byte		        En3 
	.byte	W06
	.byte		        Dn3 
	.byte	W48
@ 119   ----------------------------------------
	.byte	W06
	.byte	FINE

@**************** Track 3 (Midi-Chn.3) ****************@

mus_thpp_edmadley_3:
	.byte	KEYSH , mus_thpp_edmadley_key+0
@ 000   ----------------------------------------
	.byte	W96
@ 001   ----------------------------------------
	.byte		VOICE , 56
	.byte		VOL   , 103*mus_thpp_edmadley_mvl/mxv
	.byte		PAN   , c_v+0
	.byte		BEND  , c_v+0
	.byte	W96
@ 002   ----------------------------------------
	.byte	W96
@ 003   ----------------------------------------
	.byte	W96
@ 004   ----------------------------------------
	.byte	W96
@ 005   ----------------------------------------
	.byte	W96
@ 006   ----------------------------------------
	.byte	W96
@ 007   ----------------------------------------
	.byte	W96
@ 008   ----------------------------------------
	.byte	W96
@ 009   ----------------------------------------
	.byte		N24   , Dn4 , v112
	.byte	W24
	.byte		        Fn4 
	.byte	W24
	.byte		N48   , Gn4 
	.byte	W48
@ 010   ----------------------------------------
	.byte		N24   , Fn4 
	.byte	W24
	.byte		        Dn4 
	.byte	W24
	.byte		N48   , Cn4 
	.byte	W48
@ 011   ----------------------------------------
	.byte		N24   
	.byte	W24
	.byte		        Fn4 
	.byte	W24
	.byte		N48   , Dn4 
	.byte	W48
@ 012   ----------------------------------------
	.byte		N24   , Cn4 
	.byte	W24
	.byte		        An3 
	.byte	W24
	.byte		N48   , Gn3 
	.byte	W48
@ 013   ----------------------------------------
	.byte		N24   
	.byte	W24
	.byte		        An3 
	.byte	W24
	.byte		N48   , As3 
	.byte	W48
@ 014   ----------------------------------------
	.byte		N24   
	.byte	W24
	.byte		        Cn4 
	.byte	W24
	.byte		        An3 
	.byte	W24
	.byte		        Gn3 
	.byte	W24
@ 015   ----------------------------------------
	.byte		N48   , Fn3 
	.byte	W48
	.byte		N12   , Gn3 
	.byte	W48
@ 016   ----------------------------------------
	.byte	W48
	.byte		N12   
	.byte	W48
@ 017   ----------------------------------------
	.byte	W48
	.byte		N12   
	.byte	W48
@ 018   ----------------------------------------
	.byte	W48
	.byte		N12   
	.byte	W48
@ 019   ----------------------------------------
	.byte	W96
@ 020   ----------------------------------------
	.byte	W96
@ 021   ----------------------------------------
	.byte	W96
@ 022   ----------------------------------------
	.byte	W96
@ 023   ----------------------------------------
	.byte	W96
@ 024   ----------------------------------------
	.byte	W96
@ 025   ----------------------------------------
	.byte	W96
@ 026   ----------------------------------------
	.byte	W96
@ 027   ----------------------------------------
	.byte	W48
	.byte		N24   
	.byte	W24
	.byte		N24   
	.byte	W24
@ 028   ----------------------------------------
	.byte		N18   , Fn3 
	.byte	W18
	.byte		        An3 
	.byte	W18
	.byte		N66   , As3 
	.byte	W60
@ 029   ----------------------------------------
mus_thpp_edmadley_3_029:
	.byte	W12
	.byte		N12   , Ds4 , v112
	.byte	W12
	.byte		        Dn4 
	.byte	W12
	.byte		        As3 
	.byte	W12
	.byte		N24   , Gn3 
	.byte	W24
	.byte		N24   
	.byte	W24
	.byte	PEND
@ 030   ----------------------------------------
	.byte		N18   , Fn3 
	.byte	W18
	.byte		        Cn4 
	.byte	W18
	.byte		N48   , As3 
	.byte	W48
	.byte		N24   , Dn4 
	.byte	W12
@ 031   ----------------------------------------
	.byte	PATT
	 .word	mus_thpp_edmadley_3_029
@ 032   ----------------------------------------
	.byte		N18   , Fn3 , v112
	.byte	W18
	.byte		        An3 
	.byte	W18
	.byte		N48   , As3 
	.byte	W48
	.byte		N24   
	.byte	W12
@ 033   ----------------------------------------
	.byte	W12
	.byte		N12   , Cn4 
	.byte	W12
	.byte		        Dn4 
	.byte	W12
	.byte		        Fn4 
	.byte	W12
	.byte		N18   , Gn4 
	.byte	W18
	.byte		        As4 
	.byte	W18
	.byte		N12   , An4 
	.byte	W12
@ 034   ----------------------------------------
	.byte		N18   , Gn4 
	.byte	W18
	.byte		        Fn4 
	.byte	W18
	.byte		TIE   , Gn4 
	.byte	W60
@ 035   ----------------------------------------
	.byte	W48
	.byte		EOT   
	.byte	W48
@ 036   ----------------------------------------
	.byte	W96
@ 037   ----------------------------------------
	.byte	W96
@ 038   ----------------------------------------
	.byte	W96
@ 039   ----------------------------------------
	.byte	W96
@ 040   ----------------------------------------
	.byte	W96
@ 041   ----------------------------------------
	.byte	W96
@ 042   ----------------------------------------
	.byte	W96
@ 043   ----------------------------------------
	.byte	W96
@ 044   ----------------------------------------
mus_thpp_edmadley_3_044:
	.byte	W24
	.byte		N12   , Cs4 , v112
	.byte	W12
	.byte		        Gs4 
	.byte	W12
	.byte		N36   , Fs4 
	.byte	W36
	.byte		N12   , En4 
	.byte	W12
	.byte	PEND
@ 045   ----------------------------------------
mus_thpp_edmadley_3_045:
	.byte		N18   , Ds4 , v112
	.byte	W18
	.byte		        Bn3 
	.byte	W18
	.byte		N72   , Cs4 
	.byte	W60
	.byte	PEND
@ 046   ----------------------------------------
	.byte	PATT
	 .word	mus_thpp_edmadley_3_044
@ 047   ----------------------------------------
mus_thpp_edmadley_3_047:
	.byte		N18   , Ds4 , v112
	.byte	W18
	.byte		        Bn4 
	.byte	W18
	.byte		N72   , Gs4 
	.byte	W60
	.byte	PEND
@ 048   ----------------------------------------
	.byte	PATT
	 .word	mus_thpp_edmadley_3_044
@ 049   ----------------------------------------
	.byte	PATT
	 .word	mus_thpp_edmadley_3_045
@ 050   ----------------------------------------
mus_thpp_edmadley_3_050:
	.byte	W24
	.byte		N12   , Cs4 , v112
	.byte	W12
	.byte		        Ds4 
	.byte	W12
	.byte		        En4 
	.byte	W12
	.byte		        Ds4 
	.byte	W12
	.byte		        Bn3 
	.byte	W12
	.byte		N60   , Cs4 
	.byte	W12
	.byte	PEND
@ 051   ----------------------------------------
	.byte	W48
	.byte		        Gs4 
	.byte	W48
@ 052   ----------------------------------------
	.byte	PATT
	 .word	mus_thpp_edmadley_3_044
@ 053   ----------------------------------------
	.byte	PATT
	 .word	mus_thpp_edmadley_3_045
@ 054   ----------------------------------------
	.byte	PATT
	 .word	mus_thpp_edmadley_3_044
@ 055   ----------------------------------------
	.byte	PATT
	 .word	mus_thpp_edmadley_3_047
@ 056   ----------------------------------------
	.byte	PATT
	 .word	mus_thpp_edmadley_3_044
@ 057   ----------------------------------------
	.byte	PATT
	 .word	mus_thpp_edmadley_3_045
@ 058   ----------------------------------------
	.byte	PATT
	 .word	mus_thpp_edmadley_3_050
@ 059   ----------------------------------------
	.byte	W48
	.byte		TIE   , Cs5 , v112
	.byte	W48
@ 060   ----------------------------------------
	.byte	W96
@ 061   ----------------------------------------
	.byte	W96
@ 062   ----------------------------------------
	.byte	W48
	.byte		EOT   
	.byte	W48
@ 063   ----------------------------------------
	.byte	W96
@ 064   ----------------------------------------
	.byte	W48
	.byte		N48   , En5 
	.byte	W48
@ 065   ----------------------------------------
	.byte		        Ds5 
	.byte	W48
	.byte		N84   , Cs5 
	.byte	W48
@ 066   ----------------------------------------
	.byte	W36
	.byte		N06   
	.byte	W06
	.byte		N06   
	.byte	W06
	.byte		N04   
	.byte	W48
@ 067   ----------------------------------------
mus_thpp_edmadley_3_067:
	.byte		N12   , Cn4 , v112
	.byte	W24
	.byte		N06   
	.byte	W12
	.byte		N12   , Fn3 
	.byte	W36
	.byte		N24   , Gn3 
	.byte	W24
	.byte	PEND
@ 068   ----------------------------------------
	.byte		N12   , Cn3 
	.byte	W12
	.byte		        Fn3 
	.byte	W24
	.byte		        Gn3 
	.byte	W36
	.byte		N06   , Gs3 
	.byte	W12
	.byte		        As2 
	.byte	W12
@ 069   ----------------------------------------
	.byte	PATT
	 .word	mus_thpp_edmadley_3_067
@ 070   ----------------------------------------
	.byte		N12   , Cn3 , v112
	.byte	W12
	.byte		        Fn3 
	.byte	W24
	.byte		        Gn3 
	.byte	W36
	.byte		        Gs3 
	.byte	W12
	.byte		        As3 
	.byte	W12
@ 071   ----------------------------------------
	.byte		        Cn3 
	.byte		N12   , Cn4 
	.byte	W24
	.byte		N06   
	.byte	W12
	.byte		N12   , Fn4 
	.byte	W36
	.byte		N24   , Gn4 
	.byte	W24
@ 072   ----------------------------------------
	.byte		N12   , Cn4 
	.byte	W12
	.byte		        Fn4 
	.byte	W24
	.byte		        Gn4 
	.byte	W36
	.byte		        Gs4 
	.byte	W12
	.byte		        As4 
	.byte	W12
@ 073   ----------------------------------------
	.byte		        Cn5 
	.byte	W24
	.byte		N06   
	.byte	W12
	.byte		N12   , Fn5 
	.byte	W36
	.byte		N24   , Gn5 
	.byte	W24
@ 074   ----------------------------------------
	.byte		N12   , Cn5 
	.byte	W12
	.byte		        Fn5 
	.byte	W24
	.byte		        Gn5 
	.byte	W36
	.byte		N24   , Gs5 
	.byte	W24
@ 075   ----------------------------------------
	.byte	W96
@ 076   ----------------------------------------
	.byte	W96
@ 077   ----------------------------------------
	.byte	W96
@ 078   ----------------------------------------
	.byte	W96
@ 079   ----------------------------------------
	.byte	W96
@ 080   ----------------------------------------
	.byte	W96
@ 081   ----------------------------------------
	.byte	W96
@ 082   ----------------------------------------
	.byte	W96
@ 083   ----------------------------------------
	.byte	W96
@ 084   ----------------------------------------
	.byte	W96
@ 085   ----------------------------------------
	.byte	W96
@ 086   ----------------------------------------
	.byte	W96
@ 087   ----------------------------------------
	.byte	W96
@ 088   ----------------------------------------
	.byte	W96
@ 089   ----------------------------------------
	.byte	W96
@ 090   ----------------------------------------
	.byte	W96
@ 091   ----------------------------------------
	.byte	W96
@ 092   ----------------------------------------
	.byte	W96
@ 093   ----------------------------------------
	.byte	W96
@ 094   ----------------------------------------
	.byte	W96
@ 095   ----------------------------------------
	.byte	W96
@ 096   ----------------------------------------
	.byte	W96
@ 097   ----------------------------------------
	.byte	W96
@ 098   ----------------------------------------
	.byte	W96
@ 099   ----------------------------------------
	.byte	W96
@ 100   ----------------------------------------
	.byte	W96
@ 101   ----------------------------------------
mus_thpp_edmadley_3_101:
	.byte	W12
	.byte		N12   , An4 , v112
	.byte	W12
	.byte		N12   
	.byte	W12
	.byte		        Cn5 
	.byte	W12
	.byte		N36   , Dn5 
	.byte	W36
	.byte		N06   , Cn5 
	.byte	W06
	.byte		        Dn5 
	.byte	W06
	.byte	PEND
@ 102   ----------------------------------------
	.byte		N12   , Cn5 
	.byte	W12
	.byte		        An4 
	.byte	W12
	.byte		        Gn4 
	.byte	W12
	.byte		        Cn5 
	.byte	W12
	.byte		N48   , An4 
	.byte	W48
@ 103   ----------------------------------------
	.byte	PATT
	 .word	mus_thpp_edmadley_3_101
@ 104   ----------------------------------------
	.byte		N12   , Fn5 , v112
	.byte	W12
	.byte		        En5 
	.byte	W12
	.byte		        Dn5 
	.byte	W12
	.byte		        Cn5 
	.byte	W12
	.byte		N54   , Dn5 
	.byte	W48
@ 105   ----------------------------------------
	.byte	W12
	.byte		N06   , Cn5 
	.byte	W06
	.byte		        Dn5 
	.byte	W06
	.byte		N12   , Cn5 
	.byte	W12
	.byte		        An4 
	.byte	W12
	.byte		N54   , Gn4 
	.byte	W48
@ 106   ----------------------------------------
	.byte	W12
	.byte		N06   , Cn5 
	.byte	W06
	.byte		        Dn5 
	.byte	W06
	.byte		N12   , Cn5 
	.byte	W12
	.byte		        Gn4 
	.byte	W12
	.byte		N54   , Fn4 
	.byte	W48
@ 107   ----------------------------------------
mus_thpp_edmadley_3_107:
	.byte	W12
	.byte		N12   , Dn4 , v112
	.byte	W12
	.byte		N12   
	.byte	W12
	.byte		        En4 
	.byte	W12
	.byte		N36   , Fn4 
	.byte	W36
	.byte		N12   , Gn4 
	.byte	W12
	.byte	PEND
@ 108   ----------------------------------------
	.byte		N36   , En4 
	.byte	W36
	.byte		N12   , Dn4 
	.byte	W12
	.byte		N54   
	.byte	W48
@ 109   ----------------------------------------
	.byte	PATT
	 .word	mus_thpp_edmadley_3_107
@ 110   ----------------------------------------
	.byte		N18   , En4 , v112
	.byte	W18
	.byte		        Gn4 
	.byte	W18
	.byte		N12   , Cn5 
	.byte	W12
	.byte		TIE   , Dn5 
	.byte	W48
@ 111   ----------------------------------------
	.byte	W96
@ 112   ----------------------------------------
	.byte	W96
@ 113   ----------------------------------------
	.byte	W96
@ 114   ----------------------------------------
	.byte	W96
@ 115   ----------------------------------------
	.byte	W48
	.byte		EOT   
	.byte		N06   , Dn4 
	.byte	W12
	.byte		        An4 
	.byte	W12
	.byte		        En4 
	.byte	W06
	.byte		        Fn4 
	.byte	W06
	.byte		        Cn4 
	.byte	W06
	.byte		        An3 
	.byte	W06
@ 116   ----------------------------------------
mus_thpp_edmadley_3_116:
	.byte		N06   , An3 , v112
	.byte	W12
	.byte		        Fn4 
	.byte	W12
	.byte		        En4 
	.byte	W06
	.byte		        Fn4 
	.byte	W06
	.byte		        Cn4 
	.byte	W06
	.byte		        En4 
	.byte	W06
	.byte		        Dn4 
	.byte	W12
	.byte		        An4 
	.byte	W12
	.byte		        En4 
	.byte	W06
	.byte		        Fn4 
	.byte	W06
	.byte		        Cn4 
	.byte	W06
	.byte		        An3 
	.byte	W06
	.byte	PEND
@ 117   ----------------------------------------
	.byte	PATT
	 .word	mus_thpp_edmadley_3_116
@ 118   ----------------------------------------
	.byte		N06   , An3 , v112
	.byte	W12
	.byte		        Fn4 
	.byte	W12
	.byte		        En4 
	.byte	W06
	.byte		        Fn4 
	.byte	W06
	.byte		        Cn4 
	.byte	W06
	.byte		        En4 
	.byte	W06
	.byte		        Dn4 
	.byte	W36
	.byte		        Dn4 , v127
	.byte	W06
	.byte		N06   
	.byte	W06
@ 119   ----------------------------------------
	.byte		N06   
	.byte	W06
	.byte	FINE

@**************** Track 4 (Midi-Chn.4) ****************@

mus_thpp_edmadley_4:
	.byte	KEYSH , mus_thpp_edmadley_key+0
@ 000   ----------------------------------------
	.byte	W96
@ 001   ----------------------------------------
	.byte		VOICE , 47
	.byte		VOL   , 94*mus_thpp_edmadley_mvl/mxv
	.byte		PAN   , c_v+0
	.byte		BEND  , c_v+0
	.byte	W96
@ 002   ----------------------------------------
	.byte	W96
@ 003   ----------------------------------------
	.byte	W96
@ 004   ----------------------------------------
	.byte	W96
@ 005   ----------------------------------------
	.byte	W96
@ 006   ----------------------------------------
	.byte	W96
@ 007   ----------------------------------------
	.byte	W96
@ 008   ----------------------------------------
	.byte	W96
@ 009   ----------------------------------------
	.byte		N24   , Dn1 , v112
	.byte	W48
	.byte		        Ds1 
	.byte	W48
@ 010   ----------------------------------------
	.byte	W48
	.byte		        Fn1 
	.byte	W48
@ 011   ----------------------------------------
	.byte	W48
	.byte		        Gn1 
	.byte	W48
@ 012   ----------------------------------------
	.byte		        Fn1 
	.byte	W24
	.byte		        Dn1 
	.byte	W24
	.byte		        Ds1 
	.byte	W48
@ 013   ----------------------------------------
	.byte	W48
	.byte		N24   
	.byte	W48
@ 014   ----------------------------------------
	.byte	W48
	.byte		        Fn1 
	.byte	W48
@ 015   ----------------------------------------
	.byte		N06   
	.byte	W06
	.byte		N06   
	.byte	W06
	.byte		N06   
	.byte	W06
	.byte		N06   
	.byte	W06
	.byte		N06   
	.byte	W06
	.byte		N06   
	.byte	W06
	.byte		N06   
	.byte	W06
	.byte		N06   
	.byte	W06
	.byte		N24   , Gn1 
	.byte	W48
@ 016   ----------------------------------------
mus_thpp_edmadley_4_016:
	.byte	W36
	.byte		N06   , Gn1 , v112
	.byte	W06
	.byte		N06   
	.byte	W06
	.byte		N24   
	.byte	W48
	.byte	PEND
@ 017   ----------------------------------------
	.byte	PATT
	 .word	mus_thpp_edmadley_4_016
@ 018   ----------------------------------------
	.byte	PATT
	 .word	mus_thpp_edmadley_4_016
@ 019   ----------------------------------------
	.byte	W96
@ 020   ----------------------------------------
	.byte	W96
@ 021   ----------------------------------------
	.byte	W96
@ 022   ----------------------------------------
	.byte	W96
@ 023   ----------------------------------------
	.byte	W96
@ 024   ----------------------------------------
	.byte	W96
@ 025   ----------------------------------------
	.byte	W96
@ 026   ----------------------------------------
	.byte	W96
@ 027   ----------------------------------------
	.byte	W96
@ 028   ----------------------------------------
	.byte	W96
@ 029   ----------------------------------------
	.byte	W96
@ 030   ----------------------------------------
	.byte	W96
@ 031   ----------------------------------------
	.byte	W96
@ 032   ----------------------------------------
	.byte	W96
@ 033   ----------------------------------------
	.byte	W96
@ 034   ----------------------------------------
	.byte	W96
@ 035   ----------------------------------------
	.byte	W96
@ 036   ----------------------------------------
	.byte	W96
@ 037   ----------------------------------------
	.byte	W96
@ 038   ----------------------------------------
	.byte	W96
@ 039   ----------------------------------------
	.byte	W96
@ 040   ----------------------------------------
	.byte	W96
@ 041   ----------------------------------------
	.byte	W96
@ 042   ----------------------------------------
	.byte	W96
@ 043   ----------------------------------------
	.byte	W96
@ 044   ----------------------------------------
	.byte	W96
@ 045   ----------------------------------------
	.byte	W96
@ 046   ----------------------------------------
	.byte	W96
@ 047   ----------------------------------------
	.byte	W96
@ 048   ----------------------------------------
	.byte	W96
@ 049   ----------------------------------------
	.byte	W96
@ 050   ----------------------------------------
	.byte	W96
@ 051   ----------------------------------------
	.byte	W96
@ 052   ----------------------------------------
	.byte	W96
@ 053   ----------------------------------------
	.byte	W96
@ 054   ----------------------------------------
	.byte	W96
@ 055   ----------------------------------------
	.byte	W96
@ 056   ----------------------------------------
	.byte	W96
@ 057   ----------------------------------------
	.byte	W96
@ 058   ----------------------------------------
	.byte	W96
@ 059   ----------------------------------------
	.byte	W96
@ 060   ----------------------------------------
	.byte	W96
@ 061   ----------------------------------------
	.byte	W96
@ 062   ----------------------------------------
	.byte	W96
@ 063   ----------------------------------------
	.byte	W96
@ 064   ----------------------------------------
	.byte	W96
@ 065   ----------------------------------------
	.byte	W96
@ 066   ----------------------------------------
	.byte	W24
	.byte		N06   , Gs1 , v112
	.byte	W12
	.byte		        Cs2 
	.byte	W06
	.byte		N06   
	.byte	W06
	.byte		N06   
	.byte	W48
@ 067   ----------------------------------------
mus_thpp_edmadley_4_067:
	.byte		N06   , Fn1 , v112
	.byte	W12
	.byte		        Dn2 
	.byte	W12
	.byte		N06   
	.byte	W12
	.byte		        Fn1 
	.byte	W12
	.byte		        Dn2 
	.byte	W12
	.byte		N06   
	.byte	W12
	.byte		        Fn1 
	.byte	W12
	.byte		        Dn2 
	.byte	W12
	.byte	PEND
@ 068   ----------------------------------------
	.byte	PATT
	 .word	mus_thpp_edmadley_4_067
@ 069   ----------------------------------------
	.byte	PATT
	 .word	mus_thpp_edmadley_4_067
@ 070   ----------------------------------------
	.byte	PATT
	 .word	mus_thpp_edmadley_4_067
@ 071   ----------------------------------------
	.byte	PATT
	 .word	mus_thpp_edmadley_4_067
@ 072   ----------------------------------------
	.byte	PATT
	 .word	mus_thpp_edmadley_4_067
@ 073   ----------------------------------------
	.byte	PATT
	 .word	mus_thpp_edmadley_4_067
@ 074   ----------------------------------------
	.byte	PATT
	 .word	mus_thpp_edmadley_4_067
@ 075   ----------------------------------------
	.byte	W96
@ 076   ----------------------------------------
	.byte	W96
@ 077   ----------------------------------------
	.byte	W96
@ 078   ----------------------------------------
	.byte	W96
@ 079   ----------------------------------------
	.byte	W96
@ 080   ----------------------------------------
	.byte	W96
@ 081   ----------------------------------------
	.byte	W96
@ 082   ----------------------------------------
	.byte	W96
@ 083   ----------------------------------------
	.byte	W96
@ 084   ----------------------------------------
	.byte	W96
@ 085   ----------------------------------------
	.byte	W96
@ 086   ----------------------------------------
	.byte	W96
@ 087   ----------------------------------------
	.byte	W96
@ 088   ----------------------------------------
	.byte	W96
@ 089   ----------------------------------------
	.byte	W96
@ 090   ----------------------------------------
	.byte	W96
@ 091   ----------------------------------------
	.byte	W96
@ 092   ----------------------------------------
	.byte	W96
@ 093   ----------------------------------------
	.byte	W96
@ 094   ----------------------------------------
	.byte	W96
@ 095   ----------------------------------------
	.byte	W96
@ 096   ----------------------------------------
	.byte	W96
@ 097   ----------------------------------------
	.byte	W96
@ 098   ----------------------------------------
	.byte	W96
@ 099   ----------------------------------------
	.byte	W96
@ 100   ----------------------------------------
	.byte	W96
@ 101   ----------------------------------------
	.byte	W12
	.byte		N03   , An1 , v024
	.byte	W03
	.byte		        An1 , v032
	.byte	W03
	.byte		        An1 , v040
	.byte	W03
	.byte		        An1 , v048
	.byte	W03
	.byte		        An1 , v052
	.byte	W03
	.byte		        An1 , v060
	.byte	W03
	.byte		        An1 , v068
	.byte	W03
	.byte		        An1 , v076
	.byte	W03
	.byte		        An1 , v084
	.byte	W03
	.byte		        An1 , v092
	.byte	W03
	.byte		        An1 , v100
	.byte	W03
	.byte		        An1 , v108
	.byte	W03
	.byte		N12   , Dn1 , v112
	.byte		N12   , Dn2 
	.byte	W48
@ 102   ----------------------------------------
mus_thpp_edmadley_4_102:
	.byte		N12   , An1 , v112
	.byte	W36
	.byte		        Dn1 
	.byte	W12
	.byte		        Gn1 
	.byte	W48
	.byte	PEND
@ 103   ----------------------------------------
mus_thpp_edmadley_4_103:
	.byte		N12   , Fn1 , v112
	.byte	W36
	.byte		        Dn1 
	.byte	W12
	.byte		N12   
	.byte		N12   , Dn2 
	.byte	W48
	.byte	PEND
@ 104   ----------------------------------------
	.byte	PATT
	 .word	mus_thpp_edmadley_4_102
@ 105   ----------------------------------------
	.byte	PATT
	 .word	mus_thpp_edmadley_4_103
@ 106   ----------------------------------------
	.byte	PATT
	 .word	mus_thpp_edmadley_4_102
@ 107   ----------------------------------------
	.byte		N12   , Fn1 , v112
	.byte	W48
	.byte		        Dn1 
	.byte		N12   , Dn2 
	.byte	W48
@ 108   ----------------------------------------
	.byte		        Dn1 
	.byte		N12   , Dn2 
	.byte	W36
	.byte		        Dn1 
	.byte	W12
	.byte		N12   
	.byte		N12   , Dn2 
	.byte	W12
	.byte		N03   , An1 , v024
	.byte	W03
	.byte		        An1 , v032
	.byte	W03
	.byte		        An1 , v040
	.byte	W03
	.byte		        An1 , v048
	.byte	W03
	.byte		        An1 , v052
	.byte	W03
	.byte		        An1 , v060
	.byte	W03
	.byte		        An1 , v068
	.byte	W03
	.byte		        An1 , v076
	.byte	W03
	.byte		        An1 , v084
	.byte	W03
	.byte		        An1 , v092
	.byte	W03
	.byte		        An1 , v100
	.byte	W03
	.byte		        An1 , v108
	.byte	W03
@ 109   ----------------------------------------
	.byte		N12   , Dn1 , v112
	.byte		N12   , Dn2 
	.byte	W36
	.byte		        Dn1 
	.byte	W12
	.byte		N12   
	.byte		N12   , Dn2 
	.byte	W48
@ 110   ----------------------------------------
	.byte		        Dn1 
	.byte		N12   , Dn2 
	.byte	W18
	.byte		        Dn1 
	.byte	W18
	.byte		N12   
	.byte	W12
	.byte		N12   
	.byte	W48
@ 111   ----------------------------------------
	.byte	W96
@ 112   ----------------------------------------
	.byte	W96
@ 113   ----------------------------------------
	.byte	W96
@ 114   ----------------------------------------
	.byte	W48
	.byte		        Dn2 
	.byte	W12
	.byte		N12   
	.byte	W24
	.byte		N06   
	.byte	W06
	.byte		N06   
	.byte	W06
@ 115   ----------------------------------------
mus_thpp_edmadley_4_115:
	.byte		N12   , Dn2 , v112
	.byte	W12
	.byte		N12   
	.byte	W12
	.byte		N24   
	.byte	W24
	.byte		N12   
	.byte	W12
	.byte		N12   
	.byte	W24
	.byte		N06   
	.byte	W06
	.byte		N06   
	.byte	W06
	.byte	PEND
@ 116   ----------------------------------------
	.byte	PATT
	 .word	mus_thpp_edmadley_4_115
@ 117   ----------------------------------------
	.byte	PATT
	 .word	mus_thpp_edmadley_4_115
@ 118   ----------------------------------------
	.byte		N12   , Dn2 , v112
	.byte	W12
	.byte		N12   
	.byte	W12
	.byte		N24   
	.byte	W24
	.byte		N12   
	.byte	W36
	.byte		N06   , Dn2 , v127
	.byte	W06
	.byte		N06   
	.byte	W06
@ 119   ----------------------------------------
	.byte		N06   
	.byte	W06
	.byte	FINE

@**************** Track 5 (Midi-Chn.5) ****************@

mus_thpp_edmadley_5:
	.byte	KEYSH , mus_thpp_edmadley_key+0
@ 000   ----------------------------------------
	.byte	W96
@ 001   ----------------------------------------
	.byte		VOICE , 58
	.byte		VOL   , 94*mus_thpp_edmadley_mvl/mxv
	.byte		PAN   , c_v+0
	.byte		BEND  , c_v+0
	.byte	W96
@ 002   ----------------------------------------
	.byte	W96
@ 003   ----------------------------------------
	.byte	W96
@ 004   ----------------------------------------
	.byte	W96
@ 005   ----------------------------------------
	.byte	W96
@ 006   ----------------------------------------
	.byte	W96
@ 007   ----------------------------------------
	.byte	W96
@ 008   ----------------------------------------
	.byte	W96
@ 009   ----------------------------------------
	.byte		N48   , Dn1 , v112
	.byte	W48
	.byte		N96   , Ds1 
	.byte	W48
@ 010   ----------------------------------------
	.byte	W48
	.byte		        Fn1 
	.byte	W48
@ 011   ----------------------------------------
	.byte	W48
	.byte		N48   , Gn1 
	.byte	W48
@ 012   ----------------------------------------
	.byte		N24   , Fn1 
	.byte	W24
	.byte		        Dn1 
	.byte	W24
	.byte		N96   , Ds1 
	.byte	W48
@ 013   ----------------------------------------
	.byte	W48
	.byte		N96   
	.byte	W48
@ 014   ----------------------------------------
	.byte	W48
	.byte		        Fn1 
	.byte	W48
@ 015   ----------------------------------------
	.byte	W48
	.byte		N12   , Gn1 
	.byte	W48
@ 016   ----------------------------------------
	.byte	W96
@ 017   ----------------------------------------
	.byte	W96
@ 018   ----------------------------------------
	.byte	W96
@ 019   ----------------------------------------
	.byte	W96
@ 020   ----------------------------------------
	.byte	W96
@ 021   ----------------------------------------
	.byte	W96
@ 022   ----------------------------------------
	.byte	W96
@ 023   ----------------------------------------
	.byte	W96
@ 024   ----------------------------------------
	.byte	W96
@ 025   ----------------------------------------
	.byte	W96
@ 026   ----------------------------------------
	.byte	W96
@ 027   ----------------------------------------
	.byte	W96
@ 028   ----------------------------------------
	.byte	W96
@ 029   ----------------------------------------
	.byte	W96
@ 030   ----------------------------------------
	.byte	W96
@ 031   ----------------------------------------
	.byte	W96
@ 032   ----------------------------------------
	.byte	W96
@ 033   ----------------------------------------
	.byte	W96
@ 034   ----------------------------------------
	.byte	W96
@ 035   ----------------------------------------
	.byte	W96
@ 036   ----------------------------------------
	.byte	W96
@ 037   ----------------------------------------
	.byte	W96
@ 038   ----------------------------------------
	.byte	W96
@ 039   ----------------------------------------
	.byte	W96
@ 040   ----------------------------------------
	.byte	W96
@ 041   ----------------------------------------
	.byte	W96
@ 042   ----------------------------------------
	.byte	W96
@ 043   ----------------------------------------
	.byte	W96
@ 044   ----------------------------------------
	.byte	W96
@ 045   ----------------------------------------
	.byte	W96
@ 046   ----------------------------------------
	.byte	W96
@ 047   ----------------------------------------
	.byte	W96
@ 048   ----------------------------------------
	.byte	W96
@ 049   ----------------------------------------
	.byte	W96
@ 050   ----------------------------------------
	.byte	W96
@ 051   ----------------------------------------
	.byte	W96
@ 052   ----------------------------------------
	.byte	W96
@ 053   ----------------------------------------
	.byte	W96
@ 054   ----------------------------------------
	.byte	W96
@ 055   ----------------------------------------
	.byte	W96
@ 056   ----------------------------------------
	.byte	W96
@ 057   ----------------------------------------
	.byte	W96
@ 058   ----------------------------------------
	.byte	W96
@ 059   ----------------------------------------
	.byte	W96
@ 060   ----------------------------------------
	.byte	W96
@ 061   ----------------------------------------
	.byte	W96
@ 062   ----------------------------------------
	.byte	W96
@ 063   ----------------------------------------
	.byte	W96
@ 064   ----------------------------------------
	.byte	W96
@ 065   ----------------------------------------
	.byte	W96
@ 066   ----------------------------------------
	.byte	W96
@ 067   ----------------------------------------
	.byte	W96
@ 068   ----------------------------------------
	.byte	W96
@ 069   ----------------------------------------
	.byte	W96
@ 070   ----------------------------------------
	.byte	W96
@ 071   ----------------------------------------
	.byte	W96
@ 072   ----------------------------------------
	.byte	W96
@ 073   ----------------------------------------
	.byte	W96
@ 074   ----------------------------------------
	.byte	W96
@ 075   ----------------------------------------
	.byte	W96
@ 076   ----------------------------------------
	.byte	W96
@ 077   ----------------------------------------
	.byte	W96
@ 078   ----------------------------------------
	.byte	W96
@ 079   ----------------------------------------
	.byte	W96
@ 080   ----------------------------------------
	.byte	W96
@ 081   ----------------------------------------
	.byte	W96
@ 082   ----------------------------------------
	.byte	W96
@ 083   ----------------------------------------
	.byte	W96
@ 084   ----------------------------------------
	.byte	W96
@ 085   ----------------------------------------
	.byte	W96
@ 086   ----------------------------------------
	.byte	W96
@ 087   ----------------------------------------
	.byte	W96
@ 088   ----------------------------------------
	.byte	W96
@ 089   ----------------------------------------
	.byte	W96
@ 090   ----------------------------------------
	.byte	W96
@ 091   ----------------------------------------
mus_thpp_edmadley_5_091:
	.byte		N06   , Fs1 , v112
	.byte	W12
	.byte		        Gs1 
	.byte	W12
	.byte		        An1 
	.byte	W12
	.byte		        Fs1 
	.byte	W12
	.byte		        Gs1 
	.byte	W12
	.byte		        An1 
	.byte	W12
	.byte		        Bn1 
	.byte	W12
	.byte		        Gs1 
	.byte	W12
	.byte	PEND
@ 092   ----------------------------------------
	.byte	W96
@ 093   ----------------------------------------
	.byte	PATT
	 .word	mus_thpp_edmadley_5_091
@ 094   ----------------------------------------
	.byte	W96
@ 095   ----------------------------------------
mus_thpp_edmadley_5_095:
	.byte		N06   , Fs1 , v112
	.byte		N06   , An1 
	.byte	W12
	.byte		        Gs1 
	.byte		N06   , Bn1 
	.byte	W12
	.byte		        An1 
	.byte		N06   , Cs2 
	.byte	W12
	.byte		        Fs1 
	.byte		N06   , An1 
	.byte	W12
	.byte		        Gs1 
	.byte		N06   , Bn1 
	.byte	W12
	.byte		        An1 
	.byte		N06   , Cs2 
	.byte	W12
	.byte		        Bn1 
	.byte		N06   , Dn2 
	.byte	W12
	.byte		        Gs1 
	.byte		N06   , Bn1 
	.byte	W12
	.byte	PEND
@ 096   ----------------------------------------
	.byte	W96
@ 097   ----------------------------------------
	.byte	PATT
	 .word	mus_thpp_edmadley_5_095
@ 098   ----------------------------------------
mus_thpp_edmadley_5_098:
	.byte		N06   , An1 , v112
	.byte		N06   , Cs2 
	.byte	W12
	.byte		        Bn1 
	.byte		N06   , Dn2 
	.byte	W12
	.byte		        Cs2 
	.byte		N06   , En2 
	.byte	W12
	.byte		        An1 
	.byte		N06   , Cs2 
	.byte	W12
	.byte		        Bn1 
	.byte		N06   , Dn2 
	.byte	W12
	.byte		        An1 
	.byte		N06   , Cs2 
	.byte	W12
	.byte		        Gs1 
	.byte		N06   , Bn1 
	.byte	W12
	.byte		        En1 
	.byte		N06   , Gs1 
	.byte	W12
	.byte	PEND
@ 099   ----------------------------------------
	.byte	PATT
	 .word	mus_thpp_edmadley_5_095
@ 100   ----------------------------------------
	.byte	PATT
	 .word	mus_thpp_edmadley_5_098
@ 101   ----------------------------------------
	.byte	W48
	.byte		N48   , As1 , v127
	.byte	W48
@ 102   ----------------------------------------
mus_thpp_edmadley_5_102:
	.byte		N48   , Cn2 , v127
	.byte	W48
	.byte		N72   , Dn2 
	.byte	W48
	.byte	PEND
@ 103   ----------------------------------------
	.byte	W24
	.byte		N24   , An1 
	.byte	W24
	.byte		N48   , As1 
	.byte	W48
@ 104   ----------------------------------------
	.byte	PATT
	 .word	mus_thpp_edmadley_5_102
@ 105   ----------------------------------------
	.byte	W24
	.byte		N24   , An1 , v112
	.byte	W24
	.byte		N48   , As1 
	.byte	W48
@ 106   ----------------------------------------
	.byte		        Gn1 
	.byte	W48
	.byte		        An1 
	.byte	W48
@ 107   ----------------------------------------
	.byte		N36   , Fn1 
	.byte	W36
	.byte		N12   , En1 
	.byte	W12
	.byte		N48   , Fn1 
	.byte	W48
@ 108   ----------------------------------------
	.byte		        En1 
	.byte	W48
	.byte		N60   , Dn1 
	.byte	W48
@ 109   ----------------------------------------
	.byte	W12
	.byte		N12   
	.byte	W12
	.byte		N12   
	.byte	W12
	.byte		        En1 
	.byte	W12
	.byte		N48   , Fn1 
	.byte	W48
@ 110   ----------------------------------------
	.byte		        En1 
	.byte	W48
	.byte		TIE   , Dn1 
	.byte	W48
@ 111   ----------------------------------------
	.byte	W96
@ 112   ----------------------------------------
	.byte	W96
@ 113   ----------------------------------------
	.byte	W96
@ 114   ----------------------------------------
	.byte	W96
@ 115   ----------------------------------------
	.byte	W96
@ 116   ----------------------------------------
	.byte	W96
@ 117   ----------------------------------------
	.byte	W96
@ 118   ----------------------------------------
	.byte	W60
	.byte		EOT   
	.byte	W24
	.byte		N06   , Dn1 , v127
	.byte	W06
	.byte		N06   
	.byte	W06
@ 119   ----------------------------------------
	.byte		N06   
	.byte	W06
	.byte	FINE

@**************** Track 6 (Midi-Chn.6) ****************@

mus_thpp_edmadley_6:
	.byte	KEYSH , mus_thpp_edmadley_key+0
@ 000   ----------------------------------------
	.byte	W96
@ 001   ----------------------------------------
	.byte		VOICE , 48
	.byte		VOL   , 106*mus_thpp_edmadley_mvl/mxv
	.byte		PAN   , c_v+0
	.byte		BEND  , c_v+0
	.byte	W96
@ 002   ----------------------------------------
	.byte	W96
@ 003   ----------------------------------------
	.byte	W96
@ 004   ----------------------------------------
	.byte	W96
@ 005   ----------------------------------------
	.byte	W96
@ 006   ----------------------------------------
	.byte	W96
@ 007   ----------------------------------------
	.byte	W96
@ 008   ----------------------------------------
	.byte	W96
@ 009   ----------------------------------------
	.byte		N24   , Dn3 , v112
	.byte	W24
	.byte		        Fn3 
	.byte	W24
	.byte		N48   , Gn3 
	.byte	W48
@ 010   ----------------------------------------
	.byte		N24   , Fn3 
	.byte	W24
	.byte		        Dn3 
	.byte	W24
	.byte		N48   , Cn3 
	.byte	W48
@ 011   ----------------------------------------
	.byte		N24   
	.byte	W24
	.byte		        Fn3 
	.byte	W24
	.byte		N48   , Dn3 
	.byte	W48
@ 012   ----------------------------------------
	.byte		N24   , Cn3 
	.byte	W24
	.byte		        An2 
	.byte	W24
	.byte		N48   , Gn2 
	.byte	W48
@ 013   ----------------------------------------
	.byte		N24   
	.byte	W24
	.byte		        An2 
	.byte	W24
	.byte		N48   , As2 
	.byte	W48
@ 014   ----------------------------------------
	.byte		N24   
	.byte	W24
	.byte		        Cn3 
	.byte	W24
	.byte		        An2 
	.byte	W24
	.byte		        Gn2 
	.byte	W24
@ 015   ----------------------------------------
	.byte		N48   , Fn2 
	.byte	W96
@ 016   ----------------------------------------
	.byte	W96
@ 017   ----------------------------------------
	.byte	W96
@ 018   ----------------------------------------
	.byte	W96
@ 019   ----------------------------------------
mus_thpp_edmadley_6_019:
	.byte	W12
	.byte		N12   , Ds4 , v112
	.byte	W12
	.byte		        Dn4 
	.byte	W12
	.byte		        As3 
	.byte	W12
	.byte		N24   , Gn3 
	.byte	W24
	.byte		N24   
	.byte	W24
	.byte	PEND
@ 020   ----------------------------------------
mus_thpp_edmadley_6_020:
	.byte		N18   , Fn3 , v112
	.byte	W18
	.byte		        An3 
	.byte	W18
	.byte		N66   , As3 
	.byte	W60
	.byte	PEND
@ 021   ----------------------------------------
	.byte	PATT
	 .word	mus_thpp_edmadley_6_019
@ 022   ----------------------------------------
mus_thpp_edmadley_6_022:
	.byte		N18   , Fn3 , v112
	.byte	W18
	.byte		        Cn4 
	.byte	W18
	.byte		N48   , As3 
	.byte	W48
	.byte		N24   , Dn4 
	.byte	W12
	.byte	PEND
@ 023   ----------------------------------------
	.byte	PATT
	 .word	mus_thpp_edmadley_6_019
@ 024   ----------------------------------------
mus_thpp_edmadley_6_024:
	.byte		N18   , Fn3 , v112
	.byte	W18
	.byte		        An3 
	.byte	W18
	.byte		N48   , As3 
	.byte	W48
	.byte		N24   
	.byte	W12
	.byte	PEND
@ 025   ----------------------------------------
mus_thpp_edmadley_6_025:
	.byte	W12
	.byte		N12   , Cn4 , v112
	.byte	W12
	.byte		        Dn4 
	.byte	W12
	.byte		        Fn4 
	.byte	W12
	.byte		N18   , Gn4 
	.byte	W18
	.byte		        As4 
	.byte	W18
	.byte		N12   , An4 
	.byte	W12
	.byte	PEND
@ 026   ----------------------------------------
mus_thpp_edmadley_6_026:
	.byte		N18   , Gn4 , v112
	.byte	W18
	.byte		        Fn4 
	.byte	W18
	.byte		TIE   , Gn4 
	.byte	W60
	.byte	PEND
@ 027   ----------------------------------------
	.byte	W42
	.byte		EOT   
	.byte	W06
	.byte		N24   , Gn3 
	.byte	W24
	.byte		N24   
	.byte	W24
@ 028   ----------------------------------------
	.byte	PATT
	 .word	mus_thpp_edmadley_6_020
@ 029   ----------------------------------------
	.byte	PATT
	 .word	mus_thpp_edmadley_6_019
@ 030   ----------------------------------------
	.byte	PATT
	 .word	mus_thpp_edmadley_6_022
@ 031   ----------------------------------------
	.byte	PATT
	 .word	mus_thpp_edmadley_6_019
@ 032   ----------------------------------------
	.byte	PATT
	 .word	mus_thpp_edmadley_6_024
@ 033   ----------------------------------------
	.byte	PATT
	 .word	mus_thpp_edmadley_6_025
@ 034   ----------------------------------------
	.byte	PATT
	 .word	mus_thpp_edmadley_6_026
@ 035   ----------------------------------------
	.byte	W48
	.byte		EOT   , Gn4 
	.byte	W48
@ 036   ----------------------------------------
	.byte	W96
@ 037   ----------------------------------------
	.byte	W96
@ 038   ----------------------------------------
	.byte	W96
@ 039   ----------------------------------------
	.byte	W96
@ 040   ----------------------------------------
	.byte	W96
@ 041   ----------------------------------------
	.byte	W96
@ 042   ----------------------------------------
	.byte	W96
@ 043   ----------------------------------------
	.byte	W96
@ 044   ----------------------------------------
	.byte	W48
	.byte		N12   , An4 , v100
	.byte	W24
	.byte		N12   
	.byte	W24
@ 045   ----------------------------------------
	.byte		N12   
	.byte	W24
	.byte		N12   
	.byte	W24
	.byte		N12   
	.byte	W24
	.byte		N12   
	.byte	W24
@ 046   ----------------------------------------
	.byte		N12   
	.byte	W24
	.byte		N24   , Bn4 
	.byte	W24
	.byte		N12   , Cs5 
	.byte	W24
	.byte		N12   
	.byte	W24
@ 047   ----------------------------------------
	.byte		N12   
	.byte	W24
	.byte		N12   
	.byte	W24
	.byte		N12   
	.byte	W24
	.byte		N12   
	.byte	W24
@ 048   ----------------------------------------
	.byte		N12   
	.byte	W24
	.byte		N24   
	.byte	W24
	.byte		N12   , As4 
	.byte	W24
	.byte		N12   
	.byte	W24
@ 049   ----------------------------------------
	.byte		N12   
	.byte	W24
	.byte		N12   
	.byte	W24
	.byte		N12   
	.byte	W24
	.byte		N12   
	.byte	W24
@ 050   ----------------------------------------
	.byte		N12   
	.byte	W24
	.byte		N24   
	.byte	W24
	.byte		N12   , An4 
	.byte	W24
	.byte		N12   
	.byte	W24
@ 051   ----------------------------------------
	.byte		        Bn4 
	.byte	W24
	.byte		N12   
	.byte	W24
	.byte		        Cs5 , v112
	.byte	W15
	.byte		VOL   , 0*mus_thpp_edmadley_mvl/mxv
	.byte	W03
	.byte		PAN   , c_v+63
	.byte	W03
	.byte		VOL   , 11*mus_thpp_edmadley_mvl/mxv
	.byte		PAN   , c_v+59
	.byte	W01
	.byte		VOL   , 22*mus_thpp_edmadley_mvl/mxv
	.byte	W01
	.byte		        0*mus_thpp_edmadley_mvl/mxv
	.byte	W01
	.byte		N72   , Gs4 
	.byte	W09
	.byte		PAN   , c_v+43
	.byte	W02
	.byte		VOL   , 22*mus_thpp_edmadley_mvl/mxv
	.byte	W10
	.byte		PAN   , c_v+27
	.byte	W02
	.byte		VOL   , 45*mus_thpp_edmadley_mvl/mxv
	.byte	W01
@ 052   ----------------------------------------
	.byte	W09
	.byte		PAN   , c_v+11
	.byte	W02
	.byte		VOL   , 67*mus_thpp_edmadley_mvl/mxv
	.byte	W10
	.byte		PAN   , c_v-5
	.byte	W03
	.byte		VOL   , 90*mus_thpp_edmadley_mvl/mxv
	.byte	W09
	.byte		PAN   , c_v-21
	.byte	W03
	.byte		VOL   , 112*mus_thpp_edmadley_mvl/mxv
	.byte	W01
	.byte		        113*mus_thpp_edmadley_mvl/mxv
	.byte	W08
	.byte		PAN   , c_v-37
	.byte	W03
	.byte		        c_v+0
	.byte		VOL   , 107*mus_thpp_edmadley_mvl/mxv
	.byte		N36   , Fs4 
	.byte	W36
	.byte		N12   , En4 
	.byte	W12
@ 053   ----------------------------------------
mus_thpp_edmadley_6_053:
	.byte		N18   , Ds4 , v112
	.byte	W18
	.byte		        Bn3 
	.byte	W18
	.byte		N72   , Cs4 
	.byte	W60
	.byte	PEND
@ 054   ----------------------------------------
mus_thpp_edmadley_6_054:
	.byte	W24
	.byte		N12   , Cs4 , v112
	.byte	W12
	.byte		        Gs4 
	.byte	W12
	.byte		N36   , Fs4 
	.byte	W36
	.byte		N12   , En4 
	.byte	W12
	.byte	PEND
@ 055   ----------------------------------------
	.byte		N18   , Ds4 
	.byte	W18
	.byte		        Bn4 
	.byte	W18
	.byte		N72   , Gs4 
	.byte	W60
@ 056   ----------------------------------------
	.byte	PATT
	 .word	mus_thpp_edmadley_6_054
@ 057   ----------------------------------------
	.byte	PATT
	 .word	mus_thpp_edmadley_6_053
@ 058   ----------------------------------------
	.byte	W24
	.byte		N12   , Cs4 , v112
	.byte	W12
	.byte		        Ds4 
	.byte	W12
	.byte		        En4 
	.byte	W12
	.byte		        Ds4 
	.byte	W12
	.byte		        Bn3 
	.byte	W12
	.byte		N60   , Cs4 
	.byte	W12
@ 059   ----------------------------------------
	.byte	W48
	.byte		TIE   , Cs5 
	.byte	W48
@ 060   ----------------------------------------
	.byte	W96
@ 061   ----------------------------------------
	.byte	W96
@ 062   ----------------------------------------
	.byte	W48
	.byte		EOT   
	.byte	W48
@ 063   ----------------------------------------
	.byte	W96
@ 064   ----------------------------------------
	.byte	W48
	.byte		N48   , En5 
	.byte	W48
@ 065   ----------------------------------------
	.byte		        Ds5 
	.byte	W48
	.byte		N84   , Cs5 
	.byte	W48
@ 066   ----------------------------------------
	.byte	W36
	.byte		N06   
	.byte	W06
	.byte		N06   
	.byte	W06
	.byte		N06   
	.byte	W48
@ 067   ----------------------------------------
	.byte	W96
@ 068   ----------------------------------------
	.byte	W96
@ 069   ----------------------------------------
	.byte	W96
@ 070   ----------------------------------------
	.byte		N72   , Gs4 
	.byte	W72
	.byte		N06   , Gn4 
	.byte	W06
	.byte		        Gs4 
	.byte	W06
	.byte		        Gn4 
	.byte	W06
	.byte		        Fn4 
	.byte	W06
@ 071   ----------------------------------------
	.byte		TIE   
	.byte	W96
@ 072   ----------------------------------------
	.byte	W96
	.byte		EOT   
@ 073   ----------------------------------------
	.byte		TIE   , Cn5 
	.byte	W96
@ 074   ----------------------------------------
	.byte	W96
	.byte		EOT   
@ 075   ----------------------------------------
	.byte	W96
@ 076   ----------------------------------------
	.byte	W48
	.byte		N12   , Cn4 
	.byte		N12   , Cn5 
	.byte	W12
	.byte		        As3 
	.byte		N12   , As4 
	.byte	W12
	.byte		        Gs3 
	.byte		N12   , Gs4 
	.byte	W12
	.byte		        Gn3 
	.byte		N12   , Gn4 
	.byte	W12
@ 077   ----------------------------------------
mus_thpp_edmadley_6_077:
	.byte		N12   , Fs3 , v112
	.byte		N12   , Fs4 
	.byte	W12
	.byte		        Gs3 
	.byte		N12   , Gs4 
	.byte	W12
	.byte		N24   , An3 
	.byte		N24   , An4 
	.byte	W24
	.byte		N12   , Gs3 
	.byte		N12   , Gs4 
	.byte	W12
	.byte		        Fs3 
	.byte		N12   , Fs4 
	.byte	W12
	.byte		        En3 
	.byte		N12   , En4 
	.byte	W12
	.byte		N72   , Fs3 
	.byte		N72   , Fs4 
	.byte	W12
	.byte	PEND
@ 078   ----------------------------------------
mus_thpp_edmadley_6_078:
	.byte	W60
	.byte		N12   , Cs3 , v112
	.byte		N12   , Cs4 
	.byte	W12
	.byte		        Fs3 
	.byte		N12   , Fs4 
	.byte	W12
	.byte		        Cs3 
	.byte		N12   , Cs4 
	.byte	W12
	.byte	PEND
@ 079   ----------------------------------------
mus_thpp_edmadley_6_079:
	.byte		N12   , Fs3 , v112
	.byte		N12   , Fs4 
	.byte	W12
	.byte		        Gs3 
	.byte		N12   , Gs4 
	.byte	W12
	.byte		N24   , An3 
	.byte		N24   , An4 
	.byte	W24
	.byte		N12   , Gs3 
	.byte		N12   , Gs4 
	.byte	W12
	.byte		        Fs3 
	.byte		N12   , Fs4 
	.byte	W12
	.byte		        En3 
	.byte		N12   , En4 
	.byte	W12
	.byte		N48   , Cs4 
	.byte		N48   , Cs5 
	.byte	W12
	.byte	PEND
@ 080   ----------------------------------------
mus_thpp_edmadley_6_080:
	.byte	W36
	.byte		N24   , Cs4 , v112
	.byte		N24   , Cs5 
	.byte	W24
	.byte		N12   , Bn3 
	.byte		N12   , Bn4 
	.byte	W12
	.byte		        An3 
	.byte		N12   , An4 
	.byte	W12
	.byte		        Gs3 
	.byte		N12   , Gs4 
	.byte	W12
	.byte	PEND
@ 081   ----------------------------------------
mus_thpp_edmadley_6_081:
	.byte		N12   , Fs3 , v112
	.byte		N12   , Fs4 
	.byte	W12
	.byte		        Gs3 
	.byte		N12   , Gs4 
	.byte	W12
	.byte		N24   , An3 
	.byte		N24   , An4 
	.byte	W24
	.byte		N12   , Gs3 
	.byte		N12   , Gs4 
	.byte	W12
	.byte		        Fs3 
	.byte		N12   , Fs4 
	.byte	W12
	.byte		        En3 
	.byte		N12   , En4 
	.byte	W12
	.byte		N24   , Cs4 
	.byte		N24   , Cs5 
	.byte	W12
	.byte	PEND
@ 082   ----------------------------------------
mus_thpp_edmadley_6_082:
	.byte	W12
	.byte		N12   , Bn3 , v112
	.byte		N12   , Bn4 
	.byte	W12
	.byte		        An3 
	.byte		N12   , An4 
	.byte	W12
	.byte		        Bn3 
	.byte		N12   , Bn4 
	.byte	W12
	.byte		        An3 
	.byte		N12   , An4 
	.byte	W12
	.byte		        Gs3 
	.byte		N12   , Gs4 
	.byte	W12
	.byte		        Fs3 
	.byte		N12   , Fs4 
	.byte	W12
	.byte		        En3 
	.byte		N12   , En4 
	.byte	W12
	.byte	PEND
@ 083   ----------------------------------------
	.byte	PATT
	 .word	mus_thpp_edmadley_6_077
@ 084   ----------------------------------------
	.byte	PATT
	 .word	mus_thpp_edmadley_6_078
@ 085   ----------------------------------------
	.byte	PATT
	 .word	mus_thpp_edmadley_6_079
@ 086   ----------------------------------------
	.byte	PATT
	 .word	mus_thpp_edmadley_6_080
@ 087   ----------------------------------------
	.byte	PATT
	 .word	mus_thpp_edmadley_6_081
@ 088   ----------------------------------------
	.byte	PATT
	 .word	mus_thpp_edmadley_6_082
@ 089   ----------------------------------------
	.byte		N12   , An3 , v112
	.byte		N12   , An4 
	.byte	W12
	.byte		        Bn3 
	.byte		N12   , Bn4 
	.byte	W12
	.byte		N24   , Cs4 
	.byte		N24   , Cs5 
	.byte	W24
	.byte		N12   , Bn3 
	.byte		N12   , Bn4 
	.byte	W12
	.byte		        Cs4 
	.byte		N12   , Cs5 
	.byte	W12
	.byte		        En4 
	.byte		N12   , En5 
	.byte	W12
	.byte		TIE   , Fs4 
	.byte		TIE   , Fs5 
	.byte	W12
@ 090   ----------------------------------------
	.byte	W96
	.byte		EOT   , Fs4 
	.byte		        Fs5 
@ 091   ----------------------------------------
	.byte	W96
@ 092   ----------------------------------------
	.byte	W96
@ 093   ----------------------------------------
	.byte	W96
@ 094   ----------------------------------------
	.byte	W96
@ 095   ----------------------------------------
	.byte	W96
@ 096   ----------------------------------------
	.byte	W96
@ 097   ----------------------------------------
	.byte	W96
@ 098   ----------------------------------------
	.byte	W96
@ 099   ----------------------------------------
	.byte		N12   , An2 
	.byte	W12
	.byte		        Bn2 
	.byte	W12
	.byte		        Cs3 
	.byte	W12
	.byte		        An2 
	.byte	W12
	.byte		        Bn2 
	.byte	W12
	.byte		        Cs3 
	.byte	W12
	.byte		        Dn3 
	.byte	W12
	.byte		        Bn2 
	.byte	W12
@ 100   ----------------------------------------
	.byte		        Cs3 
	.byte		N12   , Cs4 
	.byte	W12
	.byte		        Dn3 
	.byte		N12   , Dn4 
	.byte	W12
	.byte		        En3 
	.byte		N12   , En4 
	.byte	W12
	.byte		        Cs3 
	.byte		N12   , Cs4 
	.byte	W12
	.byte		        Dn3 
	.byte		N12   , Dn4 
	.byte		N12   , Dn5 
	.byte	W12
	.byte		        Cs3 
	.byte		N12   , Cs4 
	.byte		N12   , Cs5 
	.byte	W12
	.byte		        Bn2 
	.byte		N12   , Bn3 
	.byte		N12   , Bn4 
	.byte	W12
	.byte		        Gs2 
	.byte		N12   , Gs3 
	.byte		N12   , Gs4 
	.byte	W12
@ 101   ----------------------------------------
mus_thpp_edmadley_6_101:
	.byte	W12
	.byte		N12   , An4 , v112
	.byte	W12
	.byte		N12   
	.byte	W12
	.byte		        Cn5 
	.byte	W12
	.byte		N36   , Dn5 
	.byte	W36
	.byte		N06   , Cn5 
	.byte	W06
	.byte		        Dn5 
	.byte	W06
	.byte	PEND
@ 102   ----------------------------------------
	.byte		N12   , Cn5 
	.byte	W12
	.byte		        An4 
	.byte	W12
	.byte		        Gn4 
	.byte	W12
	.byte		        Cn5 
	.byte	W12
	.byte		N48   , An4 
	.byte	W48
@ 103   ----------------------------------------
	.byte	PATT
	 .word	mus_thpp_edmadley_6_101
@ 104   ----------------------------------------
	.byte		N12   , Fn5 , v112
	.byte	W12
	.byte		        En5 
	.byte	W12
	.byte		        Dn5 
	.byte	W12
	.byte		        Cn5 
	.byte	W12
	.byte		N54   , Dn5 
	.byte	W48
@ 105   ----------------------------------------
	.byte	W12
	.byte		N06   , Cn5 
	.byte	W06
	.byte		        Dn5 
	.byte	W06
	.byte		N12   , Cn5 
	.byte	W12
	.byte		        An4 
	.byte	W12
	.byte		N54   , Gn4 
	.byte	W48
@ 106   ----------------------------------------
	.byte	W12
	.byte		N06   , Cn5 
	.byte	W06
	.byte		        Dn5 
	.byte	W06
	.byte		N12   , Cn5 
	.byte	W12
	.byte		        Gn4 
	.byte	W12
	.byte		N54   , Fn4 
	.byte	W48
@ 107   ----------------------------------------
mus_thpp_edmadley_6_107:
	.byte	W12
	.byte		N12   , Dn4 , v112
	.byte	W12
	.byte		N12   
	.byte	W12
	.byte		        En4 
	.byte	W12
	.byte		N36   , Fn4 
	.byte	W36
	.byte		N12   , Gn4 
	.byte	W12
	.byte	PEND
@ 108   ----------------------------------------
	.byte		N36   , En4 
	.byte	W36
	.byte		N12   , Dn4 
	.byte	W12
	.byte		N54   
	.byte	W48
@ 109   ----------------------------------------
	.byte	PATT
	 .word	mus_thpp_edmadley_6_107
@ 110   ----------------------------------------
	.byte		N18   , En4 , v112
	.byte	W18
	.byte		        Gn4 
	.byte	W18
	.byte		N12   , Cn5 
	.byte	W12
	.byte		TIE   , Dn5 
	.byte	W48
@ 111   ----------------------------------------
	.byte	W96
@ 112   ----------------------------------------
	.byte	W96
@ 113   ----------------------------------------
	.byte	W96
@ 114   ----------------------------------------
	.byte	W96
@ 115   ----------------------------------------
	.byte	W96
@ 116   ----------------------------------------
	.byte	W96
@ 117   ----------------------------------------
	.byte	W48
	.byte		EOT   
	.byte		N06   
	.byte	W12
	.byte		        An5 
	.byte	W12
	.byte		        En5 
	.byte	W06
	.byte		        Fn5 
	.byte	W06
	.byte		        Cn5 
	.byte	W06
	.byte		        An4 
	.byte	W06
@ 118   ----------------------------------------
	.byte		N06   
	.byte	W12
	.byte		        Fn5 
	.byte	W12
	.byte		        En5 
	.byte	W06
	.byte		        Fn5 
	.byte	W06
	.byte		        Cn5 
	.byte	W06
	.byte		        En5 
	.byte	W06
	.byte		        Dn5 
	.byte	W36
	.byte		        Dn5 , v127
	.byte	W06
	.byte		N06   
	.byte	W06
@ 119   ----------------------------------------
	.byte		N06   
	.byte	W06
	.byte	FINE

@**************** Track 7 (Midi-Chn.7) ****************@

mus_thpp_edmadley_7:
	.byte	KEYSH , mus_thpp_edmadley_key+0
@ 000   ----------------------------------------
	.byte	W96
@ 001   ----------------------------------------
	.byte		VOICE , 86
	.byte		VOL   , 100*mus_thpp_edmadley_mvl/mxv
	.byte		PAN   , c_v+0
	.byte		VOL   , 100*mus_thpp_edmadley_mvl/mxv
	.byte		PAN   , c_v+0
	.byte		BEND  , c_v+0
	.byte	W96
@ 002   ----------------------------------------
	.byte	W96
@ 003   ----------------------------------------
	.byte	W96
@ 004   ----------------------------------------
	.byte	W96
@ 005   ----------------------------------------
	.byte	W96
@ 006   ----------------------------------------
	.byte	W96
@ 007   ----------------------------------------
	.byte	W96
@ 008   ----------------------------------------
	.byte	W96
@ 009   ----------------------------------------
	.byte	W96
@ 010   ----------------------------------------
	.byte	W96
@ 011   ----------------------------------------
	.byte	W96
@ 012   ----------------------------------------
	.byte	W96
@ 013   ----------------------------------------
	.byte	W96
@ 014   ----------------------------------------
	.byte	W96
@ 015   ----------------------------------------
	.byte	W96
@ 016   ----------------------------------------
	.byte	W96
@ 017   ----------------------------------------
	.byte	W96
@ 018   ----------------------------------------
	.byte	W96
@ 019   ----------------------------------------
	.byte	W96
@ 020   ----------------------------------------
	.byte	W96
@ 021   ----------------------------------------
	.byte	W96
@ 022   ----------------------------------------
	.byte	W96
@ 023   ----------------------------------------
	.byte	W96
@ 024   ----------------------------------------
	.byte	W96
@ 025   ----------------------------------------
	.byte	W96
@ 026   ----------------------------------------
	.byte	W96
@ 027   ----------------------------------------
	.byte	W96
@ 028   ----------------------------------------
	.byte	W96
@ 029   ----------------------------------------
	.byte	W96
@ 030   ----------------------------------------
	.byte	W96
@ 031   ----------------------------------------
	.byte	W96
@ 032   ----------------------------------------
	.byte	W96
@ 033   ----------------------------------------
	.byte	W96
@ 034   ----------------------------------------
	.byte	W96
@ 035   ----------------------------------------
	.byte	W96
@ 036   ----------------------------------------
	.byte	W96
@ 037   ----------------------------------------
	.byte	W96
@ 038   ----------------------------------------
	.byte	W96
@ 039   ----------------------------------------
	.byte	W48
	.byte		N06   , Cs1 , v112
	.byte	W06
	.byte		N06   
	.byte	W06
	.byte		        Gs1 
	.byte	W06
	.byte		        Cs2 
	.byte	W18
	.byte		N06   
	.byte	W06
	.byte		        Gs1 
	.byte	W06
@ 040   ----------------------------------------
mus_thpp_edmadley_7_040:
	.byte		N06   , Ds1 , v112
	.byte	W06
	.byte		N06   
	.byte	W06
	.byte		        Bn1 
	.byte	W06
	.byte		        Ds2 
	.byte	W18
	.byte		N06   
	.byte	W06
	.byte		        Bn1 
	.byte	W06
	.byte		        En1 
	.byte	W06
	.byte		N06   
	.byte	W06
	.byte		        Cs2 
	.byte	W06
	.byte		        En2 
	.byte	W18
	.byte		N06   
	.byte	W06
	.byte		        Cs2 
	.byte	W06
	.byte	PEND
@ 041   ----------------------------------------
	.byte		        Ds1 
	.byte	W06
	.byte		N06   
	.byte	W06
	.byte		        Bn1 
	.byte	W06
	.byte		        Ds2 
	.byte	W18
	.byte		N06   
	.byte	W06
	.byte		        Bn1 
	.byte	W06
	.byte		        Cs1 
	.byte	W06
	.byte		N06   
	.byte	W06
	.byte		        Gs1 
	.byte	W06
	.byte		        Cs2 
	.byte	W18
	.byte		N06   
	.byte	W06
	.byte		        Gs1 
	.byte	W06
@ 042   ----------------------------------------
	.byte	PATT
	 .word	mus_thpp_edmadley_7_040
@ 043   ----------------------------------------
	.byte		N06   , Ds1 , v112
	.byte	W06
	.byte		N06   
	.byte	W06
	.byte		        Bn1 
	.byte	W06
	.byte		        Ds2 
	.byte	W18
	.byte		N06   
	.byte	W06
	.byte		        Bn1 
	.byte	W54
@ 044   ----------------------------------------
	.byte	W48
	.byte		        An2 , v088
	.byte	W12
	.byte		        En3 
	.byte	W12
	.byte		        An2 
	.byte	W12
	.byte		        En3 
	.byte	W12
@ 045   ----------------------------------------
mus_thpp_edmadley_7_045:
	.byte		N06   , An2 , v088
	.byte	W12
	.byte		        En3 
	.byte	W12
	.byte		        An2 
	.byte	W12
	.byte		        En3 
	.byte	W12
	.byte		        An2 
	.byte	W12
	.byte		        En3 
	.byte	W12
	.byte		        An2 
	.byte	W12
	.byte		        En3 
	.byte	W12
	.byte	PEND
@ 046   ----------------------------------------
mus_thpp_edmadley_7_046:
	.byte		N06   , An2 , v088
	.byte	W12
	.byte		        En3 
	.byte	W12
	.byte		        Bn2 
	.byte	W12
	.byte		        Fs3 
	.byte	W12
	.byte		        Cs3 
	.byte	W12
	.byte		        Gs3 
	.byte	W12
	.byte		        Cs3 
	.byte	W12
	.byte		        Gs3 
	.byte	W12
	.byte	PEND
@ 047   ----------------------------------------
mus_thpp_edmadley_7_047:
	.byte		N06   , Cs3 , v088
	.byte	W12
	.byte		        Gs3 
	.byte	W12
	.byte		        Cs3 
	.byte	W12
	.byte		        Gs3 
	.byte	W12
	.byte		        Cs3 
	.byte	W12
	.byte		        Gs3 
	.byte	W12
	.byte		        Cs3 
	.byte	W12
	.byte		        Gs3 
	.byte	W12
	.byte	PEND
@ 048   ----------------------------------------
mus_thpp_edmadley_7_048:
	.byte		N06   , Cs3 , v088
	.byte	W12
	.byte		        Gs3 
	.byte	W12
	.byte		        Cs3 
	.byte	W12
	.byte		        Gs3 
	.byte	W12
	.byte		        As2 
	.byte	W12
	.byte		        Fs3 
	.byte	W12
	.byte		        As2 
	.byte	W12
	.byte		        Fs3 
	.byte	W12
	.byte	PEND
@ 049   ----------------------------------------
mus_thpp_edmadley_7_049:
	.byte		N06   , As2 , v088
	.byte	W12
	.byte		        Fs3 
	.byte	W12
	.byte		        As2 
	.byte	W12
	.byte		        Fs3 
	.byte	W12
	.byte		        As2 
	.byte	W12
	.byte		        Fs3 
	.byte	W12
	.byte		        As2 
	.byte	W12
	.byte		        Fs3 
	.byte	W12
	.byte	PEND
@ 050   ----------------------------------------
mus_thpp_edmadley_7_050:
	.byte		N06   , As2 , v088
	.byte	W12
	.byte		        Fs3 
	.byte	W12
	.byte		        As2 
	.byte	W12
	.byte		        Fs3 
	.byte	W12
	.byte		        An2 
	.byte	W12
	.byte		        En3 
	.byte	W12
	.byte		        An2 
	.byte	W12
	.byte		        En3 
	.byte	W12
	.byte	PEND
@ 051   ----------------------------------------
mus_thpp_edmadley_7_051:
	.byte		N06   , Bn2 , v088
	.byte	W12
	.byte		        Fs3 
	.byte	W12
	.byte		        Bn2 
	.byte	W12
	.byte		        Fs3 
	.byte	W12
	.byte		        Cs3 
	.byte	W12
	.byte		        Gs3 
	.byte	W12
	.byte		        Cs3 
	.byte	W12
	.byte		        Gs3 
	.byte	W12
	.byte	PEND
@ 052   ----------------------------------------
mus_thpp_edmadley_7_052:
	.byte		N06   , Cs3 , v088
	.byte	W12
	.byte		        Gs3 
	.byte	W12
	.byte		        Cs3 
	.byte	W12
	.byte		        Gs3 
	.byte	W12
	.byte		        An2 
	.byte	W12
	.byte		        En3 
	.byte	W12
	.byte		        An2 
	.byte	W12
	.byte		        En3 
	.byte	W12
	.byte	PEND
@ 053   ----------------------------------------
	.byte	PATT
	 .word	mus_thpp_edmadley_7_045
@ 054   ----------------------------------------
	.byte	PATT
	 .word	mus_thpp_edmadley_7_046
@ 055   ----------------------------------------
	.byte	PATT
	 .word	mus_thpp_edmadley_7_047
@ 056   ----------------------------------------
	.byte	PATT
	 .word	mus_thpp_edmadley_7_048
@ 057   ----------------------------------------
	.byte	PATT
	 .word	mus_thpp_edmadley_7_049
@ 058   ----------------------------------------
	.byte	PATT
	 .word	mus_thpp_edmadley_7_050
@ 059   ----------------------------------------
	.byte	PATT
	 .word	mus_thpp_edmadley_7_051
@ 060   ----------------------------------------
	.byte	PATT
	 .word	mus_thpp_edmadley_7_052
@ 061   ----------------------------------------
	.byte	PATT
	 .word	mus_thpp_edmadley_7_051
@ 062   ----------------------------------------
	.byte	PATT
	 .word	mus_thpp_edmadley_7_052
@ 063   ----------------------------------------
	.byte	PATT
	 .word	mus_thpp_edmadley_7_051
@ 064   ----------------------------------------
	.byte	PATT
	 .word	mus_thpp_edmadley_7_052
@ 065   ----------------------------------------
	.byte	PATT
	 .word	mus_thpp_edmadley_7_051
@ 066   ----------------------------------------
	.byte		N06   , Cs3 , v088
	.byte	W12
	.byte		        Gs3 
	.byte	W12
	.byte		        Cs3 
	.byte	W12
	.byte		        Gs3 
	.byte	W60
@ 067   ----------------------------------------
mus_thpp_edmadley_7_067:
	.byte		N12   , Cn5 , v112
	.byte	W24
	.byte		N06   
	.byte	W12
	.byte		N12   , Fn4 
	.byte	W36
	.byte		N24   , Gn4 
	.byte	W24
	.byte	PEND
@ 068   ----------------------------------------
	.byte		N12   , Cn4 
	.byte	W12
	.byte		        Fn4 
	.byte	W24
	.byte		        Gn4 
	.byte	W36
	.byte		N06   , Gs4 
	.byte	W12
	.byte		        As3 
	.byte	W12
@ 069   ----------------------------------------
	.byte	PATT
	 .word	mus_thpp_edmadley_7_067
@ 070   ----------------------------------------
	.byte		N12   , Cn4 , v112
	.byte	W12
	.byte		        Fn4 
	.byte	W24
	.byte		        Gn4 
	.byte	W36
	.byte		        Gs4 
	.byte	W12
	.byte		        As4 
	.byte	W12
@ 071   ----------------------------------------
mus_thpp_edmadley_7_071:
	.byte		N12   , Cn5 , v112
	.byte	W24
	.byte		N06   
	.byte	W12
	.byte		N12   , Fn5 
	.byte	W36
	.byte		N24   , Gn5 
	.byte	W24
	.byte	PEND
@ 072   ----------------------------------------
	.byte		N12   , Cn5 
	.byte	W12
	.byte		        Fn5 
	.byte	W24
	.byte		        Gn5 
	.byte	W36
	.byte		        Gs5 
	.byte	W12
	.byte		        As5 
	.byte	W12
@ 073   ----------------------------------------
	.byte	PATT
	 .word	mus_thpp_edmadley_7_071
@ 074   ----------------------------------------
	.byte		N12   , Cn5 , v112
	.byte	W12
	.byte		        Fn5 
	.byte	W24
	.byte		        Gn5 
	.byte	W36
	.byte		N24   , Gs5 
	.byte	W24
@ 075   ----------------------------------------
	.byte	W96
@ 076   ----------------------------------------
	.byte	W48
	.byte		N12   , Cn5 
	.byte	W12
	.byte		        As4 
	.byte	W12
	.byte		        Gs4 
	.byte	W12
	.byte		        Gn4 
	.byte	W12
@ 077   ----------------------------------------
mus_thpp_edmadley_7_077:
	.byte		N12   , Fs4 , v112
	.byte	W12
	.byte		        Gs4 
	.byte	W12
	.byte		N24   , An4 
	.byte	W24
	.byte		N12   , Gs4 
	.byte	W12
	.byte		        Fs4 
	.byte	W12
	.byte		        En4 
	.byte	W12
	.byte		N72   , Fs4 
	.byte	W12
	.byte	PEND
@ 078   ----------------------------------------
mus_thpp_edmadley_7_078:
	.byte	W60
	.byte		N12   , Cs4 , v112
	.byte	W12
	.byte		        Fs4 
	.byte	W12
	.byte		        Cs4 
	.byte	W12
	.byte	PEND
@ 079   ----------------------------------------
	.byte		        Fs4 
	.byte	W12
	.byte		        Gs4 
	.byte	W12
	.byte		N24   , An4 
	.byte	W24
	.byte		N12   , Gs4 
	.byte	W12
	.byte		        Fs4 
	.byte	W12
	.byte		        En4 
	.byte	W12
	.byte		N48   , Cs5 
	.byte	W12
@ 080   ----------------------------------------
	.byte	W36
	.byte		N24   
	.byte	W24
	.byte		N12   , Bn4 
	.byte	W12
	.byte		        An4 
	.byte	W12
	.byte		        Gs4 
	.byte	W12
@ 081   ----------------------------------------
mus_thpp_edmadley_7_081:
	.byte		N12   , Fs4 , v112
	.byte	W12
	.byte		        Gs4 
	.byte	W12
	.byte		N24   , An4 
	.byte	W24
	.byte		N12   , Gs4 
	.byte	W12
	.byte		        Fs4 
	.byte	W12
	.byte		        En4 
	.byte	W12
	.byte		N24   , Cs5 
	.byte	W12
	.byte	PEND
@ 082   ----------------------------------------
mus_thpp_edmadley_7_082:
	.byte	W12
	.byte		N12   , Bn4 , v112
	.byte	W12
	.byte		        An4 
	.byte	W12
	.byte		        Bn4 
	.byte	W12
	.byte		        An4 
	.byte	W12
	.byte		        Gs4 
	.byte	W12
	.byte		        Fs4 
	.byte	W12
	.byte		        En4 
	.byte	W12
	.byte	PEND
@ 083   ----------------------------------------
	.byte	PATT
	 .word	mus_thpp_edmadley_7_077
@ 084   ----------------------------------------
	.byte	PATT
	 .word	mus_thpp_edmadley_7_078
@ 085   ----------------------------------------
	.byte		N12   , Fs4 , v112
	.byte	W12
	.byte		        Gs4 
	.byte	W12
	.byte		N24   , An4 
	.byte	W24
	.byte		N12   , Gs4 
	.byte	W12
	.byte		        Fs4 
	.byte	W12
	.byte		        En4 
	.byte	W12
	.byte		N48   , Cs4 
	.byte		N48   , Cs5 
	.byte	W12
@ 086   ----------------------------------------
	.byte	W36
	.byte		N24   , Cs4 
	.byte		N24   , Cs5 
	.byte	W24
	.byte		N12   , Bn3 
	.byte		N12   , Bn4 
	.byte	W12
	.byte		        An4 
	.byte	W12
	.byte		        Gs4 
	.byte	W12
@ 087   ----------------------------------------
	.byte	PATT
	 .word	mus_thpp_edmadley_7_081
@ 088   ----------------------------------------
	.byte	PATT
	 .word	mus_thpp_edmadley_7_082
@ 089   ----------------------------------------
	.byte		N12   , An4 , v112
	.byte	W12
	.byte		        Bn4 
	.byte	W12
	.byte		N24   , Cs5 
	.byte	W24
	.byte		N12   , Bn4 
	.byte	W12
	.byte		        Cs5 
	.byte	W12
	.byte		        En5 
	.byte	W12
	.byte		TIE   , Fs5 
	.byte	W12
@ 090   ----------------------------------------
	.byte	W96
	.byte		EOT   
@ 091   ----------------------------------------
	.byte	W96
@ 092   ----------------------------------------
	.byte	W96
@ 093   ----------------------------------------
	.byte	W96
@ 094   ----------------------------------------
	.byte	W96
@ 095   ----------------------------------------
mus_thpp_edmadley_7_095:
	.byte		N06   , An1 , v112
	.byte	W12
	.byte		        Bn1 
	.byte	W12
	.byte		        Cs2 
	.byte	W12
	.byte		        An1 
	.byte	W12
	.byte		        Bn1 
	.byte	W12
	.byte		        Cs2 
	.byte	W12
	.byte		        Dn2 
	.byte	W12
	.byte		        Bn1 
	.byte	W12
	.byte	PEND
@ 096   ----------------------------------------
	.byte	W96
@ 097   ----------------------------------------
	.byte	PATT
	 .word	mus_thpp_edmadley_7_095
@ 098   ----------------------------------------
mus_thpp_edmadley_7_098:
	.byte		N06   , Cs2 , v112
	.byte	W12
	.byte		        Dn2 
	.byte	W12
	.byte		        En2 
	.byte	W12
	.byte		        Cs2 
	.byte	W12
	.byte		        Dn2 
	.byte	W12
	.byte		        Cs2 
	.byte	W12
	.byte		        Bn1 
	.byte	W12
	.byte		        Gs1 
	.byte	W12
	.byte	PEND
@ 099   ----------------------------------------
	.byte	PATT
	 .word	mus_thpp_edmadley_7_095
@ 100   ----------------------------------------
	.byte	PATT
	 .word	mus_thpp_edmadley_7_098
@ 101   ----------------------------------------
mus_thpp_edmadley_7_101:
	.byte	W12
	.byte		N12   , An4 , v112
	.byte	W12
	.byte		N12   
	.byte	W12
	.byte		        Cn5 
	.byte	W12
	.byte		N36   , Dn5 
	.byte	W36
	.byte		N06   , Cn5 
	.byte	W06
	.byte		        Dn5 
	.byte	W06
	.byte	PEND
@ 102   ----------------------------------------
	.byte		N12   , Cn5 
	.byte	W12
	.byte		        An4 
	.byte	W12
	.byte		        Gn4 
	.byte	W12
	.byte		        Cn5 
	.byte	W12
	.byte		N48   , An4 
	.byte	W48
@ 103   ----------------------------------------
	.byte	PATT
	 .word	mus_thpp_edmadley_7_101
@ 104   ----------------------------------------
	.byte		N12   , Fn5 , v112
	.byte	W12
	.byte		        En5 
	.byte	W12
	.byte		        Dn5 
	.byte	W12
	.byte		        Cn5 
	.byte	W12
	.byte		N54   , Dn5 
	.byte	W48
@ 105   ----------------------------------------
	.byte	W12
	.byte		N06   , Cn5 
	.byte	W06
	.byte		        Dn5 
	.byte	W06
	.byte		N12   , Cn5 
	.byte	W12
	.byte		        An4 
	.byte	W12
	.byte		N54   , Gn4 
	.byte	W48
@ 106   ----------------------------------------
	.byte	W12
	.byte		N06   , Cn5 
	.byte	W06
	.byte		        Dn5 
	.byte	W06
	.byte		N12   , Cn5 
	.byte	W12
	.byte		        Gn4 
	.byte	W12
	.byte		N54   , Fn4 
	.byte	W48
@ 107   ----------------------------------------
mus_thpp_edmadley_7_107:
	.byte	W12
	.byte		N12   , Dn4 , v112
	.byte	W12
	.byte		N12   
	.byte	W12
	.byte		        En4 
	.byte	W12
	.byte		N36   , Fn4 
	.byte	W36
	.byte		N12   , Gn4 
	.byte	W12
	.byte	PEND
@ 108   ----------------------------------------
	.byte		N36   , En4 
	.byte	W36
	.byte		N12   , Dn4 
	.byte	W12
	.byte		N54   
	.byte	W48
@ 109   ----------------------------------------
	.byte	PATT
	 .word	mus_thpp_edmadley_7_107
@ 110   ----------------------------------------
	.byte		N18   , En4 , v112
	.byte	W18
	.byte		        Gn4 
	.byte	W18
	.byte		N12   , Cn5 
	.byte	W12
	.byte		TIE   , Dn5 
	.byte	W48
@ 111   ----------------------------------------
	.byte	W96
@ 112   ----------------------------------------
	.byte	W96
@ 113   ----------------------------------------
	.byte	W96
@ 114   ----------------------------------------
	.byte	W96
@ 115   ----------------------------------------
	.byte	W96
@ 116   ----------------------------------------
	.byte	W48
	.byte		EOT   
	.byte		N06   , Dn4 
	.byte	W12
	.byte		        An4 
	.byte	W12
	.byte		        En4 
	.byte	W06
	.byte		        Fn4 
	.byte	W06
	.byte		        Cn4 
	.byte	W06
	.byte		        An3 
	.byte	W06
@ 117   ----------------------------------------
	.byte		N06   
	.byte	W12
	.byte		        Fn4 
	.byte	W12
	.byte		        En4 
	.byte	W06
	.byte		        Fn4 
	.byte	W06
	.byte		        Cn4 
	.byte	W06
	.byte		        En4 
	.byte	W06
	.byte		        Dn4 
	.byte	W12
	.byte		        An4 
	.byte	W12
	.byte		        En4 
	.byte	W06
	.byte		        Fn4 
	.byte	W06
	.byte		        Cn4 
	.byte	W06
	.byte		        An3 
	.byte	W06
@ 118   ----------------------------------------
	.byte		N06   
	.byte	W12
	.byte		        Fn4 
	.byte	W12
	.byte		        En4 
	.byte	W06
	.byte		        Fn4 
	.byte	W06
	.byte		        Cn4 
	.byte	W06
	.byte		        En4 
	.byte	W06
	.byte		        Dn4 
	.byte	W36
	.byte		        Dn4 , v127
	.byte	W06
	.byte		N06   
	.byte	W06
@ 119   ----------------------------------------
	.byte		N06   
	.byte	W06
	.byte	FINE

@**************** Track 8 (Midi-Chn.8) ****************@

mus_thpp_edmadley_8:
	.byte	KEYSH , mus_thpp_edmadley_key+0
@ 000   ----------------------------------------
	.byte	W96
@ 001   ----------------------------------------
	.byte		VOICE , 85
	.byte		VOL   , 94*mus_thpp_edmadley_mvl/mxv
	.byte		PAN   , c_v+0
	.byte		BEND  , c_v+0
	.byte	W96
@ 002   ----------------------------------------
	.byte	W96
@ 003   ----------------------------------------
	.byte	W96
@ 004   ----------------------------------------
	.byte	W96
@ 005   ----------------------------------------
	.byte	W96
@ 006   ----------------------------------------
	.byte	W96
@ 007   ----------------------------------------
	.byte	W96
@ 008   ----------------------------------------
	.byte	W96
@ 009   ----------------------------------------
	.byte	W96
@ 010   ----------------------------------------
	.byte	W96
@ 011   ----------------------------------------
	.byte	W96
@ 012   ----------------------------------------
	.byte	W96
@ 013   ----------------------------------------
	.byte	W96
@ 014   ----------------------------------------
	.byte	W96
@ 015   ----------------------------------------
	.byte	W96
@ 016   ----------------------------------------
	.byte	W96
@ 017   ----------------------------------------
	.byte	W96
@ 018   ----------------------------------------
	.byte	W96
@ 019   ----------------------------------------
	.byte		N24   , Ds1 , v112
	.byte	W24
	.byte		N12   , As1 
	.byte	W12
	.byte		        Gn1 
	.byte	W12
	.byte		        Ds1 
	.byte	W12
	.byte		        As1 
	.byte	W12
	.byte		        Ds1 
	.byte	W12
	.byte		        As1 
	.byte	W12
@ 020   ----------------------------------------
mus_thpp_edmadley_8_020:
	.byte		N12   , Fn1 , v112
	.byte	W12
	.byte		        Cn2 
	.byte	W12
	.byte		        Fn1 
	.byte	W12
	.byte		        Cn2 
	.byte	W12
	.byte		        Gn1 
	.byte	W12
	.byte		        Dn2 
	.byte	W12
	.byte		        Gn1 
	.byte	W12
	.byte		        Dn2 
	.byte	W12
	.byte	PEND
@ 021   ----------------------------------------
mus_thpp_edmadley_8_021:
	.byte		N12   , Gn1 , v112
	.byte	W12
	.byte		        Dn2 
	.byte	W12
	.byte		        Gn1 
	.byte	W12
	.byte		        Dn2 
	.byte	W12
	.byte		        Ds1 
	.byte	W12
	.byte		        As1 
	.byte	W12
	.byte		        Ds1 
	.byte	W12
	.byte		        As1 
	.byte	W12
	.byte	PEND
@ 022   ----------------------------------------
	.byte	PATT
	 .word	mus_thpp_edmadley_8_020
@ 023   ----------------------------------------
	.byte	PATT
	 .word	mus_thpp_edmadley_8_021
@ 024   ----------------------------------------
	.byte	PATT
	 .word	mus_thpp_edmadley_8_020
@ 025   ----------------------------------------
	.byte	PATT
	 .word	mus_thpp_edmadley_8_021
@ 026   ----------------------------------------
	.byte	PATT
	 .word	mus_thpp_edmadley_8_020
@ 027   ----------------------------------------
	.byte	PATT
	 .word	mus_thpp_edmadley_8_021
@ 028   ----------------------------------------
	.byte	PATT
	 .word	mus_thpp_edmadley_8_020
@ 029   ----------------------------------------
	.byte	PATT
	 .word	mus_thpp_edmadley_8_021
@ 030   ----------------------------------------
	.byte	PATT
	 .word	mus_thpp_edmadley_8_020
@ 031   ----------------------------------------
	.byte	PATT
	 .word	mus_thpp_edmadley_8_021
@ 032   ----------------------------------------
	.byte	PATT
	 .word	mus_thpp_edmadley_8_020
@ 033   ----------------------------------------
	.byte	PATT
	 .word	mus_thpp_edmadley_8_021
@ 034   ----------------------------------------
	.byte	PATT
	 .word	mus_thpp_edmadley_8_020
@ 035   ----------------------------------------
	.byte		N12   , Gn1 , v112
	.byte	W12
	.byte		        Dn2 
	.byte	W12
	.byte		        Gn1 
	.byte	W12
	.byte		        Dn2 
	.byte	W12
	.byte		        Cs4 
	.byte	W12
	.byte		N12   
	.byte	W12
	.byte		N12   
	.byte	W12
	.byte		        Cn4 
	.byte	W12
@ 036   ----------------------------------------
mus_thpp_edmadley_8_036:
	.byte		N18   , Cs4 , v112
	.byte	W18
	.byte		N18   
	.byte	W18
	.byte		N12   
	.byte	W12
	.byte		        An3 
	.byte	W12
	.byte		N12   
	.byte	W12
	.byte		        Cs4 
	.byte	W12
	.byte		N12   
	.byte	W12
	.byte	PEND
@ 037   ----------------------------------------
mus_thpp_edmadley_8_037:
	.byte		N18   , Cn4 , v112
	.byte	W18
	.byte		        Gs3 
	.byte	W18
	.byte		N12   , Fs3 
	.byte	W12
	.byte		        Cs4 
	.byte	W12
	.byte		N12   
	.byte	W12
	.byte		N12   
	.byte	W12
	.byte		        Cn4 
	.byte	W12
	.byte	PEND
@ 038   ----------------------------------------
	.byte	PATT
	 .word	mus_thpp_edmadley_8_036
@ 039   ----------------------------------------
	.byte		N48   , Cn4 , v112
	.byte	W48
	.byte		N12   , Cs4 
	.byte	W12
	.byte		N12   
	.byte	W12
	.byte		N12   
	.byte	W12
	.byte		        Cn4 
	.byte	W12
@ 040   ----------------------------------------
	.byte	PATT
	 .word	mus_thpp_edmadley_8_036
@ 041   ----------------------------------------
	.byte	PATT
	 .word	mus_thpp_edmadley_8_037
@ 042   ----------------------------------------
	.byte	PATT
	 .word	mus_thpp_edmadley_8_036
@ 043   ----------------------------------------
	.byte		N48   , Ds4 , v112
	.byte	W96
@ 044   ----------------------------------------
	.byte	W48
	.byte		N12   , An1 
	.byte	W24
	.byte		N12   
	.byte	W24
@ 045   ----------------------------------------
	.byte		N12   
	.byte	W24
	.byte		N12   
	.byte	W24
	.byte		N12   
	.byte	W24
	.byte		N12   
	.byte	W24
@ 046   ----------------------------------------
	.byte		N12   
	.byte	W24
	.byte		N24   , Bn1 
	.byte	W24
	.byte		N12   , Cs2 
	.byte	W24
	.byte		N12   
	.byte	W24
@ 047   ----------------------------------------
	.byte		N12   
	.byte	W24
	.byte		N12   
	.byte	W24
	.byte		N12   
	.byte	W24
	.byte		N12   
	.byte	W24
@ 048   ----------------------------------------
	.byte		N12   
	.byte	W24
	.byte		N24   
	.byte	W24
	.byte		N12   , As1 
	.byte	W24
	.byte		N12   
	.byte	W24
@ 049   ----------------------------------------
	.byte		N12   
	.byte	W24
	.byte		N12   
	.byte	W24
	.byte		N12   
	.byte	W24
	.byte		N12   
	.byte	W24
@ 050   ----------------------------------------
	.byte		N12   
	.byte	W24
	.byte		N24   
	.byte	W24
	.byte		N12   , An1 
	.byte	W24
	.byte		N12   
	.byte	W24
@ 051   ----------------------------------------
	.byte		        Bn1 
	.byte	W24
	.byte		N12   
	.byte	W24
	.byte		        Cs2 
	.byte	W24
	.byte		N12   
	.byte	W24
@ 052   ----------------------------------------
	.byte		N12   
	.byte	W24
	.byte		N24   
	.byte	W24
	.byte		N12   , An1 
	.byte	W12
	.byte		N06   , En2 
	.byte	W12
	.byte		        An2 
	.byte	W12
	.byte		N12   , En2 
	.byte	W12
@ 053   ----------------------------------------
	.byte		        An1 
	.byte	W12
	.byte		N06   , En2 
	.byte	W12
	.byte		        An2 
	.byte	W12
	.byte		N12   , En2 
	.byte	W12
	.byte		        An1 
	.byte	W12
	.byte		N06   , En2 
	.byte	W12
	.byte		        An2 
	.byte	W12
	.byte		N12   , En2 
	.byte	W12
@ 054   ----------------------------------------
	.byte		        An1 
	.byte	W12
	.byte		N06   , En2 
	.byte	W12
	.byte		        Fs2 
	.byte	W12
	.byte		N12   , Bn2 
	.byte	W12
	.byte		        Cs2 
	.byte	W12
	.byte		N06   , Gs2 
	.byte	W12
	.byte		        Cs3 
	.byte	W12
	.byte		N12   , Gs2 
	.byte	W12
@ 055   ----------------------------------------
	.byte		        Cs2 
	.byte	W12
	.byte		N06   , Gs2 
	.byte	W12
	.byte		        Cs3 
	.byte	W12
	.byte		N12   , Gs2 
	.byte	W12
	.byte		        Cs2 
	.byte	W12
	.byte		N06   , Gs2 
	.byte	W12
	.byte		        Cs3 
	.byte	W12
	.byte		N12   , Gs2 
	.byte	W12
@ 056   ----------------------------------------
	.byte		        Cs2 
	.byte	W12
	.byte		N06   , Gs2 
	.byte	W12
	.byte		        Cs3 
	.byte	W12
	.byte		N12   , Cs2 
	.byte	W12
	.byte		        As1 
	.byte	W12
	.byte		N06   , Fs2 
	.byte	W12
	.byte		        As2 
	.byte	W12
	.byte		N12   , Fs2 
	.byte	W12
@ 057   ----------------------------------------
	.byte		        As1 
	.byte	W12
	.byte		N06   , Fs2 
	.byte	W12
	.byte		        As2 
	.byte	W12
	.byte		N12   , Fs2 
	.byte	W12
	.byte		        As1 
	.byte	W12
	.byte		N06   , Fs2 
	.byte	W12
	.byte		        As2 
	.byte	W12
	.byte		N12   , Fs2 
	.byte	W12
@ 058   ----------------------------------------
	.byte		        As1 
	.byte	W12
	.byte		N06   , Fs2 
	.byte	W12
	.byte		        As2 
	.byte	W12
	.byte		N12   , Fs2 
	.byte	W12
	.byte		        An1 
	.byte	W12
	.byte		N06   , En2 
	.byte	W12
	.byte		        An2 
	.byte	W12
	.byte		N12   , En2 
	.byte	W12
@ 059   ----------------------------------------
mus_thpp_edmadley_8_059:
	.byte		N12   , Bn1 , v112
	.byte	W12
	.byte		N06   , Fs2 
	.byte	W12
	.byte		        Bn2 
	.byte	W12
	.byte		N12   , Fs2 
	.byte	W12
	.byte		        Cs2 
	.byte	W12
	.byte		N06   , Gs2 
	.byte	W12
	.byte		        Cs3 
	.byte	W12
	.byte		N12   , Gs2 
	.byte	W12
	.byte	PEND
@ 060   ----------------------------------------
mus_thpp_edmadley_8_060:
	.byte		N12   , Cs2 , v112
	.byte	W12
	.byte		N06   , Gs2 
	.byte	W12
	.byte		        Cs3 
	.byte	W12
	.byte		N12   , Gs2 
	.byte	W12
	.byte		        An1 
	.byte	W12
	.byte		N06   , En2 
	.byte	W12
	.byte		        An2 
	.byte	W12
	.byte		N12   , En2 
	.byte	W12
	.byte	PEND
@ 061   ----------------------------------------
	.byte	PATT
	 .word	mus_thpp_edmadley_8_059
@ 062   ----------------------------------------
	.byte	PATT
	 .word	mus_thpp_edmadley_8_060
@ 063   ----------------------------------------
	.byte	PATT
	 .word	mus_thpp_edmadley_8_059
@ 064   ----------------------------------------
	.byte	PATT
	 .word	mus_thpp_edmadley_8_060
@ 065   ----------------------------------------
	.byte	PATT
	 .word	mus_thpp_edmadley_8_059
@ 066   ----------------------------------------
	.byte		N12   , Cs2 , v112
	.byte	W12
	.byte		N06   , Gs2 
	.byte	W12
	.byte		        Cs3 
	.byte	W12
	.byte		N06   
	.byte	W06
	.byte		N06   
	.byte	W06
	.byte		N06   
	.byte	W48
@ 067   ----------------------------------------
mus_thpp_edmadley_8_067:
	.byte		N12   , Fn1 , v112
	.byte	W12
	.byte		N12   
	.byte	W12
	.byte		        Gs1 
	.byte	W12
	.byte		        As1 
	.byte	W12
	.byte		        Fn1 
	.byte	W12
	.byte		        Cn2 
	.byte	W12
	.byte		        Gn1 
	.byte	W12
	.byte		        Ds1 
	.byte	W12
	.byte	PEND
@ 068   ----------------------------------------
mus_thpp_edmadley_8_068:
	.byte		N12   , Cs1 , v112
	.byte	W12
	.byte		N12   
	.byte	W12
	.byte		        Gn1 
	.byte	W12
	.byte		        Gs1 
	.byte	W12
	.byte		        Ds1 
	.byte	W12
	.byte		        As1 
	.byte	W12
	.byte		        Gs1 
	.byte	W12
	.byte		        Ds1 
	.byte	W12
	.byte	PEND
@ 069   ----------------------------------------
	.byte	PATT
	 .word	mus_thpp_edmadley_8_067
@ 070   ----------------------------------------
	.byte	PATT
	 .word	mus_thpp_edmadley_8_068
@ 071   ----------------------------------------
	.byte	PATT
	 .word	mus_thpp_edmadley_8_067
@ 072   ----------------------------------------
	.byte	PATT
	 .word	mus_thpp_edmadley_8_068
@ 073   ----------------------------------------
	.byte	PATT
	 .word	mus_thpp_edmadley_8_067
@ 074   ----------------------------------------
	.byte	PATT
	 .word	mus_thpp_edmadley_8_068
@ 075   ----------------------------------------
	.byte	W96
@ 076   ----------------------------------------
	.byte	W48
	.byte		N12   , Cn2 , v112
	.byte	W12
	.byte		        As1 
	.byte	W12
	.byte		        Gs1 
	.byte	W12
	.byte		        Gn1 
	.byte	W12
@ 077   ----------------------------------------
mus_thpp_edmadley_8_077:
	.byte		N12   , Fs1 , v112
	.byte	W12
	.byte		        Cs2 
	.byte	W12
	.byte		        Fs1 
	.byte	W12
	.byte		        Cs2 
	.byte	W12
	.byte		        Fs1 
	.byte	W12
	.byte		        Cs2 
	.byte	W12
	.byte		        Fs1 
	.byte	W12
	.byte		        Cs2 
	.byte	W12
	.byte	PEND
@ 078   ----------------------------------------
	.byte	PATT
	 .word	mus_thpp_edmadley_8_077
@ 079   ----------------------------------------
mus_thpp_edmadley_8_079:
	.byte		N12   , Dn1 , v112
	.byte	W12
	.byte		        An1 
	.byte	W12
	.byte		        Dn1 
	.byte	W12
	.byte		        An1 
	.byte	W12
	.byte		        Dn1 
	.byte	W12
	.byte		        An1 
	.byte	W12
	.byte		        Dn1 
	.byte	W12
	.byte		        An1 
	.byte	W12
	.byte	PEND
@ 080   ----------------------------------------
	.byte	PATT
	 .word	mus_thpp_edmadley_8_079
@ 081   ----------------------------------------
mus_thpp_edmadley_8_081:
	.byte		N12   , En1 , v112
	.byte	W12
	.byte		        Bn1 
	.byte	W12
	.byte		        En1 
	.byte	W12
	.byte		        Bn1 
	.byte	W12
	.byte		        En1 
	.byte	W12
	.byte		        Bn1 
	.byte	W12
	.byte		        En1 
	.byte	W12
	.byte		        Bn1 
	.byte	W12
	.byte	PEND
@ 082   ----------------------------------------
	.byte	PATT
	 .word	mus_thpp_edmadley_8_081
@ 083   ----------------------------------------
	.byte	PATT
	 .word	mus_thpp_edmadley_8_077
@ 084   ----------------------------------------
	.byte	PATT
	 .word	mus_thpp_edmadley_8_077
@ 085   ----------------------------------------
	.byte	PATT
	 .word	mus_thpp_edmadley_8_079
@ 086   ----------------------------------------
	.byte	PATT
	 .word	mus_thpp_edmadley_8_079
@ 087   ----------------------------------------
	.byte	PATT
	 .word	mus_thpp_edmadley_8_081
@ 088   ----------------------------------------
	.byte	PATT
	 .word	mus_thpp_edmadley_8_081
@ 089   ----------------------------------------
	.byte		N12   , Dn1 , v112
	.byte	W12
	.byte		        An1 
	.byte	W12
	.byte		        En2 
	.byte	W12
	.byte		        An2 
	.byte	W12
	.byte		        En1 
	.byte	W12
	.byte		        Bn1 
	.byte	W12
	.byte		        Fs2 
	.byte	W12
	.byte		N24   , Fs1 
	.byte	W12
@ 090   ----------------------------------------
	.byte	W12
	.byte		N12   , Cs2 
	.byte	W12
	.byte		        Fs1 
	.byte	W12
	.byte		        Cs2 
	.byte	W12
	.byte		        Fs1 
	.byte	W12
	.byte		        Cs2 
	.byte	W12
	.byte		        Fs1 
	.byte	W12
	.byte		        Cs2 
	.byte	W12
@ 091   ----------------------------------------
mus_thpp_edmadley_8_091:
	.byte		N06   , Fs1 , v112
	.byte	W12
	.byte		        Gs1 
	.byte	W12
	.byte		        An1 
	.byte	W12
	.byte		        Fs1 
	.byte	W12
	.byte		        Gs1 
	.byte	W12
	.byte		        An1 
	.byte	W12
	.byte		        Bn1 
	.byte	W12
	.byte		        Gs1 
	.byte	W12
	.byte	PEND
@ 092   ----------------------------------------
	.byte	W96
@ 093   ----------------------------------------
	.byte	PATT
	 .word	mus_thpp_edmadley_8_091
@ 094   ----------------------------------------
	.byte	W96
@ 095   ----------------------------------------
	.byte	PATT
	 .word	mus_thpp_edmadley_8_091
@ 096   ----------------------------------------
	.byte	W96
@ 097   ----------------------------------------
	.byte	PATT
	 .word	mus_thpp_edmadley_8_091
@ 098   ----------------------------------------
mus_thpp_edmadley_8_098:
	.byte		N06   , An1 , v112
	.byte	W12
	.byte		        Bn1 
	.byte	W12
	.byte		        Cs2 
	.byte	W12
	.byte		        An1 
	.byte	W12
	.byte		        Bn1 
	.byte	W12
	.byte		        An1 
	.byte	W12
	.byte		        Gs1 
	.byte	W12
	.byte		        En1 
	.byte	W12
	.byte	PEND
@ 099   ----------------------------------------
	.byte	PATT
	 .word	mus_thpp_edmadley_8_091
@ 100   ----------------------------------------
	.byte	PATT
	 .word	mus_thpp_edmadley_8_098
@ 101   ----------------------------------------
	.byte	W48
	.byte		N48   , Fn3 , v124
	.byte	W48
@ 102   ----------------------------------------
	.byte		        En3 
	.byte	W48
	.byte		        Gn3 
	.byte	W48
@ 103   ----------------------------------------
	.byte		N36   , Fn3 
	.byte	W36
	.byte		N12   , En3 
	.byte	W12
	.byte		N48   , Fn3 
	.byte	W48
@ 104   ----------------------------------------
	.byte		        Gn3 
	.byte	W48
	.byte		N72   , An3 
	.byte	W48
@ 105   ----------------------------------------
	.byte	W24
	.byte		N24   , Cn4 
	.byte	W24
	.byte		N72   , Dn4 
	.byte	W48
@ 106   ----------------------------------------
	.byte	W24
	.byte		N24   , En4 
	.byte	W24
	.byte		N60   , Fn4 
	.byte	W48
@ 107   ----------------------------------------
mus_thpp_edmadley_8_107:
	.byte	W12
	.byte		N12   , Dn4 , v124
	.byte	W12
	.byte		N12   
	.byte	W12
	.byte		        En4 
	.byte	W12
	.byte		N36   , Fn4 
	.byte	W36
	.byte		N12   , Gn4 
	.byte	W12
	.byte	PEND
@ 108   ----------------------------------------
	.byte		N36   , En4 
	.byte	W36
	.byte		N12   , Dn4 
	.byte	W12
	.byte		N54   
	.byte	W48
@ 109   ----------------------------------------
	.byte	PATT
	 .word	mus_thpp_edmadley_8_107
@ 110   ----------------------------------------
	.byte		N18   , En4 , v124
	.byte	W18
	.byte		        Gn4 
	.byte	W18
	.byte		N12   , Cn5 
	.byte	W12
	.byte		N06   , Dn2 
	.byte		TIE   , Dn5 
	.byte	W12
	.byte		N06   , Dn2 
	.byte	W24
	.byte		N06   
	.byte	W06
	.byte		N06   
	.byte	W06
@ 111   ----------------------------------------
mus_thpp_edmadley_8_111:
	.byte		N06   , Dn2 , v124
	.byte	W12
	.byte		N06   
	.byte	W12
	.byte		N24   
	.byte	W24
	.byte		N06   
	.byte	W12
	.byte		N06   
	.byte	W24
	.byte		N06   
	.byte	W06
	.byte		N06   
	.byte	W06
	.byte	PEND
@ 112   ----------------------------------------
	.byte	PATT
	 .word	mus_thpp_edmadley_8_111
@ 113   ----------------------------------------
	.byte	PATT
	 .word	mus_thpp_edmadley_8_111
@ 114   ----------------------------------------
	.byte	PATT
	 .word	mus_thpp_edmadley_8_111
@ 115   ----------------------------------------
	.byte	PATT
	 .word	mus_thpp_edmadley_8_111
@ 116   ----------------------------------------
	.byte	PATT
	 .word	mus_thpp_edmadley_8_111
@ 117   ----------------------------------------
	.byte	PATT
	 .word	mus_thpp_edmadley_8_111
@ 118   ----------------------------------------
	.byte		N06   , Dn2 , v124
	.byte	W12
	.byte		N06   
	.byte	W12
	.byte		N24   
	.byte	W24
	.byte		N06   
	.byte	W12
	.byte		EOT   , Dn5 
	.byte	W24
	.byte		N06   , Dn2 , v127
	.byte	W06
	.byte		N06   
	.byte	W06
@ 119   ----------------------------------------
	.byte		N06   
	.byte	W06
	.byte	FINE

@**************** Track 9 (Midi-Chn.9) ****************@

mus_thpp_edmadley_9:
	.byte	KEYSH , mus_thpp_edmadley_key+0
@ 000   ----------------------------------------
	.byte	W96
@ 001   ----------------------------------------
	.byte		VOICE , 0
	.byte		VOL   , 100*mus_thpp_edmadley_mvl/mxv
	.byte		PAN   , c_v+0
	.byte		VOL   , 100*mus_thpp_edmadley_mvl/mxv
	.byte		PAN   , c_v+0
	.byte		BEND  , c_v+0
	.byte	W96
@ 002   ----------------------------------------
	.byte	W96
@ 003   ----------------------------------------
	.byte	W96
@ 004   ----------------------------------------
	.byte	W96
@ 005   ----------------------------------------
	.byte	W96
@ 006   ----------------------------------------
	.byte	W96
@ 007   ----------------------------------------
	.byte	W48
	.byte		N03   , Cs2 , v024
	.byte	W03
	.byte		        Cs2 , v032
	.byte	W03
	.byte		N03   
	.byte	W03
	.byte		N03   
	.byte	W03
	.byte		N03   
	.byte	W03
	.byte		        Cs2 , v040
	.byte	W03
	.byte		N03   
	.byte	W03
	.byte		        Cs2 , v048
	.byte	W03
	.byte		        Cs2 , v052
	.byte	W03
	.byte		N03   
	.byte	W03
	.byte		N03   
	.byte	W03
	.byte		        Cs2 , v056
	.byte	W03
	.byte		N03   
	.byte	W03
	.byte		        Cs2 , v060
	.byte	W03
	.byte		N03   
	.byte	W03
	.byte		        Cs2 , v064
	.byte	W03
@ 008   ----------------------------------------
	.byte		N03   
	.byte	W03
	.byte		        Cs2 , v068
	.byte	W03
	.byte		        Cs2 , v072
	.byte	W03
	.byte		        Cs2 , v076
	.byte	W03
	.byte		        Cs2 , v080
	.byte	W03
	.byte		        Cs2 , v084
	.byte	W03
	.byte		N03   
	.byte	W03
	.byte		        Cs2 , v088
	.byte	W03
	.byte		        Cs2 , v092
	.byte	W03
	.byte		N03   
	.byte	W03
	.byte		        Cs2 , v096
	.byte	W03
	.byte		N03   
	.byte	W03
	.byte		        Cs2 , v100
	.byte	W03
	.byte		N03   
	.byte	W03
	.byte		        Cs2 , v104
	.byte	W03
	.byte		        Cs2 , v108
	.byte	W03
	.byte		N03   
	.byte	W03
	.byte		        Cs2 , v104
	.byte	W03
	.byte		        Cs2 , v100
	.byte	W03
	.byte		        Cs2 , v096
	.byte	W03
	.byte		        Cs2 , v092
	.byte	W03
	.byte		        Cs2 , v088
	.byte	W03
	.byte		        Cs2 , v084
	.byte	W03
	.byte		        Cs2 , v080
	.byte	W03
	.byte		        Cs2 , v076
	.byte	W03
	.byte		        Cs2 , v068
	.byte	W03
	.byte		        Cs2 , v064
	.byte	W03
	.byte		        Cs2 , v056
	.byte	W03
	.byte		        Cs2 , v052
	.byte	W03
	.byte		        Cs2 , v048
	.byte	W03
	.byte		        Cs2 , v032
	.byte	W03
	.byte		        Cs2 , v024
	.byte	W03
@ 009   ----------------------------------------
	.byte	W96
@ 010   ----------------------------------------
	.byte	W96
@ 011   ----------------------------------------
	.byte	W96
@ 012   ----------------------------------------
	.byte	W96
@ 013   ----------------------------------------
	.byte	W96
@ 014   ----------------------------------------
	.byte	W96
@ 015   ----------------------------------------
	.byte	W48
	.byte		N06   , Dn1 , v112
	.byte		N24   , Cs2 
	.byte	W48
@ 016   ----------------------------------------
mus_thpp_edmadley_9_016:
	.byte	W36
	.byte		N06   , Dn1 , v112
	.byte	W06
	.byte		N06   
	.byte	W06
	.byte		N06   
	.byte		N24   , Cs2 
	.byte	W48
	.byte	PEND
@ 017   ----------------------------------------
	.byte	PATT
	 .word	mus_thpp_edmadley_9_016
@ 018   ----------------------------------------
	.byte	PATT
	 .word	mus_thpp_edmadley_9_016
@ 019   ----------------------------------------
	.byte	W12
	.byte		N06   , Dn1 , v112
	.byte	W12
	.byte		N06   
	.byte	W12
	.byte		N06   
	.byte	W06
	.byte		N03   
	.byte	W03
	.byte		        Dn1 , v092
	.byte	W03
	.byte		N06   , Dn1 , v112
	.byte		N24   , Cs2 
	.byte	W12
	.byte		N03   , Dn1 , v092
	.byte	W03
	.byte		        Dn1 , v100
	.byte	W03
	.byte		        Dn1 , v112
	.byte	W06
	.byte		N03   
	.byte	W12
	.byte		        Dn1 , v092
	.byte	W03
	.byte		        Dn1 , v100
	.byte	W03
	.byte		        Dn1 , v112
	.byte	W06
@ 020   ----------------------------------------
mus_thpp_edmadley_9_020:
	.byte		N03   , Dn1 , v112
	.byte	W06
	.byte		N03   
	.byte	W06
	.byte		N03   
	.byte	W12
	.byte		N03   
	.byte	W12
	.byte		N03   
	.byte	W06
	.byte		N03   
	.byte	W03
	.byte		        Dn1 , v088
	.byte	W03
	.byte		N06   , Dn1 , v112
	.byte	W12
	.byte		N03   , Dn1 , v092
	.byte	W03
	.byte		        Dn1 , v100
	.byte	W03
	.byte		        Dn1 , v112
	.byte	W06
	.byte		N03   
	.byte	W12
	.byte		        Dn1 , v092
	.byte	W03
	.byte		        Dn1 , v100
	.byte	W03
	.byte		        Dn1 , v112
	.byte	W06
	.byte	PEND
@ 021   ----------------------------------------
mus_thpp_edmadley_9_021:
	.byte		N03   , Dn1 , v112
	.byte	W06
	.byte		N03   
	.byte	W06
	.byte		N03   
	.byte	W12
	.byte		N03   
	.byte	W12
	.byte		N03   
	.byte	W06
	.byte		N03   
	.byte	W03
	.byte		        Dn1 , v088
	.byte	W03
	.byte		N06   , Dn1 , v112
	.byte		N24   , Cs2 
	.byte	W12
	.byte		N03   , Dn1 , v092
	.byte	W03
	.byte		        Dn1 , v100
	.byte	W03
	.byte		        Dn1 , v112
	.byte	W06
	.byte		N03   
	.byte	W12
	.byte		        Dn1 , v092
	.byte	W03
	.byte		        Dn1 , v100
	.byte	W03
	.byte		        Dn1 , v112
	.byte	W06
	.byte	PEND
@ 022   ----------------------------------------
	.byte	PATT
	 .word	mus_thpp_edmadley_9_020
@ 023   ----------------------------------------
	.byte	PATT
	 .word	mus_thpp_edmadley_9_021
@ 024   ----------------------------------------
	.byte	PATT
	 .word	mus_thpp_edmadley_9_020
@ 025   ----------------------------------------
	.byte	PATT
	 .word	mus_thpp_edmadley_9_021
@ 026   ----------------------------------------
	.byte	PATT
	 .word	mus_thpp_edmadley_9_020
@ 027   ----------------------------------------
	.byte	PATT
	 .word	mus_thpp_edmadley_9_021
@ 028   ----------------------------------------
	.byte	PATT
	 .word	mus_thpp_edmadley_9_020
@ 029   ----------------------------------------
	.byte	PATT
	 .word	mus_thpp_edmadley_9_021
@ 030   ----------------------------------------
	.byte	PATT
	 .word	mus_thpp_edmadley_9_020
@ 031   ----------------------------------------
	.byte	PATT
	 .word	mus_thpp_edmadley_9_021
@ 032   ----------------------------------------
	.byte	PATT
	 .word	mus_thpp_edmadley_9_020
@ 033   ----------------------------------------
	.byte	PATT
	 .word	mus_thpp_edmadley_9_021
@ 034   ----------------------------------------
	.byte		N03   , Dn1 , v112
	.byte		N24   , Cs2 
	.byte	W06
	.byte		N03   , Dn1 
	.byte	W06
	.byte		N03   
	.byte	W12
	.byte		N03   
	.byte	W12
	.byte		N03   
	.byte	W06
	.byte		N03   
	.byte	W03
	.byte		        Dn1 , v088
	.byte	W03
	.byte		N06   , Dn1 , v112
	.byte		N24   , Cs2 
	.byte	W12
	.byte		N03   , Dn1 , v092
	.byte	W03
	.byte		        Dn1 , v100
	.byte	W03
	.byte		        Dn1 , v112
	.byte	W06
	.byte		N03   
	.byte	W12
	.byte		        Dn1 , v092
	.byte	W03
	.byte		        Dn1 , v100
	.byte	W03
	.byte		        Dn1 , v112
	.byte	W06
@ 035   ----------------------------------------
	.byte		N03   
	.byte	W06
	.byte		N03   
	.byte	W06
	.byte		N03   
	.byte	W12
	.byte		N03   
	.byte	W12
	.byte		N03   
	.byte	W06
	.byte		N03   
	.byte	W03
	.byte		        Dn1 , v088
	.byte	W03
	.byte		N06   , Dn1 , v112
	.byte	W48
@ 036   ----------------------------------------
mus_thpp_edmadley_9_036:
	.byte	W36
	.byte		N06   , Dn1 , v112
	.byte	W06
	.byte		N06   
	.byte	W06
	.byte		N06   
	.byte	W48
	.byte	PEND
@ 037   ----------------------------------------
	.byte		N06   
	.byte	W18
	.byte		N06   
	.byte	W18
	.byte		N06   
	.byte	W06
	.byte		N06   
	.byte	W06
	.byte		N06   
	.byte	W48
@ 038   ----------------------------------------
	.byte	PATT
	 .word	mus_thpp_edmadley_9_036
@ 039   ----------------------------------------
	.byte		N06   , Dn1 , v112
	.byte	W18
	.byte		N06   
	.byte	W18
	.byte		N06   
	.byte	W06
	.byte		N06   
	.byte	W06
	.byte		N06   
	.byte		N06   , Cs2 
	.byte	W24
	.byte		        Dn1 
	.byte	W12
	.byte		N03   
	.byte	W03
	.byte		N03   
	.byte	W03
	.byte		N03   
	.byte	W03
	.byte		N03   
	.byte	W03
@ 040   ----------------------------------------
mus_thpp_edmadley_9_040:
	.byte		N06   , Dn1 , v112
	.byte	W24
	.byte		N06   
	.byte	W12
	.byte		N03   
	.byte	W03
	.byte		N03   
	.byte	W03
	.byte		N03   
	.byte	W03
	.byte		N03   
	.byte	W03
	.byte		N06   
	.byte	W12
	.byte		N06   
	.byte	W12
	.byte		N06   
	.byte	W06
	.byte		N06   
	.byte	W06
	.byte		N03   
	.byte	W03
	.byte		N03   
	.byte	W03
	.byte		N03   
	.byte	W03
	.byte		N03   
	.byte	W03
	.byte	PEND
@ 041   ----------------------------------------
	.byte		N06   
	.byte	W24
	.byte		N06   
	.byte	W12
	.byte		N03   
	.byte	W03
	.byte		N03   
	.byte	W03
	.byte		N03   
	.byte	W03
	.byte		N03   
	.byte	W03
	.byte		N06   
	.byte	W24
	.byte		N06   
	.byte	W12
	.byte		N03   
	.byte	W03
	.byte		N03   
	.byte	W03
	.byte		N03   
	.byte	W03
	.byte		N03   
	.byte	W03
@ 042   ----------------------------------------
	.byte	PATT
	 .word	mus_thpp_edmadley_9_040
@ 043   ----------------------------------------
	.byte		N06   , Dn1 , v112
	.byte	W24
	.byte		N06   
	.byte	W12
	.byte		N03   
	.byte	W03
	.byte		N03   
	.byte	W03
	.byte		N03   
	.byte	W03
	.byte		N03   
	.byte	W03
	.byte		N06   
	.byte		N12   , Cs2 
	.byte	W12
	.byte		N06   , Dn1 
	.byte	W06
	.byte		N06   
	.byte	W06
	.byte		        Cn1 
	.byte		N06   , Cs2 
	.byte	W12
	.byte		        Dn1 
	.byte		N06   , Cs2 
	.byte	W12
@ 044   ----------------------------------------
	.byte		        Dn1 
	.byte	W06
	.byte		N06   
	.byte	W06
	.byte		        Cn1 
	.byte		N06   , Cs2 
	.byte	W12
	.byte		        Dn1 
	.byte		N06   , Cs2 
	.byte	W24
	.byte		        Dn1 
	.byte		N06   , Cs2 
	.byte	W24
	.byte		        Dn1 
	.byte	W24
@ 045   ----------------------------------------
mus_thpp_edmadley_9_045:
	.byte		N06   , Dn1 , v112
	.byte	W24
	.byte		N06   
	.byte	W24
	.byte		N06   
	.byte	W24
	.byte		N06   
	.byte	W24
	.byte	PEND
@ 046   ----------------------------------------
	.byte	PATT
	 .word	mus_thpp_edmadley_9_045
@ 047   ----------------------------------------
	.byte	PATT
	 .word	mus_thpp_edmadley_9_045
@ 048   ----------------------------------------
	.byte	PATT
	 .word	mus_thpp_edmadley_9_045
@ 049   ----------------------------------------
	.byte	PATT
	 .word	mus_thpp_edmadley_9_045
@ 050   ----------------------------------------
	.byte	PATT
	 .word	mus_thpp_edmadley_9_045
@ 051   ----------------------------------------
	.byte	PATT
	 .word	mus_thpp_edmadley_9_045
@ 052   ----------------------------------------
	.byte		N06   , Dn1 , v112
	.byte	W12
	.byte		        Cn1 
	.byte		N06   , Dn1 
	.byte	W06
	.byte		        Cn1 
	.byte		N06   , Dn1 
	.byte	W06
	.byte		N06   
	.byte	W06
	.byte		N06   
	.byte	W06
	.byte		N03   
	.byte	W03
	.byte		N03   
	.byte	W03
	.byte		N03   
	.byte	W03
	.byte		N03   
	.byte	W03
	.byte		N06   , Cn1 
	.byte		N06   , Cs2 
	.byte	W12
	.byte		        Cn1 
	.byte	W12
	.byte		        Dn1 
	.byte	W12
	.byte		        Cn1 
	.byte	W06
	.byte		        Dn1 
	.byte	W06
@ 053   ----------------------------------------
mus_thpp_edmadley_9_053:
	.byte		N06   , Cn1 , v112
	.byte	W06
	.byte		        Dn1 
	.byte	W06
	.byte		        Cn1 
	.byte	W12
	.byte		        Dn1 
	.byte	W12
	.byte		        Cn1 
	.byte	W06
	.byte		N06   
	.byte	W06
	.byte		N06   
	.byte	W12
	.byte		N06   
	.byte	W12
	.byte		        Dn1 
	.byte	W12
	.byte		        Cn1 
	.byte	W06
	.byte		        Dn1 
	.byte	W06
	.byte	PEND
@ 054   ----------------------------------------
	.byte	PATT
	 .word	mus_thpp_edmadley_9_053
@ 055   ----------------------------------------
	.byte	PATT
	 .word	mus_thpp_edmadley_9_053
@ 056   ----------------------------------------
	.byte	PATT
	 .word	mus_thpp_edmadley_9_053
@ 057   ----------------------------------------
	.byte	PATT
	 .word	mus_thpp_edmadley_9_053
@ 058   ----------------------------------------
	.byte		N06   , Cn1 , v112
	.byte	W06
	.byte		        Dn1 
	.byte	W06
	.byte		        Cn1 
	.byte	W12
	.byte		        Dn1 
	.byte	W12
	.byte		        Cn1 
	.byte	W06
	.byte		N06   
	.byte	W06
	.byte		N06   
	.byte		N06   , Cs2 
	.byte	W12
	.byte		        Cn1 
	.byte	W12
	.byte		        Dn1 
	.byte	W12
	.byte		        Cn1 
	.byte	W06
	.byte		        Dn1 
	.byte	W06
@ 059   ----------------------------------------
mus_thpp_edmadley_9_059:
	.byte		N06   , Cn1 , v112
	.byte		N06   , Cs2 
	.byte	W06
	.byte		        Dn1 
	.byte	W06
	.byte		        Cn1 
	.byte	W12
	.byte		        Dn1 
	.byte	W12
	.byte		        Cn1 
	.byte	W06
	.byte		N06   
	.byte	W06
	.byte		N06   
	.byte		N06   , Cs2 
	.byte	W12
	.byte		        Cn1 
	.byte	W12
	.byte		        Dn1 
	.byte	W12
	.byte		        Cn1 
	.byte	W06
	.byte		        Dn1 
	.byte	W06
	.byte	PEND
@ 060   ----------------------------------------
	.byte	PATT
	 .word	mus_thpp_edmadley_9_059
@ 061   ----------------------------------------
	.byte	PATT
	 .word	mus_thpp_edmadley_9_059
@ 062   ----------------------------------------
	.byte	PATT
	 .word	mus_thpp_edmadley_9_059
@ 063   ----------------------------------------
	.byte	PATT
	 .word	mus_thpp_edmadley_9_059
@ 064   ----------------------------------------
	.byte	PATT
	 .word	mus_thpp_edmadley_9_059
@ 065   ----------------------------------------
	.byte	PATT
	 .word	mus_thpp_edmadley_9_059
@ 066   ----------------------------------------
	.byte		N06   , Cn1 , v112
	.byte		N06   , Cs2 
	.byte	W06
	.byte		        Dn1 
	.byte	W06
	.byte		        Cn1 
	.byte	W12
	.byte		N06   
	.byte		N06   , Dn1 
	.byte		N06   , Ds2 
	.byte	W12
	.byte		        Cn1 
	.byte		N06   , Dn1 
	.byte	W06
	.byte		        Cn1 
	.byte		N06   , Dn1 
	.byte	W06
	.byte		N12   , Cn1 
	.byte		N06   , Dn1 
	.byte		N06   , Cs2 
	.byte	W36
	.byte		N03   , Dn1 , v084
	.byte	W03
	.byte		        Dn1 , v092
	.byte	W03
	.byte		        Dn1 , v100
	.byte	W03
	.byte		        Dn1 , v108
	.byte	W03
@ 067   ----------------------------------------
	.byte		N06   , Cn1 , v112
	.byte		N06   , Dn1 
	.byte		N06   , Cs2 
	.byte	W12
	.byte		        As1 
	.byte	W12
	.byte		        Cn1 
	.byte	W12
	.byte		        As1 
	.byte	W12
	.byte		        Cn1 
	.byte	W12
	.byte		        As1 
	.byte	W12
	.byte		        Cn1 
	.byte	W12
	.byte		        As1 
	.byte	W12
@ 068   ----------------------------------------
mus_thpp_edmadley_9_068:
	.byte		N06   , Cn1 , v112
	.byte	W12
	.byte		        As1 
	.byte	W12
	.byte		        Cn1 
	.byte	W12
	.byte		        As1 
	.byte	W12
	.byte		        Cn1 
	.byte	W12
	.byte		        As1 
	.byte	W12
	.byte		        Cn1 
	.byte	W12
	.byte		        As1 
	.byte	W12
	.byte	PEND
@ 069   ----------------------------------------
mus_thpp_edmadley_9_069:
	.byte		N06   , Cn1 , v112
	.byte		N06   , Cs2 
	.byte	W12
	.byte		        As1 
	.byte	W12
	.byte		        Cn1 
	.byte	W12
	.byte		        As1 
	.byte	W12
	.byte		        Cn1 
	.byte	W12
	.byte		        As1 
	.byte	W12
	.byte		        Cn1 
	.byte	W12
	.byte		        As1 
	.byte	W12
	.byte	PEND
@ 070   ----------------------------------------
	.byte	PATT
	 .word	mus_thpp_edmadley_9_068
@ 071   ----------------------------------------
	.byte	PATT
	 .word	mus_thpp_edmadley_9_069
@ 072   ----------------------------------------
	.byte	PATT
	 .word	mus_thpp_edmadley_9_068
@ 073   ----------------------------------------
	.byte	PATT
	 .word	mus_thpp_edmadley_9_069
@ 074   ----------------------------------------
	.byte	PATT
	 .word	mus_thpp_edmadley_9_068
@ 075   ----------------------------------------
	.byte		N06   , Dn1 , v096
	.byte		N06   , Cs2 , v112
	.byte	W06
	.byte		        Dn1 , v104
	.byte	W06
	.byte		        Dn1 , v108
	.byte	W06
	.byte		        Dn1 , v112
	.byte	W06
	.byte		        Dn1 , v116
	.byte	W12
	.byte		        Dn1 , v104
	.byte	W06
	.byte		        Dn1 , v108
	.byte	W06
	.byte		        Dn1 , v112
	.byte	W06
	.byte		        Dn1 , v116
	.byte	W06
	.byte		        Dn1 , v120
	.byte	W12
	.byte		        Dn1 , v100
	.byte	W06
	.byte		        Dn1 , v104
	.byte	W06
	.byte		        Dn1 , v108
	.byte	W06
	.byte		N06   
	.byte	W06
@ 076   ----------------------------------------
	.byte		        Cn1 , v112
	.byte		N06   , Dn1 
	.byte		N06   , Cs2 
	.byte	W06
	.byte		        Dn1 
	.byte	W06
	.byte		N06   
	.byte	W06
	.byte		        Dn1 , v116
	.byte	W06
	.byte		        Cn1 , v112
	.byte		N06   , Dn1 , v116
	.byte		N06   , Cs2 , v112
	.byte	W06
	.byte		        Dn1 , v120
	.byte	W06
	.byte		N06   
	.byte	W06
	.byte		N06   
	.byte	W06
	.byte		        Cn1 , v112
	.byte		N06   , Dn1 , v120
	.byte		N06   , Cs2 , v112
	.byte	W06
	.byte		        Dn1 , v124
	.byte	W06
	.byte		N06   
	.byte	W06
	.byte		N06   
	.byte	W06
	.byte		        Cn1 , v112
	.byte		N06   , Dn1 , v124
	.byte		N06   , Cs2 , v112
	.byte	W06
	.byte		        Dn1 , v127
	.byte	W06
	.byte		N06   
	.byte	W06
	.byte		N06   
	.byte	W06
@ 077   ----------------------------------------
mus_thpp_edmadley_9_077:
	.byte		N06   , Cn1 , v112
	.byte		N06   , Cs2 
	.byte	W12
	.byte		        Dn1 
	.byte	W12
	.byte		        Cn1 
	.byte		N06   , Fn2 
	.byte	W12
	.byte		        Dn1 
	.byte	W12
	.byte		        Cn1 
	.byte		N06   , Fn2 
	.byte	W12
	.byte		        Dn1 
	.byte	W12
	.byte		        Cn1 
	.byte		N06   , Fn2 
	.byte	W12
	.byte		        Dn1 
	.byte	W06
	.byte		N06   
	.byte	W06
	.byte	PEND
@ 078   ----------------------------------------
mus_thpp_edmadley_9_078:
	.byte		N06   , Cn1 , v112
	.byte		N06   , Fn2 
	.byte	W12
	.byte		        Dn1 
	.byte		N06   , Fn2 
	.byte	W12
	.byte		        Cn1 
	.byte	W12
	.byte		        Dn1 
	.byte	W12
	.byte		        Cn1 
	.byte		N06   , Fn2 
	.byte	W12
	.byte		        Dn1 
	.byte		N06   , Fn2 
	.byte	W12
	.byte		        Cn1 
	.byte	W12
	.byte		        Dn1 
	.byte	W06
	.byte		N06   
	.byte	W06
	.byte	PEND
@ 079   ----------------------------------------
	.byte	PATT
	 .word	mus_thpp_edmadley_9_077
@ 080   ----------------------------------------
	.byte	PATT
	 .word	mus_thpp_edmadley_9_078
@ 081   ----------------------------------------
	.byte	PATT
	 .word	mus_thpp_edmadley_9_077
@ 082   ----------------------------------------
	.byte	PATT
	 .word	mus_thpp_edmadley_9_078
@ 083   ----------------------------------------
	.byte	PATT
	 .word	mus_thpp_edmadley_9_077
@ 084   ----------------------------------------
	.byte	PATT
	 .word	mus_thpp_edmadley_9_078
@ 085   ----------------------------------------
	.byte	PATT
	 .word	mus_thpp_edmadley_9_077
@ 086   ----------------------------------------
	.byte	PATT
	 .word	mus_thpp_edmadley_9_078
@ 087   ----------------------------------------
	.byte	PATT
	 .word	mus_thpp_edmadley_9_077
@ 088   ----------------------------------------
	.byte		N06   , Cn1 , v112
	.byte		N06   , Fn2 
	.byte	W12
	.byte		        Dn1 
	.byte		N06   , Fn2 
	.byte	W12
	.byte		        Cn1 
	.byte	W12
	.byte		        Dn1 
	.byte	W12
	.byte		        Cn1 
	.byte		N06   , Fn2 
	.byte	W12
	.byte		        Dn1 
	.byte		N06   , Fn2 
	.byte	W06
	.byte		        Dn1 
	.byte	W06
	.byte		        Cn1 
	.byte	W12
	.byte		        Dn1 
	.byte		N06   , An2 
	.byte	W06
	.byte		        Dn1 
	.byte	W06
@ 089   ----------------------------------------
	.byte		        Cn1 
	.byte		N06   , Cs2 
	.byte	W24
	.byte		        An2 
	.byte	W12
	.byte		        Dn1 
	.byte	W12
	.byte		        Cn1 
	.byte		N06   , Cs2 
	.byte	W24
	.byte		        An2 
	.byte	W12
	.byte		        Cs2 
	.byte	W12
@ 090   ----------------------------------------
	.byte	W84
	.byte		        Dn1 
	.byte	W06
	.byte		N06   
	.byte	W06
@ 091   ----------------------------------------
	.byte		N06   
	.byte		N06   , Fs1 
	.byte	W12
	.byte		N03   , Dn1 , v092
	.byte	W03
	.byte		        Dn1 , v100
	.byte	W03
	.byte		        Dn1 , v112
	.byte	W06
	.byte		N03   
	.byte	W12
	.byte		        Dn1 , v092
	.byte	W03
	.byte		        Dn1 , v100
	.byte	W03
	.byte		        Dn1 , v112
	.byte	W06
	.byte		N03   
	.byte	W06
	.byte		N03   
	.byte	W06
	.byte		N03   
	.byte	W12
	.byte		N03   
	.byte	W12
	.byte		N03   
	.byte	W06
	.byte		N03   
	.byte	W03
	.byte		        Dn1 , v088
	.byte	W03
@ 092   ----------------------------------------
mus_thpp_edmadley_9_092:
	.byte		N06   , Dn1 , v112
	.byte	W12
	.byte		N03   , Dn1 , v092
	.byte	W03
	.byte		        Dn1 , v100
	.byte	W03
	.byte		        Dn1 , v112
	.byte	W06
	.byte		N03   
	.byte	W12
	.byte		        Dn1 , v092
	.byte	W03
	.byte		        Dn1 , v100
	.byte	W03
	.byte		        Dn1 , v112
	.byte	W06
	.byte		N03   
	.byte	W06
	.byte		N03   
	.byte	W06
	.byte		N03   
	.byte	W12
	.byte		N03   
	.byte	W12
	.byte		N03   
	.byte	W06
	.byte		N03   
	.byte	W03
	.byte		        Dn1 , v088
	.byte	W03
	.byte	PEND
@ 093   ----------------------------------------
	.byte	PATT
	 .word	mus_thpp_edmadley_9_092
@ 094   ----------------------------------------
	.byte	PATT
	 .word	mus_thpp_edmadley_9_092
@ 095   ----------------------------------------
	.byte	PATT
	 .word	mus_thpp_edmadley_9_092
@ 096   ----------------------------------------
	.byte	PATT
	 .word	mus_thpp_edmadley_9_092
@ 097   ----------------------------------------
	.byte	PATT
	 .word	mus_thpp_edmadley_9_092
@ 098   ----------------------------------------
	.byte	PATT
	 .word	mus_thpp_edmadley_9_092
@ 099   ----------------------------------------
	.byte	PATT
	 .word	mus_thpp_edmadley_9_092
@ 100   ----------------------------------------
	.byte	PATT
	 .word	mus_thpp_edmadley_9_092
@ 101   ----------------------------------------
mus_thpp_edmadley_9_101:
	.byte	W48
	.byte		N06   , Cs2 , v112
	.byte		N06   , An2 
	.byte	W48
	.byte	PEND
@ 102   ----------------------------------------
	.byte	W96
@ 103   ----------------------------------------
	.byte	PATT
	 .word	mus_thpp_edmadley_9_101
@ 104   ----------------------------------------
	.byte	W96
@ 105   ----------------------------------------
	.byte	PATT
	 .word	mus_thpp_edmadley_9_101
@ 106   ----------------------------------------
	.byte	W96
@ 107   ----------------------------------------
	.byte	PATT
	 .word	mus_thpp_edmadley_9_101
@ 108   ----------------------------------------
mus_thpp_edmadley_9_108:
	.byte		N06   , Cs2 , v112
	.byte		N06   , An2 
	.byte	W48
	.byte		        Cs2 
	.byte		N06   , An2 
	.byte	W48
	.byte	PEND
@ 109   ----------------------------------------
	.byte	PATT
	 .word	mus_thpp_edmadley_9_108
@ 110   ----------------------------------------
	.byte		N06   , Cs2 , v112
	.byte		N06   , An2 
	.byte	W18
	.byte		        Cs2 
	.byte		N06   , An2 
	.byte	W18
	.byte		        Cs2 
	.byte		N06   , An2 
	.byte	W12
	.byte		        Dn1 
	.byte		N06   , Cs2 
	.byte		N06   , An2 
	.byte	W12
	.byte		        Dn1 
	.byte	W24
	.byte		N06   
	.byte	W06
	.byte		N06   
	.byte	W06
@ 111   ----------------------------------------
mus_thpp_edmadley_9_111:
	.byte		N06   , Dn1 , v112
	.byte	W12
	.byte		N06   
	.byte	W12
	.byte		N03   , Dn1 , v096
	.byte	W03
	.byte		N03   
	.byte	W03
	.byte		N03   
	.byte	W03
	.byte		N03   
	.byte	W03
	.byte		N03   
	.byte	W03
	.byte		N03   
	.byte	W03
	.byte		N03   
	.byte	W03
	.byte		N03   
	.byte	W03
	.byte		N06   , Dn1 , v112
	.byte	W12
	.byte		N06   
	.byte	W24
	.byte		N06   
	.byte	W06
	.byte		N06   
	.byte	W06
	.byte	PEND
@ 112   ----------------------------------------
	.byte	PATT
	 .word	mus_thpp_edmadley_9_111
@ 113   ----------------------------------------
	.byte	PATT
	 .word	mus_thpp_edmadley_9_111
@ 114   ----------------------------------------
	.byte	PATT
	 .word	mus_thpp_edmadley_9_111
@ 115   ----------------------------------------
	.byte	PATT
	 .word	mus_thpp_edmadley_9_111
@ 116   ----------------------------------------
	.byte	PATT
	 .word	mus_thpp_edmadley_9_111
@ 117   ----------------------------------------
	.byte	PATT
	 .word	mus_thpp_edmadley_9_111
@ 118   ----------------------------------------
	.byte		N06   , Dn1 , v112
	.byte	W12
	.byte		N06   
	.byte	W12
	.byte		N03   , Dn1 , v096
	.byte	W03
	.byte		N03   
	.byte	W03
	.byte		N03   
	.byte	W03
	.byte		N03   
	.byte	W03
	.byte		N03   
	.byte	W03
	.byte		N03   
	.byte	W03
	.byte		N03   
	.byte	W03
	.byte		N03   
	.byte	W03
	.byte		N06   , Dn1 , v112
	.byte	W36
	.byte		        Dn1 , v127
	.byte	W06
	.byte		N06   
	.byte	W06
@ 119   ----------------------------------------
	.byte		N06   
	.byte		N06   , Cs2 
	.byte	W06
	.byte	FINE

@**************** Track 10 (Midi-Chn.10) ****************@

mus_thpp_edmadley_10:
	.byte	KEYSH , mus_thpp_edmadley_key+0
@ 000   ----------------------------------------
	.byte	W96
@ 001   ----------------------------------------
	.byte		VOICE , 46
	.byte		VOL   , 87*mus_thpp_edmadley_mvl/mxv
	.byte		PAN   , c_v+0
	.byte		BEND  , c_v+0
	.byte	W48
	.byte		N06   , Ds2 , v112
	.byte	W06
	.byte		        Gn2 
	.byte	W06
	.byte		        As2 
	.byte	W06
	.byte		        Ds3 
	.byte	W06
	.byte		        Gn3 
	.byte	W06
	.byte		        As3 
	.byte	W06
	.byte		        Ds4 
	.byte	W06
	.byte		        Gn4 
	.byte	W06
@ 002   ----------------------------------------
mus_thpp_edmadley_10_002:
	.byte		N06   , Gn2 , v112
	.byte	W06
	.byte		        As2 
	.byte	W06
	.byte		        Ds3 
	.byte	W06
	.byte		        Gn3 
	.byte	W06
	.byte		        As3 
	.byte	W06
	.byte		        Ds4 
	.byte	W06
	.byte		        Gn4 
	.byte	W06
	.byte		        As4 
	.byte	W06
	.byte		        Fn2 
	.byte	W06
	.byte		        An2 
	.byte	W06
	.byte		        Cn3 
	.byte	W06
	.byte		        Fn3 
	.byte	W06
	.byte		        An3 
	.byte	W06
	.byte		        Cn4 
	.byte	W06
	.byte		        Fn4 
	.byte	W06
	.byte		        An4 
	.byte	W06
	.byte	PEND
@ 003   ----------------------------------------
mus_thpp_edmadley_10_003:
	.byte		N06   , An2 , v112
	.byte	W06
	.byte		        Cn3 
	.byte	W06
	.byte		        Fn3 
	.byte	W06
	.byte		        An3 
	.byte	W06
	.byte		        Cn4 
	.byte	W06
	.byte		        Fn4 
	.byte	W06
	.byte		        An4 
	.byte	W06
	.byte		        Cn5 
	.byte	W06
	.byte		        Gn2 
	.byte	W06
	.byte		        An2 
	.byte	W06
	.byte		        As2 
	.byte	W06
	.byte		        Cn3 
	.byte	W06
	.byte		        Dn3 
	.byte	W06
	.byte		        Gn3 
	.byte	W06
	.byte		        An3 
	.byte	W06
	.byte		        As3 
	.byte	W06
	.byte	PEND
@ 004   ----------------------------------------
mus_thpp_edmadley_10_004:
	.byte		N06   , Gn4 , v112
	.byte	W06
	.byte		        An4 
	.byte	W06
	.byte		        As4 
	.byte	W06
	.byte		        Cn5 
	.byte	W06
	.byte		        Dn5 
	.byte	W06
	.byte		        Gn5 
	.byte	W06
	.byte		        An5 
	.byte	W06
	.byte		        As5 
	.byte	W06
	.byte		        An5 
	.byte	W06
	.byte		        Gn5 
	.byte	W06
	.byte		        Dn5 
	.byte	W06
	.byte		        Cn5 
	.byte	W06
	.byte		        Gn5 
	.byte	W06
	.byte		        Dn5 
	.byte	W06
	.byte		        Cn5 
	.byte	W06
	.byte		        As4 
	.byte	W06
	.byte	PEND
@ 005   ----------------------------------------
mus_thpp_edmadley_10_005:
	.byte		N06   , Gn4 , v112
	.byte	W06
	.byte		        As3 
	.byte	W06
	.byte		        An3 
	.byte	W06
	.byte		        Gn3 
	.byte	W06
	.byte		        Dn3 
	.byte	W06
	.byte		        Cn3 
	.byte	W06
	.byte		        As2 
	.byte	W06
	.byte		        Gn2 
	.byte	W06
	.byte		        Ds2 
	.byte	W06
	.byte		        Gn2 
	.byte	W06
	.byte		        As2 
	.byte	W06
	.byte		        Ds3 
	.byte	W06
	.byte		        Gn3 
	.byte	W06
	.byte		        As3 
	.byte	W06
	.byte		        Ds4 
	.byte	W06
	.byte		        Gn4 
	.byte	W06
	.byte	PEND
@ 006   ----------------------------------------
	.byte	PATT
	 .word	mus_thpp_edmadley_10_002
@ 007   ----------------------------------------
	.byte	PATT
	 .word	mus_thpp_edmadley_10_003
@ 008   ----------------------------------------
	.byte	PATT
	 .word	mus_thpp_edmadley_10_004
@ 009   ----------------------------------------
	.byte	PATT
	 .word	mus_thpp_edmadley_10_005
@ 010   ----------------------------------------
	.byte	PATT
	 .word	mus_thpp_edmadley_10_002
@ 011   ----------------------------------------
	.byte	PATT
	 .word	mus_thpp_edmadley_10_003
@ 012   ----------------------------------------
	.byte		N06   , Gn4 , v112
	.byte	W06
	.byte		        An4 
	.byte	W06
	.byte		        As4 
	.byte	W06
	.byte		        Cn5 
	.byte	W06
	.byte		        Dn5 
	.byte	W06
	.byte		        Gn5 
	.byte	W06
	.byte		        An5 
	.byte	W06
	.byte		        As5 
	.byte	W06
	.byte		N08   
	.byte	W08
	.byte		        Cn6 
	.byte	W08
	.byte		        Gn5 
	.byte	W08
	.byte		        As5 
	.byte	W08
	.byte		        Cn6 
	.byte	W08
	.byte		        Gn5 
	.byte	W08
@ 013   ----------------------------------------
	.byte		N06   , As5 
	.byte	W06
	.byte		        An5 
	.byte	W06
	.byte		        Gn5 
	.byte	W06
	.byte		        Fn5 
	.byte	W06
	.byte		        Dn5 
	.byte	W06
	.byte		        Cn5 
	.byte	W06
	.byte		        As4 
	.byte	W06
	.byte		        An4 
	.byte	W06
	.byte		        Ds2 
	.byte	W06
	.byte		        Gn2 
	.byte	W06
	.byte		        As2 
	.byte	W06
	.byte		        Ds3 
	.byte	W06
	.byte		        Gn3 
	.byte	W06
	.byte		        As3 
	.byte	W06
	.byte		        Ds4 
	.byte	W06
	.byte		        Gn4 
	.byte	W06
@ 014   ----------------------------------------
	.byte	PATT
	 .word	mus_thpp_edmadley_10_002
@ 015   ----------------------------------------
	.byte		N06   , An2 , v112
	.byte	W06
	.byte		        Cn3 
	.byte	W06
	.byte		        Fn3 
	.byte	W06
	.byte		        An3 
	.byte	W06
	.byte		        Cn4 
	.byte	W06
	.byte		        Fn4 
	.byte	W06
	.byte		        An4 
	.byte	W06
	.byte		        Cn5 
	.byte	W54
@ 016   ----------------------------------------
	.byte	W96
@ 017   ----------------------------------------
	.byte	W96
@ 018   ----------------------------------------
	.byte	W96
@ 019   ----------------------------------------
	.byte	W96
@ 020   ----------------------------------------
	.byte	W96
@ 021   ----------------------------------------
	.byte	W96
@ 022   ----------------------------------------
	.byte	W96
@ 023   ----------------------------------------
	.byte	W96
@ 024   ----------------------------------------
	.byte	W96
@ 025   ----------------------------------------
	.byte	W96
@ 026   ----------------------------------------
	.byte	W96
@ 027   ----------------------------------------
	.byte	W96
@ 028   ----------------------------------------
	.byte	W96
@ 029   ----------------------------------------
	.byte	W96
@ 030   ----------------------------------------
	.byte	W96
@ 031   ----------------------------------------
	.byte	W96
@ 032   ----------------------------------------
	.byte	W96
@ 033   ----------------------------------------
	.byte	W96
@ 034   ----------------------------------------
	.byte	W96
@ 035   ----------------------------------------
	.byte	W96
@ 036   ----------------------------------------
	.byte	W96
@ 037   ----------------------------------------
	.byte	W96
@ 038   ----------------------------------------
	.byte	W96
@ 039   ----------------------------------------
	.byte	W48
	.byte		        Fs3 , v092
	.byte	W06
	.byte		        Cs3 
	.byte	W06
	.byte		        Cs4 
	.byte	W06
	.byte		        Gs3 
	.byte	W06
	.byte		        Fs3 
	.byte	W06
	.byte		        Cs3 
	.byte	W06
	.byte		        Cs4 
	.byte	W06
	.byte		        Gs3 
	.byte	W06
@ 040   ----------------------------------------
mus_thpp_edmadley_10_040:
	.byte		N06   , Gs3 , v092
	.byte	W06
	.byte		        Ds3 
	.byte	W06
	.byte		        Ds4 
	.byte	W06
	.byte		        Bn3 
	.byte	W06
	.byte		        Gs3 
	.byte	W06
	.byte		        Ds3 
	.byte	W06
	.byte		        Ds4 
	.byte	W06
	.byte		        Bn3 
	.byte	W06
	.byte		        An3 
	.byte	W06
	.byte		        En3 
	.byte	W06
	.byte		        En4 
	.byte	W06
	.byte		        Cs4 
	.byte	W06
	.byte		        An3 
	.byte	W06
	.byte		        En3 
	.byte	W06
	.byte		        En4 
	.byte	W06
	.byte		        Cs4 
	.byte	W06
	.byte	PEND
@ 041   ----------------------------------------
	.byte		        Gs3 
	.byte	W06
	.byte		        Ds3 
	.byte	W06
	.byte		        Ds4 
	.byte	W06
	.byte		        Bn3 
	.byte	W06
	.byte		        Gs3 
	.byte	W06
	.byte		        Ds3 
	.byte	W06
	.byte		        Ds4 
	.byte	W06
	.byte		        Bn3 
	.byte	W06
	.byte		        Fs3 
	.byte	W06
	.byte		        Cs3 
	.byte	W06
	.byte		        Cs4 
	.byte	W06
	.byte		        Gs3 
	.byte	W06
	.byte		        Fs3 
	.byte	W06
	.byte		        Cs3 
	.byte	W06
	.byte		        Cs4 
	.byte	W06
	.byte		        Gs3 
	.byte	W06
@ 042   ----------------------------------------
	.byte	PATT
	 .word	mus_thpp_edmadley_10_040
@ 043   ----------------------------------------
	.byte		N06   , Gs3 , v092
	.byte	W06
	.byte		        Ds3 
	.byte	W06
	.byte		        Ds4 
	.byte	W06
	.byte		        Bn3 
	.byte	W06
	.byte		        Gs3 
	.byte	W06
	.byte		        Ds3 
	.byte	W06
	.byte		        Ds4 
	.byte	W06
	.byte		        Bn3 
	.byte	W54
@ 044   ----------------------------------------
	.byte	W96
@ 045   ----------------------------------------
	.byte	W96
@ 046   ----------------------------------------
	.byte	W96
@ 047   ----------------------------------------
	.byte	W96
@ 048   ----------------------------------------
	.byte	W96
@ 049   ----------------------------------------
	.byte	W96
@ 050   ----------------------------------------
	.byte	W96
@ 051   ----------------------------------------
	.byte	W96
@ 052   ----------------------------------------
	.byte	W48
	.byte		        An2 , v100
	.byte	W06
	.byte		        En3 
	.byte	W06
	.byte		        An3 
	.byte	W06
	.byte		        En3 
	.byte	W06
	.byte		        An3 
	.byte	W06
	.byte		        En3 
	.byte	W06
	.byte		        An3 
	.byte	W06
	.byte		        En3 
	.byte	W06
@ 053   ----------------------------------------
	.byte		        An2 
	.byte	W06
	.byte		        En3 
	.byte	W06
	.byte		        An3 
	.byte	W06
	.byte		        En3 
	.byte	W06
	.byte		        An3 
	.byte	W06
	.byte		        En3 
	.byte	W06
	.byte		        An3 
	.byte	W06
	.byte		        En3 
	.byte	W06
	.byte		        An2 
	.byte	W06
	.byte		        En3 
	.byte	W06
	.byte		        An3 
	.byte	W06
	.byte		        En3 
	.byte	W06
	.byte		        An3 
	.byte	W06
	.byte		        En3 
	.byte	W06
	.byte		        An3 
	.byte	W06
	.byte		        En3 
	.byte	W06
@ 054   ----------------------------------------
	.byte		        An2 
	.byte	W06
	.byte		        En3 
	.byte	W06
	.byte		        An3 
	.byte	W06
	.byte		        En3 
	.byte	W06
	.byte		        Bn2 
	.byte	W06
	.byte		        Fs3 
	.byte	W06
	.byte		        As3 
	.byte	W06
	.byte		        Fs3 
	.byte	W06
	.byte		        Cs3 
	.byte	W06
	.byte		        Gs3 
	.byte	W06
	.byte		        Cs4 
	.byte	W06
	.byte		        Gs3 
	.byte	W06
	.byte		        Cs4 
	.byte	W06
	.byte		        Gs3 
	.byte	W06
	.byte		        Cs4 
	.byte	W06
	.byte		        Gs3 
	.byte	W06
@ 055   ----------------------------------------
	.byte		        Cs3 
	.byte	W06
	.byte		        Gs3 
	.byte	W06
	.byte		        Cs4 
	.byte	W06
	.byte		        Gs3 
	.byte	W06
	.byte		        Cs4 
	.byte	W06
	.byte		        Gs3 
	.byte	W06
	.byte		        Cs4 
	.byte	W06
	.byte		        Gs3 
	.byte	W06
	.byte		        Cs3 
	.byte	W06
	.byte		        Gs3 
	.byte	W06
	.byte		        Cs4 
	.byte	W06
	.byte		        Gs3 
	.byte	W06
	.byte		        Cs4 
	.byte	W06
	.byte		        Gs3 
	.byte	W06
	.byte		        Cs4 
	.byte	W06
	.byte		        Gs3 
	.byte	W06
@ 056   ----------------------------------------
	.byte		        Cs3 
	.byte	W06
	.byte		        Gs3 
	.byte	W06
	.byte		        Cs4 
	.byte	W06
	.byte		        Gs3 
	.byte	W06
	.byte		        Cs3 
	.byte	W06
	.byte		        Gs3 
	.byte	W06
	.byte		        Cn4 
	.byte	W06
	.byte		        Gs3 
	.byte	W06
	.byte		        As2 
	.byte	W06
	.byte		        Fs3 
	.byte	W06
	.byte		        As3 
	.byte	W06
	.byte		        Fs3 
	.byte	W06
	.byte		        As3 
	.byte	W06
	.byte		        Fs3 
	.byte	W06
	.byte		        As3 
	.byte	W06
	.byte		        Fs3 
	.byte	W06
@ 057   ----------------------------------------
	.byte		        As2 
	.byte	W06
	.byte		        Fs3 
	.byte	W06
	.byte		        As3 
	.byte	W06
	.byte		        Fs3 
	.byte	W06
	.byte		        As3 
	.byte	W06
	.byte		        Fs3 
	.byte	W06
	.byte		        As3 
	.byte	W06
	.byte		        Fs3 
	.byte	W06
	.byte		        As2 
	.byte	W06
	.byte		        Fs3 
	.byte	W06
	.byte		        As3 
	.byte	W06
	.byte		        Fs3 
	.byte	W06
	.byte		        As3 
	.byte	W06
	.byte		        Fs3 
	.byte	W06
	.byte		        As3 
	.byte	W06
	.byte		        Fs3 
	.byte	W06
@ 058   ----------------------------------------
	.byte		        As2 
	.byte	W06
	.byte		        Fs3 
	.byte	W06
	.byte		        As3 
	.byte	W06
	.byte		        Fs3 
	.byte	W06
	.byte		        As2 
	.byte	W06
	.byte		        Fs3 
	.byte	W06
	.byte		        As3 
	.byte	W06
	.byte		        Fs3 
	.byte	W06
	.byte		        An2 
	.byte	W06
	.byte		        En3 
	.byte	W06
	.byte		        An3 
	.byte	W06
	.byte		        En3 
	.byte	W06
	.byte		        An3 
	.byte	W06
	.byte		        En3 
	.byte	W06
	.byte		        An3 
	.byte	W06
	.byte		        En3 
	.byte	W06
@ 059   ----------------------------------------
mus_thpp_edmadley_10_059:
	.byte		N06   , Bn2 , v100
	.byte	W06
	.byte		        Fs3 
	.byte	W06
	.byte		        Bn3 
	.byte	W06
	.byte		        Fs3 
	.byte	W06
	.byte		        Bn3 
	.byte	W06
	.byte		        Fs3 
	.byte	W06
	.byte		        Bn3 
	.byte	W06
	.byte		        Fs3 
	.byte	W06
	.byte		        Cs3 
	.byte	W06
	.byte		        Gs3 
	.byte	W06
	.byte		        Cs4 
	.byte	W06
	.byte		        Gs3 
	.byte	W06
	.byte		        Cs4 
	.byte	W06
	.byte		        Gs3 
	.byte	W06
	.byte		        Cs4 
	.byte	W06
	.byte		        Gs3 
	.byte	W06
	.byte	PEND
@ 060   ----------------------------------------
mus_thpp_edmadley_10_060:
	.byte		N06   , Cs3 , v100
	.byte	W06
	.byte		        Gs3 
	.byte	W06
	.byte		        Cs4 
	.byte	W06
	.byte		        Gs3 
	.byte	W06
	.byte		        Cs4 
	.byte	W06
	.byte		        Gs3 
	.byte	W06
	.byte		        Cs4 
	.byte	W06
	.byte		        Gs3 
	.byte	W06
	.byte		        An2 
	.byte	W06
	.byte		        En3 
	.byte	W06
	.byte		        An3 
	.byte	W06
	.byte		        En3 
	.byte	W06
	.byte		        An3 
	.byte	W06
	.byte		        En3 
	.byte	W06
	.byte		        An3 
	.byte	W06
	.byte		        En3 
	.byte	W06
	.byte	PEND
@ 061   ----------------------------------------
	.byte	PATT
	 .word	mus_thpp_edmadley_10_059
@ 062   ----------------------------------------
	.byte	PATT
	 .word	mus_thpp_edmadley_10_060
@ 063   ----------------------------------------
	.byte	PATT
	 .word	mus_thpp_edmadley_10_059
@ 064   ----------------------------------------
	.byte	PATT
	 .word	mus_thpp_edmadley_10_060
@ 065   ----------------------------------------
	.byte	PATT
	 .word	mus_thpp_edmadley_10_059
@ 066   ----------------------------------------
	.byte		N06   , Cs3 , v100
	.byte	W06
	.byte		        Gs3 
	.byte	W06
	.byte		        Cs4 
	.byte	W06
	.byte		        Gs3 
	.byte	W06
	.byte		        Cs4 
	.byte	W06
	.byte		        Gs3 
	.byte	W06
	.byte		        Cs4 
	.byte	W06
	.byte		        Gs3 
	.byte	W54
@ 067   ----------------------------------------
	.byte		N12   , Cn5 , v112
	.byte	W96
@ 068   ----------------------------------------
	.byte	W96
@ 069   ----------------------------------------
	.byte	W96
@ 070   ----------------------------------------
	.byte	W96
@ 071   ----------------------------------------
	.byte	W96
@ 072   ----------------------------------------
	.byte	W96
@ 073   ----------------------------------------
	.byte	W96
@ 074   ----------------------------------------
	.byte	W96
@ 075   ----------------------------------------
	.byte	W96
@ 076   ----------------------------------------
	.byte	W96
@ 077   ----------------------------------------
mus_thpp_edmadley_10_077:
	.byte		N06   , Cs4 , v112
	.byte	W06
	.byte		        En4 
	.byte	W06
	.byte		        Fs4 
	.byte	W06
	.byte		        An4 
	.byte	W06
	.byte		        Fs4 
	.byte	W06
	.byte		        En4 
	.byte	W06
	.byte		        Cs4 
	.byte	W06
	.byte		        En4 
	.byte	W06
	.byte		        Gs4 
	.byte	W06
	.byte		        Fs4 
	.byte	W06
	.byte		        En4 
	.byte	W06
	.byte		        Cs4 
	.byte	W06
	.byte		        An3 
	.byte	W06
	.byte		        Bn3 
	.byte	W06
	.byte		        Cs4 
	.byte	W06
	.byte		        En4 
	.byte	W06
	.byte	PEND
@ 078   ----------------------------------------
mus_thpp_edmadley_10_078:
	.byte		N12   , Fs4 , v112
	.byte	W12
	.byte		        Cs5 
	.byte	W12
	.byte		        Fs4 
	.byte	W12
	.byte		        Bn4 
	.byte	W12
	.byte		        En4 
	.byte	W12
	.byte		        An4 
	.byte	W12
	.byte		        Cs4 
	.byte	W12
	.byte		        Gs4 
	.byte	W12
	.byte	PEND
@ 079   ----------------------------------------
mus_thpp_edmadley_10_079:
	.byte		N06   , An3 , v112
	.byte	W06
	.byte		        Bn3 
	.byte	W06
	.byte		        Dn4 
	.byte	W06
	.byte		        Fs4 
	.byte	W06
	.byte		        Dn4 
	.byte	W06
	.byte		        Bn3 
	.byte	W06
	.byte		        An3 
	.byte	W06
	.byte		        Bn3 
	.byte	W06
	.byte		        En4 
	.byte	W06
	.byte		        Dn4 
	.byte	W06
	.byte		        Cs4 
	.byte	W06
	.byte		        Bn3 
	.byte	W06
	.byte		        Cs4 
	.byte	W06
	.byte		        En4 
	.byte	W06
	.byte		        Fs4 
	.byte	W06
	.byte		        Gs4 
	.byte	W06
	.byte	PEND
@ 080   ----------------------------------------
mus_thpp_edmadley_10_080:
	.byte		N12   , An4 , v112
	.byte	W12
	.byte		        Fs5 
	.byte	W12
	.byte		        An4 
	.byte	W12
	.byte		        En5 
	.byte	W12
	.byte		        Gs4 
	.byte	W12
	.byte		        Dn5 
	.byte	W12
	.byte		        Fs4 
	.byte	W12
	.byte		        Cs5 
	.byte	W12
	.byte	PEND
@ 081   ----------------------------------------
mus_thpp_edmadley_10_081:
	.byte		N06   , Bn3 , v112
	.byte	W06
	.byte		        Cs4 
	.byte	W06
	.byte		        En4 
	.byte	W06
	.byte		        Gs4 
	.byte	W06
	.byte		        En4 
	.byte	W06
	.byte		        Cs4 
	.byte	W06
	.byte		        Bn3 
	.byte	W06
	.byte		        Cs4 
	.byte	W06
	.byte		        En4 
	.byte	W06
	.byte		        Gs4 
	.byte	W06
	.byte		        En4 
	.byte	W06
	.byte		        Cs4 
	.byte	W06
	.byte		        Bn3 
	.byte	W06
	.byte		        Cs4 
	.byte	W06
	.byte		        En4 
	.byte	W06
	.byte		        Gs4 
	.byte	W06
	.byte	PEND
@ 082   ----------------------------------------
mus_thpp_edmadley_10_082:
	.byte		N06   , Cs5 , v112
	.byte	W06
	.byte		        Bn4 
	.byte	W06
	.byte		        An4 
	.byte	W06
	.byte		        Gs4 
	.byte	W06
	.byte		        An4 
	.byte	W06
	.byte		        Gs4 
	.byte	W06
	.byte		        Fs4 
	.byte	W06
	.byte		        En4 
	.byte	W06
	.byte		        Fs4 
	.byte	W06
	.byte		        En4 
	.byte	W06
	.byte		        Dn4 
	.byte	W06
	.byte		        Cs4 
	.byte	W06
	.byte		        En4 
	.byte	W06
	.byte		        Dn4 
	.byte	W06
	.byte		        Cs4 
	.byte	W06
	.byte		        Bn3 
	.byte	W06
	.byte	PEND
@ 083   ----------------------------------------
	.byte	PATT
	 .word	mus_thpp_edmadley_10_077
@ 084   ----------------------------------------
	.byte	PATT
	 .word	mus_thpp_edmadley_10_078
@ 085   ----------------------------------------
	.byte	PATT
	 .word	mus_thpp_edmadley_10_079
@ 086   ----------------------------------------
	.byte	PATT
	 .word	mus_thpp_edmadley_10_080
@ 087   ----------------------------------------
	.byte	PATT
	 .word	mus_thpp_edmadley_10_081
@ 088   ----------------------------------------
	.byte	PATT
	 .word	mus_thpp_edmadley_10_082
@ 089   ----------------------------------------
	.byte		N06   , Dn4 , v112
	.byte	W06
	.byte		        Fs4 
	.byte	W06
	.byte		        An4 
	.byte	W06
	.byte		        Dn5 
	.byte	W06
	.byte		        En5 
	.byte	W06
	.byte		        Fs5 
	.byte	W06
	.byte		        An5 
	.byte	W06
	.byte		        Fs5 
	.byte	W06
	.byte		        En4 
	.byte	W06
	.byte		        Gs4 
	.byte	W06
	.byte		        Bn4 
	.byte	W06
	.byte		        En5 
	.byte	W06
	.byte		        Bn4 
	.byte	W06
	.byte		        Gs4 
	.byte	W06
	.byte		        En4 
	.byte	W06
	.byte		        Bn3 
	.byte	W06
@ 090   ----------------------------------------
	.byte		        Fs3 
	.byte	W06
	.byte		        An3 
	.byte	W06
	.byte		        Cs4 
	.byte	W06
	.byte		        Fs4 
	.byte	W06
	.byte		        An4 
	.byte	W06
	.byte		        Cs5 
	.byte	W06
	.byte		        Fs5 
	.byte	W06
	.byte		        An5 
	.byte	W06
	.byte		        Cs6 
	.byte	W06
	.byte		        An5 
	.byte	W06
	.byte		        Fs5 
	.byte	W06
	.byte		        Cs5 
	.byte	W06
	.byte		        An4 
	.byte	W06
	.byte		        Fs4 
	.byte	W06
	.byte		        Cs4 
	.byte	W06
	.byte		        An3 
	.byte	W06
@ 091   ----------------------------------------
mus_thpp_edmadley_10_091:
	.byte		N06   , Fs3 , v112
	.byte	W12
	.byte		        Gs3 
	.byte	W12
	.byte		        An3 
	.byte	W12
	.byte		        Fs3 
	.byte	W12
	.byte		        Gs3 
	.byte	W12
	.byte		        An3 
	.byte	W12
	.byte		        Bn3 
	.byte	W12
	.byte		        Gs3 
	.byte	W12
	.byte	PEND
@ 092   ----------------------------------------
	.byte	W96
@ 093   ----------------------------------------
	.byte	PATT
	 .word	mus_thpp_edmadley_10_091
@ 094   ----------------------------------------
	.byte	W96
@ 095   ----------------------------------------
mus_thpp_edmadley_10_095:
	.byte		N06   , An3 , v112
	.byte	W12
	.byte		        Bn3 
	.byte	W12
	.byte		        Cs4 
	.byte	W12
	.byte		        An3 
	.byte	W12
	.byte		        Bn3 
	.byte	W12
	.byte		        Cs4 
	.byte	W12
	.byte		        Dn4 
	.byte	W12
	.byte		        Bn3 
	.byte	W12
	.byte	PEND
@ 096   ----------------------------------------
	.byte	W96
@ 097   ----------------------------------------
	.byte	PATT
	 .word	mus_thpp_edmadley_10_095
@ 098   ----------------------------------------
mus_thpp_edmadley_10_098:
	.byte		N06   , Cs4 , v112
	.byte	W12
	.byte		        Dn4 
	.byte	W12
	.byte		        En4 
	.byte	W12
	.byte		        Cs4 
	.byte	W12
	.byte		        Dn4 
	.byte	W12
	.byte		        Cs4 
	.byte	W12
	.byte		        Bn3 
	.byte	W12
	.byte		        Gs3 
	.byte	W12
	.byte	PEND
@ 099   ----------------------------------------
	.byte	PATT
	 .word	mus_thpp_edmadley_10_095
@ 100   ----------------------------------------
	.byte	PATT
	 .word	mus_thpp_edmadley_10_098
@ 101   ----------------------------------------
	.byte	W96
@ 102   ----------------------------------------
	.byte	W96
@ 103   ----------------------------------------
	.byte	W96
@ 104   ----------------------------------------
	.byte	W96
@ 105   ----------------------------------------
	.byte	W96
@ 106   ----------------------------------------
	.byte	W96
@ 107   ----------------------------------------
	.byte	W96
@ 108   ----------------------------------------
	.byte	W96
@ 109   ----------------------------------------
	.byte	W96
@ 110   ----------------------------------------
	.byte	W96
@ 111   ----------------------------------------
	.byte	W96
@ 112   ----------------------------------------
	.byte	W96
@ 113   ----------------------------------------
	.byte	W96
@ 114   ----------------------------------------
	.byte	W96
@ 115   ----------------------------------------
	.byte	W96
@ 116   ----------------------------------------
	.byte	W96
@ 117   ----------------------------------------
	.byte	W96
@ 118   ----------------------------------------
	.byte	W96
@ 119   ----------------------------------------
	.byte	W06
	.byte	FINE

@**************** Track 11 (Midi-Chn.11) ****************@

mus_thpp_edmadley_11:
	.byte	KEYSH , mus_thpp_edmadley_key+0
@ 000   ----------------------------------------
	.byte	W96
@ 001   ----------------------------------------
	.byte		VOICE , 14
	.byte		VOL   , 106*mus_thpp_edmadley_mvl/mxv
	.byte		PAN   , c_v+0
	.byte		BEND  , c_v+0
	.byte	W96
@ 002   ----------------------------------------
	.byte	W96
@ 003   ----------------------------------------
	.byte	W96
@ 004   ----------------------------------------
	.byte	W96
@ 005   ----------------------------------------
	.byte	W96
@ 006   ----------------------------------------
	.byte	W96
@ 007   ----------------------------------------
	.byte	W96
@ 008   ----------------------------------------
	.byte	W96
@ 009   ----------------------------------------
	.byte	W96
@ 010   ----------------------------------------
	.byte	W96
@ 011   ----------------------------------------
	.byte	W96
@ 012   ----------------------------------------
	.byte	W96
@ 013   ----------------------------------------
	.byte	W96
@ 014   ----------------------------------------
	.byte	W96
@ 015   ----------------------------------------
	.byte	W96
@ 016   ----------------------------------------
	.byte	W96
@ 017   ----------------------------------------
	.byte	W96
@ 018   ----------------------------------------
	.byte	W96
@ 019   ----------------------------------------
	.byte	W96
@ 020   ----------------------------------------
	.byte	W96
@ 021   ----------------------------------------
	.byte	W96
@ 022   ----------------------------------------
	.byte	W96
@ 023   ----------------------------------------
	.byte	W96
@ 024   ----------------------------------------
	.byte	W96
@ 025   ----------------------------------------
	.byte	W96
@ 026   ----------------------------------------
	.byte	W96
@ 027   ----------------------------------------
	.byte	W96
@ 028   ----------------------------------------
	.byte	W96
@ 029   ----------------------------------------
	.byte	W96
@ 030   ----------------------------------------
	.byte	W96
@ 031   ----------------------------------------
	.byte	W96
@ 032   ----------------------------------------
	.byte	W96
@ 033   ----------------------------------------
	.byte	W96
@ 034   ----------------------------------------
	.byte	W96
@ 035   ----------------------------------------
	.byte	W96
@ 036   ----------------------------------------
	.byte	W96
@ 037   ----------------------------------------
	.byte	W96
@ 038   ----------------------------------------
	.byte	W96
@ 039   ----------------------------------------
	.byte	W96
@ 040   ----------------------------------------
	.byte	W96
@ 041   ----------------------------------------
	.byte	W96
@ 042   ----------------------------------------
	.byte	W96
@ 043   ----------------------------------------
	.byte	W96
@ 044   ----------------------------------------
	.byte	W96
@ 045   ----------------------------------------
	.byte	W96
@ 046   ----------------------------------------
	.byte	W96
@ 047   ----------------------------------------
	.byte	W96
@ 048   ----------------------------------------
	.byte	W96
@ 049   ----------------------------------------
	.byte	W96
@ 050   ----------------------------------------
	.byte	W96
@ 051   ----------------------------------------
	.byte	W96
@ 052   ----------------------------------------
	.byte	W96
@ 053   ----------------------------------------
	.byte	W96
@ 054   ----------------------------------------
	.byte	W96
@ 055   ----------------------------------------
	.byte	W96
@ 056   ----------------------------------------
	.byte	W96
@ 057   ----------------------------------------
	.byte	W96
@ 058   ----------------------------------------
	.byte	W96
@ 059   ----------------------------------------
	.byte	W96
@ 060   ----------------------------------------
	.byte	W96
@ 061   ----------------------------------------
	.byte	W96
@ 062   ----------------------------------------
	.byte	W96
@ 063   ----------------------------------------
	.byte	W96
@ 064   ----------------------------------------
	.byte	W96
@ 065   ----------------------------------------
	.byte	W96
@ 066   ----------------------------------------
	.byte	W48
	.byte		N24   , Cs4 , v112
	.byte	W48
@ 067   ----------------------------------------
	.byte	W96
@ 068   ----------------------------------------
	.byte	W96
@ 069   ----------------------------------------
	.byte	W96
@ 070   ----------------------------------------
	.byte	W96
@ 071   ----------------------------------------
	.byte	W96
@ 072   ----------------------------------------
	.byte	W96
@ 073   ----------------------------------------
	.byte	W96
@ 074   ----------------------------------------
	.byte	W96
@ 075   ----------------------------------------
	.byte	W96
@ 076   ----------------------------------------
	.byte	W96
@ 077   ----------------------------------------
	.byte	W96
@ 078   ----------------------------------------
	.byte	W96
@ 079   ----------------------------------------
	.byte	W96
@ 080   ----------------------------------------
	.byte	W96
@ 081   ----------------------------------------
	.byte	W96
@ 082   ----------------------------------------
	.byte	W96
@ 083   ----------------------------------------
	.byte	W96
@ 084   ----------------------------------------
	.byte	W96
@ 085   ----------------------------------------
	.byte	W96
@ 086   ----------------------------------------
	.byte	W96
@ 087   ----------------------------------------
	.byte	W96
@ 088   ----------------------------------------
	.byte	W96
@ 089   ----------------------------------------
	.byte	W96
@ 090   ----------------------------------------
	.byte	W96
@ 091   ----------------------------------------
	.byte	W96
@ 092   ----------------------------------------
	.byte	W96
@ 093   ----------------------------------------
	.byte	W96
@ 094   ----------------------------------------
	.byte	W96
@ 095   ----------------------------------------
	.byte	W96
@ 096   ----------------------------------------
	.byte	W96
@ 097   ----------------------------------------
	.byte	W96
@ 098   ----------------------------------------
	.byte	W96
@ 099   ----------------------------------------
	.byte	W96
@ 100   ----------------------------------------
	.byte	W96
@ 101   ----------------------------------------
	.byte	W96
@ 102   ----------------------------------------
	.byte	W96
@ 103   ----------------------------------------
	.byte	W96
@ 104   ----------------------------------------
	.byte	W96
@ 105   ----------------------------------------
	.byte	W96
@ 106   ----------------------------------------
	.byte	W96
@ 107   ----------------------------------------
	.byte	W96
@ 108   ----------------------------------------
	.byte	W96
@ 109   ----------------------------------------
	.byte	W96
@ 110   ----------------------------------------
	.byte	W96
@ 111   ----------------------------------------
	.byte	W96
@ 112   ----------------------------------------
	.byte	W96
@ 113   ----------------------------------------
	.byte	W96
@ 114   ----------------------------------------
	.byte	W96
@ 115   ----------------------------------------
	.byte	W96
@ 116   ----------------------------------------
	.byte	W96
@ 117   ----------------------------------------
	.byte	W96
@ 118   ----------------------------------------
	.byte	W96
@ 119   ----------------------------------------
	.byte	W06
	.byte	FINE

@**************** Track 12 (Midi-Chn.12) ****************@

mus_thpp_edmadley_12:
	.byte	KEYSH , mus_thpp_edmadley_key+0
@ 000   ----------------------------------------
	.byte	W96
@ 001   ----------------------------------------
	.byte		VOICE , 44
	.byte		VOL   , 100*mus_thpp_edmadley_mvl/mxv
	.byte		PAN   , c_v+0
	.byte		BEND  , c_v+0
	.byte	W96
@ 002   ----------------------------------------
	.byte	W96
@ 003   ----------------------------------------
	.byte	W96
@ 004   ----------------------------------------
	.byte	W96
@ 005   ----------------------------------------
	.byte	W96
@ 006   ----------------------------------------
	.byte	W96
@ 007   ----------------------------------------
	.byte	W96
@ 008   ----------------------------------------
	.byte	W96
@ 009   ----------------------------------------
	.byte	W96
@ 010   ----------------------------------------
	.byte	W96
@ 011   ----------------------------------------
	.byte	W96
@ 012   ----------------------------------------
	.byte	W96
@ 013   ----------------------------------------
	.byte	W96
@ 014   ----------------------------------------
	.byte	W96
@ 015   ----------------------------------------
	.byte	W96
@ 016   ----------------------------------------
	.byte	W96
@ 017   ----------------------------------------
	.byte	W96
@ 018   ----------------------------------------
	.byte	W96
@ 019   ----------------------------------------
	.byte	W96
@ 020   ----------------------------------------
	.byte	W96
@ 021   ----------------------------------------
	.byte	W96
@ 022   ----------------------------------------
	.byte	W96
@ 023   ----------------------------------------
	.byte	W96
@ 024   ----------------------------------------
	.byte	W96
@ 025   ----------------------------------------
	.byte	W96
@ 026   ----------------------------------------
	.byte	W96
@ 027   ----------------------------------------
	.byte	W96
@ 028   ----------------------------------------
	.byte	W96
@ 029   ----------------------------------------
	.byte	W96
@ 030   ----------------------------------------
	.byte	W96
@ 031   ----------------------------------------
	.byte	W96
@ 032   ----------------------------------------
	.byte	W96
@ 033   ----------------------------------------
	.byte	W96
@ 034   ----------------------------------------
	.byte	W96
@ 035   ----------------------------------------
	.byte	W96
@ 036   ----------------------------------------
	.byte	W96
@ 037   ----------------------------------------
	.byte	W96
@ 038   ----------------------------------------
	.byte	W96
@ 039   ----------------------------------------
	.byte	W96
@ 040   ----------------------------------------
	.byte	W96
@ 041   ----------------------------------------
	.byte	W96
@ 042   ----------------------------------------
	.byte	W96
@ 043   ----------------------------------------
	.byte	W96
@ 044   ----------------------------------------
	.byte	W96
@ 045   ----------------------------------------
	.byte	W96
@ 046   ----------------------------------------
	.byte	W96
@ 047   ----------------------------------------
	.byte	W96
@ 048   ----------------------------------------
	.byte	W96
@ 049   ----------------------------------------
	.byte	W96
@ 050   ----------------------------------------
	.byte	W96
@ 051   ----------------------------------------
	.byte	W96
@ 052   ----------------------------------------
	.byte	W96
@ 053   ----------------------------------------
	.byte	W96
@ 054   ----------------------------------------
	.byte	W96
@ 055   ----------------------------------------
	.byte	W96
@ 056   ----------------------------------------
	.byte	W96
@ 057   ----------------------------------------
	.byte	W96
@ 058   ----------------------------------------
	.byte	W96
@ 059   ----------------------------------------
	.byte	W96
@ 060   ----------------------------------------
	.byte	W96
@ 061   ----------------------------------------
	.byte	W96
@ 062   ----------------------------------------
	.byte	W96
@ 063   ----------------------------------------
	.byte	W96
@ 064   ----------------------------------------
	.byte	W96
@ 065   ----------------------------------------
	.byte	W96
@ 066   ----------------------------------------
	.byte	W96
@ 067   ----------------------------------------
mus_thpp_edmadley_12_067:
	.byte		N12   , Fn1 , v112
	.byte	W12
	.byte		N12   
	.byte	W12
	.byte		        Gs1 
	.byte	W12
	.byte		        As1 
	.byte	W12
	.byte		        Fn1 
	.byte	W12
	.byte		        Cn2 
	.byte	W12
	.byte		        Gn1 
	.byte	W12
	.byte		        Ds1 
	.byte	W12
	.byte	PEND
@ 068   ----------------------------------------
mus_thpp_edmadley_12_068:
	.byte		N12   , Cs1 , v112
	.byte	W12
	.byte		N12   
	.byte	W12
	.byte		        Gn1 
	.byte	W12
	.byte		        Gs1 
	.byte	W12
	.byte		        Ds1 
	.byte	W12
	.byte		        As1 
	.byte	W12
	.byte		        Gs1 
	.byte	W12
	.byte		        Ds1 
	.byte	W12
	.byte	PEND
@ 069   ----------------------------------------
	.byte	PATT
	 .word	mus_thpp_edmadley_12_067
@ 070   ----------------------------------------
	.byte	PATT
	 .word	mus_thpp_edmadley_12_068
@ 071   ----------------------------------------
	.byte	PATT
	 .word	mus_thpp_edmadley_12_067
@ 072   ----------------------------------------
	.byte	PATT
	 .word	mus_thpp_edmadley_12_068
@ 073   ----------------------------------------
	.byte	PATT
	 .word	mus_thpp_edmadley_12_067
@ 074   ----------------------------------------
	.byte	PATT
	 .word	mus_thpp_edmadley_12_068
@ 075   ----------------------------------------
	.byte	W96
@ 076   ----------------------------------------
	.byte	W96
@ 077   ----------------------------------------
	.byte	W96
@ 078   ----------------------------------------
	.byte	W96
@ 079   ----------------------------------------
	.byte	W96
@ 080   ----------------------------------------
	.byte	W96
@ 081   ----------------------------------------
	.byte	W96
@ 082   ----------------------------------------
	.byte	W96
@ 083   ----------------------------------------
	.byte	W96
@ 084   ----------------------------------------
	.byte	W96
@ 085   ----------------------------------------
	.byte	W96
@ 086   ----------------------------------------
	.byte	W96
@ 087   ----------------------------------------
	.byte	W96
@ 088   ----------------------------------------
	.byte	W96
@ 089   ----------------------------------------
	.byte	W96
@ 090   ----------------------------------------
	.byte	W96
@ 091   ----------------------------------------
	.byte	W96
@ 092   ----------------------------------------
	.byte	W96
@ 093   ----------------------------------------
	.byte	W96
@ 094   ----------------------------------------
	.byte	W96
@ 095   ----------------------------------------
	.byte	W96
@ 096   ----------------------------------------
	.byte	W96
@ 097   ----------------------------------------
	.byte	W96
@ 098   ----------------------------------------
	.byte	W96
@ 099   ----------------------------------------
	.byte	W96
@ 100   ----------------------------------------
	.byte	W96
@ 101   ----------------------------------------
	.byte	W96
@ 102   ----------------------------------------
	.byte	W96
@ 103   ----------------------------------------
	.byte	W96
@ 104   ----------------------------------------
	.byte	W96
@ 105   ----------------------------------------
	.byte	W96
@ 106   ----------------------------------------
	.byte	W96
@ 107   ----------------------------------------
	.byte	W96
@ 108   ----------------------------------------
	.byte	W96
@ 109   ----------------------------------------
	.byte	W96
@ 110   ----------------------------------------
	.byte	W96
@ 111   ----------------------------------------
	.byte	W96
@ 112   ----------------------------------------
	.byte	W96
@ 113   ----------------------------------------
	.byte	W96
@ 114   ----------------------------------------
	.byte	W96
@ 115   ----------------------------------------
	.byte	W96
@ 116   ----------------------------------------
	.byte	W96
@ 117   ----------------------------------------
	.byte	W96
@ 118   ----------------------------------------
	.byte	W96
@ 119   ----------------------------------------
	.byte	W06
	.byte	FINE

@******************************************************@
	.align	2

mus_thpp_edmadley:
	.byte	12	@ NumTrks
	.byte	0	@ NumBlks
	.byte	mus_thpp_edmadley_pri	@ Priority
	.byte	mus_thpp_edmadley_rev	@ Reverb.

	.word	mus_thpp_edmadley_grp

	.word	mus_thpp_edmadley_1
	.word	mus_thpp_edmadley_2
	.word	mus_thpp_edmadley_3
	.word	mus_thpp_edmadley_4
	.word	mus_thpp_edmadley_5
	.word	mus_thpp_edmadley_6
	.word	mus_thpp_edmadley_7
	.word	mus_thpp_edmadley_8
	.word	mus_thpp_edmadley_9
	.word	mus_thpp_edmadley_10
	.word	mus_thpp_edmadley_11
	.word	mus_thpp_edmadley_12

	.end
