        .include "MPlayDef.s"

        .equ    mus_gs2_007_izumo_under_the_serpent_grp, voicegroup601
        .equ    mus_gs2_007_izumo_under_the_serpent_pri, 0
        .equ    mus_gs2_007_izumo_under_the_serpent_rev, 0
        .equ    mus_gs2_007_izumo_under_the_serpent_key, 0

        .section .rodata
        .global mus_gs2_007_izumo_under_the_serpent
        .align  2

@****************** Track 0 (Midi-Chn.0) ******************@

mus_gs2_007_izumo_under_the_serpent_0:
        .byte   KEYSH , mus_gs2_007_izumo_under_the_serpent_key+0
@ 000   ----------------------------------------
        .byte   TEMPO , 132/2
mus_gs2_007_izumo_under_the_serpent_0_LOOP:
        .byte           VOICE , 68
        .byte           VOL   , 100
        .byte           N44   , En1 , v127
        .byte           N44   , An1 , v044
        .byte           N44   , Bn1
        .byte           N44   , Dn2
        .byte   W72
        .byte           N10   , En1 , v127
        .byte           N10   , An1 , v044
        .byte           N10   , Bn1
        .byte           N10   , Dn2
        .byte   W24
@ 001   ----------------------------------------
mus_gs2_007_izumo_under_the_serpent_0_1:
        .byte           N90   , En1 , v127
        .byte           N90   , An1 , v044
        .byte           N90   , Bn1
        .byte           N90   , Dn2
        .byte   W96
        .byte   PEND
@ 002   ----------------------------------------
mus_gs2_007_izumo_under_the_serpent_0_2:
        .byte           N44   , En1 , v127
        .byte           N44   , An1 , v044
        .byte           N44   , Bn1
        .byte           N44   , Dn2
        .byte   W72
        .byte           N10   , En1 , v127
        .byte           N10   , An1 , v044
        .byte           N10   , Bn1
        .byte           N10   , Dn2
        .byte   W24
        .byte   PEND
@ 003   ----------------------------------------
        .byte   PATT
         .word  mus_gs2_007_izumo_under_the_serpent_0_1
@ 004   ----------------------------------------
        .byte   PATT
         .word  mus_gs2_007_izumo_under_the_serpent_0_2
@ 005   ----------------------------------------
        .byte   PATT
         .word  mus_gs2_007_izumo_under_the_serpent_0_1
@ 006   ----------------------------------------
        .byte   PATT
         .word  mus_gs2_007_izumo_under_the_serpent_0_2
@ 007   ----------------------------------------
        .byte   PATT
         .word  mus_gs2_007_izumo_under_the_serpent_0_1
@ 008   ----------------------------------------
        .byte   PATT
         .word  mus_gs2_007_izumo_under_the_serpent_0_2
@ 009   ----------------------------------------
        .byte   PATT
         .word  mus_gs2_007_izumo_under_the_serpent_0_1
@ 010   ----------------------------------------
mus_gs2_007_izumo_under_the_serpent_0_10:
        .byte           N44   , Fn1 , v127
        .byte           N44   , An1 , v044
        .byte           N44   , Bn1
        .byte           N44   , Dn2
        .byte   W72
        .byte           N10   , Fn1 , v127
        .byte           N10   , An1 , v044
        .byte           N10   , Bn1
        .byte           N10   , Dn2
        .byte   W24
        .byte   PEND
@ 011   ----------------------------------------
mus_gs2_007_izumo_under_the_serpent_0_11:
        .byte           N90   , Fn1 , v127
        .byte           N90   , An1 , v044
        .byte           N90   , Bn1
        .byte           N90   , Dn2
        .byte   W96
        .byte   PEND
@ 012   ----------------------------------------
        .byte   PATT
         .word  mus_gs2_007_izumo_under_the_serpent_0_2
@ 013   ----------------------------------------
        .byte   PATT
         .word  mus_gs2_007_izumo_under_the_serpent_0_1
@ 014   ----------------------------------------
        .byte   PATT
         .word  mus_gs2_007_izumo_under_the_serpent_0_10
@ 015   ----------------------------------------
        .byte   PATT
         .word  mus_gs2_007_izumo_under_the_serpent_0_11
@ 016   ----------------------------------------
        .byte   PATT
         .word  mus_gs2_007_izumo_under_the_serpent_0_2
@ 017   ----------------------------------------
        .byte   PATT
         .word  mus_gs2_007_izumo_under_the_serpent_0_1
@ 018   ----------------------------------------
        .byte   PATT
         .word  mus_gs2_007_izumo_under_the_serpent_0_10
@ 019   ----------------------------------------
        .byte   PATT
         .word  mus_gs2_007_izumo_under_the_serpent_0_11
@ 020   ----------------------------------------
        .byte   PATT
         .word  mus_gs2_007_izumo_under_the_serpent_0_2
@ 021   ----------------------------------------
        .byte   PATT
         .word  mus_gs2_007_izumo_under_the_serpent_0_1
@ 022   ----------------------------------------
        .byte   PATT
         .word  mus_gs2_007_izumo_under_the_serpent_0_10
@ 023   ----------------------------------------
        .byte   PATT
         .word  mus_gs2_007_izumo_under_the_serpent_0_11
@ 024   ----------------------------------------
        .byte   PATT
         .word  mus_gs2_007_izumo_under_the_serpent_0_2
@ 025   ----------------------------------------
        .byte   PATT
         .word  mus_gs2_007_izumo_under_the_serpent_0_1
@ 026   ----------------------------------------
        .byte   PATT
         .word  mus_gs2_007_izumo_under_the_serpent_0_10
@ 027   ----------------------------------------
        .byte   PATT
         .word  mus_gs2_007_izumo_under_the_serpent_0_11
@ 028   ----------------------------------------
        .byte   PATT
         .word  mus_gs2_007_izumo_under_the_serpent_0_2
@ 029   ----------------------------------------
        .byte   PATT
         .word  mus_gs2_007_izumo_under_the_serpent_0_1
@ 030   ----------------------------------------
        .byte   PATT
         .word  mus_gs2_007_izumo_under_the_serpent_0_10
@ 031   ----------------------------------------
        .byte   PATT
         .word  mus_gs2_007_izumo_under_the_serpent_0_11
@ 032   ----------------------------------------
        .byte   PATT
         .word  mus_gs2_007_izumo_under_the_serpent_0_2
@ 033   ----------------------------------------
        .byte   PATT
         .word  mus_gs2_007_izumo_under_the_serpent_0_1
@ 034   ----------------------------------------
        .byte   PATT
         .word  mus_gs2_007_izumo_under_the_serpent_0_10
@ 035   ----------------------------------------
        .byte   PATT
         .word  mus_gs2_007_izumo_under_the_serpent_0_11
@ 036   ----------------------------------------
        .byte   GOTO
         .word  mus_gs2_007_izumo_under_the_serpent_0_LOOP
        .byte   FINE

@****************** Track 1 (Midi-Chn.1) ******************@

mus_gs2_007_izumo_under_the_serpent_1:
        .byte   KEYSH , mus_gs2_007_izumo_under_the_serpent_key+0
@ 000   ----------------------------------------
mus_gs2_007_izumo_under_the_serpent_1_LOOP:
        .byte           VOICE , 84
        .byte           MOD   , 5
        .byte           VOL   , 94
        .byte           LFOS  , 40
        .byte           LFODL , 40
        .byte   W96
@ 001   ----------------------------------------
        .byte   W96
@ 002   ----------------------------------------
        .byte   W96
@ 003   ----------------------------------------
        .byte   W96
@ 004   ----------------------------------------
        .byte           BEND  , c_v-64
        .byte           TIE   , Bn3 , v127
        .byte   W02
        .byte           BEND  , c_v-56
        .byte   W02
        .byte                   c_v-50
        .byte   W02
        .byte                   c_v-44
        .byte   W02
        .byte                   c_v-39
        .byte   W02
        .byte                   c_v-35
        .byte   W02
        .byte                   c_v-31
        .byte   W02
        .byte                   c_v-28
        .byte   W02
        .byte                   c_v-25
        .byte   W02
        .byte                   c_v-22
        .byte   W02
        .byte                   c_v-19
        .byte   W02
        .byte                   c_v-17
        .byte   W02
        .byte                   c_v-15
        .byte   W02
        .byte                   c_v-14
        .byte   W02
        .byte                   c_v-12
        .byte   W02
        .byte                   c_v-11
        .byte   W02
        .byte                   c_v-9
        .byte   W02
        .byte                   c_v-8
        .byte   W02
        .byte                   c_v-7
        .byte   W04
        .byte                   c_v-6
        .byte   W02
        .byte                   c_v-5
        .byte   W02
        .byte                   c_v-4
        .byte   W04
        .byte                   c_v-3
        .byte   W06
        .byte                   c_v-2
        .byte   W06
        .byte                   c_v-1
        .byte   W12
        .byte                   c_v+0
        .byte   W24
@ 005   ----------------------------------------
        .byte   W32
        .byte   W02
        .byte           EOT
        .byte   W14
        .byte           N23   , En4
        .byte   W24
        .byte                   An3
        .byte   W24
@ 006   ----------------------------------------
        .byte           N66   , Bn3
        .byte   W72
        .byte           N11   , An3
        .byte   W12
        .byte                   Bn3
        .byte   W12
@ 007   ----------------------------------------
        .byte           N84   , An3
        .byte   W96
@ 008   ----------------------------------------
        .byte           TIE   , Bn3
        .byte   W96
@ 009   ----------------------------------------
        .byte   W32
        .byte   W03
        .byte           EOT
        .byte   W13
        .byte           N23   , En4
        .byte   W24
        .byte                   An3
        .byte   W24
@ 010   ----------------------------------------
        .byte           N68   , Fn4
        .byte   W72
        .byte           N11   , En4
        .byte   W12
        .byte                   Fn4
        .byte   W12
@ 011   ----------------------------------------
        .byte           N92   , En4
        .byte   W96
@ 012   ----------------------------------------
        .byte                   En3
        .byte   W96
@ 013   ----------------------------------------
        .byte           N44   , Bn3
        .byte   W44
        .byte   W03
        .byte           BEND  , c_v-64
        .byte   W01
        .byte           N44   , En4
        .byte   W02
        .byte           BEND  , c_v-50
        .byte   W02
        .byte                   c_v-39
        .byte   W02
        .byte                   c_v-31
        .byte   W02
        .byte                   c_v-24
        .byte   W02
        .byte                   c_v-19
        .byte   W02
        .byte                   c_v-15
        .byte   W02
        .byte                   c_v-12
        .byte   W02
        .byte                   c_v-9
        .byte   W02
        .byte                   c_v-7
        .byte   W02
        .byte                   c_v-6
        .byte   W02
        .byte                   c_v-4
        .byte   W02
        .byte                   c_v-3
        .byte   W04
        .byte                   c_v-2
        .byte   W02
        .byte                   c_v-1
        .byte   W06
        .byte                   c_v+0
        .byte   W12
@ 014   ----------------------------------------
        .byte           N68   , Dn4
        .byte   W72
        .byte           N11   , Bn3
        .byte   W12
        .byte                   An3
        .byte   W12
@ 015   ----------------------------------------
        .byte           N92   , Fn3
        .byte   W96
@ 016   ----------------------------------------
        .byte           N68   , En3
        .byte   W72
        .byte           N11   , An3
        .byte   W12
        .byte                   Bn3
        .byte   W12
@ 017   ----------------------------------------
        .byte           N23   , Dn4
        .byte   W24
        .byte                   Bn3
        .byte   W24
        .byte                   An3
        .byte   W24
        .byte                   Bn3
        .byte   W24
@ 018   ----------------------------------------
        .byte           BEND  , c_v-64
        .byte           N92   , Fn4
        .byte   W02
        .byte           BEND  , c_v-56
        .byte   W02
        .byte                   c_v-50
        .byte   W02
        .byte                   c_v-44
        .byte   W02
        .byte                   c_v-39
        .byte   W02
        .byte                   c_v-35
        .byte   W02
        .byte                   c_v-31
        .byte   W02
        .byte                   c_v-28
        .byte   W02
        .byte                   c_v-25
        .byte   W02
        .byte                   c_v-22
        .byte   W02
        .byte                   c_v-19
        .byte   W02
        .byte                   c_v-17
        .byte   W02
        .byte                   c_v-15
        .byte   W02
        .byte                   c_v-14
        .byte   W02
        .byte                   c_v-12
        .byte   W02
        .byte                   c_v-11
        .byte   W02
        .byte                   c_v-9
        .byte   W02
        .byte                   c_v-8
        .byte   W02
        .byte                   c_v-7
        .byte   W04
        .byte                   c_v-6
        .byte   W02
        .byte                   c_v-5
        .byte   W02
        .byte                   c_v-4
        .byte   W04
        .byte                   c_v-3
        .byte   W06
        .byte                   c_v-2
        .byte   W06
        .byte                   c_v-1
        .byte   W12
        .byte                   c_v+0
        .byte   W24
@ 019   ----------------------------------------
        .byte           N92   , En4
        .byte   W96
@ 020   ----------------------------------------
        .byte   W96
@ 021   ----------------------------------------
        .byte   W96
@ 022   ----------------------------------------
        .byte   W96
@ 023   ----------------------------------------
        .byte   W96
@ 024   ----------------------------------------
        .byte   W96
@ 025   ----------------------------------------
        .byte   W96
@ 026   ----------------------------------------
        .byte   W96
@ 027   ----------------------------------------
        .byte   W96
@ 028   ----------------------------------------
mus_gs2_007_izumo_under_the_serpent_1_28:
        .byte           BEND  , c_v-64
        .byte           TIE   , Bn3 , v088
        .byte           TIE   , En4
        .byte   W02
        .byte           BEND  , c_v-56
        .byte   W02
        .byte                   c_v-50
        .byte   W02
        .byte                   c_v-44
        .byte   W02
        .byte                   c_v-39
        .byte   W02
        .byte                   c_v-35
        .byte   W02
        .byte                   c_v-31
        .byte   W02
        .byte                   c_v-28
        .byte   W02
        .byte                   c_v-25
        .byte   W02
        .byte                   c_v-22
        .byte   W02
        .byte                   c_v-19
        .byte   W02
        .byte                   c_v-17
        .byte   W02
        .byte                   c_v-15
        .byte   W02
        .byte                   c_v-14
        .byte   W02
        .byte                   c_v-12
        .byte   W02
        .byte                   c_v-11
        .byte   W02
        .byte                   c_v-9
        .byte   W02
        .byte                   c_v-8
        .byte   W02
        .byte                   c_v-7
        .byte   W04
        .byte                   c_v-6
        .byte   W02
        .byte                   c_v-5
        .byte   W02
        .byte                   c_v-4
        .byte   W04
        .byte                   c_v-3
        .byte   W06
        .byte                   c_v-2
        .byte   W06
        .byte                   c_v-1
        .byte   W12
        .byte                   c_v+0
        .byte   W24
        .byte   PEND
@ 029   ----------------------------------------
mus_gs2_007_izumo_under_the_serpent_1_29:
        .byte   W92
        .byte   W02
        .byte           EOT   , Bn3
        .byte                   En4
        .byte   W02
        .byte   PEND
@ 030   ----------------------------------------
mus_gs2_007_izumo_under_the_serpent_1_30:
        .byte           BEND  , c_v-64
        .byte           N92   , Bn3 , v088
        .byte           N92   , En4
        .byte   W02
        .byte           BEND  , c_v-56
        .byte   W02
        .byte                   c_v-50
        .byte   W02
        .byte                   c_v-44
        .byte   W02
        .byte                   c_v-39
        .byte   W02
        .byte                   c_v-35
        .byte   W02
        .byte                   c_v-31
        .byte   W02
        .byte                   c_v-28
        .byte   W02
        .byte                   c_v-25
        .byte   W02
        .byte                   c_v-22
        .byte   W02
        .byte                   c_v-19
        .byte   W02
        .byte                   c_v-17
        .byte   W02
        .byte                   c_v-15
        .byte   W02
        .byte                   c_v-14
        .byte   W02
        .byte                   c_v-12
        .byte   W02
        .byte                   c_v-11
        .byte   W02
        .byte                   c_v-9
        .byte   W02
        .byte                   c_v-8
        .byte   W02
        .byte                   c_v-7
        .byte   W04
        .byte                   c_v-6
        .byte   W02
        .byte                   c_v-5
        .byte   W02
        .byte                   c_v-4
        .byte   W04
        .byte                   c_v-3
        .byte   W06
        .byte                   c_v-2
        .byte   W06
        .byte                   c_v-1
        .byte   W12
        .byte                   c_v+0
        .byte   W24
        .byte   PEND
@ 031   ----------------------------------------
mus_gs2_007_izumo_under_the_serpent_1_31:
        .byte           N92   , Bn3 , v088
        .byte           N92   , Dn4
        .byte   W96
        .byte   PEND
@ 032   ----------------------------------------
        .byte   PATT
         .word  mus_gs2_007_izumo_under_the_serpent_1_28
@ 033   ----------------------------------------
        .byte   PATT
         .word  mus_gs2_007_izumo_under_the_serpent_1_29
@ 034   ----------------------------------------
        .byte   PATT
         .word  mus_gs2_007_izumo_under_the_serpent_1_30
@ 035   ----------------------------------------
        .byte   PATT
         .word  mus_gs2_007_izumo_under_the_serpent_1_31
@ 036   ----------------------------------------
        .byte   GOTO
         .word  mus_gs2_007_izumo_under_the_serpent_1_LOOP
        .byte   FINE

@****************** Track 2 (Midi-Chn.2) ******************@

mus_gs2_007_izumo_under_the_serpent_2:
        .byte   KEYSH , mus_gs2_007_izumo_under_the_serpent_key+0
@ 000   ----------------------------------------
mus_gs2_007_izumo_under_the_serpent_2_LOOP:
        .byte           VOICE , 110
        .byte           VOL   , 100
        .byte   W96
@ 001   ----------------------------------------
        .byte   W96
@ 002   ----------------------------------------
        .byte   W96
@ 003   ----------------------------------------
        .byte   W96
@ 004   ----------------------------------------
        .byte   W96
@ 005   ----------------------------------------
        .byte   W96
@ 006   ----------------------------------------
        .byte   W96
@ 007   ----------------------------------------
        .byte   W96
@ 008   ----------------------------------------
        .byte   W96
@ 009   ----------------------------------------
        .byte   W96
@ 010   ----------------------------------------
        .byte   W96
@ 011   ----------------------------------------
        .byte   W96
@ 012   ----------------------------------------
        .byte   W96
@ 013   ----------------------------------------
        .byte   W96
@ 014   ----------------------------------------
        .byte   W96
@ 015   ----------------------------------------
        .byte   W96
@ 016   ----------------------------------------
        .byte   W96
@ 017   ----------------------------------------
        .byte   W96
@ 018   ----------------------------------------
        .byte   W96
@ 019   ----------------------------------------
        .byte   W96
@ 020   ----------------------------------------
mus_gs2_007_izumo_under_the_serpent_2_20:
        .byte           N20   , En2 , v127
        .byte   W12
        .byte                   An2
        .byte   W12
        .byte                   Bn2
        .byte   W12
        .byte                   Dn3
        .byte   W12
        .byte           TIE   , En3
        .byte   W48
        .byte   PEND
@ 021   ----------------------------------------
        .byte   W92
        .byte   W03
        .byte           EOT
        .byte   W01
@ 022   ----------------------------------------
mus_gs2_007_izumo_under_the_serpent_2_22:
        .byte           N20   , Dn3 , v127
        .byte   W12
        .byte                   En3
        .byte   W12
        .byte                   Bn2
        .byte   W12
        .byte                   Dn3
        .byte   W12
        .byte           TIE   , Fn2
        .byte   W48
        .byte   PEND
@ 023   ----------------------------------------
        .byte   W92
        .byte   W03
        .byte           EOT
        .byte   W01
@ 024   ----------------------------------------
        .byte   PATT
         .word  mus_gs2_007_izumo_under_the_serpent_2_20
@ 025   ----------------------------------------
        .byte   W92
        .byte   W03
        .byte           EOT   , En3
        .byte   W01
@ 026   ----------------------------------------
        .byte   PATT
         .word  mus_gs2_007_izumo_under_the_serpent_2_22
@ 027   ----------------------------------------
        .byte   W92
        .byte   W03
        .byte           EOT   , Fn2
        .byte   W01
@ 028   ----------------------------------------
        .byte   PATT
         .word  mus_gs2_007_izumo_under_the_serpent_2_20
@ 029   ----------------------------------------
        .byte   W92
        .byte   W03
        .byte           EOT   , En3
        .byte   W01
@ 030   ----------------------------------------
        .byte   PATT
         .word  mus_gs2_007_izumo_under_the_serpent_2_22
@ 031   ----------------------------------------
        .byte   W92
        .byte   W03
        .byte           EOT   , Fn2
        .byte   W01
@ 032   ----------------------------------------
        .byte   PATT
         .word  mus_gs2_007_izumo_under_the_serpent_2_20
@ 033   ----------------------------------------
        .byte   W92
        .byte   W03
        .byte           EOT   , En3
        .byte   W01
@ 034   ----------------------------------------
        .byte   PATT
         .word  mus_gs2_007_izumo_under_the_serpent_2_22
@ 035   ----------------------------------------
        .byte   W92
        .byte   W03
        .byte           EOT   , Fn2
        .byte   W01
@ 036   ----------------------------------------
        .byte   GOTO
         .word  mus_gs2_007_izumo_under_the_serpent_2_LOOP
        .byte   FINE

@****************** Track 3 (Midi-Chn.3) ******************@

mus_gs2_007_izumo_under_the_serpent_3:
        .byte   KEYSH , mus_gs2_007_izumo_under_the_serpent_key+0
@ 000   ----------------------------------------
mus_gs2_007_izumo_under_the_serpent_3_LOOP:
        .byte           VOICE , 127
        .byte           VOL   , 100
        .byte   W48
        .byte           N20   , Fs1 , v100
        .byte   W48
@ 001   ----------------------------------------
mus_gs2_007_izumo_under_the_serpent_3_1:
        .byte   W48
        .byte           N20   , Fs1 , v100
        .byte   W48
        .byte   PEND
@ 002   ----------------------------------------
        .byte   PATT
         .word  mus_gs2_007_izumo_under_the_serpent_3_1
@ 003   ----------------------------------------
        .byte   PATT
         .word  mus_gs2_007_izumo_under_the_serpent_3_1
@ 004   ----------------------------------------
        .byte   PATT
         .word  mus_gs2_007_izumo_under_the_serpent_3_1
@ 005   ----------------------------------------
        .byte   PATT
         .word  mus_gs2_007_izumo_under_the_serpent_3_1
@ 006   ----------------------------------------
        .byte   PATT
         .word  mus_gs2_007_izumo_under_the_serpent_3_1
@ 007   ----------------------------------------
        .byte   PATT
         .word  mus_gs2_007_izumo_under_the_serpent_3_1
@ 008   ----------------------------------------
        .byte   PATT
         .word  mus_gs2_007_izumo_under_the_serpent_3_1
@ 009   ----------------------------------------
        .byte   PATT
         .word  mus_gs2_007_izumo_under_the_serpent_3_1
@ 010   ----------------------------------------
        .byte   PATT
         .word  mus_gs2_007_izumo_under_the_serpent_3_1
@ 011   ----------------------------------------
        .byte   PATT
         .word  mus_gs2_007_izumo_under_the_serpent_3_1
@ 012   ----------------------------------------
        .byte   PATT
         .word  mus_gs2_007_izumo_under_the_serpent_3_1
@ 013   ----------------------------------------
        .byte   PATT
         .word  mus_gs2_007_izumo_under_the_serpent_3_1
@ 014   ----------------------------------------
        .byte   PATT
         .word  mus_gs2_007_izumo_under_the_serpent_3_1
@ 015   ----------------------------------------
        .byte   PATT
         .word  mus_gs2_007_izumo_under_the_serpent_3_1
@ 016   ----------------------------------------
        .byte   PATT
         .word  mus_gs2_007_izumo_under_the_serpent_3_1
@ 017   ----------------------------------------
        .byte   PATT
         .word  mus_gs2_007_izumo_under_the_serpent_3_1
@ 018   ----------------------------------------
        .byte   PATT
         .word  mus_gs2_007_izumo_under_the_serpent_3_1
@ 019   ----------------------------------------
        .byte   PATT
         .word  mus_gs2_007_izumo_under_the_serpent_3_1
@ 020   ----------------------------------------
        .byte   PATT
         .word  mus_gs2_007_izumo_under_the_serpent_3_1
@ 021   ----------------------------------------
        .byte   PATT
         .word  mus_gs2_007_izumo_under_the_serpent_3_1
@ 022   ----------------------------------------
        .byte   PATT
         .word  mus_gs2_007_izumo_under_the_serpent_3_1
@ 023   ----------------------------------------
        .byte   PATT
         .word  mus_gs2_007_izumo_under_the_serpent_3_1
@ 024   ----------------------------------------
        .byte   PATT
         .word  mus_gs2_007_izumo_under_the_serpent_3_1
@ 025   ----------------------------------------
        .byte   PATT
         .word  mus_gs2_007_izumo_under_the_serpent_3_1
@ 026   ----------------------------------------
        .byte   PATT
         .word  mus_gs2_007_izumo_under_the_serpent_3_1
@ 027   ----------------------------------------
        .byte   PATT
         .word  mus_gs2_007_izumo_under_the_serpent_3_1
@ 028   ----------------------------------------
        .byte   PATT
         .word  mus_gs2_007_izumo_under_the_serpent_3_1
@ 029   ----------------------------------------
        .byte   PATT
         .word  mus_gs2_007_izumo_under_the_serpent_3_1
@ 030   ----------------------------------------
        .byte   PATT
         .word  mus_gs2_007_izumo_under_the_serpent_3_1
@ 031   ----------------------------------------
        .byte   PATT
         .word  mus_gs2_007_izumo_under_the_serpent_3_1
@ 032   ----------------------------------------
        .byte   PATT
         .word  mus_gs2_007_izumo_under_the_serpent_3_1
@ 033   ----------------------------------------
        .byte   PATT
         .word  mus_gs2_007_izumo_under_the_serpent_3_1
@ 034   ----------------------------------------
        .byte   PATT
         .word  mus_gs2_007_izumo_under_the_serpent_3_1
@ 035   ----------------------------------------
        .byte   PATT
         .word  mus_gs2_007_izumo_under_the_serpent_3_1
@ 036   ----------------------------------------
        .byte   GOTO
         .word  mus_gs2_007_izumo_under_the_serpent_3_LOOP
        .byte   FINE

@****************** Track 4 (Midi-Chn.4) ******************@

mus_gs2_007_izumo_under_the_serpent_4:
        .byte   KEYSH , mus_gs2_007_izumo_under_the_serpent_key+0
@ 000   ----------------------------------------
mus_gs2_007_izumo_under_the_serpent_4_LOOP:
        .byte           VOICE , 84
        .byte           MOD   , 5
        .byte           VOL   , 78
        .byte           PAN   , c_v+6
        .byte           LFOS  , 40
        .byte           LFODL , 40
        .byte   W96
@ 001   ----------------------------------------
        .byte   W96
@ 002   ----------------------------------------
        .byte   W96
@ 003   ----------------------------------------
        .byte   W96
@ 004   ----------------------------------------
        .byte   W22
        .byte           BEND  , c_v-64
        .byte           TIE   , Bn3 , v127
        .byte   W02
        .byte           BEND  , c_v-56
        .byte   W02
        .byte                   c_v-50
        .byte   W02
        .byte                   c_v-44
        .byte   W02
        .byte                   c_v-39
        .byte   W02
        .byte                   c_v-35
        .byte   W02
        .byte                   c_v-31
        .byte   W02
        .byte                   c_v-28
        .byte   W02
        .byte                   c_v-25
        .byte   W02
        .byte                   c_v-22
        .byte   W02
        .byte                   c_v-19
        .byte   W02
        .byte                   c_v-17
        .byte   W02
        .byte                   c_v-15
        .byte   W02
        .byte                   c_v-14
        .byte   W02
        .byte                   c_v-12
        .byte   W02
        .byte                   c_v-11
        .byte   W02
        .byte                   c_v-9
        .byte   W02
        .byte                   c_v-8
        .byte   W02
        .byte                   c_v-7
        .byte   W04
        .byte                   c_v-6
        .byte   W02
        .byte                   c_v-5
        .byte   W02
        .byte                   c_v-4
        .byte   W04
        .byte                   c_v-3
        .byte   W06
        .byte                   c_v-2
        .byte   W06
        .byte                   c_v-1
        .byte   W12
        .byte                   c_v+0
        .byte   W02
@ 005   ----------------------------------------
        .byte   W56
        .byte           EOT
        .byte   W14
        .byte           N23   , En4
        .byte   W24
        .byte                   An3
        .byte   W02
@ 006   ----------------------------------------
        .byte   W22
        .byte           N66   , Bn3
        .byte   W72
        .byte           N11   , An3
        .byte   W02
@ 007   ----------------------------------------
        .byte   W10
        .byte                   Bn3
        .byte   W12
        .byte           N84   , An3
        .byte   W72
        .byte   W02
@ 008   ----------------------------------------
        .byte   W22
        .byte           TIE   , Bn3
        .byte   W72
        .byte   W02
@ 009   ----------------------------------------
        .byte   W56
        .byte   W01
        .byte           EOT
        .byte   W13
        .byte           N23   , En4
        .byte   W24
        .byte                   An3
        .byte   W02
@ 010   ----------------------------------------
        .byte   W22
        .byte           N68   , Fn4
        .byte   W72
        .byte           N11   , En4
        .byte   W02
@ 011   ----------------------------------------
        .byte   W10
        .byte                   Fn4
        .byte   W12
        .byte           N92   , En4
        .byte   W72
        .byte   W02
@ 012   ----------------------------------------
        .byte   W22
        .byte                   En3
        .byte   W72
        .byte   W02
@ 013   ----------------------------------------
        .byte   W22
        .byte           N44   , Bn3
        .byte   W44
        .byte   W03
        .byte           BEND  , c_v-64
        .byte   W01
        .byte           N44   , En4
        .byte   W02
        .byte           BEND  , c_v-50
        .byte   W02
        .byte                   c_v-39
        .byte   W02
        .byte                   c_v-31
        .byte   W02
        .byte                   c_v-24
        .byte   W02
        .byte                   c_v-19
        .byte   W02
        .byte                   c_v-15
        .byte   W02
        .byte                   c_v-12
        .byte   W02
        .byte                   c_v-9
        .byte   W02
        .byte                   c_v-7
        .byte   W02
        .byte                   c_v-6
        .byte   W02
        .byte                   c_v-4
        .byte   W02
        .byte                   c_v-3
        .byte   W02
@ 014   ----------------------------------------
        .byte   W02
        .byte                   c_v-2
        .byte   W02
        .byte                   c_v-1
        .byte   W06
        .byte                   c_v+0
        .byte   W12
        .byte           N68   , Dn4
        .byte   W72
        .byte           N11   , Bn3
        .byte   W02
@ 015   ----------------------------------------
        .byte   W10
        .byte                   An3
        .byte   W12
        .byte           N92   , Fn3
        .byte   W72
        .byte   W02
@ 016   ----------------------------------------
        .byte   W22
        .byte           N68   , En3
        .byte   W72
        .byte           N11   , An3
        .byte   W02
@ 017   ----------------------------------------
        .byte   W10
        .byte                   Bn3
        .byte   W12
        .byte           N23   , Dn4
        .byte   W24
        .byte                   Bn3
        .byte   W24
        .byte                   An3
        .byte   W24
        .byte                   Bn3
        .byte   W02
@ 018   ----------------------------------------
        .byte   W22
        .byte           BEND  , c_v-64
        .byte           N92   , Fn4
        .byte   W02
        .byte           BEND  , c_v-56
        .byte   W02
        .byte                   c_v-50
        .byte   W02
        .byte                   c_v-44
        .byte   W02
        .byte                   c_v-39
        .byte   W02
        .byte                   c_v-35
        .byte   W02
        .byte                   c_v-31
        .byte   W02
        .byte                   c_v-28
        .byte   W02
        .byte                   c_v-25
        .byte   W02
        .byte                   c_v-22
        .byte   W02
        .byte                   c_v-19
        .byte   W02
        .byte                   c_v-17
        .byte   W02
        .byte                   c_v-15
        .byte   W02
        .byte                   c_v-14
        .byte   W02
        .byte                   c_v-12
        .byte   W02
        .byte                   c_v-11
        .byte   W02
        .byte                   c_v-9
        .byte   W02
        .byte                   c_v-8
        .byte   W02
        .byte                   c_v-7
        .byte   W04
        .byte                   c_v-6
        .byte   W02
        .byte                   c_v-5
        .byte   W02
        .byte                   c_v-4
        .byte   W04
        .byte                   c_v-3
        .byte   W06
        .byte                   c_v-2
        .byte   W06
        .byte                   c_v-1
        .byte   W12
        .byte                   c_v+0
        .byte   W02
@ 019   ----------------------------------------
        .byte   W22
        .byte           N92   , En4
        .byte   W72
        .byte   W02
@ 020   ----------------------------------------
        .byte   W96
@ 021   ----------------------------------------
        .byte   W96
@ 022   ----------------------------------------
        .byte   W96
@ 023   ----------------------------------------
        .byte   W96
@ 024   ----------------------------------------
        .byte   W96
@ 025   ----------------------------------------
        .byte   W96
@ 026   ----------------------------------------
        .byte   W96
@ 027   ----------------------------------------
        .byte   W96
@ 028   ----------------------------------------
mus_gs2_007_izumo_under_the_serpent_4_28:
        .byte   W22
        .byte           BEND  , c_v-64
        .byte           TIE   , Bn3 , v088
        .byte           TIE   , En4
        .byte   W02
        .byte           BEND  , c_v-56
        .byte   W02
        .byte                   c_v-50
        .byte   W02
        .byte                   c_v-44
        .byte   W02
        .byte                   c_v-39
        .byte   W02
        .byte                   c_v-35
        .byte   W02
        .byte                   c_v-31
        .byte   W02
        .byte                   c_v-28
        .byte   W02
        .byte                   c_v-25
        .byte   W02
        .byte                   c_v-22
        .byte   W02
        .byte                   c_v-19
        .byte   W02
        .byte                   c_v-17
        .byte   W02
        .byte                   c_v-15
        .byte   W02
        .byte                   c_v-14
        .byte   W02
        .byte                   c_v-12
        .byte   W02
        .byte                   c_v-11
        .byte   W02
        .byte                   c_v-9
        .byte   W02
        .byte                   c_v-8
        .byte   W02
        .byte                   c_v-7
        .byte   W04
        .byte                   c_v-6
        .byte   W02
        .byte                   c_v-5
        .byte   W02
        .byte                   c_v-4
        .byte   W04
        .byte                   c_v-3
        .byte   W06
        .byte                   c_v-2
        .byte   W06
        .byte                   c_v-1
        .byte   W12
        .byte                   c_v+0
        .byte   W02
        .byte   PEND
@ 029   ----------------------------------------
        .byte   W96
@ 030   ----------------------------------------
mus_gs2_007_izumo_under_the_serpent_4_30:
        .byte   W20
        .byte           EOT   , Bn3
        .byte                   En4
        .byte   W02
        .byte           BEND  , c_v-64
        .byte           N92   , Bn3 , v088
        .byte           N92   , En4
        .byte   W02
        .byte           BEND  , c_v-56
        .byte   W02
        .byte                   c_v-50
        .byte   W02
        .byte                   c_v-44
        .byte   W02
        .byte                   c_v-39
        .byte   W02
        .byte                   c_v-35
        .byte   W02
        .byte                   c_v-31
        .byte   W02
        .byte                   c_v-28
        .byte   W02
        .byte                   c_v-25
        .byte   W02
        .byte                   c_v-22
        .byte   W02
        .byte                   c_v-19
        .byte   W02
        .byte                   c_v-17
        .byte   W02
        .byte                   c_v-15
        .byte   W02
        .byte                   c_v-14
        .byte   W02
        .byte                   c_v-12
        .byte   W02
        .byte                   c_v-11
        .byte   W02
        .byte                   c_v-9
        .byte   W02
        .byte                   c_v-8
        .byte   W02
        .byte                   c_v-7
        .byte   W04
        .byte                   c_v-6
        .byte   W02
        .byte                   c_v-5
        .byte   W02
        .byte                   c_v-4
        .byte   W04
        .byte                   c_v-3
        .byte   W06
        .byte                   c_v-2
        .byte   W06
        .byte                   c_v-1
        .byte   W12
        .byte                   c_v+0
        .byte   W02
        .byte   PEND
@ 031   ----------------------------------------
        .byte   W22
        .byte           N92   , Bn3
        .byte           N92   , Dn4
        .byte   W72
        .byte   W02
@ 032   ----------------------------------------
        .byte   PATT
         .word  mus_gs2_007_izumo_under_the_serpent_4_28
@ 033   ----------------------------------------
        .byte   W96
@ 034   ----------------------------------------
        .byte   PATT
         .word  mus_gs2_007_izumo_under_the_serpent_4_30
@ 035   ----------------------------------------
        .byte   W22
        .byte           N72   , Bn3 , v088
        .byte           N72   , Dn4
        .byte   W72
        .byte   W02
@ 036   ----------------------------------------
        .byte   GOTO
         .word  mus_gs2_007_izumo_under_the_serpent_4_LOOP
        .byte   FINE


@********************** End of Song ***********************@

        .align  2
mus_gs2_007_izumo_under_the_serpent:
        .byte   5                       @ Num Tracks
        .byte   0                       @ Unknown
        .byte   mus_gs2_007_izumo_under_the_serpent_pri @ Priority
        .byte   mus_gs2_007_izumo_under_the_serpent_rev @ Reverb

        .word   mus_gs2_007_izumo_under_the_serpent_grp

        .word   mus_gs2_007_izumo_under_the_serpent_0
        .word   mus_gs2_007_izumo_under_the_serpent_1
        .word   mus_gs2_007_izumo_under_the_serpent_2
        .word   mus_gs2_007_izumo_under_the_serpent_3
        .word   mus_gs2_007_izumo_under_the_serpent_4

        .end
