	.include "MPlayDef.s"

	.equ	mus_thpprf_darkpegasus_grp, voicegroup210
	.equ	mus_thpprf_darkpegasus_pri, 0
	.equ	mus_thpprf_darkpegasus_rev, 0
	.equ	mus_thpprf_darkpegasus_mvl, 92
	.equ	mus_thpprf_darkpegasus_key, 0
	.equ	mus_thpprf_darkpegasus_tbs, 1
	.equ	mus_thpprf_darkpegasus_exg, 0
	.equ	mus_thpprf_darkpegasus_cmp, 1

	.section .rodata
	.global	mus_thpprf_darkpegasus
	.align	2

@**************** Track 1 (Midi-Chn.1) ****************@

mus_thpprf_darkpegasus_1:
	.byte	KEYSH , mus_thpprf_darkpegasus_key+0
@ 000   ----------------------------------------
	.byte	TEMPO , 500*mus_thpprf_darkpegasus_tbs/2
	.byte		VOICE , 58
	.byte		PAN   , c_v+0
	.byte		VOL   , 82*mus_thpprf_darkpegasus_mvl/mxv
	.byte		BEND  , c_v+0
@ 001   ----------------------------------------
	.byte	TEMPO , 338*mus_thpprf_darkpegasus_tbs/2
	.byte		N18   , An3 , v124
	.byte	W24
	.byte		        Gs3 
	.byte	W24
	.byte		        En3 
	.byte	W24
	.byte		        An3 
	.byte	W24
@ 002   ----------------------------------------
mus_thpprf_darkpegasus_1_002:
	.byte		N18   , Gs3 , v124
	.byte	W24
	.byte		        En3 
	.byte	W24
	.byte		        Cs3 
	.byte	W24
	.byte		        En3 
	.byte	W24
	.byte	PEND
@ 003   ----------------------------------------
mus_thpprf_darkpegasus_1_003:
	.byte		N18   , An3 , v124
	.byte	W24
	.byte		        Gs3 
	.byte	W24
	.byte		        En3 
	.byte	W24
	.byte		        An3 
	.byte	W24
	.byte	PEND
@ 004   ----------------------------------------
mus_thpprf_darkpegasus_1_004:
	.byte		N18   , Gs3 , v124
	.byte	W24
	.byte		N60   , Cs3 
	.byte	W72
	.byte	PEND
@ 005   ----------------------------------------
	.byte	PATT
	 .word	mus_thpprf_darkpegasus_1_003
@ 006   ----------------------------------------
	.byte	PATT
	 .word	mus_thpprf_darkpegasus_1_002
@ 007   ----------------------------------------
mus_thpprf_darkpegasus_1_007:
	.byte		N18   , An3 , v124
	.byte	W24
	.byte		        Gs3 
	.byte	W24
	.byte		        En3 
	.byte	W24
	.byte		        Bn3 
	.byte	W24
	.byte	PEND
@ 008   ----------------------------------------
mus_thpprf_darkpegasus_1_008:
	.byte		N18   , An3 , v124
	.byte	W24
	.byte		N48   , Gs3 
	.byte	W48
	.byte		N12   , Fs3 
	.byte	W12
	.byte		        Gs3 
	.byte	W12
	.byte	PEND
@ 009   ----------------------------------------
	.byte	PATT
	 .word	mus_thpprf_darkpegasus_1_003
@ 010   ----------------------------------------
	.byte	PATT
	 .word	mus_thpprf_darkpegasus_1_002
@ 011   ----------------------------------------
	.byte	PATT
	 .word	mus_thpprf_darkpegasus_1_003
@ 012   ----------------------------------------
	.byte	PATT
	 .word	mus_thpprf_darkpegasus_1_004
@ 013   ----------------------------------------
	.byte	PATT
	 .word	mus_thpprf_darkpegasus_1_003
@ 014   ----------------------------------------
	.byte	PATT
	 .word	mus_thpprf_darkpegasus_1_002
@ 015   ----------------------------------------
	.byte	PATT
	 .word	mus_thpprf_darkpegasus_1_007
@ 016   ----------------------------------------
	.byte	PATT
	 .word	mus_thpprf_darkpegasus_1_008
@ 017   ----------------------------------------
mus_thpprf_darkpegasus_1_017:
	.byte		N18   , Cs3 , v112
	.byte		N18   , An3 , v124
	.byte	W24
	.byte		        Bn2 , v112
	.byte		N18   , Gs3 , v124
	.byte	W24
	.byte		        Gs2 , v112
	.byte		N18   , En3 , v124
	.byte	W24
	.byte		        Cs3 , v112
	.byte		N18   , An3 , v124
	.byte	W24
	.byte	PEND
@ 018   ----------------------------------------
mus_thpprf_darkpegasus_1_018:
	.byte		N18   , Bn2 , v112
	.byte		N18   , Gs3 , v124
	.byte	W24
	.byte		        Gs2 , v112
	.byte		N18   , En3 , v124
	.byte	W24
	.byte		        Fs2 , v112
	.byte		N18   , Cs3 , v124
	.byte	W24
	.byte		        Gs2 , v112
	.byte		N18   , En3 , v124
	.byte	W24
	.byte	PEND
@ 019   ----------------------------------------
	.byte	PATT
	 .word	mus_thpprf_darkpegasus_1_017
@ 020   ----------------------------------------
mus_thpprf_darkpegasus_1_020:
	.byte		N18   , Bn2 , v112
	.byte		N18   , Gs3 , v124
	.byte	W24
	.byte		N60   , Fs2 , v112
	.byte		N60   , Cs3 , v124
	.byte	W72
	.byte	PEND
@ 021   ----------------------------------------
	.byte	PATT
	 .word	mus_thpprf_darkpegasus_1_017
@ 022   ----------------------------------------
	.byte	PATT
	 .word	mus_thpprf_darkpegasus_1_018
@ 023   ----------------------------------------
	.byte		N18   , Cs3 , v112
	.byte		N18   , An3 , v124
	.byte	W24
	.byte		        Bn2 , v112
	.byte		N18   , Gs3 , v124
	.byte	W24
	.byte		        Gs2 , v112
	.byte		N18   , En3 , v124
	.byte	W24
	.byte		        Gs3 , v112
	.byte		N18   , Bn3 , v124
	.byte	W24
@ 024   ----------------------------------------
	.byte		        Fs3 , v112
	.byte		N18   , An3 , v124
	.byte	W24
	.byte		N48   , En3 , v112
	.byte		N48   , Gs3 , v124
	.byte	W48
	.byte		N12   , Fs3 , v112
	.byte	W12
	.byte		        Gs3 
	.byte	W12
@ 025   ----------------------------------------
	.byte	PATT
	 .word	mus_thpprf_darkpegasus_1_017
@ 026   ----------------------------------------
	.byte	PATT
	 .word	mus_thpprf_darkpegasus_1_018
@ 027   ----------------------------------------
	.byte	PATT
	 .word	mus_thpprf_darkpegasus_1_017
@ 028   ----------------------------------------
	.byte	PATT
	 .word	mus_thpprf_darkpegasus_1_020
@ 029   ----------------------------------------
	.byte	PATT
	 .word	mus_thpprf_darkpegasus_1_017
@ 030   ----------------------------------------
	.byte	PATT
	 .word	mus_thpprf_darkpegasus_1_018
@ 031   ----------------------------------------
	.byte		N18   , Cs3 , v112
	.byte		N18   , An3 , v124
	.byte	W24
	.byte		        Bn2 , v112
	.byte		N18   , Gs3 , v124
	.byte	W24
	.byte		        An3 , v112
	.byte		N18   , Cs4 , v124
	.byte	W24
	.byte		        Gs3 , v112
	.byte		N18   , Bn3 , v124
	.byte	W24
@ 032   ----------------------------------------
	.byte		        Fs3 , v112
	.byte		N18   , An3 , v124
	.byte	W24
	.byte		N60   , En3 , v112
	.byte		N60   , Gs3 , v124
	.byte	W72
@ 033   ----------------------------------------
mus_thpprf_darkpegasus_1_033:
	.byte	W96
@ 034   ----------------------------------------
	.byte	W96
@ 035   ----------------------------------------
	.byte	W96
@ 036   ----------------------------------------
	.byte	W96
@ 037   ----------------------------------------
	.byte	W96
@ 038   ----------------------------------------
	.byte	W96
@ 039   ----------------------------------------
	.byte	W96
@ 040   ----------------------------------------
	.byte	W96
@ 041   ----------------------------------------
	.byte	W96
@ 042   ----------------------------------------
	.byte	W96
@ 043   ----------------------------------------
	.byte	W96
@ 044   ----------------------------------------
	.byte	W96
@ 045   ----------------------------------------
	.byte	W96
@ 046   ----------------------------------------
	.byte	W96
@ 047   ----------------------------------------
	.byte	W96
@ 048   ----------------------------------------
	.byte	W96
@ 049   ----------------------------------------
	.byte	W96
@ 050   ----------------------------------------
	.byte	W96
@ 051   ----------------------------------------
	.byte	W96
@ 052   ----------------------------------------
	.byte	W96
@ 053   ----------------------------------------
	.byte	W96
@ 054   ----------------------------------------
	.byte	W96
@ 055   ----------------------------------------
	.byte	W96
@ 056   ----------------------------------------
	.byte	W96
@ 057   ----------------------------------------
	.byte	W96
@ 058   ----------------------------------------
	.byte	W96
@ 059   ----------------------------------------
	.byte	W96
@ 060   ----------------------------------------
	.byte	W96
@ 061   ----------------------------------------
	.byte	W96
@ 062   ----------------------------------------
	.byte	W96
@ 063   ----------------------------------------
	.byte	W96
@ 064   ----------------------------------------
	.byte	W96
@ 065   ----------------------------------------
	.byte	W96
@ 066   ----------------------------------------
	.byte	W96
@ 067   ----------------------------------------
	.byte	W96
@ 068   ----------------------------------------
	.byte	W96
@ 069   ----------------------------------------
	.byte	W96
@ 070   ----------------------------------------
	.byte	W96
@ 071   ----------------------------------------
	.byte	W96
@ 072   ----------------------------------------
	.byte	W96
@ 073   ----------------------------------------
	.byte	W96
@ 074   ----------------------------------------
	.byte	W96
@ 075   ----------------------------------------
	.byte	W96
@ 076   ----------------------------------------
	.byte	W96
@ 077   ----------------------------------------
	.byte	W96
@ 078   ----------------------------------------
	.byte	W96
@ 079   ----------------------------------------
	.byte	W96
@ 080   ----------------------------------------
	.byte	W96
@ 081   ----------------------------------------
	.byte	W96
@ 082   ----------------------------------------
	.byte	W96
@ 083   ----------------------------------------
	.byte	W96
@ 084   ----------------------------------------
	.byte	W96
@ 085   ----------------------------------------
	.byte	W96
@ 086   ----------------------------------------
	.byte	W96
@ 087   ----------------------------------------
	.byte	W96
@ 088   ----------------------------------------
	.byte	W96
@ 089   ----------------------------------------
	.byte	W96
@ 090   ----------------------------------------
	.byte	W96
@ 091   ----------------------------------------
	.byte	W96
@ 092   ----------------------------------------
	.byte	W96
@ 093   ----------------------------------------
	.byte	W96
@ 094   ----------------------------------------
	.byte	W96
@ 095   ----------------------------------------
	.byte	W96
@ 096   ----------------------------------------
	.byte	W96
@ 097   ----------------------------------------
	.byte		VOICE , 58
	.byte		VOL   , 82*mus_thpprf_darkpegasus_mvl/mxv
	.byte		N72   , Cs3 , v112
	.byte		N60   , Cs4 , v124
	.byte	W78
	.byte		N06   , As3 
	.byte	W06
	.byte		        Bn3 
	.byte	W06
	.byte		        Cn4 
	.byte	W06
@ 098   ----------------------------------------
mus_thpprf_darkpegasus_1_098:
	.byte		N30   , Cs3 , v112
	.byte		N36   , Cs4 , v124
	.byte	W36
	.byte		N30   , Cs3 , v112
	.byte		N36   , An3 , v124
	.byte	W36
	.byte		N24   , Cs3 , v112
	.byte		N24   , Cs4 , v124
	.byte	W24
	.byte	PEND
@ 099   ----------------------------------------
mus_thpprf_darkpegasus_1_099:
	.byte		N72   , Cn3 , v112
	.byte		N60   , Cn4 , v124
	.byte	W78
	.byte		N06   , An3 
	.byte	W06
	.byte		        As3 
	.byte	W06
	.byte		        Bn3 
	.byte	W06
	.byte	PEND
@ 100   ----------------------------------------
mus_thpprf_darkpegasus_1_100:
	.byte		N30   , Cn3 , v112
	.byte		N36   , Cn4 , v124
	.byte	W36
	.byte		N30   , Cn3 , v112
	.byte		N36   , An3 , v124
	.byte	W36
	.byte		N24   , Cn3 , v112
	.byte		N24   , Cn4 , v124
	.byte	W24
	.byte	PEND
@ 101   ----------------------------------------
mus_thpprf_darkpegasus_1_101:
	.byte		N72   , Bn2 , v112
	.byte		N60   , Bn3 , v124
	.byte	W78
	.byte		N06   , Gs3 
	.byte	W06
	.byte		        An3 
	.byte	W06
	.byte		        As3 
	.byte	W06
	.byte	PEND
@ 102   ----------------------------------------
mus_thpprf_darkpegasus_1_102:
	.byte		N30   , Bn2 , v112
	.byte		N36   , Bn3 , v124
	.byte	W36
	.byte		N30   , Bn2 , v112
	.byte		N36   , Gn3 , v124
	.byte	W36
	.byte		N24   , Bn2 , v112
	.byte		N24   , Bn3 , v124
	.byte	W24
	.byte	PEND
@ 103   ----------------------------------------
mus_thpprf_darkpegasus_1_103:
	.byte		N30   , As2 , v112
	.byte		N24   , As3 , v124
	.byte	W36
	.byte		N30   , As2 , v112
	.byte		N24   , Fs3 , v124
	.byte	W36
	.byte		        As2 , v112
	.byte		N18   , As3 , v124
	.byte	W24
	.byte	PEND
@ 104   ----------------------------------------
mus_thpprf_darkpegasus_1_104:
	.byte		N30   , An2 , v112
	.byte		N24   , An3 , v124
	.byte	W36
	.byte		N30   , An2 , v112
	.byte		N24   , Fn3 , v124
	.byte	W36
	.byte		        An2 , v112
	.byte		N18   , An3 , v124
	.byte	W24
	.byte	PEND
@ 105   ----------------------------------------
mus_thpprf_darkpegasus_1_105:
	.byte		N72   , As2 , v112
	.byte		N72   , As3 , v124
	.byte	W96
	.byte	PEND
@ 106   ----------------------------------------
mus_thpprf_darkpegasus_1_106:
	.byte		N30   , Cs3 , v112
	.byte		N36   , As3 , v124
	.byte	W36
	.byte		N30   , Cs3 , v112
	.byte		N36   , Cs4 , v124
	.byte	W36
	.byte		N24   , Cs3 , v112
	.byte		N24   , En4 , v124
	.byte	W24
	.byte	PEND
@ 107   ----------------------------------------
	.byte		N90   , Fn3 , v112
	.byte		N60   , Fn4 , v124
	.byte	W60
	.byte		N06   , En4 
	.byte	W06
	.byte		        Ds4 
	.byte	W30
@ 108   ----------------------------------------
mus_thpprf_darkpegasus_1_108:
	.byte		N42   , Fn3 , v112
	.byte		N48   , Cn4 , v124
	.byte	W48
	.byte		N42   , Fn3 , v112
	.byte		N48   , Fn4 , v124
	.byte	W48
	.byte	PEND
@ 109   ----------------------------------------
	.byte		N90   , En3 , v112
	.byte		N72   , En4 , v124
	.byte	W96
@ 110   ----------------------------------------
	.byte		N42   , En3 , v112
	.byte		N48   , Cn4 , v124
	.byte	W48
	.byte		N42   , En3 , v112
	.byte		N48   , En4 , v124
	.byte	W48
@ 111   ----------------------------------------
	.byte		N36   , Fn3 , v112
	.byte		N36   , Fn4 , v124
	.byte	W36
	.byte		        Cn3 , v112
	.byte		N36   , Cn4 , v124
	.byte	W36
	.byte		N24   , As2 , v112
	.byte		N24   , As3 , v124
	.byte	W24
@ 112   ----------------------------------------
	.byte		N48   , An2 , v112
	.byte		N96   , An3 , v124
	.byte	W48
	.byte		N48   , Cn3 , v112
	.byte	W48
@ 113   ----------------------------------------
	.byte		N72   , Cs3 
	.byte		N60   , Cs4 , v124
	.byte	W78
	.byte		N06   , As3 
	.byte	W06
	.byte		        Bn3 
	.byte	W06
	.byte		        Cn4 
	.byte	W06
@ 114   ----------------------------------------
	.byte	PATT
	 .word	mus_thpprf_darkpegasus_1_098
@ 115   ----------------------------------------
	.byte	PATT
	 .word	mus_thpprf_darkpegasus_1_099
@ 116   ----------------------------------------
	.byte	PATT
	 .word	mus_thpprf_darkpegasus_1_100
@ 117   ----------------------------------------
	.byte	PATT
	 .word	mus_thpprf_darkpegasus_1_101
@ 118   ----------------------------------------
	.byte	PATT
	 .word	mus_thpprf_darkpegasus_1_102
@ 119   ----------------------------------------
	.byte	PATT
	 .word	mus_thpprf_darkpegasus_1_103
@ 120   ----------------------------------------
	.byte	PATT
	 .word	mus_thpprf_darkpegasus_1_104
@ 121   ----------------------------------------
	.byte	PATT
	 .word	mus_thpprf_darkpegasus_1_105
@ 122   ----------------------------------------
	.byte	PATT
	 .word	mus_thpprf_darkpegasus_1_106
@ 123   ----------------------------------------
	.byte		N90   , Fn3 , v112
	.byte		N60   , Fn4 , v124
	.byte	W96
@ 124   ----------------------------------------
	.byte	PATT
	 .word	mus_thpprf_darkpegasus_1_108
@ 125   ----------------------------------------
	.byte		N30   , En3 , v112
	.byte		N30   , En4 , v124
	.byte	W36
	.byte		        En3 , v112
	.byte		N30   , Cn4 , v124
	.byte	W36
	.byte		N24   , En3 , v112
	.byte		N24   , En4 , v124
	.byte	W24
@ 126   ----------------------------------------
	.byte		N30   , Gn3 , v112
	.byte		N30   , Fn4 , v124
	.byte	W36
	.byte		        Gn3 , v112
	.byte		N30   , Gn4 , v124
	.byte	W36
	.byte		N24   , Gn3 , v112
	.byte		N24   , As4 , v124
	.byte	W24
@ 127   ----------------------------------------
	.byte		        An3 , v112
	.byte		N24   , An4 , v124
	.byte	W24
	.byte		        Fn3 , v112
	.byte		N24   , Fn4 , v124
	.byte	W24
	.byte		        Cn3 , v112
	.byte		N24   , Cn4 , v124
	.byte	W24
	.byte		        En3 , v112
	.byte		N24   , En4 , v124
	.byte	W24
@ 128   ----------------------------------------
	.byte		        Fn3 , v112
	.byte		N24   , Fn4 , v124
	.byte	W36
	.byte		        Gs3 , v112
	.byte		N24   , Gs4 , v124
	.byte	W36
	.byte		        Cs4 , v112
	.byte		N24   , Cs5 , v124
	.byte	W24
@ 129   ----------------------------------------
mus_thpprf_darkpegasus_1_129:
	.byte		N18   , En3 , v112
	.byte		N18   , Cn4 , v124
	.byte	W24
	.byte		        Dn3 , v112
	.byte		N18   , Bn3 , v124
	.byte	W24
	.byte		        Bn2 , v112
	.byte		N18   , Gn3 , v124
	.byte	W24
	.byte		        En3 , v112
	.byte		N18   , Cn4 , v124
	.byte	W24
	.byte	PEND
@ 130   ----------------------------------------
mus_thpprf_darkpegasus_1_130:
	.byte		N18   , Dn3 , v112
	.byte		N18   , Bn3 , v124
	.byte	W24
	.byte		        Bn2 , v112
	.byte		N18   , Gn3 , v124
	.byte	W24
	.byte		        An2 , v112
	.byte		N18   , En3 , v124
	.byte	W24
	.byte		        Bn2 , v112
	.byte		N18   , Gn3 , v124
	.byte	W24
	.byte	PEND
@ 131   ----------------------------------------
	.byte	PATT
	 .word	mus_thpprf_darkpegasus_1_129
@ 132   ----------------------------------------
mus_thpprf_darkpegasus_1_132:
	.byte		N18   , Dn3 , v112
	.byte		N18   , Bn3 , v124
	.byte	W24
	.byte		N60   , An2 , v112
	.byte		N60   , En3 , v124
	.byte	W72
	.byte	PEND
@ 133   ----------------------------------------
	.byte	PATT
	 .word	mus_thpprf_darkpegasus_1_129
@ 134   ----------------------------------------
	.byte	PATT
	 .word	mus_thpprf_darkpegasus_1_130
@ 135   ----------------------------------------
mus_thpprf_darkpegasus_1_135:
	.byte		N18   , En3 , v112
	.byte		N18   , Cn4 , v124
	.byte	W24
	.byte		        Dn3 , v112
	.byte		N18   , Bn3 , v124
	.byte	W24
	.byte		        Bn2 , v112
	.byte		N18   , Gn3 , v124
	.byte	W24
	.byte		        Bn3 , v112
	.byte		N18   , Dn4 , v124
	.byte	W24
	.byte	PEND
@ 136   ----------------------------------------
	.byte		        An3 , v112
	.byte		N18   , Cn4 , v124
	.byte	W24
	.byte		N48   , Gn3 , v112
	.byte		N48   , Bn3 , v124
	.byte	W48
	.byte		N12   , An3 
	.byte	W12
	.byte		        Bn3 
	.byte	W12
@ 137   ----------------------------------------
	.byte	PATT
	 .word	mus_thpprf_darkpegasus_1_129
@ 138   ----------------------------------------
	.byte	PATT
	 .word	mus_thpprf_darkpegasus_1_130
@ 139   ----------------------------------------
	.byte	PATT
	 .word	mus_thpprf_darkpegasus_1_129
@ 140   ----------------------------------------
	.byte	PATT
	 .word	mus_thpprf_darkpegasus_1_132
@ 141   ----------------------------------------
	.byte	PATT
	 .word	mus_thpprf_darkpegasus_1_129
@ 142   ----------------------------------------
	.byte	PATT
	 .word	mus_thpprf_darkpegasus_1_130
@ 143   ----------------------------------------
	.byte	PATT
	 .word	mus_thpprf_darkpegasus_1_135
@ 144   ----------------------------------------
	.byte		N18   , An3 , v112
	.byte		N18   , Cn4 , v124
	.byte	W24
	.byte		N48   , Gn3 , v112
	.byte		N48   , Bn3 , v124
	.byte	W48
	.byte		N12   , An3 , v112
	.byte		N12   , Cn4 , v124
	.byte	W12
	.byte		        Bn3 , v112
	.byte		N12   , Dn4 , v124
	.byte	W12
@ 145   ----------------------------------------
mus_thpprf_darkpegasus_1_145:
	.byte		N18   , Cn4 , v112
	.byte		N18   , En4 , v124
	.byte	W24
	.byte		        Bn3 , v112
	.byte		N18   , Dn4 , v124
	.byte	W24
	.byte		        Gn3 , v112
	.byte		N18   , Bn3 , v124
	.byte	W24
	.byte		        Cn4 , v112
	.byte		N18   , En4 , v124
	.byte	W24
	.byte	PEND
@ 146   ----------------------------------------
mus_thpprf_darkpegasus_1_146:
	.byte		N18   , Bn3 , v112
	.byte		N18   , Dn4 , v124
	.byte	W24
	.byte		        Gn3 , v112
	.byte		N18   , Bn3 , v124
	.byte	W24
	.byte		        Cn4 , v112
	.byte		N18   , En4 , v124
	.byte	W24
	.byte		        Dn4 , v112
	.byte		N18   , Gn4 , v124
	.byte	W24
	.byte	PEND
@ 147   ----------------------------------------
	.byte	PATT
	 .word	mus_thpprf_darkpegasus_1_145
@ 148   ----------------------------------------
	.byte		N18   , Bn3 , v112
	.byte		N18   , Dn4 , v124
	.byte	W24
	.byte		N60   , En4 , v112
	.byte		N60   , An4 , v124
	.byte	W72
@ 149   ----------------------------------------
	.byte	PATT
	 .word	mus_thpprf_darkpegasus_1_145
@ 150   ----------------------------------------
	.byte	PATT
	 .word	mus_thpprf_darkpegasus_1_146
@ 151   ----------------------------------------
	.byte		N18   , Cn4 , v112
	.byte		N18   , En4 , v124
	.byte	W24
	.byte		        Bn3 , v112
	.byte		N18   , Dn4 , v124
	.byte	W24
	.byte		        Dn4 , v112
	.byte		N18   , Gn4 , v124
	.byte	W24
	.byte		        Gn4 , v112
	.byte		N18   , Bn4 , v124
	.byte	W24
@ 152   ----------------------------------------
	.byte		        An4 , v112
	.byte		N18   , Cn5 , v124
	.byte	W24
	.byte		        Gn4 , v112
	.byte		N18   , Bn4 , v124
	.byte	W24
	.byte		        Dn4 , v112
	.byte		N18   , Gn4 , v124
	.byte	W24
	.byte		        En4 , v112
	.byte		N18   , An4 , v124
	.byte	W24
@ 153   ----------------------------------------
mus_thpprf_darkpegasus_1_153:
	.byte		N18   , En4 , v112
	.byte		N18   , An4 , v124
	.byte	W24
	.byte		        Dn4 , v112
	.byte		N18   , Gn4 , v124
	.byte	W24
	.byte		        Bn3 , v112
	.byte		N18   , En4 , v124
	.byte	W24
	.byte		        En4 , v112
	.byte		N18   , An4 , v124
	.byte	W24
	.byte	PEND
@ 154   ----------------------------------------
mus_thpprf_darkpegasus_1_154:
	.byte		N18   , Dn4 , v112
	.byte		N18   , Gn4 , v124
	.byte	W24
	.byte		        Bn3 , v112
	.byte		N18   , En4 , v124
	.byte	W24
	.byte		        An3 , v112
	.byte		N18   , Cn4 , v124
	.byte	W24
	.byte		        Bn3 , v112
	.byte		N18   , Dn4 , v124
	.byte	W24
	.byte	PEND
@ 155   ----------------------------------------
mus_thpprf_darkpegasus_1_155:
	.byte		N18   , En4 , v112
	.byte		N18   , An4 , v124
	.byte	W24
	.byte		        Dn4 , v112
	.byte		N18   , Gn4 , v124
	.byte	W24
	.byte		        Gn4 , v112
	.byte		N18   , Bn4 , v124
	.byte	W24
	.byte		        An4 , v112
	.byte		N18   , Cn5 , v124
	.byte	W24
	.byte	PEND
@ 156   ----------------------------------------
	.byte		        Gn4 , v112
	.byte		N18   , Bn4 , v124
	.byte	W24
	.byte		        Dn4 , v112
	.byte		N18   , Gn4 , v124
	.byte	W24
	.byte		        En4 , v112
	.byte		N18   , An4 , v124
	.byte	W24
	.byte		        Gn4 , v112
	.byte		N18   , Bn4 , v124
	.byte	W24
@ 157   ----------------------------------------
	.byte	PATT
	 .word	mus_thpprf_darkpegasus_1_153
@ 158   ----------------------------------------
	.byte	PATT
	 .word	mus_thpprf_darkpegasus_1_154
@ 159   ----------------------------------------
	.byte	PATT
	 .word	mus_thpprf_darkpegasus_1_155
@ 160   ----------------------------------------
	.byte		N18   , Gn4 , v112
	.byte		N18   , Bn4 , v124
	.byte	W24
	.byte		        Dn4 , v112
	.byte		N18   , Gn4 , v124
	.byte	W24
	.byte		        En4 , v112
	.byte		N18   , An4 , v124
	.byte	W24
	.byte		        Bn3 , v112
	.byte		N18   , Dn4 , v124
	.byte	W24
@ 161   ----------------------------------------
	.byte	W96
@ 162   ----------------------------------------
	.byte	W96
@ 163   ----------------------------------------
	.byte	W96
@ 164   ----------------------------------------
	.byte	W96
@ 165   ----------------------------------------
	.byte	W96
@ 166   ----------------------------------------
	.byte	W96
@ 167   ----------------------------------------
	.byte	W96
@ 168   ----------------------------------------
	.byte	W96
@ 169   ----------------------------------------
	.byte	W96
@ 170   ----------------------------------------
	.byte	W96
@ 171   ----------------------------------------
	.byte	W96
@ 172   ----------------------------------------
	.byte	W96
@ 173   ----------------------------------------
	.byte	W96
@ 174   ----------------------------------------
	.byte	W96
@ 175   ----------------------------------------
	.byte	W96
@ 176   ----------------------------------------
	.byte	W96
@ 177   ----------------------------------------
	.byte	W96
@ 178   ----------------------------------------
	.byte	W96
@ 179   ----------------------------------------
	.byte	W96
@ 180   ----------------------------------------
	.byte	W96
@ 181   ----------------------------------------
	.byte	W96
@ 182   ----------------------------------------
	.byte	W96
@ 183   ----------------------------------------
	.byte	W96
@ 184   ----------------------------------------
	.byte	W96
@ 185   ----------------------------------------
	.byte	W96
@ 186   ----------------------------------------
	.byte	W96
@ 187   ----------------------------------------
	.byte	W96
@ 188   ----------------------------------------
	.byte	W96
@ 189   ----------------------------------------
	.byte	W96
@ 190   ----------------------------------------
	.byte	W96
@ 191   ----------------------------------------
	.byte	W96
@ 192   ----------------------------------------
	.byte	W96
@ 193   ----------------------------------------
	.byte	W96
@ 194   ----------------------------------------
	.byte	W96
@ 195   ----------------------------------------
	.byte	W96
@ 196   ----------------------------------------
	.byte	W96
@ 197   ----------------------------------------
	.byte	W96
@ 198   ----------------------------------------
	.byte	W96
@ 199   ----------------------------------------
	.byte	W96
@ 200   ----------------------------------------
	.byte	W96
@ 201   ----------------------------------------
	.byte	W96
@ 202   ----------------------------------------
	.byte	W96
@ 203   ----------------------------------------
	.byte	W96
@ 204   ----------------------------------------
	.byte	W96
@ 205   ----------------------------------------
	.byte	W96
@ 206   ----------------------------------------
	.byte	W96
@ 207   ----------------------------------------
	.byte	W96
@ 208   ----------------------------------------
	.byte	W96
@ 209   ----------------------------------------
	.byte	W96
@ 210   ----------------------------------------
	.byte	W96
@ 211   ----------------------------------------
	.byte	W96
@ 212   ----------------------------------------
	.byte	W96
@ 213   ----------------------------------------
	.byte	W96
@ 214   ----------------------------------------
	.byte	W96
@ 215   ----------------------------------------
	.byte	W96
@ 216   ----------------------------------------
	.byte	W96
@ 217   ----------------------------------------
	.byte	W96
@ 218   ----------------------------------------
	.byte	W96
@ 219   ----------------------------------------
	.byte	W96
@ 220   ----------------------------------------
	.byte	W96
@ 221   ----------------------------------------
	.byte	W96
@ 222   ----------------------------------------
	.byte	W96
@ 223   ----------------------------------------
	.byte	W96
@ 224   ----------------------------------------
	.byte	W96
@ 225   ----------------------------------------
	.byte	W96
@ 226   ----------------------------------------
	.byte	W96
@ 227   ----------------------------------------
	.byte	W96
@ 228   ----------------------------------------
	.byte	W96
@ 229   ----------------------------------------
	.byte	W96
@ 230   ----------------------------------------
	.byte	W96
@ 231   ----------------------------------------
	.byte	W96
@ 232   ----------------------------------------
	.byte	W96
@ 233   ----------------------------------------
	.byte	W96
@ 234   ----------------------------------------
	.byte	W96
@ 235   ----------------------------------------
	.byte	W96
@ 236   ----------------------------------------
	.byte	W96
@ 237   ----------------------------------------
	.byte	W96
@ 238   ----------------------------------------
	.byte	W96
@ 239   ----------------------------------------
	.byte	W96
@ 240   ----------------------------------------
	.byte	W96
@ 241   ----------------------------------------
	.byte	W96
@ 242   ----------------------------------------
	.byte	W96
@ 243   ----------------------------------------
	.byte	W96
@ 244   ----------------------------------------
	.byte	W96
@ 245   ----------------------------------------
	.byte	W96
@ 246   ----------------------------------------
	.byte	W96
@ 247   ----------------------------------------
	.byte	W96
@ 248   ----------------------------------------
	.byte	W96
@ 249   ----------------------------------------
	.byte	W96
@ 250   ----------------------------------------
	.byte	W96
@ 251   ----------------------------------------
	.byte	W96
@ 252   ----------------------------------------
	.byte	W96
@ 253   ----------------------------------------
	.byte	W96
@ 254   ----------------------------------------
	.byte	W96
@ 255   ----------------------------------------
	.byte	W96
@ 256   ----------------------------------------
	.byte	W96
@ 257   ----------------------------------------
	.byte	W96
@ 258   ----------------------------------------
	.byte	W96
@ 259   ----------------------------------------
	.byte	W96
@ 260   ----------------------------------------
	.byte	W96
@ 261   ----------------------------------------
	.byte	W96
@ 262   ----------------------------------------
	.byte	W96
@ 263   ----------------------------------------
	.byte	W96
@ 264   ----------------------------------------
	.byte	W96
@ 265   ----------------------------------------
	.byte	W96
@ 266   ----------------------------------------
	.byte	W96
@ 267   ----------------------------------------
	.byte	W96
@ 268   ----------------------------------------
	.byte	W96
@ 269   ----------------------------------------
	.byte	W96
@ 270   ----------------------------------------
	.byte	W96
@ 271   ----------------------------------------
	.byte	W96
@ 272   ----------------------------------------
	.byte	W96
@ 273   ----------------------------------------
	.byte	W96
@ 274   ----------------------------------------
	.byte	W96
@ 275   ----------------------------------------
	.byte	W96
@ 276   ----------------------------------------
	.byte	W96
@ 277   ----------------------------------------
	.byte	W96
@ 278   ----------------------------------------
	.byte	W96
@ 279   ----------------------------------------
	.byte	W96
@ 280   ----------------------------------------
	.byte	W96
@ 281   ----------------------------------------
	.byte	W96
@ 282   ----------------------------------------
	.byte	W96
@ 283   ----------------------------------------
	.byte	W96
@ 284   ----------------------------------------
	.byte	W96
@ 285   ----------------------------------------
	.byte	W96
@ 286   ----------------------------------------
	.byte	W96
@ 287   ----------------------------------------
	.byte	W96
@ 288   ----------------------------------------
	.byte	W96
@ 289   ----------------------------------------
	.byte		VOL   , 79*mus_thpprf_darkpegasus_mvl/mxv
	.byte		N18   , Cs4 , v112
	.byte	W24
	.byte		        Cn4 
	.byte	W24
	.byte		        Gs3 
	.byte	W24
	.byte		        Cs4 
	.byte	W24
@ 290   ----------------------------------------
mus_thpprf_darkpegasus_1_290:
	.byte		N18   , Cn4 , v112
	.byte	W24
	.byte		        Gs3 
	.byte	W24
	.byte		        Fn3 
	.byte	W24
	.byte		        Gs3 
	.byte	W24
	.byte	PEND
@ 291   ----------------------------------------
mus_thpprf_darkpegasus_1_291:
	.byte		N18   , Cs4 , v112
	.byte	W24
	.byte		        Cn4 
	.byte	W24
	.byte		        Gs3 
	.byte	W24
	.byte		        Cs4 
	.byte	W24
	.byte	PEND
@ 292   ----------------------------------------
mus_thpprf_darkpegasus_1_292:
	.byte		N18   , Cn4 , v112
	.byte	W24
	.byte		N60   , Fn3 
	.byte	W72
	.byte	PEND
@ 293   ----------------------------------------
	.byte	PATT
	 .word	mus_thpprf_darkpegasus_1_291
@ 294   ----------------------------------------
	.byte	PATT
	 .word	mus_thpprf_darkpegasus_1_290
@ 295   ----------------------------------------
mus_thpprf_darkpegasus_1_295:
	.byte		N18   , Cs4 , v112
	.byte	W24
	.byte		        Cn4 
	.byte	W24
	.byte		        Gs3 
	.byte	W24
	.byte		        Ds4 
	.byte	W24
	.byte	PEND
@ 296   ----------------------------------------
mus_thpprf_darkpegasus_1_296:
	.byte		N18   , Cs4 , v112
	.byte	W24
	.byte		N48   , Cn4 
	.byte	W48
	.byte		N12   , As3 
	.byte	W12
	.byte		        Cn4 
	.byte	W12
	.byte	PEND
@ 297   ----------------------------------------
	.byte	PATT
	 .word	mus_thpprf_darkpegasus_1_291
@ 298   ----------------------------------------
	.byte	PATT
	 .word	mus_thpprf_darkpegasus_1_290
@ 299   ----------------------------------------
	.byte	PATT
	 .word	mus_thpprf_darkpegasus_1_291
@ 300   ----------------------------------------
	.byte	PATT
	 .word	mus_thpprf_darkpegasus_1_292
@ 301   ----------------------------------------
	.byte	PATT
	 .word	mus_thpprf_darkpegasus_1_291
@ 302   ----------------------------------------
	.byte	PATT
	 .word	mus_thpprf_darkpegasus_1_290
@ 303   ----------------------------------------
	.byte		N18   , Cs4 , v120
	.byte	W24
	.byte		        Cn4 
	.byte	W24
	.byte		        Fn4 
	.byte	W24
	.byte		        Ds4 
	.byte	W24
@ 304   ----------------------------------------
	.byte		        Cs4 
	.byte	W24
	.byte		N48   , Cn4 
	.byte	W48
	.byte		N12   , As3 , v112
	.byte	W12
	.byte		        Cn4 
	.byte	W12
@ 305   ----------------------------------------
	.byte	PATT
	 .word	mus_thpprf_darkpegasus_1_291
@ 306   ----------------------------------------
	.byte	PATT
	 .word	mus_thpprf_darkpegasus_1_290
@ 307   ----------------------------------------
	.byte	PATT
	 .word	mus_thpprf_darkpegasus_1_291
@ 308   ----------------------------------------
	.byte	PATT
	 .word	mus_thpprf_darkpegasus_1_292
@ 309   ----------------------------------------
	.byte	PATT
	 .word	mus_thpprf_darkpegasus_1_291
@ 310   ----------------------------------------
	.byte	PATT
	 .word	mus_thpprf_darkpegasus_1_290
@ 311   ----------------------------------------
	.byte	PATT
	 .word	mus_thpprf_darkpegasus_1_295
@ 312   ----------------------------------------
	.byte	PATT
	 .word	mus_thpprf_darkpegasus_1_296
@ 313   ----------------------------------------
	.byte	PATT
	 .word	mus_thpprf_darkpegasus_1_291
@ 314   ----------------------------------------
	.byte	PATT
	 .word	mus_thpprf_darkpegasus_1_290
@ 315   ----------------------------------------
	.byte	PATT
	 .word	mus_thpprf_darkpegasus_1_291
@ 316   ----------------------------------------
	.byte	PATT
	 .word	mus_thpprf_darkpegasus_1_292
@ 317   ----------------------------------------
	.byte	PATT
	 .word	mus_thpprf_darkpegasus_1_291
@ 318   ----------------------------------------
	.byte	PATT
	 .word	mus_thpprf_darkpegasus_1_290
@ 319   ----------------------------------------
	.byte		N18   , Cs4 , v112
	.byte	W24
	.byte		        Cn4 
	.byte	W24
	.byte		        Fn4 
	.byte	W24
	.byte		        Ds4 
	.byte	W24
@ 320   ----------------------------------------
	.byte		        Cs4 
	.byte	W24
	.byte		N60   , Cn4 
	.byte	W72
@ 321   ----------------------------------------
	.byte	GOTO
	.word	mus_thpprf_darkpegasus_1_033
	.byte	FINE

@**************** Track 2 (Midi-Chn.2) ****************@

mus_thpprf_darkpegasus_2:
	.byte	KEYSH , mus_thpprf_darkpegasus_key+0
@ 000   ----------------------------------------
	.byte		VOICE , 1
	.byte		PAN   , c_v+0
	.byte		VOL   , 87*mus_thpprf_darkpegasus_mvl/mxv
	.byte		BEND  , c_v+0
@ 001   ----------------------------------------
	.byte	W96
@ 002   ----------------------------------------
	.byte	W96
@ 003   ----------------------------------------
	.byte	W96
@ 004   ----------------------------------------
	.byte	W96
@ 005   ----------------------------------------
	.byte	W96
@ 006   ----------------------------------------
	.byte	W96
@ 007   ----------------------------------------
	.byte	W96
@ 008   ----------------------------------------
	.byte	W96
@ 009   ----------------------------------------
	.byte	W96
@ 010   ----------------------------------------
	.byte	W96
@ 011   ----------------------------------------
	.byte	W96
@ 012   ----------------------------------------
	.byte	W96
@ 013   ----------------------------------------
	.byte	W96
@ 014   ----------------------------------------
	.byte	W96
@ 015   ----------------------------------------
	.byte	W96
@ 016   ----------------------------------------
	.byte	W96
@ 017   ----------------------------------------
	.byte	W96
@ 018   ----------------------------------------
	.byte	W96
@ 019   ----------------------------------------
	.byte	W96
@ 020   ----------------------------------------
	.byte	W96
@ 021   ----------------------------------------
	.byte	W96
@ 022   ----------------------------------------
	.byte	W96
@ 023   ----------------------------------------
	.byte	W96
@ 024   ----------------------------------------
	.byte	W96
@ 025   ----------------------------------------
	.byte	W96
@ 026   ----------------------------------------
	.byte	W96
@ 027   ----------------------------------------
	.byte	W96
@ 028   ----------------------------------------
	.byte	W96
@ 029   ----------------------------------------
	.byte	W96
@ 030   ----------------------------------------
	.byte	W96
@ 031   ----------------------------------------
	.byte	W96
@ 032   ----------------------------------------
	.byte	W96
@ 033   ----------------------------------------
mus_thpprf_darkpegasus_2_033:
	.byte		VOICE , 1
	.byte		VOL   , 82*mus_thpprf_darkpegasus_mvl/mxv
	.byte		TIE   , Cs3 , v127
	.byte		TIE   , Cs4 
	.byte	W96
@ 034   ----------------------------------------
	.byte	W48
	.byte		EOT   , Cs3 
	.byte		        Cs4 
	.byte		N48   , An3 
	.byte		N48   , An4 
	.byte	W48
@ 035   ----------------------------------------
	.byte		N96   , Gs3 
	.byte		N96   , Gs4 
	.byte	W96
@ 036   ----------------------------------------
mus_thpprf_darkpegasus_2_036:
	.byte		N48   , En3 , v127
	.byte		N48   , En4 
	.byte	W48
	.byte		N24   , Bn2 
	.byte		N24   , Bn3 
	.byte	W24
	.byte		TIE   , Cs3 
	.byte		TIE   , Cs4 
	.byte	W24
	.byte	PEND
@ 037   ----------------------------------------
	.byte	W96
@ 038   ----------------------------------------
	.byte	W72
	.byte		EOT   , Cs3 
	.byte		        Cs4 
	.byte		N24   
	.byte		N24   , Cs5 
	.byte	W24
@ 039   ----------------------------------------
mus_thpprf_darkpegasus_2_039:
	.byte		N24   , Bn3 , v127
	.byte		N24   , Bn4 
	.byte	W24
	.byte		        An3 
	.byte		N24   , An4 
	.byte	W24
	.byte		        Gs3 
	.byte		N24   , Gs4 
	.byte	W24
	.byte		        An3 
	.byte		N24   , An4 
	.byte	W24
	.byte	PEND
@ 040   ----------------------------------------
mus_thpprf_darkpegasus_2_040:
	.byte		N24   , Gs3 , v127
	.byte		N24   , Gs4 
	.byte	W24
	.byte		N36   , En3 
	.byte		N36   , En4 
	.byte	W48
	.byte		TIE   , Fs3 
	.byte		TIE   , Fs4 
	.byte	W24
	.byte	PEND
@ 041   ----------------------------------------
	.byte	W96
@ 042   ----------------------------------------
	.byte	W48
	.byte		EOT   , Fs3 
	.byte		        Fs4 
	.byte		N24   , Cs4 
	.byte		N24   , Cs5 
	.byte	W24
	.byte		N72   , En4 
	.byte		N72   , En5 
	.byte	W24
@ 043   ----------------------------------------
mus_thpprf_darkpegasus_2_043:
	.byte	W48
	.byte		N48   , Bn3 , v127
	.byte		N48   , Bn4 
	.byte	W48
	.byte	PEND
@ 044   ----------------------------------------
mus_thpprf_darkpegasus_2_044:
	.byte		N48   , Gs3 , v127
	.byte		N48   , Gs4 
	.byte	W48
	.byte		N24   , Bn3 
	.byte		N24   , Bn4 
	.byte	W24
	.byte		TIE   , An3 
	.byte		TIE   , An4 
	.byte	W24
	.byte	PEND
@ 045   ----------------------------------------
	.byte	W96
@ 046   ----------------------------------------
	.byte	W48
	.byte		EOT   , An3 
	.byte		        An4 
	.byte		N24   , Gs3 
	.byte		N24   , Gs4 
	.byte	W24
	.byte		        An3 
	.byte		N24   , An4 
	.byte	W24
@ 047   ----------------------------------------
	.byte		        Gs3 
	.byte		N24   , Gs4 
	.byte	W24
	.byte		        An3 
	.byte		N24   , An4 
	.byte	W24
	.byte		        Gs3 
	.byte		N24   , Gs4 
	.byte	W24
	.byte		        En3 
	.byte		N24   , En4 
	.byte	W24
@ 048   ----------------------------------------
	.byte		        Bn2 
	.byte		N24   , Bn3 
	.byte	W24
	.byte		N48   , En3 
	.byte		N48   , En4 
	.byte	W48
	.byte		TIE   , Cs3 
	.byte		TIE   , Cs4 
	.byte	W24
@ 049   ----------------------------------------
	.byte	W96
@ 050   ----------------------------------------
	.byte	W48
	.byte		EOT   , Cs3 
	.byte		        Cs4 
	.byte		N48   , An3 
	.byte		N48   , An4 
	.byte	W48
@ 051   ----------------------------------------
	.byte		N96   , Gs3 
	.byte		N96   , Gs4 
	.byte	W96
@ 052   ----------------------------------------
	.byte	PATT
	 .word	mus_thpprf_darkpegasus_2_036
@ 053   ----------------------------------------
	.byte	W96
@ 054   ----------------------------------------
	.byte	W72
	.byte		EOT   , Cs3 
	.byte		        Cs4 
	.byte		N24   , Cs4 , v127
	.byte		N24   , Cs5 
	.byte	W24
@ 055   ----------------------------------------
	.byte	PATT
	 .word	mus_thpprf_darkpegasus_2_039
@ 056   ----------------------------------------
	.byte	PATT
	 .word	mus_thpprf_darkpegasus_2_040
@ 057   ----------------------------------------
	.byte	W96
@ 058   ----------------------------------------
	.byte	W48
	.byte		EOT   , Fs3 
	.byte		        Fs4 
	.byte		N24   , Cs4 , v127
	.byte		N24   , Cs5 
	.byte	W24
	.byte		N72   , En4 
	.byte		N72   , En5 
	.byte	W24
@ 059   ----------------------------------------
	.byte	PATT
	 .word	mus_thpprf_darkpegasus_2_043
@ 060   ----------------------------------------
	.byte	PATT
	 .word	mus_thpprf_darkpegasus_2_044
@ 061   ----------------------------------------
	.byte	W96
@ 062   ----------------------------------------
	.byte	W48
	.byte		EOT   , An3 
	.byte		        An4 
	.byte		N24   , Gs3 , v127
	.byte		N24   , Gs4 
	.byte	W24
	.byte		        An3 
	.byte		N24   , An4 
	.byte	W24
@ 063   ----------------------------------------
	.byte		        Bn3 
	.byte		N24   , Bn4 
	.byte	W24
	.byte		        En4 
	.byte		N24   , En5 
	.byte	W24
	.byte		        Fs4 
	.byte		N24   , Fs5 
	.byte	W24
	.byte		        Gs4 
	.byte		N24   , Gs5 
	.byte	W24
@ 064   ----------------------------------------
	.byte		        En4 
	.byte		N24   , En5 
	.byte	W24
	.byte		N48   , Gs4 
	.byte		N48   , Gs5 
	.byte	W48
	.byte		N06   , Gn4 
	.byte	W06
	.byte		        Fs4 
	.byte	W06
	.byte		        Fn4 
	.byte	W06
	.byte		        En4 
	.byte	W06
@ 065   ----------------------------------------
	.byte		VOL   , 82*mus_thpprf_darkpegasus_mvl/mxv
	.byte		N72   , Cs3 
	.byte		N72   , Cs4 
	.byte	W78
	.byte		N06   , As3 
	.byte	W06
	.byte		        Bn3 
	.byte	W06
	.byte		        Cn4 
	.byte	W06
@ 066   ----------------------------------------
mus_thpprf_darkpegasus_2_066:
	.byte		N30   , Cs3 , v127
	.byte		N36   , Cs4 
	.byte	W36
	.byte		N30   , Cs3 
	.byte		N36   , An3 
	.byte	W36
	.byte		N24   , Cs3 
	.byte		N24   , Cs4 
	.byte	W24
	.byte	PEND
@ 067   ----------------------------------------
mus_thpprf_darkpegasus_2_067:
	.byte		N72   , Cn3 , v127
	.byte		N72   , Cn4 
	.byte	W78
	.byte		N06   , An3 
	.byte	W06
	.byte		        As3 
	.byte	W06
	.byte		        Bn3 
	.byte	W06
	.byte	PEND
@ 068   ----------------------------------------
mus_thpprf_darkpegasus_2_068:
	.byte		N30   , Cn3 , v127
	.byte		N36   , Cn4 
	.byte	W36
	.byte		N30   , Cn3 
	.byte		N36   , An3 
	.byte	W36
	.byte		N24   , Cn3 
	.byte		N24   , Cn4 
	.byte	W24
	.byte	PEND
@ 069   ----------------------------------------
mus_thpprf_darkpegasus_2_069:
	.byte		N72   , Bn2 , v127
	.byte		N72   , Bn3 
	.byte	W78
	.byte		N06   , Gs3 
	.byte	W06
	.byte		        An3 
	.byte	W06
	.byte		        As3 
	.byte	W06
	.byte	PEND
@ 070   ----------------------------------------
mus_thpprf_darkpegasus_2_070:
	.byte		N30   , Bn2 , v127
	.byte		N36   , Bn3 
	.byte	W36
	.byte		N30   , Bn2 
	.byte		N36   , Gn3 
	.byte	W36
	.byte		N24   , Bn2 
	.byte		N24   , Bn3 
	.byte	W24
	.byte	PEND
@ 071   ----------------------------------------
mus_thpprf_darkpegasus_2_071:
	.byte		N30   , As2 , v127
	.byte		N36   , As3 
	.byte	W36
	.byte		N30   , As2 
	.byte		N36   , Fs3 
	.byte	W36
	.byte		N24   , As2 
	.byte		N24   , As3 
	.byte	W24
	.byte	PEND
@ 072   ----------------------------------------
mus_thpprf_darkpegasus_2_072:
	.byte		N30   , An2 , v127
	.byte		N36   , An3 
	.byte	W36
	.byte		N30   , An2 
	.byte		N36   , Fn3 
	.byte	W36
	.byte		N24   , An2 
	.byte		N24   , An3 
	.byte	W24
	.byte	PEND
@ 073   ----------------------------------------
	.byte		N72   , As2 
	.byte		N72   , As3 
	.byte	W96
@ 074   ----------------------------------------
mus_thpprf_darkpegasus_2_074:
	.byte		N30   , Cs3 , v127
	.byte		N36   , As3 
	.byte	W36
	.byte		N30   , Cs3 
	.byte		N36   , Cs4 
	.byte	W36
	.byte		N24   , Cs3 
	.byte		N24   , En4 
	.byte	W24
	.byte	PEND
@ 075   ----------------------------------------
	.byte		N90   , Fn3 
	.byte		N60   , Fn4 
	.byte	W60
	.byte		N06   , En4 
	.byte	W06
	.byte		        Ds4 
	.byte	W30
@ 076   ----------------------------------------
mus_thpprf_darkpegasus_2_076:
	.byte		N42   , Fn3 , v127
	.byte		N48   , Cn4 
	.byte	W48
	.byte		N42   , Fn3 
	.byte		N48   , Fn4 
	.byte	W48
	.byte	PEND
@ 077   ----------------------------------------
	.byte		N90   , En3 
	.byte		N72   , En4 
	.byte	W96
@ 078   ----------------------------------------
	.byte		N42   , En3 
	.byte		N48   , Cn4 
	.byte	W48
	.byte		N42   , En3 
	.byte		N48   , En4 
	.byte	W48
@ 079   ----------------------------------------
	.byte		N36   , Fn3 
	.byte		N36   , Fn4 
	.byte	W36
	.byte		        Cn3 
	.byte		N36   , Cn4 
	.byte	W36
	.byte		N24   , As2 
	.byte		N24   , As3 
	.byte	W24
@ 080   ----------------------------------------
	.byte		N48   , An2 
	.byte		N48   , An3 
	.byte	W48
	.byte		        Cn3 
	.byte		N48   , Cn4 
	.byte	W48
@ 081   ----------------------------------------
	.byte		N72   , Cs3 
	.byte		N72   , Cs4 
	.byte	W78
	.byte		N06   , As3 
	.byte	W06
	.byte		        Bn3 
	.byte	W06
	.byte		        Cn4 
	.byte	W06
@ 082   ----------------------------------------
	.byte	PATT
	 .word	mus_thpprf_darkpegasus_2_066
@ 083   ----------------------------------------
	.byte	PATT
	 .word	mus_thpprf_darkpegasus_2_067
@ 084   ----------------------------------------
	.byte	PATT
	 .word	mus_thpprf_darkpegasus_2_068
@ 085   ----------------------------------------
	.byte	PATT
	 .word	mus_thpprf_darkpegasus_2_069
@ 086   ----------------------------------------
	.byte	PATT
	 .word	mus_thpprf_darkpegasus_2_070
@ 087   ----------------------------------------
	.byte	PATT
	 .word	mus_thpprf_darkpegasus_2_071
@ 088   ----------------------------------------
	.byte	PATT
	 .word	mus_thpprf_darkpegasus_2_072
@ 089   ----------------------------------------
	.byte		N72   , As2 , v127
	.byte		N72   , As3 
	.byte	W96
@ 090   ----------------------------------------
	.byte	PATT
	 .word	mus_thpprf_darkpegasus_2_074
@ 091   ----------------------------------------
	.byte		N90   , Fn3 , v127
	.byte		N60   , Fn4 
	.byte	W96
@ 092   ----------------------------------------
	.byte	PATT
	 .word	mus_thpprf_darkpegasus_2_076
@ 093   ----------------------------------------
	.byte		N30   , En3 , v127
	.byte		N36   , En4 
	.byte	W36
	.byte		N30   , En3 
	.byte		N36   , Cn4 
	.byte	W36
	.byte		N24   , En3 
	.byte		N24   , En4 
	.byte	W24
@ 094   ----------------------------------------
	.byte		N30   , Gn3 
	.byte		N36   , Fn4 
	.byte	W36
	.byte		N30   , Gn3 
	.byte		N36   , Gn4 
	.byte	W36
	.byte		N24   , Gn3 
	.byte		N24   , As4 
	.byte	W24
@ 095   ----------------------------------------
	.byte		        An3 
	.byte		N48   , An4 
	.byte	W24
	.byte		N24   , Fn3 
	.byte		N24   , Fn4 
	.byte	W24
	.byte		        Cn3 
	.byte		N24   , Cn4 
	.byte	W24
	.byte		        As2 
	.byte		N24   , As3 
	.byte	W24
@ 096   ----------------------------------------
	.byte		        An2 
	.byte		N24   , An3 
	.byte	W30
	.byte		N06   , Dn4 
	.byte	W06
	.byte		        Cs4 
	.byte	W06
	.byte		        Cn4 
	.byte	W06
	.byte		        As3 
	.byte	W06
	.byte		        An3 
	.byte	W06
	.byte		        Gn3 
	.byte	W06
	.byte		        Fs3 
	.byte	W06
	.byte		        En3 
	.byte	W06
	.byte		        An3 
	.byte	W06
	.byte		        Bn3 
	.byte	W06
	.byte		        Cn4 
	.byte	W06
@ 097   ----------------------------------------
	.byte	W96
@ 098   ----------------------------------------
	.byte	W96
@ 099   ----------------------------------------
	.byte	W96
@ 100   ----------------------------------------
	.byte	W96
@ 101   ----------------------------------------
	.byte	W96
@ 102   ----------------------------------------
	.byte	W96
@ 103   ----------------------------------------
	.byte	W96
@ 104   ----------------------------------------
	.byte	W96
@ 105   ----------------------------------------
	.byte	W96
@ 106   ----------------------------------------
	.byte	W96
@ 107   ----------------------------------------
	.byte	W96
@ 108   ----------------------------------------
	.byte	W96
@ 109   ----------------------------------------
	.byte	W96
@ 110   ----------------------------------------
	.byte	W96
@ 111   ----------------------------------------
	.byte	W96
@ 112   ----------------------------------------
	.byte	W96
@ 113   ----------------------------------------
	.byte	W96
@ 114   ----------------------------------------
	.byte	W96
@ 115   ----------------------------------------
	.byte	W96
@ 116   ----------------------------------------
	.byte	W96
@ 117   ----------------------------------------
	.byte	W96
@ 118   ----------------------------------------
	.byte	W96
@ 119   ----------------------------------------
	.byte	W96
@ 120   ----------------------------------------
	.byte	W96
@ 121   ----------------------------------------
	.byte	W96
@ 122   ----------------------------------------
	.byte	W96
@ 123   ----------------------------------------
	.byte	W96
@ 124   ----------------------------------------
	.byte	W96
@ 125   ----------------------------------------
	.byte	W96
@ 126   ----------------------------------------
	.byte	W96
@ 127   ----------------------------------------
	.byte	W96
@ 128   ----------------------------------------
	.byte	W96
@ 129   ----------------------------------------
	.byte	W96
@ 130   ----------------------------------------
	.byte	W96
@ 131   ----------------------------------------
	.byte	W96
@ 132   ----------------------------------------
	.byte	W96
@ 133   ----------------------------------------
	.byte	W96
@ 134   ----------------------------------------
	.byte	W96
@ 135   ----------------------------------------
	.byte	W96
@ 136   ----------------------------------------
	.byte	W96
@ 137   ----------------------------------------
	.byte	W96
@ 138   ----------------------------------------
	.byte	W96
@ 139   ----------------------------------------
	.byte	W96
@ 140   ----------------------------------------
	.byte	W96
@ 141   ----------------------------------------
	.byte	W96
@ 142   ----------------------------------------
	.byte	W96
@ 143   ----------------------------------------
	.byte	W96
@ 144   ----------------------------------------
	.byte	W96
@ 145   ----------------------------------------
	.byte	W96
@ 146   ----------------------------------------
	.byte	W96
@ 147   ----------------------------------------
	.byte	W96
@ 148   ----------------------------------------
	.byte	W96
@ 149   ----------------------------------------
	.byte	W96
@ 150   ----------------------------------------
	.byte	W96
@ 151   ----------------------------------------
	.byte	W96
@ 152   ----------------------------------------
	.byte	W96
@ 153   ----------------------------------------
	.byte	W96
@ 154   ----------------------------------------
	.byte	W96
@ 155   ----------------------------------------
	.byte	W96
@ 156   ----------------------------------------
	.byte	W96
@ 157   ----------------------------------------
	.byte	W96
@ 158   ----------------------------------------
	.byte	W96
@ 159   ----------------------------------------
	.byte	W96
@ 160   ----------------------------------------
	.byte	W96
@ 161   ----------------------------------------
	.byte	W96
@ 162   ----------------------------------------
	.byte	W96
@ 163   ----------------------------------------
	.byte	W96
@ 164   ----------------------------------------
	.byte	W96
@ 165   ----------------------------------------
	.byte	W96
@ 166   ----------------------------------------
	.byte	W96
@ 167   ----------------------------------------
	.byte	W96
@ 168   ----------------------------------------
	.byte	W96
@ 169   ----------------------------------------
	.byte	W96
@ 170   ----------------------------------------
	.byte	W96
@ 171   ----------------------------------------
	.byte	W96
@ 172   ----------------------------------------
	.byte	W96
@ 173   ----------------------------------------
	.byte	W96
@ 174   ----------------------------------------
	.byte	W96
@ 175   ----------------------------------------
	.byte	W96
@ 176   ----------------------------------------
	.byte	W96
@ 177   ----------------------------------------
	.byte	W96
@ 178   ----------------------------------------
	.byte	W96
@ 179   ----------------------------------------
	.byte	W96
@ 180   ----------------------------------------
	.byte	W96
@ 181   ----------------------------------------
	.byte	W96
@ 182   ----------------------------------------
	.byte	W96
@ 183   ----------------------------------------
	.byte	W96
@ 184   ----------------------------------------
	.byte	W96
@ 185   ----------------------------------------
	.byte	W96
@ 186   ----------------------------------------
	.byte	W96
@ 187   ----------------------------------------
	.byte	W96
@ 188   ----------------------------------------
	.byte	W96
@ 189   ----------------------------------------
	.byte	W96
@ 190   ----------------------------------------
	.byte	W96
@ 191   ----------------------------------------
	.byte	W96
@ 192   ----------------------------------------
	.byte	W96
@ 193   ----------------------------------------
	.byte	W96
@ 194   ----------------------------------------
	.byte	W96
@ 195   ----------------------------------------
	.byte	W96
@ 196   ----------------------------------------
	.byte	W96
@ 197   ----------------------------------------
	.byte	W96
@ 198   ----------------------------------------
	.byte	W96
@ 199   ----------------------------------------
	.byte	W96
@ 200   ----------------------------------------
	.byte	W96
@ 201   ----------------------------------------
	.byte	W96
@ 202   ----------------------------------------
	.byte	W96
@ 203   ----------------------------------------
	.byte	W96
@ 204   ----------------------------------------
	.byte	W96
@ 205   ----------------------------------------
	.byte	W96
@ 206   ----------------------------------------
	.byte	W96
@ 207   ----------------------------------------
	.byte	W96
@ 208   ----------------------------------------
	.byte	W96
@ 209   ----------------------------------------
	.byte	W96
@ 210   ----------------------------------------
	.byte	W96
@ 211   ----------------------------------------
	.byte	W96
@ 212   ----------------------------------------
	.byte	W96
@ 213   ----------------------------------------
	.byte	W96
@ 214   ----------------------------------------
	.byte	W96
@ 215   ----------------------------------------
	.byte	W96
@ 216   ----------------------------------------
	.byte	W96
@ 217   ----------------------------------------
	.byte	W96
@ 218   ----------------------------------------
	.byte	W96
@ 219   ----------------------------------------
	.byte	W96
@ 220   ----------------------------------------
	.byte	W96
@ 221   ----------------------------------------
	.byte	W96
@ 222   ----------------------------------------
	.byte	W96
@ 223   ----------------------------------------
	.byte	W96
@ 224   ----------------------------------------
	.byte	W96
@ 225   ----------------------------------------
	.byte	W96
@ 226   ----------------------------------------
	.byte	W96
@ 227   ----------------------------------------
	.byte	W96
@ 228   ----------------------------------------
	.byte	W96
@ 229   ----------------------------------------
	.byte	W96
@ 230   ----------------------------------------
	.byte	W96
@ 231   ----------------------------------------
	.byte	W96
@ 232   ----------------------------------------
	.byte	W96
@ 233   ----------------------------------------
	.byte	W96
@ 234   ----------------------------------------
	.byte	W96
@ 235   ----------------------------------------
	.byte	W96
@ 236   ----------------------------------------
	.byte	W96
@ 237   ----------------------------------------
	.byte	W96
@ 238   ----------------------------------------
	.byte	W96
@ 239   ----------------------------------------
	.byte	W96
@ 240   ----------------------------------------
	.byte	W96
@ 241   ----------------------------------------
	.byte	W96
@ 242   ----------------------------------------
	.byte	W96
@ 243   ----------------------------------------
	.byte	W96
@ 244   ----------------------------------------
	.byte	W96
@ 245   ----------------------------------------
	.byte	W96
@ 246   ----------------------------------------
	.byte	W96
@ 247   ----------------------------------------
	.byte	W96
@ 248   ----------------------------------------
	.byte	W96
@ 249   ----------------------------------------
	.byte	W96
@ 250   ----------------------------------------
	.byte	W96
@ 251   ----------------------------------------
	.byte	W96
@ 252   ----------------------------------------
	.byte	W96
@ 253   ----------------------------------------
	.byte	W96
@ 254   ----------------------------------------
	.byte	W96
@ 255   ----------------------------------------
	.byte	W96
@ 256   ----------------------------------------
	.byte	W96
@ 257   ----------------------------------------
	.byte	W96
@ 258   ----------------------------------------
	.byte	W96
@ 259   ----------------------------------------
	.byte	W96
@ 260   ----------------------------------------
	.byte	W96
@ 261   ----------------------------------------
	.byte	W96
@ 262   ----------------------------------------
	.byte	W96
@ 263   ----------------------------------------
	.byte	W96
@ 264   ----------------------------------------
	.byte	W96
@ 265   ----------------------------------------
	.byte	W96
@ 266   ----------------------------------------
	.byte	W96
@ 267   ----------------------------------------
	.byte	W96
@ 268   ----------------------------------------
	.byte	W96
@ 269   ----------------------------------------
	.byte	W96
@ 270   ----------------------------------------
	.byte	W96
@ 271   ----------------------------------------
	.byte	W96
@ 272   ----------------------------------------
	.byte	W96
@ 273   ----------------------------------------
	.byte	W96
@ 274   ----------------------------------------
	.byte	W96
@ 275   ----------------------------------------
	.byte	W96
@ 276   ----------------------------------------
	.byte	W96
@ 277   ----------------------------------------
	.byte	W96
@ 278   ----------------------------------------
	.byte	W96
@ 279   ----------------------------------------
	.byte	W96
@ 280   ----------------------------------------
	.byte	W96
@ 281   ----------------------------------------
	.byte	W96
@ 282   ----------------------------------------
	.byte	W96
@ 283   ----------------------------------------
	.byte	W96
@ 284   ----------------------------------------
	.byte	W96
@ 285   ----------------------------------------
	.byte	W96
@ 286   ----------------------------------------
	.byte	W96
@ 287   ----------------------------------------
	.byte	W96
@ 288   ----------------------------------------
	.byte	W96
@ 289   ----------------------------------------
	.byte	W96
@ 290   ----------------------------------------
	.byte	W96
@ 291   ----------------------------------------
	.byte	W96
@ 292   ----------------------------------------
	.byte	W96
@ 293   ----------------------------------------
	.byte	W96
@ 294   ----------------------------------------
	.byte	W96
@ 295   ----------------------------------------
	.byte	W96
@ 296   ----------------------------------------
	.byte	W96
@ 297   ----------------------------------------
	.byte	W96
@ 298   ----------------------------------------
	.byte	W96
@ 299   ----------------------------------------
	.byte	W96
@ 300   ----------------------------------------
	.byte	W96
@ 301   ----------------------------------------
	.byte	W96
@ 302   ----------------------------------------
	.byte	W96
@ 303   ----------------------------------------
	.byte	W96
@ 304   ----------------------------------------
	.byte	W96
@ 305   ----------------------------------------
	.byte	W96
@ 306   ----------------------------------------
	.byte	W96
@ 307   ----------------------------------------
	.byte	W96
@ 308   ----------------------------------------
	.byte	W96
@ 309   ----------------------------------------
	.byte	W96
@ 310   ----------------------------------------
	.byte	W96
@ 311   ----------------------------------------
	.byte	W96
@ 312   ----------------------------------------
	.byte	W96
@ 313   ----------------------------------------
	.byte	W96
@ 314   ----------------------------------------
	.byte	W96
@ 315   ----------------------------------------
	.byte	W96
@ 316   ----------------------------------------
	.byte	W96
@ 317   ----------------------------------------
	.byte	W96
@ 318   ----------------------------------------
	.byte	W96
@ 319   ----------------------------------------
	.byte	W96
@ 320   ----------------------------------------
	.byte	W96
@ 321   ----------------------------------------
	.byte	GOTO
	.word	mus_thpprf_darkpegasus_2_033
	.byte	FINE

@**************** Track 3 (Midi-Chn.3) ****************@

mus_thpprf_darkpegasus_3:
	.byte	KEYSH , mus_thpprf_darkpegasus_key+0
@ 000   ----------------------------------------
	.byte		VOICE , 8
	.byte		PAN   , c_v+0
	.byte		VOL   , 90*mus_thpprf_darkpegasus_mvl/mxv
	.byte		BEND  , c_v+0
@ 001   ----------------------------------------
	.byte	W96
@ 002   ----------------------------------------
	.byte	W96
@ 003   ----------------------------------------
	.byte	W96
@ 004   ----------------------------------------
	.byte	W96
@ 005   ----------------------------------------
	.byte	W96
@ 006   ----------------------------------------
	.byte	W96
@ 007   ----------------------------------------
	.byte	W96
@ 008   ----------------------------------------
	.byte	W96
@ 009   ----------------------------------------
	.byte	W96
@ 010   ----------------------------------------
	.byte	W96
@ 011   ----------------------------------------
	.byte	W96
@ 012   ----------------------------------------
	.byte	W96
@ 013   ----------------------------------------
	.byte	W96
@ 014   ----------------------------------------
	.byte	W96
@ 015   ----------------------------------------
	.byte	W96
@ 016   ----------------------------------------
	.byte	W96
@ 017   ----------------------------------------
mus_thpprf_darkpegasus_3_017:
	.byte		N24   , Fs1 , v108
	.byte		N24   , Cs2 
	.byte	W72
	.byte		        Fs1 
	.byte		N24   , Cs2 
	.byte	W24
	.byte	PEND
@ 018   ----------------------------------------
	.byte	W96
@ 019   ----------------------------------------
	.byte	PATT
	 .word	mus_thpprf_darkpegasus_3_017
@ 020   ----------------------------------------
mus_thpprf_darkpegasus_3_020:
	.byte	W24
	.byte		N12   , Cs2 , v108
	.byte	W12
	.byte		        Fn2 
	.byte	W12
	.byte		N24   , Fs2 
	.byte	W24
	.byte		N12   , Ds2 
	.byte	W12
	.byte		        Dn2 
	.byte	W12
	.byte	PEND
@ 021   ----------------------------------------
	.byte	PATT
	 .word	mus_thpprf_darkpegasus_3_017
@ 022   ----------------------------------------
	.byte	W96
@ 023   ----------------------------------------
	.byte	PATT
	 .word	mus_thpprf_darkpegasus_3_017
@ 024   ----------------------------------------
	.byte	PATT
	 .word	mus_thpprf_darkpegasus_3_020
@ 025   ----------------------------------------
mus_thpprf_darkpegasus_3_025:
	.byte		N24   , Fs1 , v108
	.byte		N24   , Dn2 
	.byte	W72
	.byte		        Fs1 
	.byte		N24   , Dn2 
	.byte	W24
	.byte	PEND
@ 026   ----------------------------------------
	.byte	W96
@ 027   ----------------------------------------
	.byte	PATT
	 .word	mus_thpprf_darkpegasus_3_025
@ 028   ----------------------------------------
mus_thpprf_darkpegasus_3_028:
	.byte	W24
	.byte		N12   , Dn2 , v108
	.byte	W12
	.byte		        Fn2 
	.byte	W12
	.byte		N24   , Fs2 
	.byte	W24
	.byte		N12   , En2 
	.byte	W12
	.byte		        Fn2 
	.byte	W12
	.byte	PEND
@ 029   ----------------------------------------
	.byte	PATT
	 .word	mus_thpprf_darkpegasus_3_025
@ 030   ----------------------------------------
	.byte	W96
@ 031   ----------------------------------------
	.byte	PATT
	 .word	mus_thpprf_darkpegasus_3_025
@ 032   ----------------------------------------
	.byte	PATT
	 .word	mus_thpprf_darkpegasus_3_028
@ 033   ----------------------------------------
mus_thpprf_darkpegasus_3_033:
	.byte		VOICE , 8
	.byte		VOL   , 90*mus_thpprf_darkpegasus_mvl/mxv
	.byte		N24   , Fs2 , v100
	.byte		N24   , An2 
	.byte	W48
	.byte		        En2 
	.byte		N24   , Gs2 
	.byte	W24
	.byte		        Fs2 
	.byte		N24   , An2 
	.byte	W24
@ 034   ----------------------------------------
mus_thpprf_darkpegasus_3_034:
	.byte	W24
	.byte		N24   , En2 , v100
	.byte		N24   , Gs2 
	.byte	W48
	.byte		        Fs2 
	.byte		N24   , An2 
	.byte	W24
	.byte	PEND
@ 035   ----------------------------------------
mus_thpprf_darkpegasus_3_035:
	.byte		N24   , En2 , v100
	.byte		N24   , Gs2 
	.byte	W48
	.byte		        Bn1 
	.byte		N24   , En2 
	.byte	W24
	.byte		N24   
	.byte		N24   , Gs2 
	.byte	W24
	.byte	PEND
@ 036   ----------------------------------------
mus_thpprf_darkpegasus_3_036:
	.byte	W24
	.byte		N24   , Bn1 , v100
	.byte		N24   , En2 
	.byte	W48
	.byte		N24   
	.byte		N24   , Gs2 
	.byte	W24
	.byte	PEND
@ 037   ----------------------------------------
mus_thpprf_darkpegasus_3_037:
	.byte		N24   , Dn2 , v100
	.byte		N24   , Fs2 
	.byte	W48
	.byte		        An1 
	.byte		N24   , Dn2 
	.byte	W24
	.byte		N24   
	.byte		N24   , Fs2 
	.byte	W24
	.byte	PEND
@ 038   ----------------------------------------
mus_thpprf_darkpegasus_3_038:
	.byte	W24
	.byte		N24   , An1 , v100
	.byte		N24   , Dn2 
	.byte	W48
	.byte		N24   
	.byte		N24   , Fs2 
	.byte	W24
	.byte	PEND
@ 039   ----------------------------------------
	.byte	PATT
	 .word	mus_thpprf_darkpegasus_3_035
@ 040   ----------------------------------------
	.byte	PATT
	 .word	mus_thpprf_darkpegasus_3_036
@ 041   ----------------------------------------
mus_thpprf_darkpegasus_3_041:
	.byte		N24   , Fs2 , v100
	.byte		N24   , An2 
	.byte	W48
	.byte		        En2 
	.byte		N24   , Gs2 
	.byte	W24
	.byte		        Fs2 
	.byte		N24   , An2 
	.byte	W24
	.byte	PEND
@ 042   ----------------------------------------
	.byte	PATT
	 .word	mus_thpprf_darkpegasus_3_034
@ 043   ----------------------------------------
mus_thpprf_darkpegasus_3_043:
	.byte		N24   , Gs2 , v100
	.byte		N24   , Bn2 
	.byte	W48
	.byte		        En2 
	.byte		N24   , Gs2 
	.byte	W24
	.byte		N24   
	.byte		N24   , Bn2 
	.byte	W24
	.byte	PEND
@ 044   ----------------------------------------
mus_thpprf_darkpegasus_3_044:
	.byte	W24
	.byte		N24   , En2 , v100
	.byte		N24   , Gs2 
	.byte	W48
	.byte		N24   
	.byte		N24   , Bn2 
	.byte	W24
	.byte	PEND
@ 045   ----------------------------------------
mus_thpprf_darkpegasus_3_045:
	.byte		N24   , An2 , v100
	.byte		N24   , Dn3 
	.byte	W48
	.byte		        Fs2 
	.byte		N24   , An2 
	.byte	W24
	.byte		N24   
	.byte		N24   , Dn3 
	.byte	W24
	.byte	PEND
@ 046   ----------------------------------------
mus_thpprf_darkpegasus_3_046:
	.byte	W24
	.byte		N24   , Fs2 , v100
	.byte		N24   , An2 
	.byte	W48
	.byte		N24   
	.byte		N24   , Dn3 
	.byte	W24
	.byte	PEND
@ 047   ----------------------------------------
	.byte	PATT
	 .word	mus_thpprf_darkpegasus_3_043
@ 048   ----------------------------------------
	.byte	PATT
	 .word	mus_thpprf_darkpegasus_3_044
@ 049   ----------------------------------------
	.byte	PATT
	 .word	mus_thpprf_darkpegasus_3_041
@ 050   ----------------------------------------
	.byte	PATT
	 .word	mus_thpprf_darkpegasus_3_034
@ 051   ----------------------------------------
	.byte	PATT
	 .word	mus_thpprf_darkpegasus_3_035
@ 052   ----------------------------------------
	.byte	PATT
	 .word	mus_thpprf_darkpegasus_3_036
@ 053   ----------------------------------------
	.byte	PATT
	 .word	mus_thpprf_darkpegasus_3_037
@ 054   ----------------------------------------
	.byte	PATT
	 .word	mus_thpprf_darkpegasus_3_038
@ 055   ----------------------------------------
	.byte	PATT
	 .word	mus_thpprf_darkpegasus_3_035
@ 056   ----------------------------------------
	.byte	PATT
	 .word	mus_thpprf_darkpegasus_3_036
@ 057   ----------------------------------------
	.byte	PATT
	 .word	mus_thpprf_darkpegasus_3_041
@ 058   ----------------------------------------
	.byte	PATT
	 .word	mus_thpprf_darkpegasus_3_034
@ 059   ----------------------------------------
	.byte	PATT
	 .word	mus_thpprf_darkpegasus_3_043
@ 060   ----------------------------------------
	.byte	PATT
	 .word	mus_thpprf_darkpegasus_3_044
@ 061   ----------------------------------------
	.byte	PATT
	 .word	mus_thpprf_darkpegasus_3_045
@ 062   ----------------------------------------
	.byte	PATT
	 .word	mus_thpprf_darkpegasus_3_046
@ 063   ----------------------------------------
	.byte	PATT
	 .word	mus_thpprf_darkpegasus_3_043
@ 064   ----------------------------------------
	.byte	PATT
	 .word	mus_thpprf_darkpegasus_3_044
@ 065   ----------------------------------------
	.byte	W96
@ 066   ----------------------------------------
	.byte	W96
@ 067   ----------------------------------------
	.byte	W96
@ 068   ----------------------------------------
	.byte	W96
@ 069   ----------------------------------------
	.byte	W96
@ 070   ----------------------------------------
	.byte	W96
@ 071   ----------------------------------------
	.byte	W96
@ 072   ----------------------------------------
	.byte	W96
@ 073   ----------------------------------------
	.byte	W96
@ 074   ----------------------------------------
	.byte	W96
@ 075   ----------------------------------------
	.byte	W96
@ 076   ----------------------------------------
	.byte	W96
@ 077   ----------------------------------------
	.byte	W96
@ 078   ----------------------------------------
	.byte	W96
@ 079   ----------------------------------------
	.byte	W96
@ 080   ----------------------------------------
	.byte	W96
@ 081   ----------------------------------------
	.byte	W96
@ 082   ----------------------------------------
	.byte	W96
@ 083   ----------------------------------------
	.byte	W96
@ 084   ----------------------------------------
	.byte	W96
@ 085   ----------------------------------------
	.byte	W96
@ 086   ----------------------------------------
	.byte	W96
@ 087   ----------------------------------------
	.byte	W96
@ 088   ----------------------------------------
	.byte	W96
@ 089   ----------------------------------------
	.byte	W96
@ 090   ----------------------------------------
	.byte	W96
@ 091   ----------------------------------------
	.byte	W96
@ 092   ----------------------------------------
	.byte	W96
@ 093   ----------------------------------------
	.byte	W96
@ 094   ----------------------------------------
	.byte	W96
@ 095   ----------------------------------------
	.byte	W96
@ 096   ----------------------------------------
	.byte	W96
@ 097   ----------------------------------------
	.byte	W96
@ 098   ----------------------------------------
	.byte	W96
@ 099   ----------------------------------------
	.byte	W96
@ 100   ----------------------------------------
	.byte	W96
@ 101   ----------------------------------------
	.byte	W96
@ 102   ----------------------------------------
	.byte	W96
@ 103   ----------------------------------------
	.byte	W96
@ 104   ----------------------------------------
	.byte	W96
@ 105   ----------------------------------------
	.byte	W96
@ 106   ----------------------------------------
	.byte	W96
@ 107   ----------------------------------------
	.byte	W96
@ 108   ----------------------------------------
	.byte	W96
@ 109   ----------------------------------------
	.byte	W96
@ 110   ----------------------------------------
	.byte	W96
@ 111   ----------------------------------------
	.byte	W96
@ 112   ----------------------------------------
	.byte	W96
@ 113   ----------------------------------------
	.byte	W96
@ 114   ----------------------------------------
	.byte	W96
@ 115   ----------------------------------------
	.byte	W96
@ 116   ----------------------------------------
	.byte	W96
@ 117   ----------------------------------------
	.byte	W96
@ 118   ----------------------------------------
	.byte	W96
@ 119   ----------------------------------------
	.byte	W96
@ 120   ----------------------------------------
	.byte	W96
@ 121   ----------------------------------------
	.byte	W96
@ 122   ----------------------------------------
	.byte	W96
@ 123   ----------------------------------------
	.byte	W96
@ 124   ----------------------------------------
	.byte	W96
@ 125   ----------------------------------------
	.byte	W96
@ 126   ----------------------------------------
	.byte	W96
@ 127   ----------------------------------------
	.byte	W96
@ 128   ----------------------------------------
	.byte	W96
@ 129   ----------------------------------------
mus_thpprf_darkpegasus_3_129:
	.byte		N24   , An1 , v108
	.byte		N24   , En2 
	.byte	W72
	.byte		        An1 
	.byte		N24   , En2 
	.byte	W24
	.byte	PEND
@ 130   ----------------------------------------
	.byte	W96
@ 131   ----------------------------------------
	.byte	PATT
	 .word	mus_thpprf_darkpegasus_3_129
@ 132   ----------------------------------------
mus_thpprf_darkpegasus_3_132:
	.byte	W24
	.byte		N12   , En2 , v108
	.byte	W12
	.byte		        Gs2 
	.byte	W12
	.byte		N24   , An2 
	.byte	W24
	.byte		N12   , Fs2 
	.byte	W12
	.byte		        Fn2 
	.byte	W12
	.byte	PEND
@ 133   ----------------------------------------
	.byte	PATT
	 .word	mus_thpprf_darkpegasus_3_129
@ 134   ----------------------------------------
	.byte	W96
@ 135   ----------------------------------------
	.byte	PATT
	 .word	mus_thpprf_darkpegasus_3_129
@ 136   ----------------------------------------
	.byte	PATT
	 .word	mus_thpprf_darkpegasus_3_132
@ 137   ----------------------------------------
mus_thpprf_darkpegasus_3_137:
	.byte		N24   , An1 , v108
	.byte		N24   , Fn2 
	.byte	W72
	.byte		        An1 
	.byte		N24   , Fn2 
	.byte	W24
	.byte	PEND
@ 138   ----------------------------------------
	.byte	W96
@ 139   ----------------------------------------
	.byte	PATT
	 .word	mus_thpprf_darkpegasus_3_137
@ 140   ----------------------------------------
mus_thpprf_darkpegasus_3_140:
	.byte	W24
	.byte		N12   , Fn2 , v108
	.byte	W12
	.byte		        Gs2 
	.byte	W12
	.byte		N24   , An2 
	.byte	W24
	.byte		N12   , Gn2 
	.byte	W12
	.byte		        Gs2 
	.byte	W12
	.byte	PEND
@ 141   ----------------------------------------
	.byte	PATT
	 .word	mus_thpprf_darkpegasus_3_137
@ 142   ----------------------------------------
	.byte	W96
@ 143   ----------------------------------------
	.byte	PATT
	 .word	mus_thpprf_darkpegasus_3_137
@ 144   ----------------------------------------
	.byte	PATT
	 .word	mus_thpprf_darkpegasus_3_140
@ 145   ----------------------------------------
	.byte		N18   , An2 , v112
	.byte	W24
	.byte		N12   , Dn3 
	.byte	W12
	.byte		N18   , En3 
	.byte	W36
	.byte		N12   , An2 
	.byte	W12
	.byte		        Dn3 
	.byte	W12
@ 146   ----------------------------------------
	.byte		N24   , En3 
	.byte	W24
	.byte		        Gn3 
	.byte	W24
	.byte		N06   , Cn4 
	.byte	W06
	.byte		        Gn3 
	.byte	W06
	.byte		N18   , Fn3 
	.byte	W18
	.byte		N06   , En3 
	.byte	W06
	.byte		        Dn3 
	.byte	W06
	.byte		N78   , En3 
	.byte	W06
@ 147   ----------------------------------------
	.byte	W96
@ 148   ----------------------------------------
	.byte		N12   
	.byte	W12
	.byte		        Bn3 
	.byte	W12
	.byte		N36   , Cn4 
	.byte	W36
	.byte		N06   , Bn3 
	.byte	W06
	.byte		        As3 
	.byte	W06
	.byte		        An3 
	.byte	W06
	.byte		        Gs3 
	.byte	W06
	.byte		        Gn3 
	.byte	W06
	.byte		        Fs3 
	.byte	W06
@ 149   ----------------------------------------
	.byte		N48   , En3 
	.byte	W72
	.byte		N48   
	.byte	W24
@ 150   ----------------------------------------
	.byte	W24
	.byte		N24   , Gn3 
	.byte	W24
	.byte		N06   , Cn4 
	.byte	W06
	.byte		        Gn3 
	.byte	W06
	.byte		N18   , Fn3 
	.byte	W18
	.byte		N06   , En3 
	.byte	W06
	.byte		        Dn3 
	.byte	W12
@ 151   ----------------------------------------
	.byte		N48   , En3 
	.byte	W72
	.byte		N12   
	.byte	W12
	.byte		N36   , An3 
	.byte	W12
@ 152   ----------------------------------------
	.byte	W24
	.byte		N12   , Bn3 
	.byte	W12
	.byte		N24   , Cn4 
	.byte	W24
	.byte		N12   , Bn3 
	.byte	W12
	.byte		        An3 
	.byte	W12
	.byte		        Gn3 
	.byte	W12
@ 153   ----------------------------------------
mus_thpprf_darkpegasus_3_153:
	.byte		N36   , Cn3 , v112
	.byte		N36   , Fn3 
	.byte	W72
	.byte		        Cn3 
	.byte		N36   , Fn3 
	.byte	W24
	.byte	PEND
@ 154   ----------------------------------------
	.byte	W24
	.byte		N12   , Gn3 
	.byte	W12
	.byte		        Bn3 
	.byte	W12
	.byte		        Gn3 
	.byte	W12
	.byte		        Fn3 
	.byte	W12
	.byte		        En3 
	.byte	W12
	.byte		        Dn3 
	.byte	W12
@ 155   ----------------------------------------
	.byte		N36   , Cn3 
	.byte		N36   , Fn3 
	.byte	W72
	.byte		N24   
	.byte		N24   , An3 
	.byte	W24
@ 156   ----------------------------------------
	.byte		N12   
	.byte	W12
	.byte		        Bn3 
	.byte	W12
	.byte		        En3 
	.byte	W24
	.byte		        An3 
	.byte	W12
	.byte		        Bn3 
	.byte	W12
	.byte		N06   , An3 
	.byte	W06
	.byte		        Gs3 
	.byte	W06
	.byte		        Gn3 
	.byte	W06
	.byte		        Fs3 
	.byte	W06
@ 157   ----------------------------------------
	.byte	PATT
	 .word	mus_thpprf_darkpegasus_3_153
@ 158   ----------------------------------------
	.byte	W48
	.byte		N06   , Cn4 , v112
	.byte	W06
	.byte		        Gn3 
	.byte	W06
	.byte		N18   , Fn3 
	.byte	W18
	.byte		N06   , En3 
	.byte	W06
	.byte		        Dn3 
	.byte	W06
	.byte		N42   , Cn3 
	.byte		N42   , Fn3 
	.byte	W06
@ 159   ----------------------------------------
	.byte	W72
	.byte		N12   
	.byte	W12
	.byte		N24   , An3 
	.byte	W12
@ 160   ----------------------------------------
	.byte	W12
	.byte		N12   , Bn3 
	.byte	W12
	.byte		        En3 
	.byte	W24
	.byte		        An3 
	.byte	W12
	.byte		N06   , Cn4 
	.byte	W06
	.byte		        Bn3 
	.byte	W06
	.byte		        As3 
	.byte	W06
	.byte		        An3 
	.byte	W06
	.byte		        Gs3 
	.byte	W06
	.byte		        Gn3 
	.byte	W06
@ 161   ----------------------------------------
	.byte		VOICE , 8
	.byte		VOL   , 121*mus_thpprf_darkpegasus_mvl/mxv
	.byte		N24   , An2 , v088
	.byte		N24   , Cn3 
	.byte	W48
	.byte		        Gn2 
	.byte		N24   , Bn2 
	.byte	W24
	.byte		        An2 
	.byte		N24   , Cn3 
	.byte	W24
@ 162   ----------------------------------------
mus_thpprf_darkpegasus_3_162:
	.byte	W24
	.byte		N24   , Gn2 , v088
	.byte		N24   , Bn2 
	.byte	W48
	.byte		        An2 
	.byte		N24   , Cn3 
	.byte	W24
	.byte	PEND
@ 163   ----------------------------------------
mus_thpprf_darkpegasus_3_163:
	.byte		N24   , Gn2 , v088
	.byte		N24   , Bn2 
	.byte	W48
	.byte		        Dn2 
	.byte		N24   , Gn2 
	.byte	W24
	.byte		N24   
	.byte		N24   , Bn2 
	.byte	W24
	.byte	PEND
@ 164   ----------------------------------------
mus_thpprf_darkpegasus_3_164:
	.byte	W24
	.byte		N24   , Dn2 , v088
	.byte		N24   , Gn2 
	.byte	W48
	.byte		N24   
	.byte		N24   , Bn2 
	.byte	W24
	.byte	PEND
@ 165   ----------------------------------------
mus_thpprf_darkpegasus_3_165:
	.byte		N24   , Fn2 , v088
	.byte		N24   , An2 
	.byte	W48
	.byte		        Cn2 
	.byte		N24   , Fn2 
	.byte	W24
	.byte		N24   
	.byte		N24   , An2 
	.byte	W24
	.byte	PEND
@ 166   ----------------------------------------
mus_thpprf_darkpegasus_3_166:
	.byte	W24
	.byte		N24   , Cn2 , v088
	.byte		N24   , Fn2 
	.byte	W48
	.byte		N24   
	.byte		N24   , An2 
	.byte	W24
	.byte	PEND
@ 167   ----------------------------------------
	.byte	PATT
	 .word	mus_thpprf_darkpegasus_3_163
@ 168   ----------------------------------------
	.byte	PATT
	 .word	mus_thpprf_darkpegasus_3_164
@ 169   ----------------------------------------
mus_thpprf_darkpegasus_3_169:
	.byte		N24   , An2 , v088
	.byte		N24   , Cn3 
	.byte	W48
	.byte		        Gn2 
	.byte		N24   , Bn2 
	.byte	W24
	.byte		        An2 
	.byte		N24   , Cn3 
	.byte	W24
	.byte	PEND
@ 170   ----------------------------------------
	.byte	PATT
	 .word	mus_thpprf_darkpegasus_3_162
@ 171   ----------------------------------------
mus_thpprf_darkpegasus_3_171:
	.byte		N24   , Bn2 , v088
	.byte		N24   , Dn3 
	.byte	W48
	.byte		        Gn2 
	.byte		N24   , Bn2 
	.byte	W24
	.byte		N24   
	.byte		N24   , Dn3 
	.byte	W24
	.byte	PEND
@ 172   ----------------------------------------
mus_thpprf_darkpegasus_3_172:
	.byte	W24
	.byte		N24   , Gn2 , v088
	.byte		N24   , Bn2 
	.byte	W48
	.byte		N24   
	.byte		N24   , Dn3 
	.byte	W24
	.byte	PEND
@ 173   ----------------------------------------
mus_thpprf_darkpegasus_3_173:
	.byte		N24   , Cn3 , v088
	.byte		N24   , Fn3 
	.byte	W48
	.byte		        An2 
	.byte		N24   , Cn3 
	.byte	W24
	.byte		N24   
	.byte		N24   , Fn3 
	.byte	W24
	.byte	PEND
@ 174   ----------------------------------------
mus_thpprf_darkpegasus_3_174:
	.byte	W24
	.byte		N24   , An2 , v088
	.byte		N24   , Cn3 
	.byte	W48
	.byte		N24   
	.byte		N24   , Fn3 
	.byte	W24
	.byte	PEND
@ 175   ----------------------------------------
	.byte	PATT
	 .word	mus_thpprf_darkpegasus_3_171
@ 176   ----------------------------------------
	.byte	PATT
	 .word	mus_thpprf_darkpegasus_3_172
@ 177   ----------------------------------------
	.byte	PATT
	 .word	mus_thpprf_darkpegasus_3_169
@ 178   ----------------------------------------
	.byte	PATT
	 .word	mus_thpprf_darkpegasus_3_162
@ 179   ----------------------------------------
	.byte	PATT
	 .word	mus_thpprf_darkpegasus_3_163
@ 180   ----------------------------------------
	.byte	PATT
	 .word	mus_thpprf_darkpegasus_3_164
@ 181   ----------------------------------------
	.byte	PATT
	 .word	mus_thpprf_darkpegasus_3_165
@ 182   ----------------------------------------
	.byte	PATT
	 .word	mus_thpprf_darkpegasus_3_166
@ 183   ----------------------------------------
	.byte	PATT
	 .word	mus_thpprf_darkpegasus_3_163
@ 184   ----------------------------------------
	.byte	PATT
	 .word	mus_thpprf_darkpegasus_3_164
@ 185   ----------------------------------------
	.byte	PATT
	 .word	mus_thpprf_darkpegasus_3_169
@ 186   ----------------------------------------
	.byte	PATT
	 .word	mus_thpprf_darkpegasus_3_162
@ 187   ----------------------------------------
	.byte	PATT
	 .word	mus_thpprf_darkpegasus_3_171
@ 188   ----------------------------------------
	.byte	PATT
	 .word	mus_thpprf_darkpegasus_3_172
@ 189   ----------------------------------------
	.byte	PATT
	 .word	mus_thpprf_darkpegasus_3_173
@ 190   ----------------------------------------
	.byte	PATT
	 .word	mus_thpprf_darkpegasus_3_174
@ 191   ----------------------------------------
	.byte	PATT
	 .word	mus_thpprf_darkpegasus_3_171
@ 192   ----------------------------------------
	.byte	PATT
	 .word	mus_thpprf_darkpegasus_3_172
@ 193   ----------------------------------------
	.byte	W96
@ 194   ----------------------------------------
	.byte	W96
@ 195   ----------------------------------------
	.byte	W96
@ 196   ----------------------------------------
	.byte	W96
@ 197   ----------------------------------------
	.byte	W96
@ 198   ----------------------------------------
	.byte	W96
@ 199   ----------------------------------------
	.byte	W96
@ 200   ----------------------------------------
	.byte	W96
@ 201   ----------------------------------------
	.byte	W96
@ 202   ----------------------------------------
	.byte	W96
@ 203   ----------------------------------------
	.byte	W96
@ 204   ----------------------------------------
	.byte	W96
@ 205   ----------------------------------------
	.byte	W96
@ 206   ----------------------------------------
	.byte	W96
@ 207   ----------------------------------------
	.byte	W96
@ 208   ----------------------------------------
	.byte	W96
@ 209   ----------------------------------------
	.byte	W96
@ 210   ----------------------------------------
	.byte	W96
@ 211   ----------------------------------------
	.byte	W96
@ 212   ----------------------------------------
	.byte	W96
@ 213   ----------------------------------------
	.byte	W96
@ 214   ----------------------------------------
	.byte	W96
@ 215   ----------------------------------------
	.byte	W96
@ 216   ----------------------------------------
	.byte	W96
@ 217   ----------------------------------------
	.byte	W96
@ 218   ----------------------------------------
	.byte	W96
@ 219   ----------------------------------------
	.byte	W96
@ 220   ----------------------------------------
	.byte	W96
@ 221   ----------------------------------------
	.byte	W96
@ 222   ----------------------------------------
	.byte	W96
@ 223   ----------------------------------------
	.byte	W96
@ 224   ----------------------------------------
	.byte	W96
@ 225   ----------------------------------------
	.byte	W96
@ 226   ----------------------------------------
	.byte	W96
@ 227   ----------------------------------------
	.byte	W96
@ 228   ----------------------------------------
	.byte	W96
@ 229   ----------------------------------------
	.byte	W96
@ 230   ----------------------------------------
	.byte	W96
@ 231   ----------------------------------------
	.byte	W96
@ 232   ----------------------------------------
	.byte	W96
@ 233   ----------------------------------------
	.byte	W96
@ 234   ----------------------------------------
	.byte	W96
@ 235   ----------------------------------------
	.byte	W96
@ 236   ----------------------------------------
	.byte	W96
@ 237   ----------------------------------------
	.byte	W96
@ 238   ----------------------------------------
	.byte	W96
@ 239   ----------------------------------------
	.byte	W96
@ 240   ----------------------------------------
	.byte	W96
@ 241   ----------------------------------------
	.byte	W96
@ 242   ----------------------------------------
	.byte	W96
@ 243   ----------------------------------------
	.byte	W96
@ 244   ----------------------------------------
	.byte	W96
@ 245   ----------------------------------------
	.byte	W96
@ 246   ----------------------------------------
	.byte	W96
@ 247   ----------------------------------------
	.byte	W96
@ 248   ----------------------------------------
	.byte	W96
@ 249   ----------------------------------------
	.byte	W96
@ 250   ----------------------------------------
	.byte	W96
@ 251   ----------------------------------------
	.byte	W96
@ 252   ----------------------------------------
	.byte	W96
@ 253   ----------------------------------------
	.byte	W96
@ 254   ----------------------------------------
	.byte	W96
@ 255   ----------------------------------------
	.byte	W96
@ 256   ----------------------------------------
	.byte	W96
@ 257   ----------------------------------------
	.byte		VOL   , 100*mus_thpprf_darkpegasus_mvl/mxv
	.byte		TIE   , As1 , v096
	.byte		TIE   , Fn2 
	.byte	W96
@ 258   ----------------------------------------
	.byte	W72
	.byte		EOT   , As1 
	.byte		        Fn2 
	.byte	W24
@ 259   ----------------------------------------
	.byte		TIE   , Gs1 
	.byte		TIE   , Ds2 
	.byte	W96
@ 260   ----------------------------------------
	.byte	W72
	.byte		EOT   , Gs1 
	.byte		        Ds2 
	.byte	W24
@ 261   ----------------------------------------
	.byte		TIE   , Fs1 
	.byte		TIE   , Cs2 
	.byte	W96
@ 262   ----------------------------------------
	.byte	W72
	.byte		EOT   , Fs1 
	.byte		        Cs2 
	.byte	W24
@ 263   ----------------------------------------
	.byte		N72   , Gs1 
	.byte		N72   , Ds2 
	.byte	W96
@ 264   ----------------------------------------
mus_thpprf_darkpegasus_3_264:
	.byte		N18   , Gs1 , v096
	.byte		N18   , Ds2 
	.byte	W24
	.byte		N48   , Gs1 
	.byte		N48   , Ds2 
	.byte	W72
	.byte	PEND
@ 265   ----------------------------------------
	.byte		TIE   , As1 
	.byte		TIE   , Fn2 
	.byte	W96
@ 266   ----------------------------------------
	.byte	W72
	.byte		EOT   , As1 
	.byte		        Fn2 
	.byte	W24
@ 267   ----------------------------------------
	.byte		TIE   , Cn2 
	.byte		TIE   , Gs2 
	.byte	W96
@ 268   ----------------------------------------
	.byte	W72
	.byte		EOT   , Cn2 
	.byte		        Gs2 
	.byte	W24
@ 269   ----------------------------------------
	.byte		TIE   , Cs2 
	.byte		TIE   , Fs2 
	.byte	W96
@ 270   ----------------------------------------
	.byte	W72
	.byte		EOT   , Cs2 
	.byte		        Fs2 
	.byte	W24
@ 271   ----------------------------------------
	.byte		N72   , Gs1 
	.byte		N72   , Ds2 
	.byte	W96
@ 272   ----------------------------------------
	.byte	PATT
	 .word	mus_thpprf_darkpegasus_3_264
@ 273   ----------------------------------------
mus_thpprf_darkpegasus_3_273:
	.byte		N24   , Cs2 , v096
	.byte		N24   , As2 
	.byte	W48
	.byte		        Cn2 
	.byte		N24   , Gs2 
	.byte	W24
	.byte		        Cs2 
	.byte		N24   , As2 
	.byte	W24
	.byte	PEND
@ 274   ----------------------------------------
mus_thpprf_darkpegasus_3_274:
	.byte	W24
	.byte		N24   , Cn2 , v096
	.byte		N24   , Gs2 
	.byte	W48
	.byte		        Cs2 
	.byte		N24   , As2 
	.byte	W24
	.byte	PEND
@ 275   ----------------------------------------
mus_thpprf_darkpegasus_3_275:
	.byte		N24   , Cn2 , v096
	.byte		N24   , Gs2 
	.byte	W48
	.byte		        Gs1 
	.byte		N24   , Ds2 
	.byte	W24
	.byte		        Cn2 
	.byte		N24   , Gs2 
	.byte	W24
	.byte	PEND
@ 276   ----------------------------------------
mus_thpprf_darkpegasus_3_276:
	.byte	W24
	.byte		N24   , Gs1 , v096
	.byte		N24   , Ds2 
	.byte	W48
	.byte		        Cn2 
	.byte		N24   , Gs2 
	.byte	W24
	.byte	PEND
@ 277   ----------------------------------------
	.byte		        As1 
	.byte		N24   , Fs2 
	.byte	W48
	.byte		        Fs1 
	.byte		N24   , Cs2 
	.byte	W24
	.byte		        As1 
	.byte		N24   , Fs2 
	.byte	W24
@ 278   ----------------------------------------
	.byte	W24
	.byte		        Fs1 
	.byte		N24   , Cs2 
	.byte	W48
	.byte		        As1 
	.byte		N24   , Fs2 
	.byte	W24
@ 279   ----------------------------------------
	.byte	PATT
	 .word	mus_thpprf_darkpegasus_3_275
@ 280   ----------------------------------------
	.byte	PATT
	 .word	mus_thpprf_darkpegasus_3_276
@ 281   ----------------------------------------
	.byte	PATT
	 .word	mus_thpprf_darkpegasus_3_273
@ 282   ----------------------------------------
	.byte	PATT
	 .word	mus_thpprf_darkpegasus_3_274
@ 283   ----------------------------------------
mus_thpprf_darkpegasus_3_283:
	.byte		N24   , Ds2 , v096
	.byte		N24   , Cn3 
	.byte	W48
	.byte		        Cn2 
	.byte		N24   , Gs2 
	.byte	W24
	.byte		        Ds2 
	.byte		N24   , Cn3 
	.byte	W24
	.byte	PEND
@ 284   ----------------------------------------
mus_thpprf_darkpegasus_3_284:
	.byte	W24
	.byte		N24   , Cn2 , v096
	.byte		N24   , Gs2 
	.byte	W48
	.byte		        Ds2 
	.byte		N24   , Cn3 
	.byte	W24
	.byte	PEND
@ 285   ----------------------------------------
	.byte		        Fs2 
	.byte		N24   , Cs3 
	.byte	W48
	.byte		        Cs2 
	.byte		N24   , As2 
	.byte	W24
	.byte		        Fs2 
	.byte		N24   , Cs3 
	.byte	W24
@ 286   ----------------------------------------
	.byte	W24
	.byte		        Cs2 
	.byte		N24   , As2 
	.byte	W48
	.byte		        Fs2 
	.byte		N24   , Cs3 
	.byte	W24
@ 287   ----------------------------------------
	.byte	PATT
	 .word	mus_thpprf_darkpegasus_3_283
@ 288   ----------------------------------------
	.byte	PATT
	 .word	mus_thpprf_darkpegasus_3_284
@ 289   ----------------------------------------
	.byte		VOICE , 48
	.byte		VOL   , 90*mus_thpprf_darkpegasus_mvl/mxv
	.byte		N24   , As1 , v108
	.byte		N24   , Fn2 
	.byte	W72
	.byte		        As1 
	.byte		N24   , Fn2 
	.byte	W24
@ 290   ----------------------------------------
	.byte	W96
@ 291   ----------------------------------------
mus_thpprf_darkpegasus_3_291:
	.byte		N24   , As1 , v108
	.byte		N24   , Fn2 
	.byte	W72
	.byte		        As1 
	.byte		N24   , Fn2 
	.byte	W24
	.byte	PEND
@ 292   ----------------------------------------
mus_thpprf_darkpegasus_3_292:
	.byte	W24
	.byte		N12   , Fn2 , v108
	.byte	W12
	.byte		        An2 
	.byte	W12
	.byte		N24   , As2 
	.byte	W24
	.byte		N12   , Gn2 
	.byte	W12
	.byte		        Fs2 
	.byte	W12
	.byte	PEND
@ 293   ----------------------------------------
	.byte	PATT
	 .word	mus_thpprf_darkpegasus_3_291
@ 294   ----------------------------------------
	.byte	W96
@ 295   ----------------------------------------
	.byte	PATT
	 .word	mus_thpprf_darkpegasus_3_291
@ 296   ----------------------------------------
	.byte	PATT
	 .word	mus_thpprf_darkpegasus_3_292
@ 297   ----------------------------------------
mus_thpprf_darkpegasus_3_297:
	.byte		N24   , As1 , v108
	.byte		N24   , Fs2 
	.byte	W72
	.byte		        As1 
	.byte		N24   , Fs2 
	.byte	W24
	.byte	PEND
@ 298   ----------------------------------------
	.byte	W96
@ 299   ----------------------------------------
	.byte	PATT
	 .word	mus_thpprf_darkpegasus_3_297
@ 300   ----------------------------------------
mus_thpprf_darkpegasus_3_300:
	.byte	W24
	.byte		N12   , Fs2 , v108
	.byte	W12
	.byte		        An2 
	.byte	W12
	.byte		N24   , As2 
	.byte	W24
	.byte		N12   , Gs2 
	.byte	W12
	.byte		        An2 
	.byte	W12
	.byte	PEND
@ 301   ----------------------------------------
	.byte	PATT
	 .word	mus_thpprf_darkpegasus_3_297
@ 302   ----------------------------------------
	.byte	W96
@ 303   ----------------------------------------
	.byte	PATT
	 .word	mus_thpprf_darkpegasus_3_297
@ 304   ----------------------------------------
	.byte	PATT
	 .word	mus_thpprf_darkpegasus_3_300
@ 305   ----------------------------------------
	.byte	PATT
	 .word	mus_thpprf_darkpegasus_3_291
@ 306   ----------------------------------------
	.byte	W96
@ 307   ----------------------------------------
	.byte	PATT
	 .word	mus_thpprf_darkpegasus_3_291
@ 308   ----------------------------------------
	.byte	PATT
	 .word	mus_thpprf_darkpegasus_3_292
@ 309   ----------------------------------------
	.byte	PATT
	 .word	mus_thpprf_darkpegasus_3_291
@ 310   ----------------------------------------
	.byte	W96
@ 311   ----------------------------------------
	.byte	PATT
	 .word	mus_thpprf_darkpegasus_3_291
@ 312   ----------------------------------------
	.byte	PATT
	 .word	mus_thpprf_darkpegasus_3_292
@ 313   ----------------------------------------
	.byte	PATT
	 .word	mus_thpprf_darkpegasus_3_297
@ 314   ----------------------------------------
	.byte	W96
@ 315   ----------------------------------------
	.byte	PATT
	 .word	mus_thpprf_darkpegasus_3_297
@ 316   ----------------------------------------
	.byte	PATT
	 .word	mus_thpprf_darkpegasus_3_300
@ 317   ----------------------------------------
	.byte	PATT
	 .word	mus_thpprf_darkpegasus_3_297
@ 318   ----------------------------------------
	.byte	W96
@ 319   ----------------------------------------
	.byte	PATT
	 .word	mus_thpprf_darkpegasus_3_297
@ 320   ----------------------------------------
	.byte	PATT
	 .word	mus_thpprf_darkpegasus_3_300
@ 321   ----------------------------------------
	.byte	GOTO
	.word	mus_thpprf_darkpegasus_3_033
	.byte	FINE

@**************** Track 4 (Midi-Chn.4) ****************@

mus_thpprf_darkpegasus_4:
	.byte	KEYSH , mus_thpprf_darkpegasus_key+0
@ 000   ----------------------------------------
	.byte		VOICE , 56
	.byte		PAN   , c_v-9
	.byte		VOL   , 98*mus_thpprf_darkpegasus_mvl/mxv
	.byte		BEND  , c_v+0
@ 001   ----------------------------------------
	.byte	W96
@ 002   ----------------------------------------
	.byte	W96
@ 003   ----------------------------------------
	.byte	W96
@ 004   ----------------------------------------
	.byte	W96
@ 005   ----------------------------------------
	.byte	W96
@ 006   ----------------------------------------
	.byte	W96
@ 007   ----------------------------------------
	.byte	W96
@ 008   ----------------------------------------
	.byte	W96
@ 009   ----------------------------------------
	.byte	W96
@ 010   ----------------------------------------
	.byte	W96
@ 011   ----------------------------------------
	.byte	W96
@ 012   ----------------------------------------
	.byte	W96
@ 013   ----------------------------------------
	.byte	W96
@ 014   ----------------------------------------
	.byte	W96
@ 015   ----------------------------------------
	.byte	W96
@ 016   ----------------------------------------
	.byte	W96
@ 017   ----------------------------------------
	.byte	W96
@ 018   ----------------------------------------
	.byte	W96
@ 019   ----------------------------------------
	.byte	W96
@ 020   ----------------------------------------
	.byte	W96
@ 021   ----------------------------------------
	.byte	W96
@ 022   ----------------------------------------
	.byte	W96
@ 023   ----------------------------------------
	.byte	W96
@ 024   ----------------------------------------
	.byte	W96
@ 025   ----------------------------------------
	.byte	W96
@ 026   ----------------------------------------
	.byte	W96
@ 027   ----------------------------------------
	.byte	W96
@ 028   ----------------------------------------
	.byte	W96
@ 029   ----------------------------------------
	.byte	W96
@ 030   ----------------------------------------
	.byte	W96
@ 031   ----------------------------------------
	.byte	W96
@ 032   ----------------------------------------
	.byte	W96
@ 033   ----------------------------------------
mus_thpprf_darkpegasus_4_033:
	.byte	W96
@ 034   ----------------------------------------
	.byte	W96
@ 035   ----------------------------------------
	.byte	W96
@ 036   ----------------------------------------
	.byte	W96
@ 037   ----------------------------------------
	.byte	W96
@ 038   ----------------------------------------
	.byte	W96
@ 039   ----------------------------------------
	.byte	W96
@ 040   ----------------------------------------
	.byte	W96
@ 041   ----------------------------------------
	.byte	W96
@ 042   ----------------------------------------
	.byte	W96
@ 043   ----------------------------------------
	.byte	W96
@ 044   ----------------------------------------
	.byte	W96
@ 045   ----------------------------------------
	.byte	W96
@ 046   ----------------------------------------
	.byte	W96
@ 047   ----------------------------------------
	.byte	W96
@ 048   ----------------------------------------
	.byte	W96
@ 049   ----------------------------------------
	.byte	W96
@ 050   ----------------------------------------
	.byte	W96
@ 051   ----------------------------------------
	.byte	W96
@ 052   ----------------------------------------
	.byte	W96
@ 053   ----------------------------------------
	.byte	W96
@ 054   ----------------------------------------
	.byte	W96
@ 055   ----------------------------------------
	.byte	W96
@ 056   ----------------------------------------
	.byte	W96
@ 057   ----------------------------------------
	.byte	W96
@ 058   ----------------------------------------
	.byte	W96
@ 059   ----------------------------------------
	.byte	W96
@ 060   ----------------------------------------
	.byte	W96
@ 061   ----------------------------------------
	.byte	W96
@ 062   ----------------------------------------
	.byte	W96
@ 063   ----------------------------------------
	.byte	W96
@ 064   ----------------------------------------
	.byte	W96
@ 065   ----------------------------------------
	.byte	W96
@ 066   ----------------------------------------
	.byte	W96
@ 067   ----------------------------------------
	.byte	W96
@ 068   ----------------------------------------
	.byte	W96
@ 069   ----------------------------------------
	.byte	W96
@ 070   ----------------------------------------
	.byte	W96
@ 071   ----------------------------------------
	.byte	W96
@ 072   ----------------------------------------
	.byte	W96
@ 073   ----------------------------------------
	.byte	W96
@ 074   ----------------------------------------
	.byte	W96
@ 075   ----------------------------------------
	.byte	W96
@ 076   ----------------------------------------
	.byte	W96
@ 077   ----------------------------------------
	.byte	W96
@ 078   ----------------------------------------
	.byte	W96
@ 079   ----------------------------------------
	.byte	W96
@ 080   ----------------------------------------
	.byte	W96
@ 081   ----------------------------------------
	.byte	W96
@ 082   ----------------------------------------
	.byte	W96
@ 083   ----------------------------------------
	.byte	W96
@ 084   ----------------------------------------
	.byte	W96
@ 085   ----------------------------------------
	.byte	W96
@ 086   ----------------------------------------
	.byte	W96
@ 087   ----------------------------------------
	.byte	W96
@ 088   ----------------------------------------
	.byte	W96
@ 089   ----------------------------------------
	.byte	W96
@ 090   ----------------------------------------
	.byte	W96
@ 091   ----------------------------------------
	.byte	W96
@ 092   ----------------------------------------
	.byte	W96
@ 093   ----------------------------------------
	.byte	W96
@ 094   ----------------------------------------
	.byte	W96
@ 095   ----------------------------------------
	.byte	W96
@ 096   ----------------------------------------
	.byte	W96
@ 097   ----------------------------------------
	.byte	W96
@ 098   ----------------------------------------
	.byte	W96
@ 099   ----------------------------------------
	.byte	W96
@ 100   ----------------------------------------
	.byte	W96
@ 101   ----------------------------------------
	.byte	W96
@ 102   ----------------------------------------
	.byte	W96
@ 103   ----------------------------------------
	.byte	W96
@ 104   ----------------------------------------
	.byte	W96
@ 105   ----------------------------------------
	.byte	W96
@ 106   ----------------------------------------
	.byte	W96
@ 107   ----------------------------------------
	.byte	W96
@ 108   ----------------------------------------
	.byte	W96
@ 109   ----------------------------------------
	.byte	W96
@ 110   ----------------------------------------
	.byte	W96
@ 111   ----------------------------------------
	.byte	W96
@ 112   ----------------------------------------
	.byte	W96
@ 113   ----------------------------------------
	.byte	W96
@ 114   ----------------------------------------
	.byte	W96
@ 115   ----------------------------------------
	.byte	W96
@ 116   ----------------------------------------
	.byte	W96
@ 117   ----------------------------------------
	.byte	W96
@ 118   ----------------------------------------
	.byte	W96
@ 119   ----------------------------------------
	.byte	W96
@ 120   ----------------------------------------
	.byte	W96
@ 121   ----------------------------------------
	.byte	W96
@ 122   ----------------------------------------
	.byte	W96
@ 123   ----------------------------------------
	.byte	W96
@ 124   ----------------------------------------
	.byte	W96
@ 125   ----------------------------------------
	.byte	W96
@ 126   ----------------------------------------
	.byte	W96
@ 127   ----------------------------------------
	.byte	W96
@ 128   ----------------------------------------
	.byte	W96
@ 129   ----------------------------------------
	.byte	W96
@ 130   ----------------------------------------
	.byte	W96
@ 131   ----------------------------------------
	.byte	W96
@ 132   ----------------------------------------
	.byte	W96
@ 133   ----------------------------------------
	.byte	W96
@ 134   ----------------------------------------
	.byte	W96
@ 135   ----------------------------------------
	.byte	W96
@ 136   ----------------------------------------
	.byte	W96
@ 137   ----------------------------------------
	.byte	W96
@ 138   ----------------------------------------
	.byte	W96
@ 139   ----------------------------------------
	.byte	W96
@ 140   ----------------------------------------
	.byte	W96
@ 141   ----------------------------------------
	.byte	W96
@ 142   ----------------------------------------
	.byte	W96
@ 143   ----------------------------------------
	.byte	W96
@ 144   ----------------------------------------
	.byte	W96
@ 145   ----------------------------------------
	.byte	W96
@ 146   ----------------------------------------
	.byte	W96
@ 147   ----------------------------------------
	.byte	W96
@ 148   ----------------------------------------
	.byte	W96
@ 149   ----------------------------------------
	.byte	W96
@ 150   ----------------------------------------
	.byte	W96
@ 151   ----------------------------------------
	.byte	W96
@ 152   ----------------------------------------
	.byte	W96
@ 153   ----------------------------------------
	.byte	W96
@ 154   ----------------------------------------
	.byte	W96
@ 155   ----------------------------------------
	.byte	W96
@ 156   ----------------------------------------
	.byte	W96
@ 157   ----------------------------------------
	.byte	W96
@ 158   ----------------------------------------
	.byte	W96
@ 159   ----------------------------------------
	.byte	W96
@ 160   ----------------------------------------
	.byte	W96
@ 161   ----------------------------------------
	.byte		VOICE , 56
	.byte		VOL   , 94*mus_thpprf_darkpegasus_mvl/mxv
	.byte		TIE   , En2 , v124
	.byte		TIE   , En3 
	.byte	W96
@ 162   ----------------------------------------
	.byte	W48
	.byte		EOT   , En2 
	.byte		        En3 
	.byte		N48   , Cn3 
	.byte		N48   , Cn4 
	.byte	W48
@ 163   ----------------------------------------
	.byte		N96   , Bn2 
	.byte		N96   , Bn3 
	.byte	W96
@ 164   ----------------------------------------
mus_thpprf_darkpegasus_4_164:
	.byte		N48   , Gn2 , v124
	.byte		N48   , Gn3 
	.byte	W48
	.byte		N24   , Dn2 
	.byte		N24   , Dn3 
	.byte	W24
	.byte		TIE   , En2 
	.byte		TIE   , En3 
	.byte	W24
	.byte	PEND
@ 165   ----------------------------------------
	.byte	W96
@ 166   ----------------------------------------
	.byte	W72
	.byte		EOT   , En2 
	.byte		        En3 
	.byte		N24   
	.byte		N24   , En4 
	.byte	W24
@ 167   ----------------------------------------
mus_thpprf_darkpegasus_4_167:
	.byte		N24   , Dn3 , v124
	.byte		N24   , Dn4 
	.byte	W24
	.byte		        Cn3 
	.byte		N24   , Cn4 
	.byte	W24
	.byte		        Bn2 
	.byte		N24   , Bn3 
	.byte	W24
	.byte		        Cn3 
	.byte		N24   , Cn4 
	.byte	W24
	.byte	PEND
@ 168   ----------------------------------------
mus_thpprf_darkpegasus_4_168:
	.byte		N24   , Bn2 , v124
	.byte		N24   , Bn3 
	.byte	W24
	.byte		N48   , Gn2 
	.byte		N48   , Gn3 
	.byte	W48
	.byte		TIE   , An2 
	.byte		TIE   , An3 
	.byte	W24
	.byte	PEND
@ 169   ----------------------------------------
	.byte	W96
@ 170   ----------------------------------------
	.byte	W48
	.byte		EOT   , An2 
	.byte		        An3 
	.byte		N24   , En3 
	.byte		N24   , En4 
	.byte	W24
	.byte		N72   , Gn3 
	.byte		N72   , Gn4 
	.byte	W24
@ 171   ----------------------------------------
mus_thpprf_darkpegasus_4_171:
	.byte	W48
	.byte		N48   , Dn3 , v124
	.byte		N48   , Dn4 
	.byte	W48
	.byte	PEND
@ 172   ----------------------------------------
mus_thpprf_darkpegasus_4_172:
	.byte		N48   , Bn2 , v124
	.byte		N48   , Bn3 
	.byte	W48
	.byte		N24   , Dn3 
	.byte		N24   , Dn4 
	.byte	W24
	.byte		TIE   , Cn3 
	.byte		TIE   , Cn4 
	.byte	W24
	.byte	PEND
@ 173   ----------------------------------------
	.byte	W96
@ 174   ----------------------------------------
	.byte	W48
	.byte		EOT   , Cn3 
	.byte		        Cn4 
	.byte		N24   , Bn2 
	.byte		N24   , Bn3 
	.byte	W24
	.byte		        Cn3 
	.byte		N24   , Cn4 
	.byte	W24
@ 175   ----------------------------------------
	.byte		        Bn2 
	.byte		N24   , Bn3 
	.byte	W24
	.byte		        Cn3 
	.byte		N24   , Cn4 
	.byte	W24
	.byte		        Bn2 
	.byte		N24   , Bn3 
	.byte	W24
	.byte		        Gn2 
	.byte		N24   , Gn3 
	.byte	W24
@ 176   ----------------------------------------
	.byte		        Dn2 
	.byte		N24   , Dn3 
	.byte	W24
	.byte		N48   , Gn2 
	.byte		N48   , Gn3 
	.byte	W48
	.byte		N06   , Fn2 
	.byte		N06   , Fn3 
	.byte	W06
	.byte		TIE   , En2 
	.byte		TIE   , En3 
	.byte	W18
@ 177   ----------------------------------------
	.byte	W96
@ 178   ----------------------------------------
	.byte	W48
	.byte		EOT   , En2 
	.byte		        En3 
	.byte		N48   , Cn3 
	.byte		N48   , Cn4 
	.byte	W48
@ 179   ----------------------------------------
	.byte		N96   , Bn2 
	.byte		N96   , Bn3 
	.byte	W96
@ 180   ----------------------------------------
	.byte	PATT
	 .word	mus_thpprf_darkpegasus_4_164
@ 181   ----------------------------------------
	.byte	W96
@ 182   ----------------------------------------
	.byte	W72
	.byte		EOT   , En2 
	.byte		        En3 
	.byte		N24   , En3 , v124
	.byte		N24   , En4 
	.byte	W24
@ 183   ----------------------------------------
	.byte	PATT
	 .word	mus_thpprf_darkpegasus_4_167
@ 184   ----------------------------------------
	.byte	PATT
	 .word	mus_thpprf_darkpegasus_4_168
@ 185   ----------------------------------------
	.byte	W96
@ 186   ----------------------------------------
	.byte	W48
	.byte		EOT   , An2 
	.byte		        An3 
	.byte		N24   , En3 , v124
	.byte		N24   , En4 
	.byte	W24
	.byte		N72   , Gn3 
	.byte		N72   , Gn4 
	.byte	W24
@ 187   ----------------------------------------
	.byte	PATT
	 .word	mus_thpprf_darkpegasus_4_171
@ 188   ----------------------------------------
	.byte	PATT
	 .word	mus_thpprf_darkpegasus_4_172
@ 189   ----------------------------------------
	.byte	W96
@ 190   ----------------------------------------
	.byte	W48
	.byte		EOT   , Cn3 
	.byte		        Cn4 
	.byte		N24   , Bn2 , v124
	.byte		N24   , Bn3 
	.byte	W24
	.byte		        Cn3 
	.byte		N24   , Cn4 
	.byte	W24
@ 191   ----------------------------------------
	.byte		        Dn3 
	.byte		N24   , Dn4 
	.byte	W24
	.byte		        Gn3 
	.byte		N24   , Gn4 
	.byte	W24
	.byte		        An3 
	.byte		N24   , An4 
	.byte	W24
	.byte		        Bn3 
	.byte		N24   , Bn4 
	.byte	W24
@ 192   ----------------------------------------
	.byte		        Gn3 
	.byte		N24   , Gn4 
	.byte	W24
	.byte		N48   , Bn3 
	.byte		N48   , Bn4 
	.byte	W48
	.byte		N06   , As3 
	.byte		N06   , As4 
	.byte	W06
	.byte		        An3 
	.byte		N06   , An4 
	.byte	W06
	.byte		        Gs3 
	.byte		N06   , Gs4 
	.byte	W06
	.byte		        Gn3 
	.byte		N06   , Gn4 
	.byte	W06
@ 193   ----------------------------------------
mus_thpprf_darkpegasus_4_193:
	.byte		N72   , En2 , v120
	.byte		N72   , En3 
	.byte		N72   , En4 
	.byte	W78
	.byte		N06   , Cs3 
	.byte		N06   , Cs4 
	.byte	W06
	.byte		        Dn3 
	.byte		N06   , Dn4 
	.byte	W06
	.byte		        Ds3 
	.byte		N06   , Ds4 
	.byte	W06
	.byte	PEND
@ 194   ----------------------------------------
mus_thpprf_darkpegasus_4_194:
	.byte		N30   , En2 , v120
	.byte		N36   , En3 
	.byte		N36   , En4 
	.byte	W36
	.byte		        Cn3 
	.byte		N30   , En3 
	.byte		N36   , Cn4 
	.byte	W36
	.byte		N24   , En2 
	.byte		N24   , En3 
	.byte		N24   , En4 
	.byte	W24
	.byte	PEND
@ 195   ----------------------------------------
mus_thpprf_darkpegasus_4_195:
	.byte		N72   , Ds2 , v120
	.byte		N72   , Ds3 
	.byte		N72   , Ds4 
	.byte	W78
	.byte		N06   , Cn3 
	.byte		N06   , Cn4 
	.byte	W06
	.byte		        Cs3 
	.byte		N06   , Cs4 
	.byte	W06
	.byte		        Dn3 
	.byte		N06   , Dn4 
	.byte	W06
	.byte	PEND
@ 196   ----------------------------------------
mus_thpprf_darkpegasus_4_196:
	.byte		N30   , Ds2 , v120
	.byte		N36   , Ds3 
	.byte		N36   , Ds4 
	.byte	W36
	.byte		        Cn3 
	.byte		N30   , Ds3 
	.byte		N36   , Cn4 
	.byte	W36
	.byte		N24   , Ds2 
	.byte		N24   , Ds3 
	.byte		N24   , Ds4 
	.byte	W24
	.byte	PEND
@ 197   ----------------------------------------
mus_thpprf_darkpegasus_4_197:
	.byte		N72   , Dn2 , v120
	.byte		N72   , Dn3 
	.byte		N72   , Dn4 
	.byte	W78
	.byte		N06   , Bn2 
	.byte		N06   , Bn3 
	.byte	W06
	.byte		        Cn3 
	.byte		N06   , Cn4 
	.byte	W06
	.byte		        Cs3 
	.byte		N06   , Cs4 
	.byte	W06
	.byte	PEND
@ 198   ----------------------------------------
mus_thpprf_darkpegasus_4_198:
	.byte		N30   , Dn2 , v120
	.byte		N36   , Dn3 
	.byte		N36   , Dn4 
	.byte	W36
	.byte		        As2 
	.byte		N30   , Dn3 
	.byte		N36   , As3 
	.byte	W36
	.byte		N24   , Dn2 
	.byte		N24   , Dn3 
	.byte		N24   , Dn4 
	.byte	W24
	.byte	PEND
@ 199   ----------------------------------------
mus_thpprf_darkpegasus_4_199:
	.byte		N30   , Cs2 , v120
	.byte		N30   , Cs3 
	.byte		N30   , Cs4 
	.byte	W36
	.byte		        An2 
	.byte		N30   , Cs3 
	.byte		N30   , An3 
	.byte	W36
	.byte		N24   , Cs2 
	.byte		N24   , Cs3 
	.byte		N24   , Cs4 
	.byte	W24
	.byte	PEND
@ 200   ----------------------------------------
mus_thpprf_darkpegasus_4_200:
	.byte		N30   , Cn2 , v120
	.byte		N30   , Cn3 
	.byte		N30   , Cn4 
	.byte	W36
	.byte		        Gs2 
	.byte		N30   , Cn3 
	.byte		N30   , Gs3 
	.byte	W36
	.byte		N24   , Cn2 
	.byte		N24   , Cn3 
	.byte		N24   , Cn4 
	.byte	W24
	.byte	PEND
@ 201   ----------------------------------------
mus_thpprf_darkpegasus_4_201:
	.byte		N72   , Cs2 , v120
	.byte		N72   , Cs3 
	.byte		N72   , Cs4 
	.byte	W96
	.byte	PEND
@ 202   ----------------------------------------
mus_thpprf_darkpegasus_4_202:
	.byte		N36   , Cs3 , v120
	.byte		N30   , En3 
	.byte		N36   , Cs4 
	.byte	W36
	.byte		N30   , En2 
	.byte		N36   , En3 
	.byte		N36   , En4 
	.byte	W36
	.byte		N24   , En3 
	.byte		N24   , Gn3 
	.byte		N24   , Gn4 
	.byte	W24
	.byte	PEND
@ 203   ----------------------------------------
	.byte		N90   , Gs2 
	.byte		N60   , Gs3 
	.byte		N60   , Gs4 
	.byte	W60
	.byte		N06   , Gn3 
	.byte		N06   , Gn4 
	.byte	W06
	.byte		        Fs3 
	.byte		N06   , Fs4 
	.byte	W30
@ 204   ----------------------------------------
mus_thpprf_darkpegasus_4_204:
	.byte		N48   , Ds3 , v120
	.byte		N42   , Gs3 
	.byte		N48   , Ds4 
	.byte	W48
	.byte		N42   , Gs2 
	.byte		N48   , Gs3 
	.byte		N48   , Gs4 
	.byte	W48
	.byte	PEND
@ 205   ----------------------------------------
	.byte		N90   , Gn2 
	.byte		N72   , Gn3 
	.byte		N72   , Gn4 
	.byte	W96
@ 206   ----------------------------------------
	.byte		N48   , Ds3 
	.byte		N42   , Gn3 
	.byte		N48   , Ds4 
	.byte	W48
	.byte		N42   , Gn2 
	.byte		N48   , Gn3 
	.byte		N48   , Gn4 
	.byte	W48
@ 207   ----------------------------------------
	.byte		N36   , Gs2 
	.byte		N36   , Gs3 
	.byte		N36   , Gs4 
	.byte	W36
	.byte		        Ds2 
	.byte		N36   , Ds3 
	.byte		N36   , Ds4 
	.byte	W36
	.byte		N24   , Cs2 
	.byte		N24   , Cs3 
	.byte		N24   , Cs4 
	.byte	W24
@ 208   ----------------------------------------
	.byte		N48   , Cn2 
	.byte		N96   , Cn3 
	.byte		N96   , Cn4 
	.byte	W48
	.byte		N48   , Ds3 
	.byte	W48
@ 209   ----------------------------------------
	.byte	PATT
	 .word	mus_thpprf_darkpegasus_4_193
@ 210   ----------------------------------------
	.byte	PATT
	 .word	mus_thpprf_darkpegasus_4_194
@ 211   ----------------------------------------
	.byte	PATT
	 .word	mus_thpprf_darkpegasus_4_195
@ 212   ----------------------------------------
	.byte	PATT
	 .word	mus_thpprf_darkpegasus_4_196
@ 213   ----------------------------------------
	.byte	PATT
	 .word	mus_thpprf_darkpegasus_4_197
@ 214   ----------------------------------------
	.byte	PATT
	 .word	mus_thpprf_darkpegasus_4_198
@ 215   ----------------------------------------
	.byte	PATT
	 .word	mus_thpprf_darkpegasus_4_199
@ 216   ----------------------------------------
	.byte	PATT
	 .word	mus_thpprf_darkpegasus_4_200
@ 217   ----------------------------------------
	.byte	PATT
	 .word	mus_thpprf_darkpegasus_4_201
@ 218   ----------------------------------------
	.byte	PATT
	 .word	mus_thpprf_darkpegasus_4_202
@ 219   ----------------------------------------
	.byte		N90   , Gs2 , v120
	.byte		N60   , Gs3 
	.byte		N60   , Gs4 
	.byte	W96
@ 220   ----------------------------------------
	.byte	PATT
	 .word	mus_thpprf_darkpegasus_4_204
@ 221   ----------------------------------------
	.byte		N30   , Gn2 , v120
	.byte		N36   , Gn3 
	.byte		N36   , Gn4 
	.byte	W36
	.byte		        Ds3 
	.byte		N30   , Gn3 
	.byte		N36   , Ds4 
	.byte	W36
	.byte		N24   , Gn2 
	.byte		N24   , Gn3 
	.byte		N24   , Gn4 
	.byte	W24
@ 222   ----------------------------------------
	.byte		N36   , Gs3 
	.byte		N30   , As3 
	.byte		N36   , Gs4 
	.byte	W36
	.byte		N30   , As2 
	.byte		N36   , As3 
	.byte		N36   , As4 
	.byte	W36
	.byte		N24   , As3 
	.byte		N24   , Cs4 
	.byte		N24   , Cs5 
	.byte	W24
@ 223   ----------------------------------------
	.byte		VOL   , 88*mus_thpprf_darkpegasus_mvl/mxv
	.byte		N24   , Cn3 
	.byte		N24   , Cn4 
	.byte		N24   , Cn5 
	.byte	W24
	.byte		        Gs2 
	.byte		N24   , Gs3 
	.byte		N24   , Gs4 
	.byte	W24
	.byte		        Cn3 
	.byte		N24   , Cn4 
	.byte		N24   , Cn5 
	.byte	W24
	.byte		        Ds3 
	.byte		N24   , Ds4 
	.byte		N24   , Ds5 
	.byte	W24
@ 224   ----------------------------------------
	.byte		N48   , Cs3 
	.byte		N48   , Cs4 
	.byte		N48   , Cs5 
	.byte	W48
	.byte		N24   , Cn3 
	.byte		N24   , Cn4 
	.byte		N24   , Cn5 
	.byte	W24
	.byte		N12   , Bn2 
	.byte		N12   , Bn3 
	.byte		N12   , Bn4 
	.byte	W12
	.byte		        As2 
	.byte		N12   , As3 
	.byte		N12   , As4 
	.byte	W12
@ 225   ----------------------------------------
mus_thpprf_darkpegasus_4_225:
	.byte		N60   , As3 , v120
	.byte		N60   , Fn4 
	.byte		N60   , As4 
	.byte	W78
	.byte		N06   , Dn3 
	.byte		N06   , Dn4 
	.byte	W06
	.byte		        Ds3 
	.byte		N06   , Ds4 
	.byte	W06
	.byte		        En3 
	.byte		N06   , En4 
	.byte	W06
	.byte	PEND
@ 226   ----------------------------------------
mus_thpprf_darkpegasus_4_226:
	.byte		N36   , As3 , v120
	.byte		N36   , Fn4 
	.byte		N36   , As4 
	.byte	W36
	.byte		        Gs3 
	.byte		N36   , Cs4 
	.byte		N36   , Gs4 
	.byte	W36
	.byte		N24   , Cn4 
	.byte		N24   , Fn4 
	.byte		N24   , Cn5 
	.byte	W24
	.byte	PEND
@ 227   ----------------------------------------
mus_thpprf_darkpegasus_4_227:
	.byte		N60   , Cs4 , v120
	.byte		N60   , En4 
	.byte		N60   , Cs5 
	.byte	W78
	.byte		N06   , Cs3 
	.byte		N06   , Cs4 
	.byte		N06   , Cs5 
	.byte	W06
	.byte		        Dn3 
	.byte		N06   , Dn4 
	.byte		N06   , Dn5 
	.byte	W06
	.byte		        Ds3 
	.byte		N06   , Ds4 
	.byte		N06   , Ds5 
	.byte	W06
	.byte	PEND
@ 228   ----------------------------------------
mus_thpprf_darkpegasus_4_228:
	.byte		N36   , En3 , v120
	.byte		N36   , En4 
	.byte		N36   , En5 
	.byte	W36
	.byte		        As3 
	.byte		N36   , Cs4 
	.byte		N36   , As4 
	.byte	W36
	.byte		N24   , Cn4 
	.byte		N24   , En4 
	.byte		N24   , Cn5 
	.byte	W24
	.byte	PEND
@ 229   ----------------------------------------
mus_thpprf_darkpegasus_4_229:
	.byte		N60   , Cs4 , v120
	.byte		N60   , Ds4 
	.byte		N60   , Cs5 
	.byte	W78
	.byte		N06   , Cn3 
	.byte		N06   , Cn4 
	.byte	W06
	.byte		        Cs3 
	.byte		N06   , Cs4 
	.byte	W06
	.byte		        Dn3 
	.byte		N06   , Dn4 
	.byte	W06
	.byte	PEND
@ 230   ----------------------------------------
mus_thpprf_darkpegasus_4_230:
	.byte		N36   , Ds3 , v120
	.byte		N36   , Ds4 
	.byte		N36   , Ds5 
	.byte	W36
	.byte		        Bn2 
	.byte		N36   , Bn3 
	.byte		N36   , Bn4 
	.byte	W36
	.byte		N12   , Cn4 
	.byte		N24   , Ds4 
	.byte		N12   , Cn5 
	.byte	W12
	.byte		        Cs4 
	.byte		N12   , Cs5 
	.byte	W12
	.byte	PEND
@ 231   ----------------------------------------
mus_thpprf_darkpegasus_4_231:
	.byte		N24   , Dn3 , v120
	.byte		N24   , Dn4 
	.byte		N24   , Dn5 
	.byte	W36
	.byte		        As2 
	.byte		N24   , As3 
	.byte		N24   , As4 
	.byte	W36
	.byte		N18   , Dn3 
	.byte		N18   , Dn4 
	.byte		N18   , Dn5 
	.byte	W24
	.byte	PEND
@ 232   ----------------------------------------
mus_thpprf_darkpegasus_4_232:
	.byte		N24   , Cs3 , v120
	.byte		N24   , Cs4 
	.byte		N24   , Cs5 
	.byte	W36
	.byte		        An2 
	.byte		N24   , An3 
	.byte		N24   , An4 
	.byte	W36
	.byte		N18   , Cs3 
	.byte		N18   , Cs4 
	.byte		N18   , Cs5 
	.byte	W24
	.byte	PEND
@ 233   ----------------------------------------
mus_thpprf_darkpegasus_4_233:
	.byte		N72   , Dn3 , v120
	.byte		N72   , Dn4 
	.byte		N72   , Dn5 
	.byte	W96
	.byte	PEND
@ 234   ----------------------------------------
mus_thpprf_darkpegasus_4_234:
	.byte		N36   , Fn3 , v120
	.byte		N36   , Dn4 
	.byte		N36   , Fn4 
	.byte	W36
	.byte		        An3 
	.byte		N36   , Fn4 
	.byte		N36   , An4 
	.byte	W36
	.byte		N24   , Bn3 
	.byte		N24   , Gs4 
	.byte		N24   , Bn4 
	.byte	W24
	.byte	PEND
@ 235   ----------------------------------------
	.byte		N60   , Cn4 
	.byte		N60   , An4 
	.byte		N60   , Cn5 
	.byte	W60
	.byte		N06   , Gs3 
	.byte		N06   , Gs4 
	.byte	W06
	.byte		        Gn3 
	.byte		N06   , Gn4 
	.byte	W30
@ 236   ----------------------------------------
mus_thpprf_darkpegasus_4_236:
	.byte		N48   , An3 , v120
	.byte		N48   , En4 
	.byte		N48   , An4 
	.byte	W48
	.byte		        Cn4 
	.byte		N48   , An4 
	.byte		N48   , Cn5 
	.byte	W48
	.byte	PEND
@ 237   ----------------------------------------
	.byte		N72   , Dn4 
	.byte		N72   , Gs4 
	.byte		N72   , Dn5 
	.byte	W96
@ 238   ----------------------------------------
	.byte		N48   , Gs3 
	.byte		N48   , En4 
	.byte		N48   , Gs4 
	.byte	W48
	.byte		        Bn3 
	.byte		N48   , Gs4 
	.byte		N48   , Bn4 
	.byte	W48
@ 239   ----------------------------------------
	.byte		N96   , Cs4 
	.byte		N36   , An4 
	.byte		N96   , Cs5 
	.byte	W36
	.byte		N36   , En4 
	.byte	W36
	.byte		N24   , Dn4 
	.byte	W24
@ 240   ----------------------------------------
	.byte		N96   , Cs3 
	.byte		N96   , Cs4 
	.byte	W96
@ 241   ----------------------------------------
	.byte	PATT
	 .word	mus_thpprf_darkpegasus_4_225
@ 242   ----------------------------------------
	.byte	PATT
	 .word	mus_thpprf_darkpegasus_4_226
@ 243   ----------------------------------------
	.byte	PATT
	 .word	mus_thpprf_darkpegasus_4_227
@ 244   ----------------------------------------
	.byte	PATT
	 .word	mus_thpprf_darkpegasus_4_228
@ 245   ----------------------------------------
	.byte	PATT
	 .word	mus_thpprf_darkpegasus_4_229
@ 246   ----------------------------------------
	.byte	PATT
	 .word	mus_thpprf_darkpegasus_4_230
@ 247   ----------------------------------------
	.byte	PATT
	 .word	mus_thpprf_darkpegasus_4_231
@ 248   ----------------------------------------
	.byte	PATT
	 .word	mus_thpprf_darkpegasus_4_232
@ 249   ----------------------------------------
	.byte	PATT
	 .word	mus_thpprf_darkpegasus_4_233
@ 250   ----------------------------------------
	.byte	PATT
	 .word	mus_thpprf_darkpegasus_4_234
@ 251   ----------------------------------------
	.byte		N60   , Cn4 , v120
	.byte		N60   , An4 
	.byte		N60   , Cn5 
	.byte	W96
@ 252   ----------------------------------------
	.byte	PATT
	 .word	mus_thpprf_darkpegasus_4_236
@ 253   ----------------------------------------
	.byte		N30   , Dn4 , v120
	.byte		N30   , Gs4 
	.byte		N30   , Dn5 
	.byte	W36
	.byte		        Gs3 
	.byte		N30   , En4 
	.byte		N30   , Gs4 
	.byte	W36
	.byte		N24   , Dn4 
	.byte		N24   , Gs4 
	.byte		N24   , Dn5 
	.byte	W24
@ 254   ----------------------------------------
	.byte		N30   , An3 
	.byte		N30   , En4 
	.byte		N30   , An4 
	.byte	W36
	.byte		        Bn3 
	.byte		N30   , Gs4 
	.byte		N30   , Bn4 
	.byte	W36
	.byte		N24   , Dn4 
	.byte		N24   , An4 
	.byte		N24   , Dn5 
	.byte	W24
@ 255   ----------------------------------------
	.byte		        Cs4 
	.byte		N24   , An4 
	.byte		N24   , Cs5 
	.byte	W24
	.byte		        An3 
	.byte		N24   , En4 
	.byte		N24   , An4 
	.byte	W24
	.byte		        En3 
	.byte		N24   , Cs4 
	.byte		N24   , En4 
	.byte	W24
	.byte		        Gs3 
	.byte		N24   , En4 
	.byte		N24   , Gs4 
	.byte	W24
@ 256   ----------------------------------------
	.byte		        An3 
	.byte		N24   , En4 
	.byte		N24   , An4 
	.byte	W36
	.byte		        Cn4 
	.byte		N24   , An4 
	.byte		N24   , Cn5 
	.byte	W36
	.byte		        Fn4 
	.byte		N24   , Cn5 
	.byte		N24   , Fn5 
	.byte	W24
@ 257   ----------------------------------------
	.byte		TIE   , Fn2 
	.byte		TIE   , Fn3 
	.byte		TIE   , Fn4 
	.byte	W96
@ 258   ----------------------------------------
	.byte	W48
	.byte		EOT   , Fn2 
	.byte		        Fn3 
	.byte		        Fn4 
	.byte		N48   , Cs3 
	.byte		N48   , Cs4 
	.byte		N48   , Cs5 
	.byte	W48
@ 259   ----------------------------------------
mus_thpprf_darkpegasus_4_259:
	.byte		N96   , Cn3 , v120
	.byte		N96   , Cn4 
	.byte		N96   , Cn5 
	.byte	W96
	.byte	PEND
@ 260   ----------------------------------------
mus_thpprf_darkpegasus_4_260:
	.byte		N48   , Gs2 , v120
	.byte		N48   , Gs3 
	.byte		N48   , Gs4 
	.byte	W48
	.byte		N24   , Ds2 
	.byte		N24   , Ds3 
	.byte		N24   , Ds4 
	.byte	W24
	.byte		TIE   , Fn2 
	.byte		TIE   , Fn3 
	.byte		TIE   , Fn4 
	.byte	W24
	.byte	PEND
@ 261   ----------------------------------------
	.byte	W96
@ 262   ----------------------------------------
	.byte	W72
	.byte		EOT   , Fn2 
	.byte		        Fn3 
	.byte		        Fn4 
	.byte		N24   , Fn3 
	.byte		N24   , Fn4 
	.byte		N24   , Fn5 
	.byte	W24
@ 263   ----------------------------------------
mus_thpprf_darkpegasus_4_263:
	.byte		N24   , Ds3 , v120
	.byte		N24   , Ds4 
	.byte		N24   , Ds5 
	.byte	W24
	.byte		        Cs3 
	.byte		N24   , Cs4 
	.byte		N24   , Cs5 
	.byte	W24
	.byte		        Cn3 
	.byte		N24   , Cn4 
	.byte		N24   , Cn5 
	.byte	W24
	.byte		        Cs3 
	.byte		N24   , Cs4 
	.byte		N24   , Cs5 
	.byte	W24
	.byte	PEND
@ 264   ----------------------------------------
mus_thpprf_darkpegasus_4_264:
	.byte		N24   , Cn3 , v120
	.byte		N24   , Cn4 
	.byte		N24   , Cn5 
	.byte	W24
	.byte		N48   , Gs2 
	.byte		N48   , Gs3 
	.byte		N48   , Gs4 
	.byte	W48
	.byte		TIE   , As2 
	.byte		TIE   , As3 
	.byte		TIE   , As4 
	.byte	W24
	.byte	PEND
@ 265   ----------------------------------------
	.byte	W96
@ 266   ----------------------------------------
	.byte	W48
	.byte		EOT   , As2 
	.byte		        As3 
	.byte		        As4 
	.byte		N24   , Fn3 
	.byte		N24   , Fn4 
	.byte		N24   , Fn5 
	.byte	W24
	.byte		N72   , Gs3 
	.byte		N72   , Gs4 
	.byte		N72   , Gs5 
	.byte	W24
@ 267   ----------------------------------------
mus_thpprf_darkpegasus_4_267:
	.byte	W48
	.byte		N48   , Ds3 , v120
	.byte		N48   , Ds4 
	.byte		N48   , Ds5 
	.byte	W48
	.byte	PEND
@ 268   ----------------------------------------
mus_thpprf_darkpegasus_4_268:
	.byte		N48   , Cn3 , v120
	.byte		N48   , Cn4 
	.byte		N48   , Cn5 
	.byte	W48
	.byte		N24   , Ds3 
	.byte		N24   , Ds4 
	.byte		N24   , Ds5 
	.byte	W24
	.byte		TIE   , Cs3 
	.byte		TIE   , Cs4 
	.byte		TIE   , Cs5 
	.byte	W24
	.byte	PEND
@ 269   ----------------------------------------
	.byte	W96
@ 270   ----------------------------------------
	.byte	W48
	.byte		EOT   , Cs3 
	.byte		        Cs4 
	.byte		        Cs5 
	.byte		N24   , Cn3 
	.byte		N24   , Cn4 
	.byte		N24   , Cn5 
	.byte	W24
	.byte		        Cs3 
	.byte		N24   , Cs4 
	.byte		N24   , Cs5 
	.byte	W24
@ 271   ----------------------------------------
	.byte		        Cn3 
	.byte		N24   , Cn4 
	.byte		N24   , Cn5 
	.byte	W24
	.byte		        Cs3 
	.byte		N24   , Cs4 
	.byte		N24   , Cs5 
	.byte	W24
	.byte		        Cn3 
	.byte		N24   , Cn4 
	.byte		N24   , Cn5 
	.byte	W24
	.byte		        Gs2 
	.byte		N24   , Gs3 
	.byte		N24   , Gs4 
	.byte	W24
@ 272   ----------------------------------------
	.byte		        Ds2 
	.byte		N24   , Ds3 
	.byte		N24   , Ds4 
	.byte	W24
	.byte		N48   , Gs2 
	.byte		N48   , Gs3 
	.byte		N48   , Gs4 
	.byte	W48
	.byte		N06   , Fs2 
	.byte		N06   , Fs3 
	.byte		N06   , Fs4 
	.byte	W06
	.byte		TIE   , Fn2 
	.byte		TIE   , Fn3 
	.byte		TIE   , Fn4 
	.byte	W18
@ 273   ----------------------------------------
	.byte	W96
@ 274   ----------------------------------------
	.byte	W48
	.byte		EOT   , Fn2 
	.byte		        Fn3 
	.byte		        Fn4 
	.byte		N48   , Cs3 
	.byte		N48   , Cs4 
	.byte		N48   , Cs5 
	.byte	W48
@ 275   ----------------------------------------
	.byte	PATT
	 .word	mus_thpprf_darkpegasus_4_259
@ 276   ----------------------------------------
	.byte	PATT
	 .word	mus_thpprf_darkpegasus_4_260
@ 277   ----------------------------------------
	.byte	W96
@ 278   ----------------------------------------
	.byte	W72
	.byte		EOT   , Fn2 
	.byte		        Fn3 
	.byte		        Fn4 
	.byte		N24   , Fn3 , v120
	.byte		N24   , Fn4 
	.byte		N24   , Fn5 
	.byte	W24
@ 279   ----------------------------------------
	.byte	PATT
	 .word	mus_thpprf_darkpegasus_4_263
@ 280   ----------------------------------------
	.byte	PATT
	 .word	mus_thpprf_darkpegasus_4_264
@ 281   ----------------------------------------
	.byte	W96
@ 282   ----------------------------------------
	.byte	W48
	.byte		EOT   , As2 
	.byte		        As3 
	.byte		        As4 
	.byte		N24   , Fn3 , v120
	.byte		N24   , Fn4 
	.byte		N24   , Fn5 
	.byte	W24
	.byte		N72   , Gs3 
	.byte		N72   , Gs4 
	.byte		N72   , Gs5 
	.byte	W24
@ 283   ----------------------------------------
	.byte	PATT
	 .word	mus_thpprf_darkpegasus_4_267
@ 284   ----------------------------------------
	.byte	PATT
	 .word	mus_thpprf_darkpegasus_4_268
@ 285   ----------------------------------------
	.byte	W96
@ 286   ----------------------------------------
	.byte	W48
	.byte		EOT   , Cs3 
	.byte		        Cs4 
	.byte		        Cs5 
	.byte		N24   , Cn3 , v120
	.byte		N24   , Cn4 
	.byte		N24   , Cn5 
	.byte	W24
	.byte		        Cs3 
	.byte		N24   , Cs4 
	.byte		N24   , Cs5 
	.byte	W24
@ 287   ----------------------------------------
	.byte		        Ds3 
	.byte		N24   , Ds4 
	.byte		N24   , Ds5 
	.byte	W24
	.byte		        Gs3 
	.byte		N24   , Gs4 
	.byte		N24   , Gs5 
	.byte	W24
	.byte		        As3 
	.byte		N24   , As4 
	.byte		N24   , As5 
	.byte	W24
	.byte		        Cn4 
	.byte		N24   , Cn5 
	.byte		N24   , Cn6 
	.byte	W24
@ 288   ----------------------------------------
	.byte		        Gs3 
	.byte		N24   , Gs4 
	.byte		N24   , Gs5 
	.byte	W24
	.byte		N48   , Cn4 
	.byte		N48   , Cn5 
	.byte		N48   , Cn6 
	.byte	W48
	.byte		N06   , Bn3 
	.byte		N06   , Bn4 
	.byte		N06   , Bn5 
	.byte	W06
	.byte		        As3 
	.byte		N06   , As4 
	.byte		N06   , As5 
	.byte	W06
	.byte		        An3 
	.byte		N06   , An4 
	.byte		N06   , An5 
	.byte	W06
	.byte		        Gs3 
	.byte		N06   , Gs4 
	.byte		N06   , Gs5 
	.byte	W06
@ 289   ----------------------------------------
	.byte		VOL   , 91*mus_thpprf_darkpegasus_mvl/mxv
	.byte		N18   , Cs3 
	.byte		N18   , Cs4 
	.byte	W24
	.byte		        Cn3 
	.byte		N18   , Cn4 
	.byte	W24
	.byte		        Gs2 
	.byte		N18   , Gs3 
	.byte	W24
	.byte		        Cs3 
	.byte		N18   , Cs4 
	.byte	W24
@ 290   ----------------------------------------
mus_thpprf_darkpegasus_4_290:
	.byte		N18   , Cn3 , v120
	.byte		N18   , Cn4 
	.byte	W24
	.byte		        Gs2 
	.byte		N18   , Gs3 
	.byte	W24
	.byte		        Fn2 
	.byte		N18   , Fn3 
	.byte	W24
	.byte		        Gs2 
	.byte		N18   , Gs3 
	.byte	W24
	.byte	PEND
@ 291   ----------------------------------------
mus_thpprf_darkpegasus_4_291:
	.byte		N18   , Cs3 , v120
	.byte		N18   , Cs4 
	.byte	W24
	.byte		        Cn3 
	.byte		N18   , Cn4 
	.byte	W24
	.byte		        Gs2 
	.byte		N18   , Gs3 
	.byte	W24
	.byte		        Cs3 
	.byte		N18   , Cs4 
	.byte	W24
	.byte	PEND
@ 292   ----------------------------------------
mus_thpprf_darkpegasus_4_292:
	.byte		N18   , Cn3 , v120
	.byte		N18   , Cn4 
	.byte	W24
	.byte		N60   , Fn2 
	.byte		N60   , Fn3 
	.byte	W72
	.byte	PEND
@ 293   ----------------------------------------
	.byte	PATT
	 .word	mus_thpprf_darkpegasus_4_291
@ 294   ----------------------------------------
	.byte	PATT
	 .word	mus_thpprf_darkpegasus_4_290
@ 295   ----------------------------------------
mus_thpprf_darkpegasus_4_295:
	.byte		N18   , Cs3 , v120
	.byte		N18   , Cs4 
	.byte	W24
	.byte		        Cn3 
	.byte		N18   , Cn4 
	.byte	W24
	.byte		        Gs2 
	.byte		N18   , Gs3 
	.byte	W24
	.byte		        Ds3 
	.byte		N18   , Ds4 
	.byte	W24
	.byte	PEND
@ 296   ----------------------------------------
mus_thpprf_darkpegasus_4_296:
	.byte		N18   , Cs3 , v120
	.byte		N18   , Cs4 
	.byte	W24
	.byte		N48   , Cn3 
	.byte		N48   , Cn4 
	.byte	W48
	.byte		N12   , As2 
	.byte		N12   , As3 
	.byte	W12
	.byte		        Cn3 
	.byte		N12   , Cn4 
	.byte	W12
	.byte	PEND
@ 297   ----------------------------------------
	.byte	PATT
	 .word	mus_thpprf_darkpegasus_4_291
@ 298   ----------------------------------------
	.byte	PATT
	 .word	mus_thpprf_darkpegasus_4_290
@ 299   ----------------------------------------
	.byte	PATT
	 .word	mus_thpprf_darkpegasus_4_291
@ 300   ----------------------------------------
	.byte	PATT
	 .word	mus_thpprf_darkpegasus_4_292
@ 301   ----------------------------------------
	.byte	PATT
	 .word	mus_thpprf_darkpegasus_4_291
@ 302   ----------------------------------------
	.byte	PATT
	 .word	mus_thpprf_darkpegasus_4_290
@ 303   ----------------------------------------
mus_thpprf_darkpegasus_4_303:
	.byte		N18   , Cs3 , v120
	.byte		N18   , Cs4 
	.byte	W24
	.byte		        Cn3 
	.byte		N18   , Cn4 
	.byte	W24
	.byte		        Fn3 
	.byte		N18   , Fn4 
	.byte	W24
	.byte		        Ds3 
	.byte		N18   , Ds4 
	.byte	W24
	.byte	PEND
@ 304   ----------------------------------------
	.byte	PATT
	 .word	mus_thpprf_darkpegasus_4_296
@ 305   ----------------------------------------
	.byte	PATT
	 .word	mus_thpprf_darkpegasus_4_291
@ 306   ----------------------------------------
	.byte	PATT
	 .word	mus_thpprf_darkpegasus_4_290
@ 307   ----------------------------------------
	.byte	PATT
	 .word	mus_thpprf_darkpegasus_4_291
@ 308   ----------------------------------------
	.byte	PATT
	 .word	mus_thpprf_darkpegasus_4_292
@ 309   ----------------------------------------
	.byte	PATT
	 .word	mus_thpprf_darkpegasus_4_291
@ 310   ----------------------------------------
	.byte	PATT
	 .word	mus_thpprf_darkpegasus_4_290
@ 311   ----------------------------------------
	.byte	PATT
	 .word	mus_thpprf_darkpegasus_4_295
@ 312   ----------------------------------------
	.byte	PATT
	 .word	mus_thpprf_darkpegasus_4_296
@ 313   ----------------------------------------
	.byte	PATT
	 .word	mus_thpprf_darkpegasus_4_291
@ 314   ----------------------------------------
	.byte	PATT
	 .word	mus_thpprf_darkpegasus_4_290
@ 315   ----------------------------------------
	.byte	PATT
	 .word	mus_thpprf_darkpegasus_4_291
@ 316   ----------------------------------------
	.byte	PATT
	 .word	mus_thpprf_darkpegasus_4_292
@ 317   ----------------------------------------
	.byte	PATT
	 .word	mus_thpprf_darkpegasus_4_291
@ 318   ----------------------------------------
	.byte	PATT
	 .word	mus_thpprf_darkpegasus_4_290
@ 319   ----------------------------------------
	.byte	PATT
	 .word	mus_thpprf_darkpegasus_4_303
@ 320   ----------------------------------------
	.byte		N18   , Cs3 , v120
	.byte		N18   , Cs4 
	.byte	W24
	.byte		N60   , Cn3 
	.byte		N60   , Cn4 
	.byte	W72
@ 321   ----------------------------------------
	.byte	GOTO
	.word	mus_thpprf_darkpegasus_4_033
	.byte	FINE

@**************** Track 5 (Midi-Chn.5) ****************@

mus_thpprf_darkpegasus_5:
	.byte	KEYSH , mus_thpprf_darkpegasus_key+0
@ 000   ----------------------------------------
	.byte		VOICE , 48
	.byte		PAN   , c_v+0
	.byte		VOL   , 92*mus_thpprf_darkpegasus_mvl/mxv
	.byte		BEND  , c_v+0
@ 001   ----------------------------------------
mus_thpprf_darkpegasus_5_001:
	.byte		N24   , Fs1 , v112
	.byte		N24   , Fs2 
	.byte	W72
	.byte		        Fs1 
	.byte		N24   , Fs2 
	.byte	W24
	.byte	PEND
@ 002   ----------------------------------------
mus_thpprf_darkpegasus_5_002:
	.byte	W48
	.byte		N42   , Fs1 , v112
	.byte		N42   , Fs2 
	.byte	W48
	.byte	PEND
@ 003   ----------------------------------------
	.byte	PATT
	 .word	mus_thpprf_darkpegasus_5_001
@ 004   ----------------------------------------
mus_thpprf_darkpegasus_5_004:
	.byte	W24
	.byte		N24   , Cs1 , v112
	.byte		N24   , Cs2 
	.byte	W24
	.byte		        Fs1 
	.byte		N24   , Fs2 
	.byte	W24
	.byte		        Cs1 
	.byte		N24   , Cs2 
	.byte	W24
	.byte	PEND
@ 005   ----------------------------------------
	.byte	PATT
	 .word	mus_thpprf_darkpegasus_5_001
@ 006   ----------------------------------------
	.byte	PATT
	 .word	mus_thpprf_darkpegasus_5_002
@ 007   ----------------------------------------
	.byte	PATT
	 .word	mus_thpprf_darkpegasus_5_001
@ 008   ----------------------------------------
	.byte	PATT
	 .word	mus_thpprf_darkpegasus_5_004
@ 009   ----------------------------------------
mus_thpprf_darkpegasus_5_009:
	.byte		N24   , Dn1 , v112
	.byte		N24   , Dn2 
	.byte	W72
	.byte		        Dn1 
	.byte		N24   , Dn2 
	.byte	W24
	.byte	PEND
@ 010   ----------------------------------------
mus_thpprf_darkpegasus_5_010:
	.byte	W48
	.byte		N42   , Dn1 , v112
	.byte		N42   , Dn2 
	.byte	W48
	.byte	PEND
@ 011   ----------------------------------------
	.byte	PATT
	 .word	mus_thpprf_darkpegasus_5_009
@ 012   ----------------------------------------
mus_thpprf_darkpegasus_5_012:
	.byte	W24
	.byte		N24   , An0 , v112
	.byte		N24   , An1 
	.byte	W24
	.byte		        Dn1 
	.byte		N24   , Dn2 
	.byte	W24
	.byte		        An0 
	.byte		N24   , An1 
	.byte	W24
	.byte	PEND
@ 013   ----------------------------------------
	.byte	PATT
	 .word	mus_thpprf_darkpegasus_5_009
@ 014   ----------------------------------------
	.byte	PATT
	 .word	mus_thpprf_darkpegasus_5_010
@ 015   ----------------------------------------
	.byte	PATT
	 .word	mus_thpprf_darkpegasus_5_009
@ 016   ----------------------------------------
	.byte	PATT
	 .word	mus_thpprf_darkpegasus_5_012
@ 017   ----------------------------------------
mus_thpprf_darkpegasus_5_017:
	.byte		N24   , Fs0 , v112
	.byte		N24   , Fs1 
	.byte	W24
	.byte		N18   , Cs1 
	.byte		N18   , Cs2 
	.byte	W24
	.byte		N24   , Fs0 
	.byte		N24   , Fs1 
	.byte	W24
	.byte		N12   , Cs1 
	.byte		N12   , Cs2 
	.byte	W12
	.byte		        Fs0 
	.byte		N12   , Fs1 
	.byte	W12
	.byte	PEND
@ 018   ----------------------------------------
mus_thpprf_darkpegasus_5_018:
	.byte		N24   , Fs0 , v112
	.byte		N24   , Fs1 
	.byte	W24
	.byte		N12   , En0 
	.byte		N12   , En1 
	.byte	W24
	.byte		N42   , Fs0 
	.byte		N42   , Fs1 
	.byte	W48
	.byte	PEND
@ 019   ----------------------------------------
	.byte	PATT
	 .word	mus_thpprf_darkpegasus_5_017
@ 020   ----------------------------------------
mus_thpprf_darkpegasus_5_020:
	.byte		N24   , Fs0 , v112
	.byte		N24   , Fs1 
	.byte	W48
	.byte		N42   , Fs0 
	.byte		N42   , Fs1 
	.byte	W48
	.byte	PEND
@ 021   ----------------------------------------
	.byte	PATT
	 .word	mus_thpprf_darkpegasus_5_017
@ 022   ----------------------------------------
	.byte	PATT
	 .word	mus_thpprf_darkpegasus_5_018
@ 023   ----------------------------------------
	.byte	PATT
	 .word	mus_thpprf_darkpegasus_5_017
@ 024   ----------------------------------------
	.byte	PATT
	 .word	mus_thpprf_darkpegasus_5_020
@ 025   ----------------------------------------
mus_thpprf_darkpegasus_5_025:
	.byte		N24   , Dn0 , v112
	.byte		N24   , Dn1 
	.byte	W24
	.byte		N18   , An0 
	.byte		N18   , An1 
	.byte	W24
	.byte		N24   , Dn0 
	.byte		N24   , Dn1 
	.byte	W24
	.byte		N12   , An0 
	.byte		N12   , An1 
	.byte	W12
	.byte		        Dn0 
	.byte		N12   , Dn1 
	.byte	W12
	.byte	PEND
@ 026   ----------------------------------------
mus_thpprf_darkpegasus_5_026:
	.byte		N24   , Dn0 , v112
	.byte		N24   , Dn1 
	.byte	W24
	.byte		N12   , Cn0 
	.byte		N12   , Cn1 
	.byte	W24
	.byte		N42   , Dn0 
	.byte		N42   , Dn1 
	.byte	W48
	.byte	PEND
@ 027   ----------------------------------------
	.byte	PATT
	 .word	mus_thpprf_darkpegasus_5_025
@ 028   ----------------------------------------
mus_thpprf_darkpegasus_5_028:
	.byte		N24   , Dn0 , v112
	.byte		N24   , Dn1 
	.byte	W48
	.byte		N42   , Dn0 
	.byte		N42   , Dn1 
	.byte	W48
	.byte	PEND
@ 029   ----------------------------------------
	.byte	PATT
	 .word	mus_thpprf_darkpegasus_5_025
@ 030   ----------------------------------------
	.byte	PATT
	 .word	mus_thpprf_darkpegasus_5_026
@ 031   ----------------------------------------
	.byte	PATT
	 .word	mus_thpprf_darkpegasus_5_025
@ 032   ----------------------------------------
	.byte	PATT
	 .word	mus_thpprf_darkpegasus_5_028
@ 033   ----------------------------------------
mus_thpprf_darkpegasus_5_033:
	.byte		VOICE , 48
	.byte		VOL   , 92*mus_thpprf_darkpegasus_mvl/mxv
	.byte		N24   , Fs0 , v112
	.byte		N24   , Fs1 
	.byte	W24
	.byte		N18   , Cs1 
	.byte		N18   , Cs2 
	.byte	W24
	.byte		N24   , Fs0 
	.byte		N24   , Fs1 
	.byte	W24
	.byte		        Cs1 
	.byte		N24   , Cs2 
	.byte	W24
@ 034   ----------------------------------------
	.byte	PATT
	 .word	mus_thpprf_darkpegasus_5_018
@ 035   ----------------------------------------
mus_thpprf_darkpegasus_5_035:
	.byte		N24   , En0 , v112
	.byte		N24   , En1 
	.byte	W24
	.byte		N18   , Bn0 
	.byte		N18   , Bn1 
	.byte	W24
	.byte		N24   , En0 
	.byte		N24   , En1 
	.byte	W24
	.byte		        Bn0 
	.byte		N24   , Bn1 
	.byte	W24
	.byte	PEND
@ 036   ----------------------------------------
mus_thpprf_darkpegasus_5_036:
	.byte		N24   , En0 , v112
	.byte		N24   , En1 
	.byte	W24
	.byte		N12   , Cs0 
	.byte		N12   , Cs1 
	.byte	W24
	.byte		N42   , En0 
	.byte		N42   , En1 
	.byte	W48
	.byte	PEND
@ 037   ----------------------------------------
mus_thpprf_darkpegasus_5_037:
	.byte		N24   , Dn0 , v112
	.byte		N24   , Dn1 
	.byte	W24
	.byte		N18   , An0 
	.byte		N18   , An1 
	.byte	W24
	.byte		N24   , Dn0 
	.byte		N24   , Dn1 
	.byte	W24
	.byte		        An0 
	.byte		N24   , An1 
	.byte	W24
	.byte	PEND
@ 038   ----------------------------------------
	.byte	PATT
	 .word	mus_thpprf_darkpegasus_5_026
@ 039   ----------------------------------------
	.byte	PATT
	 .word	mus_thpprf_darkpegasus_5_035
@ 040   ----------------------------------------
	.byte	PATT
	 .word	mus_thpprf_darkpegasus_5_036
@ 041   ----------------------------------------
mus_thpprf_darkpegasus_5_041:
	.byte		N24   , Fs0 , v112
	.byte		N24   , Fs1 
	.byte	W24
	.byte		N18   , Cs1 
	.byte		N18   , Cs2 
	.byte	W24
	.byte		N24   , Fs0 
	.byte		N24   , Fs1 
	.byte	W24
	.byte		        Cs1 
	.byte		N24   , Cs2 
	.byte	W24
	.byte	PEND
@ 042   ----------------------------------------
	.byte	PATT
	 .word	mus_thpprf_darkpegasus_5_018
@ 043   ----------------------------------------
mus_thpprf_darkpegasus_5_043:
	.byte		N24   , Gs0 , v112
	.byte		N24   , Gs1 
	.byte	W24
	.byte		N18   , En1 
	.byte		N18   , En2 
	.byte	W24
	.byte		N24   , Gs0 
	.byte		N24   , Gs1 
	.byte	W24
	.byte		        En1 
	.byte		N24   , En2 
	.byte	W24
	.byte	PEND
@ 044   ----------------------------------------
mus_thpprf_darkpegasus_5_044:
	.byte		N24   , Gs0 , v112
	.byte		N24   , Gs1 
	.byte	W24
	.byte		N12   , Fs0 
	.byte		N12   , Fs1 
	.byte	W24
	.byte		N42   , Gs0 
	.byte		N42   , Gs1 
	.byte	W48
	.byte	PEND
@ 045   ----------------------------------------
mus_thpprf_darkpegasus_5_045:
	.byte		N24   , Fs0 , v112
	.byte		N24   , Fs1 
	.byte	W24
	.byte		N18   , Dn1 
	.byte		N18   , Dn2 
	.byte	W24
	.byte		N24   , Fs0 
	.byte		N24   , Fs1 
	.byte	W24
	.byte		        Dn1 
	.byte		N24   , Dn2 
	.byte	W24
	.byte	PEND
@ 046   ----------------------------------------
	.byte	PATT
	 .word	mus_thpprf_darkpegasus_5_018
@ 047   ----------------------------------------
	.byte	PATT
	 .word	mus_thpprf_darkpegasus_5_035
@ 048   ----------------------------------------
	.byte	PATT
	 .word	mus_thpprf_darkpegasus_5_036
@ 049   ----------------------------------------
	.byte	PATT
	 .word	mus_thpprf_darkpegasus_5_041
@ 050   ----------------------------------------
	.byte	PATT
	 .word	mus_thpprf_darkpegasus_5_018
@ 051   ----------------------------------------
	.byte	PATT
	 .word	mus_thpprf_darkpegasus_5_035
@ 052   ----------------------------------------
	.byte	PATT
	 .word	mus_thpprf_darkpegasus_5_036
@ 053   ----------------------------------------
	.byte	PATT
	 .word	mus_thpprf_darkpegasus_5_037
@ 054   ----------------------------------------
	.byte	PATT
	 .word	mus_thpprf_darkpegasus_5_026
@ 055   ----------------------------------------
	.byte	PATT
	 .word	mus_thpprf_darkpegasus_5_035
@ 056   ----------------------------------------
	.byte	PATT
	 .word	mus_thpprf_darkpegasus_5_036
@ 057   ----------------------------------------
	.byte	PATT
	 .word	mus_thpprf_darkpegasus_5_041
@ 058   ----------------------------------------
	.byte	PATT
	 .word	mus_thpprf_darkpegasus_5_018
@ 059   ----------------------------------------
	.byte	PATT
	 .word	mus_thpprf_darkpegasus_5_043
@ 060   ----------------------------------------
	.byte	PATT
	 .word	mus_thpprf_darkpegasus_5_044
@ 061   ----------------------------------------
	.byte	PATT
	 .word	mus_thpprf_darkpegasus_5_045
@ 062   ----------------------------------------
	.byte	PATT
	 .word	mus_thpprf_darkpegasus_5_018
@ 063   ----------------------------------------
	.byte	PATT
	 .word	mus_thpprf_darkpegasus_5_035
@ 064   ----------------------------------------
	.byte	PATT
	 .word	mus_thpprf_darkpegasus_5_036
@ 065   ----------------------------------------
mus_thpprf_darkpegasus_5_065:
	.byte		TIE   , Cs1 , v112
	.byte		TIE   , Cs2 
	.byte	W96
	.byte	PEND
@ 066   ----------------------------------------
	.byte	W96
	.byte		EOT   , Cs1 
	.byte		        Cs2 
@ 067   ----------------------------------------
mus_thpprf_darkpegasus_5_067:
	.byte		TIE   , Cn1 , v112
	.byte		TIE   , Cn2 
	.byte	W96
	.byte	PEND
@ 068   ----------------------------------------
	.byte	W96
	.byte		EOT   , Cn1 
	.byte		        Cn2 
@ 069   ----------------------------------------
mus_thpprf_darkpegasus_5_069:
	.byte		TIE   , Bn0 , v112
	.byte		TIE   , Bn1 
	.byte	W96
	.byte	PEND
@ 070   ----------------------------------------
	.byte	W96
	.byte		EOT   , Bn0 
	.byte		        Bn1 
@ 071   ----------------------------------------
	.byte		N96   , As0 
	.byte		N96   , As1 
	.byte	W96
@ 072   ----------------------------------------
	.byte		        An0 
	.byte		N96   , An1 
	.byte	W96
@ 073   ----------------------------------------
mus_thpprf_darkpegasus_5_073:
	.byte		TIE   , As0 , v112
	.byte		TIE   , As1 
	.byte	W96
	.byte	PEND
@ 074   ----------------------------------------
	.byte	W96
	.byte		EOT   , As0 
	.byte		        As1 
@ 075   ----------------------------------------
mus_thpprf_darkpegasus_5_075:
	.byte		TIE   , Fn0 , v112
	.byte		TIE   , Fn1 
	.byte	W96
	.byte	PEND
@ 076   ----------------------------------------
	.byte	W96
	.byte		EOT   , Fn0 
	.byte		        Fn1 
@ 077   ----------------------------------------
mus_thpprf_darkpegasus_5_077:
	.byte		TIE   , En0 , v112
	.byte		TIE   , En1 
	.byte	W96
	.byte	PEND
@ 078   ----------------------------------------
	.byte	W96
	.byte		EOT   , En0 
	.byte		        En1 
@ 079   ----------------------------------------
	.byte		N96   , Fn0 
	.byte		N96   , Fn1 
	.byte	W96
@ 080   ----------------------------------------
	.byte		        An0 
	.byte		N96   , An1 
	.byte	W96
@ 081   ----------------------------------------
	.byte	PATT
	 .word	mus_thpprf_darkpegasus_5_065
@ 082   ----------------------------------------
	.byte	W96
	.byte		EOT   , Cs1 
	.byte		        Cs2 
@ 083   ----------------------------------------
	.byte	PATT
	 .word	mus_thpprf_darkpegasus_5_067
@ 084   ----------------------------------------
	.byte	W96
	.byte		EOT   , Cn1 
	.byte		        Cn2 
@ 085   ----------------------------------------
	.byte	PATT
	 .word	mus_thpprf_darkpegasus_5_069
@ 086   ----------------------------------------
	.byte	W96
	.byte		EOT   , Bn0 
	.byte		        Bn1 
@ 087   ----------------------------------------
	.byte		N96   , As0 , v112
	.byte		N96   , As1 
	.byte	W96
@ 088   ----------------------------------------
	.byte		        An0 
	.byte		N96   , An1 
	.byte	W96
@ 089   ----------------------------------------
	.byte	PATT
	 .word	mus_thpprf_darkpegasus_5_073
@ 090   ----------------------------------------
	.byte	W96
	.byte		EOT   , As0 
	.byte		        As1 
@ 091   ----------------------------------------
	.byte	PATT
	 .word	mus_thpprf_darkpegasus_5_075
@ 092   ----------------------------------------
	.byte	W96
	.byte		EOT   , Fn0 
	.byte		        Fn1 
@ 093   ----------------------------------------
	.byte	PATT
	 .word	mus_thpprf_darkpegasus_5_077
@ 094   ----------------------------------------
	.byte	W96
	.byte		EOT   , En0 
	.byte		        En1 
@ 095   ----------------------------------------
	.byte		N96   , Fn0 , v112
	.byte		N96   , Fn1 
	.byte	W96
@ 096   ----------------------------------------
	.byte		        An0 
	.byte		N96   , An1 
	.byte	W96
@ 097   ----------------------------------------
mus_thpprf_darkpegasus_5_097:
	.byte		N24   , Cs1 , v112
	.byte		N24   , Cs2 
	.byte	W24
	.byte		N18   , An1 
	.byte		N18   , An2 
	.byte	W24
	.byte		N24   , Cs1 
	.byte		N24   , Cs2 
	.byte	W24
	.byte		N18   , An1 
	.byte		N18   , An2 
	.byte	W24
	.byte	PEND
@ 098   ----------------------------------------
mus_thpprf_darkpegasus_5_098:
	.byte		N24   , Cs1 , v112
	.byte		N24   , Cs2 
	.byte	W24
	.byte		N18   , An1 
	.byte		N18   , An2 
	.byte	W24
	.byte		N24   , Cs1 
	.byte		N24   , Cs2 
	.byte	W24
	.byte		N12   , An1 
	.byte		N12   , An2 
	.byte	W12
	.byte		        Bn0 
	.byte		N12   , Bn1 
	.byte	W12
	.byte	PEND
@ 099   ----------------------------------------
mus_thpprf_darkpegasus_5_099:
	.byte		N24   , Cn1 , v112
	.byte		N24   , Cn2 
	.byte	W24
	.byte		N18   , An1 
	.byte		N18   , An2 
	.byte	W24
	.byte		N24   , Cn1 
	.byte		N24   , Cn2 
	.byte	W24
	.byte		N18   , An1 
	.byte		N18   , An2 
	.byte	W24
	.byte	PEND
@ 100   ----------------------------------------
mus_thpprf_darkpegasus_5_100:
	.byte		N24   , Cn1 , v112
	.byte		N24   , Cn2 
	.byte	W24
	.byte		N18   , An1 
	.byte		N18   , An2 
	.byte	W24
	.byte		N24   , Cn1 
	.byte		N24   , Cn2 
	.byte	W24
	.byte		N12   , An1 
	.byte		N12   , An2 
	.byte	W12
	.byte		        As0 
	.byte		N12   , As1 
	.byte	W12
	.byte	PEND
@ 101   ----------------------------------------
mus_thpprf_darkpegasus_5_101:
	.byte		N24   , Bn0 , v112
	.byte		N24   , Bn1 
	.byte	W24
	.byte		N18   , An1 
	.byte		N18   , An2 
	.byte	W24
	.byte		N24   , Bn0 
	.byte		N24   , Bn1 
	.byte	W24
	.byte		N18   , An1 
	.byte		N18   , An2 
	.byte	W24
	.byte	PEND
@ 102   ----------------------------------------
mus_thpprf_darkpegasus_5_102:
	.byte		N24   , Bn0 , v112
	.byte		N24   , Bn1 
	.byte	W24
	.byte		N18   , An1 
	.byte		N18   , An2 
	.byte	W24
	.byte		N24   , Bn0 
	.byte		N24   , Bn1 
	.byte	W24
	.byte		N12   , An1 
	.byte		N12   , An2 
	.byte	W12
	.byte		        An0 
	.byte		N12   , An1 
	.byte	W12
	.byte	PEND
@ 103   ----------------------------------------
mus_thpprf_darkpegasus_5_103:
	.byte		N30   , As0 , v112
	.byte		N30   , As1 
	.byte	W36
	.byte		        As0 
	.byte		N30   , As1 
	.byte	W36
	.byte		N24   , As0 
	.byte		N24   , As1 
	.byte	W24
	.byte	PEND
@ 104   ----------------------------------------
mus_thpprf_darkpegasus_5_104:
	.byte		N18   , An0 , v112
	.byte		N18   , An1 
	.byte	W24
	.byte		        An0 
	.byte		N18   , An1 
	.byte	W24
	.byte		N12   , An0 
	.byte		N12   , An1 
	.byte	W12
	.byte		        An0 
	.byte		N12   , An1 
	.byte	W12
	.byte		        An0 
	.byte		N12   , An1 
	.byte	W12
	.byte		        An0 
	.byte		N12   , An1 
	.byte	W12
	.byte	PEND
@ 105   ----------------------------------------
mus_thpprf_darkpegasus_5_105:
	.byte		N24   , As0 , v112
	.byte		N24   , As1 
	.byte	W24
	.byte		N18   
	.byte		N18   , As2 
	.byte	W24
	.byte		N24   , As0 
	.byte		N24   , As1 
	.byte	W24
	.byte		N12   
	.byte		N12   , As2 
	.byte	W12
	.byte		        Fn1 
	.byte		N12   , Fn2 
	.byte	W12
	.byte	PEND
@ 106   ----------------------------------------
	.byte	PATT
	 .word	mus_thpprf_darkpegasus_5_105
@ 107   ----------------------------------------
mus_thpprf_darkpegasus_5_107:
	.byte		N24   , Fn1 , v112
	.byte		N24   , Fn2 
	.byte	W24
	.byte		N18   , Cs2 
	.byte		N18   , Cs3 
	.byte	W24
	.byte		N24   , Fn1 
	.byte		N24   , Fn2 
	.byte	W24
	.byte		N12   , Cs2 
	.byte		N12   , Cs3 
	.byte	W12
	.byte		        Gs1 
	.byte		N12   , Gs2 
	.byte	W12
	.byte	PEND
@ 108   ----------------------------------------
mus_thpprf_darkpegasus_5_108:
	.byte		N24   , Fn1 , v112
	.byte		N24   , Fn2 
	.byte	W24
	.byte		N18   , Cs2 
	.byte		N18   , Cs3 
	.byte	W24
	.byte		N24   , Fn1 
	.byte		N24   , Fn2 
	.byte	W24
	.byte		N18   , Cs2 
	.byte		N18   , Cs3 
	.byte	W24
	.byte	PEND
@ 109   ----------------------------------------
mus_thpprf_darkpegasus_5_109:
	.byte		N24   , En1 , v112
	.byte		N24   , En2 
	.byte	W24
	.byte		N18   , Cs2 
	.byte		N18   , Cs3 
	.byte	W24
	.byte		N24   , En1 
	.byte		N24   , En2 
	.byte	W24
	.byte		N18   , Cs2 
	.byte		N18   , Cs3 
	.byte	W24
	.byte	PEND
@ 110   ----------------------------------------
	.byte	PATT
	 .word	mus_thpprf_darkpegasus_5_109
@ 111   ----------------------------------------
	.byte	PATT
	 .word	mus_thpprf_darkpegasus_5_099
@ 112   ----------------------------------------
	.byte	PATT
	 .word	mus_thpprf_darkpegasus_5_099
@ 113   ----------------------------------------
	.byte	PATT
	 .word	mus_thpprf_darkpegasus_5_097
@ 114   ----------------------------------------
	.byte	PATT
	 .word	mus_thpprf_darkpegasus_5_098
@ 115   ----------------------------------------
	.byte	PATT
	 .word	mus_thpprf_darkpegasus_5_099
@ 116   ----------------------------------------
	.byte	PATT
	 .word	mus_thpprf_darkpegasus_5_100
@ 117   ----------------------------------------
	.byte	PATT
	 .word	mus_thpprf_darkpegasus_5_101
@ 118   ----------------------------------------
	.byte	PATT
	 .word	mus_thpprf_darkpegasus_5_102
@ 119   ----------------------------------------
	.byte	PATT
	 .word	mus_thpprf_darkpegasus_5_103
@ 120   ----------------------------------------
	.byte	PATT
	 .word	mus_thpprf_darkpegasus_5_104
@ 121   ----------------------------------------
	.byte	PATT
	 .word	mus_thpprf_darkpegasus_5_105
@ 122   ----------------------------------------
	.byte	PATT
	 .word	mus_thpprf_darkpegasus_5_105
@ 123   ----------------------------------------
	.byte	PATT
	 .word	mus_thpprf_darkpegasus_5_107
@ 124   ----------------------------------------
	.byte	PATT
	 .word	mus_thpprf_darkpegasus_5_108
@ 125   ----------------------------------------
	.byte	PATT
	 .word	mus_thpprf_darkpegasus_5_109
@ 126   ----------------------------------------
	.byte	PATT
	 .word	mus_thpprf_darkpegasus_5_109
@ 127   ----------------------------------------
	.byte	PATT
	 .word	mus_thpprf_darkpegasus_5_099
@ 128   ----------------------------------------
	.byte	PATT
	 .word	mus_thpprf_darkpegasus_5_099
@ 129   ----------------------------------------
mus_thpprf_darkpegasus_5_129:
	.byte		N24   , An0 , v112
	.byte		N24   , An1 
	.byte	W24
	.byte		N18   , En1 
	.byte		N18   , En2 
	.byte	W24
	.byte		N24   , An0 
	.byte		N24   , An1 
	.byte	W24
	.byte		N12   , En1 
	.byte		N12   , En2 
	.byte	W12
	.byte		        An0 
	.byte		N12   , An1 
	.byte	W12
	.byte	PEND
@ 130   ----------------------------------------
mus_thpprf_darkpegasus_5_130:
	.byte		N24   , An0 , v112
	.byte		N24   , An1 
	.byte	W24
	.byte		N12   , Gn0 
	.byte		N12   , Gn1 
	.byte	W24
	.byte		N42   , An0 
	.byte		N42   , An1 
	.byte	W48
	.byte	PEND
@ 131   ----------------------------------------
	.byte	PATT
	 .word	mus_thpprf_darkpegasus_5_129
@ 132   ----------------------------------------
mus_thpprf_darkpegasus_5_132:
	.byte		N24   , An0 , v112
	.byte		N24   , An1 
	.byte	W48
	.byte		N42   , An0 
	.byte		N42   , An1 
	.byte	W48
	.byte	PEND
@ 133   ----------------------------------------
	.byte	PATT
	 .word	mus_thpprf_darkpegasus_5_129
@ 134   ----------------------------------------
	.byte	PATT
	 .word	mus_thpprf_darkpegasus_5_130
@ 135   ----------------------------------------
	.byte	PATT
	 .word	mus_thpprf_darkpegasus_5_129
@ 136   ----------------------------------------
	.byte	PATT
	 .word	mus_thpprf_darkpegasus_5_132
@ 137   ----------------------------------------
mus_thpprf_darkpegasus_5_137:
	.byte		N24   , Fn0 , v112
	.byte		N24   , Fn1 
	.byte	W24
	.byte		N18   , Cn1 
	.byte		N18   , Cn2 
	.byte	W24
	.byte		N24   , Fn0 
	.byte		N24   , Fn1 
	.byte	W24
	.byte		N12   , Cn1 
	.byte		N12   , Cn2 
	.byte	W12
	.byte		        Fn0 
	.byte		N12   , Fn1 
	.byte	W12
	.byte	PEND
@ 138   ----------------------------------------
mus_thpprf_darkpegasus_5_138:
	.byte		N24   , Fn0 , v112
	.byte		N24   , Fn1 
	.byte	W24
	.byte		N12   , Ds0 
	.byte		N12   , Ds1 
	.byte	W24
	.byte		N42   , Fn0 
	.byte		N42   , Fn1 
	.byte	W48
	.byte	PEND
@ 139   ----------------------------------------
	.byte	PATT
	 .word	mus_thpprf_darkpegasus_5_137
@ 140   ----------------------------------------
mus_thpprf_darkpegasus_5_140:
	.byte		N24   , Fn0 , v112
	.byte		N24   , Fn1 
	.byte	W48
	.byte		N42   , Fn0 
	.byte		N42   , Fn1 
	.byte	W48
	.byte	PEND
@ 141   ----------------------------------------
	.byte	PATT
	 .word	mus_thpprf_darkpegasus_5_137
@ 142   ----------------------------------------
	.byte	PATT
	 .word	mus_thpprf_darkpegasus_5_138
@ 143   ----------------------------------------
	.byte	PATT
	 .word	mus_thpprf_darkpegasus_5_137
@ 144   ----------------------------------------
	.byte	PATT
	 .word	mus_thpprf_darkpegasus_5_140
@ 145   ----------------------------------------
	.byte	PATT
	 .word	mus_thpprf_darkpegasus_5_129
@ 146   ----------------------------------------
	.byte	PATT
	 .word	mus_thpprf_darkpegasus_5_130
@ 147   ----------------------------------------
	.byte	PATT
	 .word	mus_thpprf_darkpegasus_5_129
@ 148   ----------------------------------------
	.byte	PATT
	 .word	mus_thpprf_darkpegasus_5_132
@ 149   ----------------------------------------
	.byte	PATT
	 .word	mus_thpprf_darkpegasus_5_129
@ 150   ----------------------------------------
	.byte	PATT
	 .word	mus_thpprf_darkpegasus_5_130
@ 151   ----------------------------------------
	.byte	PATT
	 .word	mus_thpprf_darkpegasus_5_129
@ 152   ----------------------------------------
	.byte	PATT
	 .word	mus_thpprf_darkpegasus_5_132
@ 153   ----------------------------------------
	.byte	PATT
	 .word	mus_thpprf_darkpegasus_5_137
@ 154   ----------------------------------------
	.byte	PATT
	 .word	mus_thpprf_darkpegasus_5_138
@ 155   ----------------------------------------
	.byte	PATT
	 .word	mus_thpprf_darkpegasus_5_137
@ 156   ----------------------------------------
	.byte	PATT
	 .word	mus_thpprf_darkpegasus_5_140
@ 157   ----------------------------------------
	.byte	PATT
	 .word	mus_thpprf_darkpegasus_5_137
@ 158   ----------------------------------------
	.byte	PATT
	 .word	mus_thpprf_darkpegasus_5_138
@ 159   ----------------------------------------
	.byte	PATT
	 .word	mus_thpprf_darkpegasus_5_137
@ 160   ----------------------------------------
	.byte	PATT
	 .word	mus_thpprf_darkpegasus_5_140
@ 161   ----------------------------------------
mus_thpprf_darkpegasus_5_161:
	.byte		N24   , An0 , v112
	.byte		N24   , An1 
	.byte	W24
	.byte		N18   , En1 
	.byte		N18   , En2 
	.byte	W24
	.byte		N24   , An0 
	.byte		N24   , An1 
	.byte	W24
	.byte		        En1 
	.byte		N24   , En2 
	.byte	W24
	.byte	PEND
@ 162   ----------------------------------------
	.byte	PATT
	 .word	mus_thpprf_darkpegasus_5_130
@ 163   ----------------------------------------
mus_thpprf_darkpegasus_5_163:
	.byte		N24   , Gn0 , v112
	.byte		N24   , Gn1 
	.byte	W24
	.byte		N18   , Dn1 
	.byte		N18   , Dn2 
	.byte	W24
	.byte		N24   , Gn0 
	.byte		N24   , Gn1 
	.byte	W24
	.byte		        Dn1 
	.byte		N24   , Dn2 
	.byte	W24
	.byte	PEND
@ 164   ----------------------------------------
mus_thpprf_darkpegasus_5_164:
	.byte		N24   , Gn0 , v112
	.byte		N24   , Gn1 
	.byte	W24
	.byte		N12   , En0 
	.byte		N12   , En1 
	.byte	W24
	.byte		N42   , Gn0 
	.byte		N42   , Gn1 
	.byte	W48
	.byte	PEND
@ 165   ----------------------------------------
mus_thpprf_darkpegasus_5_165:
	.byte		N24   , Fn0 , v112
	.byte		N24   , Fn1 
	.byte	W24
	.byte		N18   , Cn1 
	.byte		N18   , Cn2 
	.byte	W24
	.byte		N24   , Fn0 
	.byte		N24   , Fn1 
	.byte	W24
	.byte		        Cn1 
	.byte		N24   , Cn2 
	.byte	W24
	.byte	PEND
@ 166   ----------------------------------------
	.byte	PATT
	 .word	mus_thpprf_darkpegasus_5_138
@ 167   ----------------------------------------
	.byte	PATT
	 .word	mus_thpprf_darkpegasus_5_163
@ 168   ----------------------------------------
	.byte	PATT
	 .word	mus_thpprf_darkpegasus_5_164
@ 169   ----------------------------------------
	.byte	PATT
	 .word	mus_thpprf_darkpegasus_5_161
@ 170   ----------------------------------------
	.byte	PATT
	 .word	mus_thpprf_darkpegasus_5_130
@ 171   ----------------------------------------
mus_thpprf_darkpegasus_5_171:
	.byte		N24   , Bn0 , v112
	.byte		N24   , Bn1 
	.byte	W24
	.byte		N18   , Gn1 
	.byte		N18   , Gn2 
	.byte	W24
	.byte		N24   , Bn0 
	.byte		N24   , Bn1 
	.byte	W24
	.byte		        Gn1 
	.byte		N24   , Gn2 
	.byte	W24
	.byte	PEND
@ 172   ----------------------------------------
mus_thpprf_darkpegasus_5_172:
	.byte		N24   , Bn0 , v112
	.byte		N24   , Bn1 
	.byte	W24
	.byte		N12   , An0 
	.byte		N12   , An1 
	.byte	W24
	.byte		N42   , Bn0 
	.byte		N42   , Bn1 
	.byte	W48
	.byte	PEND
@ 173   ----------------------------------------
mus_thpprf_darkpegasus_5_173:
	.byte		N24   , An0 , v112
	.byte		N24   , An1 
	.byte	W24
	.byte		N18   , Fn1 
	.byte		N18   , Fn2 
	.byte	W24
	.byte		N24   , An0 
	.byte		N24   , An1 
	.byte	W24
	.byte		        Fn1 
	.byte		N24   , Fn2 
	.byte	W24
	.byte	PEND
@ 174   ----------------------------------------
	.byte	PATT
	 .word	mus_thpprf_darkpegasus_5_130
@ 175   ----------------------------------------
	.byte	PATT
	 .word	mus_thpprf_darkpegasus_5_163
@ 176   ----------------------------------------
	.byte	PATT
	 .word	mus_thpprf_darkpegasus_5_164
@ 177   ----------------------------------------
	.byte	PATT
	 .word	mus_thpprf_darkpegasus_5_161
@ 178   ----------------------------------------
	.byte	PATT
	 .word	mus_thpprf_darkpegasus_5_130
@ 179   ----------------------------------------
	.byte	PATT
	 .word	mus_thpprf_darkpegasus_5_163
@ 180   ----------------------------------------
	.byte	PATT
	 .word	mus_thpprf_darkpegasus_5_164
@ 181   ----------------------------------------
	.byte	PATT
	 .word	mus_thpprf_darkpegasus_5_165
@ 182   ----------------------------------------
	.byte	PATT
	 .word	mus_thpprf_darkpegasus_5_138
@ 183   ----------------------------------------
	.byte	PATT
	 .word	mus_thpprf_darkpegasus_5_163
@ 184   ----------------------------------------
	.byte	PATT
	 .word	mus_thpprf_darkpegasus_5_164
@ 185   ----------------------------------------
	.byte	PATT
	 .word	mus_thpprf_darkpegasus_5_161
@ 186   ----------------------------------------
	.byte	PATT
	 .word	mus_thpprf_darkpegasus_5_130
@ 187   ----------------------------------------
	.byte	PATT
	 .word	mus_thpprf_darkpegasus_5_171
@ 188   ----------------------------------------
	.byte	PATT
	 .word	mus_thpprf_darkpegasus_5_172
@ 189   ----------------------------------------
	.byte	PATT
	 .word	mus_thpprf_darkpegasus_5_173
@ 190   ----------------------------------------
	.byte	PATT
	 .word	mus_thpprf_darkpegasus_5_130
@ 191   ----------------------------------------
	.byte	PATT
	 .word	mus_thpprf_darkpegasus_5_163
@ 192   ----------------------------------------
	.byte	PATT
	 .word	mus_thpprf_darkpegasus_5_164
@ 193   ----------------------------------------
mus_thpprf_darkpegasus_5_193:
	.byte		N24   , En1 , v112
	.byte		N24   , En2 
	.byte	W24
	.byte		N18   , Cn2 
	.byte		N18   , Cn3 
	.byte	W24
	.byte		N24   , En1 
	.byte		N24   , En2 
	.byte	W24
	.byte		N18   , Cn2 
	.byte		N18   , Cn3 
	.byte	W24
	.byte	PEND
@ 194   ----------------------------------------
mus_thpprf_darkpegasus_5_194:
	.byte		N24   , En1 , v112
	.byte		N24   , En2 
	.byte	W24
	.byte		N18   , Cn2 
	.byte		N18   , Cn3 
	.byte	W24
	.byte		N24   , En1 
	.byte		N24   , En2 
	.byte	W24
	.byte		N12   , Cn2 
	.byte		N12   , Cn3 
	.byte	W12
	.byte		        Dn1 
	.byte		N12   , Dn2 
	.byte	W12
	.byte	PEND
@ 195   ----------------------------------------
mus_thpprf_darkpegasus_5_195:
	.byte		N24   , Ds1 , v112
	.byte		N24   , Ds2 
	.byte	W24
	.byte		N18   , Cn2 
	.byte		N18   , Cn3 
	.byte	W24
	.byte		N24   , Ds1 
	.byte		N24   , Ds2 
	.byte	W24
	.byte		N18   , Cn2 
	.byte		N18   , Cn3 
	.byte	W24
	.byte	PEND
@ 196   ----------------------------------------
mus_thpprf_darkpegasus_5_196:
	.byte		N24   , Ds1 , v112
	.byte		N24   , Ds2 
	.byte	W24
	.byte		N18   , Cn2 
	.byte		N18   , Cn3 
	.byte	W24
	.byte		N24   , Ds1 
	.byte		N24   , Ds2 
	.byte	W24
	.byte		N12   , Cn2 
	.byte		N12   , Cn3 
	.byte	W12
	.byte		        Cs1 
	.byte		N12   , Cs2 
	.byte	W12
	.byte	PEND
@ 197   ----------------------------------------
mus_thpprf_darkpegasus_5_197:
	.byte		N24   , Dn1 , v112
	.byte		N24   , Dn2 
	.byte	W24
	.byte		N18   , Cn2 
	.byte		N18   , Cn3 
	.byte	W24
	.byte		N24   , Dn1 
	.byte		N24   , Dn2 
	.byte	W24
	.byte		N18   , Cn2 
	.byte		N18   , Cn3 
	.byte	W24
	.byte	PEND
@ 198   ----------------------------------------
mus_thpprf_darkpegasus_5_198:
	.byte		N24   , Dn1 , v112
	.byte		N24   , Dn2 
	.byte	W24
	.byte		N18   , Cn2 
	.byte		N18   , Cn3 
	.byte	W24
	.byte		N24   , Dn1 
	.byte		N24   , Dn2 
	.byte	W24
	.byte		N12   , Cn2 
	.byte		N12   , Cn3 
	.byte	W12
	.byte		        Cn1 
	.byte		N12   , Cn2 
	.byte	W12
	.byte	PEND
@ 199   ----------------------------------------
mus_thpprf_darkpegasus_5_199:
	.byte		N30   , Cs1 , v112
	.byte		N30   , Cs2 
	.byte	W36
	.byte		        Cs1 
	.byte		N30   , Cs2 
	.byte	W36
	.byte		N24   , Cs1 
	.byte		N24   , Cs2 
	.byte	W24
	.byte	PEND
@ 200   ----------------------------------------
mus_thpprf_darkpegasus_5_200:
	.byte		N18   , Cn1 , v112
	.byte		N18   , Cn2 
	.byte	W24
	.byte		        Cn1 
	.byte		N18   , Cn2 
	.byte	W24
	.byte		N12   , Cn1 
	.byte		N12   , Cn2 
	.byte	W12
	.byte		        Cn1 
	.byte		N12   , Cn2 
	.byte	W12
	.byte		        Cn1 
	.byte		N12   , Cn2 
	.byte	W12
	.byte		        Cn1 
	.byte		N12   , Cn2 
	.byte	W12
	.byte	PEND
@ 201   ----------------------------------------
mus_thpprf_darkpegasus_5_201:
	.byte		N24   , Cs1 , v112
	.byte		N24   , Cs2 
	.byte	W24
	.byte		N18   
	.byte		N18   , Cs3 
	.byte	W24
	.byte		N24   , Cs1 
	.byte		N24   , Cs2 
	.byte	W24
	.byte		N12   
	.byte		N12   , Cs3 
	.byte	W12
	.byte		        Gs1 
	.byte		N12   , Gs2 
	.byte	W12
	.byte	PEND
@ 202   ----------------------------------------
	.byte	PATT
	 .word	mus_thpprf_darkpegasus_5_201
@ 203   ----------------------------------------
mus_thpprf_darkpegasus_5_203:
	.byte		N24   , Gs1 , v112
	.byte		N24   , Gs2 
	.byte	W24
	.byte		N18   , En2 
	.byte		N18   , En3 
	.byte	W24
	.byte		N24   , Gs1 
	.byte		N24   , Gs2 
	.byte	W24
	.byte		N12   , En2 
	.byte		N12   , En3 
	.byte	W12
	.byte		        Bn1 
	.byte		N12   , Bn2 
	.byte	W12
	.byte	PEND
@ 204   ----------------------------------------
mus_thpprf_darkpegasus_5_204:
	.byte		N24   , Gs1 , v112
	.byte		N24   , Gs2 
	.byte	W24
	.byte		N18   , En2 
	.byte		N18   , En3 
	.byte	W24
	.byte		N24   , Gs1 
	.byte		N24   , Gs2 
	.byte	W24
	.byte		N18   , En2 
	.byte		N18   , En3 
	.byte	W24
	.byte	PEND
@ 205   ----------------------------------------
mus_thpprf_darkpegasus_5_205:
	.byte		N24   , Gn1 , v112
	.byte		N24   , Gn2 
	.byte	W24
	.byte		N18   , En2 
	.byte		N18   , En3 
	.byte	W24
	.byte		N24   , Gn1 
	.byte		N24   , Gn2 
	.byte	W24
	.byte		N18   , En2 
	.byte		N18   , En3 
	.byte	W24
	.byte	PEND
@ 206   ----------------------------------------
	.byte	PATT
	 .word	mus_thpprf_darkpegasus_5_205
@ 207   ----------------------------------------
	.byte	PATT
	 .word	mus_thpprf_darkpegasus_5_195
@ 208   ----------------------------------------
	.byte	PATT
	 .word	mus_thpprf_darkpegasus_5_195
@ 209   ----------------------------------------
	.byte	PATT
	 .word	mus_thpprf_darkpegasus_5_193
@ 210   ----------------------------------------
	.byte	PATT
	 .word	mus_thpprf_darkpegasus_5_194
@ 211   ----------------------------------------
	.byte	PATT
	 .word	mus_thpprf_darkpegasus_5_195
@ 212   ----------------------------------------
	.byte	PATT
	 .word	mus_thpprf_darkpegasus_5_196
@ 213   ----------------------------------------
	.byte	PATT
	 .word	mus_thpprf_darkpegasus_5_197
@ 214   ----------------------------------------
	.byte	PATT
	 .word	mus_thpprf_darkpegasus_5_198
@ 215   ----------------------------------------
	.byte	PATT
	 .word	mus_thpprf_darkpegasus_5_199
@ 216   ----------------------------------------
	.byte	PATT
	 .word	mus_thpprf_darkpegasus_5_200
@ 217   ----------------------------------------
	.byte	PATT
	 .word	mus_thpprf_darkpegasus_5_201
@ 218   ----------------------------------------
	.byte	PATT
	 .word	mus_thpprf_darkpegasus_5_201
@ 219   ----------------------------------------
	.byte	PATT
	 .word	mus_thpprf_darkpegasus_5_203
@ 220   ----------------------------------------
	.byte	PATT
	 .word	mus_thpprf_darkpegasus_5_204
@ 221   ----------------------------------------
	.byte	PATT
	 .word	mus_thpprf_darkpegasus_5_205
@ 222   ----------------------------------------
	.byte	PATT
	 .word	mus_thpprf_darkpegasus_5_205
@ 223   ----------------------------------------
	.byte	PATT
	 .word	mus_thpprf_darkpegasus_5_195
@ 224   ----------------------------------------
	.byte	PATT
	 .word	mus_thpprf_darkpegasus_5_195
@ 225   ----------------------------------------
	.byte	PATT
	 .word	mus_thpprf_darkpegasus_5_108
@ 226   ----------------------------------------
mus_thpprf_darkpegasus_5_226:
	.byte		N24   , Fn1 , v112
	.byte		N24   , Fn2 
	.byte	W24
	.byte		N18   , Cs2 
	.byte		N18   , Cs3 
	.byte	W24
	.byte		N24   , Fn1 
	.byte		N24   , Fn2 
	.byte	W24
	.byte		N12   , Cs2 
	.byte		N12   , Cs3 
	.byte	W12
	.byte		        Ds1 
	.byte		N12   , Ds2 
	.byte	W12
	.byte	PEND
@ 227   ----------------------------------------
	.byte	PATT
	 .word	mus_thpprf_darkpegasus_5_109
@ 228   ----------------------------------------
mus_thpprf_darkpegasus_5_228:
	.byte		N24   , En1 , v112
	.byte		N24   , En2 
	.byte	W24
	.byte		N18   , Cs2 
	.byte		N18   , Cs3 
	.byte	W24
	.byte		N24   , En1 
	.byte		N24   , En2 
	.byte	W24
	.byte		N12   , Cs2 
	.byte		N12   , Cs3 
	.byte	W12
	.byte		        Dn1 
	.byte		N12   , Dn2 
	.byte	W12
	.byte	PEND
@ 229   ----------------------------------------
mus_thpprf_darkpegasus_5_229:
	.byte		N24   , Ds1 , v112
	.byte		N24   , Ds2 
	.byte	W24
	.byte		N18   , Cs2 
	.byte		N18   , Cs3 
	.byte	W24
	.byte		N24   , Ds1 
	.byte		N24   , Ds2 
	.byte	W24
	.byte		N18   , Cs2 
	.byte		N18   , Cs3 
	.byte	W24
	.byte	PEND
@ 230   ----------------------------------------
mus_thpprf_darkpegasus_5_230:
	.byte		N24   , Ds1 , v112
	.byte		N24   , Ds2 
	.byte	W24
	.byte		N18   , Cs2 
	.byte		N18   , Cs3 
	.byte	W24
	.byte		N24   , Ds1 
	.byte		N24   , Ds2 
	.byte	W24
	.byte		N12   , Cs2 
	.byte		N12   , Cs3 
	.byte	W12
	.byte		        Cs1 
	.byte		N12   , Cs2 
	.byte	W12
	.byte	PEND
@ 231   ----------------------------------------
mus_thpprf_darkpegasus_5_231:
	.byte		N30   , Dn1 , v112
	.byte		N30   , Dn2 
	.byte	W36
	.byte		        Dn1 
	.byte		N30   , Dn2 
	.byte	W36
	.byte		N24   , Dn1 
	.byte		N24   , Dn2 
	.byte	W24
	.byte	PEND
@ 232   ----------------------------------------
mus_thpprf_darkpegasus_5_232:
	.byte		N18   , Cs1 , v112
	.byte		N18   , Cs2 
	.byte	W24
	.byte		        Cs1 
	.byte		N18   , Cs2 
	.byte	W24
	.byte		N12   , Cs1 
	.byte		N12   , Cs2 
	.byte	W12
	.byte		        Cs1 
	.byte		N12   , Cs2 
	.byte	W12
	.byte		        Cs1 
	.byte		N12   , Cs2 
	.byte	W12
	.byte		        Cs1 
	.byte		N12   , Cs2 
	.byte	W12
	.byte	PEND
@ 233   ----------------------------------------
mus_thpprf_darkpegasus_5_233:
	.byte		N24   , Dn1 , v112
	.byte		N24   , Dn2 
	.byte	W24
	.byte		N18   
	.byte		N18   , Dn3 
	.byte	W24
	.byte		N24   , Dn1 
	.byte		N24   , Dn2 
	.byte	W24
	.byte		N12   
	.byte		N12   , Dn3 
	.byte	W12
	.byte		        An1 
	.byte		N12   , An2 
	.byte	W12
	.byte	PEND
@ 234   ----------------------------------------
	.byte	PATT
	 .word	mus_thpprf_darkpegasus_5_233
@ 235   ----------------------------------------
mus_thpprf_darkpegasus_5_235:
	.byte		N24   , An1 , v112
	.byte		N24   , An2 
	.byte	W24
	.byte		N18   , Fn2 
	.byte		N18   , Fn3 
	.byte	W24
	.byte		N24   , An1 
	.byte		N24   , An2 
	.byte	W24
	.byte		N12   , Fn2 
	.byte		N12   , Fn3 
	.byte	W12
	.byte		        Cn2 
	.byte		N12   , Cn3 
	.byte	W12
	.byte	PEND
@ 236   ----------------------------------------
mus_thpprf_darkpegasus_5_236:
	.byte		N24   , An1 , v112
	.byte		N24   , An2 
	.byte	W24
	.byte		N18   , Fn2 
	.byte		N18   , Fn3 
	.byte	W24
	.byte		N24   , An1 
	.byte		N24   , An2 
	.byte	W24
	.byte		N18   , Fn2 
	.byte		N18   , Fn3 
	.byte	W24
	.byte	PEND
@ 237   ----------------------------------------
mus_thpprf_darkpegasus_5_237:
	.byte		N24   , Gs1 , v112
	.byte		N24   , Gs2 
	.byte	W24
	.byte		N18   , Fn2 
	.byte		N18   , Fn3 
	.byte	W24
	.byte		N24   , Gs1 
	.byte		N24   , Gs2 
	.byte	W24
	.byte		N18   , Fn2 
	.byte		N18   , Fn3 
	.byte	W24
	.byte	PEND
@ 238   ----------------------------------------
	.byte	PATT
	 .word	mus_thpprf_darkpegasus_5_237
@ 239   ----------------------------------------
	.byte	PATT
	 .word	mus_thpprf_darkpegasus_5_109
@ 240   ----------------------------------------
	.byte	PATT
	 .word	mus_thpprf_darkpegasus_5_109
@ 241   ----------------------------------------
	.byte	PATT
	 .word	mus_thpprf_darkpegasus_5_108
@ 242   ----------------------------------------
	.byte	PATT
	 .word	mus_thpprf_darkpegasus_5_226
@ 243   ----------------------------------------
	.byte	PATT
	 .word	mus_thpprf_darkpegasus_5_109
@ 244   ----------------------------------------
	.byte	PATT
	 .word	mus_thpprf_darkpegasus_5_228
@ 245   ----------------------------------------
	.byte	PATT
	 .word	mus_thpprf_darkpegasus_5_229
@ 246   ----------------------------------------
	.byte	PATT
	 .word	mus_thpprf_darkpegasus_5_230
@ 247   ----------------------------------------
	.byte	PATT
	 .word	mus_thpprf_darkpegasus_5_231
@ 248   ----------------------------------------
	.byte	PATT
	 .word	mus_thpprf_darkpegasus_5_232
@ 249   ----------------------------------------
	.byte	PATT
	 .word	mus_thpprf_darkpegasus_5_233
@ 250   ----------------------------------------
	.byte	PATT
	 .word	mus_thpprf_darkpegasus_5_233
@ 251   ----------------------------------------
	.byte	PATT
	 .word	mus_thpprf_darkpegasus_5_235
@ 252   ----------------------------------------
	.byte	PATT
	 .word	mus_thpprf_darkpegasus_5_236
@ 253   ----------------------------------------
	.byte	PATT
	 .word	mus_thpprf_darkpegasus_5_237
@ 254   ----------------------------------------
	.byte	PATT
	 .word	mus_thpprf_darkpegasus_5_237
@ 255   ----------------------------------------
	.byte	PATT
	 .word	mus_thpprf_darkpegasus_5_109
@ 256   ----------------------------------------
	.byte	PATT
	 .word	mus_thpprf_darkpegasus_5_109
@ 257   ----------------------------------------
mus_thpprf_darkpegasus_5_257:
	.byte		N48   , As0 , v112
	.byte		N48   , As1 
	.byte	W72
	.byte		        As0 
	.byte		N48   , As1 
	.byte	W24
	.byte	PEND
@ 258   ----------------------------------------
mus_thpprf_darkpegasus_5_258:
	.byte	W48
	.byte		N48   , As0 , v112
	.byte		N48   , As1 
	.byte	W48
	.byte	PEND
@ 259   ----------------------------------------
	.byte		        Gs0 
	.byte		N48   , Gs1 
	.byte	W72
	.byte		        Gs0 
	.byte		N48   , Gs1 
	.byte	W24
@ 260   ----------------------------------------
	.byte	W24
	.byte		N12   , Fn0 
	.byte		N12   , Fn1 
	.byte	W24
	.byte		N48   , Gs0 
	.byte		N48   , Gs1 
	.byte	W48
@ 261   ----------------------------------------
	.byte		        Fs0 
	.byte		N48   , Fs1 
	.byte	W72
	.byte		        Fs0 
	.byte		N48   , Fs1 
	.byte	W24
@ 262   ----------------------------------------
	.byte	W24
	.byte		N12   , Ds0 
	.byte		N12   , Ds1 
	.byte	W24
	.byte		N48   , Fs0 
	.byte		N48   , Fs1 
	.byte	W48
@ 263   ----------------------------------------
mus_thpprf_darkpegasus_5_263:
	.byte		N24   , Gs0 , v112
	.byte		N24   , Gs1 
	.byte	W24
	.byte		N12   , Ds1 
	.byte		N12   , Ds2 
	.byte	W24
	.byte		N24   , Gs0 
	.byte		N24   , Gs1 
	.byte	W24
	.byte		        Ds1 
	.byte		N24   , Ds2 
	.byte	W24
	.byte	PEND
@ 264   ----------------------------------------
mus_thpprf_darkpegasus_5_264:
	.byte		N24   , Gs0 , v112
	.byte		N24   , Gs1 
	.byte	W24
	.byte		N12   , Fn0 
	.byte		N12   , Fn1 
	.byte	W24
	.byte		N42   , Gs0 
	.byte		N42   , Gs1 
	.byte	W48
	.byte	PEND
@ 265   ----------------------------------------
	.byte	PATT
	 .word	mus_thpprf_darkpegasus_5_257
@ 266   ----------------------------------------
	.byte	PATT
	 .word	mus_thpprf_darkpegasus_5_258
@ 267   ----------------------------------------
	.byte		N48   , Cn1 , v112
	.byte		N48   , Cn2 
	.byte	W72
	.byte		        Cn1 
	.byte		N48   , Cn2 
	.byte	W24
@ 268   ----------------------------------------
	.byte	W24
	.byte		N12   , Fn0 
	.byte		N12   , Fn1 
	.byte	W24
	.byte		N48   , Cn1 
	.byte		N48   , Cn2 
	.byte	W48
@ 269   ----------------------------------------
	.byte		        Cs1 
	.byte		N48   , Cs2 
	.byte	W72
	.byte		        Cs1 
	.byte		N48   , Cs2 
	.byte	W24
@ 270   ----------------------------------------
	.byte	W24
	.byte		N12   , Ds0 
	.byte		N12   , Ds1 
	.byte	W24
	.byte		N48   , Cs1 
	.byte		N48   , Cs2 
	.byte	W48
@ 271   ----------------------------------------
	.byte	PATT
	 .word	mus_thpprf_darkpegasus_5_263
@ 272   ----------------------------------------
	.byte	PATT
	 .word	mus_thpprf_darkpegasus_5_264
@ 273   ----------------------------------------
mus_thpprf_darkpegasus_5_273:
	.byte		N24   , As0 , v112
	.byte		N24   , As1 
	.byte	W24
	.byte		N18   , Fn1 
	.byte		N18   , Fn2 
	.byte	W24
	.byte		N24   , As0 
	.byte		N24   , As1 
	.byte	W24
	.byte		        Fn1 
	.byte		N24   , Fn2 
	.byte	W24
	.byte	PEND
@ 274   ----------------------------------------
mus_thpprf_darkpegasus_5_274:
	.byte		N24   , As0 , v112
	.byte		N24   , As1 
	.byte	W24
	.byte		N12   , Gs0 
	.byte		N12   , Gs1 
	.byte	W24
	.byte		N42   , As0 
	.byte		N42   , As1 
	.byte	W48
	.byte	PEND
@ 275   ----------------------------------------
mus_thpprf_darkpegasus_5_275:
	.byte		N24   , Gs0 , v112
	.byte		N24   , Gs1 
	.byte	W24
	.byte		N18   , Ds1 
	.byte		N18   , Ds2 
	.byte	W24
	.byte		N24   , Gs0 
	.byte		N24   , Gs1 
	.byte	W24
	.byte		        Ds1 
	.byte		N24   , Ds2 
	.byte	W24
	.byte	PEND
@ 276   ----------------------------------------
	.byte	PATT
	 .word	mus_thpprf_darkpegasus_5_264
@ 277   ----------------------------------------
	.byte	PATT
	 .word	mus_thpprf_darkpegasus_5_041
@ 278   ----------------------------------------
	.byte	PATT
	 .word	mus_thpprf_darkpegasus_5_018
@ 279   ----------------------------------------
	.byte	PATT
	 .word	mus_thpprf_darkpegasus_5_275
@ 280   ----------------------------------------
	.byte	PATT
	 .word	mus_thpprf_darkpegasus_5_264
@ 281   ----------------------------------------
	.byte	PATT
	 .word	mus_thpprf_darkpegasus_5_273
@ 282   ----------------------------------------
	.byte	PATT
	 .word	mus_thpprf_darkpegasus_5_274
@ 283   ----------------------------------------
	.byte		N24   , Cn1 , v112
	.byte		N24   , Cn2 
	.byte	W24
	.byte		N18   , Gs1 
	.byte		N18   , Gs2 
	.byte	W24
	.byte		N24   , Cn1 
	.byte		N24   , Cn2 
	.byte	W24
	.byte		        Gs1 
	.byte		N24   , Gs2 
	.byte	W24
@ 284   ----------------------------------------
	.byte		        Cn1 
	.byte		N24   , Cn2 
	.byte	W24
	.byte		N12   , As0 
	.byte		N12   , As1 
	.byte	W24
	.byte		N42   , Cn1 
	.byte		N42   , Cn2 
	.byte	W48
@ 285   ----------------------------------------
	.byte		N24   , As0 
	.byte		N24   , As1 
	.byte	W24
	.byte		N18   , Fs1 
	.byte		N18   , Fs2 
	.byte	W24
	.byte		N24   , As0 
	.byte		N24   , As1 
	.byte	W24
	.byte		        Fs1 
	.byte		N24   , Fs2 
	.byte	W24
@ 286   ----------------------------------------
	.byte	PATT
	 .word	mus_thpprf_darkpegasus_5_274
@ 287   ----------------------------------------
	.byte	PATT
	 .word	mus_thpprf_darkpegasus_5_275
@ 288   ----------------------------------------
	.byte	PATT
	 .word	mus_thpprf_darkpegasus_5_264
@ 289   ----------------------------------------
mus_thpprf_darkpegasus_5_289:
	.byte		N24   , As1 , v112
	.byte		N24   , As2 
	.byte	W72
	.byte		        As1 
	.byte		N24   , As2 
	.byte	W24
	.byte	PEND
@ 290   ----------------------------------------
mus_thpprf_darkpegasus_5_290:
	.byte	W48
	.byte		N42   , As1 , v112
	.byte		N42   , As2 
	.byte	W48
	.byte	PEND
@ 291   ----------------------------------------
	.byte	PATT
	 .word	mus_thpprf_darkpegasus_5_289
@ 292   ----------------------------------------
mus_thpprf_darkpegasus_5_292:
	.byte	W24
	.byte		N24   , Fn1 , v112
	.byte		N24   , Fn2 
	.byte	W24
	.byte		        As1 
	.byte		N24   , As2 
	.byte	W24
	.byte		        Fn1 
	.byte		N24   , Fn2 
	.byte	W24
	.byte	PEND
@ 293   ----------------------------------------
	.byte	PATT
	 .word	mus_thpprf_darkpegasus_5_289
@ 294   ----------------------------------------
	.byte	PATT
	 .word	mus_thpprf_darkpegasus_5_290
@ 295   ----------------------------------------
	.byte	PATT
	 .word	mus_thpprf_darkpegasus_5_289
@ 296   ----------------------------------------
	.byte	PATT
	 .word	mus_thpprf_darkpegasus_5_292
@ 297   ----------------------------------------
	.byte	PATT
	 .word	mus_thpprf_darkpegasus_5_001
@ 298   ----------------------------------------
	.byte	PATT
	 .word	mus_thpprf_darkpegasus_5_002
@ 299   ----------------------------------------
	.byte	PATT
	 .word	mus_thpprf_darkpegasus_5_001
@ 300   ----------------------------------------
	.byte	PATT
	 .word	mus_thpprf_darkpegasus_5_004
@ 301   ----------------------------------------
	.byte	PATT
	 .word	mus_thpprf_darkpegasus_5_001
@ 302   ----------------------------------------
	.byte	PATT
	 .word	mus_thpprf_darkpegasus_5_002
@ 303   ----------------------------------------
	.byte	PATT
	 .word	mus_thpprf_darkpegasus_5_001
@ 304   ----------------------------------------
	.byte	PATT
	 .word	mus_thpprf_darkpegasus_5_004
@ 305   ----------------------------------------
mus_thpprf_darkpegasus_5_305:
	.byte		N24   , As1 , v112
	.byte		N24   , As2 
	.byte	W24
	.byte		N18   , Fn2 
	.byte		N18   , Fn3 
	.byte	W24
	.byte		N24   , As1 
	.byte		N24   , As2 
	.byte	W24
	.byte		N12   , Fn2 
	.byte		N12   , Fn3 
	.byte	W12
	.byte		        As1 
	.byte		N12   , As2 
	.byte	W12
	.byte	PEND
@ 306   ----------------------------------------
mus_thpprf_darkpegasus_5_306:
	.byte		N24   , As1 , v112
	.byte		N24   , As2 
	.byte	W24
	.byte		N12   , Gs1 
	.byte		N12   , Gs2 
	.byte	W24
	.byte		N42   , As1 
	.byte		N42   , As2 
	.byte	W48
	.byte	PEND
@ 307   ----------------------------------------
	.byte	PATT
	 .word	mus_thpprf_darkpegasus_5_305
@ 308   ----------------------------------------
mus_thpprf_darkpegasus_5_308:
	.byte		N24   , As1 , v112
	.byte		N24   , As2 
	.byte	W48
	.byte		N42   , As1 
	.byte		N42   , As2 
	.byte	W48
	.byte	PEND
@ 309   ----------------------------------------
	.byte	PATT
	 .word	mus_thpprf_darkpegasus_5_305
@ 310   ----------------------------------------
	.byte	PATT
	 .word	mus_thpprf_darkpegasus_5_306
@ 311   ----------------------------------------
	.byte	PATT
	 .word	mus_thpprf_darkpegasus_5_305
@ 312   ----------------------------------------
	.byte	PATT
	 .word	mus_thpprf_darkpegasus_5_308
@ 313   ----------------------------------------
mus_thpprf_darkpegasus_5_313:
	.byte		N24   , Fs1 , v112
	.byte		N24   , Fs2 
	.byte	W24
	.byte		N18   , Cs2 
	.byte		N18   , Cs3 
	.byte	W24
	.byte		N24   , Fs1 
	.byte		N24   , Fs2 
	.byte	W24
	.byte		N12   , Cs2 
	.byte		N12   , Cs3 
	.byte	W12
	.byte		        Fs1 
	.byte		N12   , Fs2 
	.byte	W12
	.byte	PEND
@ 314   ----------------------------------------
mus_thpprf_darkpegasus_5_314:
	.byte		N24   , Fs1 , v112
	.byte		N24   , Fs2 
	.byte	W24
	.byte		N12   , En1 
	.byte		N12   , En2 
	.byte	W24
	.byte		N42   , Fs1 
	.byte		N42   , Fs2 
	.byte	W48
	.byte	PEND
@ 315   ----------------------------------------
	.byte	PATT
	 .word	mus_thpprf_darkpegasus_5_313
@ 316   ----------------------------------------
mus_thpprf_darkpegasus_5_316:
	.byte		N24   , Fs1 , v112
	.byte		N24   , Fs2 
	.byte	W48
	.byte		N42   , Fs1 
	.byte		N42   , Fs2 
	.byte	W48
	.byte	PEND
@ 317   ----------------------------------------
	.byte	PATT
	 .word	mus_thpprf_darkpegasus_5_313
@ 318   ----------------------------------------
	.byte	PATT
	 .word	mus_thpprf_darkpegasus_5_314
@ 319   ----------------------------------------
	.byte	PATT
	 .word	mus_thpprf_darkpegasus_5_313
@ 320   ----------------------------------------
	.byte	PATT
	 .word	mus_thpprf_darkpegasus_5_316
@ 321   ----------------------------------------
	.byte	GOTO
	.word	mus_thpprf_darkpegasus_5_033
	.byte	FINE

@**************** Track 6 (Midi-Chn.6) ****************@

mus_thpprf_darkpegasus_6:
	.byte	KEYSH , mus_thpprf_darkpegasus_key+0
@ 000   ----------------------------------------
	.byte		VOICE , 29
	.byte		PAN   , c_v+0
	.byte		VOL   , 69*mus_thpprf_darkpegasus_mvl/mxv
	.byte		BEND  , c_v+0
@ 001   ----------------------------------------
	.byte	W96
@ 002   ----------------------------------------
	.byte	W96
@ 003   ----------------------------------------
	.byte	W96
@ 004   ----------------------------------------
	.byte	W96
@ 005   ----------------------------------------
	.byte	W96
@ 006   ----------------------------------------
	.byte	W96
@ 007   ----------------------------------------
	.byte	W96
@ 008   ----------------------------------------
	.byte	W96
@ 009   ----------------------------------------
	.byte	W96
@ 010   ----------------------------------------
	.byte	W96
@ 011   ----------------------------------------
	.byte	W96
@ 012   ----------------------------------------
	.byte	W96
@ 013   ----------------------------------------
	.byte	W96
@ 014   ----------------------------------------
	.byte	W96
@ 015   ----------------------------------------
	.byte	W96
@ 016   ----------------------------------------
	.byte	W96
@ 017   ----------------------------------------
	.byte	W96
@ 018   ----------------------------------------
	.byte	W96
@ 019   ----------------------------------------
	.byte	W96
@ 020   ----------------------------------------
	.byte	W96
@ 021   ----------------------------------------
	.byte	W96
@ 022   ----------------------------------------
	.byte	W96
@ 023   ----------------------------------------
	.byte	W96
@ 024   ----------------------------------------
	.byte	W96
@ 025   ----------------------------------------
	.byte	W96
@ 026   ----------------------------------------
	.byte	W96
@ 027   ----------------------------------------
	.byte	W96
@ 028   ----------------------------------------
	.byte	W96
@ 029   ----------------------------------------
	.byte	W96
@ 030   ----------------------------------------
	.byte	W96
@ 031   ----------------------------------------
	.byte	W96
@ 032   ----------------------------------------
	.byte	W96
@ 033   ----------------------------------------
mus_thpprf_darkpegasus_6_033:
	.byte	W96
@ 034   ----------------------------------------
	.byte	W96
@ 035   ----------------------------------------
	.byte	W96
@ 036   ----------------------------------------
	.byte	W96
@ 037   ----------------------------------------
	.byte	W96
@ 038   ----------------------------------------
	.byte	W96
@ 039   ----------------------------------------
	.byte	W96
@ 040   ----------------------------------------
	.byte	W96
@ 041   ----------------------------------------
	.byte	W96
@ 042   ----------------------------------------
	.byte	W96
@ 043   ----------------------------------------
	.byte	W96
@ 044   ----------------------------------------
	.byte	W96
@ 045   ----------------------------------------
	.byte	W96
@ 046   ----------------------------------------
	.byte	W96
@ 047   ----------------------------------------
	.byte	W96
@ 048   ----------------------------------------
	.byte	W96
@ 049   ----------------------------------------
	.byte	W96
@ 050   ----------------------------------------
	.byte	W96
@ 051   ----------------------------------------
	.byte	W96
@ 052   ----------------------------------------
	.byte	W96
@ 053   ----------------------------------------
	.byte	W96
@ 054   ----------------------------------------
	.byte	W96
@ 055   ----------------------------------------
	.byte	W96
@ 056   ----------------------------------------
	.byte	W96
@ 057   ----------------------------------------
	.byte	W96
@ 058   ----------------------------------------
	.byte	W96
@ 059   ----------------------------------------
	.byte	W96
@ 060   ----------------------------------------
	.byte	W96
@ 061   ----------------------------------------
	.byte	W96
@ 062   ----------------------------------------
	.byte	W96
@ 063   ----------------------------------------
	.byte	W96
@ 064   ----------------------------------------
	.byte	W96
@ 065   ----------------------------------------
	.byte	W96
@ 066   ----------------------------------------
	.byte	W96
@ 067   ----------------------------------------
	.byte	W96
@ 068   ----------------------------------------
	.byte	W96
@ 069   ----------------------------------------
	.byte	W96
@ 070   ----------------------------------------
	.byte	W96
@ 071   ----------------------------------------
	.byte	W96
@ 072   ----------------------------------------
	.byte	W96
@ 073   ----------------------------------------
	.byte	W96
@ 074   ----------------------------------------
	.byte	W96
@ 075   ----------------------------------------
	.byte	W96
@ 076   ----------------------------------------
	.byte	W96
@ 077   ----------------------------------------
	.byte	W96
@ 078   ----------------------------------------
	.byte	W96
@ 079   ----------------------------------------
	.byte	W96
@ 080   ----------------------------------------
	.byte	W96
@ 081   ----------------------------------------
	.byte	W96
@ 082   ----------------------------------------
	.byte	W96
@ 083   ----------------------------------------
	.byte	W96
@ 084   ----------------------------------------
	.byte	W96
@ 085   ----------------------------------------
	.byte	W96
@ 086   ----------------------------------------
	.byte	W96
@ 087   ----------------------------------------
	.byte	W96
@ 088   ----------------------------------------
	.byte	W96
@ 089   ----------------------------------------
	.byte	W96
@ 090   ----------------------------------------
	.byte	W96
@ 091   ----------------------------------------
	.byte	W96
@ 092   ----------------------------------------
	.byte	W96
@ 093   ----------------------------------------
	.byte	W96
@ 094   ----------------------------------------
	.byte	W96
@ 095   ----------------------------------------
	.byte	W96
@ 096   ----------------------------------------
	.byte	W96
@ 097   ----------------------------------------
	.byte		VOICE , 29
	.byte		VOL   , 65*mus_thpprf_darkpegasus_mvl/mxv
	.byte		N60   , Cs4 , v112
	.byte	W78
	.byte		N06   , As3 
	.byte	W06
	.byte		        Bn3 
	.byte	W06
	.byte		        Cn4 
	.byte	W06
@ 098   ----------------------------------------
mus_thpprf_darkpegasus_6_098:
	.byte		N36   , Cs4 , v112
	.byte	W36
	.byte		N30   , Cs3 , v108
	.byte		N36   , An3 , v112
	.byte	W36
	.byte		N24   , Cs4 
	.byte	W24
	.byte	PEND
@ 099   ----------------------------------------
mus_thpprf_darkpegasus_6_099:
	.byte		N60   , Cn4 , v112
	.byte	W78
	.byte		N06   , An3 
	.byte	W06
	.byte		        As3 
	.byte	W06
	.byte		        Bn3 
	.byte	W06
	.byte	PEND
@ 100   ----------------------------------------
	.byte		N36   , Cn4 
	.byte	W36
	.byte		        An3 
	.byte	W36
	.byte		N24   , Cn4 
	.byte	W24
@ 101   ----------------------------------------
mus_thpprf_darkpegasus_6_101:
	.byte		N60   , Bn3 , v112
	.byte	W78
	.byte		N06   , Gs3 
	.byte	W06
	.byte		        An3 
	.byte	W06
	.byte		        As3 
	.byte	W06
	.byte	PEND
@ 102   ----------------------------------------
mus_thpprf_darkpegasus_6_102:
	.byte		N36   , Bn3 , v112
	.byte	W36
	.byte		N30   , Bn2 , v108
	.byte		N36   , Gn3 , v112
	.byte	W36
	.byte		N24   , Bn3 
	.byte	W24
	.byte	PEND
@ 103   ----------------------------------------
mus_thpprf_darkpegasus_6_103:
	.byte		N24   , As3 , v112
	.byte	W36
	.byte		N30   , As2 , v108
	.byte		N24   , Fs3 , v112
	.byte	W36
	.byte		N18   , As3 
	.byte	W24
	.byte	PEND
@ 104   ----------------------------------------
mus_thpprf_darkpegasus_6_104:
	.byte		N24   , An3 , v112
	.byte	W36
	.byte		N30   , An2 , v108
	.byte		N24   , Fn3 , v112
	.byte	W36
	.byte		N18   , An3 
	.byte	W24
	.byte	PEND
@ 105   ----------------------------------------
	.byte		N72   , As3 
	.byte	W96
@ 106   ----------------------------------------
mus_thpprf_darkpegasus_6_106:
	.byte		N30   , Cs3 , v108
	.byte		N36   , As3 , v112
	.byte	W36
	.byte		        Cs4 
	.byte	W36
	.byte		N24   , En4 
	.byte	W24
	.byte	PEND
@ 107   ----------------------------------------
	.byte		N60   , Fn4 
	.byte	W60
	.byte		N06   , En4 
	.byte	W06
	.byte		        Ds4 
	.byte	W30
@ 108   ----------------------------------------
mus_thpprf_darkpegasus_6_108:
	.byte		N42   , Fn3 , v108
	.byte		N48   , Cn4 , v112
	.byte	W48
	.byte		        Fn4 
	.byte	W48
	.byte	PEND
@ 109   ----------------------------------------
	.byte		N72   , En4 
	.byte	W96
@ 110   ----------------------------------------
	.byte		N42   , En3 , v108
	.byte		N48   , Cn4 , v112
	.byte	W48
	.byte		        En4 
	.byte	W48
@ 111   ----------------------------------------
	.byte		N36   , Fn4 
	.byte	W36
	.byte		        Cn4 
	.byte	W36
	.byte		N24   , As3 
	.byte	W24
@ 112   ----------------------------------------
	.byte		N96   , An3 
	.byte	W48
	.byte		N48   , Cn3 , v108
	.byte	W48
@ 113   ----------------------------------------
	.byte		N60   , Cs4 , v112
	.byte	W78
	.byte		N06   , As3 
	.byte	W06
	.byte		        Bn3 
	.byte	W06
	.byte		        Cn4 
	.byte	W06
@ 114   ----------------------------------------
	.byte	PATT
	 .word	mus_thpprf_darkpegasus_6_098
@ 115   ----------------------------------------
	.byte	PATT
	 .word	mus_thpprf_darkpegasus_6_099
@ 116   ----------------------------------------
	.byte		N36   , Cn4 , v112
	.byte	W36
	.byte		N30   , Cn3 , v108
	.byte		N36   , An3 , v112
	.byte	W36
	.byte		N24   , Cn4 
	.byte	W24
@ 117   ----------------------------------------
	.byte	PATT
	 .word	mus_thpprf_darkpegasus_6_101
@ 118   ----------------------------------------
	.byte	PATT
	 .word	mus_thpprf_darkpegasus_6_102
@ 119   ----------------------------------------
	.byte	PATT
	 .word	mus_thpprf_darkpegasus_6_103
@ 120   ----------------------------------------
	.byte	PATT
	 .word	mus_thpprf_darkpegasus_6_104
@ 121   ----------------------------------------
	.byte		N72   , As3 , v112
	.byte	W96
@ 122   ----------------------------------------
	.byte	PATT
	 .word	mus_thpprf_darkpegasus_6_106
@ 123   ----------------------------------------
	.byte		N60   , Fn4 , v112
	.byte	W96
@ 124   ----------------------------------------
	.byte	PATT
	 .word	mus_thpprf_darkpegasus_6_108
@ 125   ----------------------------------------
	.byte		N30   , En4 , v112
	.byte	W36
	.byte		        En3 , v108
	.byte		N30   , Cn4 , v112
	.byte	W36
	.byte		N24   , En4 
	.byte	W24
@ 126   ----------------------------------------
	.byte		N30   , Gn3 , v108
	.byte		N30   , Fn4 , v112
	.byte	W36
	.byte		        Gn4 
	.byte	W36
	.byte		N24   , As4 
	.byte	W24
@ 127   ----------------------------------------
	.byte		        An4 
	.byte	W24
	.byte		        Fn4 
	.byte	W24
	.byte		        Cn4 
	.byte	W24
	.byte		        En4 
	.byte	W24
@ 128   ----------------------------------------
	.byte		        Fn4 
	.byte	W36
	.byte		        Gs4 
	.byte	W36
	.byte		        Cs5 
	.byte	W24
@ 129   ----------------------------------------
	.byte	W96
@ 130   ----------------------------------------
	.byte	W96
@ 131   ----------------------------------------
	.byte	W96
@ 132   ----------------------------------------
	.byte	W96
@ 133   ----------------------------------------
	.byte	W96
@ 134   ----------------------------------------
	.byte	W96
@ 135   ----------------------------------------
	.byte	W96
@ 136   ----------------------------------------
	.byte	W96
@ 137   ----------------------------------------
	.byte	W96
@ 138   ----------------------------------------
	.byte	W96
@ 139   ----------------------------------------
	.byte	W96
@ 140   ----------------------------------------
	.byte	W96
@ 141   ----------------------------------------
	.byte	W96
@ 142   ----------------------------------------
	.byte	W96
@ 143   ----------------------------------------
	.byte	W96
@ 144   ----------------------------------------
	.byte	W96
@ 145   ----------------------------------------
	.byte	W96
@ 146   ----------------------------------------
	.byte	W96
@ 147   ----------------------------------------
	.byte	W96
@ 148   ----------------------------------------
	.byte	W96
@ 149   ----------------------------------------
	.byte	W96
@ 150   ----------------------------------------
	.byte	W96
@ 151   ----------------------------------------
	.byte	W96
@ 152   ----------------------------------------
	.byte	W96
@ 153   ----------------------------------------
	.byte	W96
@ 154   ----------------------------------------
	.byte	W96
@ 155   ----------------------------------------
	.byte	W96
@ 156   ----------------------------------------
	.byte	W96
@ 157   ----------------------------------------
	.byte	W96
@ 158   ----------------------------------------
	.byte	W96
@ 159   ----------------------------------------
	.byte	W96
@ 160   ----------------------------------------
	.byte	W96
@ 161   ----------------------------------------
	.byte	W96
@ 162   ----------------------------------------
	.byte	W96
@ 163   ----------------------------------------
	.byte	W96
@ 164   ----------------------------------------
	.byte	W96
@ 165   ----------------------------------------
	.byte	W96
@ 166   ----------------------------------------
	.byte	W96
@ 167   ----------------------------------------
	.byte	W96
@ 168   ----------------------------------------
	.byte	W96
@ 169   ----------------------------------------
	.byte	W96
@ 170   ----------------------------------------
	.byte	W96
@ 171   ----------------------------------------
	.byte	W96
@ 172   ----------------------------------------
	.byte	W96
@ 173   ----------------------------------------
	.byte	W96
@ 174   ----------------------------------------
	.byte	W96
@ 175   ----------------------------------------
	.byte	W96
@ 176   ----------------------------------------
	.byte	W96
@ 177   ----------------------------------------
	.byte	W96
@ 178   ----------------------------------------
	.byte	W96
@ 179   ----------------------------------------
	.byte	W96
@ 180   ----------------------------------------
	.byte	W96
@ 181   ----------------------------------------
	.byte	W96
@ 182   ----------------------------------------
	.byte	W96
@ 183   ----------------------------------------
	.byte	W96
@ 184   ----------------------------------------
	.byte	W96
@ 185   ----------------------------------------
	.byte	W96
@ 186   ----------------------------------------
	.byte	W96
@ 187   ----------------------------------------
	.byte	W96
@ 188   ----------------------------------------
	.byte	W96
@ 189   ----------------------------------------
	.byte	W96
@ 190   ----------------------------------------
	.byte	W96
@ 191   ----------------------------------------
	.byte	W96
@ 192   ----------------------------------------
	.byte	W96
@ 193   ----------------------------------------
	.byte	W96
@ 194   ----------------------------------------
	.byte	W96
@ 195   ----------------------------------------
	.byte	W96
@ 196   ----------------------------------------
	.byte	W96
@ 197   ----------------------------------------
	.byte	W96
@ 198   ----------------------------------------
	.byte	W96
@ 199   ----------------------------------------
	.byte	W96
@ 200   ----------------------------------------
	.byte	W96
@ 201   ----------------------------------------
	.byte	W96
@ 202   ----------------------------------------
	.byte	W96
@ 203   ----------------------------------------
	.byte	W96
@ 204   ----------------------------------------
	.byte	W96
@ 205   ----------------------------------------
	.byte	W96
@ 206   ----------------------------------------
	.byte	W96
@ 207   ----------------------------------------
	.byte	W96
@ 208   ----------------------------------------
	.byte	W96
@ 209   ----------------------------------------
	.byte	W96
@ 210   ----------------------------------------
	.byte	W96
@ 211   ----------------------------------------
	.byte	W96
@ 212   ----------------------------------------
	.byte	W96
@ 213   ----------------------------------------
	.byte	W96
@ 214   ----------------------------------------
	.byte	W96
@ 215   ----------------------------------------
	.byte	W96
@ 216   ----------------------------------------
	.byte	W96
@ 217   ----------------------------------------
	.byte	W96
@ 218   ----------------------------------------
	.byte	W96
@ 219   ----------------------------------------
	.byte	W96
@ 220   ----------------------------------------
	.byte	W96
@ 221   ----------------------------------------
	.byte	W96
@ 222   ----------------------------------------
	.byte	W96
@ 223   ----------------------------------------
	.byte	W96
@ 224   ----------------------------------------
	.byte	W96
@ 225   ----------------------------------------
mus_thpprf_darkpegasus_6_225:
	.byte		N60   , Fn4 , v112
	.byte	W78
	.byte		N06   , Dn4 
	.byte	W06
	.byte		        Ds4 
	.byte	W06
	.byte		        En4 
	.byte	W06
	.byte	PEND
@ 226   ----------------------------------------
	.byte		N36   , Fn4 
	.byte	W36
	.byte		N30   , Fn3 
	.byte		N36   , Cs4 
	.byte	W36
	.byte		N24   , Fn4 
	.byte	W24
@ 227   ----------------------------------------
mus_thpprf_darkpegasus_6_227:
	.byte		N60   , En4 , v112
	.byte	W78
	.byte		N06   , Cs4 
	.byte	W06
	.byte		        Dn4 
	.byte	W06
	.byte		        Ds4 
	.byte	W06
	.byte	PEND
@ 228   ----------------------------------------
mus_thpprf_darkpegasus_6_228:
	.byte		N36   , En4 , v112
	.byte	W36
	.byte		N30   , En3 
	.byte		N36   , Cs4 
	.byte	W36
	.byte		N24   , En4 
	.byte	W24
	.byte	PEND
@ 229   ----------------------------------------
mus_thpprf_darkpegasus_6_229:
	.byte		N60   , Ds4 , v112
	.byte	W78
	.byte		N06   , Cn4 
	.byte	W06
	.byte		        Cs4 
	.byte	W06
	.byte		        Dn4 
	.byte	W06
	.byte	PEND
@ 230   ----------------------------------------
mus_thpprf_darkpegasus_6_230:
	.byte		N36   , Ds4 , v112
	.byte	W36
	.byte		N30   , Ds3 
	.byte		N36   , Bn3 
	.byte	W36
	.byte		N24   , Ds4 
	.byte	W24
	.byte	PEND
@ 231   ----------------------------------------
mus_thpprf_darkpegasus_6_231:
	.byte		N24   , Dn4 , v112
	.byte	W36
	.byte		N30   , Dn3 
	.byte		N24   , As3 
	.byte	W36
	.byte		N18   , Dn4 
	.byte	W24
	.byte	PEND
@ 232   ----------------------------------------
mus_thpprf_darkpegasus_6_232:
	.byte		N24   , Cs4 , v112
	.byte	W36
	.byte		N30   , Cs3 
	.byte		N24   , An3 
	.byte	W36
	.byte		N18   , Cs4 
	.byte	W24
	.byte	PEND
@ 233   ----------------------------------------
	.byte		N72   , Dn4 
	.byte	W96
@ 234   ----------------------------------------
mus_thpprf_darkpegasus_6_234:
	.byte		N30   , Fn3 , v112
	.byte		N36   , Dn4 
	.byte	W36
	.byte		N30   , Fn3 
	.byte		N36   , Fn4 
	.byte	W36
	.byte		N24   , Fn3 
	.byte		N24   , Gs4 
	.byte	W24
	.byte	PEND
@ 235   ----------------------------------------
	.byte		N60   , An4 
	.byte	W60
	.byte		N06   , Gs4 
	.byte	W06
	.byte		        Gn4 
	.byte	W30
@ 236   ----------------------------------------
mus_thpprf_darkpegasus_6_236:
	.byte		N42   , An3 , v112
	.byte		N48   , En4 
	.byte	W48
	.byte		        An4 
	.byte	W48
	.byte	PEND
@ 237   ----------------------------------------
	.byte		N72   , Gs4 
	.byte	W96
@ 238   ----------------------------------------
	.byte		N42   , Gs3 
	.byte		N48   , En4 
	.byte	W48
	.byte		        Gs4 
	.byte	W48
@ 239   ----------------------------------------
	.byte		N36   , An4 
	.byte	W36
	.byte		        En4 
	.byte	W36
	.byte		N24   , Dn4 
	.byte	W24
@ 240   ----------------------------------------
	.byte		N96   , Cs4 
	.byte	W48
	.byte		N48   , En3 
	.byte	W48
@ 241   ----------------------------------------
	.byte	PATT
	 .word	mus_thpprf_darkpegasus_6_225
@ 242   ----------------------------------------
	.byte		N30   , Fn3 , v112
	.byte		N36   , Fn4 
	.byte	W36
	.byte		N30   , Fn3 
	.byte		N36   , Cs4 
	.byte	W36
	.byte		N24   , Fn4 
	.byte	W24
@ 243   ----------------------------------------
	.byte	PATT
	 .word	mus_thpprf_darkpegasus_6_227
@ 244   ----------------------------------------
	.byte	PATT
	 .word	mus_thpprf_darkpegasus_6_228
@ 245   ----------------------------------------
	.byte	PATT
	 .word	mus_thpprf_darkpegasus_6_229
@ 246   ----------------------------------------
	.byte	PATT
	 .word	mus_thpprf_darkpegasus_6_230
@ 247   ----------------------------------------
	.byte	PATT
	 .word	mus_thpprf_darkpegasus_6_231
@ 248   ----------------------------------------
	.byte	PATT
	 .word	mus_thpprf_darkpegasus_6_232
@ 249   ----------------------------------------
	.byte		N72   , Dn4 , v112
	.byte	W96
@ 250   ----------------------------------------
	.byte	PATT
	 .word	mus_thpprf_darkpegasus_6_234
@ 251   ----------------------------------------
	.byte		N60   , An4 , v112
	.byte	W96
@ 252   ----------------------------------------
	.byte	PATT
	 .word	mus_thpprf_darkpegasus_6_236
@ 253   ----------------------------------------
	.byte		N30   , Gs4 , v112
	.byte	W36
	.byte		        Gs3 
	.byte		N30   , En4 
	.byte	W36
	.byte		N24   , Gs4 
	.byte	W24
@ 254   ----------------------------------------
	.byte		N30   , Bn3 
	.byte		N30   , An4 
	.byte	W36
	.byte		        Bn4 
	.byte	W36
	.byte		N24   , Dn5 
	.byte	W24
@ 255   ----------------------------------------
	.byte		        Cs5 
	.byte	W24
	.byte		        An4 
	.byte	W24
	.byte		        En4 
	.byte	W24
	.byte		        Gs4 
	.byte	W24
@ 256   ----------------------------------------
	.byte		        An4 
	.byte	W36
	.byte		        Cn5 
	.byte	W36
	.byte		        Fn5 
	.byte	W24
@ 257   ----------------------------------------
	.byte	W96
@ 258   ----------------------------------------
	.byte	W96
@ 259   ----------------------------------------
	.byte	W96
@ 260   ----------------------------------------
	.byte	W96
@ 261   ----------------------------------------
	.byte	W96
@ 262   ----------------------------------------
	.byte	W96
@ 263   ----------------------------------------
	.byte	W96
@ 264   ----------------------------------------
	.byte	W96
@ 265   ----------------------------------------
	.byte	W96
@ 266   ----------------------------------------
	.byte	W96
@ 267   ----------------------------------------
	.byte	W96
@ 268   ----------------------------------------
	.byte	W96
@ 269   ----------------------------------------
	.byte	W96
@ 270   ----------------------------------------
	.byte	W96
@ 271   ----------------------------------------
	.byte	W96
@ 272   ----------------------------------------
	.byte	W96
@ 273   ----------------------------------------
	.byte	W96
@ 274   ----------------------------------------
	.byte	W96
@ 275   ----------------------------------------
	.byte	W96
@ 276   ----------------------------------------
	.byte	W96
@ 277   ----------------------------------------
	.byte	W96
@ 278   ----------------------------------------
	.byte	W96
@ 279   ----------------------------------------
	.byte	W96
@ 280   ----------------------------------------
	.byte	W96
@ 281   ----------------------------------------
	.byte	W96
@ 282   ----------------------------------------
	.byte	W96
@ 283   ----------------------------------------
	.byte	W96
@ 284   ----------------------------------------
	.byte	W96
@ 285   ----------------------------------------
	.byte	W96
@ 286   ----------------------------------------
	.byte	W96
@ 287   ----------------------------------------
	.byte	W96
@ 288   ----------------------------------------
	.byte	W96
@ 289   ----------------------------------------
	.byte	W96
@ 290   ----------------------------------------
	.byte	W96
@ 291   ----------------------------------------
	.byte	W96
@ 292   ----------------------------------------
	.byte	W96
@ 293   ----------------------------------------
	.byte	W96
@ 294   ----------------------------------------
	.byte	W96
@ 295   ----------------------------------------
	.byte	W96
@ 296   ----------------------------------------
	.byte	W96
@ 297   ----------------------------------------
	.byte	W96
@ 298   ----------------------------------------
	.byte	W96
@ 299   ----------------------------------------
	.byte	W96
@ 300   ----------------------------------------
	.byte	W96
@ 301   ----------------------------------------
	.byte	W96
@ 302   ----------------------------------------
	.byte	W96
@ 303   ----------------------------------------
	.byte	W96
@ 304   ----------------------------------------
	.byte	W96
@ 305   ----------------------------------------
	.byte	W96
@ 306   ----------------------------------------
	.byte	W96
@ 307   ----------------------------------------
	.byte	W96
@ 308   ----------------------------------------
	.byte	W96
@ 309   ----------------------------------------
	.byte	W96
@ 310   ----------------------------------------
	.byte	W96
@ 311   ----------------------------------------
	.byte	W96
@ 312   ----------------------------------------
	.byte	W96
@ 313   ----------------------------------------
	.byte	W96
@ 314   ----------------------------------------
	.byte	W96
@ 315   ----------------------------------------
	.byte	W96
@ 316   ----------------------------------------
	.byte	W96
@ 317   ----------------------------------------
	.byte	W96
@ 318   ----------------------------------------
	.byte	W96
@ 319   ----------------------------------------
	.byte	W96
@ 320   ----------------------------------------
	.byte	W96
@ 321   ----------------------------------------
	.byte	GOTO
	.word	mus_thpprf_darkpegasus_6_033
	.byte	FINE

@**************** Track 7 (Midi-Chn.7) ****************@

mus_thpprf_darkpegasus_7:
	.byte	KEYSH , mus_thpprf_darkpegasus_key+0
@ 000   ----------------------------------------
	.byte		VOICE , 1
	.byte		PAN   , c_v+0
	.byte		VOL   , 87*mus_thpprf_darkpegasus_mvl/mxv
	.byte		BEND  , c_v+0
@ 001   ----------------------------------------
	.byte	W96
@ 002   ----------------------------------------
	.byte	W96
@ 003   ----------------------------------------
	.byte	W96
@ 004   ----------------------------------------
	.byte	W96
@ 005   ----------------------------------------
	.byte	W96
@ 006   ----------------------------------------
	.byte	W96
@ 007   ----------------------------------------
	.byte	W96
@ 008   ----------------------------------------
	.byte	W96
@ 009   ----------------------------------------
	.byte	W96
@ 010   ----------------------------------------
	.byte	W96
@ 011   ----------------------------------------
	.byte	W96
@ 012   ----------------------------------------
	.byte	W96
@ 013   ----------------------------------------
	.byte	W96
@ 014   ----------------------------------------
	.byte	W96
@ 015   ----------------------------------------
	.byte	W96
@ 016   ----------------------------------------
	.byte	W96
@ 017   ----------------------------------------
	.byte	W96
@ 018   ----------------------------------------
	.byte	W96
@ 019   ----------------------------------------
	.byte	W96
@ 020   ----------------------------------------
	.byte	W96
@ 021   ----------------------------------------
	.byte	W96
@ 022   ----------------------------------------
	.byte	W96
@ 023   ----------------------------------------
	.byte	W96
@ 024   ----------------------------------------
	.byte	W96
@ 025   ----------------------------------------
	.byte	W96
@ 026   ----------------------------------------
	.byte	W96
@ 027   ----------------------------------------
	.byte	W96
@ 028   ----------------------------------------
	.byte	W96
@ 029   ----------------------------------------
	.byte	W96
@ 030   ----------------------------------------
	.byte	W96
@ 031   ----------------------------------------
	.byte	W96
@ 032   ----------------------------------------
	.byte	W96
@ 033   ----------------------------------------
mus_thpprf_darkpegasus_7_033:
	.byte	W96
@ 034   ----------------------------------------
	.byte	W96
@ 035   ----------------------------------------
	.byte	W96
@ 036   ----------------------------------------
	.byte	W96
@ 037   ----------------------------------------
	.byte	W96
@ 038   ----------------------------------------
	.byte	W96
@ 039   ----------------------------------------
	.byte	W96
@ 040   ----------------------------------------
	.byte	W96
@ 041   ----------------------------------------
	.byte	W96
@ 042   ----------------------------------------
	.byte	W96
@ 043   ----------------------------------------
	.byte	W96
@ 044   ----------------------------------------
	.byte	W96
@ 045   ----------------------------------------
	.byte	W96
@ 046   ----------------------------------------
	.byte	W96
@ 047   ----------------------------------------
	.byte	W96
@ 048   ----------------------------------------
	.byte	W96
@ 049   ----------------------------------------
	.byte	W96
@ 050   ----------------------------------------
	.byte	W96
@ 051   ----------------------------------------
	.byte	W96
@ 052   ----------------------------------------
	.byte	W96
@ 053   ----------------------------------------
	.byte	W96
@ 054   ----------------------------------------
	.byte	W96
@ 055   ----------------------------------------
	.byte	W96
@ 056   ----------------------------------------
	.byte	W96
@ 057   ----------------------------------------
	.byte	W96
@ 058   ----------------------------------------
	.byte	W96
@ 059   ----------------------------------------
	.byte	W96
@ 060   ----------------------------------------
	.byte	W96
@ 061   ----------------------------------------
	.byte	W96
@ 062   ----------------------------------------
	.byte	W96
@ 063   ----------------------------------------
	.byte	W96
@ 064   ----------------------------------------
	.byte	W96
@ 065   ----------------------------------------
	.byte		VOICE , 1
	.byte		VOL   , 84*mus_thpprf_darkpegasus_mvl/mxv
	.byte		TIE   , Fs1 , v112
	.byte		TIE   , An1 
	.byte	W96
@ 066   ----------------------------------------
	.byte	W96
	.byte		EOT   , Fs1 
	.byte		        An1 
@ 067   ----------------------------------------
mus_thpprf_darkpegasus_7_067:
	.byte		TIE   , Fs1 , v112
	.byte		TIE   , An1 
	.byte	W96
	.byte	PEND
@ 068   ----------------------------------------
	.byte	W96
	.byte		EOT   , Fs1 
	.byte		        An1 
@ 069   ----------------------------------------
	.byte	PATT
	 .word	mus_thpprf_darkpegasus_7_067
@ 070   ----------------------------------------
	.byte	W96
	.byte		EOT   , Fs1 
	.byte		        An1 
@ 071   ----------------------------------------
	.byte		N96   , Ds1 , v112
	.byte		N96   , Fs1 
	.byte	W96
@ 072   ----------------------------------------
	.byte		        Dn1 
	.byte		N96   , Fn1 
	.byte	W96
@ 073   ----------------------------------------
	.byte		TIE   , Cs1 
	.byte		TIE   , Fn1 
	.byte	W96
@ 074   ----------------------------------------
	.byte	W96
	.byte		EOT   , Cs1 
	.byte		        Fn1 
@ 075   ----------------------------------------
	.byte		TIE   
	.byte		TIE   , Gs1 
	.byte	W96
@ 076   ----------------------------------------
	.byte	W96
	.byte		EOT   , Fn1 
	.byte		        Gs1 
@ 077   ----------------------------------------
	.byte		TIE   , Gn1 
	.byte		TIE   , As1 
	.byte	W96
@ 078   ----------------------------------------
	.byte	W96
	.byte		EOT   , Gn1 
	.byte		        As1 
@ 079   ----------------------------------------
	.byte		TIE   , An1 
	.byte		TIE   , Cn2 
	.byte	W96
@ 080   ----------------------------------------
	.byte	W96
	.byte		EOT   , An1 
	.byte		        Cn2 
@ 081   ----------------------------------------
mus_thpprf_darkpegasus_7_081:
	.byte	W24
	.byte		TIE   , An1 , v112
	.byte	W24
	.byte		N24   , Cs2 
	.byte	W24
	.byte		        Fs2 
	.byte	W24
	.byte	PEND
@ 082   ----------------------------------------
mus_thpprf_darkpegasus_7_082:
	.byte		N24   , Gs2 , v112
	.byte	W24
	.byte		        An2 
	.byte	W24
	.byte		        Cs3 
	.byte	W24
	.byte		        An2 
	.byte	W24
	.byte	PEND
	.byte		EOT   , An1 
@ 083   ----------------------------------------
mus_thpprf_darkpegasus_7_083:
	.byte	W24
	.byte		TIE   , An1 , v112
	.byte	W24
	.byte		N24   , Cn2 
	.byte	W24
	.byte		        Fs2 
	.byte	W24
	.byte	PEND
@ 084   ----------------------------------------
mus_thpprf_darkpegasus_7_084:
	.byte		N24   , Gs2 , v112
	.byte	W24
	.byte		        An2 
	.byte	W24
	.byte		        Cn3 
	.byte	W24
	.byte		        An2 
	.byte	W24
	.byte	PEND
	.byte		EOT   , An1 
@ 085   ----------------------------------------
mus_thpprf_darkpegasus_7_085:
	.byte	W24
	.byte		TIE   , An1 , v112
	.byte	W24
	.byte		N24   , Bn1 
	.byte	W24
	.byte		        Dn2 
	.byte	W24
	.byte	PEND
@ 086   ----------------------------------------
mus_thpprf_darkpegasus_7_086:
	.byte		N24   , Fs2 , v112
	.byte	W24
	.byte		        Gn2 
	.byte	W24
	.byte		        Bn2 
	.byte	W24
	.byte		        Gn2 
	.byte	W24
	.byte	PEND
	.byte		EOT   , An1 
@ 087   ----------------------------------------
mus_thpprf_darkpegasus_7_087:
	.byte	W24
	.byte		N72   , As1 , v112
	.byte	W24
	.byte		N24   , Ds2 
	.byte	W24
	.byte		        Fs2 
	.byte	W24
	.byte	PEND
@ 088   ----------------------------------------
mus_thpprf_darkpegasus_7_088:
	.byte	W24
	.byte		N72   , An1 , v112
	.byte	W24
	.byte		N24   , Dn2 
	.byte	W24
	.byte		        Fn2 
	.byte	W24
	.byte	PEND
@ 089   ----------------------------------------
mus_thpprf_darkpegasus_7_089:
	.byte	W24
	.byte		TIE   , As1 , v112
	.byte	W24
	.byte		N24   , Cs2 
	.byte	W24
	.byte		        Fn2 
	.byte	W24
	.byte	PEND
@ 090   ----------------------------------------
mus_thpprf_darkpegasus_7_090:
	.byte		N24   , As2 , v112
	.byte	W24
	.byte		        Cs3 
	.byte	W24
	.byte		        As2 
	.byte	W24
	.byte		        Fn2 
	.byte	W24
	.byte	PEND
	.byte		EOT   , As1 
@ 091   ----------------------------------------
mus_thpprf_darkpegasus_7_091:
	.byte	W24
	.byte		TIE   , Cs2 , v112
	.byte	W24
	.byte		N24   , Fn2 
	.byte	W24
	.byte		        Gs2 
	.byte	W24
	.byte	PEND
@ 092   ----------------------------------------
mus_thpprf_darkpegasus_7_092:
	.byte		N24   , Cn3 , v112
	.byte	W24
	.byte		        Fn3 
	.byte	W24
	.byte		        Cn3 
	.byte	W24
	.byte		        Gs2 
	.byte	W24
	.byte	PEND
	.byte		EOT   , Cs2 
@ 093   ----------------------------------------
mus_thpprf_darkpegasus_7_093:
	.byte	W24
	.byte		N72   , As1 , v112
	.byte	W24
	.byte		N24   , En2 
	.byte	W24
	.byte		        As2 
	.byte	W24
	.byte	PEND
@ 094   ----------------------------------------
mus_thpprf_darkpegasus_7_094:
	.byte	W24
	.byte		N72   , En2 , v112
	.byte	W24
	.byte		N24   , Gn2 
	.byte	W24
	.byte		        Cs3 
	.byte	W24
	.byte	PEND
@ 095   ----------------------------------------
mus_thpprf_darkpegasus_7_095:
	.byte	W24
	.byte		TIE   , Cn2 , v112
	.byte	W24
	.byte		N24   , Fn2 
	.byte	W24
	.byte		        En3 
	.byte	W24
	.byte	PEND
@ 096   ----------------------------------------
mus_thpprf_darkpegasus_7_096:
	.byte		N24   , Fn3 , v112
	.byte	W24
	.byte		        Fn2 
	.byte	W24
	.byte		        An2 
	.byte	W24
	.byte		        Cn3 
	.byte	W24
	.byte	PEND
	.byte		EOT   , Cn2 
@ 097   ----------------------------------------
	.byte	PATT
	 .word	mus_thpprf_darkpegasus_7_081
@ 098   ----------------------------------------
	.byte	PATT
	 .word	mus_thpprf_darkpegasus_7_082
	.byte		EOT   , An1 
@ 099   ----------------------------------------
	.byte	PATT
	 .word	mus_thpprf_darkpegasus_7_083
@ 100   ----------------------------------------
	.byte	PATT
	 .word	mus_thpprf_darkpegasus_7_084
	.byte		EOT   , An1 
@ 101   ----------------------------------------
	.byte	PATT
	 .word	mus_thpprf_darkpegasus_7_085
@ 102   ----------------------------------------
	.byte	PATT
	 .word	mus_thpprf_darkpegasus_7_086
	.byte		EOT   , An1 
@ 103   ----------------------------------------
	.byte	PATT
	 .word	mus_thpprf_darkpegasus_7_087
@ 104   ----------------------------------------
	.byte	PATT
	 .word	mus_thpprf_darkpegasus_7_088
@ 105   ----------------------------------------
	.byte	PATT
	 .word	mus_thpprf_darkpegasus_7_089
@ 106   ----------------------------------------
	.byte	PATT
	 .word	mus_thpprf_darkpegasus_7_090
	.byte		EOT   , As1 
@ 107   ----------------------------------------
	.byte	PATT
	 .word	mus_thpprf_darkpegasus_7_091
@ 108   ----------------------------------------
	.byte	PATT
	 .word	mus_thpprf_darkpegasus_7_092
	.byte		EOT   , Cs2 
@ 109   ----------------------------------------
	.byte	PATT
	 .word	mus_thpprf_darkpegasus_7_093
@ 110   ----------------------------------------
	.byte	PATT
	 .word	mus_thpprf_darkpegasus_7_094
@ 111   ----------------------------------------
	.byte	PATT
	 .word	mus_thpprf_darkpegasus_7_095
@ 112   ----------------------------------------
	.byte	PATT
	 .word	mus_thpprf_darkpegasus_7_096
	.byte		EOT   , Cn2 
@ 113   ----------------------------------------
	.byte	PATT
	 .word	mus_thpprf_darkpegasus_7_081
@ 114   ----------------------------------------
	.byte	PATT
	 .word	mus_thpprf_darkpegasus_7_082
	.byte		EOT   , An1 
@ 115   ----------------------------------------
	.byte	PATT
	 .word	mus_thpprf_darkpegasus_7_083
@ 116   ----------------------------------------
	.byte	PATT
	 .word	mus_thpprf_darkpegasus_7_084
	.byte		EOT   , An1 
@ 117   ----------------------------------------
	.byte	PATT
	 .word	mus_thpprf_darkpegasus_7_085
@ 118   ----------------------------------------
	.byte	PATT
	 .word	mus_thpprf_darkpegasus_7_086
	.byte		EOT   , An1 
@ 119   ----------------------------------------
	.byte	PATT
	 .word	mus_thpprf_darkpegasus_7_087
@ 120   ----------------------------------------
	.byte	PATT
	 .word	mus_thpprf_darkpegasus_7_088
@ 121   ----------------------------------------
	.byte	PATT
	 .word	mus_thpprf_darkpegasus_7_089
@ 122   ----------------------------------------
	.byte	PATT
	 .word	mus_thpprf_darkpegasus_7_090
	.byte		EOT   , As1 
@ 123   ----------------------------------------
	.byte	PATT
	 .word	mus_thpprf_darkpegasus_7_091
@ 124   ----------------------------------------
	.byte	PATT
	 .word	mus_thpprf_darkpegasus_7_092
	.byte		EOT   , Cs2 
@ 125   ----------------------------------------
	.byte	PATT
	 .word	mus_thpprf_darkpegasus_7_093
@ 126   ----------------------------------------
	.byte	PATT
	 .word	mus_thpprf_darkpegasus_7_094
@ 127   ----------------------------------------
	.byte	PATT
	 .word	mus_thpprf_darkpegasus_7_095
@ 128   ----------------------------------------
	.byte	PATT
	 .word	mus_thpprf_darkpegasus_7_096
	.byte		EOT   , Cn2 
@ 129   ----------------------------------------
	.byte	W96
@ 130   ----------------------------------------
	.byte	W96
@ 131   ----------------------------------------
	.byte	W96
@ 132   ----------------------------------------
	.byte	W96
@ 133   ----------------------------------------
	.byte	W96
@ 134   ----------------------------------------
	.byte	W96
@ 135   ----------------------------------------
	.byte	W96
@ 136   ----------------------------------------
	.byte	W96
@ 137   ----------------------------------------
	.byte	W96
@ 138   ----------------------------------------
	.byte	W96
@ 139   ----------------------------------------
	.byte	W96
@ 140   ----------------------------------------
	.byte	W96
@ 141   ----------------------------------------
	.byte	W96
@ 142   ----------------------------------------
	.byte	W96
@ 143   ----------------------------------------
	.byte	W96
@ 144   ----------------------------------------
	.byte	W96
@ 145   ----------------------------------------
	.byte	W96
@ 146   ----------------------------------------
	.byte	W96
@ 147   ----------------------------------------
	.byte	W96
@ 148   ----------------------------------------
	.byte	W96
@ 149   ----------------------------------------
	.byte	W96
@ 150   ----------------------------------------
	.byte	W96
@ 151   ----------------------------------------
	.byte	W96
@ 152   ----------------------------------------
	.byte	W96
@ 153   ----------------------------------------
	.byte	W96
@ 154   ----------------------------------------
	.byte	W96
@ 155   ----------------------------------------
	.byte	W96
@ 156   ----------------------------------------
	.byte	W96
@ 157   ----------------------------------------
	.byte	W96
@ 158   ----------------------------------------
	.byte	W96
@ 159   ----------------------------------------
	.byte	W96
@ 160   ----------------------------------------
	.byte	W96
@ 161   ----------------------------------------
mus_thpprf_darkpegasus_7_161:
	.byte		N36   , Cn4 , v112
	.byte	W48
	.byte		N24   , Bn3 
	.byte	W24
	.byte		N36   , Cn4 
	.byte	W24
	.byte	PEND
@ 162   ----------------------------------------
mus_thpprf_darkpegasus_7_162:
	.byte	W24
	.byte		N24   , Bn3 , v112
	.byte	W24
	.byte		        Cn4 
	.byte	W24
	.byte		        Gn3 
	.byte	W24
	.byte	PEND
@ 163   ----------------------------------------
mus_thpprf_darkpegasus_7_163:
	.byte		N24   , Gn3 , v112
	.byte	W24
	.byte		        Dn4 
	.byte	W24
	.byte		        Gn3 
	.byte	W24
	.byte		        Bn3 
	.byte	W24
	.byte	PEND
@ 164   ----------------------------------------
mus_thpprf_darkpegasus_7_164:
	.byte		N36   , Dn4 , v112
	.byte	W48
	.byte		N42   , Bn3 
	.byte	W48
	.byte	PEND
@ 165   ----------------------------------------
mus_thpprf_darkpegasus_7_165:
	.byte		N24   , Fn3 , v112
	.byte	W24
	.byte		        Cn4 
	.byte	W24
	.byte		        Fn3 
	.byte	W24
	.byte		        An3 
	.byte	W24
	.byte	PEND
@ 166   ----------------------------------------
mus_thpprf_darkpegasus_7_166:
	.byte		N24   , Cn4 , v112
	.byte	W24
	.byte		        Fn3 
	.byte	W24
	.byte		        An3 
	.byte	W24
	.byte		        Cn4 
	.byte	W24
	.byte	PEND
@ 167   ----------------------------------------
mus_thpprf_darkpegasus_7_167:
	.byte		N24   , Gn3 , v112
	.byte	W24
	.byte		        Dn4 
	.byte	W24
	.byte		        Gn3 
	.byte	W24
	.byte		        Dn4 
	.byte	W24
	.byte	PEND
@ 168   ----------------------------------------
mus_thpprf_darkpegasus_7_168:
	.byte		N24   , Cn4 , v112
	.byte	W24
	.byte		N48   , Gn3 
	.byte	W72
	.byte	PEND
@ 169   ----------------------------------------
	.byte	PATT
	 .word	mus_thpprf_darkpegasus_7_161
@ 170   ----------------------------------------
	.byte	PATT
	 .word	mus_thpprf_darkpegasus_7_162
@ 171   ----------------------------------------
mus_thpprf_darkpegasus_7_171:
	.byte		N36   , Dn4 , v112
	.byte	W48
	.byte		N24   , Gn3 
	.byte	W24
	.byte		N36   , Dn4 
	.byte	W24
	.byte	PEND
@ 172   ----------------------------------------
mus_thpprf_darkpegasus_7_172:
	.byte	W24
	.byte		N24   , Gn3 , v112
	.byte	W24
	.byte		        Dn4 
	.byte	W48
	.byte	PEND
@ 173   ----------------------------------------
mus_thpprf_darkpegasus_7_173:
	.byte		N36   , Fn4 , v112
	.byte	W48
	.byte		N24   , An3 
	.byte	W24
	.byte		N36   , Fn4 
	.byte	W24
	.byte	PEND
@ 174   ----------------------------------------
mus_thpprf_darkpegasus_7_174:
	.byte	W24
	.byte		N24   , An3 , v112
	.byte	W24
	.byte		        Fn4 
	.byte	W48
	.byte	PEND
@ 175   ----------------------------------------
mus_thpprf_darkpegasus_7_175:
	.byte		N24   , Gn4 , v112
	.byte	W24
	.byte		        Dn4 
	.byte	W24
	.byte		        Cn4 
	.byte	W24
	.byte		        Bn3 
	.byte	W24
	.byte	PEND
@ 176   ----------------------------------------
mus_thpprf_darkpegasus_7_176:
	.byte		N24   , Gn3 , v112
	.byte	W24
	.byte		N48   , En3 
	.byte	W72
	.byte	PEND
@ 177   ----------------------------------------
	.byte	PATT
	 .word	mus_thpprf_darkpegasus_7_161
@ 178   ----------------------------------------
	.byte	PATT
	 .word	mus_thpprf_darkpegasus_7_162
@ 179   ----------------------------------------
	.byte	PATT
	 .word	mus_thpprf_darkpegasus_7_163
@ 180   ----------------------------------------
	.byte	PATT
	 .word	mus_thpprf_darkpegasus_7_164
@ 181   ----------------------------------------
	.byte	PATT
	 .word	mus_thpprf_darkpegasus_7_165
@ 182   ----------------------------------------
	.byte	PATT
	 .word	mus_thpprf_darkpegasus_7_166
@ 183   ----------------------------------------
	.byte	PATT
	 .word	mus_thpprf_darkpegasus_7_167
@ 184   ----------------------------------------
	.byte	PATT
	 .word	mus_thpprf_darkpegasus_7_168
@ 185   ----------------------------------------
	.byte	PATT
	 .word	mus_thpprf_darkpegasus_7_161
@ 186   ----------------------------------------
	.byte	PATT
	 .word	mus_thpprf_darkpegasus_7_162
@ 187   ----------------------------------------
	.byte	PATT
	 .word	mus_thpprf_darkpegasus_7_171
@ 188   ----------------------------------------
	.byte	PATT
	 .word	mus_thpprf_darkpegasus_7_172
@ 189   ----------------------------------------
	.byte	PATT
	 .word	mus_thpprf_darkpegasus_7_173
@ 190   ----------------------------------------
	.byte	PATT
	 .word	mus_thpprf_darkpegasus_7_174
@ 191   ----------------------------------------
	.byte	PATT
	 .word	mus_thpprf_darkpegasus_7_175
@ 192   ----------------------------------------
	.byte	PATT
	 .word	mus_thpprf_darkpegasus_7_176
@ 193   ----------------------------------------
mus_thpprf_darkpegasus_7_193:
	.byte	W24
	.byte		TIE   , Cn2 , v112
	.byte	W24
	.byte		N24   , En2 
	.byte	W24
	.byte		        An2 
	.byte	W24
	.byte	PEND
@ 194   ----------------------------------------
mus_thpprf_darkpegasus_7_194:
	.byte		N24   , Bn2 , v112
	.byte	W24
	.byte		        Cn3 
	.byte	W24
	.byte		        En3 
	.byte	W24
	.byte		        Cn3 
	.byte	W24
	.byte	PEND
	.byte		EOT   , Cn2 
@ 195   ----------------------------------------
mus_thpprf_darkpegasus_7_195:
	.byte	W24
	.byte		TIE   , Cn2 , v112
	.byte	W24
	.byte		N24   , Ds2 
	.byte	W24
	.byte		        An2 
	.byte	W24
	.byte	PEND
@ 196   ----------------------------------------
mus_thpprf_darkpegasus_7_196:
	.byte		N24   , Bn2 , v112
	.byte	W24
	.byte		        Cn3 
	.byte	W24
	.byte		        Ds3 
	.byte	W24
	.byte		        Cn3 
	.byte	W24
	.byte	PEND
	.byte		EOT   , Cn2 
@ 197   ----------------------------------------
mus_thpprf_darkpegasus_7_197:
	.byte	W24
	.byte		TIE   , Cn2 , v112
	.byte	W24
	.byte		N24   , Dn2 
	.byte	W24
	.byte		        Fn2 
	.byte	W24
	.byte	PEND
@ 198   ----------------------------------------
mus_thpprf_darkpegasus_7_198:
	.byte		N24   , An2 , v112
	.byte	W24
	.byte		        As2 
	.byte	W24
	.byte		        Dn3 
	.byte	W24
	.byte		        As2 
	.byte	W24
	.byte	PEND
	.byte		EOT   , Cn2 
@ 199   ----------------------------------------
mus_thpprf_darkpegasus_7_199:
	.byte	W24
	.byte		N72   , Cs2 , v112
	.byte	W24
	.byte		N24   , Fs2 
	.byte	W24
	.byte		        An2 
	.byte	W24
	.byte	PEND
@ 200   ----------------------------------------
mus_thpprf_darkpegasus_7_200:
	.byte	W24
	.byte		N72   , Cn2 , v112
	.byte	W24
	.byte		N24   , Fn2 
	.byte	W24
	.byte		        Gs2 
	.byte	W24
	.byte	PEND
@ 201   ----------------------------------------
mus_thpprf_darkpegasus_7_201:
	.byte	W24
	.byte		TIE   , Cs2 , v112
	.byte	W24
	.byte		N24   , En2 
	.byte	W24
	.byte		        Gs2 
	.byte	W24
	.byte	PEND
@ 202   ----------------------------------------
mus_thpprf_darkpegasus_7_202:
	.byte		N24   , Cs3 , v112
	.byte	W24
	.byte		        En3 
	.byte	W24
	.byte		        Cs3 
	.byte	W24
	.byte		        Gs2 
	.byte	W24
	.byte	PEND
	.byte		EOT   , Cs2 
@ 203   ----------------------------------------
mus_thpprf_darkpegasus_7_203:
	.byte	W24
	.byte		TIE   , En2 , v112
	.byte	W24
	.byte		N24   , Gs2 
	.byte	W24
	.byte		        Bn2 
	.byte	W24
	.byte	PEND
@ 204   ----------------------------------------
mus_thpprf_darkpegasus_7_204:
	.byte		N24   , Ds3 , v112
	.byte	W24
	.byte		        Gs3 
	.byte	W24
	.byte		        Ds3 
	.byte	W24
	.byte		        Bn2 
	.byte	W24
	.byte	PEND
	.byte		EOT   , En2 
@ 205   ----------------------------------------
mus_thpprf_darkpegasus_7_205:
	.byte	W24
	.byte		N72   , Cs2 , v112
	.byte	W24
	.byte		N24   , Gn2 
	.byte	W24
	.byte		        Cs3 
	.byte	W24
	.byte	PEND
@ 206   ----------------------------------------
mus_thpprf_darkpegasus_7_206:
	.byte	W24
	.byte		N72   , Gn2 , v112
	.byte	W24
	.byte		N24   , As2 
	.byte	W24
	.byte		        En3 
	.byte	W24
	.byte	PEND
@ 207   ----------------------------------------
mus_thpprf_darkpegasus_7_207:
	.byte	W24
	.byte		TIE   , Ds2 , v112
	.byte	W24
	.byte		N24   , Gs2 
	.byte	W24
	.byte		        Gn3 
	.byte	W24
	.byte	PEND
@ 208   ----------------------------------------
mus_thpprf_darkpegasus_7_208:
	.byte		N24   , Gs3 , v112
	.byte	W24
	.byte		        Gs2 
	.byte	W24
	.byte		        Cn3 
	.byte	W24
	.byte		        Ds3 
	.byte	W24
	.byte	PEND
	.byte		EOT   , Ds2 
@ 209   ----------------------------------------
	.byte	PATT
	 .word	mus_thpprf_darkpegasus_7_193
@ 210   ----------------------------------------
	.byte	PATT
	 .word	mus_thpprf_darkpegasus_7_194
	.byte		EOT   , Cn2 
@ 211   ----------------------------------------
	.byte	PATT
	 .word	mus_thpprf_darkpegasus_7_195
@ 212   ----------------------------------------
	.byte	PATT
	 .word	mus_thpprf_darkpegasus_7_196
	.byte		EOT   , Cn2 
@ 213   ----------------------------------------
	.byte	PATT
	 .word	mus_thpprf_darkpegasus_7_197
@ 214   ----------------------------------------
	.byte	PATT
	 .word	mus_thpprf_darkpegasus_7_198
	.byte		EOT   , Cn2 
@ 215   ----------------------------------------
	.byte	PATT
	 .word	mus_thpprf_darkpegasus_7_199
@ 216   ----------------------------------------
	.byte	PATT
	 .word	mus_thpprf_darkpegasus_7_200
@ 217   ----------------------------------------
	.byte	PATT
	 .word	mus_thpprf_darkpegasus_7_201
@ 218   ----------------------------------------
	.byte	PATT
	 .word	mus_thpprf_darkpegasus_7_202
	.byte		EOT   , Cs2 
@ 219   ----------------------------------------
	.byte	PATT
	 .word	mus_thpprf_darkpegasus_7_203
@ 220   ----------------------------------------
	.byte	PATT
	 .word	mus_thpprf_darkpegasus_7_204
	.byte		EOT   , En2 
@ 221   ----------------------------------------
	.byte	PATT
	 .word	mus_thpprf_darkpegasus_7_205
@ 222   ----------------------------------------
	.byte	PATT
	 .word	mus_thpprf_darkpegasus_7_206
@ 223   ----------------------------------------
	.byte	PATT
	 .word	mus_thpprf_darkpegasus_7_207
@ 224   ----------------------------------------
	.byte	PATT
	 .word	mus_thpprf_darkpegasus_7_208
	.byte		EOT   , Ds2 
@ 225   ----------------------------------------
mus_thpprf_darkpegasus_7_225:
	.byte	W24
	.byte		TIE   , Cs2 , v112
	.byte	W24
	.byte		N24   , Fn2 
	.byte	W24
	.byte		        As2 
	.byte	W24
	.byte	PEND
@ 226   ----------------------------------------
mus_thpprf_darkpegasus_7_226:
	.byte		N24   , Cn3 , v112
	.byte	W24
	.byte		        Cs3 
	.byte	W24
	.byte		        Fn3 
	.byte	W24
	.byte		        Cs3 
	.byte	W24
	.byte	PEND
	.byte		EOT   , Cs2 
@ 227   ----------------------------------------
mus_thpprf_darkpegasus_7_227:
	.byte	W24
	.byte		TIE   , Cs2 , v112
	.byte	W24
	.byte		N24   , En2 
	.byte	W24
	.byte		        As2 
	.byte	W24
	.byte	PEND
@ 228   ----------------------------------------
mus_thpprf_darkpegasus_7_228:
	.byte		N24   , Cn3 , v112
	.byte	W24
	.byte		        Cs3 
	.byte	W24
	.byte		        En3 
	.byte	W24
	.byte		        Cs3 
	.byte	W24
	.byte	PEND
	.byte		EOT   , Cs2 
@ 229   ----------------------------------------
mus_thpprf_darkpegasus_7_229:
	.byte	W24
	.byte		TIE   , Cs2 , v112
	.byte	W24
	.byte		N24   , Ds2 
	.byte	W24
	.byte		        Fs2 
	.byte	W24
	.byte	PEND
@ 230   ----------------------------------------
mus_thpprf_darkpegasus_7_230:
	.byte		N24   , As2 , v112
	.byte	W24
	.byte		        Bn2 
	.byte	W24
	.byte		        Ds3 
	.byte	W24
	.byte		        Bn2 
	.byte	W24
	.byte	PEND
	.byte		EOT   , Cs2 
@ 231   ----------------------------------------
mus_thpprf_darkpegasus_7_231:
	.byte	W24
	.byte		N72   , Dn2 , v112
	.byte	W24
	.byte		N24   , Gn2 
	.byte	W24
	.byte		        As2 
	.byte	W24
	.byte	PEND
@ 232   ----------------------------------------
	.byte	PATT
	 .word	mus_thpprf_darkpegasus_7_199
@ 233   ----------------------------------------
mus_thpprf_darkpegasus_7_233:
	.byte	W24
	.byte		TIE   , Dn2 , v112
	.byte	W24
	.byte		N24   , Fn2 
	.byte	W24
	.byte		        An2 
	.byte	W24
	.byte	PEND
@ 234   ----------------------------------------
mus_thpprf_darkpegasus_7_234:
	.byte		N24   , Dn3 , v112
	.byte	W24
	.byte		        Fn3 
	.byte	W24
	.byte		        Dn3 
	.byte	W24
	.byte		        An2 
	.byte	W24
	.byte	PEND
	.byte		EOT   , Dn2 
@ 235   ----------------------------------------
mus_thpprf_darkpegasus_7_235:
	.byte	W24
	.byte		TIE   , Fn2 , v112
	.byte	W24
	.byte		N24   , An2 
	.byte	W24
	.byte		        Cn3 
	.byte	W24
	.byte	PEND
@ 236   ----------------------------------------
mus_thpprf_darkpegasus_7_236:
	.byte		N24   , En3 , v112
	.byte	W24
	.byte		        An3 
	.byte	W24
	.byte		        En3 
	.byte	W24
	.byte		        Cn3 
	.byte	W24
	.byte	PEND
	.byte		EOT   , Fn2 
@ 237   ----------------------------------------
mus_thpprf_darkpegasus_7_237:
	.byte	W24
	.byte		N72   , Dn2 , v112
	.byte	W24
	.byte		N24   , Gs2 
	.byte	W24
	.byte		        Dn3 
	.byte	W24
	.byte	PEND
@ 238   ----------------------------------------
mus_thpprf_darkpegasus_7_238:
	.byte	W24
	.byte		N72   , Gs2 , v112
	.byte	W24
	.byte		N24   , Bn2 
	.byte	W24
	.byte		        Fn3 
	.byte	W24
	.byte	PEND
@ 239   ----------------------------------------
mus_thpprf_darkpegasus_7_239:
	.byte	W24
	.byte		TIE   , En2 , v112
	.byte	W24
	.byte		N24   , An2 
	.byte	W24
	.byte		        Gs3 
	.byte	W24
	.byte	PEND
@ 240   ----------------------------------------
mus_thpprf_darkpegasus_7_240:
	.byte		N24   , An3 , v112
	.byte	W24
	.byte		        An2 
	.byte	W24
	.byte		        Cs3 
	.byte	W24
	.byte		        En3 
	.byte	W24
	.byte	PEND
	.byte		EOT   , En2 
@ 241   ----------------------------------------
	.byte	PATT
	 .word	mus_thpprf_darkpegasus_7_225
@ 242   ----------------------------------------
	.byte	PATT
	 .word	mus_thpprf_darkpegasus_7_226
	.byte		EOT   , Cs2 
@ 243   ----------------------------------------
	.byte	PATT
	 .word	mus_thpprf_darkpegasus_7_227
@ 244   ----------------------------------------
	.byte	PATT
	 .word	mus_thpprf_darkpegasus_7_228
	.byte		EOT   , Cs2 
@ 245   ----------------------------------------
	.byte	PATT
	 .word	mus_thpprf_darkpegasus_7_229
@ 246   ----------------------------------------
	.byte	PATT
	 .word	mus_thpprf_darkpegasus_7_230
	.byte		EOT   , Cs2 
@ 247   ----------------------------------------
	.byte	PATT
	 .word	mus_thpprf_darkpegasus_7_231
@ 248   ----------------------------------------
	.byte	PATT
	 .word	mus_thpprf_darkpegasus_7_199
@ 249   ----------------------------------------
	.byte	PATT
	 .word	mus_thpprf_darkpegasus_7_233
@ 250   ----------------------------------------
	.byte	PATT
	 .word	mus_thpprf_darkpegasus_7_234
	.byte		EOT   , Dn2 
@ 251   ----------------------------------------
	.byte	PATT
	 .word	mus_thpprf_darkpegasus_7_235
@ 252   ----------------------------------------
	.byte	PATT
	 .word	mus_thpprf_darkpegasus_7_236
	.byte		EOT   , Fn2 
@ 253   ----------------------------------------
	.byte	PATT
	 .word	mus_thpprf_darkpegasus_7_237
@ 254   ----------------------------------------
	.byte	PATT
	 .word	mus_thpprf_darkpegasus_7_238
@ 255   ----------------------------------------
	.byte	PATT
	 .word	mus_thpprf_darkpegasus_7_239
@ 256   ----------------------------------------
	.byte	PATT
	 .word	mus_thpprf_darkpegasus_7_240
	.byte		EOT   , En2 
@ 257   ----------------------------------------
	.byte	W96
@ 258   ----------------------------------------
	.byte	W96
@ 259   ----------------------------------------
	.byte	W96
@ 260   ----------------------------------------
	.byte	W96
@ 261   ----------------------------------------
	.byte	W96
@ 262   ----------------------------------------
	.byte	W96
@ 263   ----------------------------------------
	.byte	W96
@ 264   ----------------------------------------
	.byte	W96
@ 265   ----------------------------------------
	.byte	W96
@ 266   ----------------------------------------
	.byte	W96
@ 267   ----------------------------------------
	.byte	W96
@ 268   ----------------------------------------
	.byte	W96
@ 269   ----------------------------------------
	.byte	W96
@ 270   ----------------------------------------
	.byte	W96
@ 271   ----------------------------------------
	.byte	W96
@ 272   ----------------------------------------
	.byte	W96
@ 273   ----------------------------------------
	.byte	W96
@ 274   ----------------------------------------
	.byte	W96
@ 275   ----------------------------------------
	.byte	W96
@ 276   ----------------------------------------
	.byte	W96
@ 277   ----------------------------------------
	.byte	W96
@ 278   ----------------------------------------
	.byte	W96
@ 279   ----------------------------------------
	.byte	W96
@ 280   ----------------------------------------
	.byte	W96
@ 281   ----------------------------------------
	.byte	W96
@ 282   ----------------------------------------
	.byte	W96
@ 283   ----------------------------------------
	.byte	W96
@ 284   ----------------------------------------
	.byte	W96
@ 285   ----------------------------------------
	.byte	W96
@ 286   ----------------------------------------
	.byte	W96
@ 287   ----------------------------------------
	.byte	W96
@ 288   ----------------------------------------
	.byte	W96
@ 289   ----------------------------------------
	.byte	W96
@ 290   ----------------------------------------
	.byte	W96
@ 291   ----------------------------------------
	.byte	W96
@ 292   ----------------------------------------
	.byte	W96
@ 293   ----------------------------------------
	.byte	W96
@ 294   ----------------------------------------
	.byte	W96
@ 295   ----------------------------------------
	.byte	W96
@ 296   ----------------------------------------
	.byte	W96
@ 297   ----------------------------------------
	.byte	W96
@ 298   ----------------------------------------
	.byte	W96
@ 299   ----------------------------------------
	.byte	W96
@ 300   ----------------------------------------
	.byte	W96
@ 301   ----------------------------------------
	.byte	W96
@ 302   ----------------------------------------
	.byte	W96
@ 303   ----------------------------------------
	.byte	W96
@ 304   ----------------------------------------
	.byte	W96
@ 305   ----------------------------------------
	.byte	W96
@ 306   ----------------------------------------
	.byte	W96
@ 307   ----------------------------------------
	.byte	W96
@ 308   ----------------------------------------
	.byte	W96
@ 309   ----------------------------------------
	.byte	W96
@ 310   ----------------------------------------
	.byte	W96
@ 311   ----------------------------------------
	.byte	W96
@ 312   ----------------------------------------
	.byte	W96
@ 313   ----------------------------------------
	.byte	W96
@ 314   ----------------------------------------
	.byte	W96
@ 315   ----------------------------------------
	.byte	W96
@ 316   ----------------------------------------
	.byte	W96
@ 317   ----------------------------------------
	.byte	W96
@ 318   ----------------------------------------
	.byte	W96
@ 319   ----------------------------------------
	.byte	W96
@ 320   ----------------------------------------
	.byte	W96
@ 321   ----------------------------------------
	.byte	GOTO
	.word	mus_thpprf_darkpegasus_7_033
	.byte	FINE

@**************** Track 8 (Midi-Chn.8) ****************@

mus_thpprf_darkpegasus_8:
	.byte	KEYSH , mus_thpprf_darkpegasus_key+0
@ 000   ----------------------------------------
	.byte		VOICE , 4
	.byte		PAN   , c_v+0
	.byte		VOL   , 61*mus_thpprf_darkpegasus_mvl/mxv
	.byte		BEND  , c_v+0
@ 001   ----------------------------------------
	.byte	W96
@ 002   ----------------------------------------
mus_thpprf_darkpegasus_8_002:
	.byte	W48
	.byte		N48   , An3 , v112
	.byte		N48   , Cs4 
	.byte	W48
	.byte	PEND
@ 003   ----------------------------------------
	.byte	W96
@ 004   ----------------------------------------
mus_thpprf_darkpegasus_8_004:
	.byte	W24
	.byte		N48   , An3 , v112
	.byte		N48   , Cs4 
	.byte	W72
	.byte	PEND
@ 005   ----------------------------------------
	.byte	W96
@ 006   ----------------------------------------
	.byte	PATT
	 .word	mus_thpprf_darkpegasus_8_002
@ 007   ----------------------------------------
	.byte	W96
@ 008   ----------------------------------------
	.byte	PATT
	 .word	mus_thpprf_darkpegasus_8_004
@ 009   ----------------------------------------
	.byte	W96
@ 010   ----------------------------------------
mus_thpprf_darkpegasus_8_010:
	.byte	W48
	.byte		N48   , An3 , v112
	.byte		N48   , Dn4 
	.byte	W48
	.byte	PEND
@ 011   ----------------------------------------
	.byte	W96
@ 012   ----------------------------------------
mus_thpprf_darkpegasus_8_012:
	.byte	W24
	.byte		N48   , An3 , v112
	.byte		N48   , Dn4 
	.byte	W72
	.byte	PEND
@ 013   ----------------------------------------
	.byte	W96
@ 014   ----------------------------------------
	.byte	PATT
	 .word	mus_thpprf_darkpegasus_8_010
@ 015   ----------------------------------------
	.byte	W96
@ 016   ----------------------------------------
	.byte	PATT
	 .word	mus_thpprf_darkpegasus_8_012
@ 017   ----------------------------------------
	.byte	W96
@ 018   ----------------------------------------
	.byte	PATT
	 .word	mus_thpprf_darkpegasus_8_002
@ 019   ----------------------------------------
	.byte	W96
@ 020   ----------------------------------------
	.byte	PATT
	 .word	mus_thpprf_darkpegasus_8_004
@ 021   ----------------------------------------
	.byte	W96
@ 022   ----------------------------------------
	.byte	PATT
	 .word	mus_thpprf_darkpegasus_8_002
@ 023   ----------------------------------------
	.byte	W96
@ 024   ----------------------------------------
	.byte	PATT
	 .word	mus_thpprf_darkpegasus_8_004
@ 025   ----------------------------------------
	.byte	W96
@ 026   ----------------------------------------
	.byte	PATT
	 .word	mus_thpprf_darkpegasus_8_010
@ 027   ----------------------------------------
	.byte	W96
@ 028   ----------------------------------------
	.byte	PATT
	 .word	mus_thpprf_darkpegasus_8_012
@ 029   ----------------------------------------
	.byte	W96
@ 030   ----------------------------------------
	.byte	PATT
	 .word	mus_thpprf_darkpegasus_8_010
@ 031   ----------------------------------------
	.byte	W96
@ 032   ----------------------------------------
	.byte	PATT
	 .word	mus_thpprf_darkpegasus_8_012
@ 033   ----------------------------------------
mus_thpprf_darkpegasus_8_033:
	.byte	W96
@ 034   ----------------------------------------
	.byte	W96
@ 035   ----------------------------------------
	.byte	W96
@ 036   ----------------------------------------
	.byte	W96
@ 037   ----------------------------------------
	.byte	W96
@ 038   ----------------------------------------
	.byte	W96
@ 039   ----------------------------------------
	.byte	W96
@ 040   ----------------------------------------
	.byte	W96
@ 041   ----------------------------------------
	.byte	W96
@ 042   ----------------------------------------
	.byte	W96
@ 043   ----------------------------------------
	.byte	W96
@ 044   ----------------------------------------
	.byte	W96
@ 045   ----------------------------------------
	.byte	W96
@ 046   ----------------------------------------
	.byte	W96
@ 047   ----------------------------------------
	.byte	W96
@ 048   ----------------------------------------
	.byte	W96
@ 049   ----------------------------------------
	.byte	W96
@ 050   ----------------------------------------
	.byte	W96
@ 051   ----------------------------------------
	.byte	W96
@ 052   ----------------------------------------
	.byte	W96
@ 053   ----------------------------------------
	.byte	W96
@ 054   ----------------------------------------
	.byte	W96
@ 055   ----------------------------------------
	.byte	W96
@ 056   ----------------------------------------
	.byte	W96
@ 057   ----------------------------------------
	.byte	W96
@ 058   ----------------------------------------
	.byte	W96
@ 059   ----------------------------------------
	.byte	W96
@ 060   ----------------------------------------
	.byte	W96
@ 061   ----------------------------------------
	.byte	W96
@ 062   ----------------------------------------
	.byte	W96
@ 063   ----------------------------------------
	.byte	W96
@ 064   ----------------------------------------
	.byte	W96
@ 065   ----------------------------------------
	.byte	W96
@ 066   ----------------------------------------
	.byte	W96
@ 067   ----------------------------------------
	.byte	W96
@ 068   ----------------------------------------
	.byte	W96
@ 069   ----------------------------------------
	.byte	W96
@ 070   ----------------------------------------
	.byte	W96
@ 071   ----------------------------------------
	.byte	W96
@ 072   ----------------------------------------
	.byte	W96
@ 073   ----------------------------------------
	.byte	W96
@ 074   ----------------------------------------
	.byte	W96
@ 075   ----------------------------------------
	.byte	W96
@ 076   ----------------------------------------
	.byte	W96
@ 077   ----------------------------------------
	.byte	W96
@ 078   ----------------------------------------
	.byte	W96
@ 079   ----------------------------------------
	.byte	W96
@ 080   ----------------------------------------
	.byte	W96
@ 081   ----------------------------------------
	.byte	W96
@ 082   ----------------------------------------
	.byte	W96
@ 083   ----------------------------------------
	.byte	W96
@ 084   ----------------------------------------
	.byte	W96
@ 085   ----------------------------------------
	.byte	W96
@ 086   ----------------------------------------
	.byte	W96
@ 087   ----------------------------------------
	.byte	W96
@ 088   ----------------------------------------
	.byte	W96
@ 089   ----------------------------------------
	.byte	W96
@ 090   ----------------------------------------
	.byte	W96
@ 091   ----------------------------------------
	.byte	W96
@ 092   ----------------------------------------
	.byte	W96
@ 093   ----------------------------------------
	.byte	W96
@ 094   ----------------------------------------
	.byte	W96
@ 095   ----------------------------------------
	.byte	W96
@ 096   ----------------------------------------
	.byte	W96
@ 097   ----------------------------------------
	.byte		VOICE , 4
	.byte		VOL   , 59*mus_thpprf_darkpegasus_mvl/mxv
	.byte		TIE   , An3 , v112
	.byte		N48   , Cs4 
	.byte	W96
@ 098   ----------------------------------------
	.byte		N48   
	.byte	W72
	.byte		EOT   , An3 
	.byte	W24
@ 099   ----------------------------------------
mus_thpprf_darkpegasus_8_099:
	.byte		TIE   , An3 , v112
	.byte		N48   , Cn4 
	.byte	W96
	.byte	PEND
@ 100   ----------------------------------------
	.byte		N48   
	.byte	W72
	.byte		EOT   , An3 
	.byte	W24
@ 101   ----------------------------------------
mus_thpprf_darkpegasus_8_101:
	.byte		TIE   , An3 , v112
	.byte		N48   , Bn3 
	.byte	W96
	.byte	PEND
@ 102   ----------------------------------------
	.byte		N48   
	.byte	W72
	.byte		EOT   , An3 
	.byte	W24
@ 103   ----------------------------------------
	.byte		N96   , Fs3 
	.byte		N96   , As3 
	.byte	W96
@ 104   ----------------------------------------
	.byte		        Fn3 
	.byte		N96   , An3 
	.byte	W96
@ 105   ----------------------------------------
mus_thpprf_darkpegasus_8_105:
	.byte		TIE   , Fn3 , v112
	.byte		TIE   , As3 
	.byte	W96
	.byte	PEND
@ 106   ----------------------------------------
	.byte	W96
	.byte		EOT   , Fn3 
	.byte		        As3 
@ 107   ----------------------------------------
mus_thpprf_darkpegasus_8_107:
	.byte		TIE   , Gs3 , v112
	.byte		TIE   , Cn4 
	.byte	W96
	.byte	PEND
@ 108   ----------------------------------------
	.byte	W96
	.byte		EOT   , Gs3 
	.byte		        Cn4 
@ 109   ----------------------------------------
mus_thpprf_darkpegasus_8_109:
	.byte		TIE   , En3 , v112
	.byte		TIE   , As3 
	.byte	W96
	.byte	PEND
@ 110   ----------------------------------------
	.byte	W96
	.byte		EOT   , En3 
	.byte		        As3 
@ 111   ----------------------------------------
mus_thpprf_darkpegasus_8_111:
	.byte		TIE   , An3 , v112
	.byte		TIE   , Cn4 
	.byte	W96
	.byte	PEND
@ 112   ----------------------------------------
	.byte	W96
	.byte		EOT   , An3 
	.byte		        Cn4 
@ 113   ----------------------------------------
	.byte		TIE   , An3 
	.byte		N48   , Cs4 
	.byte	W96
@ 114   ----------------------------------------
	.byte		N48   
	.byte	W72
	.byte		EOT   , An3 
	.byte	W24
@ 115   ----------------------------------------
	.byte	PATT
	 .word	mus_thpprf_darkpegasus_8_099
@ 116   ----------------------------------------
	.byte		N48   , Cn4 , v112
	.byte	W72
	.byte		EOT   , An3 
	.byte	W24
@ 117   ----------------------------------------
	.byte	PATT
	 .word	mus_thpprf_darkpegasus_8_101
@ 118   ----------------------------------------
	.byte		N48   , Bn3 , v112
	.byte	W72
	.byte		EOT   , An3 
	.byte	W24
@ 119   ----------------------------------------
	.byte		N96   , Fs3 
	.byte		N96   , As3 
	.byte	W96
@ 120   ----------------------------------------
	.byte		        Fn3 
	.byte		N96   , An3 
	.byte	W96
@ 121   ----------------------------------------
	.byte	PATT
	 .word	mus_thpprf_darkpegasus_8_105
@ 122   ----------------------------------------
	.byte	W96
	.byte		EOT   , Fn3 
	.byte		        As3 
@ 123   ----------------------------------------
	.byte	PATT
	 .word	mus_thpprf_darkpegasus_8_107
@ 124   ----------------------------------------
	.byte	W96
	.byte		EOT   , Gs3 
	.byte		        Cn4 
@ 125   ----------------------------------------
	.byte	PATT
	 .word	mus_thpprf_darkpegasus_8_109
@ 126   ----------------------------------------
	.byte	W96
	.byte		EOT   , En3 
	.byte		        As3 
@ 127   ----------------------------------------
	.byte	PATT
	 .word	mus_thpprf_darkpegasus_8_111
@ 128   ----------------------------------------
	.byte	W96
	.byte		EOT   , An3 
	.byte		        Cn4 
@ 129   ----------------------------------------
	.byte	W96
@ 130   ----------------------------------------
mus_thpprf_darkpegasus_8_130:
	.byte	W48
	.byte		N48   , Cn4 , v112
	.byte		N48   , En4 
	.byte	W48
	.byte	PEND
@ 131   ----------------------------------------
	.byte	W96
@ 132   ----------------------------------------
mus_thpprf_darkpegasus_8_132:
	.byte	W24
	.byte		N48   , Cn4 , v112
	.byte		N48   , En4 
	.byte	W72
	.byte	PEND
@ 133   ----------------------------------------
	.byte	W96
@ 134   ----------------------------------------
	.byte	PATT
	 .word	mus_thpprf_darkpegasus_8_130
@ 135   ----------------------------------------
	.byte	W96
@ 136   ----------------------------------------
	.byte	PATT
	 .word	mus_thpprf_darkpegasus_8_132
@ 137   ----------------------------------------
	.byte	W96
@ 138   ----------------------------------------
mus_thpprf_darkpegasus_8_138:
	.byte	W48
	.byte		N48   , Cn4 , v112
	.byte		N48   , Fn4 
	.byte	W48
	.byte	PEND
@ 139   ----------------------------------------
	.byte	W96
@ 140   ----------------------------------------
mus_thpprf_darkpegasus_8_140:
	.byte	W24
	.byte		N48   , Cn4 , v112
	.byte		N48   , Fn4 
	.byte	W72
	.byte	PEND
@ 141   ----------------------------------------
	.byte	W96
@ 142   ----------------------------------------
	.byte	PATT
	 .word	mus_thpprf_darkpegasus_8_138
@ 143   ----------------------------------------
	.byte	W96
@ 144   ----------------------------------------
	.byte	PATT
	 .word	mus_thpprf_darkpegasus_8_140
@ 145   ----------------------------------------
	.byte	W96
@ 146   ----------------------------------------
	.byte	PATT
	 .word	mus_thpprf_darkpegasus_8_130
@ 147   ----------------------------------------
	.byte	W96
@ 148   ----------------------------------------
	.byte	PATT
	 .word	mus_thpprf_darkpegasus_8_132
@ 149   ----------------------------------------
	.byte	W96
@ 150   ----------------------------------------
	.byte	PATT
	 .word	mus_thpprf_darkpegasus_8_130
@ 151   ----------------------------------------
	.byte	W96
@ 152   ----------------------------------------
	.byte	PATT
	 .word	mus_thpprf_darkpegasus_8_132
@ 153   ----------------------------------------
	.byte	W96
@ 154   ----------------------------------------
	.byte	PATT
	 .word	mus_thpprf_darkpegasus_8_130
@ 155   ----------------------------------------
	.byte	W96
@ 156   ----------------------------------------
	.byte	PATT
	 .word	mus_thpprf_darkpegasus_8_132
@ 157   ----------------------------------------
	.byte	W96
@ 158   ----------------------------------------
	.byte	PATT
	 .word	mus_thpprf_darkpegasus_8_130
@ 159   ----------------------------------------
	.byte	W96
@ 160   ----------------------------------------
	.byte	PATT
	 .word	mus_thpprf_darkpegasus_8_132
@ 161   ----------------------------------------
	.byte	W96
@ 162   ----------------------------------------
	.byte	W96
@ 163   ----------------------------------------
	.byte	W96
@ 164   ----------------------------------------
	.byte	W96
@ 165   ----------------------------------------
	.byte	W96
@ 166   ----------------------------------------
	.byte	W96
@ 167   ----------------------------------------
	.byte	W96
@ 168   ----------------------------------------
	.byte	W96
@ 169   ----------------------------------------
	.byte	W96
@ 170   ----------------------------------------
	.byte	W96
@ 171   ----------------------------------------
	.byte	W96
@ 172   ----------------------------------------
	.byte	W96
@ 173   ----------------------------------------
	.byte	W96
@ 174   ----------------------------------------
	.byte	W96
@ 175   ----------------------------------------
	.byte	W96
@ 176   ----------------------------------------
	.byte	W96
@ 177   ----------------------------------------
	.byte	W96
@ 178   ----------------------------------------
	.byte	W96
@ 179   ----------------------------------------
	.byte	W96
@ 180   ----------------------------------------
	.byte	W96
@ 181   ----------------------------------------
	.byte	W96
@ 182   ----------------------------------------
	.byte	W96
@ 183   ----------------------------------------
	.byte	W96
@ 184   ----------------------------------------
	.byte	W96
@ 185   ----------------------------------------
	.byte	W96
@ 186   ----------------------------------------
	.byte	W96
@ 187   ----------------------------------------
	.byte	W96
@ 188   ----------------------------------------
	.byte	W96
@ 189   ----------------------------------------
	.byte	W96
@ 190   ----------------------------------------
	.byte	W96
@ 191   ----------------------------------------
	.byte	W96
@ 192   ----------------------------------------
	.byte	W96
@ 193   ----------------------------------------
	.byte		VOL   , 57*mus_thpprf_darkpegasus_mvl/mxv
	.byte		TIE   , Cn4 , v112
	.byte		N48   , En4 
	.byte	W96
@ 194   ----------------------------------------
	.byte		N48   
	.byte	W72
	.byte		EOT   , Cn4 
	.byte	W24
@ 195   ----------------------------------------
mus_thpprf_darkpegasus_8_195:
	.byte		TIE   , Cn4 , v112
	.byte		N48   , Ds4 
	.byte	W96
	.byte	PEND
@ 196   ----------------------------------------
	.byte		N48   
	.byte	W72
	.byte		EOT   , Cn4 
	.byte	W24
@ 197   ----------------------------------------
mus_thpprf_darkpegasus_8_197:
	.byte		TIE   , Cn4 , v112
	.byte		N48   , Dn4 
	.byte	W96
	.byte	PEND
@ 198   ----------------------------------------
	.byte		N48   
	.byte	W72
	.byte		EOT   , Cn4 
	.byte	W24
@ 199   ----------------------------------------
	.byte		N96   , An3 
	.byte		N96   , Cs4 
	.byte	W96
@ 200   ----------------------------------------
	.byte		        Gs3 
	.byte		N96   , Cn4 
	.byte	W96
@ 201   ----------------------------------------
mus_thpprf_darkpegasus_8_201:
	.byte		TIE   , Gs3 , v112
	.byte		TIE   , Cs4 
	.byte	W96
	.byte	PEND
@ 202   ----------------------------------------
	.byte	W96
	.byte		EOT   , Gs3 
	.byte		        Cs4 
@ 203   ----------------------------------------
mus_thpprf_darkpegasus_8_203:
	.byte		TIE   , Bn3 , v112
	.byte		TIE   , Ds4 
	.byte	W96
	.byte	PEND
@ 204   ----------------------------------------
	.byte	W96
	.byte		EOT   , Bn3 
	.byte		        Ds4 
@ 205   ----------------------------------------
mus_thpprf_darkpegasus_8_205:
	.byte		TIE   , Gn3 , v112
	.byte		TIE   , Cs4 
	.byte	W96
	.byte	PEND
@ 206   ----------------------------------------
	.byte	W96
	.byte		EOT   , Gn3 
	.byte		        Cs4 
@ 207   ----------------------------------------
mus_thpprf_darkpegasus_8_207:
	.byte		TIE   , Cn4 , v112
	.byte		TIE   , Ds4 
	.byte	W96
	.byte	PEND
@ 208   ----------------------------------------
	.byte	W96
	.byte		EOT   , Cn4 
	.byte		        Ds4 
@ 209   ----------------------------------------
	.byte		TIE   , Cn4 
	.byte		N48   , En4 
	.byte	W96
@ 210   ----------------------------------------
	.byte		N48   
	.byte	W72
	.byte		EOT   , Cn4 
	.byte	W24
@ 211   ----------------------------------------
	.byte	PATT
	 .word	mus_thpprf_darkpegasus_8_195
@ 212   ----------------------------------------
	.byte		N48   , Ds4 , v112
	.byte	W72
	.byte		EOT   , Cn4 
	.byte	W24
@ 213   ----------------------------------------
	.byte	PATT
	 .word	mus_thpprf_darkpegasus_8_197
@ 214   ----------------------------------------
	.byte		N48   , Dn4 , v112
	.byte	W72
	.byte		EOT   , Cn4 
	.byte	W24
@ 215   ----------------------------------------
	.byte		N96   , An3 
	.byte		N96   , Cs4 
	.byte	W96
@ 216   ----------------------------------------
	.byte		        Gs3 
	.byte		N96   , Cn4 
	.byte	W96
@ 217   ----------------------------------------
	.byte	PATT
	 .word	mus_thpprf_darkpegasus_8_201
@ 218   ----------------------------------------
	.byte	W96
	.byte		EOT   , Gs3 
	.byte		        Cs4 
@ 219   ----------------------------------------
	.byte	PATT
	 .word	mus_thpprf_darkpegasus_8_203
@ 220   ----------------------------------------
	.byte	W96
	.byte		EOT   , Bn3 
	.byte		        Ds4 
@ 221   ----------------------------------------
	.byte	PATT
	 .word	mus_thpprf_darkpegasus_8_205
@ 222   ----------------------------------------
	.byte	W96
	.byte		EOT   , Gn3 
	.byte		        Cs4 
@ 223   ----------------------------------------
	.byte	PATT
	 .word	mus_thpprf_darkpegasus_8_207
@ 224   ----------------------------------------
	.byte	W96
	.byte		EOT   , Cn4 
	.byte		        Ds4 
@ 225   ----------------------------------------
mus_thpprf_darkpegasus_8_225:
	.byte		TIE   , Cs4 , v112
	.byte		N48   , Fn4 
	.byte	W96
	.byte	PEND
@ 226   ----------------------------------------
	.byte		N48   
	.byte	W72
	.byte		EOT   , Cs4 
	.byte	W24
@ 227   ----------------------------------------
mus_thpprf_darkpegasus_8_227:
	.byte		TIE   , Cs4 , v112
	.byte		N48   , En4 
	.byte	W96
	.byte	PEND
@ 228   ----------------------------------------
	.byte		N48   
	.byte	W72
	.byte		EOT   , Cs4 
	.byte	W24
@ 229   ----------------------------------------
mus_thpprf_darkpegasus_8_229:
	.byte		TIE   , Cs4 , v112
	.byte		N48   , Ds4 
	.byte	W96
	.byte	PEND
@ 230   ----------------------------------------
	.byte		N48   
	.byte	W72
	.byte		EOT   , Cs4 
	.byte	W24
@ 231   ----------------------------------------
	.byte		N96   , As3 
	.byte		N96   , Dn4 
	.byte	W96
@ 232   ----------------------------------------
	.byte		        An3 
	.byte		N96   , Cs4 
	.byte	W96
@ 233   ----------------------------------------
mus_thpprf_darkpegasus_8_233:
	.byte		TIE   , An3 , v112
	.byte		TIE   , Dn4 
	.byte	W96
	.byte	PEND
@ 234   ----------------------------------------
	.byte	W96
	.byte		EOT   , An3 
	.byte		        Dn4 
@ 235   ----------------------------------------
mus_thpprf_darkpegasus_8_235:
	.byte		TIE   , Cn4 , v112
	.byte		TIE   , En4 
	.byte	W96
	.byte	PEND
@ 236   ----------------------------------------
	.byte	W96
	.byte		EOT   , Cn4 
	.byte		        En4 
@ 237   ----------------------------------------
mus_thpprf_darkpegasus_8_237:
	.byte		TIE   , Gs3 , v112
	.byte		TIE   , Dn4 
	.byte	W96
	.byte	PEND
@ 238   ----------------------------------------
	.byte	W96
	.byte		EOT   , Gs3 
	.byte		        Dn4 
@ 239   ----------------------------------------
mus_thpprf_darkpegasus_8_239:
	.byte		TIE   , Cs4 , v112
	.byte		TIE   , En4 
	.byte	W96
	.byte	PEND
@ 240   ----------------------------------------
	.byte	W96
	.byte		EOT   , Cs4 
	.byte		        En4 
@ 241   ----------------------------------------
	.byte	PATT
	 .word	mus_thpprf_darkpegasus_8_225
@ 242   ----------------------------------------
	.byte		N48   , Fn4 , v112
	.byte	W72
	.byte		EOT   , Cs4 
	.byte	W24
@ 243   ----------------------------------------
	.byte	PATT
	 .word	mus_thpprf_darkpegasus_8_227
@ 244   ----------------------------------------
	.byte		N48   , En4 , v112
	.byte	W72
	.byte		EOT   , Cs4 
	.byte	W24
@ 245   ----------------------------------------
	.byte	PATT
	 .word	mus_thpprf_darkpegasus_8_229
@ 246   ----------------------------------------
	.byte		N48   , Ds4 , v112
	.byte	W72
	.byte		EOT   , Cs4 
	.byte	W24
@ 247   ----------------------------------------
	.byte		N96   , As3 
	.byte		N96   , Dn4 
	.byte	W96
@ 248   ----------------------------------------
	.byte		        An3 
	.byte		N96   , Cs4 
	.byte	W96
@ 249   ----------------------------------------
	.byte	PATT
	 .word	mus_thpprf_darkpegasus_8_233
@ 250   ----------------------------------------
	.byte	W96
	.byte		EOT   , An3 
	.byte		        Dn4 
@ 251   ----------------------------------------
	.byte	PATT
	 .word	mus_thpprf_darkpegasus_8_235
@ 252   ----------------------------------------
	.byte	W96
	.byte		EOT   , Cn4 
	.byte		        En4 
@ 253   ----------------------------------------
	.byte	PATT
	 .word	mus_thpprf_darkpegasus_8_237
@ 254   ----------------------------------------
	.byte	W96
	.byte		EOT   , Gs3 
	.byte		        Dn4 
@ 255   ----------------------------------------
	.byte	PATT
	 .word	mus_thpprf_darkpegasus_8_239
@ 256   ----------------------------------------
	.byte	W96
	.byte		EOT   , Cs4 
	.byte		        En4 
@ 257   ----------------------------------------
	.byte	W96
@ 258   ----------------------------------------
	.byte	W96
@ 259   ----------------------------------------
	.byte	W96
@ 260   ----------------------------------------
	.byte	W96
@ 261   ----------------------------------------
	.byte	W96
@ 262   ----------------------------------------
	.byte	W96
@ 263   ----------------------------------------
	.byte	W96
@ 264   ----------------------------------------
	.byte	W96
@ 265   ----------------------------------------
	.byte	W96
@ 266   ----------------------------------------
	.byte	W96
@ 267   ----------------------------------------
	.byte	W96
@ 268   ----------------------------------------
	.byte	W96
@ 269   ----------------------------------------
	.byte	W96
@ 270   ----------------------------------------
	.byte	W96
@ 271   ----------------------------------------
	.byte	W96
@ 272   ----------------------------------------
	.byte	W96
@ 273   ----------------------------------------
	.byte	W96
@ 274   ----------------------------------------
	.byte	W96
@ 275   ----------------------------------------
	.byte	W96
@ 276   ----------------------------------------
	.byte	W96
@ 277   ----------------------------------------
	.byte	W96
@ 278   ----------------------------------------
	.byte	W96
@ 279   ----------------------------------------
	.byte	W96
@ 280   ----------------------------------------
	.byte	W96
@ 281   ----------------------------------------
	.byte	W96
@ 282   ----------------------------------------
	.byte	W96
@ 283   ----------------------------------------
	.byte	W96
@ 284   ----------------------------------------
	.byte	W96
@ 285   ----------------------------------------
	.byte	W96
@ 286   ----------------------------------------
	.byte	W96
@ 287   ----------------------------------------
	.byte	W96
@ 288   ----------------------------------------
	.byte	W96
@ 289   ----------------------------------------
	.byte	W96
@ 290   ----------------------------------------
	.byte		VOL   , 57*mus_thpprf_darkpegasus_mvl/mxv
	.byte	W48
	.byte		N48   , Cs4 , v112
	.byte		N48   , Fn4 
	.byte	W48
@ 291   ----------------------------------------
	.byte	W96
@ 292   ----------------------------------------
mus_thpprf_darkpegasus_8_292:
	.byte	W24
	.byte		N48   , Cs4 , v112
	.byte		N48   , Fn4 
	.byte	W72
	.byte	PEND
@ 293   ----------------------------------------
	.byte	W96
@ 294   ----------------------------------------
mus_thpprf_darkpegasus_8_294:
	.byte	W48
	.byte		N48   , Cs4 , v112
	.byte		N48   , Fn4 
	.byte	W48
	.byte	PEND
@ 295   ----------------------------------------
	.byte	W96
@ 296   ----------------------------------------
	.byte	PATT
	 .word	mus_thpprf_darkpegasus_8_292
@ 297   ----------------------------------------
	.byte	W96
@ 298   ----------------------------------------
	.byte	PATT
	 .word	mus_thpprf_darkpegasus_8_294
@ 299   ----------------------------------------
	.byte	W96
@ 300   ----------------------------------------
	.byte	PATT
	 .word	mus_thpprf_darkpegasus_8_292
@ 301   ----------------------------------------
	.byte	W96
@ 302   ----------------------------------------
	.byte	PATT
	 .word	mus_thpprf_darkpegasus_8_294
@ 303   ----------------------------------------
	.byte	W96
@ 304   ----------------------------------------
	.byte	PATT
	 .word	mus_thpprf_darkpegasus_8_292
@ 305   ----------------------------------------
	.byte	W96
@ 306   ----------------------------------------
	.byte	PATT
	 .word	mus_thpprf_darkpegasus_8_294
@ 307   ----------------------------------------
	.byte	W96
@ 308   ----------------------------------------
	.byte	PATT
	 .word	mus_thpprf_darkpegasus_8_292
@ 309   ----------------------------------------
	.byte	W96
@ 310   ----------------------------------------
	.byte	PATT
	 .word	mus_thpprf_darkpegasus_8_294
@ 311   ----------------------------------------
	.byte	W96
@ 312   ----------------------------------------
	.byte	PATT
	 .word	mus_thpprf_darkpegasus_8_292
@ 313   ----------------------------------------
	.byte	W96
@ 314   ----------------------------------------
	.byte	PATT
	 .word	mus_thpprf_darkpegasus_8_294
@ 315   ----------------------------------------
	.byte	W96
@ 316   ----------------------------------------
	.byte	PATT
	 .word	mus_thpprf_darkpegasus_8_292
@ 317   ----------------------------------------
	.byte	W96
@ 318   ----------------------------------------
	.byte	PATT
	 .word	mus_thpprf_darkpegasus_8_294
@ 319   ----------------------------------------
	.byte	W96
@ 320   ----------------------------------------
	.byte	PATT
	 .word	mus_thpprf_darkpegasus_8_292
@ 321   ----------------------------------------
	.byte	GOTO
	.word	mus_thpprf_darkpegasus_8_033
	.byte	FINE

@**************** Track 9 (Midi-Chn.9) ****************@

mus_thpprf_darkpegasus_9:
	.byte	KEYSH , mus_thpprf_darkpegasus_key+0
@ 000   ----------------------------------------
	.byte		VOICE , 120
	.byte		PAN   , c_v+0
	.byte		VOL   , 96*mus_thpprf_darkpegasus_mvl/mxv
	.byte		BEND  , c_v+0
@ 001   ----------------------------------------
mus_thpprf_darkpegasus_9_001:
	.byte		N12   , Cn1 , v124
	.byte		N24   , Dn1 , v112
	.byte		N06   , Fs2 
	.byte	W72
	.byte		N12   , Cn1 , v124
	.byte		N24   , Dn1 , v112
	.byte		N06   , Fs2 
	.byte	W24
	.byte	PEND
@ 002   ----------------------------------------
mus_thpprf_darkpegasus_9_002:
	.byte	W72
	.byte		N12   , Cn1 , v124
	.byte	W12
	.byte		N12   
	.byte	W12
	.byte	PEND
@ 003   ----------------------------------------
	.byte	PATT
	 .word	mus_thpprf_darkpegasus_9_001
@ 004   ----------------------------------------
mus_thpprf_darkpegasus_9_004:
	.byte	W24
	.byte		N12   , Cn1 , v124
	.byte	W12
	.byte		N12   
	.byte	W12
	.byte		N12   
	.byte		N24   , Dn1 , v112
	.byte		N06   , Fs2 
	.byte	W24
	.byte		N12   , Cn1 , v124
	.byte		N12   , Dn1 , v112
	.byte	W12
	.byte		        Cn1 , v124
	.byte		N12   , Dn1 , v112
	.byte	W12
	.byte	PEND
@ 005   ----------------------------------------
	.byte	PATT
	 .word	mus_thpprf_darkpegasus_9_001
@ 006   ----------------------------------------
	.byte	PATT
	 .word	mus_thpprf_darkpegasus_9_002
@ 007   ----------------------------------------
	.byte	PATT
	 .word	mus_thpprf_darkpegasus_9_001
@ 008   ----------------------------------------
	.byte	PATT
	 .word	mus_thpprf_darkpegasus_9_004
@ 009   ----------------------------------------
	.byte	PATT
	 .word	mus_thpprf_darkpegasus_9_001
@ 010   ----------------------------------------
	.byte	PATT
	 .word	mus_thpprf_darkpegasus_9_002
@ 011   ----------------------------------------
	.byte	PATT
	 .word	mus_thpprf_darkpegasus_9_001
@ 012   ----------------------------------------
	.byte	PATT
	 .word	mus_thpprf_darkpegasus_9_004
@ 013   ----------------------------------------
	.byte	PATT
	 .word	mus_thpprf_darkpegasus_9_001
@ 014   ----------------------------------------
	.byte	PATT
	 .word	mus_thpprf_darkpegasus_9_002
@ 015   ----------------------------------------
	.byte	PATT
	 .word	mus_thpprf_darkpegasus_9_001
@ 016   ----------------------------------------
mus_thpprf_darkpegasus_9_016:
	.byte	W24
	.byte		N12   , Cn1 , v124
	.byte	W12
	.byte		N12   
	.byte	W12
	.byte		N12   
	.byte		N24   , Dn1 , v112
	.byte		N06   , Fs2 
	.byte	W24
	.byte		N12   , Cn1 , v124
	.byte		N12   , Dn1 , v112
	.byte		N06   , Fs2 
	.byte	W12
	.byte		N12   , Cn1 , v124
	.byte		N12   , Dn1 , v112
	.byte	W12
	.byte	PEND
@ 017   ----------------------------------------
mus_thpprf_darkpegasus_9_017:
	.byte		N12   , Cn1 , v124
	.byte		N24   , Dn1 , v112
	.byte		N06   , Fs2 
	.byte		N36   , An2 
	.byte	W36
	.byte		N06   , Fs1 
	.byte	W12
	.byte		N12   , Cn1 , v124
	.byte		N06   , Fs1 , v112
	.byte	W24
	.byte		N12   , Cn1 , v124
	.byte		N24   , Dn1 , v112
	.byte		N36   , An2 
	.byte	W12
	.byte		N12   , Cn1 , v124
	.byte	W12
	.byte	PEND
@ 018   ----------------------------------------
mus_thpprf_darkpegasus_9_018:
	.byte		N12   , Cn1 , v124
	.byte	W36
	.byte		N06   , Fs1 , v112
	.byte	W12
	.byte		N12   , Cn1 , v124
	.byte		N24   , Dn1 , v112
	.byte		N06   , Fs1 
	.byte		N36   , An2 
	.byte	W24
	.byte		N12   , Cn1 , v124
	.byte	W12
	.byte		N12   
	.byte	W12
	.byte	PEND
@ 019   ----------------------------------------
	.byte	PATT
	 .word	mus_thpprf_darkpegasus_9_017
@ 020   ----------------------------------------
mus_thpprf_darkpegasus_9_020:
	.byte		N12   , Cn1 , v124
	.byte	W24
	.byte		N12   
	.byte		N24   , Dn1 , v112
	.byte		N06   , Fs1 
	.byte		N36   , An2 
	.byte	W12
	.byte		N12   , Cn1 , v124
	.byte		N06   , Fs1 , v112
	.byte	W12
	.byte		N12   , Cn1 , v124
	.byte		N24   , Dn1 , v112
	.byte		N06   , Fs1 
	.byte	W24
	.byte		N12   , Cn1 , v124
	.byte		N12   , Dn1 , v112
	.byte	W12
	.byte		        Cn1 , v124
	.byte		N12   , Dn1 , v112
	.byte	W12
	.byte	PEND
@ 021   ----------------------------------------
	.byte	PATT
	 .word	mus_thpprf_darkpegasus_9_017
@ 022   ----------------------------------------
	.byte	PATT
	 .word	mus_thpprf_darkpegasus_9_018
@ 023   ----------------------------------------
	.byte	PATT
	 .word	mus_thpprf_darkpegasus_9_017
@ 024   ----------------------------------------
	.byte		N12   , Cn1 , v124
	.byte	W24
	.byte		N12   
	.byte		N24   , Dn1 , v112
	.byte		N06   , Fs1 
	.byte		N24   , An2 
	.byte	W12
	.byte		N12   , Cn1 , v124
	.byte		N06   , Fs1 , v112
	.byte	W12
	.byte		N12   , Cn1 , v124
	.byte		N24   , Dn1 , v112
	.byte		N06   , Fs1 
	.byte		N24   , An2 
	.byte	W12
	.byte		N12   , Cn1 , v124
	.byte	W12
	.byte		N12   
	.byte		N12   , Dn1 , v112
	.byte		N06   , Fs1 
	.byte		N24   , An2 
	.byte	W12
	.byte		N12   , Cn1 , v124
	.byte		N12   , Dn1 , v112
	.byte		N06   , Fs1 
	.byte	W12
@ 025   ----------------------------------------
	.byte	PATT
	 .word	mus_thpprf_darkpegasus_9_017
@ 026   ----------------------------------------
	.byte	PATT
	 .word	mus_thpprf_darkpegasus_9_018
@ 027   ----------------------------------------
	.byte	PATT
	 .word	mus_thpprf_darkpegasus_9_017
@ 028   ----------------------------------------
	.byte	PATT
	 .word	mus_thpprf_darkpegasus_9_020
@ 029   ----------------------------------------
	.byte	PATT
	 .word	mus_thpprf_darkpegasus_9_017
@ 030   ----------------------------------------
	.byte	PATT
	 .word	mus_thpprf_darkpegasus_9_018
@ 031   ----------------------------------------
	.byte		N12   , Cn1 , v124
	.byte		N24   , Dn1 , v112
	.byte		N06   , Fs2 
	.byte		N36   , An2 
	.byte	W12
	.byte		N12   , Cn1 , v124
	.byte	W12
	.byte		N12   
	.byte	W12
	.byte		N12   
	.byte		N06   , Fs1 , v112
	.byte	W12
	.byte		N12   , Cn1 , v124
	.byte		N06   , Fs1 , v112
	.byte	W12
	.byte		N12   , Cn1 , v124
	.byte	W12
	.byte		N12   
	.byte		N12   , Dn1 , v112
	.byte		N06   , Fs1 
	.byte		N12   , An2 
	.byte	W12
	.byte		        Cn1 , v124
	.byte		N12   , Dn1 , v112
	.byte		N06   , Fs1 
	.byte		N12   , An2 
	.byte	W12
@ 032   ----------------------------------------
	.byte		        Cn1 , v124
	.byte		N12   , Dn1 , v112
	.byte		N06   , Fs1 
	.byte		N12   , An2 
	.byte	W12
	.byte		        Dn1 
	.byte		N06   , Fs1 
	.byte		N12   , An2 
	.byte	W12
	.byte		        Cn1 , v124
	.byte		N12   , Dn1 , v112
	.byte		N06   , Fs1 
	.byte		N12   , An2 
	.byte	W12
	.byte		        Cn1 , v124
	.byte		N12   , Dn1 , v112
	.byte		N06   , Fs1 
	.byte		N12   , An2 
	.byte	W12
	.byte		        Cn1 , v124
	.byte		N24   , Dn1 , v112
	.byte		N06   , Fs1 
	.byte		N12   , An2 
	.byte	W12
	.byte		        Cn1 , v124
	.byte		N12   , An2 , v112
	.byte	W12
	.byte		        Cn1 , v124
	.byte		N12   , An2 , v112
	.byte	W12
	.byte		        Cn1 , v124
	.byte		N36   , An2 , v112
	.byte	W12
@ 033   ----------------------------------------
mus_thpprf_darkpegasus_9_033:
	.byte		VOICE , 120
	.byte		VOL   , 96*mus_thpprf_darkpegasus_mvl/mxv
	.byte		N12   , Cn1 , v124
	.byte		N06   , Fs1 , v112
	.byte	W24
	.byte		N06   
	.byte	W24
	.byte		N12   , Cn1 , v124
	.byte		N36   , An2 , v112
	.byte	W24
	.byte		N06   , Fs1 
	.byte	W24
@ 034   ----------------------------------------
mus_thpprf_darkpegasus_9_034:
	.byte		N12   , Cn1 , v124
	.byte		N06   , Fs1 , v112
	.byte	W24
	.byte		N06   
	.byte	W24
	.byte		N12   , Cn1 , v124
	.byte		N24   , An2 , v112
	.byte	W12
	.byte		N12   , Cn1 , v124
	.byte	W12
	.byte		N12   
	.byte		N24   , Dn1 , v112
	.byte		N36   , An2 , v124
	.byte	W24
	.byte	PEND
@ 035   ----------------------------------------
mus_thpprf_darkpegasus_9_035:
	.byte		N12   , Cn1 , v124
	.byte		N06   , Fs1 , v112
	.byte	W24
	.byte		N06   
	.byte	W24
	.byte		N12   , Cn1 , v124
	.byte		N36   , An2 , v112
	.byte	W24
	.byte		N06   , Fs1 
	.byte	W24
	.byte	PEND
@ 036   ----------------------------------------
	.byte	PATT
	 .word	mus_thpprf_darkpegasus_9_034
@ 037   ----------------------------------------
	.byte	PATT
	 .word	mus_thpprf_darkpegasus_9_035
@ 038   ----------------------------------------
	.byte	PATT
	 .word	mus_thpprf_darkpegasus_9_034
@ 039   ----------------------------------------
	.byte	PATT
	 .word	mus_thpprf_darkpegasus_9_035
@ 040   ----------------------------------------
mus_thpprf_darkpegasus_9_040:
	.byte		N12   , Cn1 , v124
	.byte		N24   , Dn1 , v112
	.byte		N36   , An2 
	.byte	W24
	.byte		N06   , Fs1 
	.byte	W24
	.byte		N12   , Cn1 , v124
	.byte		N36   , An2 , v112
	.byte	W12
	.byte		N12   , Cn1 , v124
	.byte	W12
	.byte		N06   
	.byte		N06   , Fs1 , v112
	.byte	W06
	.byte		        Cn1 , v124
	.byte		N06   , Fs1 , v112
	.byte	W06
	.byte		        Cn1 , v124
	.byte		N06   , Fs1 , v112
	.byte	W06
	.byte		        Cn1 , v124
	.byte		N06   , Fs1 , v112
	.byte	W06
	.byte	PEND
@ 041   ----------------------------------------
mus_thpprf_darkpegasus_9_041:
	.byte		N12   , Cn1 , v124
	.byte		N06   , Fs1 , v112
	.byte		N36   , An2 , v124
	.byte	W24
	.byte		N06   , Fs1 , v112
	.byte	W24
	.byte		N12   , Cn1 , v124
	.byte		N36   , An2 , v112
	.byte	W24
	.byte		N06   , Fs1 
	.byte	W24
	.byte	PEND
@ 042   ----------------------------------------
	.byte	PATT
	 .word	mus_thpprf_darkpegasus_9_034
@ 043   ----------------------------------------
	.byte	PATT
	 .word	mus_thpprf_darkpegasus_9_035
@ 044   ----------------------------------------
	.byte	PATT
	 .word	mus_thpprf_darkpegasus_9_034
@ 045   ----------------------------------------
	.byte	PATT
	 .word	mus_thpprf_darkpegasus_9_035
@ 046   ----------------------------------------
	.byte	PATT
	 .word	mus_thpprf_darkpegasus_9_034
@ 047   ----------------------------------------
	.byte	PATT
	 .word	mus_thpprf_darkpegasus_9_035
@ 048   ----------------------------------------
	.byte	PATT
	 .word	mus_thpprf_darkpegasus_9_040
@ 049   ----------------------------------------
	.byte	PATT
	 .word	mus_thpprf_darkpegasus_9_041
@ 050   ----------------------------------------
	.byte	PATT
	 .word	mus_thpprf_darkpegasus_9_034
@ 051   ----------------------------------------
	.byte	PATT
	 .word	mus_thpprf_darkpegasus_9_035
@ 052   ----------------------------------------
	.byte	PATT
	 .word	mus_thpprf_darkpegasus_9_034
@ 053   ----------------------------------------
	.byte	PATT
	 .word	mus_thpprf_darkpegasus_9_035
@ 054   ----------------------------------------
	.byte	PATT
	 .word	mus_thpprf_darkpegasus_9_034
@ 055   ----------------------------------------
	.byte	PATT
	 .word	mus_thpprf_darkpegasus_9_035
@ 056   ----------------------------------------
	.byte	PATT
	 .word	mus_thpprf_darkpegasus_9_040
@ 057   ----------------------------------------
	.byte	PATT
	 .word	mus_thpprf_darkpegasus_9_041
@ 058   ----------------------------------------
mus_thpprf_darkpegasus_9_058:
	.byte		N12   , Cn1 , v124
	.byte		N06   , Fs1 , v112
	.byte	W24
	.byte		N06   
	.byte	W24
	.byte		N12   , Cn1 , v124
	.byte		N24   , An2 , v112
	.byte	W12
	.byte		N12   , Cn1 , v124
	.byte	W12
	.byte		N12   
	.byte		N24   , Dn1 , v112
	.byte		N24   , An2 , v124
	.byte	W24
	.byte	PEND
@ 059   ----------------------------------------
mus_thpprf_darkpegasus_9_059:
	.byte		N12   , Cn1 , v124
	.byte		N06   , Fs1 , v112
	.byte		N36   , An2 
	.byte	W24
	.byte		N06   , Fs1 
	.byte	W24
	.byte		N12   , Cn1 , v124
	.byte		N36   , An2 , v112
	.byte	W24
	.byte		N06   , Fs1 
	.byte	W24
	.byte	PEND
@ 060   ----------------------------------------
	.byte	PATT
	 .word	mus_thpprf_darkpegasus_9_034
@ 061   ----------------------------------------
	.byte	PATT
	 .word	mus_thpprf_darkpegasus_9_035
@ 062   ----------------------------------------
	.byte	PATT
	 .word	mus_thpprf_darkpegasus_9_034
@ 063   ----------------------------------------
mus_thpprf_darkpegasus_9_063:
	.byte		N12   , Cn1 , v124
	.byte		N24   , Dn1 , v112
	.byte		N06   , Fs2 
	.byte	W24
	.byte		N12   , Cn1 , v124
	.byte		N24   , Dn1 , v112
	.byte		N06   , Fs2 
	.byte	W24
	.byte		N12   , Cn1 , v124
	.byte		N24   , Dn1 , v112
	.byte		N06   , Fs2 
	.byte	W24
	.byte		N12   , Cn1 , v124
	.byte		N24   , Dn1 , v112
	.byte		N06   , Fs2 
	.byte	W24
	.byte	PEND
@ 064   ----------------------------------------
mus_thpprf_darkpegasus_9_064:
	.byte		N12   , Cn1 , v124
	.byte		N24   , Dn1 , v112
	.byte		N06   , Fs2 
	.byte	W12
	.byte		N12   , Cn1 , v124
	.byte	W12
	.byte		N12   
	.byte		N24   , Dn1 , v112
	.byte		N06   , Fs2 
	.byte	W12
	.byte		N12   , Cn1 , v124
	.byte	W12
	.byte		N12   
	.byte		N12   , An2 , v112
	.byte	W12
	.byte		        Cn1 , v124
	.byte		N36   , An2 , v112
	.byte	W12
	.byte		N06   , Cn1 , v124
	.byte		N06   , Dn1 , v112
	.byte		N06   , Fs1 
	.byte	W06
	.byte		        Cn1 , v124
	.byte		N06   , Dn1 , v112
	.byte		N06   , Fs1 
	.byte	W06
	.byte		        Cn1 , v124
	.byte		N06   , Dn1 , v112
	.byte		N06   , Fs1 
	.byte	W06
	.byte		        Cn1 , v124
	.byte		N24   , Dn1 , v112
	.byte		N06   , Fs1 
	.byte	W06
	.byte	PEND
@ 065   ----------------------------------------
mus_thpprf_darkpegasus_9_065:
	.byte		N12   , Cn1 , v124
	.byte		N06   , Fs2 , v112
	.byte		N36   , An2 
	.byte	W96
	.byte	PEND
@ 066   ----------------------------------------
mus_thpprf_darkpegasus_9_066:
	.byte	W72
	.byte		N06   , Cn1 , v124
	.byte	W06
	.byte		N06   
	.byte	W06
	.byte		N06   
	.byte	W06
	.byte		N06   
	.byte	W06
	.byte	PEND
@ 067   ----------------------------------------
	.byte	PATT
	 .word	mus_thpprf_darkpegasus_9_065
@ 068   ----------------------------------------
mus_thpprf_darkpegasus_9_068:
	.byte	W48
	.byte		N12   , Cn1 , v124
	.byte	W12
	.byte		N12   
	.byte	W12
	.byte		N06   
	.byte	W06
	.byte		N06   
	.byte	W06
	.byte		N06   
	.byte	W06
	.byte		N06   
	.byte	W06
	.byte	PEND
@ 069   ----------------------------------------
	.byte	PATT
	 .word	mus_thpprf_darkpegasus_9_065
@ 070   ----------------------------------------
	.byte	PATT
	 .word	mus_thpprf_darkpegasus_9_066
@ 071   ----------------------------------------
	.byte	PATT
	 .word	mus_thpprf_darkpegasus_9_065
@ 072   ----------------------------------------
mus_thpprf_darkpegasus_9_072:
	.byte		N12   , Cn1 , v124
	.byte		N06   , Fs2 , v112
	.byte		N36   , An2 
	.byte	W24
	.byte		N12   , Cn1 , v124
	.byte	W24
	.byte		N12   
	.byte	W12
	.byte		N12   
	.byte	W12
	.byte		N06   
	.byte	W06
	.byte		N06   
	.byte	W06
	.byte		N06   
	.byte	W06
	.byte		N06   
	.byte	W06
	.byte	PEND
@ 073   ----------------------------------------
	.byte	PATT
	 .word	mus_thpprf_darkpegasus_9_065
@ 074   ----------------------------------------
	.byte	PATT
	 .word	mus_thpprf_darkpegasus_9_066
@ 075   ----------------------------------------
	.byte	PATT
	 .word	mus_thpprf_darkpegasus_9_065
@ 076   ----------------------------------------
	.byte	PATT
	 .word	mus_thpprf_darkpegasus_9_068
@ 077   ----------------------------------------
	.byte	PATT
	 .word	mus_thpprf_darkpegasus_9_065
@ 078   ----------------------------------------
	.byte	PATT
	 .word	mus_thpprf_darkpegasus_9_066
@ 079   ----------------------------------------
mus_thpprf_darkpegasus_9_079:
	.byte		N12   , Cn1 , v124
	.byte		N06   , Fs2 , v112
	.byte		N36   , An2 
	.byte	W72
	.byte		N06   , Cn1 , v124
	.byte	W06
	.byte		N06   
	.byte	W06
	.byte		N06   
	.byte	W06
	.byte		N06   
	.byte	W06
	.byte	PEND
@ 080   ----------------------------------------
mus_thpprf_darkpegasus_9_080:
	.byte		N12   , Cn1 , v124
	.byte		N06   , Fs2 , v112
	.byte		N36   , An2 
	.byte	W24
	.byte		N12   , Cn1 , v124
	.byte	W24
	.byte		N12   
	.byte	W12
	.byte		N12   
	.byte	W12
	.byte		N06   
	.byte		N06   , Fs2 , v112
	.byte	W06
	.byte		        Cn1 , v124
	.byte	W06
	.byte		N06   
	.byte	W06
	.byte		N06   
	.byte	W06
	.byte	PEND
@ 081   ----------------------------------------
mus_thpprf_darkpegasus_9_081:
	.byte		N12   , Cn1 , v124
	.byte		N06   , Fs1 , v112
	.byte		N06   , Fs2 
	.byte		N36   , An2 
	.byte	W24
	.byte		N06   , Fs1 
	.byte	W24
	.byte		N12   , Cn1 , v124
	.byte		N36   , An2 , v112
	.byte	W24
	.byte		N06   , Fs1 
	.byte	W24
	.byte	PEND
@ 082   ----------------------------------------
mus_thpprf_darkpegasus_9_082:
	.byte		N12   , Cn1 , v124
	.byte		N06   , Fs1 , v112
	.byte	W24
	.byte		N06   
	.byte	W24
	.byte		N12   , Cn1 , v124
	.byte		N36   , An2 , v112
	.byte	W24
	.byte		N06   , Cn1 , v124
	.byte		N06   , Fs1 , v112
	.byte	W06
	.byte		        Cn1 , v124
	.byte	W06
	.byte		N06   
	.byte	W06
	.byte		N06   
	.byte	W06
	.byte	PEND
@ 083   ----------------------------------------
	.byte	PATT
	 .word	mus_thpprf_darkpegasus_9_081
@ 084   ----------------------------------------
mus_thpprf_darkpegasus_9_084:
	.byte		N12   , Cn1 , v124
	.byte		N06   , Fs1 , v112
	.byte	W24
	.byte		N06   
	.byte	W24
	.byte		N12   , Cn1 , v124
	.byte		N36   , An2 , v112
	.byte	W12
	.byte		N12   , Cn1 , v124
	.byte	W12
	.byte		N06   
	.byte		N06   , Fs1 , v112
	.byte	W06
	.byte		        Cn1 , v124
	.byte	W06
	.byte		N06   
	.byte	W06
	.byte		N06   
	.byte	W06
	.byte	PEND
@ 085   ----------------------------------------
	.byte	PATT
	 .word	mus_thpprf_darkpegasus_9_081
@ 086   ----------------------------------------
	.byte	PATT
	 .word	mus_thpprf_darkpegasus_9_082
@ 087   ----------------------------------------
	.byte	PATT
	 .word	mus_thpprf_darkpegasus_9_081
@ 088   ----------------------------------------
mus_thpprf_darkpegasus_9_088:
	.byte		N12   , Cn1 , v124
	.byte		N06   , Fs1 , v112
	.byte		N06   , Fs2 
	.byte		N36   , An2 
	.byte	W24
	.byte		N12   , Cn1 , v124
	.byte		N06   , Fs1 , v112
	.byte	W24
	.byte		N12   , Cn1 , v124
	.byte		N36   , An2 , v112
	.byte	W12
	.byte		N12   , Cn1 , v124
	.byte	W12
	.byte		N06   
	.byte		N06   , Fs1 , v112
	.byte	W06
	.byte		        Cn1 , v124
	.byte	W06
	.byte		N06   
	.byte	W06
	.byte		N06   
	.byte	W06
	.byte	PEND
@ 089   ----------------------------------------
	.byte	PATT
	 .word	mus_thpprf_darkpegasus_9_081
@ 090   ----------------------------------------
	.byte	PATT
	 .word	mus_thpprf_darkpegasus_9_082
@ 091   ----------------------------------------
	.byte	PATT
	 .word	mus_thpprf_darkpegasus_9_081
@ 092   ----------------------------------------
	.byte	PATT
	 .word	mus_thpprf_darkpegasus_9_084
@ 093   ----------------------------------------
	.byte	PATT
	 .word	mus_thpprf_darkpegasus_9_081
@ 094   ----------------------------------------
	.byte	PATT
	 .word	mus_thpprf_darkpegasus_9_082
@ 095   ----------------------------------------
	.byte		N12   , Cn1 , v124
	.byte		N06   , Fs1 , v112
	.byte		N06   , Fs2 
	.byte		N36   , An2 
	.byte	W36
	.byte		N12   , Cn1 , v124
	.byte		N06   , Fs1 , v112
	.byte		N06   , Fs2 
	.byte		N36   , An2 
	.byte	W36
	.byte		N12   , Cn1 , v124
	.byte		N06   , Fs1 , v112
	.byte		N06   , Fs2 
	.byte		N24   , An2 
	.byte	W24
@ 096   ----------------------------------------
	.byte		N12   , Cn1 , v124
	.byte		N06   , Fs1 , v112
	.byte		N06   , Fs2 
	.byte		N12   , An2 
	.byte	W12
	.byte		        Cn1 , v124
	.byte		N12   , An2 , v112
	.byte	W12
	.byte		        Cn1 , v124
	.byte		N06   , Fs1 , v112
	.byte		N12   , An2 
	.byte	W12
	.byte		        Cn1 , v124
	.byte		N12   , An2 , v112
	.byte	W12
	.byte		        Cn1 , v124
	.byte		N12   , An2 , v112
	.byte	W12
	.byte		        Cn1 , v124
	.byte		N12   , An2 , v112
	.byte	W12
	.byte		N06   , Cn1 , v124
	.byte		N06   , Fs1 , v112
	.byte		N12   , An2 
	.byte	W06
	.byte		N06   , Cn1 , v124
	.byte	W06
	.byte		N06   
	.byte		N12   , An2 , v112
	.byte	W06
	.byte		N06   , Cn1 , v124
	.byte	W06
@ 097   ----------------------------------------
mus_thpprf_darkpegasus_9_097:
	.byte		N12   , Cn1 , v124
	.byte		N06   , Fs1 , v112
	.byte		N06   , Fs2 
	.byte		N24   , An2 
	.byte	W12
	.byte		N06   , Fs1 
	.byte	W12
	.byte		N24   , Dn1 
	.byte		N36   , An2 
	.byte	W12
	.byte		N06   , Fs1 
	.byte	W12
	.byte		N12   , Cn1 , v124
	.byte		N06   , Fs1 , v112
	.byte	W12
	.byte		N06   
	.byte	W12
	.byte		N12   , Cn1 , v124
	.byte		N24   , Dn1 , v112
	.byte		N36   , An2 
	.byte	W12
	.byte		N12   , Cn1 , v124
	.byte		N06   , Fs1 , v112
	.byte	W12
	.byte	PEND
@ 098   ----------------------------------------
mus_thpprf_darkpegasus_9_098:
	.byte		N12   , Cn1 , v124
	.byte		N06   , Fs1 , v112
	.byte	W12
	.byte		N06   
	.byte	W12
	.byte		N24   , Dn1 
	.byte		N36   , An2 
	.byte	W12
	.byte		N06   , Fs1 
	.byte	W12
	.byte		N12   , Cn1 , v124
	.byte		N06   , Fs1 , v112
	.byte	W12
	.byte		N06   
	.byte	W12
	.byte		N12   , Cn1 , v124
	.byte		N24   , Dn1 , v112
	.byte		N36   , An2 
	.byte	W12
	.byte		N12   , Cn1 , v124
	.byte		N06   , Fs1 , v112
	.byte	W12
	.byte	PEND
@ 099   ----------------------------------------
	.byte	PATT
	 .word	mus_thpprf_darkpegasus_9_098
@ 100   ----------------------------------------
mus_thpprf_darkpegasus_9_100:
	.byte		N12   , Cn1 , v124
	.byte		N06   , Fs1 , v112
	.byte	W12
	.byte		N06   
	.byte	W12
	.byte		N12   , Dn1 
	.byte		N36   , An2 
	.byte	W12
	.byte		N06   , Cn1 , v124
	.byte		N06   , Dn1 , v112
	.byte		N06   , Fs1 
	.byte	W06
	.byte		        Cn1 , v124
	.byte		N06   , Dn1 , v112
	.byte		N06   , Fs1 
	.byte	W06
	.byte		N12   , Cn1 , v124
	.byte		N12   , Dn1 , v112
	.byte		N06   , Fs1 
	.byte	W12
	.byte		N12   , Dn1 
	.byte		N06   , Fs1 
	.byte	W12
	.byte		N12   , Cn1 , v124
	.byte		N24   , Dn1 , v112
	.byte		N36   , An2 
	.byte	W12
	.byte		N12   , Cn1 , v124
	.byte		N06   , Fs1 , v112
	.byte	W12
	.byte	PEND
@ 101   ----------------------------------------
	.byte	PATT
	 .word	mus_thpprf_darkpegasus_9_098
@ 102   ----------------------------------------
mus_thpprf_darkpegasus_9_102:
	.byte		N12   , Cn1 , v124
	.byte		N06   , Fs1 , v112
	.byte	W12
	.byte		N06   
	.byte	W12
	.byte		N24   , Dn1 
	.byte		N36   , An2 
	.byte	W12
	.byte		N06   , Fs1 
	.byte	W12
	.byte		N12   , Cn1 , v124
	.byte		N06   , Fs1 , v112
	.byte	W12
	.byte		N06   
	.byte	W12
	.byte		N12   , Cn1 , v124
	.byte		N24   , Dn1 , v112
	.byte		N24   , An2 
	.byte	W12
	.byte		N12   , Cn1 , v124
	.byte		N06   , Fs1 , v112
	.byte	W12
	.byte	PEND
@ 103   ----------------------------------------
mus_thpprf_darkpegasus_9_103:
	.byte		N12   , Cn1 , v124
	.byte		N24   , Dn1 , v112
	.byte		N06   , Fs1 
	.byte		N24   , An2 
	.byte	W12
	.byte		N06   , Fs1 
	.byte	W12
	.byte		N12   , An2 
	.byte	W12
	.byte		        Cn1 , v124
	.byte		N24   , Dn1 , v112
	.byte		N06   , Fs1 
	.byte		N36   , An2 
	.byte	W12
	.byte		N06   , Fs1 
	.byte	W12
	.byte		N06   
	.byte	W12
	.byte		N12   , Cn1 , v124
	.byte		N24   , Dn1 , v112
	.byte		N24   , An2 
	.byte	W12
	.byte		N06   , Fs1 
	.byte	W12
	.byte	PEND
@ 104   ----------------------------------------
mus_thpprf_darkpegasus_9_104:
	.byte		N12   , Cn1 , v124
	.byte		N24   , Dn1 , v112
	.byte		N06   , Fs1 
	.byte		N12   , An2 
	.byte	W12
	.byte		        Cn1 , v124
	.byte		N06   , Fs1 , v112
	.byte		N12   , An2 
	.byte	W12
	.byte		        Cn1 , v124
	.byte		N12   , An2 , v112
	.byte	W12
	.byte		        Cn1 , v124
	.byte		N12   , Dn1 , v112
	.byte		N06   , Fs1 
	.byte		N12   , An2 
	.byte	W12
	.byte		        Cn1 , v124
	.byte		N24   , Dn1 , v112
	.byte		N06   , Fs1 
	.byte		N12   , An2 
	.byte	W12
	.byte		        Cn1 , v124
	.byte		N06   , Fs1 , v112
	.byte		N12   , An2 
	.byte	W12
	.byte		        Cn1 , v124
	.byte		N12   , An2 , v112
	.byte	W12
	.byte		        Cn1 , v124
	.byte		N06   , Fs1 , v112
	.byte		N12   , An2 
	.byte	W12
	.byte	PEND
@ 105   ----------------------------------------
	.byte	PATT
	 .word	mus_thpprf_darkpegasus_9_097
@ 106   ----------------------------------------
	.byte	PATT
	 .word	mus_thpprf_darkpegasus_9_098
@ 107   ----------------------------------------
	.byte	PATT
	 .word	mus_thpprf_darkpegasus_9_098
@ 108   ----------------------------------------
mus_thpprf_darkpegasus_9_108:
	.byte		N12   , Cn1 , v124
	.byte		N06   , Fs1 , v112
	.byte	W12
	.byte		N06   
	.byte	W12
	.byte		N12   , Dn1 
	.byte		N12   , An2 
	.byte	W12
	.byte		        Dn1 
	.byte		N06   , Fs1 
	.byte		N12   , An2 
	.byte	W12
	.byte		        Cn1 , v124
	.byte		N24   , Dn1 , v112
	.byte		N06   , Fs1 
	.byte		N24   , An2 
	.byte	W12
	.byte		N06   , Fs1 
	.byte	W12
	.byte		N12   , Cn1 , v124
	.byte		N24   , An2 , v112
	.byte	W12
	.byte		N12   , Cn1 , v124
	.byte		N06   , Fs1 , v112
	.byte	W12
	.byte	PEND
@ 109   ----------------------------------------
	.byte	PATT
	 .word	mus_thpprf_darkpegasus_9_097
@ 110   ----------------------------------------
	.byte	PATT
	 .word	mus_thpprf_darkpegasus_9_098
@ 111   ----------------------------------------
	.byte	PATT
	 .word	mus_thpprf_darkpegasus_9_098
@ 112   ----------------------------------------
	.byte	PATT
	 .word	mus_thpprf_darkpegasus_9_108
@ 113   ----------------------------------------
	.byte	PATT
	 .word	mus_thpprf_darkpegasus_9_097
@ 114   ----------------------------------------
	.byte	PATT
	 .word	mus_thpprf_darkpegasus_9_098
@ 115   ----------------------------------------
	.byte	PATT
	 .word	mus_thpprf_darkpegasus_9_098
@ 116   ----------------------------------------
	.byte	PATT
	 .word	mus_thpprf_darkpegasus_9_100
@ 117   ----------------------------------------
	.byte	PATT
	 .word	mus_thpprf_darkpegasus_9_098
@ 118   ----------------------------------------
	.byte	PATT
	 .word	mus_thpprf_darkpegasus_9_102
@ 119   ----------------------------------------
	.byte	PATT
	 .word	mus_thpprf_darkpegasus_9_103
@ 120   ----------------------------------------
	.byte	PATT
	 .word	mus_thpprf_darkpegasus_9_104
@ 121   ----------------------------------------
	.byte	PATT
	 .word	mus_thpprf_darkpegasus_9_097
@ 122   ----------------------------------------
	.byte	PATT
	 .word	mus_thpprf_darkpegasus_9_098
@ 123   ----------------------------------------
	.byte	PATT
	 .word	mus_thpprf_darkpegasus_9_098
@ 124   ----------------------------------------
	.byte	PATT
	 .word	mus_thpprf_darkpegasus_9_108
@ 125   ----------------------------------------
	.byte	PATT
	 .word	mus_thpprf_darkpegasus_9_097
@ 126   ----------------------------------------
	.byte	PATT
	 .word	mus_thpprf_darkpegasus_9_102
@ 127   ----------------------------------------
	.byte		N12   , Cn1 , v124
	.byte		N24   , Dn1 , v112
	.byte		N06   , Fs2 
	.byte		N24   , An2 
	.byte	W12
	.byte		N06   , Fs1 
	.byte	W12
	.byte		N24   , Dn1 
	.byte		N06   , Fs2 
	.byte		N24   , An2 
	.byte	W12
	.byte		N06   , Fs1 
	.byte	W12
	.byte		N12   , Cn1 , v124
	.byte		N24   , Dn1 , v112
	.byte		N06   , Fs2 
	.byte		N24   , An2 
	.byte	W12
	.byte		N06   , Fs1 
	.byte	W12
	.byte		N12   , Cn1 , v124
	.byte		N24   , Dn1 , v112
	.byte		N06   , Fs2 
	.byte		N24   , An2 
	.byte	W12
	.byte		N12   , Cn1 , v124
	.byte		N06   , Fs1 , v112
	.byte	W12
@ 128   ----------------------------------------
	.byte		N12   , Cn1 , v124
	.byte		N24   , Dn1 , v112
	.byte		N06   , Fs2 
	.byte		N24   , An2 
	.byte	W12
	.byte		N06   , Fs1 
	.byte	W12
	.byte		N12   , An2 
	.byte	W12
	.byte		N24   , Dn1 
	.byte		N06   , Fs2 
	.byte		N36   , An2 
	.byte	W12
	.byte		N12   , Cn1 , v124
	.byte		N06   , Fs1 , v112
	.byte	W12
	.byte		N06   
	.byte	W12
	.byte		N12   , Cn1 , v124
	.byte		N24   , Dn1 , v112
	.byte		N06   , Fs2 
	.byte		N36   , An2 
	.byte	W12
	.byte		N12   , Cn1 , v124
	.byte		N06   , Fs1 , v112
	.byte	W12
@ 129   ----------------------------------------
	.byte	PATT
	 .word	mus_thpprf_darkpegasus_9_001
@ 130   ----------------------------------------
	.byte	PATT
	 .word	mus_thpprf_darkpegasus_9_002
@ 131   ----------------------------------------
	.byte	PATT
	 .word	mus_thpprf_darkpegasus_9_001
@ 132   ----------------------------------------
	.byte	PATT
	 .word	mus_thpprf_darkpegasus_9_004
@ 133   ----------------------------------------
	.byte	PATT
	 .word	mus_thpprf_darkpegasus_9_001
@ 134   ----------------------------------------
	.byte	PATT
	 .word	mus_thpprf_darkpegasus_9_002
@ 135   ----------------------------------------
	.byte	PATT
	 .word	mus_thpprf_darkpegasus_9_001
@ 136   ----------------------------------------
	.byte	PATT
	 .word	mus_thpprf_darkpegasus_9_004
@ 137   ----------------------------------------
	.byte	PATT
	 .word	mus_thpprf_darkpegasus_9_001
@ 138   ----------------------------------------
	.byte	PATT
	 .word	mus_thpprf_darkpegasus_9_002
@ 139   ----------------------------------------
	.byte	PATT
	 .word	mus_thpprf_darkpegasus_9_001
@ 140   ----------------------------------------
	.byte	PATT
	 .word	mus_thpprf_darkpegasus_9_004
@ 141   ----------------------------------------
	.byte	PATT
	 .word	mus_thpprf_darkpegasus_9_001
@ 142   ----------------------------------------
	.byte	PATT
	 .word	mus_thpprf_darkpegasus_9_002
@ 143   ----------------------------------------
	.byte	PATT
	 .word	mus_thpprf_darkpegasus_9_001
@ 144   ----------------------------------------
	.byte	PATT
	 .word	mus_thpprf_darkpegasus_9_016
@ 145   ----------------------------------------
mus_thpprf_darkpegasus_9_145:
	.byte		N12   , Cn1 , v124
	.byte		N24   , Dn1 , v112
	.byte		N06   , Fs1 
	.byte		N06   , Fs2 
	.byte	W24
	.byte		N12   , Cn1 , v124
	.byte		N06   , Fs1 , v112
	.byte	W12
	.byte		N12   , Cn1 , v124
	.byte		N06   , Fs1 , v112
	.byte	W12
	.byte		N12   , Cn1 , v124
	.byte		N06   , Fs1 , v112
	.byte	W12
	.byte		N12   , Cn1 , v124
	.byte		N06   , Fs1 , v112
	.byte	W12
	.byte		N12   , Cn1 , v124
	.byte		N24   , Dn1 , v112
	.byte		N06   , Fs2 
	.byte	W24
	.byte	PEND
@ 146   ----------------------------------------
mus_thpprf_darkpegasus_9_146:
	.byte	W24
	.byte		N12   , Cn1 , v124
	.byte		N24   , Dn1 , v112
	.byte		N06   , Fs2 
	.byte	W12
	.byte		        Fs1 
	.byte	W12
	.byte		N36   , An2 
	.byte	W24
	.byte		N12   , Cn1 , v124
	.byte		N24   , Dn1 , v112
	.byte		N06   , Fs2 
	.byte	W12
	.byte		N12   , Cn1 , v124
	.byte	W12
	.byte	PEND
@ 147   ----------------------------------------
	.byte	PATT
	 .word	mus_thpprf_darkpegasus_9_145
@ 148   ----------------------------------------
mus_thpprf_darkpegasus_9_148:
	.byte		N06   , Fs1 , v112
	.byte	W12
	.byte		N06   
	.byte	W12
	.byte		N12   , Cn1 , v124
	.byte	W12
	.byte		N12   
	.byte	W12
	.byte		N24   , Dn1 , v112
	.byte		N06   , Fs2 
	.byte	W24
	.byte		N12   , Cn1 , v124
	.byte		N24   , Dn1 , v112
	.byte		N06   , Fs1 
	.byte		N06   , Fs2 
	.byte	W12
	.byte		N12   , Cn1 , v124
	.byte		N06   , Fs1 , v112
	.byte	W12
	.byte	PEND
@ 149   ----------------------------------------
	.byte	PATT
	 .word	mus_thpprf_darkpegasus_9_145
@ 150   ----------------------------------------
	.byte	PATT
	 .word	mus_thpprf_darkpegasus_9_146
@ 151   ----------------------------------------
	.byte	PATT
	 .word	mus_thpprf_darkpegasus_9_145
@ 152   ----------------------------------------
	.byte	PATT
	 .word	mus_thpprf_darkpegasus_9_148
@ 153   ----------------------------------------
	.byte	PATT
	 .word	mus_thpprf_darkpegasus_9_145
@ 154   ----------------------------------------
	.byte	PATT
	 .word	mus_thpprf_darkpegasus_9_146
@ 155   ----------------------------------------
	.byte	PATT
	 .word	mus_thpprf_darkpegasus_9_145
@ 156   ----------------------------------------
	.byte	PATT
	 .word	mus_thpprf_darkpegasus_9_148
@ 157   ----------------------------------------
	.byte	PATT
	 .word	mus_thpprf_darkpegasus_9_145
@ 158   ----------------------------------------
	.byte	PATT
	 .word	mus_thpprf_darkpegasus_9_146
@ 159   ----------------------------------------
	.byte		N12   , Cn1 , v124
	.byte		N24   , Dn1 , v112
	.byte		N06   , Fs1 
	.byte		N06   , Fs2 
	.byte		N12   , An2 
	.byte	W12
	.byte		        Cn1 , v124
	.byte		N06   , Fs1 , v112
	.byte		N12   , An2 
	.byte	W12
	.byte		        Cn1 , v124
	.byte		N06   , Fs1 , v112
	.byte		N12   , An2 
	.byte	W12
	.byte		        Cn1 , v124
	.byte		N06   , Fs1 , v112
	.byte		N12   , An2 
	.byte	W12
	.byte		        Cn1 , v124
	.byte		N06   , Fs1 , v112
	.byte		N12   , An2 
	.byte	W12
	.byte		        Cn1 , v124
	.byte		N06   , Fs1 , v112
	.byte		N12   , An2 
	.byte	W12
	.byte		        Cn1 , v124
	.byte		N24   , Dn1 , v112
	.byte		N06   , Fs1 
	.byte		N06   , Fs2 
	.byte		N12   , An2 
	.byte	W12
	.byte		        Cn1 , v124
	.byte		N06   , Fs1 , v112
	.byte		N12   , An2 
	.byte	W12
@ 160   ----------------------------------------
	.byte		        Cn1 , v124
	.byte		N06   , Fs1 , v112
	.byte		N12   , An2 
	.byte	W12
	.byte		N06   , Fs1 
	.byte		N36   , An2 
	.byte	W12
	.byte		N12   , Cn1 , v124
	.byte	W12
	.byte		N12   
	.byte	W12
	.byte		N12   
	.byte		N24   , Dn1 , v112
	.byte		N06   , Fs1 
	.byte		N06   , Fs2 
	.byte		N12   , An2 
	.byte	W12
	.byte		        Cn1 , v124
	.byte		N06   , Fs1 , v112
	.byte		N12   , An2 
	.byte	W12
	.byte		        Cn1 , v124
	.byte		N24   , Dn1 , v112
	.byte		N06   , Fs1 
	.byte		N06   , Fs2 
	.byte		N12   , An2 
	.byte	W12
	.byte		        Cn1 , v124
	.byte		N06   , Fs1 , v112
	.byte		N36   , An2 
	.byte	W12
@ 161   ----------------------------------------
	.byte	PATT
	 .word	mus_thpprf_darkpegasus_9_035
@ 162   ----------------------------------------
	.byte	PATT
	 .word	mus_thpprf_darkpegasus_9_034
@ 163   ----------------------------------------
	.byte	PATT
	 .word	mus_thpprf_darkpegasus_9_035
@ 164   ----------------------------------------
	.byte	PATT
	 .word	mus_thpprf_darkpegasus_9_034
@ 165   ----------------------------------------
	.byte	PATT
	 .word	mus_thpprf_darkpegasus_9_035
@ 166   ----------------------------------------
	.byte	PATT
	 .word	mus_thpprf_darkpegasus_9_034
@ 167   ----------------------------------------
	.byte	PATT
	 .word	mus_thpprf_darkpegasus_9_035
@ 168   ----------------------------------------
	.byte	PATT
	 .word	mus_thpprf_darkpegasus_9_040
@ 169   ----------------------------------------
	.byte	PATT
	 .word	mus_thpprf_darkpegasus_9_041
@ 170   ----------------------------------------
	.byte	PATT
	 .word	mus_thpprf_darkpegasus_9_034
@ 171   ----------------------------------------
	.byte	PATT
	 .word	mus_thpprf_darkpegasus_9_035
@ 172   ----------------------------------------
	.byte	PATT
	 .word	mus_thpprf_darkpegasus_9_034
@ 173   ----------------------------------------
	.byte	PATT
	 .word	mus_thpprf_darkpegasus_9_035
@ 174   ----------------------------------------
	.byte	PATT
	 .word	mus_thpprf_darkpegasus_9_034
@ 175   ----------------------------------------
	.byte	PATT
	 .word	mus_thpprf_darkpegasus_9_035
@ 176   ----------------------------------------
	.byte	PATT
	 .word	mus_thpprf_darkpegasus_9_040
@ 177   ----------------------------------------
	.byte	PATT
	 .word	mus_thpprf_darkpegasus_9_041
@ 178   ----------------------------------------
	.byte	PATT
	 .word	mus_thpprf_darkpegasus_9_034
@ 179   ----------------------------------------
	.byte	PATT
	 .word	mus_thpprf_darkpegasus_9_035
@ 180   ----------------------------------------
	.byte	PATT
	 .word	mus_thpprf_darkpegasus_9_034
@ 181   ----------------------------------------
	.byte	PATT
	 .word	mus_thpprf_darkpegasus_9_035
@ 182   ----------------------------------------
	.byte	PATT
	 .word	mus_thpprf_darkpegasus_9_034
@ 183   ----------------------------------------
	.byte	PATT
	 .word	mus_thpprf_darkpegasus_9_035
@ 184   ----------------------------------------
	.byte	PATT
	 .word	mus_thpprf_darkpegasus_9_040
@ 185   ----------------------------------------
	.byte	PATT
	 .word	mus_thpprf_darkpegasus_9_041
@ 186   ----------------------------------------
	.byte	PATT
	 .word	mus_thpprf_darkpegasus_9_058
@ 187   ----------------------------------------
	.byte	PATT
	 .word	mus_thpprf_darkpegasus_9_059
@ 188   ----------------------------------------
	.byte	PATT
	 .word	mus_thpprf_darkpegasus_9_034
@ 189   ----------------------------------------
	.byte	PATT
	 .word	mus_thpprf_darkpegasus_9_035
@ 190   ----------------------------------------
	.byte	PATT
	 .word	mus_thpprf_darkpegasus_9_034
@ 191   ----------------------------------------
	.byte	PATT
	 .word	mus_thpprf_darkpegasus_9_063
@ 192   ----------------------------------------
	.byte	PATT
	 .word	mus_thpprf_darkpegasus_9_064
@ 193   ----------------------------------------
	.byte	PATT
	 .word	mus_thpprf_darkpegasus_9_097
@ 194   ----------------------------------------
	.byte	PATT
	 .word	mus_thpprf_darkpegasus_9_098
@ 195   ----------------------------------------
	.byte	PATT
	 .word	mus_thpprf_darkpegasus_9_098
@ 196   ----------------------------------------
	.byte	PATT
	 .word	mus_thpprf_darkpegasus_9_100
@ 197   ----------------------------------------
	.byte	PATT
	 .word	mus_thpprf_darkpegasus_9_098
@ 198   ----------------------------------------
	.byte	PATT
	 .word	mus_thpprf_darkpegasus_9_102
@ 199   ----------------------------------------
	.byte	PATT
	 .word	mus_thpprf_darkpegasus_9_103
@ 200   ----------------------------------------
	.byte	PATT
	 .word	mus_thpprf_darkpegasus_9_104
@ 201   ----------------------------------------
	.byte	PATT
	 .word	mus_thpprf_darkpegasus_9_097
@ 202   ----------------------------------------
	.byte	PATT
	 .word	mus_thpprf_darkpegasus_9_098
@ 203   ----------------------------------------
	.byte	PATT
	 .word	mus_thpprf_darkpegasus_9_098
@ 204   ----------------------------------------
	.byte	PATT
	 .word	mus_thpprf_darkpegasus_9_108
@ 205   ----------------------------------------
	.byte	PATT
	 .word	mus_thpprf_darkpegasus_9_097
@ 206   ----------------------------------------
	.byte	PATT
	 .word	mus_thpprf_darkpegasus_9_098
@ 207   ----------------------------------------
	.byte	PATT
	 .word	mus_thpprf_darkpegasus_9_098
@ 208   ----------------------------------------
	.byte	PATT
	 .word	mus_thpprf_darkpegasus_9_108
@ 209   ----------------------------------------
	.byte	PATT
	 .word	mus_thpprf_darkpegasus_9_097
@ 210   ----------------------------------------
	.byte	PATT
	 .word	mus_thpprf_darkpegasus_9_098
@ 211   ----------------------------------------
	.byte	PATT
	 .word	mus_thpprf_darkpegasus_9_098
@ 212   ----------------------------------------
	.byte	PATT
	 .word	mus_thpprf_darkpegasus_9_100
@ 213   ----------------------------------------
	.byte	PATT
	 .word	mus_thpprf_darkpegasus_9_098
@ 214   ----------------------------------------
	.byte	PATT
	 .word	mus_thpprf_darkpegasus_9_102
@ 215   ----------------------------------------
	.byte	PATT
	 .word	mus_thpprf_darkpegasus_9_103
@ 216   ----------------------------------------
	.byte	PATT
	 .word	mus_thpprf_darkpegasus_9_104
@ 217   ----------------------------------------
	.byte	PATT
	 .word	mus_thpprf_darkpegasus_9_097
@ 218   ----------------------------------------
	.byte	PATT
	 .word	mus_thpprf_darkpegasus_9_098
@ 219   ----------------------------------------
	.byte	PATT
	 .word	mus_thpprf_darkpegasus_9_098
@ 220   ----------------------------------------
	.byte	PATT
	 .word	mus_thpprf_darkpegasus_9_108
@ 221   ----------------------------------------
	.byte	PATT
	 .word	mus_thpprf_darkpegasus_9_097
@ 222   ----------------------------------------
	.byte	PATT
	 .word	mus_thpprf_darkpegasus_9_102
@ 223   ----------------------------------------
	.byte		VOL   , 100*mus_thpprf_darkpegasus_mvl/mxv
	.byte		N12   , Cn1 , v124
	.byte		N24   , Dn1 , v112
	.byte		N06   , Fs2 
	.byte		N24   , An2 
	.byte	W12
	.byte		N06   , Fs1 
	.byte	W12
	.byte		N24   , Dn1 
	.byte		N06   , Fs2 
	.byte		N24   , An2 
	.byte	W12
	.byte		N06   , Fs1 
	.byte	W12
	.byte		N12   , Cn1 , v124
	.byte		N24   , Dn1 , v112
	.byte		N06   , Fs2 
	.byte		N24   , An2 
	.byte	W12
	.byte		N06   , Fs1 
	.byte	W12
	.byte		N12   , Cn1 , v124
	.byte		N24   , Dn1 , v112
	.byte		N06   , Fs2 
	.byte		N24   , An2 
	.byte	W12
	.byte		N12   , Cn1 , v124
	.byte		N06   , Fs1 , v112
	.byte	W12
@ 224   ----------------------------------------
mus_thpprf_darkpegasus_9_224:
	.byte		N12   , Cn1 , v124
	.byte		N24   , Dn1 , v112
	.byte		N06   , Fs2 
	.byte		N24   , An2 
	.byte	W12
	.byte		N06   , Fs1 
	.byte	W12
	.byte		N12   , An2 
	.byte	W12
	.byte		N24   , Dn1 
	.byte		N06   , Fs2 
	.byte		N36   , An2 
	.byte	W12
	.byte		N12   , Cn1 , v124
	.byte		N06   , Fs1 , v112
	.byte	W12
	.byte		N06   
	.byte	W12
	.byte		N12   , Cn1 , v124
	.byte		N24   , Dn1 , v112
	.byte		N06   , Fs2 
	.byte		N24   , An2 
	.byte	W12
	.byte		N12   , Cn1 , v124
	.byte		N06   , Fs1 , v112
	.byte	W12
	.byte	PEND
@ 225   ----------------------------------------
mus_thpprf_darkpegasus_9_225:
	.byte		N12   , Cn1 , v124
	.byte		N12   , Dn1 , v112
	.byte		N06   , Fs1 
	.byte		N24   , An2 
	.byte	W12
	.byte		N12   , Dn1 
	.byte		N06   , Fs1 
	.byte	W12
	.byte		N12   , Dn1 
	.byte		N06   , Fs1 
	.byte		N24   , An2 
	.byte	W12
	.byte		N12   , Dn1 
	.byte		N06   , Fs1 
	.byte	W12
	.byte		N24   , Dn1 
	.byte		N06   , Fs1 
	.byte		N36   , An2 
	.byte	W12
	.byte		N12   , Cn1 , v124
	.byte	W12
	.byte		N12   
	.byte	W12
	.byte		N12   
	.byte	W12
	.byte	PEND
@ 226   ----------------------------------------
mus_thpprf_darkpegasus_9_226:
	.byte		N12   , Cn1 , v124
	.byte		N24   , Dn1 , v112
	.byte		N06   , Fs2 
	.byte		N36   , An2 
	.byte	W36
	.byte		N12   , Cn1 , v124
	.byte		N24   , Dn1 , v112
	.byte		N06   , Fs2 
	.byte		N36   , An2 
	.byte	W36
	.byte		N12   , Cn1 , v124
	.byte		N24   , Dn1 , v112
	.byte		N06   , Fs2 
	.byte		N36   , An2 
	.byte	W12
	.byte		N12   , Cn1 , v124
	.byte	W12
	.byte	PEND
@ 227   ----------------------------------------
mus_thpprf_darkpegasus_9_227:
	.byte		N12   , Cn1 , v124
	.byte	W24
	.byte		        Dn1 , v112
	.byte		N06   , Fs1 
	.byte		N24   , An2 
	.byte	W12
	.byte		N12   , Dn1 
	.byte		N06   , Fs1 
	.byte	W12
	.byte		N24   , Dn1 
	.byte		N06   , Fs1 
	.byte		N36   , An2 
	.byte	W12
	.byte		N12   , Cn1 , v124
	.byte	W12
	.byte		N12   
	.byte	W12
	.byte		N12   
	.byte	W12
	.byte	PEND
@ 228   ----------------------------------------
mus_thpprf_darkpegasus_9_228:
	.byte		N12   , Cn1 , v124
	.byte		N24   , Dn1 , v112
	.byte		N06   , Fs2 
	.byte		N36   , An2 
	.byte	W36
	.byte		N12   , Cn1 , v124
	.byte		N12   , Dn1 , v112
	.byte		N06   , Fs2 
	.byte		N12   , An2 
	.byte	W12
	.byte		        Dn1 
	.byte		N06   , Fs2 
	.byte		N12   , An2 
	.byte	W12
	.byte		        Dn1 
	.byte		N12   , An2 
	.byte	W12
	.byte		        Cn1 , v124
	.byte		N24   , Dn1 , v112
	.byte		N06   , Fs2 
	.byte		N24   , An2 
	.byte	W12
	.byte		N12   , Cn1 , v124
	.byte	W12
	.byte	PEND
@ 229   ----------------------------------------
	.byte	PATT
	 .word	mus_thpprf_darkpegasus_9_225
@ 230   ----------------------------------------
mus_thpprf_darkpegasus_9_230:
	.byte		N12   , Cn1 , v124
	.byte		N24   , Dn1 , v112
	.byte		N06   , Fs2 
	.byte		N36   , An2 
	.byte	W36
	.byte		N12   , Cn1 , v124
	.byte		N24   , Dn1 , v112
	.byte		N06   , Fs2 
	.byte		N36   , An2 
	.byte	W36
	.byte		N12   , Cn1 , v124
	.byte		N24   , Dn1 , v112
	.byte		N06   , Fs2 
	.byte		N24   , An2 
	.byte	W12
	.byte		N12   , Cn1 , v124
	.byte	W12
	.byte	PEND
@ 231   ----------------------------------------
	.byte	PATT
	 .word	mus_thpprf_darkpegasus_9_230
@ 232   ----------------------------------------
mus_thpprf_darkpegasus_9_232:
	.byte		N12   , Cn1 , v124
	.byte		N24   , Dn1 , v112
	.byte		N06   , Fs2 
	.byte		N36   , An2 
	.byte	W36
	.byte		N12   , Cn1 , v124
	.byte		N12   , Dn1 , v112
	.byte		N06   , Fs2 
	.byte		N36   , An2 
	.byte	W12
	.byte		N12   , Dn1 
	.byte		N06   , Fs2 
	.byte	W12
	.byte		N12   , Dn1 
	.byte		N06   , Fs2 
	.byte	W12
	.byte		N12   , Cn1 , v124
	.byte		N24   , Dn1 , v112
	.byte		N06   , Fs2 
	.byte		N24   , An2 
	.byte	W12
	.byte		N12   , Cn1 , v124
	.byte	W12
	.byte	PEND
@ 233   ----------------------------------------
	.byte	PATT
	 .word	mus_thpprf_darkpegasus_9_225
@ 234   ----------------------------------------
	.byte	PATT
	 .word	mus_thpprf_darkpegasus_9_226
@ 235   ----------------------------------------
	.byte	PATT
	 .word	mus_thpprf_darkpegasus_9_227
@ 236   ----------------------------------------
	.byte	PATT
	 .word	mus_thpprf_darkpegasus_9_228
@ 237   ----------------------------------------
	.byte	PATT
	 .word	mus_thpprf_darkpegasus_9_225
@ 238   ----------------------------------------
	.byte	PATT
	 .word	mus_thpprf_darkpegasus_9_230
@ 239   ----------------------------------------
	.byte	PATT
	 .word	mus_thpprf_darkpegasus_9_230
@ 240   ----------------------------------------
	.byte	PATT
	 .word	mus_thpprf_darkpegasus_9_232
@ 241   ----------------------------------------
	.byte	PATT
	 .word	mus_thpprf_darkpegasus_9_097
@ 242   ----------------------------------------
	.byte	PATT
	 .word	mus_thpprf_darkpegasus_9_098
@ 243   ----------------------------------------
	.byte	PATT
	 .word	mus_thpprf_darkpegasus_9_098
@ 244   ----------------------------------------
	.byte	PATT
	 .word	mus_thpprf_darkpegasus_9_100
@ 245   ----------------------------------------
	.byte	PATT
	 .word	mus_thpprf_darkpegasus_9_098
@ 246   ----------------------------------------
	.byte	PATT
	 .word	mus_thpprf_darkpegasus_9_102
@ 247   ----------------------------------------
	.byte	PATT
	 .word	mus_thpprf_darkpegasus_9_103
@ 248   ----------------------------------------
	.byte	PATT
	 .word	mus_thpprf_darkpegasus_9_104
@ 249   ----------------------------------------
	.byte	PATT
	 .word	mus_thpprf_darkpegasus_9_097
@ 250   ----------------------------------------
	.byte	PATT
	 .word	mus_thpprf_darkpegasus_9_098
@ 251   ----------------------------------------
	.byte	PATT
	 .word	mus_thpprf_darkpegasus_9_098
@ 252   ----------------------------------------
	.byte	PATT
	 .word	mus_thpprf_darkpegasus_9_108
@ 253   ----------------------------------------
	.byte		N12   , Cn1 , v124
	.byte		N24   , Dn1 , v112
	.byte		N06   , Fs2 
	.byte		N24   , An2 
	.byte	W12
	.byte		N06   , Fs1 
	.byte	W12
	.byte		N12   , An2 
	.byte	W12
	.byte		        Cn1 , v124
	.byte		N24   , Dn1 , v112
	.byte		N06   , Fs2 
	.byte		N36   , An2 
	.byte	W12
	.byte		N06   , Fs1 
	.byte	W12
	.byte		N06   
	.byte	W12
	.byte		N12   , Cn1 , v124
	.byte		N24   , Dn1 , v112
	.byte		N06   , Fs2 
	.byte		N36   , An2 
	.byte	W12
	.byte		N12   , Cn1 , v124
	.byte		N06   , Fs1 , v112
	.byte	W12
@ 254   ----------------------------------------
	.byte		N12   , Cn1 , v124
	.byte		N06   , Fs1 , v112
	.byte	W12
	.byte		N06   
	.byte	W12
	.byte		N24   , Dn1 
	.byte		N36   , An2 
	.byte	W12
	.byte		N06   , Fs1 
	.byte	W12
	.byte		N12   , Cn1 , v124
	.byte		N06   , Fs1 , v112
	.byte	W12
	.byte		N12   , Cn1 , v124
	.byte		N06   , Fs1 , v112
	.byte	W12
	.byte		N12   , Cn1 , v124
	.byte		N24   , Dn1 , v112
	.byte		N24   , An2 
	.byte	W12
	.byte		N12   , Cn1 , v124
	.byte		N06   , Fs1 , v112
	.byte	W12
@ 255   ----------------------------------------
	.byte		N12   , Cn1 , v124
	.byte		N12   , Dn1 , v112
	.byte		N06   , Fs1 
	.byte		N24   , An2 
	.byte	W12
	.byte		N12   , Dn1 
	.byte		N06   , Fs1 
	.byte	W12
	.byte		N12   , Dn1 
	.byte		N06   , Fs1 
	.byte		N24   , An2 
	.byte	W12
	.byte		N12   , Dn1 
	.byte		N06   , Fs1 
	.byte	W12
	.byte		N12   , Cn1 , v124
	.byte		N12   , Dn1 , v112
	.byte		N06   , Fs1 
	.byte		N24   , An2 
	.byte	W12
	.byte		N12   , Dn1 
	.byte		N06   , Fs1 
	.byte	W12
	.byte		N12   , Cn1 , v124
	.byte		N12   , Dn1 , v112
	.byte		N06   , Fs1 
	.byte		N24   , An2 
	.byte	W12
	.byte		N12   , Cn1 , v124
	.byte		N12   , Dn1 , v112
	.byte		N06   , Fs1 
	.byte	W12
@ 256   ----------------------------------------
	.byte	PATT
	 .word	mus_thpprf_darkpegasus_9_224
@ 257   ----------------------------------------
	.byte	PATT
	 .word	mus_thpprf_darkpegasus_9_065
@ 258   ----------------------------------------
	.byte	PATT
	 .word	mus_thpprf_darkpegasus_9_066
@ 259   ----------------------------------------
	.byte	PATT
	 .word	mus_thpprf_darkpegasus_9_065
@ 260   ----------------------------------------
	.byte	PATT
	 .word	mus_thpprf_darkpegasus_9_068
@ 261   ----------------------------------------
	.byte	PATT
	 .word	mus_thpprf_darkpegasus_9_065
@ 262   ----------------------------------------
	.byte	PATT
	 .word	mus_thpprf_darkpegasus_9_066
@ 263   ----------------------------------------
	.byte	PATT
	 .word	mus_thpprf_darkpegasus_9_065
@ 264   ----------------------------------------
	.byte	PATT
	 .word	mus_thpprf_darkpegasus_9_072
@ 265   ----------------------------------------
	.byte	PATT
	 .word	mus_thpprf_darkpegasus_9_065
@ 266   ----------------------------------------
	.byte	PATT
	 .word	mus_thpprf_darkpegasus_9_066
@ 267   ----------------------------------------
	.byte	PATT
	 .word	mus_thpprf_darkpegasus_9_065
@ 268   ----------------------------------------
	.byte	PATT
	 .word	mus_thpprf_darkpegasus_9_068
@ 269   ----------------------------------------
	.byte	PATT
	 .word	mus_thpprf_darkpegasus_9_065
@ 270   ----------------------------------------
	.byte	PATT
	 .word	mus_thpprf_darkpegasus_9_066
@ 271   ----------------------------------------
	.byte	PATT
	 .word	mus_thpprf_darkpegasus_9_079
@ 272   ----------------------------------------
	.byte	PATT
	 .word	mus_thpprf_darkpegasus_9_080
@ 273   ----------------------------------------
	.byte	PATT
	 .word	mus_thpprf_darkpegasus_9_081
@ 274   ----------------------------------------
	.byte	PATT
	 .word	mus_thpprf_darkpegasus_9_082
@ 275   ----------------------------------------
	.byte	PATT
	 .word	mus_thpprf_darkpegasus_9_081
@ 276   ----------------------------------------
	.byte	PATT
	 .word	mus_thpprf_darkpegasus_9_084
@ 277   ----------------------------------------
	.byte	PATT
	 .word	mus_thpprf_darkpegasus_9_081
@ 278   ----------------------------------------
	.byte	PATT
	 .word	mus_thpprf_darkpegasus_9_082
@ 279   ----------------------------------------
	.byte	PATT
	 .word	mus_thpprf_darkpegasus_9_081
@ 280   ----------------------------------------
	.byte	PATT
	 .word	mus_thpprf_darkpegasus_9_088
@ 281   ----------------------------------------
	.byte	PATT
	 .word	mus_thpprf_darkpegasus_9_081
@ 282   ----------------------------------------
	.byte	PATT
	 .word	mus_thpprf_darkpegasus_9_082
@ 283   ----------------------------------------
	.byte	PATT
	 .word	mus_thpprf_darkpegasus_9_081
@ 284   ----------------------------------------
	.byte	PATT
	 .word	mus_thpprf_darkpegasus_9_084
@ 285   ----------------------------------------
	.byte	PATT
	 .word	mus_thpprf_darkpegasus_9_081
@ 286   ----------------------------------------
	.byte	PATT
	 .word	mus_thpprf_darkpegasus_9_082
@ 287   ----------------------------------------
	.byte		N12   , Cn1 , v124
	.byte		N06   , Fs1 , v112
	.byte		N06   , Fs2 
	.byte		N24   , An2 
	.byte	W24
	.byte		N12   , Cn1 , v124
	.byte		N06   , Fs1 , v112
	.byte		N06   , Fs2 
	.byte		N24   , An2 
	.byte	W24
	.byte		N12   , Cn1 , v124
	.byte		N06   , Fs1 , v112
	.byte		N06   , Fs2 
	.byte		N24   , An2 
	.byte	W24
	.byte		N12   , Cn1 , v124
	.byte		N06   , Fs1 , v112
	.byte		N06   , Fs2 
	.byte		N24   , An2 
	.byte	W24
@ 288   ----------------------------------------
	.byte		N12   , Cn1 , v124
	.byte		N06   , Fs1 , v112
	.byte		N06   , Fs2 
	.byte		N12   , An2 
	.byte	W12
	.byte		        Cn1 , v124
	.byte		N12   , An2 , v112
	.byte	W12
	.byte		        Cn1 , v124
	.byte		N06   , Fs1 , v112
	.byte		N12   , An2 
	.byte	W12
	.byte		N12   
	.byte	W12
	.byte		        Cn1 , v124
	.byte		N12   , An2 , v112
	.byte	W12
	.byte		        Cn1 , v124
	.byte		N12   , An2 , v112
	.byte	W12
	.byte		N06   , Cn1 , v124
	.byte		N06   , Fs1 , v112
	.byte		N12   , An2 
	.byte	W06
	.byte		N06   , Cn1 , v124
	.byte	W06
	.byte		N06   
	.byte		N12   , An2 , v112
	.byte	W06
	.byte		N06   , Cn1 , v124
	.byte	W06
@ 289   ----------------------------------------
	.byte		VOL   , 98*mus_thpprf_darkpegasus_mvl/mxv
	.byte		N12   
	.byte		N24   , Dn1 , v112
	.byte		N06   , Fs2 
	.byte		N36   , An2 
	.byte	W72
	.byte		N12   , Cn1 , v124
	.byte		N24   , Dn1 , v112
	.byte		N06   , Fs2 
	.byte	W24
@ 290   ----------------------------------------
	.byte	PATT
	 .word	mus_thpprf_darkpegasus_9_002
@ 291   ----------------------------------------
	.byte	PATT
	 .word	mus_thpprf_darkpegasus_9_001
@ 292   ----------------------------------------
	.byte	PATT
	 .word	mus_thpprf_darkpegasus_9_004
@ 293   ----------------------------------------
	.byte	PATT
	 .word	mus_thpprf_darkpegasus_9_001
@ 294   ----------------------------------------
	.byte	PATT
	 .word	mus_thpprf_darkpegasus_9_002
@ 295   ----------------------------------------
	.byte	PATT
	 .word	mus_thpprf_darkpegasus_9_001
@ 296   ----------------------------------------
	.byte	PATT
	 .word	mus_thpprf_darkpegasus_9_004
@ 297   ----------------------------------------
	.byte	PATT
	 .word	mus_thpprf_darkpegasus_9_001
@ 298   ----------------------------------------
	.byte	PATT
	 .word	mus_thpprf_darkpegasus_9_002
@ 299   ----------------------------------------
	.byte	PATT
	 .word	mus_thpprf_darkpegasus_9_001
@ 300   ----------------------------------------
	.byte	PATT
	 .word	mus_thpprf_darkpegasus_9_004
@ 301   ----------------------------------------
	.byte	PATT
	 .word	mus_thpprf_darkpegasus_9_001
@ 302   ----------------------------------------
	.byte	PATT
	 .word	mus_thpprf_darkpegasus_9_002
@ 303   ----------------------------------------
	.byte	PATT
	 .word	mus_thpprf_darkpegasus_9_001
@ 304   ----------------------------------------
	.byte	PATT
	 .word	mus_thpprf_darkpegasus_9_016
@ 305   ----------------------------------------
mus_thpprf_darkpegasus_9_305:
	.byte		N12   , Cn1 , v124
	.byte		N24   , Dn1 , v112
	.byte		N06   , Fs2 
	.byte		N36   , An2 
	.byte	W12
	.byte		N06   , Fs1 
	.byte	W12
	.byte		N06   
	.byte	W12
	.byte		N06   
	.byte	W12
	.byte		N12   , Cn1 , v124
	.byte		N06   , Fs1 , v112
	.byte	W12
	.byte		N06   
	.byte	W12
	.byte		N12   , Cn1 , v124
	.byte		N24   , Dn1 , v112
	.byte		N36   , An2 
	.byte	W12
	.byte		N12   , Cn1 , v124
	.byte		N06   , Fs1 , v112
	.byte	W12
	.byte	PEND
@ 306   ----------------------------------------
	.byte		N12   , Cn1 , v124
	.byte		N06   , Fs1 , v112
	.byte	W12
	.byte		N06   
	.byte	W12
	.byte		N06   
	.byte	W12
	.byte		N06   
	.byte	W12
	.byte		N12   , Cn1 , v124
	.byte		N24   , Dn1 , v112
	.byte		N36   , An2 
	.byte	W12
	.byte		N06   , Fs1 
	.byte	W12
	.byte		N12   , Cn1 , v124
	.byte		N06   , Fs1 , v112
	.byte	W06
	.byte		N06   
	.byte	W06
	.byte		N12   , Cn1 , v124
	.byte		N06   , Fs1 , v112
	.byte	W06
	.byte		N06   
	.byte	W06
@ 307   ----------------------------------------
	.byte	PATT
	 .word	mus_thpprf_darkpegasus_9_305
@ 308   ----------------------------------------
mus_thpprf_darkpegasus_9_308:
	.byte		N12   , Cn1 , v124
	.byte		N06   , Fs1 , v112
	.byte	W12
	.byte		N06   
	.byte	W12
	.byte		N12   , Cn1 , v124
	.byte		N24   , Dn1 , v112
	.byte		N06   , Fs1 
	.byte		N36   , An2 
	.byte	W12
	.byte		N12   , Cn1 , v124
	.byte		N06   , Fs1 , v112
	.byte	W12
	.byte		N12   , Cn1 , v124
	.byte		N24   , Dn1 , v112
	.byte		N06   , Fs1 
	.byte	W12
	.byte		N06   
	.byte	W12
	.byte		N12   , Cn1 , v124
	.byte		N12   , Dn1 , v112
	.byte		N06   , Fs1 
	.byte	W06
	.byte		N06   
	.byte	W06
	.byte		N12   , Cn1 , v124
	.byte		N12   , Dn1 , v112
	.byte		N06   , Fs1 
	.byte	W06
	.byte		N06   
	.byte	W06
	.byte	PEND
@ 309   ----------------------------------------
	.byte	PATT
	 .word	mus_thpprf_darkpegasus_9_305
@ 310   ----------------------------------------
mus_thpprf_darkpegasus_9_310:
	.byte		N12   , Cn1 , v124
	.byte		N06   , Fs1 , v112
	.byte	W12
	.byte		N06   
	.byte	W12
	.byte		N06   
	.byte	W12
	.byte		N06   
	.byte	W12
	.byte		N12   , Cn1 , v124
	.byte		N24   , Dn1 , v112
	.byte		N06   , Fs1 
	.byte		N36   , An2 
	.byte	W12
	.byte		N06   , Fs1 
	.byte	W12
	.byte		N12   , Cn1 , v124
	.byte		N06   , Fs1 , v112
	.byte	W06
	.byte		N06   
	.byte	W06
	.byte		N12   , Cn1 , v124
	.byte		N06   , Fs1 , v112
	.byte	W06
	.byte		N06   
	.byte	W06
	.byte	PEND
@ 311   ----------------------------------------
	.byte		N12   , Cn1 , v124
	.byte		N24   , Dn1 , v112
	.byte		N06   , Fs2 
	.byte		N36   , An2 
	.byte	W12
	.byte		N06   , Fs1 
	.byte	W12
	.byte		N06   
	.byte	W12
	.byte		N06   
	.byte	W12
	.byte		N12   , Cn1 , v124
	.byte		N06   , Fs1 , v112
	.byte	W12
	.byte		N06   
	.byte	W12
	.byte		N12   , Cn1 , v124
	.byte		N24   , Dn1 , v112
	.byte		N36   , An2 
	.byte	W06
	.byte		N06   , Fs1 
	.byte	W06
	.byte		N12   , Cn1 , v124
	.byte	W12
@ 312   ----------------------------------------
	.byte		N12   
	.byte		N06   , Fs1 , v112
	.byte	W12
	.byte		N06   
	.byte	W12
	.byte		N12   , Cn1 , v124
	.byte		N24   , Dn1 , v112
	.byte		N06   , Fs1 
	.byte		N24   , An2 
	.byte	W12
	.byte		N12   , Cn1 , v124
	.byte		N06   , Fs1 , v112
	.byte	W12
	.byte		N12   , Cn1 , v124
	.byte		N24   , Dn1 , v112
	.byte		N06   , Fs1 
	.byte		N24   , An2 
	.byte	W12
	.byte		N12   , Cn1 , v124
	.byte		N06   , Fs1 , v112
	.byte	W12
	.byte		N12   , Cn1 , v124
	.byte		N12   , Dn1 , v112
	.byte		N06   , Fs1 
	.byte		N24   , An2 
	.byte	W06
	.byte		N06   , Fs1 
	.byte	W06
	.byte		N12   , Cn1 , v124
	.byte		N12   , Dn1 , v112
	.byte		N06   , Fs1 
	.byte	W06
	.byte		N06   
	.byte	W06
@ 313   ----------------------------------------
	.byte	PATT
	 .word	mus_thpprf_darkpegasus_9_305
@ 314   ----------------------------------------
	.byte	PATT
	 .word	mus_thpprf_darkpegasus_9_310
@ 315   ----------------------------------------
	.byte	PATT
	 .word	mus_thpprf_darkpegasus_9_305
@ 316   ----------------------------------------
	.byte	PATT
	 .word	mus_thpprf_darkpegasus_9_308
@ 317   ----------------------------------------
	.byte	PATT
	 .word	mus_thpprf_darkpegasus_9_305
@ 318   ----------------------------------------
	.byte	PATT
	 .word	mus_thpprf_darkpegasus_9_310
@ 319   ----------------------------------------
	.byte		N12   , Cn1 , v124
	.byte		N24   , Dn1 , v112
	.byte		N06   , Fs2 
	.byte		N36   , An2 
	.byte	W12
	.byte		N12   , Cn1 , v124
	.byte		N06   , Fs1 , v112
	.byte	W12
	.byte		N12   , Cn1 , v124
	.byte		N06   , Fs1 , v112
	.byte	W12
	.byte		N12   , Cn1 , v124
	.byte		N06   , Fs1 , v112
	.byte	W12
	.byte		N12   , Cn1 , v124
	.byte		N06   , Fs1 , v112
	.byte	W12
	.byte		N12   , Cn1 , v124
	.byte		N06   , Fs1 , v112
	.byte	W12
	.byte		N12   , Cn1 , v124
	.byte		N12   , Dn1 , v112
	.byte		N06   , Fs1 
	.byte		N12   , An2 
	.byte	W06
	.byte		N06   , Fs1 
	.byte	W06
	.byte		N12   , Cn1 , v124
	.byte		N12   , Dn1 , v112
	.byte		N06   , Fs1 
	.byte		N12   , An2 
	.byte	W12
@ 320   ----------------------------------------
	.byte		        Cn1 , v124
	.byte		N12   , Dn1 , v112
	.byte		N06   , Fs1 
	.byte		N12   , An2 
	.byte	W12
	.byte		        Dn1 
	.byte		N06   , Fs1 
	.byte		N12   , An2 
	.byte	W12
	.byte		        Cn1 , v124
	.byte		N12   , Dn1 , v112
	.byte		N06   , Fs1 
	.byte		N12   , An2 
	.byte	W12
	.byte		        Cn1 , v124
	.byte		N12   , Dn1 , v112
	.byte		N06   , Fs1 
	.byte		N12   , An2 
	.byte	W12
	.byte		        Cn1 , v124
	.byte		N24   , Dn1 , v112
	.byte		N06   , Fs1 
	.byte		N12   , An2 
	.byte	W12
	.byte		        Cn1 , v124
	.byte		N06   , Fs1 , v112
	.byte		N12   , An2 
	.byte	W12
	.byte		        Cn1 , v124
	.byte		N06   , Fs1 , v112
	.byte		N12   , An2 
	.byte	W06
	.byte		N06   , Fs1 
	.byte	W06
	.byte		N12   , Cn1 , v124
	.byte		N06   , Fs1 , v112
	.byte		N12   , An2 
	.byte	W06
	.byte		N06   , Fs1 
	.byte	W06
@ 321   ----------------------------------------
	.byte	GOTO
	.word	mus_thpprf_darkpegasus_9_033
	.byte	FINE

@******************************************************@
	.align	2

mus_thpprf_darkpegasus:
	.byte	9	@ NumTrks
	.byte	0	@ NumBlks
	.byte	mus_thpprf_darkpegasus_pri	@ Priority
	.byte	mus_thpprf_darkpegasus_rev	@ Reverb.

	.word	mus_thpprf_darkpegasus_grp

	.word	mus_thpprf_darkpegasus_1
	.word	mus_thpprf_darkpegasus_2
	.word	mus_thpprf_darkpegasus_3
	.word	mus_thpprf_darkpegasus_4
	.word	mus_thpprf_darkpegasus_5
	.word	mus_thpprf_darkpegasus_6
	.word	mus_thpprf_darkpegasus_7
	.word	mus_thpprf_darkpegasus_8
	.word	mus_thpprf_darkpegasus_9

	.end
