	.include "MPlayDef.s"

	.equ	mus_thpprf_idolatrizeworld_grp, voicegroup210
	.equ	mus_thpprf_idolatrizeworld_pri, 0
	.equ	mus_thpprf_idolatrizeworld_rev, 0
	.equ	mus_thpprf_idolatrizeworld_mvl, 108
	.equ	mus_thpprf_idolatrizeworld_key, 0
	.equ	mus_thpprf_idolatrizeworld_tbs, 1
	.equ	mus_thpprf_idolatrizeworld_exg, 0
	.equ	mus_thpprf_idolatrizeworld_cmp, 1

	.section .rodata
	.global	mus_thpprf_idolatrizeworld
	.align	2

@**************** Track 1 (Midi-Chn.1) ****************@

mus_thpprf_idolatrizeworld_1:
	.byte	KEYSH , mus_thpprf_idolatrizeworld_key+0
@ 000   ----------------------------------------
	.byte	TEMPO , 500*mus_thpprf_idolatrizeworld_tbs/2
	.byte	W28
	.byte		VOICE , 48
	.byte		PAN   , c_v+0
	.byte		VOL   , 42*mus_thpprf_idolatrizeworld_mvl/mxv
	.byte	W02
	.byte		MOD   , 0
	.byte	W66
@ 001   ----------------------------------------
	.byte	TEMPO , 338*mus_thpprf_idolatrizeworld_tbs/2
	.byte		TIE   , Cs4 , v112
	.byte	W96
@ 002   ----------------------------------------
	.byte	W96
@ 003   ----------------------------------------
	.byte	W96
@ 004   ----------------------------------------
	.byte	W48
	.byte		EOT   
	.byte	W48
@ 005   ----------------------------------------
	.byte		TIE   , Dn4 
	.byte	W96
@ 006   ----------------------------------------
	.byte	W96
@ 007   ----------------------------------------
	.byte	W96
	.byte		EOT   
@ 008   ----------------------------------------
mus_thpprf_idolatrizeworld_1_008:
	.byte	W24
	.byte		N24   , Fs3 , v112
	.byte	W24
	.byte		        En4 
	.byte	W24
	.byte		        Fs4 
	.byte	W24
	.byte	PEND
@ 009   ----------------------------------------
	.byte		TIE   , En4 
	.byte	W96
@ 010   ----------------------------------------
	.byte	W96
@ 011   ----------------------------------------
	.byte	W96
	.byte		EOT   
@ 012   ----------------------------------------
mus_thpprf_idolatrizeworld_1_012:
	.byte	W24
	.byte		N24   , En4 , v112
	.byte	W24
	.byte		        Dn4 
	.byte	W24
	.byte		        Cs4 
	.byte	W24
	.byte	PEND
@ 013   ----------------------------------------
	.byte		N84   , Dn4 
	.byte	W96
@ 014   ----------------------------------------
	.byte		        Fs4 
	.byte	W96
@ 015   ----------------------------------------
mus_thpprf_idolatrizeworld_1_015:
	.byte		N84   , En4 , v112
	.byte	W84
	.byte		N12   , Dn4 
	.byte	W12
	.byte	PEND
@ 016   ----------------------------------------
	.byte		N84   , Cs4 
	.byte	W96
@ 017   ----------------------------------------
	.byte		TIE   , Dn4 
	.byte	W96
@ 018   ----------------------------------------
	.byte	W96
	.byte		EOT   
@ 019   ----------------------------------------
	.byte		N96   , Cs5 
	.byte	W96
@ 020   ----------------------------------------
	.byte		N72   , Bn4 
	.byte	W96
@ 021   ----------------------------------------
	.byte		TIE   , Dn4 
	.byte	W96
@ 022   ----------------------------------------
	.byte	W96
@ 023   ----------------------------------------
	.byte	W72
	.byte		EOT   
	.byte	W24
@ 024   ----------------------------------------
mus_thpprf_idolatrizeworld_1_024:
	.byte		N24   , Cs4 , v112
	.byte	W24
	.byte		        Dn4 
	.byte	W24
	.byte		N48   , En4 
	.byte	W48
	.byte	PEND
@ 025   ----------------------------------------
	.byte		TIE   , Fs4 
	.byte	W96
@ 026   ----------------------------------------
	.byte	W96
	.byte		EOT   
@ 027   ----------------------------------------
	.byte		N96   , En4 
	.byte	W96
@ 028   ----------------------------------------
	.byte		        Gs4 
	.byte	W96
@ 029   ----------------------------------------
mus_thpprf_idolatrizeworld_1_029:
	.byte		N72   , Fs4 , v092
	.byte		N72   , Bn4 , v112
	.byte	W96
	.byte	PEND
@ 030   ----------------------------------------
mus_thpprf_idolatrizeworld_1_030:
	.byte		N72   , Bn4 , v092
	.byte		N72   , Dn5 , v112
	.byte	W96
	.byte	PEND
@ 031   ----------------------------------------
mus_thpprf_idolatrizeworld_1_031:
	.byte		N72   , As4 , v092
	.byte		N72   , Cs5 , v112
	.byte	W96
	.byte	PEND
@ 032   ----------------------------------------
mus_thpprf_idolatrizeworld_1_032:
	.byte		N72   , Fs4 , v092
	.byte		N72   , As4 , v112
	.byte	W96
	.byte	PEND
@ 033   ----------------------------------------
mus_thpprf_idolatrizeworld_1_033:
	.byte		TIE   , Fs4 , v092
	.byte		TIE   , Bn4 , v112
	.byte	W96
	.byte	PEND
@ 034   ----------------------------------------
	.byte	W96
@ 035   ----------------------------------------
	.byte	W96
@ 036   ----------------------------------------
	.byte	W96
@ 037   ----------------------------------------
	.byte	W96
@ 038   ----------------------------------------
	.byte	W96
@ 039   ----------------------------------------
	.byte	W96
@ 040   ----------------------------------------
	.byte	W96
@ 041   ----------------------------------------
	.byte	W48
	.byte		EOT   , Fs4 
	.byte		        Bn4 
	.byte	W48
@ 042   ----------------------------------------
	.byte	W96
@ 043   ----------------------------------------
	.byte	W96
@ 044   ----------------------------------------
	.byte	W96
@ 045   ----------------------------------------
	.byte	W96
@ 046   ----------------------------------------
	.byte	W96
@ 047   ----------------------------------------
	.byte	W96
@ 048   ----------------------------------------
	.byte	W96
@ 049   ----------------------------------------
mus_thpprf_idolatrizeworld_1_049:
	.byte	W96
@ 050   ----------------------------------------
	.byte	W96
@ 051   ----------------------------------------
	.byte	W96
@ 052   ----------------------------------------
	.byte	W96
@ 053   ----------------------------------------
	.byte	W96
@ 054   ----------------------------------------
	.byte	W96
@ 055   ----------------------------------------
	.byte	W96
@ 056   ----------------------------------------
	.byte	W96
@ 057   ----------------------------------------
	.byte	W96
@ 058   ----------------------------------------
	.byte	W96
@ 059   ----------------------------------------
	.byte	W96
@ 060   ----------------------------------------
	.byte	W96
@ 061   ----------------------------------------
	.byte	W96
@ 062   ----------------------------------------
	.byte	W96
@ 063   ----------------------------------------
	.byte	W96
@ 064   ----------------------------------------
	.byte	W96
@ 065   ----------------------------------------
	.byte	W96
@ 066   ----------------------------------------
	.byte	W96
@ 067   ----------------------------------------
	.byte	W96
@ 068   ----------------------------------------
	.byte	W96
@ 069   ----------------------------------------
	.byte	W96
@ 070   ----------------------------------------
	.byte	W96
@ 071   ----------------------------------------
	.byte	W96
@ 072   ----------------------------------------
	.byte	W96
@ 073   ----------------------------------------
	.byte	W96
@ 074   ----------------------------------------
	.byte	W96
@ 075   ----------------------------------------
	.byte	W96
@ 076   ----------------------------------------
	.byte	W96
@ 077   ----------------------------------------
	.byte	W96
@ 078   ----------------------------------------
	.byte	W96
@ 079   ----------------------------------------
	.byte	W96
@ 080   ----------------------------------------
	.byte	W96
@ 081   ----------------------------------------
	.byte	W96
@ 082   ----------------------------------------
	.byte	W96
@ 083   ----------------------------------------
	.byte	W96
@ 084   ----------------------------------------
	.byte	W96
@ 085   ----------------------------------------
	.byte	W96
@ 086   ----------------------------------------
	.byte	W96
@ 087   ----------------------------------------
	.byte	W96
@ 088   ----------------------------------------
	.byte	W96
@ 089   ----------------------------------------
	.byte	W96
@ 090   ----------------------------------------
	.byte	W96
@ 091   ----------------------------------------
	.byte	W96
@ 092   ----------------------------------------
	.byte	W96
@ 093   ----------------------------------------
	.byte	W96
@ 094   ----------------------------------------
	.byte	W96
@ 095   ----------------------------------------
	.byte	W96
@ 096   ----------------------------------------
	.byte	W96
@ 097   ----------------------------------------
	.byte	W96
@ 098   ----------------------------------------
	.byte	W96
@ 099   ----------------------------------------
	.byte	W96
@ 100   ----------------------------------------
	.byte	W96
@ 101   ----------------------------------------
	.byte	W96
@ 102   ----------------------------------------
	.byte	W96
@ 103   ----------------------------------------
	.byte	W96
@ 104   ----------------------------------------
	.byte	W96
@ 105   ----------------------------------------
	.byte	W96
@ 106   ----------------------------------------
	.byte	W96
@ 107   ----------------------------------------
	.byte	W96
@ 108   ----------------------------------------
	.byte	W96
@ 109   ----------------------------------------
	.byte	W96
@ 110   ----------------------------------------
	.byte	W96
@ 111   ----------------------------------------
	.byte	W96
@ 112   ----------------------------------------
	.byte	W96
@ 113   ----------------------------------------
	.byte	W96
@ 114   ----------------------------------------
	.byte	W96
@ 115   ----------------------------------------
	.byte	W96
@ 116   ----------------------------------------
	.byte	W96
@ 117   ----------------------------------------
	.byte	W96
@ 118   ----------------------------------------
	.byte	W96
@ 119   ----------------------------------------
	.byte	W96
@ 120   ----------------------------------------
	.byte	W96
@ 121   ----------------------------------------
	.byte	W96
@ 122   ----------------------------------------
	.byte	W96
@ 123   ----------------------------------------
	.byte	W96
@ 124   ----------------------------------------
	.byte	W96
@ 125   ----------------------------------------
	.byte	W96
@ 126   ----------------------------------------
	.byte	W96
@ 127   ----------------------------------------
	.byte	W96
@ 128   ----------------------------------------
	.byte	W96
@ 129   ----------------------------------------
	.byte	W96
@ 130   ----------------------------------------
	.byte	W96
@ 131   ----------------------------------------
	.byte	W96
@ 132   ----------------------------------------
	.byte	W96
@ 133   ----------------------------------------
	.byte	W96
@ 134   ----------------------------------------
	.byte	W96
@ 135   ----------------------------------------
	.byte	W96
@ 136   ----------------------------------------
	.byte	W96
@ 137   ----------------------------------------
	.byte	W96
@ 138   ----------------------------------------
	.byte	W96
@ 139   ----------------------------------------
	.byte	W96
@ 140   ----------------------------------------
	.byte	W96
@ 141   ----------------------------------------
	.byte	W96
@ 142   ----------------------------------------
	.byte	W96
@ 143   ----------------------------------------
	.byte	W96
@ 144   ----------------------------------------
	.byte	W96
@ 145   ----------------------------------------
	.byte	W96
@ 146   ----------------------------------------
	.byte	W96
@ 147   ----------------------------------------
	.byte	W96
@ 148   ----------------------------------------
	.byte	W96
@ 149   ----------------------------------------
	.byte	W96
@ 150   ----------------------------------------
	.byte	W96
@ 151   ----------------------------------------
	.byte	W96
@ 152   ----------------------------------------
	.byte	W96
@ 153   ----------------------------------------
	.byte	W96
@ 154   ----------------------------------------
	.byte	W96
@ 155   ----------------------------------------
	.byte	W96
@ 156   ----------------------------------------
	.byte	W96
@ 157   ----------------------------------------
	.byte	W96
@ 158   ----------------------------------------
	.byte	W96
@ 159   ----------------------------------------
	.byte	W96
@ 160   ----------------------------------------
	.byte	W96
@ 161   ----------------------------------------
	.byte	W96
@ 162   ----------------------------------------
	.byte	W96
@ 163   ----------------------------------------
	.byte	W96
@ 164   ----------------------------------------
	.byte	W96
@ 165   ----------------------------------------
	.byte	W96
@ 166   ----------------------------------------
	.byte	W96
@ 167   ----------------------------------------
	.byte	W96
@ 168   ----------------------------------------
	.byte	W96
@ 169   ----------------------------------------
	.byte	W96
@ 170   ----------------------------------------
	.byte	W96
@ 171   ----------------------------------------
	.byte	W96
@ 172   ----------------------------------------
	.byte	W96
@ 173   ----------------------------------------
	.byte	W96
@ 174   ----------------------------------------
	.byte	W96
@ 175   ----------------------------------------
	.byte	W96
@ 176   ----------------------------------------
	.byte	W96
@ 177   ----------------------------------------
	.byte	W96
@ 178   ----------------------------------------
	.byte	W96
@ 179   ----------------------------------------
	.byte	W96
@ 180   ----------------------------------------
	.byte	W96
@ 181   ----------------------------------------
	.byte	W96
@ 182   ----------------------------------------
	.byte	W96
@ 183   ----------------------------------------
	.byte	W96
@ 184   ----------------------------------------
	.byte	W96
@ 185   ----------------------------------------
	.byte	W96
@ 186   ----------------------------------------
	.byte	W96
@ 187   ----------------------------------------
	.byte	W96
@ 188   ----------------------------------------
	.byte	W96
@ 189   ----------------------------------------
	.byte	W96
@ 190   ----------------------------------------
	.byte	W96
@ 191   ----------------------------------------
	.byte	W96
@ 192   ----------------------------------------
	.byte	W96
@ 193   ----------------------------------------
	.byte	W96
@ 194   ----------------------------------------
	.byte	W96
@ 195   ----------------------------------------
	.byte	W96
@ 196   ----------------------------------------
	.byte	W96
@ 197   ----------------------------------------
	.byte	W96
@ 198   ----------------------------------------
	.byte	W96
@ 199   ----------------------------------------
	.byte	W96
@ 200   ----------------------------------------
	.byte	W96
@ 201   ----------------------------------------
	.byte	W96
@ 202   ----------------------------------------
	.byte	W96
@ 203   ----------------------------------------
	.byte	W96
@ 204   ----------------------------------------
	.byte	W96
@ 205   ----------------------------------------
	.byte	W96
@ 206   ----------------------------------------
	.byte	W96
@ 207   ----------------------------------------
	.byte	W96
@ 208   ----------------------------------------
	.byte	W96
@ 209   ----------------------------------------
	.byte	W96
@ 210   ----------------------------------------
	.byte	W96
@ 211   ----------------------------------------
	.byte	W96
@ 212   ----------------------------------------
	.byte	W96
@ 213   ----------------------------------------
	.byte	W96
@ 214   ----------------------------------------
	.byte	W96
@ 215   ----------------------------------------
	.byte	W96
@ 216   ----------------------------------------
	.byte	W96
@ 217   ----------------------------------------
	.byte	W96
@ 218   ----------------------------------------
	.byte	W96
@ 219   ----------------------------------------
	.byte	W96
@ 220   ----------------------------------------
	.byte	W96
@ 221   ----------------------------------------
	.byte	W96
@ 222   ----------------------------------------
	.byte	W96
@ 223   ----------------------------------------
	.byte	W96
@ 224   ----------------------------------------
	.byte	W96
@ 225   ----------------------------------------
	.byte	W96
@ 226   ----------------------------------------
	.byte	W96
@ 227   ----------------------------------------
	.byte	W96
@ 228   ----------------------------------------
	.byte	W96
@ 229   ----------------------------------------
	.byte	W96
@ 230   ----------------------------------------
	.byte	W96
@ 231   ----------------------------------------
	.byte	W96
@ 232   ----------------------------------------
	.byte	W96
@ 233   ----------------------------------------
	.byte	W96
@ 234   ----------------------------------------
	.byte	W96
@ 235   ----------------------------------------
	.byte	W96
@ 236   ----------------------------------------
	.byte	W96
@ 237   ----------------------------------------
	.byte	W96
@ 238   ----------------------------------------
	.byte	W96
@ 239   ----------------------------------------
	.byte	W96
@ 240   ----------------------------------------
	.byte	W96
@ 241   ----------------------------------------
	.byte	W96
@ 242   ----------------------------------------
	.byte	W96
@ 243   ----------------------------------------
	.byte	W96
@ 244   ----------------------------------------
	.byte	W96
@ 245   ----------------------------------------
	.byte	W96
@ 246   ----------------------------------------
	.byte	W96
@ 247   ----------------------------------------
	.byte	W96
@ 248   ----------------------------------------
	.byte	W96
@ 249   ----------------------------------------
	.byte	W96
@ 250   ----------------------------------------
	.byte	W96
@ 251   ----------------------------------------
	.byte	W96
@ 252   ----------------------------------------
	.byte	W96
@ 253   ----------------------------------------
	.byte	W96
@ 254   ----------------------------------------
	.byte	W96
@ 255   ----------------------------------------
	.byte	W96
@ 256   ----------------------------------------
	.byte	W96
@ 257   ----------------------------------------
	.byte	W96
@ 258   ----------------------------------------
	.byte	W96
@ 259   ----------------------------------------
	.byte	W96
@ 260   ----------------------------------------
	.byte	W96
@ 261   ----------------------------------------
	.byte	W96
@ 262   ----------------------------------------
	.byte	W96
@ 263   ----------------------------------------
	.byte	W96
@ 264   ----------------------------------------
	.byte	W96
@ 265   ----------------------------------------
	.byte	W96
@ 266   ----------------------------------------
	.byte	W96
@ 267   ----------------------------------------
	.byte	W96
@ 268   ----------------------------------------
	.byte	W96
@ 269   ----------------------------------------
	.byte	W96
@ 270   ----------------------------------------
	.byte	W96
@ 271   ----------------------------------------
	.byte	W96
@ 272   ----------------------------------------
	.byte	W96
@ 273   ----------------------------------------
	.byte	W96
@ 274   ----------------------------------------
	.byte		TIE   , Cs3 , v072
	.byte	W96
@ 275   ----------------------------------------
	.byte	W90
	.byte		EOT   
	.byte	W06
@ 276   ----------------------------------------
	.byte		TIE   , Ds3 
	.byte	W96
@ 277   ----------------------------------------
	.byte	W90
	.byte		EOT   
	.byte	W06
@ 278   ----------------------------------------
	.byte		TIE   , Cn3 
	.byte	W96
@ 279   ----------------------------------------
	.byte	W90
	.byte		EOT   
	.byte	W06
@ 280   ----------------------------------------
	.byte		TIE   , As3 
	.byte		TIE   , Cs4 
	.byte		TIE   , Fn4 
	.byte	W96
@ 281   ----------------------------------------
	.byte	W90
	.byte		EOT   , As3 
	.byte		        Cs4 
	.byte		        Fn4 
	.byte	W06
@ 282   ----------------------------------------
	.byte		TIE   , Cs3 
	.byte	W96
@ 283   ----------------------------------------
	.byte	W90
	.byte		EOT   
	.byte	W06
@ 284   ----------------------------------------
	.byte		TIE   , Ds3 
	.byte	W96
@ 285   ----------------------------------------
	.byte	W90
	.byte		EOT   
	.byte	W06
@ 286   ----------------------------------------
	.byte		TIE   , Cn4 
	.byte		TIE   , Fn4 
	.byte	W96
@ 287   ----------------------------------------
	.byte	W90
	.byte		EOT   , Cn4 
	.byte		        Fn4 
	.byte	W06
@ 288   ----------------------------------------
	.byte		TIE   
	.byte		TIE   , As4 
	.byte	W96
@ 289   ----------------------------------------
	.byte	W90
	.byte		EOT   , Fn4 
	.byte		        As4 
	.byte	W06
@ 290   ----------------------------------------
	.byte		TIE   , Cs4 , v112
	.byte	W96
@ 291   ----------------------------------------
	.byte	W96
@ 292   ----------------------------------------
	.byte	W96
@ 293   ----------------------------------------
	.byte	W48
	.byte		EOT   
	.byte	W48
@ 294   ----------------------------------------
	.byte		TIE   , Dn4 
	.byte	W96
@ 295   ----------------------------------------
	.byte	W96
@ 296   ----------------------------------------
	.byte	W96
	.byte		EOT   
@ 297   ----------------------------------------
	.byte	PATT
	 .word	mus_thpprf_idolatrizeworld_1_008
@ 298   ----------------------------------------
	.byte		TIE   , En4 , v112
	.byte	W96
@ 299   ----------------------------------------
	.byte	W96
@ 300   ----------------------------------------
	.byte	W96
	.byte		EOT   
@ 301   ----------------------------------------
	.byte	PATT
	 .word	mus_thpprf_idolatrizeworld_1_012
@ 302   ----------------------------------------
	.byte		N84   , Dn4 , v112
	.byte	W96
@ 303   ----------------------------------------
	.byte		        Fs4 
	.byte	W96
@ 304   ----------------------------------------
	.byte	PATT
	 .word	mus_thpprf_idolatrizeworld_1_015
@ 305   ----------------------------------------
	.byte		N84   , Cs4 , v112
	.byte	W96
@ 306   ----------------------------------------
	.byte		TIE   , Dn4 
	.byte	W96
@ 307   ----------------------------------------
	.byte	W96
	.byte		EOT   
@ 308   ----------------------------------------
	.byte		N96   , Cs5 
	.byte	W96
@ 309   ----------------------------------------
	.byte		N72   , Bn4 
	.byte	W96
@ 310   ----------------------------------------
	.byte		TIE   , Dn4 
	.byte	W96
@ 311   ----------------------------------------
	.byte	W96
@ 312   ----------------------------------------
	.byte	W72
	.byte		EOT   
	.byte	W24
@ 313   ----------------------------------------
	.byte	PATT
	 .word	mus_thpprf_idolatrizeworld_1_024
@ 314   ----------------------------------------
	.byte		TIE   , Fs4 , v112
	.byte	W96
@ 315   ----------------------------------------
	.byte	W96
	.byte		EOT   
@ 316   ----------------------------------------
	.byte		N96   , En4 
	.byte	W96
@ 317   ----------------------------------------
	.byte		        Gs4 
	.byte	W96
@ 318   ----------------------------------------
	.byte	PATT
	 .word	mus_thpprf_idolatrizeworld_1_029
@ 319   ----------------------------------------
	.byte	PATT
	 .word	mus_thpprf_idolatrizeworld_1_030
@ 320   ----------------------------------------
	.byte	PATT
	 .word	mus_thpprf_idolatrizeworld_1_031
@ 321   ----------------------------------------
	.byte	PATT
	 .word	mus_thpprf_idolatrizeworld_1_032
@ 322   ----------------------------------------
	.byte	PATT
	 .word	mus_thpprf_idolatrizeworld_1_033
@ 323   ----------------------------------------
	.byte	W96
@ 324   ----------------------------------------
	.byte	W96
@ 325   ----------------------------------------
	.byte	W96
@ 326   ----------------------------------------
	.byte	W96
@ 327   ----------------------------------------
	.byte	W96
@ 328   ----------------------------------------
	.byte	W96
@ 329   ----------------------------------------
	.byte	W96
@ 330   ----------------------------------------
	.byte	W48
	.byte		EOT   , Fs4 
	.byte		        Bn4 
	.byte	W48
@ 331   ----------------------------------------
	.byte	W96
@ 332   ----------------------------------------
	.byte	W96
@ 333   ----------------------------------------
	.byte	W96
@ 334   ----------------------------------------
	.byte	W96
@ 335   ----------------------------------------
	.byte	W96
@ 336   ----------------------------------------
	.byte	W96
@ 337   ----------------------------------------
	.byte	W96
@ 338   ----------------------------------------
	.byte	GOTO
	.word	mus_thpprf_idolatrizeworld_1_049
	.byte	FINE

@**************** Track 2 (Midi-Chn.2) ****************@

mus_thpprf_idolatrizeworld_2:
	.byte	KEYSH , mus_thpprf_idolatrizeworld_key+0
@ 000   ----------------------------------------
	.byte	W28
	.byte		VOICE , 1
	.byte		PAN   , c_v+0
	.byte		VOL   , 60*mus_thpprf_idolatrizeworld_mvl/mxv
	.byte	W02
	.byte		MOD   , 0
	.byte	W66
@ 001   ----------------------------------------
mus_thpprf_idolatrizeworld_2_001:
	.byte		N12   , En4 , v108
	.byte	W12
	.byte		        Fs4 
	.byte	W12
	.byte		        Cs5 
	.byte	W12
	.byte		        Dn5 
	.byte	W12
	.byte		        Cs5 
	.byte	W12
	.byte		        Fs4 
	.byte	W12
	.byte		        En4 
	.byte	W12
	.byte		        Dn4 
	.byte	W12
	.byte	PEND
@ 002   ----------------------------------------
mus_thpprf_idolatrizeworld_2_002:
	.byte		N12   , Fs4 , v108
	.byte	W12
	.byte		        Bn4 
	.byte	W12
	.byte		        Cs5 
	.byte	W12
	.byte		        Fs4 
	.byte	W12
	.byte		        En4 
	.byte	W12
	.byte		        Fs4 
	.byte	W12
	.byte		        Cs5 
	.byte	W12
	.byte		        Dn5 
	.byte	W12
	.byte	PEND
@ 003   ----------------------------------------
mus_thpprf_idolatrizeworld_2_003:
	.byte		N12   , Cs5 , v108
	.byte	W12
	.byte		        Fs4 
	.byte	W12
	.byte		        En4 
	.byte	W12
	.byte		        Dn4 
	.byte	W12
	.byte		        Fs4 
	.byte	W12
	.byte		        Bn4 
	.byte	W12
	.byte		        Cs5 
	.byte	W12
	.byte		        Fs4 
	.byte	W12
	.byte	PEND
@ 004   ----------------------------------------
	.byte	PATT
	 .word	mus_thpprf_idolatrizeworld_2_001
@ 005   ----------------------------------------
	.byte	PATT
	 .word	mus_thpprf_idolatrizeworld_2_001
@ 006   ----------------------------------------
	.byte	PATT
	 .word	mus_thpprf_idolatrizeworld_2_002
@ 007   ----------------------------------------
	.byte	PATT
	 .word	mus_thpprf_idolatrizeworld_2_003
@ 008   ----------------------------------------
	.byte	PATT
	 .word	mus_thpprf_idolatrizeworld_2_001
@ 009   ----------------------------------------
	.byte	PATT
	 .word	mus_thpprf_idolatrizeworld_2_001
@ 010   ----------------------------------------
	.byte	PATT
	 .word	mus_thpprf_idolatrizeworld_2_002
@ 011   ----------------------------------------
	.byte	PATT
	 .word	mus_thpprf_idolatrizeworld_2_003
@ 012   ----------------------------------------
	.byte	PATT
	 .word	mus_thpprf_idolatrizeworld_2_001
@ 013   ----------------------------------------
	.byte	PATT
	 .word	mus_thpprf_idolatrizeworld_2_001
@ 014   ----------------------------------------
	.byte	PATT
	 .word	mus_thpprf_idolatrizeworld_2_002
@ 015   ----------------------------------------
	.byte	PATT
	 .word	mus_thpprf_idolatrizeworld_2_003
@ 016   ----------------------------------------
	.byte	PATT
	 .word	mus_thpprf_idolatrizeworld_2_001
@ 017   ----------------------------------------
	.byte	PATT
	 .word	mus_thpprf_idolatrizeworld_2_001
@ 018   ----------------------------------------
	.byte	PATT
	 .word	mus_thpprf_idolatrizeworld_2_002
@ 019   ----------------------------------------
	.byte	PATT
	 .word	mus_thpprf_idolatrizeworld_2_003
@ 020   ----------------------------------------
	.byte	PATT
	 .word	mus_thpprf_idolatrizeworld_2_001
@ 021   ----------------------------------------
	.byte	PATT
	 .word	mus_thpprf_idolatrizeworld_2_001
@ 022   ----------------------------------------
	.byte	PATT
	 .word	mus_thpprf_idolatrizeworld_2_002
@ 023   ----------------------------------------
	.byte	PATT
	 .word	mus_thpprf_idolatrizeworld_2_003
@ 024   ----------------------------------------
	.byte	PATT
	 .word	mus_thpprf_idolatrizeworld_2_001
@ 025   ----------------------------------------
	.byte	PATT
	 .word	mus_thpprf_idolatrizeworld_2_001
@ 026   ----------------------------------------
	.byte	PATT
	 .word	mus_thpprf_idolatrizeworld_2_002
@ 027   ----------------------------------------
	.byte	PATT
	 .word	mus_thpprf_idolatrizeworld_2_003
@ 028   ----------------------------------------
	.byte	PATT
	 .word	mus_thpprf_idolatrizeworld_2_001
@ 029   ----------------------------------------
	.byte	PATT
	 .word	mus_thpprf_idolatrizeworld_2_001
@ 030   ----------------------------------------
	.byte	PATT
	 .word	mus_thpprf_idolatrizeworld_2_002
@ 031   ----------------------------------------
	.byte	PATT
	 .word	mus_thpprf_idolatrizeworld_2_003
@ 032   ----------------------------------------
	.byte	PATT
	 .word	mus_thpprf_idolatrizeworld_2_001
@ 033   ----------------------------------------
mus_thpprf_idolatrizeworld_2_033:
	.byte		N24   , Fs4 , v096
	.byte		N24   , Bn4 , v127
	.byte	W48
	.byte		        Fs4 , v096
	.byte		N24   , Bn4 , v127
	.byte	W48
	.byte	PEND
@ 034   ----------------------------------------
mus_thpprf_idolatrizeworld_2_034:
	.byte		N24   , Fs4 , v096
	.byte		N24   , Bn4 , v127
	.byte	W36
	.byte		        Fs4 , v096
	.byte		N24   , Bn4 , v127
	.byte	W36
	.byte		        Fs4 , v096
	.byte		N24   , Bn4 , v127
	.byte	W24
	.byte	PEND
@ 035   ----------------------------------------
mus_thpprf_idolatrizeworld_2_035:
	.byte	W12
	.byte		N24   , Fs4 , v096
	.byte		N24   , Bn4 , v127
	.byte	W36
	.byte		        Fs4 , v096
	.byte		N24   , Bn4 , v127
	.byte	W24
	.byte		        Dn4 , v096
	.byte		N24   , Fs4 , v127
	.byte	W24
	.byte	PEND
@ 036   ----------------------------------------
mus_thpprf_idolatrizeworld_2_036:
	.byte		N24   , Bn4 , v096
	.byte		N24   , Dn5 , v127
	.byte	W36
	.byte		        An4 , v096
	.byte		N24   , Cs5 , v127
	.byte	W36
	.byte		        Fs4 , v096
	.byte		N24   , Bn4 , v127
	.byte	W24
	.byte	PEND
@ 037   ----------------------------------------
	.byte	PATT
	 .word	mus_thpprf_idolatrizeworld_2_033
@ 038   ----------------------------------------
	.byte	PATT
	 .word	mus_thpprf_idolatrizeworld_2_034
@ 039   ----------------------------------------
	.byte	PATT
	 .word	mus_thpprf_idolatrizeworld_2_035
@ 040   ----------------------------------------
mus_thpprf_idolatrizeworld_2_040:
	.byte		N24   , Bn4 , v096
	.byte		N24   , Dn5 , v127
	.byte	W24
	.byte		        An4 , v096
	.byte		N24   , Cs5 , v127
	.byte	W24
	.byte		        Fs4 , v096
	.byte		N24   , Bn4 , v127
	.byte	W48
	.byte	PEND
@ 041   ----------------------------------------
	.byte	PATT
	 .word	mus_thpprf_idolatrizeworld_2_033
@ 042   ----------------------------------------
	.byte	PATT
	 .word	mus_thpprf_idolatrizeworld_2_034
@ 043   ----------------------------------------
	.byte	PATT
	 .word	mus_thpprf_idolatrizeworld_2_035
@ 044   ----------------------------------------
	.byte	PATT
	 .word	mus_thpprf_idolatrizeworld_2_036
@ 045   ----------------------------------------
	.byte	PATT
	 .word	mus_thpprf_idolatrizeworld_2_033
@ 046   ----------------------------------------
	.byte	PATT
	 .word	mus_thpprf_idolatrizeworld_2_034
@ 047   ----------------------------------------
	.byte	PATT
	 .word	mus_thpprf_idolatrizeworld_2_035
@ 048   ----------------------------------------
	.byte	PATT
	 .word	mus_thpprf_idolatrizeworld_2_040
@ 049   ----------------------------------------
mus_thpprf_idolatrizeworld_2_049:
	.byte		TIE   , Gs1 , v100
	.byte		N96   , Gs3 , v127
	.byte	W24
	.byte		N24   , Ds2 , v100
	.byte	W24
	.byte		        Gs2 
	.byte	W24
	.byte		        Bn2 
	.byte	W24
@ 050   ----------------------------------------
	.byte		        Ds3 
	.byte		N36   , Ds4 , v127
	.byte	W24
	.byte		N24   , Gs2 , v100
	.byte	W12
	.byte		N36   , Cs4 , v127
	.byte	W12
	.byte		N24   , Ds2 , v100
	.byte	W24
	.byte		        Bn1 
	.byte		N24   , Ds4 , v127
	.byte	W24
	.byte		EOT   , Gs1 
@ 051   ----------------------------------------
	.byte		TIE   , Gn1 , v100
	.byte		N96   , Ds4 , v127
	.byte	W24
	.byte		N24   , Ds2 , v100
	.byte	W24
	.byte		        Gn2 
	.byte	W24
	.byte		        Bn2 
	.byte	W24
@ 052   ----------------------------------------
	.byte		        Ds3 
	.byte		N36   , Bn3 , v127
	.byte	W24
	.byte		N24   , Gn2 , v100
	.byte	W12
	.byte		N36   , Ds4 , v127
	.byte	W12
	.byte		N24   , Ds2 , v100
	.byte	W24
	.byte		        Bn1 
	.byte		N24   , Gn4 , v127
	.byte	W24
	.byte		EOT   , Gn1 
@ 053   ----------------------------------------
	.byte		TIE   , Fs1 , v100
	.byte		TIE   , Gs4 , v127
	.byte	W24
	.byte		N24   , Ds2 , v100
	.byte	W24
	.byte		        Fs2 
	.byte	W24
	.byte		        Bn2 
	.byte	W24
@ 054   ----------------------------------------
	.byte		        Ds3 
	.byte	W18
	.byte		EOT   , Gs4 
	.byte		N06   , Fn4 , v127
	.byte	W06
	.byte		N24   , Bn2 , v100
	.byte		N24   , Ds4 , v127
	.byte	W24
	.byte		        Ds2 , v100
	.byte		N24   , Gs4 , v127
	.byte	W24
	.byte		        Fs2 , v100
	.byte		N24   , As4 , v127
	.byte	W24
	.byte		EOT   , Fs1 
@ 055   ----------------------------------------
	.byte		TIE   , Fn1 , v100
	.byte		N36   , Bn4 , v127
	.byte	W24
	.byte		N24   , Cs2 , v100
	.byte	W12
	.byte		N36   , As4 , v127
	.byte	W12
	.byte		N24   , Fn2 , v100
	.byte	W24
	.byte		        As2 
	.byte		N24   , Fs4 , v127
	.byte	W24
@ 056   ----------------------------------------
	.byte		        Cs3 , v100
	.byte		N36   , Cs4 , v127
	.byte	W24
	.byte		N24   , Fn2 , v100
	.byte	W12
	.byte		N36   , Bn3 , v127
	.byte	W12
	.byte		N24   , Cs2 , v100
	.byte	W24
	.byte		        An1 
	.byte		N24   , As3 , v127
	.byte	W24
	.byte		EOT   , Fn1 
@ 057   ----------------------------------------
	.byte		TIE   , En1 , v100
	.byte		N48   , Cs4 , v127
	.byte	W24
	.byte		N24   , Bn1 , v100
	.byte	W24
	.byte		        En2 
	.byte		N24   , Ds4 , v127
	.byte	W18
	.byte		N06   , As3 
	.byte	W06
	.byte		N24   , Gs2 , v100
	.byte		N72   , Gs3 , v127
	.byte	W24
@ 058   ----------------------------------------
	.byte		N24   , Bn2 , v100
	.byte	W24
	.byte		        En2 
	.byte	W24
	.byte		        Bn1 
	.byte		N36   , Ds4 , v127
	.byte	W24
	.byte		N24   , Gs1 , v100
	.byte	W24
	.byte		EOT   , En1 
@ 059   ----------------------------------------
	.byte		TIE   , Ds1 
	.byte		N96   , Cs4 , v127
	.byte	W24
	.byte		N24   , As1 , v100
	.byte	W24
	.byte		        Ds2 
	.byte	W24
	.byte		        Gn2 
	.byte	W24
@ 060   ----------------------------------------
	.byte		        As2 
	.byte		N36   , As3 , v127
	.byte	W24
	.byte		N24   , Ds2 , v100
	.byte	W12
	.byte		N36   , Fs3 , v127
	.byte	W12
	.byte		N24   , As1 , v100
	.byte	W24
	.byte		        Gn1 
	.byte		N24   , Cs3 , v127
	.byte	W24
	.byte		EOT   , Ds1 
@ 061   ----------------------------------------
	.byte		TIE   , Cs1 , v100
	.byte		N48   , Cs3 , v127
	.byte	W24
	.byte		N24   , Gs1 , v100
	.byte	W24
	.byte		        Cs2 
	.byte		N24   , Ds3 , v127
	.byte	W24
	.byte		        Fn2 , v100
	.byte		N42   , Ds3 , v127
	.byte	W24
@ 062   ----------------------------------------
	.byte		N24   , Gs2 , v100
	.byte	W24
	.byte		        Cs2 
	.byte		N18   , As2 , v127
	.byte	W24
	.byte		N24   , Gs1 , v100
	.byte		N18   , Ds3 , v127
	.byte	W24
	.byte		N24   , Fn1 , v100
	.byte		N18   , Gn3 , v127
	.byte	W24
	.byte		EOT   , Cs1 
@ 063   ----------------------------------------
	.byte		N96   , Ds1 , v100
	.byte		N18   , As3 , v127
	.byte	W24
	.byte		N24   , As1 , v100
	.byte		N18   , Gn3 , v127
	.byte	W24
	.byte		N24   , Ds2 , v100
	.byte		N18   , As3 , v127
	.byte	W24
	.byte		N24   , Gn2 , v100
	.byte		N18   , Fn4 , v127
	.byte	W24
@ 064   ----------------------------------------
	.byte		N96   , Gn1 , v100
	.byte		N18   , Ds4 , v127
	.byte	W24
	.byte		N24   , As1 , v100
	.byte		N18   , Dn4 , v127
	.byte	W24
	.byte		N24   , Cs2 , v100
	.byte		N18   , As3 , v127
	.byte	W24
	.byte		N24   , Ds2 , v100
	.byte		N18   , Gn3 , v127
	.byte	W24
@ 065   ----------------------------------------
	.byte		TIE   , Gs1 , v100
	.byte		N48   , Gs3 , v127
	.byte	W24
	.byte		N24   , Ds2 , v100
	.byte	W18
	.byte		N06   , Dn4 , v127
	.byte	W06
	.byte		N24   , Gs2 , v100
	.byte		N48   , Ds4 , v127
	.byte	W24
	.byte		N24   , Cn3 , v100
	.byte	W18
	.byte		N06   , Gn4 , v127
	.byte	W06
@ 066   ----------------------------------------
	.byte		N24   , Ds3 , v100
	.byte		N36   , Gs4 , v127
	.byte	W24
	.byte		N24   , Gs2 , v100
	.byte	W12
	.byte		N36   , As4 , v127
	.byte	W12
	.byte		N24   , Ds2 , v100
	.byte	W24
	.byte		        Cn2 
	.byte		N24   , Bn4 , v127
	.byte	W24
	.byte		EOT   , Gs1 
@ 067   ----------------------------------------
	.byte		TIE   , Gn1 , v100
	.byte		N96   , Ds4 , v127
	.byte	W24
	.byte		N24   , Dn2 , v100
	.byte	W24
	.byte		        Gn2 
	.byte	W24
	.byte		        Bn2 
	.byte	W18
	.byte		N06   , An4 , v127
	.byte	W06
@ 068   ----------------------------------------
	.byte		N24   , Dn3 , v100
	.byte		N36   , As4 , v127
	.byte	W24
	.byte		N24   , Gn2 , v100
	.byte	W12
	.byte		N36   , Bn4 , v127
	.byte	W12
	.byte		N24   , Dn2 , v100
	.byte	W24
	.byte		        Bn1 
	.byte		N24   , Cs5 , v127
	.byte	W18
	.byte		N06   , As4 
	.byte	W06
	.byte		EOT   , Gn1 
@ 069   ----------------------------------------
	.byte		TIE   , Fs1 , v100
	.byte		N84   , Gs4 , v127
	.byte	W24
	.byte		N24   , Ds2 , v100
	.byte	W24
	.byte		        Fs2 
	.byte	W24
	.byte		        Bn2 
	.byte	W12
	.byte		N12   , As3 , v080
	.byte		N12   , As4 , v127
	.byte	W12
@ 070   ----------------------------------------
	.byte		N24   , Ds3 , v100
	.byte		N24   , Bn3 , v080
	.byte		N24   , Gs4 , v100
	.byte		N24   , Bn4 , v127
	.byte	W24
	.byte		        Bn2 , v100
	.byte	W12
	.byte		        Cs4 , v080
	.byte		N24   , As4 , v100
	.byte		N24   , Cs5 , v127
	.byte	W12
	.byte		        Ds2 , v100
	.byte	W24
	.byte		        Fs2 
	.byte		N24   , Ds4 , v080
	.byte		N24   , Bn4 , v100
	.byte		N24   , Ds5 , v127
	.byte	W24
	.byte		EOT   , Fs1 
@ 071   ----------------------------------------
	.byte		TIE   , Fn1 , v100
	.byte		N24   , Gs4 , v080
	.byte		N24   , Ds5 , v100
	.byte		N24   , Gs5 , v127
	.byte	W24
	.byte		        Cn2 , v100
	.byte	W12
	.byte		        Ds4 , v080
	.byte		N24   , Bn4 , v100
	.byte		N24   , Ds5 , v127
	.byte	W12
	.byte		        Fn2 , v100
	.byte	W24
	.byte		        An2 
	.byte		N24   , Cs4 , v080
	.byte		N24   , As4 , v100
	.byte		N24   , Cs5 , v127
	.byte	W24
@ 072   ----------------------------------------
	.byte		        Cn3 , v100
	.byte		N24   , Bn3 , v080
	.byte		N24   , Gs4 , v100
	.byte		N24   , Bn4 , v127
	.byte	W24
	.byte		        Fn2 , v100
	.byte	W12
	.byte		        As3 , v080
	.byte		N24   , Fs4 , v100
	.byte		N24   , As4 , v127
	.byte	W12
	.byte		        Cn2 , v100
	.byte	W24
	.byte		        An1 
	.byte		N18   , Fs3 , v080
	.byte		N18   , Cs4 , v100
	.byte		N18   , Fs4 , v127
	.byte	W18
	.byte		N06   , En3 , v100
	.byte		N06   , En4 , v127
	.byte	W06
	.byte		EOT   , Fn1 
@ 073   ----------------------------------------
	.byte		TIE   , En1 , v100
	.byte		N06   , Fn3 
	.byte		N06   , Fn4 , v127
	.byte	W06
	.byte		N42   , Fs3 , v100
	.byte		N42   , Fs4 , v127
	.byte	W18
	.byte		N24   , Bn1 , v100
	.byte	W24
	.byte		        En2 
	.byte		N24   , Gs3 
	.byte		N24   , Gs4 , v127
	.byte	W24
	.byte		        Gs2 , v100
	.byte		N48   , Gs3 
	.byte		N48   , Gs4 , v127
	.byte	W24
@ 074   ----------------------------------------
	.byte		N24   , Bn2 , v100
	.byte	W24
	.byte		        En2 
	.byte		N24   , Ds3 
	.byte		N24   , Ds4 , v127
	.byte	W24
	.byte		        Bn1 , v100
	.byte		N24   , Gs3 
	.byte		N24   , Gs4 , v127
	.byte	W24
	.byte		        Gs1 , v100
	.byte		N24   , Ds3 
	.byte		N24   , Ds4 , v127
	.byte	W24
	.byte		EOT   , En1 
@ 075   ----------------------------------------
	.byte		TIE   , Fs1 , v100
	.byte		N48   , Fs3 
	.byte		N48   , Fs4 , v127
	.byte	W24
	.byte		N24   , Cs2 , v100
	.byte	W24
	.byte		        Fs2 
	.byte		N24   , Gs3 
	.byte		N24   , Gs4 , v127
	.byte	W24
	.byte		        As2 , v100
	.byte		N24   , Gs3 
	.byte		N24   , Gs4 , v127
	.byte	W24
@ 076   ----------------------------------------
	.byte		        Cs3 , v100
	.byte		N36   , Cs4 
	.byte		N36   , Gs4 
	.byte		N36   , Cs5 , v127
	.byte	W24
	.byte		N24   , Fs2 , v100
	.byte	W12
	.byte		N36   , As3 
	.byte		N36   , Fs4 
	.byte		N36   , As4 , v127
	.byte	W12
	.byte		N24   , Cs2 , v100
	.byte	W24
	.byte		        As1 
	.byte		N24   , Fs3 
	.byte		N24   , Cs4 
	.byte		N24   , Fs4 , v127
	.byte	W24
	.byte		EOT   , Fs1 
@ 077   ----------------------------------------
	.byte		TIE   , Cs2 , v100
	.byte		TIE   , Cs4 
	.byte		TIE   , Gs4 , v127
	.byte	W24
	.byte		N24   , Ds2 , v100
	.byte	W24
	.byte		        Gs2 
	.byte	W24
	.byte		        Cs3 
	.byte	W24
@ 078   ----------------------------------------
	.byte		        Gs3 
	.byte	W24
	.byte		        Gs2 
	.byte	W24
	.byte		        Ds2 
	.byte	W48
	.byte		EOT   , Cs2 
	.byte		        Cs4 
@ 079   ----------------------------------------
	.byte		TIE   , Bn1 
	.byte		TIE   , Bn3 , v127
	.byte	W24
	.byte		N24   , Ds2 , v100
	.byte	W24
	.byte		        Gs2 
	.byte	W24
	.byte		        Bn2 
	.byte	W24
	.byte		EOT   , Gs4 
@ 080   ----------------------------------------
	.byte		N24   , Ds3 
	.byte		N12   , Gs4 
	.byte	W12
	.byte		        Fs4 
	.byte	W12
	.byte		N24   , Bn2 
	.byte		N12   , Cs4 
	.byte	W12
	.byte		        Ds4 
	.byte	W12
	.byte		EOT   , Bn3 
	.byte		N24   , Gs2 
	.byte		N48   , Bn3 
	.byte	W12
	.byte		N12   , As3 
	.byte	W12
	.byte		N24   , Bn2 
	.byte		N12   , Fs3 
	.byte	W12
	.byte		        As3 
	.byte	W12
	.byte		EOT   , Bn1 
@ 081   ----------------------------------------
	.byte		TIE   , Gs1 , v108
	.byte	W24
	.byte		N24   , Ds2 
	.byte	W24
	.byte		        Gs2 
	.byte	W24
	.byte		        Bn2 
	.byte	W24
@ 082   ----------------------------------------
	.byte		        Ds3 
	.byte	W24
	.byte		        Gs2 
	.byte	W24
	.byte		        Ds2 
	.byte	W24
	.byte		        Bn1 
	.byte	W24
	.byte		EOT   , Gs1 
@ 083   ----------------------------------------
mus_thpprf_idolatrizeworld_2_083:
	.byte		TIE   , Gn1 , v100
	.byte	W24
	.byte		N24   , Dn2 
	.byte	W24
	.byte		        Gn2 
	.byte	W24
	.byte		        Bn2 
	.byte	W24
	.byte	PEND
@ 084   ----------------------------------------
mus_thpprf_idolatrizeworld_2_084:
	.byte		N24   , Dn3 , v100
	.byte	W24
	.byte		        Gn2 
	.byte	W24
	.byte		        Dn2 
	.byte	W24
	.byte		        Bn1 
	.byte	W24
	.byte	PEND
	.byte		EOT   , Gn1 
@ 085   ----------------------------------------
mus_thpprf_idolatrizeworld_2_085:
	.byte		TIE   , Fs1 , v108
	.byte	W24
	.byte		N24   , Ds2 
	.byte	W24
	.byte		        Fs2 
	.byte	W24
	.byte		        Bn2 
	.byte	W24
	.byte	PEND
@ 086   ----------------------------------------
mus_thpprf_idolatrizeworld_2_086:
	.byte		N24   , Ds3 , v108
	.byte	W24
	.byte		        Bn2 
	.byte	W24
	.byte		        Ds2 
	.byte	W24
	.byte		        Fs2 
	.byte	W24
	.byte	PEND
	.byte		EOT   , Fs1 
@ 087   ----------------------------------------
mus_thpprf_idolatrizeworld_2_087:
	.byte		TIE   , Fn1 , v100
	.byte	W24
	.byte		N24   , Cn2 
	.byte	W24
	.byte		        Fn2 
	.byte	W24
	.byte		        An2 
	.byte	W24
	.byte	PEND
@ 088   ----------------------------------------
mus_thpprf_idolatrizeworld_2_088:
	.byte		N24   , Cn3 , v100
	.byte	W24
	.byte		        Fn2 
	.byte	W24
	.byte		        Cn2 
	.byte	W24
	.byte		        An1 
	.byte	W24
	.byte	PEND
	.byte		EOT   , Fn1 
@ 089   ----------------------------------------
mus_thpprf_idolatrizeworld_2_089:
	.byte		TIE   , En1 , v100
	.byte	W24
	.byte		N24   , Bn1 
	.byte	W24
	.byte		        En2 
	.byte	W24
	.byte		        Gs2 
	.byte	W24
	.byte	PEND
@ 090   ----------------------------------------
mus_thpprf_idolatrizeworld_2_090:
	.byte		N24   , Bn2 , v100
	.byte	W24
	.byte		        En2 
	.byte	W24
	.byte		        Bn1 
	.byte	W24
	.byte		        Gs1 
	.byte	W24
	.byte	PEND
	.byte		EOT   , En1 
@ 091   ----------------------------------------
	.byte		TIE   , Ds1 
	.byte	W24
	.byte		N24   , As1 
	.byte	W24
	.byte		        Ds2 
	.byte	W24
	.byte		        Gn2 
	.byte	W24
@ 092   ----------------------------------------
	.byte		        As2 
	.byte	W24
	.byte		        Ds2 
	.byte	W24
	.byte		        As1 
	.byte	W24
	.byte		        Gn1 
	.byte	W24
	.byte		EOT   , Ds1 
@ 093   ----------------------------------------
	.byte		TIE   , Cs1 
	.byte	W24
	.byte		N24   , Gs1 
	.byte	W24
	.byte		        Cs2 
	.byte	W24
	.byte		        Fn2 
	.byte	W24
@ 094   ----------------------------------------
	.byte		        Gs2 
	.byte	W24
	.byte		        Cs2 
	.byte	W24
	.byte		        Gs1 
	.byte	W24
	.byte		        Fn1 
	.byte	W24
	.byte		EOT   , Cs1 
@ 095   ----------------------------------------
	.byte		N96   , Ds1 , v108
	.byte	W24
	.byte		N24   , As1 
	.byte	W24
	.byte		        Ds2 
	.byte	W24
	.byte		        Gn2 
	.byte	W24
@ 096   ----------------------------------------
	.byte		N96   , Gn1 
	.byte	W24
	.byte		N24   , As1 
	.byte	W24
	.byte		        Cs2 
	.byte	W24
	.byte		        Ds2 
	.byte	W24
@ 097   ----------------------------------------
	.byte		TIE   , Gs1 , v100
	.byte	W24
	.byte		N24   , Ds2 
	.byte	W24
	.byte		        Gs2 
	.byte	W24
	.byte		        Cn3 
	.byte	W24
@ 098   ----------------------------------------
	.byte		        Ds3 
	.byte	W24
	.byte		        Gs2 
	.byte	W24
	.byte		        Ds2 
	.byte	W24
	.byte		        Cn2 
	.byte	W24
	.byte		EOT   , Gs1 
@ 099   ----------------------------------------
	.byte	PATT
	 .word	mus_thpprf_idolatrizeworld_2_083
@ 100   ----------------------------------------
	.byte	PATT
	 .word	mus_thpprf_idolatrizeworld_2_084
	.byte		EOT   , Gn1 
@ 101   ----------------------------------------
	.byte	PATT
	 .word	mus_thpprf_idolatrizeworld_2_085
@ 102   ----------------------------------------
	.byte	PATT
	 .word	mus_thpprf_idolatrizeworld_2_086
	.byte		EOT   , Fs1 
@ 103   ----------------------------------------
	.byte	PATT
	 .word	mus_thpprf_idolatrizeworld_2_087
@ 104   ----------------------------------------
	.byte	PATT
	 .word	mus_thpprf_idolatrizeworld_2_088
	.byte		EOT   , Fn1 
@ 105   ----------------------------------------
	.byte	PATT
	 .word	mus_thpprf_idolatrizeworld_2_089
@ 106   ----------------------------------------
	.byte	PATT
	 .word	mus_thpprf_idolatrizeworld_2_090
	.byte		EOT   , En1 
@ 107   ----------------------------------------
	.byte		TIE   , Fs1 , v100
	.byte	W24
	.byte		N24   , Cs2 
	.byte	W24
	.byte		        Fs2 
	.byte	W24
	.byte		        As2 
	.byte	W24
@ 108   ----------------------------------------
	.byte		        Cs3 
	.byte	W24
	.byte		        Fs2 
	.byte	W24
	.byte		        Cs2 
	.byte	W24
	.byte		        As1 
	.byte	W24
	.byte		EOT   , Fs1 
@ 109   ----------------------------------------
	.byte		TIE   , Cs2 , v108
	.byte	W24
	.byte		N24   , Ds2 
	.byte	W24
	.byte		        Gs2 
	.byte	W24
	.byte		        Cs3 
	.byte	W24
@ 110   ----------------------------------------
	.byte		        Gs3 
	.byte	W24
	.byte		        Gs2 
	.byte	W24
	.byte		N48   , Ds2 
	.byte	W48
	.byte		EOT   , Cs2 
@ 111   ----------------------------------------
	.byte		TIE   , Cn2 
	.byte	W24
	.byte		N24   , Ds2 
	.byte	W24
	.byte		        Gs2 
	.byte	W24
	.byte		        Cn3 
	.byte	W24
@ 112   ----------------------------------------
	.byte		        Ds3 
	.byte	W24
	.byte		        Gs2 
	.byte	W24
	.byte		        Ds2 
	.byte	W24
	.byte		EOT   , Cn2 
	.byte		N24   , Ds2 
	.byte	W24
@ 113   ----------------------------------------
mus_thpprf_idolatrizeworld_2_113:
	.byte		N24   , Ds4 , v088
	.byte		N24   , Gs4 
	.byte	W48
	.byte		        Fs4 
	.byte		N24   , As4 
	.byte	W48
	.byte	PEND
@ 114   ----------------------------------------
mus_thpprf_idolatrizeworld_2_114:
	.byte		N24   , Gs4 , v088
	.byte		N24   , Bn4 
	.byte	W36
	.byte		        Fs4 
	.byte		N24   , As4 
	.byte	W36
	.byte		        Gs4 
	.byte		N24   , Bn4 
	.byte	W24
	.byte	PEND
@ 115   ----------------------------------------
mus_thpprf_idolatrizeworld_2_115:
	.byte	W12
	.byte		N24   , Ds4 , v088
	.byte		N24   , Gs4 
	.byte	W36
	.byte		        Ds4 
	.byte		N24   , Fs4 
	.byte	W24
	.byte		        Bn3 
	.byte		N24   , Ds4 
	.byte	W24
	.byte	PEND
@ 116   ----------------------------------------
	.byte		        Bn3 
	.byte		N24   , En4 
	.byte	W36
	.byte		        Bn3 
	.byte		N24   , En4 
	.byte	W36
	.byte		        Bn3 
	.byte		N24   , Fs4 
	.byte	W24
@ 117   ----------------------------------------
	.byte	PATT
	 .word	mus_thpprf_idolatrizeworld_2_113
@ 118   ----------------------------------------
	.byte	PATT
	 .word	mus_thpprf_idolatrizeworld_2_114
@ 119   ----------------------------------------
mus_thpprf_idolatrizeworld_2_119:
	.byte		N24   , Ds4 , v088
	.byte		N24   , Gs4 
	.byte	W36
	.byte		        Ds4 
	.byte		N24   , Fs4 
	.byte	W36
	.byte		        Bn3 
	.byte		N24   , Ds4 
	.byte	W24
	.byte	PEND
@ 120   ----------------------------------------
	.byte		        Bn3 
	.byte		N24   , En4 
	.byte	W24
	.byte		        Bn3 
	.byte		N24   , En4 
	.byte	W24
	.byte		        Bn3 
	.byte		N24   , Fs4 
	.byte	W24
	.byte		N12   , En4 
	.byte	W12
	.byte		        Fs4 
	.byte	W12
@ 121   ----------------------------------------
	.byte	PATT
	 .word	mus_thpprf_idolatrizeworld_2_113
@ 122   ----------------------------------------
	.byte	PATT
	 .word	mus_thpprf_idolatrizeworld_2_114
@ 123   ----------------------------------------
	.byte	PATT
	 .word	mus_thpprf_idolatrizeworld_2_115
@ 124   ----------------------------------------
mus_thpprf_idolatrizeworld_2_124:
	.byte		N24   , Bn3 , v088
	.byte		N24   , En4 
	.byte	W24
	.byte		        Bn3 
	.byte		N24   , En4 
	.byte	W24
	.byte		        Bn3 
	.byte		N24   , Fs4 
	.byte	W48
	.byte	PEND
@ 125   ----------------------------------------
	.byte	PATT
	 .word	mus_thpprf_idolatrizeworld_2_113
@ 126   ----------------------------------------
	.byte	PATT
	 .word	mus_thpprf_idolatrizeworld_2_114
@ 127   ----------------------------------------
	.byte	PATT
	 .word	mus_thpprf_idolatrizeworld_2_119
@ 128   ----------------------------------------
	.byte	PATT
	 .word	mus_thpprf_idolatrizeworld_2_124
@ 129   ----------------------------------------
mus_thpprf_idolatrizeworld_2_129:
	.byte		N24   , As3 , v108
	.byte		N24   , Dn4 
	.byte		N24   , Gn4 
	.byte	W48
	.byte		        Cn4 
	.byte		N24   , Fn4 
	.byte		N24   , An4 
	.byte	W48
	.byte	PEND
@ 130   ----------------------------------------
mus_thpprf_idolatrizeworld_2_130:
	.byte		N24   , Dn4 , v108
	.byte		N24   , Gn4 
	.byte		N24   , As4 
	.byte	W36
	.byte		        Cn4 
	.byte		N24   , Fn4 
	.byte		N24   , An4 
	.byte	W36
	.byte		        Dn4 
	.byte		N24   , Gn4 
	.byte		N24   , As4 
	.byte	W24
	.byte	PEND
@ 131   ----------------------------------------
mus_thpprf_idolatrizeworld_2_131:
	.byte	W12
	.byte		N24   , As3 , v108
	.byte		N24   , Dn4 
	.byte		N24   , Gn4 
	.byte	W36
	.byte		        As3 
	.byte		N24   , Dn4 
	.byte		N24   , Fn4 
	.byte	W24
	.byte		        Gn3 
	.byte		N24   , As3 
	.byte		N24   , Dn4 
	.byte	W24
	.byte	PEND
@ 132   ----------------------------------------
	.byte		        Gn3 
	.byte		N24   , As3 
	.byte		N24   , Ds4 
	.byte	W36
	.byte		        Gn3 
	.byte		N24   , As3 
	.byte		N24   , Ds4 
	.byte	W36
	.byte		        Gn3 
	.byte		N24   , As3 
	.byte		N24   , Fn4 
	.byte	W24
@ 133   ----------------------------------------
	.byte	PATT
	 .word	mus_thpprf_idolatrizeworld_2_129
@ 134   ----------------------------------------
	.byte	PATT
	 .word	mus_thpprf_idolatrizeworld_2_130
@ 135   ----------------------------------------
	.byte		N24   , As3 , v108
	.byte		N24   , Dn4 
	.byte		N24   , Gn4 
	.byte	W36
	.byte		        As3 
	.byte		N24   , Dn4 
	.byte		N24   , Fn4 
	.byte	W36
	.byte		        Gn3 
	.byte		N24   , As3 
	.byte		N24   , Dn4 
	.byte	W24
@ 136   ----------------------------------------
	.byte		        Gn3 
	.byte		N24   , As3 
	.byte		N24   , Ds4 
	.byte	W24
	.byte		        Gn3 
	.byte		N24   , As3 
	.byte		N24   , Ds4 
	.byte	W24
	.byte		        Gn3 
	.byte		N24   , As3 
	.byte		N24   , Fn4 
	.byte	W24
	.byte		N12   , Ds3 
	.byte		N12   , As3 
	.byte		N12   , Ds4 
	.byte	W12
	.byte		        Fn3 
	.byte		N12   , Ds4 
	.byte		N12   , Fn4 
	.byte	W12
@ 137   ----------------------------------------
	.byte	PATT
	 .word	mus_thpprf_idolatrizeworld_2_129
@ 138   ----------------------------------------
	.byte	PATT
	 .word	mus_thpprf_idolatrizeworld_2_130
@ 139   ----------------------------------------
	.byte	PATT
	 .word	mus_thpprf_idolatrizeworld_2_131
@ 140   ----------------------------------------
	.byte		N24   , Gn3 , v108
	.byte		N24   , As3 
	.byte		N24   , Ds4 
	.byte	W24
	.byte		        Gn3 
	.byte		N24   , As3 
	.byte		N24   , Ds4 
	.byte	W24
	.byte		        Gn3 
	.byte		N24   , As3 
	.byte		N24   , Fn4 
	.byte	W48
@ 141   ----------------------------------------
	.byte	PATT
	 .word	mus_thpprf_idolatrizeworld_2_129
@ 142   ----------------------------------------
	.byte	PATT
	 .word	mus_thpprf_idolatrizeworld_2_130
@ 143   ----------------------------------------
	.byte		N24   , Dn4 , v108
	.byte		N24   , Gn4 
	.byte	W36
	.byte		        As3 
	.byte		N24   , Dn4 
	.byte		N24   , Fn4 
	.byte	W36
	.byte		        Gn3 
	.byte		N24   , As3 
	.byte		N24   , Dn4 
	.byte	W24
@ 144   ----------------------------------------
	.byte		        Gn3 
	.byte		N24   , As3 
	.byte		N24   , Ds4 
	.byte	W24
	.byte		        Gn3 
	.byte		N24   , As3 
	.byte		N24   , Ds4 
	.byte	W24
	.byte		        Gn3 
	.byte		N24   , As3 
	.byte		N24   , Fn4 
	.byte	W24
	.byte		N24   
	.byte	W24
@ 145   ----------------------------------------
	.byte	W96
@ 146   ----------------------------------------
mus_thpprf_idolatrizeworld_2_146:
	.byte		TIE   , Ds1 , v108
	.byte	W24
	.byte		N24   , As1 
	.byte	W24
	.byte		        Ds2 
	.byte	W24
	.byte		        Gn2 
	.byte	W24
	.byte	PEND
@ 147   ----------------------------------------
mus_thpprf_idolatrizeworld_2_147:
	.byte		N24   , As2 , v108
	.byte	W24
	.byte		        Gn2 
	.byte	W24
	.byte		N36   , Ds2 
	.byte	W48
	.byte	PEND
	.byte		EOT   , Ds1 
@ 148   ----------------------------------------
mus_thpprf_idolatrizeworld_2_148:
	.byte		TIE   , Fn1 , v108
	.byte	W24
	.byte		N24   , Cn2 
	.byte	W24
	.byte		        Fn2 
	.byte	W24
	.byte		        An2 
	.byte	W24
	.byte	PEND
@ 149   ----------------------------------------
mus_thpprf_idolatrizeworld_2_149:
	.byte		N24   , Cn3 , v108
	.byte	W24
	.byte		        An2 
	.byte	W24
	.byte		N36   , Fn2 
	.byte	W48
	.byte	PEND
	.byte		EOT   , Fn1 
@ 150   ----------------------------------------
mus_thpprf_idolatrizeworld_2_150:
	.byte		TIE   , Dn1 , v108
	.byte	W24
	.byte		N24   , An1 
	.byte	W24
	.byte		        Dn2 
	.byte	W24
	.byte		        Fs2 
	.byte	W24
	.byte	PEND
@ 151   ----------------------------------------
mus_thpprf_idolatrizeworld_2_151:
	.byte		N24   , An2 , v108
	.byte	W24
	.byte		        Fs2 
	.byte	W24
	.byte		N36   , Dn2 
	.byte	W48
	.byte	PEND
	.byte		EOT   , Dn1 
@ 152   ----------------------------------------
mus_thpprf_idolatrizeworld_2_152:
	.byte		TIE   , Gn1 , v108
	.byte	W24
	.byte		N24   , Dn2 
	.byte	W24
	.byte		        Gn2 
	.byte	W24
	.byte		        As2 
	.byte	W24
	.byte	PEND
@ 153   ----------------------------------------
mus_thpprf_idolatrizeworld_2_153:
	.byte		N24   , Dn3 , v108
	.byte	W24
	.byte		        As2 
	.byte	W24
	.byte		N36   , Gn2 
	.byte	W48
	.byte	PEND
	.byte		EOT   , Gn1 
@ 154   ----------------------------------------
	.byte	PATT
	 .word	mus_thpprf_idolatrizeworld_2_146
@ 155   ----------------------------------------
	.byte	PATT
	 .word	mus_thpprf_idolatrizeworld_2_147
	.byte		EOT   , Ds1 
@ 156   ----------------------------------------
	.byte	PATT
	 .word	mus_thpprf_idolatrizeworld_2_148
@ 157   ----------------------------------------
	.byte	PATT
	 .word	mus_thpprf_idolatrizeworld_2_149
	.byte		EOT   , Fn1 
@ 158   ----------------------------------------
	.byte	PATT
	 .word	mus_thpprf_idolatrizeworld_2_150
@ 159   ----------------------------------------
	.byte	PATT
	 .word	mus_thpprf_idolatrizeworld_2_151
	.byte		EOT   , Dn1 
@ 160   ----------------------------------------
	.byte	PATT
	 .word	mus_thpprf_idolatrizeworld_2_152
@ 161   ----------------------------------------
	.byte	PATT
	 .word	mus_thpprf_idolatrizeworld_2_153
	.byte		EOT   , Gn1 
@ 162   ----------------------------------------
	.byte	PATT
	 .word	mus_thpprf_idolatrizeworld_2_146
@ 163   ----------------------------------------
	.byte	PATT
	 .word	mus_thpprf_idolatrizeworld_2_147
	.byte		EOT   , Ds1 
@ 164   ----------------------------------------
	.byte	PATT
	 .word	mus_thpprf_idolatrizeworld_2_148
@ 165   ----------------------------------------
	.byte	PATT
	 .word	mus_thpprf_idolatrizeworld_2_149
	.byte		EOT   , Fn1 
@ 166   ----------------------------------------
	.byte	PATT
	 .word	mus_thpprf_idolatrizeworld_2_150
@ 167   ----------------------------------------
	.byte	PATT
	 .word	mus_thpprf_idolatrizeworld_2_151
	.byte		EOT   , Dn1 
@ 168   ----------------------------------------
	.byte	PATT
	 .word	mus_thpprf_idolatrizeworld_2_152
@ 169   ----------------------------------------
	.byte	PATT
	 .word	mus_thpprf_idolatrizeworld_2_153
	.byte		EOT   , Gn1 
@ 170   ----------------------------------------
	.byte	PATT
	 .word	mus_thpprf_idolatrizeworld_2_146
@ 171   ----------------------------------------
	.byte	PATT
	 .word	mus_thpprf_idolatrizeworld_2_147
	.byte		EOT   , Ds1 
@ 172   ----------------------------------------
	.byte	PATT
	 .word	mus_thpprf_idolatrizeworld_2_148
@ 173   ----------------------------------------
	.byte	PATT
	 .word	mus_thpprf_idolatrizeworld_2_149
	.byte		EOT   , Fn1 
@ 174   ----------------------------------------
mus_thpprf_idolatrizeworld_2_174:
	.byte		TIE   , Cn2 , v108
	.byte	W24
	.byte		N24   , Dn2 
	.byte	W24
	.byte		N36   , Gn2 
	.byte	W48
	.byte	PEND
@ 175   ----------------------------------------
mus_thpprf_idolatrizeworld_2_175:
	.byte		N24   , Gn3 , v108
	.byte	W24
	.byte		        Gn2 
	.byte	W24
	.byte		N36   , Dn2 
	.byte	W48
	.byte	PEND
	.byte		EOT   , Cn2 
@ 176   ----------------------------------------
mus_thpprf_idolatrizeworld_2_176:
	.byte		TIE   , Bn1 , v108
	.byte	W24
	.byte		N24   , Dn2 
	.byte	W24
	.byte		N36   , Gn2 
	.byte	W48
	.byte	PEND
@ 177   ----------------------------------------
	.byte	PATT
	 .word	mus_thpprf_idolatrizeworld_2_175
	.byte		EOT   , Bn1 
@ 178   ----------------------------------------
	.byte	PATT
	 .word	mus_thpprf_idolatrizeworld_2_152
@ 179   ----------------------------------------
mus_thpprf_idolatrizeworld_2_179:
	.byte		N24   , Dn3 , v108
	.byte	W24
	.byte		        Gn2 
	.byte	W24
	.byte		        Dn2 
	.byte	W24
	.byte		        As1 
	.byte	W24
	.byte	PEND
	.byte		EOT   , Gn1 
@ 180   ----------------------------------------
mus_thpprf_idolatrizeworld_2_180:
	.byte		TIE   , Fs1 , v108
	.byte	W24
	.byte		N24   , Cs2 
	.byte	W24
	.byte		        Fs2 
	.byte	W24
	.byte		        An2 
	.byte	W24
	.byte	PEND
@ 181   ----------------------------------------
mus_thpprf_idolatrizeworld_2_181:
	.byte		N24   , Cs3 , v108
	.byte	W24
	.byte		        Fs2 
	.byte	W24
	.byte		        Cs2 
	.byte	W24
	.byte		        An1 
	.byte	W24
	.byte	PEND
	.byte		EOT   , Fs1 
@ 182   ----------------------------------------
mus_thpprf_idolatrizeworld_2_182:
	.byte		TIE   , Fn1 , v108
	.byte	W24
	.byte		N24   , Dn2 
	.byte	W24
	.byte		        Fn2 
	.byte	W24
	.byte		        As2 
	.byte	W24
	.byte	PEND
@ 183   ----------------------------------------
mus_thpprf_idolatrizeworld_2_183:
	.byte		N24   , Dn3 , v108
	.byte	W24
	.byte		        As2 
	.byte	W24
	.byte		        Dn2 
	.byte	W24
	.byte		        Fn2 
	.byte	W24
	.byte	PEND
	.byte		EOT   , Fn1 
@ 184   ----------------------------------------
mus_thpprf_idolatrizeworld_2_184:
	.byte		TIE   , En1 , v108
	.byte	W24
	.byte		N24   , Bn1 
	.byte	W24
	.byte		        En2 
	.byte	W24
	.byte		        Gn2 
	.byte	W24
	.byte	PEND
@ 185   ----------------------------------------
mus_thpprf_idolatrizeworld_2_185:
	.byte		N24   , Bn2 , v108
	.byte	W24
	.byte		        En2 
	.byte	W24
	.byte		        Bn1 
	.byte	W24
	.byte		        Gn1 
	.byte	W24
	.byte	PEND
	.byte		EOT   , En1 
@ 186   ----------------------------------------
mus_thpprf_idolatrizeworld_2_186:
	.byte		TIE   , Ds1 , v108
	.byte	W24
	.byte		N24   , As1 
	.byte	W24
	.byte		        Ds2 
	.byte	W24
	.byte		        Fs2 
	.byte	W24
	.byte	PEND
@ 187   ----------------------------------------
mus_thpprf_idolatrizeworld_2_187:
	.byte		N24   , As2 , v108
	.byte	W24
	.byte		        Ds2 
	.byte	W24
	.byte		        As1 
	.byte	W24
	.byte		        Fs1 
	.byte	W24
	.byte	PEND
	.byte		EOT   , Ds1 
@ 188   ----------------------------------------
	.byte		TIE   , Dn1 
	.byte	W24
	.byte		N24   , An1 
	.byte	W24
	.byte		        Dn2 
	.byte	W24
	.byte		        Fn2 
	.byte	W24
@ 189   ----------------------------------------
	.byte		        An2 
	.byte	W24
	.byte		        Dn2 
	.byte	W24
	.byte		        An1 
	.byte	W24
	.byte		        Fn1 
	.byte	W24
	.byte		EOT   , Dn1 
@ 190   ----------------------------------------
	.byte		TIE   , Cn1 
	.byte	W24
	.byte		N24   , Gn1 
	.byte	W24
	.byte		        Cn2 
	.byte	W24
	.byte		        Ds2 
	.byte	W24
@ 191   ----------------------------------------
	.byte		        Gn2 
	.byte	W24
	.byte		        Cn2 
	.byte	W24
	.byte		        Gn1 
	.byte	W24
	.byte		        Ds1 
	.byte	W24
	.byte		EOT   , Cn1 
@ 192   ----------------------------------------
	.byte		N96   , Dn1 
	.byte	W24
	.byte		N24   , An1 
	.byte	W24
	.byte		        Dn2 
	.byte	W24
	.byte		        Fs2 
	.byte	W24
@ 193   ----------------------------------------
	.byte		N96   , Fs1 
	.byte	W24
	.byte		N24   , An1 
	.byte	W24
	.byte		        Cn2 
	.byte	W24
	.byte		        Dn2 
	.byte	W24
@ 194   ----------------------------------------
	.byte	PATT
	 .word	mus_thpprf_idolatrizeworld_2_152
@ 195   ----------------------------------------
	.byte	PATT
	 .word	mus_thpprf_idolatrizeworld_2_179
	.byte		EOT   , Gn1 
@ 196   ----------------------------------------
	.byte	PATT
	 .word	mus_thpprf_idolatrizeworld_2_180
@ 197   ----------------------------------------
	.byte	PATT
	 .word	mus_thpprf_idolatrizeworld_2_181
	.byte		EOT   , Fs1 
@ 198   ----------------------------------------
	.byte	PATT
	 .word	mus_thpprf_idolatrizeworld_2_182
@ 199   ----------------------------------------
	.byte	PATT
	 .word	mus_thpprf_idolatrizeworld_2_183
	.byte		EOT   , Fn1 
@ 200   ----------------------------------------
	.byte	PATT
	 .word	mus_thpprf_idolatrizeworld_2_184
@ 201   ----------------------------------------
	.byte	PATT
	 .word	mus_thpprf_idolatrizeworld_2_185
	.byte		EOT   , En1 
@ 202   ----------------------------------------
	.byte	PATT
	 .word	mus_thpprf_idolatrizeworld_2_186
@ 203   ----------------------------------------
	.byte	PATT
	 .word	mus_thpprf_idolatrizeworld_2_187
	.byte		EOT   , Ds1 
@ 204   ----------------------------------------
	.byte		TIE   , Fn1 , v108
	.byte	W24
	.byte		N24   , Cn2 
	.byte	W24
	.byte		        Fn2 
	.byte	W24
	.byte		        Gs2 
	.byte	W24
@ 205   ----------------------------------------
	.byte		        Cn3 
	.byte	W24
	.byte		        Fn2 
	.byte	W24
	.byte		        Cn2 
	.byte	W24
	.byte		        Gs1 
	.byte	W24
	.byte		EOT   , Fn1 
@ 206   ----------------------------------------
	.byte		TIE   , Cn2 
	.byte	W24
	.byte		N24   , Dn2 
	.byte	W24
	.byte		        Gn2 
	.byte	W24
	.byte		        Cn3 
	.byte	W24
@ 207   ----------------------------------------
	.byte		        Gn3 
	.byte	W24
	.byte		        Gn2 
	.byte	W24
	.byte		        Dn2 
	.byte	W48
	.byte		EOT   , Cn2 
@ 208   ----------------------------------------
	.byte		TIE   , Bn1 
	.byte	W24
	.byte		N24   , Dn2 
	.byte	W24
	.byte		        Gn2 
	.byte	W24
	.byte		        Bn2 
	.byte	W24
@ 209   ----------------------------------------
	.byte		        Dn3 
	.byte		N12   , Gn4 
	.byte	W12
	.byte		        Fn4 
	.byte	W12
	.byte		N24   , Bn2 
	.byte		N12   , Cn4 
	.byte	W12
	.byte		        Dn4 
	.byte	W12
	.byte		N24   , Gn2 
	.byte		N12   , An3 
	.byte	W12
	.byte		        Gs3 
	.byte	W12
	.byte		N24   , Bn2 
	.byte		N12   , Gn3 
	.byte	W12
	.byte		        Fs3 
	.byte	W12
	.byte		EOT   , Bn1 
@ 210   ----------------------------------------
	.byte	PATT
	 .word	mus_thpprf_idolatrizeworld_2_146
@ 211   ----------------------------------------
	.byte	PATT
	 .word	mus_thpprf_idolatrizeworld_2_147
	.byte		EOT   , Ds1 
@ 212   ----------------------------------------
	.byte	PATT
	 .word	mus_thpprf_idolatrizeworld_2_148
@ 213   ----------------------------------------
	.byte	PATT
	 .word	mus_thpprf_idolatrizeworld_2_149
	.byte		EOT   , Fn1 
@ 214   ----------------------------------------
	.byte	PATT
	 .word	mus_thpprf_idolatrizeworld_2_150
@ 215   ----------------------------------------
	.byte	PATT
	 .word	mus_thpprf_idolatrizeworld_2_151
	.byte		EOT   , Dn1 
@ 216   ----------------------------------------
	.byte	PATT
	 .word	mus_thpprf_idolatrizeworld_2_152
@ 217   ----------------------------------------
	.byte	PATT
	 .word	mus_thpprf_idolatrizeworld_2_153
	.byte		EOT   , Gn1 
@ 218   ----------------------------------------
	.byte	PATT
	 .word	mus_thpprf_idolatrizeworld_2_146
@ 219   ----------------------------------------
	.byte	PATT
	 .word	mus_thpprf_idolatrizeworld_2_147
	.byte		EOT   , Ds1 
@ 220   ----------------------------------------
	.byte	PATT
	 .word	mus_thpprf_idolatrizeworld_2_148
@ 221   ----------------------------------------
	.byte	PATT
	 .word	mus_thpprf_idolatrizeworld_2_149
	.byte		EOT   , Fn1 
@ 222   ----------------------------------------
	.byte	PATT
	 .word	mus_thpprf_idolatrizeworld_2_150
@ 223   ----------------------------------------
	.byte	PATT
	 .word	mus_thpprf_idolatrizeworld_2_151
	.byte		EOT   , Dn1 
@ 224   ----------------------------------------
	.byte	PATT
	 .word	mus_thpprf_idolatrizeworld_2_152
@ 225   ----------------------------------------
	.byte	PATT
	 .word	mus_thpprf_idolatrizeworld_2_153
	.byte		EOT   , Gn1 
@ 226   ----------------------------------------
	.byte	PATT
	 .word	mus_thpprf_idolatrizeworld_2_146
@ 227   ----------------------------------------
	.byte	PATT
	 .word	mus_thpprf_idolatrizeworld_2_147
	.byte		EOT   , Ds1 
@ 228   ----------------------------------------
	.byte	PATT
	 .word	mus_thpprf_idolatrizeworld_2_148
@ 229   ----------------------------------------
	.byte	PATT
	 .word	mus_thpprf_idolatrizeworld_2_149
	.byte		EOT   , Fn1 
@ 230   ----------------------------------------
	.byte	PATT
	 .word	mus_thpprf_idolatrizeworld_2_150
@ 231   ----------------------------------------
	.byte	PATT
	 .word	mus_thpprf_idolatrizeworld_2_151
	.byte		EOT   , Dn1 
@ 232   ----------------------------------------
	.byte	PATT
	 .word	mus_thpprf_idolatrizeworld_2_152
@ 233   ----------------------------------------
	.byte	PATT
	 .word	mus_thpprf_idolatrizeworld_2_153
	.byte		EOT   , Gn1 
@ 234   ----------------------------------------
	.byte	PATT
	 .word	mus_thpprf_idolatrizeworld_2_146
@ 235   ----------------------------------------
	.byte	PATT
	 .word	mus_thpprf_idolatrizeworld_2_147
	.byte		EOT   , Ds1 
@ 236   ----------------------------------------
	.byte	PATT
	 .word	mus_thpprf_idolatrizeworld_2_148
@ 237   ----------------------------------------
	.byte	PATT
	 .word	mus_thpprf_idolatrizeworld_2_149
	.byte		EOT   , Fn1 
@ 238   ----------------------------------------
	.byte	PATT
	 .word	mus_thpprf_idolatrizeworld_2_174
@ 239   ----------------------------------------
	.byte	PATT
	 .word	mus_thpprf_idolatrizeworld_2_175
	.byte		EOT   , Cn2 
@ 240   ----------------------------------------
	.byte	PATT
	 .word	mus_thpprf_idolatrizeworld_2_176
@ 241   ----------------------------------------
	.byte	PATT
	 .word	mus_thpprf_idolatrizeworld_2_175
	.byte		EOT   , Bn1 
@ 242   ----------------------------------------
mus_thpprf_idolatrizeworld_2_242:
	.byte		N18   , Ds3 , v072
	.byte		N18   , Gs3 
	.byte	W24
	.byte		N18   
	.byte		N18   , Cs4 
	.byte	W24
	.byte		        Bn3 
	.byte		N18   , Ds4 
	.byte	W24
	.byte		        Cs4 
	.byte		N18   , Fs4 
	.byte	W24
	.byte	PEND
@ 243   ----------------------------------------
mus_thpprf_idolatrizeworld_2_243:
	.byte		N18   , Bn3 , v072
	.byte		N18   , Ds4 
	.byte	W24
	.byte		        Gs3 
	.byte		N18   , Cs4 
	.byte	W24
	.byte		        Ds3 
	.byte		N18   , Gs3 
	.byte	W24
	.byte		N18   
	.byte		N18   , Cs4 
	.byte	W24
	.byte	PEND
@ 244   ----------------------------------------
mus_thpprf_idolatrizeworld_2_244:
	.byte		N18   , Bn3 , v072
	.byte		N18   , Ds4 
	.byte	W24
	.byte		        Cs4 
	.byte		N18   , Fs4 
	.byte	W24
	.byte		        Bn3 
	.byte		N18   , Ds4 
	.byte	W24
	.byte		        Gs3 
	.byte		N18   , Cs4 
	.byte	W24
	.byte	PEND
@ 245   ----------------------------------------
mus_thpprf_idolatrizeworld_2_245:
	.byte		N18   , Fs3 , v072
	.byte		N18   , As3 
	.byte	W24
	.byte		        Gs3 
	.byte		N18   , Bn3 
	.byte	W24
	.byte		        Fs3 
	.byte		N18   , As3 
	.byte	W24
	.byte		        Cs3 
	.byte		N18   , Fs3 
	.byte	W24
	.byte	PEND
@ 246   ----------------------------------------
	.byte	PATT
	 .word	mus_thpprf_idolatrizeworld_2_242
@ 247   ----------------------------------------
	.byte	PATT
	 .word	mus_thpprf_idolatrizeworld_2_243
@ 248   ----------------------------------------
	.byte	PATT
	 .word	mus_thpprf_idolatrizeworld_2_244
@ 249   ----------------------------------------
	.byte	PATT
	 .word	mus_thpprf_idolatrizeworld_2_245
@ 250   ----------------------------------------
	.byte	PATT
	 .word	mus_thpprf_idolatrizeworld_2_242
@ 251   ----------------------------------------
	.byte	PATT
	 .word	mus_thpprf_idolatrizeworld_2_243
@ 252   ----------------------------------------
	.byte	PATT
	 .word	mus_thpprf_idolatrizeworld_2_244
@ 253   ----------------------------------------
	.byte	PATT
	 .word	mus_thpprf_idolatrizeworld_2_245
@ 254   ----------------------------------------
	.byte	PATT
	 .word	mus_thpprf_idolatrizeworld_2_242
@ 255   ----------------------------------------
	.byte	PATT
	 .word	mus_thpprf_idolatrizeworld_2_243
@ 256   ----------------------------------------
	.byte	PATT
	 .word	mus_thpprf_idolatrizeworld_2_244
@ 257   ----------------------------------------
	.byte	PATT
	 .word	mus_thpprf_idolatrizeworld_2_245
@ 258   ----------------------------------------
	.byte	PATT
	 .word	mus_thpprf_idolatrizeworld_2_242
@ 259   ----------------------------------------
	.byte	PATT
	 .word	mus_thpprf_idolatrizeworld_2_243
@ 260   ----------------------------------------
	.byte	PATT
	 .word	mus_thpprf_idolatrizeworld_2_244
@ 261   ----------------------------------------
	.byte	PATT
	 .word	mus_thpprf_idolatrizeworld_2_245
@ 262   ----------------------------------------
	.byte	PATT
	 .word	mus_thpprf_idolatrizeworld_2_242
@ 263   ----------------------------------------
	.byte	PATT
	 .word	mus_thpprf_idolatrizeworld_2_243
@ 264   ----------------------------------------
	.byte	PATT
	 .word	mus_thpprf_idolatrizeworld_2_244
@ 265   ----------------------------------------
	.byte	PATT
	 .word	mus_thpprf_idolatrizeworld_2_245
@ 266   ----------------------------------------
	.byte	PATT
	 .word	mus_thpprf_idolatrizeworld_2_242
@ 267   ----------------------------------------
	.byte	PATT
	 .word	mus_thpprf_idolatrizeworld_2_243
@ 268   ----------------------------------------
	.byte	PATT
	 .word	mus_thpprf_idolatrizeworld_2_244
@ 269   ----------------------------------------
	.byte	PATT
	 .word	mus_thpprf_idolatrizeworld_2_245
@ 270   ----------------------------------------
	.byte	PATT
	 .word	mus_thpprf_idolatrizeworld_2_242
@ 271   ----------------------------------------
	.byte	PATT
	 .word	mus_thpprf_idolatrizeworld_2_243
@ 272   ----------------------------------------
	.byte	PATT
	 .word	mus_thpprf_idolatrizeworld_2_244
@ 273   ----------------------------------------
	.byte		N18   , Fs3 , v080
	.byte		N18   , As3 
	.byte	W24
	.byte		        Gs3 
	.byte		N18   , Bn3 
	.byte	W24
	.byte		        Fs3 
	.byte		N18   , As3 
	.byte	W24
	.byte		        Cs3 
	.byte		N18   , Fs3 
	.byte	W24
@ 274   ----------------------------------------
mus_thpprf_idolatrizeworld_2_274:
	.byte		N24   , Fn3 , v088
	.byte		N24   , As3 
	.byte	W24
	.byte		N24   
	.byte		N24   , Ds4 
	.byte	W24
	.byte		        Cs4 
	.byte		N24   , Fn4 
	.byte	W24
	.byte		        Ds4 
	.byte		N24   , Gs4 
	.byte	W24
	.byte	PEND
@ 275   ----------------------------------------
mus_thpprf_idolatrizeworld_2_275:
	.byte		N24   , Cs4 , v088
	.byte		N24   , Fn4 
	.byte	W24
	.byte		        As3 
	.byte		N24   , Ds4 
	.byte	W24
	.byte		        Fn3 
	.byte		N24   , As3 
	.byte	W24
	.byte		N24   
	.byte		N24   , Ds4 
	.byte	W24
	.byte	PEND
@ 276   ----------------------------------------
mus_thpprf_idolatrizeworld_2_276:
	.byte		N24   , Cs4 , v088
	.byte		N24   , Fn4 
	.byte	W24
	.byte		        Ds4 
	.byte		N24   , Gs4 
	.byte	W24
	.byte		        Cs4 
	.byte		N24   , Fn4 
	.byte	W24
	.byte		        As3 
	.byte		N24   , Ds4 
	.byte	W24
	.byte	PEND
@ 277   ----------------------------------------
mus_thpprf_idolatrizeworld_2_277:
	.byte		N24   , Gs3 , v088
	.byte		N24   , Cn4 
	.byte	W24
	.byte		        As3 
	.byte		N24   , Cs4 
	.byte	W24
	.byte		        Gs3 
	.byte		N24   , Cn4 
	.byte	W24
	.byte		        Ds3 
	.byte		N24   , Gs3 
	.byte	W24
	.byte	PEND
@ 278   ----------------------------------------
	.byte	PATT
	 .word	mus_thpprf_idolatrizeworld_2_274
@ 279   ----------------------------------------
	.byte	PATT
	 .word	mus_thpprf_idolatrizeworld_2_275
@ 280   ----------------------------------------
	.byte	PATT
	 .word	mus_thpprf_idolatrizeworld_2_276
@ 281   ----------------------------------------
	.byte	PATT
	 .word	mus_thpprf_idolatrizeworld_2_277
@ 282   ----------------------------------------
	.byte	PATT
	 .word	mus_thpprf_idolatrizeworld_2_274
@ 283   ----------------------------------------
	.byte	PATT
	 .word	mus_thpprf_idolatrizeworld_2_275
@ 284   ----------------------------------------
	.byte	PATT
	 .word	mus_thpprf_idolatrizeworld_2_276
@ 285   ----------------------------------------
	.byte	PATT
	 .word	mus_thpprf_idolatrizeworld_2_277
@ 286   ----------------------------------------
	.byte	PATT
	 .word	mus_thpprf_idolatrizeworld_2_274
@ 287   ----------------------------------------
	.byte	PATT
	 .word	mus_thpprf_idolatrizeworld_2_275
@ 288   ----------------------------------------
	.byte	PATT
	 .word	mus_thpprf_idolatrizeworld_2_276
@ 289   ----------------------------------------
	.byte	PATT
	 .word	mus_thpprf_idolatrizeworld_2_277
@ 290   ----------------------------------------
	.byte	PATT
	 .word	mus_thpprf_idolatrizeworld_2_001
@ 291   ----------------------------------------
	.byte	PATT
	 .word	mus_thpprf_idolatrizeworld_2_002
@ 292   ----------------------------------------
	.byte	PATT
	 .word	mus_thpprf_idolatrizeworld_2_003
@ 293   ----------------------------------------
	.byte	PATT
	 .word	mus_thpprf_idolatrizeworld_2_001
@ 294   ----------------------------------------
	.byte	PATT
	 .word	mus_thpprf_idolatrizeworld_2_001
@ 295   ----------------------------------------
	.byte	PATT
	 .word	mus_thpprf_idolatrizeworld_2_002
@ 296   ----------------------------------------
	.byte	PATT
	 .word	mus_thpprf_idolatrizeworld_2_003
@ 297   ----------------------------------------
	.byte	PATT
	 .word	mus_thpprf_idolatrizeworld_2_001
@ 298   ----------------------------------------
	.byte	PATT
	 .word	mus_thpprf_idolatrizeworld_2_001
@ 299   ----------------------------------------
	.byte	PATT
	 .word	mus_thpprf_idolatrizeworld_2_002
@ 300   ----------------------------------------
	.byte	PATT
	 .word	mus_thpprf_idolatrizeworld_2_003
@ 301   ----------------------------------------
	.byte	PATT
	 .word	mus_thpprf_idolatrizeworld_2_001
@ 302   ----------------------------------------
	.byte	PATT
	 .word	mus_thpprf_idolatrizeworld_2_001
@ 303   ----------------------------------------
	.byte	PATT
	 .word	mus_thpprf_idolatrizeworld_2_002
@ 304   ----------------------------------------
	.byte	PATT
	 .word	mus_thpprf_idolatrizeworld_2_003
@ 305   ----------------------------------------
	.byte	PATT
	 .word	mus_thpprf_idolatrizeworld_2_001
@ 306   ----------------------------------------
	.byte	PATT
	 .word	mus_thpprf_idolatrizeworld_2_001
@ 307   ----------------------------------------
	.byte	PATT
	 .word	mus_thpprf_idolatrizeworld_2_002
@ 308   ----------------------------------------
	.byte	PATT
	 .word	mus_thpprf_idolatrizeworld_2_003
@ 309   ----------------------------------------
	.byte	PATT
	 .word	mus_thpprf_idolatrizeworld_2_001
@ 310   ----------------------------------------
	.byte	PATT
	 .word	mus_thpprf_idolatrizeworld_2_001
@ 311   ----------------------------------------
	.byte	PATT
	 .word	mus_thpprf_idolatrizeworld_2_002
@ 312   ----------------------------------------
	.byte	PATT
	 .word	mus_thpprf_idolatrizeworld_2_003
@ 313   ----------------------------------------
	.byte	PATT
	 .word	mus_thpprf_idolatrizeworld_2_001
@ 314   ----------------------------------------
	.byte	PATT
	 .word	mus_thpprf_idolatrizeworld_2_001
@ 315   ----------------------------------------
	.byte	PATT
	 .word	mus_thpprf_idolatrizeworld_2_002
@ 316   ----------------------------------------
	.byte	PATT
	 .word	mus_thpprf_idolatrizeworld_2_003
@ 317   ----------------------------------------
	.byte	PATT
	 .word	mus_thpprf_idolatrizeworld_2_001
@ 318   ----------------------------------------
	.byte	PATT
	 .word	mus_thpprf_idolatrizeworld_2_001
@ 319   ----------------------------------------
	.byte	PATT
	 .word	mus_thpprf_idolatrizeworld_2_002
@ 320   ----------------------------------------
	.byte	PATT
	 .word	mus_thpprf_idolatrizeworld_2_003
@ 321   ----------------------------------------
	.byte	PATT
	 .word	mus_thpprf_idolatrizeworld_2_001
@ 322   ----------------------------------------
	.byte	PATT
	 .word	mus_thpprf_idolatrizeworld_2_033
@ 323   ----------------------------------------
	.byte	PATT
	 .word	mus_thpprf_idolatrizeworld_2_034
@ 324   ----------------------------------------
	.byte	PATT
	 .word	mus_thpprf_idolatrizeworld_2_035
@ 325   ----------------------------------------
	.byte	PATT
	 .word	mus_thpprf_idolatrizeworld_2_036
@ 326   ----------------------------------------
	.byte	PATT
	 .word	mus_thpprf_idolatrizeworld_2_033
@ 327   ----------------------------------------
	.byte	PATT
	 .word	mus_thpprf_idolatrizeworld_2_034
@ 328   ----------------------------------------
	.byte	PATT
	 .word	mus_thpprf_idolatrizeworld_2_035
@ 329   ----------------------------------------
	.byte	PATT
	 .word	mus_thpprf_idolatrizeworld_2_040
@ 330   ----------------------------------------
	.byte	PATT
	 .word	mus_thpprf_idolatrizeworld_2_033
@ 331   ----------------------------------------
	.byte	PATT
	 .word	mus_thpprf_idolatrizeworld_2_034
@ 332   ----------------------------------------
	.byte	PATT
	 .word	mus_thpprf_idolatrizeworld_2_035
@ 333   ----------------------------------------
	.byte	PATT
	 .word	mus_thpprf_idolatrizeworld_2_036
@ 334   ----------------------------------------
	.byte	PATT
	 .word	mus_thpprf_idolatrizeworld_2_033
@ 335   ----------------------------------------
	.byte	PATT
	 .word	mus_thpprf_idolatrizeworld_2_034
@ 336   ----------------------------------------
	.byte	PATT
	 .word	mus_thpprf_idolatrizeworld_2_035
@ 337   ----------------------------------------
	.byte	PATT
	 .word	mus_thpprf_idolatrizeworld_2_040
@ 338   ----------------------------------------
	.byte	GOTO
	.word	mus_thpprf_idolatrizeworld_2_049
	.byte	FINE

@**************** Track 3 (Midi-Chn.3) ****************@

mus_thpprf_idolatrizeworld_3:
	.byte	KEYSH , mus_thpprf_idolatrizeworld_key+0
@ 000   ----------------------------------------
	.byte	W28
	.byte		VOICE , 8
	.byte		PAN   , c_v+0
	.byte		VOL   , 68*mus_thpprf_idolatrizeworld_mvl/mxv
	.byte	W02
	.byte		MOD   , 0
	.byte	W66
@ 001   ----------------------------------------
	.byte	W96
@ 002   ----------------------------------------
	.byte	W96
@ 003   ----------------------------------------
	.byte	W96
@ 004   ----------------------------------------
	.byte	W96
@ 005   ----------------------------------------
	.byte	W96
@ 006   ----------------------------------------
	.byte	W96
@ 007   ----------------------------------------
	.byte	W96
@ 008   ----------------------------------------
	.byte	W96
@ 009   ----------------------------------------
	.byte	W96
@ 010   ----------------------------------------
	.byte	W96
@ 011   ----------------------------------------
	.byte	W96
@ 012   ----------------------------------------
	.byte	W96
@ 013   ----------------------------------------
	.byte	W96
@ 014   ----------------------------------------
	.byte	W96
@ 015   ----------------------------------------
	.byte	W96
@ 016   ----------------------------------------
	.byte	W96
@ 017   ----------------------------------------
	.byte	W96
@ 018   ----------------------------------------
	.byte	W96
@ 019   ----------------------------------------
	.byte	W96
@ 020   ----------------------------------------
	.byte	W96
@ 021   ----------------------------------------
	.byte	W96
@ 022   ----------------------------------------
	.byte	W96
@ 023   ----------------------------------------
	.byte	W96
@ 024   ----------------------------------------
	.byte	W96
@ 025   ----------------------------------------
	.byte	W96
@ 026   ----------------------------------------
	.byte	W96
@ 027   ----------------------------------------
	.byte	W96
@ 028   ----------------------------------------
	.byte	W96
@ 029   ----------------------------------------
	.byte	W96
@ 030   ----------------------------------------
	.byte	W96
@ 031   ----------------------------------------
	.byte	W96
@ 032   ----------------------------------------
	.byte	W96
@ 033   ----------------------------------------
	.byte	W96
@ 034   ----------------------------------------
	.byte	W96
@ 035   ----------------------------------------
	.byte	W96
@ 036   ----------------------------------------
	.byte	W96
@ 037   ----------------------------------------
	.byte	W96
@ 038   ----------------------------------------
	.byte	W96
@ 039   ----------------------------------------
	.byte	W96
@ 040   ----------------------------------------
	.byte	W96
@ 041   ----------------------------------------
	.byte	W96
@ 042   ----------------------------------------
	.byte	W96
@ 043   ----------------------------------------
	.byte	W96
@ 044   ----------------------------------------
	.byte	W96
@ 045   ----------------------------------------
	.byte	W96
@ 046   ----------------------------------------
	.byte	W96
@ 047   ----------------------------------------
	.byte	W96
@ 048   ----------------------------------------
	.byte	W96
@ 049   ----------------------------------------
mus_thpprf_idolatrizeworld_3_049:
	.byte	W96
@ 050   ----------------------------------------
	.byte	W96
@ 051   ----------------------------------------
	.byte	W96
@ 052   ----------------------------------------
	.byte	W96
@ 053   ----------------------------------------
	.byte	W96
@ 054   ----------------------------------------
	.byte	W96
@ 055   ----------------------------------------
	.byte	W96
@ 056   ----------------------------------------
	.byte	W96
@ 057   ----------------------------------------
	.byte	W96
@ 058   ----------------------------------------
	.byte	W96
@ 059   ----------------------------------------
	.byte	W96
@ 060   ----------------------------------------
	.byte	W96
@ 061   ----------------------------------------
	.byte	W96
@ 062   ----------------------------------------
	.byte	W96
@ 063   ----------------------------------------
	.byte	W96
@ 064   ----------------------------------------
	.byte	W96
@ 065   ----------------------------------------
	.byte	W96
@ 066   ----------------------------------------
	.byte	W96
@ 067   ----------------------------------------
	.byte	W96
@ 068   ----------------------------------------
	.byte	W96
@ 069   ----------------------------------------
	.byte	W96
@ 070   ----------------------------------------
	.byte	W96
@ 071   ----------------------------------------
	.byte	W96
@ 072   ----------------------------------------
	.byte	W96
@ 073   ----------------------------------------
	.byte	W96
@ 074   ----------------------------------------
	.byte	W96
@ 075   ----------------------------------------
	.byte	W96
@ 076   ----------------------------------------
	.byte	W96
@ 077   ----------------------------------------
	.byte	W96
@ 078   ----------------------------------------
	.byte	W96
@ 079   ----------------------------------------
	.byte	W96
@ 080   ----------------------------------------
	.byte	W96
@ 081   ----------------------------------------
	.byte		N96   , Gs1 , v088
	.byte		N96   , Gs2 , v116
	.byte		N96   , Ds3 , v068
	.byte	W96
@ 082   ----------------------------------------
	.byte		N30   , Ds2 , v088
	.byte		N30   , Ds3 , v116
	.byte		N30   , Gs3 , v068
	.byte	W36
	.byte		        Cs2 , v088
	.byte		N30   , Cs3 , v116
	.byte		N30   , Fs3 , v068
	.byte	W36
	.byte		N18   , Ds2 , v088
	.byte		N18   , Ds3 , v116
	.byte		N18   , Gs3 , v068
	.byte	W24
@ 083   ----------------------------------------
	.byte		N96   , Ds2 , v088
	.byte		N96   , Ds3 , v116
	.byte		N96   , Gs3 , v068
	.byte	W90
	.byte		N06   , Cn2 , v088
	.byte		N06   , Cn3 , v116
	.byte	W06
@ 084   ----------------------------------------
	.byte		N30   , Bn1 , v088
	.byte		N30   , Bn2 , v116
	.byte		N30   , Ds3 , v068
	.byte	W36
	.byte		        Ds2 , v088
	.byte		N30   , Ds3 , v116
	.byte		N30   , Gs3 , v068
	.byte	W36
	.byte		N18   , Gn2 , v088
	.byte		N18   , Gn3 , v116
	.byte		N18   , Bn3 , v068
	.byte	W24
@ 085   ----------------------------------------
mus_thpprf_idolatrizeworld_3_085:
	.byte		TIE   , Gs2 , v088
	.byte		TIE   , Gs3 , v116
	.byte		TIE   , Ds4 , v068
	.byte	W96
	.byte	PEND
@ 086   ----------------------------------------
	.byte	W18
	.byte		EOT   , Gs2 
	.byte		        Gs3 
	.byte		        Ds4 
	.byte		N06   , Fn2 , v088
	.byte		N06   , Fn3 , v116
	.byte	W06
	.byte		N24   , Ds2 , v088
	.byte		N24   , Ds3 , v116
	.byte		N24   , Gs3 , v068
	.byte	W24
	.byte		        Gs2 , v088
	.byte		N24   , Gs3 , v116
	.byte		N24   , Cs4 , v068
	.byte	W24
	.byte		        As2 , v088
	.byte		N24   , As3 , v116
	.byte		N24   , Ds4 , v068
	.byte	W24
@ 087   ----------------------------------------
	.byte		N30   , Bn2 , v088
	.byte		N30   , Bn3 , v116
	.byte		N30   , Fs4 , v068
	.byte	W36
	.byte		        As2 , v088
	.byte		N30   , As3 , v116
	.byte		N30   , Ds4 , v068
	.byte	W36
	.byte		N18   , Fs2 , v088
	.byte		N18   , Fs3 , v116
	.byte		N18   , Cs4 , v068
	.byte	W24
@ 088   ----------------------------------------
	.byte		N30   , Cs2 , v088
	.byte		N30   , Cs3 , v116
	.byte		N30   , Fs3 , v068
	.byte	W36
	.byte		        Bn1 , v088
	.byte		N30   , Bn2 , v116
	.byte		N30   , Ds3 , v068
	.byte	W36
	.byte		N18   , As1 , v088
	.byte		N18   , As2 , v116
	.byte		N18   , Cs3 , v068
	.byte	W12
	.byte		N12   , Cn2 , v088
	.byte		N12   , Cn3 , v116
	.byte	W12
@ 089   ----------------------------------------
	.byte		N48   , Cs2 , v088
	.byte		N48   , Cs3 , v116
	.byte		N48   , Gs3 , v068
	.byte	W48
	.byte		N24   , Ds2 , v088
	.byte		N24   , Ds3 , v116
	.byte		N24   , As3 , v068
	.byte	W24
	.byte		N72   , Gs1 , v088
	.byte		N72   , Gs2 , v116
	.byte		N72   , Ds3 , v068
	.byte	W24
@ 090   ----------------------------------------
	.byte	W48
	.byte		N06   , Dn2 , v088
	.byte		N06   , Dn3 , v116
	.byte		N48   , As3 , v068
	.byte	W06
	.byte		N42   , Ds2 , v088
	.byte		N42   , Ds3 , v116
	.byte	W42
@ 091   ----------------------------------------
	.byte		N96   , Cs2 , v088
	.byte		N96   , Cs3 , v116
	.byte		N96   , Gs3 , v068
	.byte	W96
@ 092   ----------------------------------------
	.byte		N30   , As1 , v088
	.byte		N30   , As2 , v116
	.byte		N30   , Fs3 , v068
	.byte	W36
	.byte		        Fs1 , v088
	.byte		N30   , Fs2 , v116
	.byte		N30   , Cs3 , v068
	.byte	W36
	.byte		N18   , Cs1 , v088
	.byte		N18   , Cs2 , v116
	.byte		N18   , Fs2 , v068
	.byte	W24
@ 093   ----------------------------------------
	.byte		N48   , Cs1 , v088
	.byte		N48   , Cs2 , v116
	.byte		N48   , Gs2 , v068
	.byte	W48
	.byte		N18   , Ds1 , v088
	.byte		N18   , Ds2 , v116
	.byte		N18   , As2 , v068
	.byte	W24
	.byte		N42   , Ds1 , v088
	.byte		N42   , Ds2 , v116
	.byte		N42   , As2 , v068
	.byte	W24
@ 094   ----------------------------------------
	.byte	W24
	.byte		N24   , As0 , v088
	.byte		N24   , As1 , v116
	.byte	W24
	.byte		        Ds1 , v088
	.byte		N24   , Ds2 , v116
	.byte	W24
	.byte		        Gn1 , v088
	.byte		N24   , Gn2 , v116
	.byte	W24
@ 095   ----------------------------------------
	.byte		        As1 , v088
	.byte		N24   , As2 , v116
	.byte	W24
	.byte		        Gn1 , v088
	.byte		N24   , Gn2 , v116
	.byte	W24
	.byte		        As1 , v088
	.byte		N24   , As2 , v116
	.byte	W24
	.byte		        Fn2 , v088
	.byte		N24   , Fn3 , v116
	.byte	W24
@ 096   ----------------------------------------
	.byte		        Ds2 , v088
	.byte		N24   , Ds3 , v116
	.byte	W24
	.byte		        Dn2 , v088
	.byte		N24   , Dn3 , v116
	.byte	W24
	.byte		        As1 , v088
	.byte		N24   , As2 , v116
	.byte	W24
	.byte		        Gn1 , v088
	.byte		N24   , Gn2 , v116
	.byte	W24
@ 097   ----------------------------------------
	.byte		N48   , Gs1 , v088
	.byte		N48   , Gs2 , v116
	.byte	W42
	.byte		N06   , Dn2 , v088
	.byte		N06   , Dn3 , v116
	.byte	W06
	.byte		N48   , Ds2 , v088
	.byte		N48   , Ds3 , v116
	.byte		N42   , Gs3 , v068
	.byte	W42
	.byte		N06   , Gn2 , v088
	.byte		N06   , Gn3 , v116
	.byte	W06
@ 098   ----------------------------------------
	.byte		N30   , Gs2 , v088
	.byte		N30   , Gs3 , v116
	.byte		N30   , Cs4 , v068
	.byte	W36
	.byte		        As2 , v088
	.byte		N30   , As3 , v116
	.byte		N30   , Ds4 , v068
	.byte	W36
	.byte		N24   , Bn2 , v088
	.byte		N24   , Bn3 , v116
	.byte		N24   , Fs4 , v068
	.byte	W24
@ 099   ----------------------------------------
	.byte		N96   , Ds2 , v088
	.byte		N96   , Ds3 , v116
	.byte		N90   , Gn3 , v068
	.byte	W90
	.byte		N06   , An2 , v088
	.byte		N06   , An3 , v116
	.byte	W06
@ 100   ----------------------------------------
	.byte		N30   , As2 , v088
	.byte		N30   , As3 , v116
	.byte		N30   , Ds4 , v068
	.byte	W36
	.byte		        Bn2 , v088
	.byte		N30   , Bn3 , v116
	.byte		N30   , Fs4 , v068
	.byte	W36
	.byte		N24   , Cs3 , v088
	.byte		N24   , Cs4 , v116
	.byte		N24   , Gs4 , v068
	.byte	W18
	.byte		N06   , As2 , v088
	.byte		N06   , As3 , v116
	.byte	W06
@ 101   ----------------------------------------
	.byte		N84   , Gs2 , v088
	.byte		N84   , Gs3 , v116
	.byte		N84   , Ds4 , v068
	.byte	W84
	.byte		N12   , As2 , v088
	.byte		N12   , As3 , v116
	.byte	W12
@ 102   ----------------------------------------
	.byte		N24   , Bn2 , v088
	.byte		N24   , Gs3 , v100
	.byte		N24   , Bn3 , v116
	.byte	W36
	.byte		        Cs3 , v088
	.byte		N24   , As3 , v100
	.byte		N24   , Cs4 , v116
	.byte	W36
	.byte		        Ds3 , v088
	.byte		N24   , Bn3 , v100
	.byte		N24   , Ds4 , v116
	.byte	W24
@ 103   ----------------------------------------
	.byte		        Gs3 , v088
	.byte		N24   , Ds4 , v100
	.byte		N24   , Gs4 , v116
	.byte	W36
	.byte		        Ds3 , v088
	.byte		N24   , Bn3 , v100
	.byte		N24   , Ds4 , v116
	.byte	W36
	.byte		        Cs3 , v088
	.byte		N24   , As3 , v100
	.byte		N24   , Cs4 , v116
	.byte	W24
@ 104   ----------------------------------------
	.byte		        Bn2 , v088
	.byte		N24   , Gs3 , v100
	.byte		N24   , Bn3 , v116
	.byte	W36
	.byte		        As2 , v088
	.byte		N24   , Fs3 , v100
	.byte		N24   , As3 , v116
	.byte	W36
	.byte		        Fs2 , v088
	.byte		N24   , Cs3 , v100
	.byte		N24   , Fs3 , v116
	.byte	W18
	.byte		N06   , En2 , v088
	.byte		N06   , En3 , v116
	.byte	W06
@ 105   ----------------------------------------
	.byte		        Fn2 , v088
	.byte		N06   , Fn3 , v116
	.byte	W06
	.byte		N42   , Fs2 , v088
	.byte		N42   , Fs3 , v116
	.byte	W42
	.byte		N24   , Gs2 , v088
	.byte		N24   , Gs3 , v116
	.byte	W24
	.byte		N48   , Gs2 , v088
	.byte		N48   , Gs3 , v116
	.byte	W24
@ 106   ----------------------------------------
	.byte	W24
	.byte		N24   , Ds2 , v088
	.byte		N24   , Ds3 , v116
	.byte	W24
	.byte		        Gs2 , v088
	.byte		N24   , Gs3 , v116
	.byte	W24
	.byte		        Ds2 , v088
	.byte		N24   , Ds3 , v116
	.byte	W24
@ 107   ----------------------------------------
	.byte		N48   , Fs2 , v088
	.byte		N48   , Fs3 , v116
	.byte	W48
	.byte		N24   , Gs2 , v088
	.byte		N24   , Gs3 , v116
	.byte	W24
	.byte		        Gs2 , v088
	.byte		N24   , Gs3 , v116
	.byte	W24
@ 108   ----------------------------------------
	.byte		N30   , Cs3 , v088
	.byte		N30   , Cs4 , v116
	.byte		N30   , Gs4 , v068
	.byte	W36
	.byte		        As2 , v088
	.byte		N30   , As3 , v116
	.byte		N30   , Fs4 , v068
	.byte	W36
	.byte		N24   , Fs2 , v088
	.byte		N24   , Fs3 , v116
	.byte		N24   , Cs4 , v068
	.byte	W24
@ 109   ----------------------------------------
	.byte	PATT
	 .word	mus_thpprf_idolatrizeworld_3_085
@ 110   ----------------------------------------
	.byte	W96
	.byte		EOT   , Ds4 
@ 111   ----------------------------------------
	.byte		TIE   , Cn4 , v088
	.byte	W96
@ 112   ----------------------------------------
	.byte	W96
	.byte		EOT   , Gs2 
	.byte		        Gs3 
	.byte		        Cn4 
@ 113   ----------------------------------------
	.byte	W96
@ 114   ----------------------------------------
	.byte	W96
@ 115   ----------------------------------------
	.byte	W96
@ 116   ----------------------------------------
	.byte	W96
@ 117   ----------------------------------------
	.byte	W96
@ 118   ----------------------------------------
	.byte	W96
@ 119   ----------------------------------------
	.byte	W96
@ 120   ----------------------------------------
	.byte	W96
@ 121   ----------------------------------------
	.byte	W96
@ 122   ----------------------------------------
	.byte	W96
@ 123   ----------------------------------------
	.byte	W96
@ 124   ----------------------------------------
	.byte	W96
@ 125   ----------------------------------------
	.byte	W96
@ 126   ----------------------------------------
	.byte	W96
@ 127   ----------------------------------------
	.byte	W96
@ 128   ----------------------------------------
	.byte	W96
@ 129   ----------------------------------------
	.byte	W96
@ 130   ----------------------------------------
	.byte	W96
@ 131   ----------------------------------------
	.byte	W96
@ 132   ----------------------------------------
	.byte	W96
@ 133   ----------------------------------------
	.byte	W96
@ 134   ----------------------------------------
	.byte	W96
@ 135   ----------------------------------------
	.byte	W96
@ 136   ----------------------------------------
	.byte	W96
@ 137   ----------------------------------------
	.byte	W96
@ 138   ----------------------------------------
	.byte	W96
@ 139   ----------------------------------------
	.byte	W96
@ 140   ----------------------------------------
	.byte	W96
@ 141   ----------------------------------------
	.byte	W96
@ 142   ----------------------------------------
	.byte	W96
@ 143   ----------------------------------------
	.byte	W96
@ 144   ----------------------------------------
	.byte	W96
@ 145   ----------------------------------------
	.byte	W96
@ 146   ----------------------------------------
	.byte	W96
@ 147   ----------------------------------------
	.byte	W96
@ 148   ----------------------------------------
	.byte	W96
@ 149   ----------------------------------------
	.byte	W96
@ 150   ----------------------------------------
	.byte	W96
@ 151   ----------------------------------------
	.byte	W96
@ 152   ----------------------------------------
	.byte	W96
@ 153   ----------------------------------------
	.byte	W96
@ 154   ----------------------------------------
	.byte	W96
@ 155   ----------------------------------------
	.byte	W96
@ 156   ----------------------------------------
	.byte	W96
@ 157   ----------------------------------------
	.byte	W96
@ 158   ----------------------------------------
	.byte	W96
@ 159   ----------------------------------------
	.byte	W96
@ 160   ----------------------------------------
	.byte	W96
@ 161   ----------------------------------------
	.byte	W96
@ 162   ----------------------------------------
	.byte	W96
@ 163   ----------------------------------------
	.byte	W96
@ 164   ----------------------------------------
	.byte	W96
@ 165   ----------------------------------------
	.byte	W96
@ 166   ----------------------------------------
	.byte	W96
@ 167   ----------------------------------------
	.byte	W96
@ 168   ----------------------------------------
	.byte	W96
@ 169   ----------------------------------------
	.byte	W96
@ 170   ----------------------------------------
	.byte	W96
@ 171   ----------------------------------------
	.byte	W96
@ 172   ----------------------------------------
	.byte	W96
@ 173   ----------------------------------------
	.byte	W96
@ 174   ----------------------------------------
	.byte	W96
@ 175   ----------------------------------------
	.byte	W96
@ 176   ----------------------------------------
	.byte	W96
@ 177   ----------------------------------------
	.byte	W96
@ 178   ----------------------------------------
	.byte	W96
@ 179   ----------------------------------------
	.byte	W96
@ 180   ----------------------------------------
	.byte	W96
@ 181   ----------------------------------------
	.byte	W96
@ 182   ----------------------------------------
	.byte	W96
@ 183   ----------------------------------------
	.byte	W96
@ 184   ----------------------------------------
	.byte	W96
@ 185   ----------------------------------------
	.byte	W96
@ 186   ----------------------------------------
	.byte	W96
@ 187   ----------------------------------------
	.byte	W96
@ 188   ----------------------------------------
	.byte	W96
@ 189   ----------------------------------------
	.byte	W96
@ 190   ----------------------------------------
	.byte	W96
@ 191   ----------------------------------------
	.byte	W96
@ 192   ----------------------------------------
	.byte	W96
@ 193   ----------------------------------------
	.byte	W96
@ 194   ----------------------------------------
	.byte	W96
@ 195   ----------------------------------------
	.byte	W96
@ 196   ----------------------------------------
	.byte	W96
@ 197   ----------------------------------------
	.byte	W96
@ 198   ----------------------------------------
	.byte	W96
@ 199   ----------------------------------------
	.byte	W96
@ 200   ----------------------------------------
	.byte	W96
@ 201   ----------------------------------------
	.byte	W96
@ 202   ----------------------------------------
	.byte	W96
@ 203   ----------------------------------------
	.byte	W96
@ 204   ----------------------------------------
	.byte	W96
@ 205   ----------------------------------------
	.byte	W96
@ 206   ----------------------------------------
	.byte	W96
@ 207   ----------------------------------------
	.byte	W96
@ 208   ----------------------------------------
	.byte	W96
@ 209   ----------------------------------------
	.byte	W96
@ 210   ----------------------------------------
	.byte	W96
@ 211   ----------------------------------------
	.byte	W96
@ 212   ----------------------------------------
	.byte	W96
@ 213   ----------------------------------------
	.byte	W96
@ 214   ----------------------------------------
	.byte	W96
@ 215   ----------------------------------------
	.byte	W96
@ 216   ----------------------------------------
	.byte	W96
@ 217   ----------------------------------------
	.byte	W96
@ 218   ----------------------------------------
	.byte	W96
@ 219   ----------------------------------------
	.byte	W96
@ 220   ----------------------------------------
	.byte	W96
@ 221   ----------------------------------------
	.byte	W96
@ 222   ----------------------------------------
	.byte	W96
@ 223   ----------------------------------------
	.byte	W96
@ 224   ----------------------------------------
	.byte	W96
@ 225   ----------------------------------------
	.byte	W96
@ 226   ----------------------------------------
	.byte	W96
@ 227   ----------------------------------------
	.byte	W96
@ 228   ----------------------------------------
	.byte	W96
@ 229   ----------------------------------------
	.byte	W96
@ 230   ----------------------------------------
	.byte	W96
@ 231   ----------------------------------------
	.byte	W96
@ 232   ----------------------------------------
	.byte	W96
@ 233   ----------------------------------------
	.byte	W96
@ 234   ----------------------------------------
	.byte	W96
@ 235   ----------------------------------------
	.byte	W96
@ 236   ----------------------------------------
	.byte	W96
@ 237   ----------------------------------------
	.byte	W96
@ 238   ----------------------------------------
	.byte	W96
@ 239   ----------------------------------------
	.byte	W96
@ 240   ----------------------------------------
	.byte	W96
@ 241   ----------------------------------------
	.byte	W96
@ 242   ----------------------------------------
mus_thpprf_idolatrizeworld_3_242:
	.byte		N48   , Bn2 , v076
	.byte		N48   , Fs3 , v127
	.byte	W48
	.byte		N24   , Ds3 , v076
	.byte		N24   , Gs3 , v127
	.byte	W24
	.byte		N48   , Ds3 , v076
	.byte		N48   , Gs3 , v127
	.byte	W24
	.byte	PEND
@ 243   ----------------------------------------
mus_thpprf_idolatrizeworld_3_243:
	.byte	W24
	.byte		N24   , Bn2 , v076
	.byte		N24   , Ds3 , v127
	.byte	W24
	.byte		        Ds3 , v076
	.byte		N24   , Gs3 , v127
	.byte	W24
	.byte		        Bn2 , v076
	.byte		N24   , Ds3 , v127
	.byte	W24
	.byte	PEND
@ 244   ----------------------------------------
mus_thpprf_idolatrizeworld_3_244:
	.byte		N48   , Cs3 , v076
	.byte		N48   , Fs3 , v127
	.byte	W48
	.byte		N24   , Ds3 , v076
	.byte		N24   , Gs3 , v127
	.byte	W24
	.byte		N48   , Ds3 , v076
	.byte		N48   , Gs3 , v127
	.byte	W24
	.byte	PEND
@ 245   ----------------------------------------
mus_thpprf_idolatrizeworld_3_245:
	.byte	W24
	.byte		N24   , Fs2 , v076
	.byte		N24   , As2 , v127
	.byte	W24
	.byte		        Cs3 , v076
	.byte		N24   , Fs3 , v127
	.byte	W24
	.byte		        Fs2 , v076
	.byte		N24   , As2 , v127
	.byte	W24
	.byte	PEND
@ 246   ----------------------------------------
mus_thpprf_idolatrizeworld_3_246:
	.byte		N48   , As2 , v076
	.byte		N48   , Fs3 , v127
	.byte	W48
	.byte		N24   , Cs3 , v076
	.byte		N24   , Gs3 , v127
	.byte	W24
	.byte		N48   , Cs3 , v076
	.byte		N48   , Gs3 , v127
	.byte	W24
	.byte	PEND
@ 247   ----------------------------------------
mus_thpprf_idolatrizeworld_3_247:
	.byte	W24
	.byte		N24   , Cs3 , v076
	.byte		N24   , Gn3 , v127
	.byte	W24
	.byte		        Gn3 , v076
	.byte		N24   , As3 , v127
	.byte	W24
	.byte		        As3 , v076
	.byte		N24   , Ds4 , v127
	.byte	W24
	.byte	PEND
@ 248   ----------------------------------------
mus_thpprf_idolatrizeworld_3_248:
	.byte		N48   , Gs3 , v076
	.byte		N48   , Cs4 , v127
	.byte	W48
	.byte		N24   , Ds3 , v076
	.byte		N24   , Gs3 , v127
	.byte	W24
	.byte		        Gs3 , v076
	.byte		N24   , Cs4 , v127
	.byte	W24
	.byte	PEND
@ 249   ----------------------------------------
mus_thpprf_idolatrizeworld_3_249:
	.byte		N24   , Gs3 , v076
	.byte		N24   , Bn3 , v127
	.byte	W24
	.byte		N48   , Fs3 , v076
	.byte		N42   , As3 , v127
	.byte	W48
	.byte		N72   , Cs3 , v076
	.byte		N72   , Fs3 , v127
	.byte	W24
	.byte	PEND
@ 250   ----------------------------------------
mus_thpprf_idolatrizeworld_3_250:
	.byte	W48
	.byte		N24   , Ds3 , v076
	.byte		N24   , Gs3 , v127
	.byte	W24
	.byte		N48   , Ds3 , v076
	.byte		N48   , Gs3 , v127
	.byte	W24
	.byte	PEND
@ 251   ----------------------------------------
	.byte	PATT
	 .word	mus_thpprf_idolatrizeworld_3_243
@ 252   ----------------------------------------
	.byte		N48   , As2 , v076
	.byte		N48   , Fs3 , v127
	.byte	W48
	.byte		N24   , Ds3 , v076
	.byte		N24   , Gs3 , v127
	.byte	W24
	.byte		N48   , Ds3 , v076
	.byte		N48   , Gs3 , v127
	.byte	W24
@ 253   ----------------------------------------
	.byte	W24
	.byte		N24   , As2 , v076
	.byte		N24   , Fs3 , v127
	.byte	W24
	.byte		        Bn2 , v076
	.byte		N24   , Gs3 , v127
	.byte	W24
	.byte		        Cs3 , v076
	.byte		N24   , As3 , v127
	.byte	W24
@ 254   ----------------------------------------
	.byte		N48   , Ds3 , v076
	.byte		N48   , Bn3 , v127
	.byte	W48
	.byte		N24   , Cs3 , v076
	.byte		N24   , As3 , v127
	.byte	W24
	.byte		N48   , Ds3 , v076
	.byte		N48   , Bn3 , v127
	.byte	W24
@ 255   ----------------------------------------
	.byte	W24
	.byte		N24   , Ds3 , v076
	.byte		N24   , Bn3 , v127
	.byte	W24
	.byte		        Cs3 , v076
	.byte		N24   , As3 , v127
	.byte	W24
	.byte		        As2 , v076
	.byte		N24   , Fs3 , v127
	.byte	W24
@ 256   ----------------------------------------
	.byte		N96   , Bn2 , v076
	.byte		N96   , Ds3 , v127
	.byte	W90
	.byte		N06   , Fs3 
	.byte	W06
@ 257   ----------------------------------------
	.byte		N72   , Bn2 , v076
	.byte		N72   , Gs3 , v127
	.byte	W72
	.byte		N12   , Bn2 
	.byte	W12
	.byte		        As2 
	.byte	W12
@ 258   ----------------------------------------
	.byte	PATT
	 .word	mus_thpprf_idolatrizeworld_3_242
@ 259   ----------------------------------------
	.byte	PATT
	 .word	mus_thpprf_idolatrizeworld_3_243
@ 260   ----------------------------------------
	.byte	PATT
	 .word	mus_thpprf_idolatrizeworld_3_244
@ 261   ----------------------------------------
	.byte	PATT
	 .word	mus_thpprf_idolatrizeworld_3_245
@ 262   ----------------------------------------
	.byte	PATT
	 .word	mus_thpprf_idolatrizeworld_3_246
@ 263   ----------------------------------------
	.byte	PATT
	 .word	mus_thpprf_idolatrizeworld_3_247
@ 264   ----------------------------------------
	.byte	PATT
	 .word	mus_thpprf_idolatrizeworld_3_248
@ 265   ----------------------------------------
	.byte	PATT
	 .word	mus_thpprf_idolatrizeworld_3_249
@ 266   ----------------------------------------
	.byte	PATT
	 .word	mus_thpprf_idolatrizeworld_3_250
@ 267   ----------------------------------------
	.byte	PATT
	 .word	mus_thpprf_idolatrizeworld_3_243
@ 268   ----------------------------------------
	.byte		N48   , Cs3 , v076
	.byte		N48   , Fs3 , v127
	.byte	W48
	.byte		N24   , Ds3 , v076
	.byte		N24   , Gs3 , v127
	.byte	W24
	.byte		        Ds3 , v076
	.byte		N24   , Gs3 , v127
	.byte	W24
@ 269   ----------------------------------------
	.byte		N36   , As3 , v076
	.byte		N36   , Cs4 , v127
	.byte	W36
	.byte		        Fs3 , v076
	.byte		N36   , As3 , v127
	.byte	W36
	.byte		N24   , Cs3 , v076
	.byte		N24   , Fs3 , v127
	.byte	W24
@ 270   ----------------------------------------
	.byte		TIE   , Cs3 , v088
	.byte		TIE   , Gs3 , v127
	.byte	W96
@ 271   ----------------------------------------
	.byte	W96
	.byte		EOT   , Cs3 
@ 272   ----------------------------------------
	.byte		TIE   , Cn3 , v088
	.byte	W96
@ 273   ----------------------------------------
	.byte	W96
	.byte		EOT   
	.byte		EOT   , Gs3 
@ 274   ----------------------------------------
mus_thpprf_idolatrizeworld_3_274:
	.byte		N24   , Fn2 , v072
	.byte		N24   , As2 , v100
	.byte	W24
	.byte		        As2 , v072
	.byte		N24   , Ds3 , v100
	.byte	W24
	.byte		        Cn3 , v072
	.byte		N24   , Fn3 , v100
	.byte	W24
	.byte		        Ds3 , v072
	.byte		N24   , Gs3 , v100
	.byte	W24
	.byte	PEND
@ 275   ----------------------------------------
mus_thpprf_idolatrizeworld_3_275:
	.byte		N24   , Cn3 , v072
	.byte		N24   , Fn3 , v100
	.byte	W24
	.byte		        As2 , v072
	.byte		N24   , Ds3 , v100
	.byte	W24
	.byte		        Fn2 , v072
	.byte		N24   , As2 , v100
	.byte	W24
	.byte		        As2 , v072
	.byte		N24   , Ds3 , v100
	.byte	W24
	.byte	PEND
@ 276   ----------------------------------------
mus_thpprf_idolatrizeworld_3_276:
	.byte		N24   , Cn3 , v072
	.byte		N24   , Fn3 , v100
	.byte	W24
	.byte		        Ds3 , v072
	.byte		N24   , Gs3 , v100
	.byte	W24
	.byte		        Cn3 , v072
	.byte		N24   , Fn3 , v100
	.byte	W24
	.byte		        As2 , v072
	.byte		N24   , Ds3 , v100
	.byte	W24
	.byte	PEND
@ 277   ----------------------------------------
mus_thpprf_idolatrizeworld_3_277:
	.byte		N24   , Gs2 , v072
	.byte		N24   , Cn3 , v100
	.byte	W24
	.byte		        As2 , v072
	.byte		N24   , Cs3 , v100
	.byte	W24
	.byte		        Gs2 , v072
	.byte		N24   , Cn3 , v100
	.byte	W24
	.byte		        Fn2 , v072
	.byte		N24   , Gs2 , v100
	.byte	W24
	.byte	PEND
@ 278   ----------------------------------------
	.byte	PATT
	 .word	mus_thpprf_idolatrizeworld_3_274
@ 279   ----------------------------------------
	.byte	PATT
	 .word	mus_thpprf_idolatrizeworld_3_275
@ 280   ----------------------------------------
	.byte	PATT
	 .word	mus_thpprf_idolatrizeworld_3_276
@ 281   ----------------------------------------
	.byte	PATT
	 .word	mus_thpprf_idolatrizeworld_3_277
@ 282   ----------------------------------------
	.byte	PATT
	 .word	mus_thpprf_idolatrizeworld_3_274
@ 283   ----------------------------------------
	.byte	PATT
	 .word	mus_thpprf_idolatrizeworld_3_275
@ 284   ----------------------------------------
	.byte	PATT
	 .word	mus_thpprf_idolatrizeworld_3_276
@ 285   ----------------------------------------
	.byte	PATT
	 .word	mus_thpprf_idolatrizeworld_3_277
@ 286   ----------------------------------------
	.byte	PATT
	 .word	mus_thpprf_idolatrizeworld_3_274
@ 287   ----------------------------------------
	.byte	PATT
	 .word	mus_thpprf_idolatrizeworld_3_275
@ 288   ----------------------------------------
	.byte	PATT
	 .word	mus_thpprf_idolatrizeworld_3_276
@ 289   ----------------------------------------
	.byte	PATT
	 .word	mus_thpprf_idolatrizeworld_3_277
@ 290   ----------------------------------------
mus_thpprf_idolatrizeworld_3_290:
	.byte		N24   , Bn2 , v100
	.byte	W24
	.byte		        En3 
	.byte	W24
	.byte		        Fs3 
	.byte	W24
	.byte		        An3 
	.byte	W24
	.byte	PEND
@ 291   ----------------------------------------
mus_thpprf_idolatrizeworld_3_291:
	.byte		N24   , Fs3 , v100
	.byte	W24
	.byte		        En3 
	.byte	W24
	.byte		        Bn2 
	.byte	W24
	.byte		        En3 
	.byte	W24
	.byte	PEND
@ 292   ----------------------------------------
mus_thpprf_idolatrizeworld_3_292:
	.byte		N24   , Fs3 , v100
	.byte	W24
	.byte		        An3 
	.byte	W24
	.byte		        Fs3 
	.byte	W24
	.byte		        En3 
	.byte	W24
	.byte	PEND
@ 293   ----------------------------------------
mus_thpprf_idolatrizeworld_3_293:
	.byte		N24   , Cs3 , v100
	.byte	W24
	.byte		        Dn3 
	.byte	W24
	.byte		        Cs3 
	.byte	W24
	.byte		        An2 
	.byte	W24
	.byte	PEND
@ 294   ----------------------------------------
	.byte	PATT
	 .word	mus_thpprf_idolatrizeworld_3_290
@ 295   ----------------------------------------
	.byte	PATT
	 .word	mus_thpprf_idolatrizeworld_3_291
@ 296   ----------------------------------------
	.byte	PATT
	 .word	mus_thpprf_idolatrizeworld_3_292
@ 297   ----------------------------------------
	.byte	PATT
	 .word	mus_thpprf_idolatrizeworld_3_293
@ 298   ----------------------------------------
	.byte	PATT
	 .word	mus_thpprf_idolatrizeworld_3_290
@ 299   ----------------------------------------
	.byte	PATT
	 .word	mus_thpprf_idolatrizeworld_3_291
@ 300   ----------------------------------------
	.byte	PATT
	 .word	mus_thpprf_idolatrizeworld_3_292
@ 301   ----------------------------------------
	.byte	PATT
	 .word	mus_thpprf_idolatrizeworld_3_293
@ 302   ----------------------------------------
	.byte	PATT
	 .word	mus_thpprf_idolatrizeworld_3_290
@ 303   ----------------------------------------
	.byte	PATT
	 .word	mus_thpprf_idolatrizeworld_3_291
@ 304   ----------------------------------------
	.byte	PATT
	 .word	mus_thpprf_idolatrizeworld_3_292
@ 305   ----------------------------------------
	.byte	PATT
	 .word	mus_thpprf_idolatrizeworld_3_293
@ 306   ----------------------------------------
	.byte	PATT
	 .word	mus_thpprf_idolatrizeworld_3_290
@ 307   ----------------------------------------
	.byte	PATT
	 .word	mus_thpprf_idolatrizeworld_3_291
@ 308   ----------------------------------------
	.byte	PATT
	 .word	mus_thpprf_idolatrizeworld_3_292
@ 309   ----------------------------------------
	.byte	PATT
	 .word	mus_thpprf_idolatrizeworld_3_293
@ 310   ----------------------------------------
	.byte	PATT
	 .word	mus_thpprf_idolatrizeworld_3_290
@ 311   ----------------------------------------
	.byte	PATT
	 .word	mus_thpprf_idolatrizeworld_3_291
@ 312   ----------------------------------------
	.byte	PATT
	 .word	mus_thpprf_idolatrizeworld_3_292
@ 313   ----------------------------------------
	.byte	PATT
	 .word	mus_thpprf_idolatrizeworld_3_293
@ 314   ----------------------------------------
	.byte	PATT
	 .word	mus_thpprf_idolatrizeworld_3_290
@ 315   ----------------------------------------
	.byte	PATT
	 .word	mus_thpprf_idolatrizeworld_3_291
@ 316   ----------------------------------------
	.byte	PATT
	 .word	mus_thpprf_idolatrizeworld_3_292
@ 317   ----------------------------------------
	.byte	PATT
	 .word	mus_thpprf_idolatrizeworld_3_293
@ 318   ----------------------------------------
	.byte	PATT
	 .word	mus_thpprf_idolatrizeworld_3_290
@ 319   ----------------------------------------
	.byte	PATT
	 .word	mus_thpprf_idolatrizeworld_3_291
@ 320   ----------------------------------------
	.byte	PATT
	 .word	mus_thpprf_idolatrizeworld_3_292
@ 321   ----------------------------------------
	.byte	PATT
	 .word	mus_thpprf_idolatrizeworld_3_293
@ 322   ----------------------------------------
	.byte	W96
@ 323   ----------------------------------------
	.byte	W96
@ 324   ----------------------------------------
	.byte	W96
@ 325   ----------------------------------------
	.byte	W96
@ 326   ----------------------------------------
	.byte	W96
@ 327   ----------------------------------------
	.byte	W96
@ 328   ----------------------------------------
	.byte	W96
@ 329   ----------------------------------------
	.byte	W96
@ 330   ----------------------------------------
	.byte	W96
@ 331   ----------------------------------------
	.byte	W96
@ 332   ----------------------------------------
	.byte	W96
@ 333   ----------------------------------------
	.byte	W96
@ 334   ----------------------------------------
	.byte	W96
@ 335   ----------------------------------------
	.byte	W96
@ 336   ----------------------------------------
	.byte	W96
@ 337   ----------------------------------------
	.byte	W96
@ 338   ----------------------------------------
	.byte	GOTO
	.word	mus_thpprf_idolatrizeworld_3_049
	.byte	FINE

@**************** Track 4 (Midi-Chn.4) ****************@

mus_thpprf_idolatrizeworld_4:
	.byte	KEYSH , mus_thpprf_idolatrizeworld_key+0
@ 000   ----------------------------------------
	.byte	W28
	.byte		VOICE , 103
	.byte		PAN   , c_v+0
	.byte		VOL   , 70*mus_thpprf_idolatrizeworld_mvl/mxv
	.byte	W02
	.byte		MOD   , 0
	.byte	W66
@ 001   ----------------------------------------
	.byte	W96
@ 002   ----------------------------------------
	.byte	W96
@ 003   ----------------------------------------
	.byte	W96
@ 004   ----------------------------------------
	.byte	W96
@ 005   ----------------------------------------
	.byte	W96
@ 006   ----------------------------------------
	.byte	W96
@ 007   ----------------------------------------
	.byte	W96
@ 008   ----------------------------------------
	.byte	W96
@ 009   ----------------------------------------
	.byte	W96
@ 010   ----------------------------------------
	.byte	W96
@ 011   ----------------------------------------
	.byte	W96
@ 012   ----------------------------------------
	.byte	W96
@ 013   ----------------------------------------
	.byte	W96
@ 014   ----------------------------------------
	.byte	W96
@ 015   ----------------------------------------
	.byte	W96
@ 016   ----------------------------------------
	.byte	W96
@ 017   ----------------------------------------
	.byte	W96
@ 018   ----------------------------------------
	.byte	W96
@ 019   ----------------------------------------
	.byte	W96
@ 020   ----------------------------------------
	.byte	W96
@ 021   ----------------------------------------
	.byte	W96
@ 022   ----------------------------------------
	.byte	W96
@ 023   ----------------------------------------
	.byte	W96
@ 024   ----------------------------------------
	.byte	W96
@ 025   ----------------------------------------
	.byte	W96
@ 026   ----------------------------------------
	.byte	W96
@ 027   ----------------------------------------
	.byte	W96
@ 028   ----------------------------------------
	.byte	W96
@ 029   ----------------------------------------
	.byte	W96
@ 030   ----------------------------------------
	.byte	W96
@ 031   ----------------------------------------
	.byte	W96
@ 032   ----------------------------------------
	.byte	W96
@ 033   ----------------------------------------
	.byte	W96
@ 034   ----------------------------------------
	.byte	W96
@ 035   ----------------------------------------
	.byte	W96
@ 036   ----------------------------------------
	.byte	W96
@ 037   ----------------------------------------
	.byte	W96
@ 038   ----------------------------------------
	.byte	W96
@ 039   ----------------------------------------
	.byte	W96
@ 040   ----------------------------------------
	.byte	W96
@ 041   ----------------------------------------
	.byte	W96
@ 042   ----------------------------------------
	.byte	W96
@ 043   ----------------------------------------
	.byte	W96
@ 044   ----------------------------------------
	.byte	W96
@ 045   ----------------------------------------
	.byte	W96
@ 046   ----------------------------------------
	.byte	W96
@ 047   ----------------------------------------
	.byte	W96
@ 048   ----------------------------------------
	.byte	W96
@ 049   ----------------------------------------
mus_thpprf_idolatrizeworld_4_049:
	.byte	W96
@ 050   ----------------------------------------
	.byte	W96
@ 051   ----------------------------------------
	.byte	W96
@ 052   ----------------------------------------
	.byte	W96
@ 053   ----------------------------------------
	.byte	W96
@ 054   ----------------------------------------
	.byte	W96
@ 055   ----------------------------------------
	.byte	W96
@ 056   ----------------------------------------
	.byte	W96
@ 057   ----------------------------------------
	.byte	W96
@ 058   ----------------------------------------
	.byte	W96
@ 059   ----------------------------------------
	.byte	W96
@ 060   ----------------------------------------
	.byte	W96
@ 061   ----------------------------------------
	.byte	W96
@ 062   ----------------------------------------
	.byte	W96
@ 063   ----------------------------------------
	.byte	W96
@ 064   ----------------------------------------
	.byte	W96
@ 065   ----------------------------------------
	.byte	W96
@ 066   ----------------------------------------
	.byte	W96
@ 067   ----------------------------------------
	.byte	W96
@ 068   ----------------------------------------
	.byte	W96
@ 069   ----------------------------------------
	.byte	W96
@ 070   ----------------------------------------
	.byte	W96
@ 071   ----------------------------------------
	.byte	W96
@ 072   ----------------------------------------
	.byte	W96
@ 073   ----------------------------------------
	.byte	W96
@ 074   ----------------------------------------
	.byte	W96
@ 075   ----------------------------------------
	.byte	W96
@ 076   ----------------------------------------
	.byte	W96
@ 077   ----------------------------------------
	.byte	W96
@ 078   ----------------------------------------
	.byte	W96
@ 079   ----------------------------------------
	.byte	W96
@ 080   ----------------------------------------
	.byte	W96
@ 081   ----------------------------------------
	.byte	W96
@ 082   ----------------------------------------
	.byte	W96
@ 083   ----------------------------------------
	.byte	W96
@ 084   ----------------------------------------
	.byte	W96
@ 085   ----------------------------------------
	.byte	W96
@ 086   ----------------------------------------
	.byte	W96
@ 087   ----------------------------------------
	.byte	W96
@ 088   ----------------------------------------
	.byte	W96
@ 089   ----------------------------------------
	.byte	W96
@ 090   ----------------------------------------
	.byte	W96
@ 091   ----------------------------------------
	.byte	W96
@ 092   ----------------------------------------
	.byte	W96
@ 093   ----------------------------------------
	.byte	W96
@ 094   ----------------------------------------
	.byte	W96
@ 095   ----------------------------------------
	.byte	W96
@ 096   ----------------------------------------
	.byte	W96
@ 097   ----------------------------------------
	.byte	W96
@ 098   ----------------------------------------
	.byte	W96
@ 099   ----------------------------------------
	.byte	W96
@ 100   ----------------------------------------
	.byte	W96
@ 101   ----------------------------------------
	.byte	W96
@ 102   ----------------------------------------
	.byte	W96
@ 103   ----------------------------------------
	.byte	W96
@ 104   ----------------------------------------
	.byte	W96
@ 105   ----------------------------------------
	.byte	W96
@ 106   ----------------------------------------
	.byte	W96
@ 107   ----------------------------------------
	.byte	W96
@ 108   ----------------------------------------
	.byte	W96
@ 109   ----------------------------------------
	.byte	W96
@ 110   ----------------------------------------
	.byte	W96
@ 111   ----------------------------------------
	.byte	W96
@ 112   ----------------------------------------
	.byte	W96
@ 113   ----------------------------------------
	.byte	W96
@ 114   ----------------------------------------
	.byte	W96
@ 115   ----------------------------------------
	.byte	W96
@ 116   ----------------------------------------
	.byte	W96
@ 117   ----------------------------------------
	.byte	W96
@ 118   ----------------------------------------
	.byte	W96
@ 119   ----------------------------------------
	.byte	W96
@ 120   ----------------------------------------
	.byte	W96
@ 121   ----------------------------------------
	.byte	W96
@ 122   ----------------------------------------
	.byte	W96
@ 123   ----------------------------------------
	.byte	W96
@ 124   ----------------------------------------
	.byte	W96
@ 125   ----------------------------------------
	.byte	W96
@ 126   ----------------------------------------
	.byte	W96
@ 127   ----------------------------------------
	.byte	W96
@ 128   ----------------------------------------
	.byte	W96
@ 129   ----------------------------------------
	.byte	W96
@ 130   ----------------------------------------
	.byte	W96
@ 131   ----------------------------------------
	.byte	W96
@ 132   ----------------------------------------
	.byte	W96
@ 133   ----------------------------------------
	.byte	W96
@ 134   ----------------------------------------
	.byte	W96
@ 135   ----------------------------------------
	.byte	W96
@ 136   ----------------------------------------
	.byte	W96
@ 137   ----------------------------------------
	.byte	W96
@ 138   ----------------------------------------
	.byte	W96
@ 139   ----------------------------------------
	.byte	W96
@ 140   ----------------------------------------
	.byte	W96
@ 141   ----------------------------------------
	.byte	W96
@ 142   ----------------------------------------
	.byte	W96
@ 143   ----------------------------------------
	.byte	W96
@ 144   ----------------------------------------
	.byte	W96
@ 145   ----------------------------------------
	.byte	W48
	.byte		N24   , Dn3 , v092
	.byte		N24   , Dn4 , v112
	.byte	W24
	.byte		        En3 , v092
	.byte		N24   , En4 , v112
	.byte	W24
@ 146   ----------------------------------------
mus_thpprf_idolatrizeworld_4_146:
	.byte		N48   , Fn3 , v092
	.byte		N48   , Fn4 , v112
	.byte	W48
	.byte		N24   , Gn3 , v092
	.byte		N24   , Gn4 , v112
	.byte	W24
	.byte		N48   , Gn3 , v092
	.byte		N48   , Gn4 , v112
	.byte	W24
	.byte	PEND
@ 147   ----------------------------------------
mus_thpprf_idolatrizeworld_4_147:
	.byte	W24
	.byte		N24   , Dn3 , v092
	.byte		N24   , Dn4 , v112
	.byte	W24
	.byte		        Gn3 , v092
	.byte		N24   , Gn4 , v112
	.byte	W24
	.byte		        Dn3 , v092
	.byte		N24   , Dn4 , v112
	.byte	W24
	.byte	PEND
@ 148   ----------------------------------------
	.byte	PATT
	 .word	mus_thpprf_idolatrizeworld_4_146
@ 149   ----------------------------------------
mus_thpprf_idolatrizeworld_4_149:
	.byte	W24
	.byte		N24   , An2 , v092
	.byte		N24   , An3 , v112
	.byte	W24
	.byte		        Fn3 , v092
	.byte		N24   , Fn4 , v112
	.byte	W24
	.byte		        An2 , v092
	.byte		N24   , An3 , v112
	.byte	W24
	.byte	PEND
@ 150   ----------------------------------------
	.byte	PATT
	 .word	mus_thpprf_idolatrizeworld_4_146
@ 151   ----------------------------------------
mus_thpprf_idolatrizeworld_4_151:
	.byte	W24
	.byte		N24   , Fs3 , v092
	.byte		N24   , Fs4 , v112
	.byte	W24
	.byte		        An3 , v092
	.byte		N24   , An4 , v112
	.byte	W24
	.byte		        Dn4 , v092
	.byte		N24   , Dn5 , v112
	.byte	W24
	.byte	PEND
@ 152   ----------------------------------------
mus_thpprf_idolatrizeworld_4_152:
	.byte		N48   , Cn4 , v092
	.byte		N48   , Cn5 , v112
	.byte	W48
	.byte		N24   , Gn3 , v092
	.byte		N24   , Gn4 , v112
	.byte	W24
	.byte		        Cn4 , v092
	.byte		N24   , Cn5 , v112
	.byte	W24
	.byte	PEND
@ 153   ----------------------------------------
mus_thpprf_idolatrizeworld_4_153:
	.byte		N24   , As3 , v092
	.byte		N24   , As4 , v112
	.byte	W24
	.byte		N42   , An3 , v092
	.byte		N42   , An4 , v112
	.byte	W48
	.byte		N72   , Fn3 , v092
	.byte		N72   , Fn4 , v112
	.byte	W24
	.byte	PEND
@ 154   ----------------------------------------
mus_thpprf_idolatrizeworld_4_154:
	.byte	W48
	.byte		N24   , Gn3 , v092
	.byte		N24   , Gn4 , v112
	.byte	W24
	.byte		N48   , Gn3 , v092
	.byte		N48   , Gn4 , v112
	.byte	W24
	.byte	PEND
@ 155   ----------------------------------------
	.byte	PATT
	 .word	mus_thpprf_idolatrizeworld_4_147
@ 156   ----------------------------------------
	.byte	PATT
	 .word	mus_thpprf_idolatrizeworld_4_146
@ 157   ----------------------------------------
	.byte	W24
	.byte		N24   , Fn3 , v092
	.byte		N24   , Fn4 , v112
	.byte	W24
	.byte		        Gn3 , v092
	.byte		N24   , Gn4 , v112
	.byte	W24
	.byte		        An3 , v092
	.byte		N24   , An4 , v112
	.byte	W24
@ 158   ----------------------------------------
	.byte		N48   , As3 , v092
	.byte		N48   , As4 , v112
	.byte	W48
	.byte		N24   , An3 , v092
	.byte		N24   , An4 , v112
	.byte	W24
	.byte		N48   , As3 , v092
	.byte		N48   , As4 , v112
	.byte	W24
@ 159   ----------------------------------------
	.byte	W24
	.byte		N24   , As3 , v092
	.byte		N24   , As4 , v112
	.byte	W24
	.byte		        An3 , v092
	.byte		N24   , An4 , v112
	.byte	W24
	.byte		        Fn3 , v092
	.byte		N24   , Fn4 , v112
	.byte	W24
@ 160   ----------------------------------------
	.byte		N96   , Dn3 , v092
	.byte		N96   , Dn4 , v112
	.byte	W90
	.byte		N06   , Fn3 , v092
	.byte		N06   , Fn4 , v112
	.byte	W06
@ 161   ----------------------------------------
	.byte		N72   , Gn3 , v092
	.byte		N72   , Gn4 , v112
	.byte	W72
	.byte		N12   , As2 , v092
	.byte		N12   , As3 , v112
	.byte	W12
	.byte		        An2 , v092
	.byte		N12   , An3 , v112
	.byte	W12
@ 162   ----------------------------------------
	.byte	PATT
	 .word	mus_thpprf_idolatrizeworld_4_146
@ 163   ----------------------------------------
	.byte	PATT
	 .word	mus_thpprf_idolatrizeworld_4_147
@ 164   ----------------------------------------
	.byte	PATT
	 .word	mus_thpprf_idolatrizeworld_4_146
@ 165   ----------------------------------------
	.byte	PATT
	 .word	mus_thpprf_idolatrizeworld_4_149
@ 166   ----------------------------------------
	.byte	PATT
	 .word	mus_thpprf_idolatrizeworld_4_146
@ 167   ----------------------------------------
	.byte	PATT
	 .word	mus_thpprf_idolatrizeworld_4_151
@ 168   ----------------------------------------
	.byte	PATT
	 .word	mus_thpprf_idolatrizeworld_4_152
@ 169   ----------------------------------------
	.byte	PATT
	 .word	mus_thpprf_idolatrizeworld_4_153
@ 170   ----------------------------------------
	.byte	PATT
	 .word	mus_thpprf_idolatrizeworld_4_154
@ 171   ----------------------------------------
	.byte	PATT
	 .word	mus_thpprf_idolatrizeworld_4_147
@ 172   ----------------------------------------
	.byte		N48   , Fn3 , v092
	.byte		N48   , Fn4 , v112
	.byte	W48
	.byte		N24   , Gn3 , v092
	.byte		N24   , Gn4 , v112
	.byte	W24
	.byte		        Gn3 , v092
	.byte		N24   , Gn4 , v112
	.byte	W24
@ 173   ----------------------------------------
	.byte		N36   , Cn4 , v092
	.byte		N36   , Cn5 , v112
	.byte	W36
	.byte		        An3 , v092
	.byte		N36   , An4 , v112
	.byte	W36
	.byte		N24   , Fn3 , v092
	.byte		N24   , Fn4 , v112
	.byte	W24
@ 174   ----------------------------------------
	.byte		TIE   , Gn3 , v092
	.byte		TIE   , Gn4 , v112
	.byte	W96
@ 175   ----------------------------------------
	.byte	W96
@ 176   ----------------------------------------
	.byte	W96
	.byte		EOT   , Gn3 
	.byte		        Gn4 
@ 177   ----------------------------------------
	.byte		N36   , As2 
	.byte		N36   , As3 
	.byte	W48
	.byte		        An2 
	.byte		N36   , An3 
	.byte	W48
@ 178   ----------------------------------------
	.byte		N90   , Gn2 
	.byte		N90   , Gn3 
	.byte	W96
@ 179   ----------------------------------------
	.byte		N30   , Gn2 
	.byte		N30   , Gn3 
	.byte	W36
	.byte		        Cn3 
	.byte		N30   , Cn4 
	.byte	W36
	.byte		N18   , Dn3 
	.byte		N18   , Dn4 
	.byte	W24
@ 180   ----------------------------------------
	.byte		N96   , Dn3 
	.byte		N96   , Dn4 
	.byte	W96
@ 181   ----------------------------------------
	.byte		N30   , As2 
	.byte		N30   , As3 
	.byte	W36
	.byte		        Dn3 
	.byte		N30   , Dn4 
	.byte	W36
	.byte		N18   , Fs3 
	.byte		N18   , Fs4 
	.byte	W24
@ 182   ----------------------------------------
	.byte		TIE   , Gn3 
	.byte		TIE   , Gn4 
	.byte	W96
@ 183   ----------------------------------------
	.byte	W18
	.byte		EOT   , Gn3 
	.byte		        Gn4 
	.byte		N06   , En3 
	.byte		N06   , En4 
	.byte	W06
	.byte		N24   , Dn3 
	.byte		N24   , Dn4 
	.byte	W24
	.byte		        Gn3 
	.byte		N24   , Gn4 
	.byte	W24
	.byte		        An3 
	.byte		N24   , An4 
	.byte	W24
@ 184   ----------------------------------------
	.byte		N30   , As3 
	.byte		N30   , As4 
	.byte	W36
	.byte		        An3 
	.byte		N30   , An4 
	.byte	W36
	.byte		N18   , Fn3 
	.byte		N18   , Fn4 
	.byte	W24
@ 185   ----------------------------------------
	.byte		N30   , Cn3 
	.byte		N30   , Cn4 
	.byte	W36
	.byte		        As2 
	.byte		N30   , As3 
	.byte	W36
	.byte		N18   , An2 
	.byte		N18   , An3 
	.byte	W12
	.byte		N12   , Bn2 
	.byte		N12   , Bn3 
	.byte	W12
@ 186   ----------------------------------------
	.byte		N48   , Cn3 
	.byte		N48   , Cn4 
	.byte	W48
	.byte		N24   , Dn3 
	.byte		N24   , Dn4 
	.byte	W24
	.byte		N72   , Gn2 
	.byte		N72   , Gn3 
	.byte	W24
@ 187   ----------------------------------------
	.byte	W48
	.byte		N06   , Cs3 
	.byte		N06   , Cs4 
	.byte	W06
	.byte		N42   , Dn3 
	.byte		N42   , Dn4 
	.byte	W42
@ 188   ----------------------------------------
	.byte		N96   , Cn3 
	.byte		N96   , Cn4 
	.byte	W96
@ 189   ----------------------------------------
	.byte		N30   , An2 
	.byte		N30   , An3 
	.byte	W36
	.byte		        Fn2 
	.byte		N30   , Fn3 
	.byte	W36
	.byte		N18   , Cn2 
	.byte		N18   , Cn3 
	.byte	W24
@ 190   ----------------------------------------
	.byte		N48   , Cn2 
	.byte		N48   , Cn3 
	.byte	W48
	.byte		N18   , Dn2 
	.byte		N18   , Dn3 
	.byte	W24
	.byte		N42   , Dn2 
	.byte		N42   , Dn3 
	.byte	W24
@ 191   ----------------------------------------
	.byte	W24
	.byte		N24   , An1 
	.byte		N24   , An2 
	.byte	W24
	.byte		        Dn2 
	.byte		N24   , Dn3 
	.byte	W24
	.byte		        Fs2 
	.byte		N24   , Fs3 
	.byte	W24
@ 192   ----------------------------------------
	.byte		        An2 
	.byte		N24   , An3 
	.byte	W24
	.byte		        Fs2 
	.byte		N24   , Fs3 
	.byte	W24
	.byte		        An2 
	.byte		N24   , An3 
	.byte	W24
	.byte		        En3 
	.byte		N24   , En4 
	.byte	W24
@ 193   ----------------------------------------
	.byte		        Dn3 
	.byte		N24   , Dn4 
	.byte	W24
	.byte		        Cs3 
	.byte		N24   , Cs4 
	.byte	W24
	.byte		        An2 
	.byte		N24   , An3 
	.byte	W24
	.byte		        Fs2 
	.byte		N24   , Fs3 
	.byte	W24
@ 194   ----------------------------------------
	.byte		N48   , Gn2 
	.byte		N48   , Gn3 
	.byte	W42
	.byte		N06   , Cs3 
	.byte		N06   , Cs4 
	.byte	W06
	.byte		N48   , Dn3 
	.byte		N48   , Dn4 
	.byte	W42
	.byte		N06   , Fs3 
	.byte		N06   , Fs4 
	.byte	W06
@ 195   ----------------------------------------
	.byte		N30   , Gn3 
	.byte		N30   , Gn4 
	.byte	W36
	.byte		        An3 
	.byte		N30   , An4 
	.byte	W36
	.byte		N24   , As3 
	.byte		N24   , As4 
	.byte	W24
@ 196   ----------------------------------------
	.byte		N96   , Dn3 
	.byte		N96   , Dn4 
	.byte	W90
	.byte		N06   , Gs3 
	.byte		N06   , Gs4 
	.byte	W06
@ 197   ----------------------------------------
	.byte		N30   , An3 
	.byte		N30   , An4 
	.byte	W36
	.byte		        As3 
	.byte		N30   , As4 
	.byte	W36
	.byte		N24   , Cn4 
	.byte		N24   , Cn5 
	.byte	W18
	.byte		N06   , An3 
	.byte		N06   , An4 
	.byte	W06
@ 198   ----------------------------------------
	.byte		N84   , Gn3 
	.byte		N84   , Gn4 
	.byte	W84
	.byte		N12   , An3 
	.byte		N12   , An4 
	.byte	W12
@ 199   ----------------------------------------
	.byte		N24   , Gn3 
	.byte		N24   , As3 
	.byte		N24   , Gn4 
	.byte		N24   , As4 
	.byte	W36
	.byte		        An3 
	.byte		N24   , Cn4 
	.byte		N24   , An4 
	.byte		N24   , Cn5 
	.byte	W36
	.byte		        As3 
	.byte		N24   , Dn4 
	.byte		N24   , As4 
	.byte		N24   , Dn5 
	.byte	W24
@ 200   ----------------------------------------
	.byte		        Dn4 
	.byte		N24   , Gn4 
	.byte		N24   , Dn5 
	.byte		N24   , Gn5 
	.byte	W36
	.byte		        As3 
	.byte		N24   , Dn4 
	.byte		N24   , As4 
	.byte		N24   , Dn5 
	.byte	W36
	.byte		        An3 
	.byte		N24   , Cn4 
	.byte		N24   , An4 
	.byte		N24   , Cn5 
	.byte	W24
@ 201   ----------------------------------------
	.byte		        Gn3 
	.byte		N24   , As3 
	.byte		N24   , Gn4 
	.byte		N24   , As4 
	.byte	W36
	.byte		        Fn3 
	.byte		N24   , An3 
	.byte		N24   , Fn4 
	.byte		N24   , An4 
	.byte	W36
	.byte		        Cn3 
	.byte		N24   , Fn3 
	.byte		N24   , Cn4 
	.byte		N24   , Fn4 
	.byte	W18
	.byte		N06   , Ds3 
	.byte		N06   , Ds4 
	.byte	W06
@ 202   ----------------------------------------
	.byte		        En3 
	.byte		N06   , En4 
	.byte	W06
	.byte		N42   , Fn3 
	.byte		N42   , Fn4 
	.byte	W42
	.byte		N18   , Gn3 
	.byte		N18   , Gn4 
	.byte	W24
	.byte		N48   , Gn3 
	.byte		N48   , Gn4 
	.byte	W24
@ 203   ----------------------------------------
	.byte	W24
	.byte		N24   , Dn3 
	.byte		N24   , Dn4 
	.byte	W24
	.byte		        Gn3 
	.byte		N24   , Gn4 
	.byte	W24
	.byte		        Dn3 
	.byte		N24   , Dn4 
	.byte	W24
@ 204   ----------------------------------------
	.byte		N48   , Fn3 
	.byte		N48   , Fn4 
	.byte	W48
	.byte		N18   , Gn3 
	.byte		N18   , Gn4 
	.byte	W24
	.byte		N24   , Gn3 
	.byte		N24   , Gn4 
	.byte	W24
@ 205   ----------------------------------------
	.byte		N30   , Cn4 
	.byte		N30   , Cn5 
	.byte	W36
	.byte		        An3 
	.byte		N30   , An4 
	.byte	W36
	.byte		N24   , Fn3 
	.byte		N24   , Fn4 
	.byte	W24
@ 206   ----------------------------------------
mus_thpprf_idolatrizeworld_4_206:
	.byte		TIE   , Cn3 , v112
	.byte		TIE   , Gn3 
	.byte		TIE   , Cn4 
	.byte		TIE   , Gn4 
	.byte	W96
	.byte	PEND
@ 207   ----------------------------------------
	.byte	W96
	.byte		EOT   , Cn3 
	.byte		        Cn4 
@ 208   ----------------------------------------
mus_thpprf_idolatrizeworld_4_208:
	.byte		TIE   , Bn2 , v112
	.byte		TIE   , Bn3 
	.byte	W96
	.byte	PEND
@ 209   ----------------------------------------
	.byte	W96
	.byte		EOT   , Bn2 
	.byte		        Gn3 
	.byte		        Bn3 
	.byte		        Gn4 
@ 210   ----------------------------------------
mus_thpprf_idolatrizeworld_4_210:
	.byte		N48   , Fn3 , v112
	.byte		N48   , As3 , v076
	.byte		N48   , Fn4 , v112
	.byte	W48
	.byte		N24   , Gn3 
	.byte		N24   , Dn4 , v076
	.byte		N24   , Gn4 , v112
	.byte	W24
	.byte		N48   , Gn3 
	.byte		N48   , Dn4 , v076
	.byte		N48   , Gn4 , v112
	.byte	W24
	.byte	PEND
@ 211   ----------------------------------------
mus_thpprf_idolatrizeworld_4_211:
	.byte	W24
	.byte		N24   , Dn3 , v112
	.byte		N24   , As3 , v076
	.byte		N24   , Dn4 , v112
	.byte	W24
	.byte		        Gn3 
	.byte		N24   , Dn4 , v076
	.byte		N24   , Gn4 , v112
	.byte	W24
	.byte		        Dn3 
	.byte		N24   , As3 , v076
	.byte		N24   , Dn4 , v112
	.byte	W24
	.byte	PEND
@ 212   ----------------------------------------
mus_thpprf_idolatrizeworld_4_212:
	.byte		N48   , Fn3 , v112
	.byte		N48   , Cn4 , v076
	.byte		N48   , Fn4 , v112
	.byte	W48
	.byte		N24   , Gn3 
	.byte		N24   , Dn4 , v076
	.byte		N24   , Gn4 , v112
	.byte	W24
	.byte		N48   , Gn3 
	.byte		N48   , Dn4 , v076
	.byte		N48   , Gn4 , v112
	.byte	W24
	.byte	PEND
@ 213   ----------------------------------------
mus_thpprf_idolatrizeworld_4_213:
	.byte	W24
	.byte		N24   , An2 , v112
	.byte		N24   , Fn3 , v076
	.byte		N24   , An3 , v112
	.byte	W24
	.byte		        Fn3 
	.byte		N24   , Cn4 , v076
	.byte		N24   , Fn4 , v112
	.byte	W24
	.byte		        An2 
	.byte		N24   , Fn3 , v076
	.byte		N24   , An3 , v112
	.byte	W24
	.byte	PEND
@ 214   ----------------------------------------
mus_thpprf_idolatrizeworld_4_214:
	.byte		N48   , Fn3 , v112
	.byte		N48   , An3 , v076
	.byte		N48   , Fn4 , v112
	.byte	W48
	.byte		N24   , Gn3 
	.byte		N24   , Cn4 , v076
	.byte		N24   , Gn4 , v112
	.byte	W24
	.byte		N48   , Gn3 
	.byte		N48   , Cn4 , v076
	.byte		N48   , Gn4 , v112
	.byte	W24
	.byte	PEND
@ 215   ----------------------------------------
mus_thpprf_idolatrizeworld_4_215:
	.byte	W24
	.byte		N24   , Fs3 , v112
	.byte		N24   , Cn4 , v076
	.byte		N24   , Fs4 , v112
	.byte	W24
	.byte		        An3 
	.byte		N24   , Fs4 , v076
	.byte		N24   , An4 , v112
	.byte	W24
	.byte		        Dn4 
	.byte		N24   , An4 , v076
	.byte		N24   , Dn5 , v112
	.byte	W24
	.byte	PEND
@ 216   ----------------------------------------
mus_thpprf_idolatrizeworld_4_216:
	.byte		N48   , Cn4 , v112
	.byte		N48   , Gn4 , v076
	.byte		N48   , Cn5 , v112
	.byte	W48
	.byte		N24   , Gn3 
	.byte		N24   , Dn4 , v076
	.byte		N24   , Gn4 , v112
	.byte	W24
	.byte		        Cn4 
	.byte		N24   , Gn4 , v076
	.byte		N24   , Cn5 , v112
	.byte	W24
	.byte	PEND
@ 217   ----------------------------------------
mus_thpprf_idolatrizeworld_4_217:
	.byte		N24   , As3 , v112
	.byte		N24   , Gn4 , v076
	.byte		N24   , As4 , v112
	.byte	W24
	.byte		N48   , An3 
	.byte		N48   , Fn4 , v076
	.byte		N48   , An4 , v112
	.byte	W48
	.byte		N72   , Fn3 
	.byte		N72   , Cn4 , v076
	.byte		N72   , Fn4 , v112
	.byte	W24
	.byte	PEND
@ 218   ----------------------------------------
mus_thpprf_idolatrizeworld_4_218:
	.byte	W48
	.byte		N24   , Gn3 , v112
	.byte		N24   , Dn4 , v076
	.byte		N24   , Gn4 , v112
	.byte	W24
	.byte		N48   , Gn3 
	.byte		N48   , Dn4 , v076
	.byte		N48   , Gn4 , v112
	.byte	W24
	.byte	PEND
@ 219   ----------------------------------------
	.byte	PATT
	 .word	mus_thpprf_idolatrizeworld_4_211
@ 220   ----------------------------------------
	.byte		N48   , Fn3 , v112
	.byte		N48   , An3 , v076
	.byte		N48   , Fn4 , v112
	.byte	W48
	.byte		N24   , Gn3 
	.byte		N24   , Dn4 , v076
	.byte		N24   , Gn4 , v112
	.byte	W24
	.byte		N48   , Gn3 
	.byte		N48   , Dn4 , v076
	.byte		N48   , Gn4 , v112
	.byte	W24
@ 221   ----------------------------------------
	.byte	W24
	.byte		N24   , Fn3 
	.byte		N24   , An3 , v076
	.byte		N24   , Fn4 , v112
	.byte	W24
	.byte		        Gn3 
	.byte		N24   , As3 , v076
	.byte		N24   , Gn4 , v112
	.byte	W24
	.byte		        An3 
	.byte		N24   , Cn4 , v076
	.byte		N24   , An4 , v112
	.byte	W24
@ 222   ----------------------------------------
	.byte		N48   , As3 
	.byte		N48   , Dn4 , v076
	.byte		N48   , As4 , v112
	.byte	W48
	.byte		N24   , An3 
	.byte		N24   , Cn4 , v076
	.byte		N24   , An4 , v112
	.byte	W24
	.byte		N48   , As3 
	.byte		N48   , Dn4 , v076
	.byte		N48   , As4 , v112
	.byte	W24
@ 223   ----------------------------------------
	.byte	W24
	.byte		N24   , As3 
	.byte		N24   , Dn4 , v076
	.byte		N24   , As4 , v112
	.byte	W24
	.byte		        An3 
	.byte		N24   , Cn4 , v076
	.byte		N24   , An4 , v112
	.byte	W24
	.byte		        Fn3 
	.byte		N24   , An3 , v076
	.byte		N24   , Fn4 , v112
	.byte	W24
@ 224   ----------------------------------------
	.byte		N96   , Dn3 
	.byte		N96   , As3 , v076
	.byte		N96   , Dn4 , v112
	.byte	W90
	.byte		N06   , Fn3 
	.byte		N06   , Fn4 
	.byte	W06
@ 225   ----------------------------------------
	.byte		N72   , Gn3 
	.byte		N72   , As3 , v076
	.byte		N72   , Gn4 , v112
	.byte	W72
	.byte		N12   , As2 
	.byte		N12   , As3 
	.byte	W12
	.byte		        An2 
	.byte		N12   , An3 
	.byte	W12
@ 226   ----------------------------------------
	.byte	PATT
	 .word	mus_thpprf_idolatrizeworld_4_210
@ 227   ----------------------------------------
	.byte	PATT
	 .word	mus_thpprf_idolatrizeworld_4_211
@ 228   ----------------------------------------
	.byte	PATT
	 .word	mus_thpprf_idolatrizeworld_4_212
@ 229   ----------------------------------------
	.byte	PATT
	 .word	mus_thpprf_idolatrizeworld_4_213
@ 230   ----------------------------------------
	.byte	PATT
	 .word	mus_thpprf_idolatrizeworld_4_214
@ 231   ----------------------------------------
	.byte	PATT
	 .word	mus_thpprf_idolatrizeworld_4_215
@ 232   ----------------------------------------
	.byte	PATT
	 .word	mus_thpprf_idolatrizeworld_4_216
@ 233   ----------------------------------------
	.byte	PATT
	 .word	mus_thpprf_idolatrizeworld_4_217
@ 234   ----------------------------------------
	.byte	PATT
	 .word	mus_thpprf_idolatrizeworld_4_218
@ 235   ----------------------------------------
	.byte	PATT
	 .word	mus_thpprf_idolatrizeworld_4_211
@ 236   ----------------------------------------
	.byte		N48   , Fn3 , v112
	.byte		N48   , Cn4 , v076
	.byte		N48   , Fn4 , v112
	.byte	W48
	.byte		N24   , Gn3 
	.byte		N24   , Dn4 , v076
	.byte		N24   , Gn4 , v112
	.byte	W24
	.byte		        Gn3 
	.byte		N24   , Dn4 , v076
	.byte		N24   , Gn4 , v112
	.byte	W24
@ 237   ----------------------------------------
	.byte		N36   , Cn4 
	.byte		N36   , An4 , v076
	.byte		N36   , Cn5 , v112
	.byte	W36
	.byte		        An3 
	.byte		N36   , Fn4 , v076
	.byte		N36   , An4 , v112
	.byte	W36
	.byte		N24   , Fn3 
	.byte		N24   , Cn4 , v076
	.byte		N24   , Fn4 , v112
	.byte	W24
@ 238   ----------------------------------------
	.byte	PATT
	 .word	mus_thpprf_idolatrizeworld_4_206
@ 239   ----------------------------------------
	.byte	W96
	.byte		EOT   , Cn3 
	.byte		        Cn4 
@ 240   ----------------------------------------
	.byte	PATT
	 .word	mus_thpprf_idolatrizeworld_4_208
@ 241   ----------------------------------------
	.byte	W96
	.byte		EOT   , Bn2 
	.byte		        Gn3 
	.byte		        Bn3 
	.byte		        Gn4 
@ 242   ----------------------------------------
	.byte	W96
@ 243   ----------------------------------------
	.byte	W96
@ 244   ----------------------------------------
	.byte	W96
@ 245   ----------------------------------------
	.byte	W96
@ 246   ----------------------------------------
	.byte	W96
@ 247   ----------------------------------------
	.byte	W96
@ 248   ----------------------------------------
	.byte	W96
@ 249   ----------------------------------------
	.byte	W96
@ 250   ----------------------------------------
	.byte	W96
@ 251   ----------------------------------------
	.byte	W96
@ 252   ----------------------------------------
	.byte	W96
@ 253   ----------------------------------------
	.byte	W96
@ 254   ----------------------------------------
	.byte	W96
@ 255   ----------------------------------------
	.byte	W96
@ 256   ----------------------------------------
	.byte	W96
@ 257   ----------------------------------------
	.byte	W96
@ 258   ----------------------------------------
	.byte	W96
@ 259   ----------------------------------------
	.byte	W96
@ 260   ----------------------------------------
	.byte	W96
@ 261   ----------------------------------------
	.byte	W96
@ 262   ----------------------------------------
	.byte	W96
@ 263   ----------------------------------------
	.byte	W96
@ 264   ----------------------------------------
	.byte	W96
@ 265   ----------------------------------------
	.byte	W96
@ 266   ----------------------------------------
	.byte	W96
@ 267   ----------------------------------------
	.byte	W96
@ 268   ----------------------------------------
	.byte	W96
@ 269   ----------------------------------------
	.byte	W96
@ 270   ----------------------------------------
	.byte	W96
@ 271   ----------------------------------------
	.byte	W96
@ 272   ----------------------------------------
	.byte	W96
@ 273   ----------------------------------------
	.byte	W96
@ 274   ----------------------------------------
	.byte	W96
@ 275   ----------------------------------------
	.byte	W96
@ 276   ----------------------------------------
	.byte	W96
@ 277   ----------------------------------------
	.byte	W96
@ 278   ----------------------------------------
	.byte	W96
@ 279   ----------------------------------------
	.byte	W96
@ 280   ----------------------------------------
	.byte	W96
@ 281   ----------------------------------------
	.byte	W96
@ 282   ----------------------------------------
	.byte	W96
@ 283   ----------------------------------------
	.byte	W96
@ 284   ----------------------------------------
	.byte	W96
@ 285   ----------------------------------------
	.byte	W96
@ 286   ----------------------------------------
	.byte	W96
@ 287   ----------------------------------------
	.byte	W96
@ 288   ----------------------------------------
	.byte	W96
@ 289   ----------------------------------------
	.byte	W96
@ 290   ----------------------------------------
	.byte	W96
@ 291   ----------------------------------------
	.byte	W96
@ 292   ----------------------------------------
	.byte	W96
@ 293   ----------------------------------------
	.byte	W96
@ 294   ----------------------------------------
	.byte	W96
@ 295   ----------------------------------------
	.byte	W96
@ 296   ----------------------------------------
	.byte	W96
@ 297   ----------------------------------------
	.byte	W96
@ 298   ----------------------------------------
	.byte	W96
@ 299   ----------------------------------------
	.byte	W96
@ 300   ----------------------------------------
	.byte	W96
@ 301   ----------------------------------------
	.byte	W96
@ 302   ----------------------------------------
	.byte	W96
@ 303   ----------------------------------------
	.byte	W96
@ 304   ----------------------------------------
	.byte	W96
@ 305   ----------------------------------------
	.byte	W96
@ 306   ----------------------------------------
	.byte	W96
@ 307   ----------------------------------------
	.byte	W96
@ 308   ----------------------------------------
	.byte	W96
@ 309   ----------------------------------------
	.byte	W96
@ 310   ----------------------------------------
	.byte	W96
@ 311   ----------------------------------------
	.byte	W96
@ 312   ----------------------------------------
	.byte	W96
@ 313   ----------------------------------------
	.byte	W96
@ 314   ----------------------------------------
	.byte	W96
@ 315   ----------------------------------------
	.byte	W96
@ 316   ----------------------------------------
	.byte	W96
@ 317   ----------------------------------------
	.byte	W96
@ 318   ----------------------------------------
	.byte	W96
@ 319   ----------------------------------------
	.byte	W96
@ 320   ----------------------------------------
	.byte	W96
@ 321   ----------------------------------------
	.byte	W96
@ 322   ----------------------------------------
	.byte	W96
@ 323   ----------------------------------------
	.byte	W96
@ 324   ----------------------------------------
	.byte	W96
@ 325   ----------------------------------------
	.byte	W96
@ 326   ----------------------------------------
	.byte	W96
@ 327   ----------------------------------------
	.byte	W96
@ 328   ----------------------------------------
	.byte	W96
@ 329   ----------------------------------------
	.byte	W96
@ 330   ----------------------------------------
	.byte	W96
@ 331   ----------------------------------------
	.byte	W96
@ 332   ----------------------------------------
	.byte	W96
@ 333   ----------------------------------------
	.byte	W96
@ 334   ----------------------------------------
	.byte	W96
@ 335   ----------------------------------------
	.byte	W96
@ 336   ----------------------------------------
	.byte	W96
@ 337   ----------------------------------------
	.byte	W96
@ 338   ----------------------------------------
	.byte	GOTO
	.word	mus_thpprf_idolatrizeworld_4_049
	.byte	FINE

@**************** Track 5 (Midi-Chn.5) ****************@

mus_thpprf_idolatrizeworld_5:
	.byte	KEYSH , mus_thpprf_idolatrizeworld_key+0
@ 000   ----------------------------------------
	.byte	W28
	.byte		VOICE , 73
	.byte		PAN   , c_v+0
	.byte		VOL   , 68*mus_thpprf_idolatrizeworld_mvl/mxv
	.byte	W02
	.byte		MOD   , 0
	.byte	W66
@ 001   ----------------------------------------
	.byte		TIE   , Cs4 , v112
	.byte	W96
@ 002   ----------------------------------------
	.byte	W96
@ 003   ----------------------------------------
	.byte	W96
@ 004   ----------------------------------------
	.byte	W48
	.byte		EOT   
	.byte	W48
@ 005   ----------------------------------------
	.byte		TIE   , Dn4 
	.byte	W96
@ 006   ----------------------------------------
	.byte	W96
@ 007   ----------------------------------------
	.byte	W96
	.byte		EOT   
@ 008   ----------------------------------------
mus_thpprf_idolatrizeworld_5_008:
	.byte	W24
	.byte		N24   , Fs3 , v112
	.byte	W24
	.byte		        En4 
	.byte	W24
	.byte		        Fs4 
	.byte	W24
	.byte	PEND
@ 009   ----------------------------------------
	.byte		TIE   , En4 
	.byte	W96
@ 010   ----------------------------------------
	.byte	W96
@ 011   ----------------------------------------
	.byte	W96
	.byte		EOT   
@ 012   ----------------------------------------
mus_thpprf_idolatrizeworld_5_012:
	.byte	W24
	.byte		N24   , En4 , v112
	.byte	W24
	.byte		        Dn4 
	.byte	W24
	.byte		        Cs4 
	.byte	W24
	.byte	PEND
@ 013   ----------------------------------------
	.byte		N84   , Dn4 
	.byte	W96
@ 014   ----------------------------------------
	.byte		        Fs4 
	.byte	W96
@ 015   ----------------------------------------
mus_thpprf_idolatrizeworld_5_015:
	.byte		N84   , En4 , v112
	.byte	W84
	.byte		N12   , Dn4 
	.byte	W12
	.byte	PEND
@ 016   ----------------------------------------
	.byte		N84   , Cs4 
	.byte	W96
@ 017   ----------------------------------------
	.byte		TIE   , Dn4 
	.byte	W96
@ 018   ----------------------------------------
	.byte	W96
	.byte		EOT   
@ 019   ----------------------------------------
	.byte		N96   , Cs5 
	.byte	W96
@ 020   ----------------------------------------
	.byte		N72   , Bn4 
	.byte	W96
@ 021   ----------------------------------------
	.byte		TIE   , Dn4 
	.byte	W96
@ 022   ----------------------------------------
	.byte	W96
@ 023   ----------------------------------------
	.byte	W72
	.byte		EOT   
	.byte	W24
@ 024   ----------------------------------------
mus_thpprf_idolatrizeworld_5_024:
	.byte		N24   , An3 , v112
	.byte		N24   , Cs4 
	.byte	W24
	.byte		        Bn3 
	.byte		N24   , Dn4 
	.byte	W24
	.byte		N48   , Cs4 
	.byte		N48   , En4 
	.byte	W48
	.byte	PEND
@ 025   ----------------------------------------
mus_thpprf_idolatrizeworld_5_025:
	.byte		TIE   , Dn4 , v112
	.byte		TIE   , Fs4 
	.byte	W96
	.byte	PEND
@ 026   ----------------------------------------
	.byte	W96
	.byte		EOT   
@ 027   ----------------------------------------
	.byte		N96   , En4 
	.byte	W96
@ 028   ----------------------------------------
	.byte		        Gs4 
	.byte	W96
	.byte		EOT   , Dn4 
@ 029   ----------------------------------------
mus_thpprf_idolatrizeworld_5_029:
	.byte		N72   , Fs4 , v092
	.byte		N72   , Bn4 , v112
	.byte	W96
	.byte	PEND
@ 030   ----------------------------------------
mus_thpprf_idolatrizeworld_5_030:
	.byte		N72   , Bn4 , v092
	.byte		N72   , Dn5 , v112
	.byte	W96
	.byte	PEND
@ 031   ----------------------------------------
mus_thpprf_idolatrizeworld_5_031:
	.byte		N72   , As4 , v092
	.byte		N72   , Cs5 , v112
	.byte	W96
	.byte	PEND
@ 032   ----------------------------------------
mus_thpprf_idolatrizeworld_5_032:
	.byte		N72   , Fs4 , v092
	.byte		N72   , As4 , v112
	.byte	W96
	.byte	PEND
@ 033   ----------------------------------------
mus_thpprf_idolatrizeworld_5_033:
	.byte		TIE   , Fs4 , v092
	.byte		TIE   , Bn4 , v112
	.byte	W96
	.byte	PEND
@ 034   ----------------------------------------
	.byte	W96
@ 035   ----------------------------------------
	.byte	W96
@ 036   ----------------------------------------
	.byte	W96
@ 037   ----------------------------------------
	.byte	W96
@ 038   ----------------------------------------
	.byte	W96
@ 039   ----------------------------------------
	.byte	W96
@ 040   ----------------------------------------
	.byte	W96
@ 041   ----------------------------------------
	.byte	W48
	.byte		EOT   , Fs4 
	.byte		        Bn4 
	.byte	W48
@ 042   ----------------------------------------
	.byte	W96
@ 043   ----------------------------------------
	.byte	W96
@ 044   ----------------------------------------
	.byte	W96
@ 045   ----------------------------------------
	.byte	W96
@ 046   ----------------------------------------
	.byte	W96
@ 047   ----------------------------------------
	.byte	W96
@ 048   ----------------------------------------
	.byte	W96
@ 049   ----------------------------------------
mus_thpprf_idolatrizeworld_5_049:
	.byte	W96
@ 050   ----------------------------------------
	.byte	W96
@ 051   ----------------------------------------
	.byte	W96
@ 052   ----------------------------------------
	.byte	W96
@ 053   ----------------------------------------
	.byte	W96
@ 054   ----------------------------------------
	.byte	W96
@ 055   ----------------------------------------
	.byte	W96
@ 056   ----------------------------------------
	.byte	W96
@ 057   ----------------------------------------
	.byte	W96
@ 058   ----------------------------------------
	.byte	W96
@ 059   ----------------------------------------
	.byte	W96
@ 060   ----------------------------------------
	.byte	W96
@ 061   ----------------------------------------
	.byte	W96
@ 062   ----------------------------------------
	.byte	W96
@ 063   ----------------------------------------
	.byte	W96
@ 064   ----------------------------------------
	.byte	W96
@ 065   ----------------------------------------
	.byte	W96
@ 066   ----------------------------------------
	.byte	W96
@ 067   ----------------------------------------
	.byte	W96
@ 068   ----------------------------------------
	.byte	W96
@ 069   ----------------------------------------
	.byte	W96
@ 070   ----------------------------------------
	.byte	W96
@ 071   ----------------------------------------
	.byte	W96
@ 072   ----------------------------------------
	.byte	W96
@ 073   ----------------------------------------
	.byte	W96
@ 074   ----------------------------------------
	.byte	W96
@ 075   ----------------------------------------
	.byte	W96
@ 076   ----------------------------------------
	.byte	W96
@ 077   ----------------------------------------
	.byte	W96
@ 078   ----------------------------------------
	.byte	W96
@ 079   ----------------------------------------
	.byte	W96
@ 080   ----------------------------------------
	.byte	W96
@ 081   ----------------------------------------
	.byte	W96
@ 082   ----------------------------------------
	.byte	W96
@ 083   ----------------------------------------
	.byte	W96
@ 084   ----------------------------------------
	.byte	W96
@ 085   ----------------------------------------
	.byte	W96
@ 086   ----------------------------------------
	.byte	W96
@ 087   ----------------------------------------
	.byte	W96
@ 088   ----------------------------------------
	.byte	W96
@ 089   ----------------------------------------
	.byte	W96
@ 090   ----------------------------------------
	.byte	W96
@ 091   ----------------------------------------
	.byte	W96
@ 092   ----------------------------------------
	.byte	W96
@ 093   ----------------------------------------
	.byte	W96
@ 094   ----------------------------------------
	.byte	W96
@ 095   ----------------------------------------
	.byte	W96
@ 096   ----------------------------------------
	.byte	W96
@ 097   ----------------------------------------
	.byte	W96
@ 098   ----------------------------------------
	.byte	W96
@ 099   ----------------------------------------
	.byte	W96
@ 100   ----------------------------------------
	.byte	W96
@ 101   ----------------------------------------
	.byte	W96
@ 102   ----------------------------------------
	.byte	W96
@ 103   ----------------------------------------
	.byte	W96
@ 104   ----------------------------------------
	.byte	W96
@ 105   ----------------------------------------
	.byte	W96
@ 106   ----------------------------------------
	.byte	W96
@ 107   ----------------------------------------
	.byte	W96
@ 108   ----------------------------------------
	.byte	W96
@ 109   ----------------------------------------
	.byte	W96
@ 110   ----------------------------------------
	.byte	W96
@ 111   ----------------------------------------
	.byte	W96
@ 112   ----------------------------------------
	.byte	W96
@ 113   ----------------------------------------
	.byte	W96
@ 114   ----------------------------------------
	.byte	W96
@ 115   ----------------------------------------
	.byte	W96
@ 116   ----------------------------------------
	.byte		N96   , Bn3 , v072
	.byte		N96   , En4 
	.byte	W96
@ 117   ----------------------------------------
	.byte	W96
@ 118   ----------------------------------------
	.byte	W96
@ 119   ----------------------------------------
	.byte		TIE   , Bn3 
	.byte		TIE   , En4 
	.byte	W96
@ 120   ----------------------------------------
	.byte	W96
	.byte		EOT   , Bn3 
	.byte		        En4 
@ 121   ----------------------------------------
	.byte	W96
@ 122   ----------------------------------------
	.byte	W96
@ 123   ----------------------------------------
	.byte	W96
@ 124   ----------------------------------------
	.byte		N96   , Bn3 
	.byte		N96   , En4 
	.byte	W96
@ 125   ----------------------------------------
	.byte	W96
@ 126   ----------------------------------------
	.byte	W96
@ 127   ----------------------------------------
	.byte		TIE   , Bn3 
	.byte		N96   , En4 
	.byte	W96
@ 128   ----------------------------------------
	.byte		        Fs4 
	.byte	W96
	.byte		EOT   , Bn3 
@ 129   ----------------------------------------
	.byte		N48   , Gn4 
	.byte		N48   , As4 
	.byte	W96
@ 130   ----------------------------------------
mus_thpprf_idolatrizeworld_5_130:
	.byte	W48
	.byte		N48   , Gn4 , v072
	.byte		N48   , As4 
	.byte	W48
	.byte	PEND
@ 131   ----------------------------------------
	.byte	W96
@ 132   ----------------------------------------
	.byte		N96   , Gn4 
	.byte		N48   , As4 
	.byte	W48
	.byte		        An4 
	.byte	W48
@ 133   ----------------------------------------
	.byte		        Gn4 
	.byte		N48   , As4 
	.byte	W96
@ 134   ----------------------------------------
	.byte	PATT
	 .word	mus_thpprf_idolatrizeworld_5_130
@ 135   ----------------------------------------
	.byte	W96
@ 136   ----------------------------------------
	.byte		N48   , Gn4 , v072
	.byte		N48   , As4 
	.byte	W48
	.byte		        An4 
	.byte		N48   , Cn5 
	.byte	W48
@ 137   ----------------------------------------
	.byte		        Gn4 
	.byte		N48   , As4 
	.byte	W96
@ 138   ----------------------------------------
	.byte	PATT
	 .word	mus_thpprf_idolatrizeworld_5_130
@ 139   ----------------------------------------
	.byte	W96
@ 140   ----------------------------------------
	.byte		N96   , Gn4 , v072
	.byte		N96   , As4 
	.byte	W96
@ 141   ----------------------------------------
	.byte		N48   , Gn4 
	.byte		N48   , As4 
	.byte	W96
@ 142   ----------------------------------------
	.byte	PATT
	 .word	mus_thpprf_idolatrizeworld_5_130
@ 143   ----------------------------------------
	.byte	W96
@ 144   ----------------------------------------
	.byte		N48   , Gn4 , v072
	.byte		N24   , As4 
	.byte	W24
	.byte		N24   
	.byte	W24
	.byte		N48   , Fn4 
	.byte		N24   , An4 
	.byte	W48
@ 145   ----------------------------------------
	.byte	W96
@ 146   ----------------------------------------
	.byte	W96
@ 147   ----------------------------------------
	.byte	W96
@ 148   ----------------------------------------
	.byte	W96
@ 149   ----------------------------------------
	.byte	W96
@ 150   ----------------------------------------
	.byte	W96
@ 151   ----------------------------------------
	.byte	W96
@ 152   ----------------------------------------
	.byte	W96
@ 153   ----------------------------------------
	.byte	W96
@ 154   ----------------------------------------
	.byte	W96
@ 155   ----------------------------------------
	.byte	W96
@ 156   ----------------------------------------
	.byte	W96
@ 157   ----------------------------------------
	.byte	W96
@ 158   ----------------------------------------
	.byte	W96
@ 159   ----------------------------------------
	.byte	W96
@ 160   ----------------------------------------
	.byte	W96
@ 161   ----------------------------------------
	.byte	W96
@ 162   ----------------------------------------
	.byte	W96
@ 163   ----------------------------------------
	.byte	W96
@ 164   ----------------------------------------
	.byte	W96
@ 165   ----------------------------------------
	.byte	W96
@ 166   ----------------------------------------
	.byte	W96
@ 167   ----------------------------------------
	.byte	W96
@ 168   ----------------------------------------
	.byte	W96
@ 169   ----------------------------------------
	.byte	W96
@ 170   ----------------------------------------
	.byte	W96
@ 171   ----------------------------------------
	.byte	W96
@ 172   ----------------------------------------
	.byte	W96
@ 173   ----------------------------------------
	.byte	W96
@ 174   ----------------------------------------
	.byte	W96
@ 175   ----------------------------------------
	.byte	W96
@ 176   ----------------------------------------
	.byte	W96
@ 177   ----------------------------------------
	.byte	W96
@ 178   ----------------------------------------
	.byte	W96
@ 179   ----------------------------------------
	.byte	W96
@ 180   ----------------------------------------
	.byte	W96
@ 181   ----------------------------------------
	.byte	W96
@ 182   ----------------------------------------
	.byte	W96
@ 183   ----------------------------------------
	.byte	W96
@ 184   ----------------------------------------
	.byte	W96
@ 185   ----------------------------------------
	.byte	W96
@ 186   ----------------------------------------
	.byte	W96
@ 187   ----------------------------------------
	.byte	W96
@ 188   ----------------------------------------
	.byte	W96
@ 189   ----------------------------------------
	.byte	W96
@ 190   ----------------------------------------
	.byte	W96
@ 191   ----------------------------------------
	.byte	W96
@ 192   ----------------------------------------
	.byte	W96
@ 193   ----------------------------------------
	.byte	W96
@ 194   ----------------------------------------
	.byte	W96
@ 195   ----------------------------------------
	.byte	W96
@ 196   ----------------------------------------
	.byte	W96
@ 197   ----------------------------------------
	.byte	W96
@ 198   ----------------------------------------
	.byte	W96
@ 199   ----------------------------------------
	.byte	W96
@ 200   ----------------------------------------
	.byte	W96
@ 201   ----------------------------------------
	.byte	W96
@ 202   ----------------------------------------
	.byte	W96
@ 203   ----------------------------------------
	.byte	W96
@ 204   ----------------------------------------
	.byte	W96
@ 205   ----------------------------------------
	.byte	W96
@ 206   ----------------------------------------
	.byte	W96
@ 207   ----------------------------------------
	.byte	W96
@ 208   ----------------------------------------
	.byte	W96
@ 209   ----------------------------------------
	.byte	W96
@ 210   ----------------------------------------
	.byte	W96
@ 211   ----------------------------------------
	.byte	W96
@ 212   ----------------------------------------
	.byte	W96
@ 213   ----------------------------------------
	.byte	W96
@ 214   ----------------------------------------
	.byte	W96
@ 215   ----------------------------------------
	.byte	W96
@ 216   ----------------------------------------
	.byte	W96
@ 217   ----------------------------------------
	.byte	W96
@ 218   ----------------------------------------
	.byte	W96
@ 219   ----------------------------------------
	.byte	W96
@ 220   ----------------------------------------
	.byte	W96
@ 221   ----------------------------------------
	.byte	W96
@ 222   ----------------------------------------
	.byte	W96
@ 223   ----------------------------------------
	.byte	W96
@ 224   ----------------------------------------
	.byte	W96
@ 225   ----------------------------------------
	.byte	W96
@ 226   ----------------------------------------
	.byte	W96
@ 227   ----------------------------------------
	.byte	W96
@ 228   ----------------------------------------
	.byte	W96
@ 229   ----------------------------------------
	.byte	W96
@ 230   ----------------------------------------
	.byte	W96
@ 231   ----------------------------------------
	.byte	W96
@ 232   ----------------------------------------
	.byte	W96
@ 233   ----------------------------------------
	.byte	W96
@ 234   ----------------------------------------
	.byte	W96
@ 235   ----------------------------------------
	.byte	W96
@ 236   ----------------------------------------
	.byte	W96
@ 237   ----------------------------------------
	.byte	W96
@ 238   ----------------------------------------
	.byte	W96
@ 239   ----------------------------------------
	.byte	W96
@ 240   ----------------------------------------
	.byte	W96
@ 241   ----------------------------------------
	.byte	W96
@ 242   ----------------------------------------
	.byte	W96
@ 243   ----------------------------------------
	.byte	W96
@ 244   ----------------------------------------
	.byte	W96
@ 245   ----------------------------------------
	.byte	W96
@ 246   ----------------------------------------
	.byte	W96
@ 247   ----------------------------------------
	.byte	W96
@ 248   ----------------------------------------
	.byte	W96
@ 249   ----------------------------------------
	.byte	W96
@ 250   ----------------------------------------
	.byte	W96
@ 251   ----------------------------------------
	.byte	W96
@ 252   ----------------------------------------
	.byte	W96
@ 253   ----------------------------------------
	.byte	W96
@ 254   ----------------------------------------
	.byte	W96
@ 255   ----------------------------------------
	.byte	W96
@ 256   ----------------------------------------
	.byte	W96
@ 257   ----------------------------------------
	.byte	W96
@ 258   ----------------------------------------
	.byte	W96
@ 259   ----------------------------------------
	.byte	W96
@ 260   ----------------------------------------
	.byte	W96
@ 261   ----------------------------------------
	.byte	W96
@ 262   ----------------------------------------
	.byte	W96
@ 263   ----------------------------------------
	.byte	W96
@ 264   ----------------------------------------
	.byte	W96
@ 265   ----------------------------------------
	.byte	W96
@ 266   ----------------------------------------
	.byte	W96
@ 267   ----------------------------------------
	.byte	W96
@ 268   ----------------------------------------
	.byte	W96
@ 269   ----------------------------------------
	.byte	W96
@ 270   ----------------------------------------
	.byte	W96
@ 271   ----------------------------------------
	.byte	W96
@ 272   ----------------------------------------
	.byte	W96
@ 273   ----------------------------------------
	.byte	W96
@ 274   ----------------------------------------
mus_thpprf_idolatrizeworld_5_274:
	.byte		TIE   , As2 , v112
	.byte		TIE   , Cs3 
	.byte	W96
	.byte	PEND
@ 275   ----------------------------------------
	.byte	W90
	.byte		EOT   , As2 
	.byte		        Cs3 
	.byte	W06
@ 276   ----------------------------------------
mus_thpprf_idolatrizeworld_5_276:
	.byte		TIE   , Cn3 , v112
	.byte		TIE   , Ds3 
	.byte	W96
	.byte	PEND
@ 277   ----------------------------------------
	.byte	W90
	.byte		EOT   , Cn3 
	.byte		        Ds3 
	.byte	W06
@ 278   ----------------------------------------
	.byte		TIE   , An2 
	.byte		TIE   , Cn3 
	.byte	W96
@ 279   ----------------------------------------
	.byte	W90
	.byte		EOT   , An2 
	.byte		        Cn3 
	.byte	W06
@ 280   ----------------------------------------
	.byte		TIE   , Cs3 
	.byte		TIE   , Fn3 
	.byte	W96
@ 281   ----------------------------------------
	.byte	W90
	.byte		EOT   , Cs3 
	.byte		        Fn3 
	.byte	W06
@ 282   ----------------------------------------
	.byte	PATT
	 .word	mus_thpprf_idolatrizeworld_5_274
@ 283   ----------------------------------------
	.byte	W90
	.byte		EOT   , As2 
	.byte		        Cs3 
	.byte	W06
@ 284   ----------------------------------------
	.byte	PATT
	 .word	mus_thpprf_idolatrizeworld_5_276
@ 285   ----------------------------------------
	.byte	W90
	.byte		EOT   , Cn3 
	.byte		        Ds3 
	.byte	W06
@ 286   ----------------------------------------
	.byte		TIE   , Cn3 , v112
	.byte		TIE   , Fn3 
	.byte	W96
@ 287   ----------------------------------------
	.byte	W90
	.byte		EOT   , Cn3 
	.byte		        Fn3 
	.byte	W06
@ 288   ----------------------------------------
	.byte		TIE   
	.byte		TIE   , As3 
	.byte	W96
@ 289   ----------------------------------------
	.byte	W90
	.byte		EOT   , Fn3 
	.byte		        As3 
	.byte	W06
@ 290   ----------------------------------------
	.byte		TIE   , Cs4 
	.byte	W96
@ 291   ----------------------------------------
	.byte	W96
@ 292   ----------------------------------------
	.byte	W96
@ 293   ----------------------------------------
	.byte	W48
	.byte		EOT   
	.byte	W48
@ 294   ----------------------------------------
	.byte		TIE   , Dn4 
	.byte	W96
@ 295   ----------------------------------------
	.byte	W96
@ 296   ----------------------------------------
	.byte	W96
	.byte		EOT   
@ 297   ----------------------------------------
	.byte	PATT
	 .word	mus_thpprf_idolatrizeworld_5_008
@ 298   ----------------------------------------
	.byte		TIE   , En4 , v112
	.byte	W96
@ 299   ----------------------------------------
	.byte	W96
@ 300   ----------------------------------------
	.byte	W96
	.byte		EOT   
@ 301   ----------------------------------------
	.byte	PATT
	 .word	mus_thpprf_idolatrizeworld_5_012
@ 302   ----------------------------------------
	.byte		N84   , Dn4 , v112
	.byte	W96
@ 303   ----------------------------------------
	.byte		        Fs4 
	.byte	W96
@ 304   ----------------------------------------
	.byte	PATT
	 .word	mus_thpprf_idolatrizeworld_5_015
@ 305   ----------------------------------------
	.byte		N84   , Cs4 , v112
	.byte	W96
@ 306   ----------------------------------------
	.byte		TIE   , Dn4 
	.byte	W96
@ 307   ----------------------------------------
	.byte	W96
	.byte		EOT   
@ 308   ----------------------------------------
	.byte		N96   , Cs5 
	.byte	W96
@ 309   ----------------------------------------
	.byte		N72   , Bn4 
	.byte	W96
@ 310   ----------------------------------------
	.byte		TIE   , Dn4 
	.byte	W96
@ 311   ----------------------------------------
	.byte	W96
@ 312   ----------------------------------------
	.byte	W72
	.byte		EOT   
	.byte	W24
@ 313   ----------------------------------------
	.byte	PATT
	 .word	mus_thpprf_idolatrizeworld_5_024
@ 314   ----------------------------------------
	.byte	PATT
	 .word	mus_thpprf_idolatrizeworld_5_025
@ 315   ----------------------------------------
	.byte	W96
	.byte		EOT   , Fs4 
@ 316   ----------------------------------------
	.byte		N96   , En4 , v112
	.byte	W96
@ 317   ----------------------------------------
	.byte		        Gs4 
	.byte	W96
	.byte		EOT   , Dn4 
@ 318   ----------------------------------------
	.byte	PATT
	 .word	mus_thpprf_idolatrizeworld_5_029
@ 319   ----------------------------------------
	.byte	PATT
	 .word	mus_thpprf_idolatrizeworld_5_030
@ 320   ----------------------------------------
	.byte	PATT
	 .word	mus_thpprf_idolatrizeworld_5_031
@ 321   ----------------------------------------
	.byte	PATT
	 .word	mus_thpprf_idolatrizeworld_5_032
@ 322   ----------------------------------------
	.byte	PATT
	 .word	mus_thpprf_idolatrizeworld_5_033
@ 323   ----------------------------------------
	.byte	W96
@ 324   ----------------------------------------
	.byte	W96
@ 325   ----------------------------------------
	.byte	W96
@ 326   ----------------------------------------
	.byte	W96
@ 327   ----------------------------------------
	.byte	W96
@ 328   ----------------------------------------
	.byte	W96
@ 329   ----------------------------------------
	.byte	W96
@ 330   ----------------------------------------
	.byte	W48
	.byte		EOT   , Fs4 
	.byte		        Bn4 
	.byte	W48
@ 331   ----------------------------------------
	.byte	W96
@ 332   ----------------------------------------
	.byte	W96
@ 333   ----------------------------------------
	.byte	W96
@ 334   ----------------------------------------
	.byte	W96
@ 335   ----------------------------------------
	.byte	W96
@ 336   ----------------------------------------
	.byte	W96
@ 337   ----------------------------------------
	.byte	W96
@ 338   ----------------------------------------
	.byte	GOTO
	.word	mus_thpprf_idolatrizeworld_5_049
	.byte	FINE

@**************** Track 6 (Midi-Chn.6) ****************@

mus_thpprf_idolatrizeworld_6:
	.byte	KEYSH , mus_thpprf_idolatrizeworld_key+0
@ 000   ----------------------------------------
	.byte	W28
	.byte		VOICE , 48
	.byte		PAN   , c_v+0
	.byte		VOL   , 90*mus_thpprf_idolatrizeworld_mvl/mxv
	.byte	W02
	.byte		MOD   , 0
	.byte	W66
@ 001   ----------------------------------------
	.byte		TIE   , Bn0 , v100
	.byte	W96
@ 002   ----------------------------------------
	.byte	W96
	.byte		EOT   
@ 003   ----------------------------------------
mus_thpprf_idolatrizeworld_6_003:
	.byte		N24   , Bn0 , v100
	.byte	W24
	.byte		N24   
	.byte	W72
	.byte	PEND
@ 004   ----------------------------------------
	.byte	W48
	.byte		N24   
	.byte	W48
@ 005   ----------------------------------------
	.byte		TIE   , An0 
	.byte	W96
@ 006   ----------------------------------------
	.byte	W96
	.byte		EOT   
@ 007   ----------------------------------------
mus_thpprf_idolatrizeworld_6_007:
	.byte		N36   , An0 , v100
	.byte	W72
	.byte		N36   
	.byte	W24
	.byte	PEND
@ 008   ----------------------------------------
	.byte	W48
	.byte		N24   
	.byte	W48
@ 009   ----------------------------------------
	.byte		TIE   , Gs0 
	.byte	W96
@ 010   ----------------------------------------
	.byte	W96
	.byte		EOT   
@ 011   ----------------------------------------
mus_thpprf_idolatrizeworld_6_011:
	.byte		N24   , Gs0 , v100
	.byte	W24
	.byte		N24   
	.byte	W72
	.byte	PEND
@ 012   ----------------------------------------
	.byte	W48
	.byte		N24   
	.byte	W48
@ 013   ----------------------------------------
	.byte		TIE   , Gn0 
	.byte	W96
@ 014   ----------------------------------------
	.byte	W96
	.byte		EOT   
@ 015   ----------------------------------------
	.byte		N96   , An0 
	.byte	W96
@ 016   ----------------------------------------
	.byte		        As0 
	.byte	W96
@ 017   ----------------------------------------
	.byte		TIE   , Bn0 
	.byte	W96
@ 018   ----------------------------------------
	.byte	W96
	.byte		EOT   
@ 019   ----------------------------------------
	.byte	PATT
	 .word	mus_thpprf_idolatrizeworld_6_003
@ 020   ----------------------------------------
	.byte	W48
	.byte		N24   , Bn0 , v100
	.byte	W48
@ 021   ----------------------------------------
	.byte		TIE   , An0 
	.byte	W96
@ 022   ----------------------------------------
	.byte	W96
	.byte		EOT   
@ 023   ----------------------------------------
	.byte	PATT
	 .word	mus_thpprf_idolatrizeworld_6_007
@ 024   ----------------------------------------
	.byte	W48
	.byte		N24   , An0 , v100
	.byte	W48
@ 025   ----------------------------------------
	.byte		TIE   , Gs0 
	.byte	W96
@ 026   ----------------------------------------
	.byte	W96
	.byte		EOT   
@ 027   ----------------------------------------
	.byte	PATT
	 .word	mus_thpprf_idolatrizeworld_6_011
@ 028   ----------------------------------------
	.byte	W48
	.byte		N24   , Gs0 , v100
	.byte	W48
@ 029   ----------------------------------------
	.byte		N84   , Gn0 
	.byte	W96
@ 030   ----------------------------------------
	.byte		N84   
	.byte	W96
@ 031   ----------------------------------------
	.byte		        An0 
	.byte	W96
@ 032   ----------------------------------------
	.byte		        As0 
	.byte	W96
@ 033   ----------------------------------------
mus_thpprf_idolatrizeworld_6_033:
	.byte		N24   , Bn0 , v080
	.byte	W48
	.byte		N24   
	.byte	W48
	.byte	PEND
@ 034   ----------------------------------------
mus_thpprf_idolatrizeworld_6_034:
	.byte		N24   , Bn0 , v080
	.byte	W36
	.byte		N24   
	.byte	W36
	.byte		N24   
	.byte	W24
	.byte	PEND
@ 035   ----------------------------------------
mus_thpprf_idolatrizeworld_6_035:
	.byte	W12
	.byte		N24   , Bn0 , v080
	.byte	W36
	.byte		N24   
	.byte	W24
	.byte		        Fs0 
	.byte	W24
	.byte	PEND
@ 036   ----------------------------------------
mus_thpprf_idolatrizeworld_6_036:
	.byte		N24   , Dn1 , v080
	.byte	W36
	.byte		        Cs1 
	.byte	W36
	.byte		        Bn0 
	.byte	W24
	.byte	PEND
@ 037   ----------------------------------------
	.byte	PATT
	 .word	mus_thpprf_idolatrizeworld_6_033
@ 038   ----------------------------------------
	.byte	PATT
	 .word	mus_thpprf_idolatrizeworld_6_034
@ 039   ----------------------------------------
	.byte	PATT
	 .word	mus_thpprf_idolatrizeworld_6_035
@ 040   ----------------------------------------
mus_thpprf_idolatrizeworld_6_040:
	.byte		N24   , Dn1 , v080
	.byte	W24
	.byte		        Cs1 
	.byte	W24
	.byte		        Bn0 
	.byte	W48
	.byte	PEND
@ 041   ----------------------------------------
	.byte	PATT
	 .word	mus_thpprf_idolatrizeworld_6_033
@ 042   ----------------------------------------
	.byte	PATT
	 .word	mus_thpprf_idolatrizeworld_6_034
@ 043   ----------------------------------------
	.byte	PATT
	 .word	mus_thpprf_idolatrizeworld_6_035
@ 044   ----------------------------------------
	.byte	PATT
	 .word	mus_thpprf_idolatrizeworld_6_036
@ 045   ----------------------------------------
	.byte	PATT
	 .word	mus_thpprf_idolatrizeworld_6_033
@ 046   ----------------------------------------
	.byte	PATT
	 .word	mus_thpprf_idolatrizeworld_6_034
@ 047   ----------------------------------------
	.byte	PATT
	 .word	mus_thpprf_idolatrizeworld_6_035
@ 048   ----------------------------------------
	.byte	PATT
	 .word	mus_thpprf_idolatrizeworld_6_040
@ 049   ----------------------------------------
mus_thpprf_idolatrizeworld_6_049:
	.byte		N24   , Gs1 , v100
	.byte	W72
	.byte		N24   
	.byte	W24
	.byte	PEND
@ 050   ----------------------------------------
mus_thpprf_idolatrizeworld_6_050:
	.byte		N24   , Ds1 , v100
	.byte	W48
	.byte		N48   , Gs1 
	.byte	W48
	.byte	PEND
@ 051   ----------------------------------------
mus_thpprf_idolatrizeworld_6_051:
	.byte		N24   , Gn1 , v100
	.byte	W72
	.byte		N24   
	.byte	W24
	.byte	PEND
@ 052   ----------------------------------------
mus_thpprf_idolatrizeworld_6_052:
	.byte		N24   , Ds1 , v100
	.byte	W48
	.byte		N48   , Gn1 
	.byte	W48
	.byte	PEND
@ 053   ----------------------------------------
mus_thpprf_idolatrizeworld_6_053:
	.byte		N24   , Fs1 , v100
	.byte	W72
	.byte		N24   
	.byte	W24
	.byte	PEND
@ 054   ----------------------------------------
mus_thpprf_idolatrizeworld_6_054:
	.byte		N24   , Ds1 , v100
	.byte	W48
	.byte		N48   , Fs1 
	.byte	W48
	.byte	PEND
@ 055   ----------------------------------------
mus_thpprf_idolatrizeworld_6_055:
	.byte		N24   , Fn1 , v100
	.byte	W72
	.byte		N24   
	.byte	W24
	.byte	PEND
@ 056   ----------------------------------------
mus_thpprf_idolatrizeworld_6_056:
	.byte		N24   , Cs1 , v100
	.byte	W48
	.byte		N48   , Fn1 
	.byte	W48
	.byte	PEND
@ 057   ----------------------------------------
mus_thpprf_idolatrizeworld_6_057:
	.byte		N24   , En1 , v100
	.byte	W72
	.byte		N24   
	.byte	W24
	.byte	PEND
@ 058   ----------------------------------------
mus_thpprf_idolatrizeworld_6_058:
	.byte		N24   , Bn0 , v100
	.byte	W48
	.byte		N48   , En1 
	.byte	W48
	.byte	PEND
@ 059   ----------------------------------------
mus_thpprf_idolatrizeworld_6_059:
	.byte		N24   , Ds1 , v100
	.byte	W72
	.byte		N24   
	.byte	W24
	.byte	PEND
@ 060   ----------------------------------------
mus_thpprf_idolatrizeworld_6_060:
	.byte		N24   , As0 , v100
	.byte	W48
	.byte		N48   , Ds1 
	.byte	W48
	.byte	PEND
@ 061   ----------------------------------------
mus_thpprf_idolatrizeworld_6_061:
	.byte		N24   , Cs1 , v100
	.byte	W72
	.byte		N24   
	.byte	W24
	.byte	PEND
@ 062   ----------------------------------------
mus_thpprf_idolatrizeworld_6_062:
	.byte		N24   , Gs0 , v100
	.byte	W48
	.byte		N48   , Cs1 
	.byte	W48
	.byte	PEND
@ 063   ----------------------------------------
mus_thpprf_idolatrizeworld_6_063:
	.byte		N48   , Ds1 , v100
	.byte	W48
	.byte		        As0 
	.byte	W48
	.byte	PEND
@ 064   ----------------------------------------
mus_thpprf_idolatrizeworld_6_064:
	.byte		N48   , Gn1 , v100
	.byte	W48
	.byte		        Cs1 
	.byte	W48
	.byte	PEND
@ 065   ----------------------------------------
mus_thpprf_idolatrizeworld_6_065:
	.byte		N48   , Gs1 , v100
	.byte	W48
	.byte		N24   , Ds1 
	.byte	W48
	.byte	PEND
@ 066   ----------------------------------------
mus_thpprf_idolatrizeworld_6_066:
	.byte		N36   , Gs1 , v100
	.byte	W36
	.byte		        Ds1 
	.byte	W36
	.byte		N24   , Gs1 
	.byte	W24
	.byte	PEND
@ 067   ----------------------------------------
mus_thpprf_idolatrizeworld_6_067:
	.byte		N48   , Gn1 , v100
	.byte	W48
	.byte		N24   , Ds1 
	.byte	W48
	.byte	PEND
@ 068   ----------------------------------------
mus_thpprf_idolatrizeworld_6_068:
	.byte		N36   , Gn1 , v100
	.byte	W36
	.byte		        Ds1 
	.byte	W36
	.byte		N24   , Gn1 
	.byte	W24
	.byte	PEND
@ 069   ----------------------------------------
mus_thpprf_idolatrizeworld_6_069:
	.byte		N48   , Fs1 , v100
	.byte	W48
	.byte		N24   , Ds1 
	.byte	W48
	.byte	PEND
@ 070   ----------------------------------------
mus_thpprf_idolatrizeworld_6_070:
	.byte		N36   , Fs1 , v100
	.byte	W36
	.byte		        Ds1 
	.byte	W36
	.byte		N24   , Fs1 
	.byte	W24
	.byte	PEND
@ 071   ----------------------------------------
mus_thpprf_idolatrizeworld_6_071:
	.byte		N48   , Fn1 , v100
	.byte	W48
	.byte		N24   , Cs1 
	.byte	W48
	.byte	PEND
@ 072   ----------------------------------------
mus_thpprf_idolatrizeworld_6_072:
	.byte		N36   , Fn1 , v100
	.byte	W36
	.byte		        Cs1 
	.byte	W36
	.byte		N24   , Fn1 
	.byte	W24
	.byte	PEND
@ 073   ----------------------------------------
	.byte		TIE   , En1 
	.byte	W96
@ 074   ----------------------------------------
	.byte	W96
	.byte		EOT   
@ 075   ----------------------------------------
	.byte		TIE   , Fs1 
	.byte	W96
@ 076   ----------------------------------------
	.byte	W96
	.byte		EOT   
@ 077   ----------------------------------------
mus_thpprf_idolatrizeworld_6_077:
	.byte		N24   , Cs1 , v100
	.byte	W24
	.byte		        Ds1 
	.byte	W24
	.byte		        Cs1 
	.byte	W48
	.byte	PEND
@ 078   ----------------------------------------
	.byte	PATT
	 .word	mus_thpprf_idolatrizeworld_6_077
@ 079   ----------------------------------------
	.byte		N24   , Bn0 , v100
	.byte	W24
	.byte		        Ds1 
	.byte	W24
	.byte		        Bn0 
	.byte	W48
@ 080   ----------------------------------------
	.byte		N96   , Gs1 
	.byte	W96
@ 081   ----------------------------------------
	.byte	PATT
	 .word	mus_thpprf_idolatrizeworld_6_049
@ 082   ----------------------------------------
	.byte	PATT
	 .word	mus_thpprf_idolatrizeworld_6_050
@ 083   ----------------------------------------
	.byte	PATT
	 .word	mus_thpprf_idolatrizeworld_6_051
@ 084   ----------------------------------------
	.byte	PATT
	 .word	mus_thpprf_idolatrizeworld_6_052
@ 085   ----------------------------------------
	.byte	PATT
	 .word	mus_thpprf_idolatrizeworld_6_053
@ 086   ----------------------------------------
	.byte	PATT
	 .word	mus_thpprf_idolatrizeworld_6_054
@ 087   ----------------------------------------
	.byte	PATT
	 .word	mus_thpprf_idolatrizeworld_6_055
@ 088   ----------------------------------------
	.byte	PATT
	 .word	mus_thpprf_idolatrizeworld_6_056
@ 089   ----------------------------------------
	.byte	PATT
	 .word	mus_thpprf_idolatrizeworld_6_057
@ 090   ----------------------------------------
	.byte	PATT
	 .word	mus_thpprf_idolatrizeworld_6_058
@ 091   ----------------------------------------
	.byte	PATT
	 .word	mus_thpprf_idolatrizeworld_6_059
@ 092   ----------------------------------------
	.byte	PATT
	 .word	mus_thpprf_idolatrizeworld_6_060
@ 093   ----------------------------------------
	.byte	PATT
	 .word	mus_thpprf_idolatrizeworld_6_061
@ 094   ----------------------------------------
	.byte	PATT
	 .word	mus_thpprf_idolatrizeworld_6_062
@ 095   ----------------------------------------
	.byte	PATT
	 .word	mus_thpprf_idolatrizeworld_6_063
@ 096   ----------------------------------------
	.byte	PATT
	 .word	mus_thpprf_idolatrizeworld_6_064
@ 097   ----------------------------------------
	.byte	PATT
	 .word	mus_thpprf_idolatrizeworld_6_065
@ 098   ----------------------------------------
	.byte	PATT
	 .word	mus_thpprf_idolatrizeworld_6_066
@ 099   ----------------------------------------
	.byte	PATT
	 .word	mus_thpprf_idolatrizeworld_6_067
@ 100   ----------------------------------------
	.byte	PATT
	 .word	mus_thpprf_idolatrizeworld_6_068
@ 101   ----------------------------------------
	.byte	PATT
	 .word	mus_thpprf_idolatrizeworld_6_069
@ 102   ----------------------------------------
	.byte	PATT
	 .word	mus_thpprf_idolatrizeworld_6_070
@ 103   ----------------------------------------
	.byte	PATT
	 .word	mus_thpprf_idolatrizeworld_6_071
@ 104   ----------------------------------------
	.byte	PATT
	 .word	mus_thpprf_idolatrizeworld_6_072
@ 105   ----------------------------------------
	.byte		TIE   , En1 , v100
	.byte	W96
@ 106   ----------------------------------------
	.byte	W96
	.byte		EOT   
@ 107   ----------------------------------------
	.byte		TIE   , Fs1 
	.byte	W96
@ 108   ----------------------------------------
	.byte	W96
	.byte		EOT   
@ 109   ----------------------------------------
	.byte	PATT
	 .word	mus_thpprf_idolatrizeworld_6_077
@ 110   ----------------------------------------
	.byte	PATT
	 .word	mus_thpprf_idolatrizeworld_6_077
@ 111   ----------------------------------------
	.byte		N24   , Cn1 , v100
	.byte	W24
	.byte		        Ds1 
	.byte	W24
	.byte		        Cn1 
	.byte	W48
@ 112   ----------------------------------------
	.byte		N96   , Gs1 
	.byte	W96
@ 113   ----------------------------------------
mus_thpprf_idolatrizeworld_6_113:
	.byte		N24   , Gs0 , v100
	.byte	W24
	.byte		N24   
	.byte	W24
	.byte		N12   
	.byte	W12
	.byte		N36   
	.byte	W36
	.byte	PEND
@ 114   ----------------------------------------
mus_thpprf_idolatrizeworld_6_114:
	.byte		N24   , Gs0 , v100
	.byte	W24
	.byte		        Bn0 
	.byte	W24
	.byte		N12   , Gs0 
	.byte	W12
	.byte		N36   
	.byte	W36
	.byte	PEND
@ 115   ----------------------------------------
	.byte	PATT
	 .word	mus_thpprf_idolatrizeworld_6_113
@ 116   ----------------------------------------
mus_thpprf_idolatrizeworld_6_116:
	.byte		N24   , En0 , v100
	.byte	W24
	.byte		N24   
	.byte	W24
	.byte		N12   , Fs0 
	.byte	W12
	.byte		N36   
	.byte	W36
	.byte	PEND
@ 117   ----------------------------------------
	.byte	PATT
	 .word	mus_thpprf_idolatrizeworld_6_113
@ 118   ----------------------------------------
	.byte	PATT
	 .word	mus_thpprf_idolatrizeworld_6_114
@ 119   ----------------------------------------
	.byte	PATT
	 .word	mus_thpprf_idolatrizeworld_6_113
@ 120   ----------------------------------------
	.byte	PATT
	 .word	mus_thpprf_idolatrizeworld_6_116
@ 121   ----------------------------------------
mus_thpprf_idolatrizeworld_6_121:
	.byte		N24   , En0 , v100
	.byte	W24
	.byte		N24   
	.byte	W24
	.byte		N12   
	.byte	W12
	.byte		N36   
	.byte	W36
	.byte	PEND
@ 122   ----------------------------------------
	.byte	PATT
	 .word	mus_thpprf_idolatrizeworld_6_121
@ 123   ----------------------------------------
mus_thpprf_idolatrizeworld_6_123:
	.byte		N24   , En0 , v100
	.byte	W24
	.byte		        Bn0 
	.byte	W24
	.byte		N12   , En0 
	.byte	W12
	.byte		N36   
	.byte	W36
	.byte	PEND
@ 124   ----------------------------------------
mus_thpprf_idolatrizeworld_6_124:
	.byte		N24   , Fs0 , v100
	.byte	W24
	.byte		N24   
	.byte	W24
	.byte		N12   
	.byte	W12
	.byte		N36   
	.byte	W36
	.byte	PEND
@ 125   ----------------------------------------
	.byte	PATT
	 .word	mus_thpprf_idolatrizeworld_6_121
@ 126   ----------------------------------------
	.byte	PATT
	 .word	mus_thpprf_idolatrizeworld_6_121
@ 127   ----------------------------------------
	.byte	PATT
	 .word	mus_thpprf_idolatrizeworld_6_123
@ 128   ----------------------------------------
	.byte	PATT
	 .word	mus_thpprf_idolatrizeworld_6_124
@ 129   ----------------------------------------
mus_thpprf_idolatrizeworld_6_129:
	.byte		N24   , Gn0 , v100
	.byte	W24
	.byte		N24   
	.byte	W24
	.byte		N12   
	.byte	W12
	.byte		N36   
	.byte	W36
	.byte	PEND
@ 130   ----------------------------------------
mus_thpprf_idolatrizeworld_6_130:
	.byte		N24   , Gn0 , v100
	.byte	W24
	.byte		        As0 
	.byte	W24
	.byte		N12   , Gn0 
	.byte	W12
	.byte		N36   
	.byte	W36
	.byte	PEND
@ 131   ----------------------------------------
	.byte	PATT
	 .word	mus_thpprf_idolatrizeworld_6_129
@ 132   ----------------------------------------
mus_thpprf_idolatrizeworld_6_132:
	.byte		N24   , Ds0 , v100
	.byte	W24
	.byte		N24   
	.byte	W24
	.byte		N12   , Fn0 
	.byte	W12
	.byte		N36   
	.byte	W36
	.byte	PEND
@ 133   ----------------------------------------
	.byte	PATT
	 .word	mus_thpprf_idolatrizeworld_6_129
@ 134   ----------------------------------------
	.byte	PATT
	 .word	mus_thpprf_idolatrizeworld_6_130
@ 135   ----------------------------------------
	.byte	PATT
	 .word	mus_thpprf_idolatrizeworld_6_129
@ 136   ----------------------------------------
	.byte	PATT
	 .word	mus_thpprf_idolatrizeworld_6_132
@ 137   ----------------------------------------
mus_thpprf_idolatrizeworld_6_137:
	.byte		N24   , Ds0 , v100
	.byte	W24
	.byte		N24   
	.byte	W24
	.byte		N12   
	.byte	W12
	.byte		N36   
	.byte	W36
	.byte	PEND
@ 138   ----------------------------------------
	.byte	PATT
	 .word	mus_thpprf_idolatrizeworld_6_137
@ 139   ----------------------------------------
mus_thpprf_idolatrizeworld_6_139:
	.byte		N24   , Ds0 , v100
	.byte	W24
	.byte		        As0 
	.byte	W24
	.byte		N12   , Ds0 
	.byte	W12
	.byte		N36   
	.byte	W36
	.byte	PEND
@ 140   ----------------------------------------
mus_thpprf_idolatrizeworld_6_140:
	.byte		N24   , Fn0 , v100
	.byte	W24
	.byte		N24   
	.byte	W24
	.byte		N12   
	.byte	W12
	.byte		N36   
	.byte	W36
	.byte	PEND
@ 141   ----------------------------------------
	.byte	PATT
	 .word	mus_thpprf_idolatrizeworld_6_137
@ 142   ----------------------------------------
	.byte	PATT
	 .word	mus_thpprf_idolatrizeworld_6_137
@ 143   ----------------------------------------
	.byte	PATT
	 .word	mus_thpprf_idolatrizeworld_6_139
@ 144   ----------------------------------------
	.byte	PATT
	 .word	mus_thpprf_idolatrizeworld_6_140
@ 145   ----------------------------------------
	.byte	W96
@ 146   ----------------------------------------
	.byte		TIE   , Ds0 , v100
	.byte	W96
@ 147   ----------------------------------------
	.byte	W96
	.byte		EOT   
@ 148   ----------------------------------------
	.byte		TIE   , Fn0 
	.byte	W96
@ 149   ----------------------------------------
	.byte	W96
	.byte		EOT   
@ 150   ----------------------------------------
	.byte		TIE   , Dn0 
	.byte	W96
@ 151   ----------------------------------------
	.byte	W96
	.byte		EOT   
@ 152   ----------------------------------------
	.byte		TIE   , Gn0 
	.byte	W96
@ 153   ----------------------------------------
	.byte	W96
	.byte		EOT   
@ 154   ----------------------------------------
	.byte		TIE   , Ds0 
	.byte	W96
@ 155   ----------------------------------------
	.byte	W96
	.byte		EOT   
@ 156   ----------------------------------------
	.byte		TIE   , Fn0 
	.byte	W96
@ 157   ----------------------------------------
	.byte	W96
	.byte		EOT   
@ 158   ----------------------------------------
	.byte		TIE   , Dn0 
	.byte	W96
@ 159   ----------------------------------------
	.byte	W96
	.byte		EOT   
@ 160   ----------------------------------------
	.byte		TIE   , Gn0 
	.byte	W96
@ 161   ----------------------------------------
	.byte	W96
	.byte		EOT   
@ 162   ----------------------------------------
	.byte		TIE   , Ds0 
	.byte	W96
@ 163   ----------------------------------------
	.byte	W96
	.byte		EOT   
@ 164   ----------------------------------------
	.byte		TIE   , Fn0 
	.byte	W96
@ 165   ----------------------------------------
	.byte	W96
	.byte		EOT   
@ 166   ----------------------------------------
	.byte		TIE   , Dn0 
	.byte	W96
@ 167   ----------------------------------------
	.byte	W96
	.byte		EOT   
@ 168   ----------------------------------------
	.byte		TIE   , Gn0 
	.byte	W96
@ 169   ----------------------------------------
	.byte	W96
	.byte		EOT   
@ 170   ----------------------------------------
	.byte		TIE   , Ds0 
	.byte	W96
@ 171   ----------------------------------------
	.byte	W96
	.byte		EOT   
@ 172   ----------------------------------------
	.byte		TIE   , Fn0 
	.byte	W96
@ 173   ----------------------------------------
	.byte	W96
	.byte		EOT   
@ 174   ----------------------------------------
	.byte		TIE   , Cn1 
	.byte	W96
@ 175   ----------------------------------------
	.byte	W96
	.byte		EOT   
@ 176   ----------------------------------------
	.byte		TIE   , Bn0 
	.byte	W96
@ 177   ----------------------------------------
	.byte	W96
	.byte		EOT   
@ 178   ----------------------------------------
	.byte	PATT
	 .word	mus_thpprf_idolatrizeworld_6_051
@ 179   ----------------------------------------
	.byte		N24   , Dn1 , v100
	.byte	W48
	.byte		N48   , Gn1 
	.byte	W48
@ 180   ----------------------------------------
	.byte	PATT
	 .word	mus_thpprf_idolatrizeworld_6_053
@ 181   ----------------------------------------
	.byte		N24   , Dn1 , v100
	.byte	W48
	.byte		N48   , Fs1 
	.byte	W48
@ 182   ----------------------------------------
	.byte	PATT
	 .word	mus_thpprf_idolatrizeworld_6_055
@ 183   ----------------------------------------
	.byte		N24   , Dn1 , v100
	.byte	W48
	.byte		N48   , Fn1 
	.byte	W48
@ 184   ----------------------------------------
	.byte	PATT
	 .word	mus_thpprf_idolatrizeworld_6_057
@ 185   ----------------------------------------
	.byte		N24   , Cn1 , v100
	.byte	W48
	.byte		N48   , En1 
	.byte	W48
@ 186   ----------------------------------------
	.byte	PATT
	 .word	mus_thpprf_idolatrizeworld_6_059
@ 187   ----------------------------------------
	.byte	PATT
	 .word	mus_thpprf_idolatrizeworld_6_060
@ 188   ----------------------------------------
	.byte		N24   , Dn1 , v100
	.byte	W72
	.byte		N24   
	.byte	W24
@ 189   ----------------------------------------
	.byte		        An0 
	.byte	W48
	.byte		N48   , Dn1 
	.byte	W48
@ 190   ----------------------------------------
	.byte		N24   , Cn1 
	.byte	W72
	.byte		N24   
	.byte	W24
@ 191   ----------------------------------------
	.byte		        Gn0 
	.byte	W48
	.byte		N48   , Cn1 
	.byte	W48
@ 192   ----------------------------------------
	.byte		        Dn1 
	.byte	W48
	.byte		        An0 
	.byte	W48
@ 193   ----------------------------------------
	.byte		        Fs1 
	.byte	W48
	.byte		        Cn1 
	.byte	W48
@ 194   ----------------------------------------
	.byte		        Gn1 
	.byte	W48
	.byte		N24   , Dn1 
	.byte	W48
@ 195   ----------------------------------------
	.byte		N36   , Gn1 
	.byte	W36
	.byte		        Dn1 
	.byte	W36
	.byte		N24   , Gn1 
	.byte	W24
@ 196   ----------------------------------------
	.byte		N48   , Fs1 
	.byte	W48
	.byte		N24   , Dn1 
	.byte	W48
@ 197   ----------------------------------------
	.byte		N36   , Fs1 
	.byte	W36
	.byte		        Dn1 
	.byte	W36
	.byte		N24   , Fs1 
	.byte	W24
@ 198   ----------------------------------------
	.byte		N48   , Fn1 
	.byte	W48
	.byte		N24   , Dn1 
	.byte	W48
@ 199   ----------------------------------------
	.byte		N36   , Fn1 
	.byte	W36
	.byte		        Dn1 
	.byte	W36
	.byte		N24   , Fn1 
	.byte	W24
@ 200   ----------------------------------------
	.byte		N48   , En1 
	.byte	W48
	.byte		N24   , Cn1 
	.byte	W48
@ 201   ----------------------------------------
	.byte		N36   , En1 
	.byte	W36
	.byte		        Cn1 
	.byte	W36
	.byte		N24   , En1 
	.byte	W24
@ 202   ----------------------------------------
	.byte		TIE   , Ds1 
	.byte	W96
@ 203   ----------------------------------------
	.byte	W96
	.byte		EOT   
@ 204   ----------------------------------------
	.byte		TIE   , Fn1 
	.byte	W96
@ 205   ----------------------------------------
	.byte	W96
	.byte		EOT   
@ 206   ----------------------------------------
mus_thpprf_idolatrizeworld_6_206:
	.byte		N24   , Cn1 , v100
	.byte	W24
	.byte		        Dn1 
	.byte	W24
	.byte		        Cn1 
	.byte	W48
	.byte	PEND
@ 207   ----------------------------------------
	.byte	PATT
	 .word	mus_thpprf_idolatrizeworld_6_206
@ 208   ----------------------------------------
	.byte		N24   , Bn0 , v100
	.byte	W24
	.byte		        Dn1 
	.byte	W24
	.byte		        Bn0 
	.byte	W48
@ 209   ----------------------------------------
	.byte		N96   , Gn1 
	.byte	W96
@ 210   ----------------------------------------
mus_thpprf_idolatrizeworld_6_210:
	.byte		N18   , As0 , v100
	.byte	W24
	.byte		N24   
	.byte	W24
	.byte		N48   , Ds1 
	.byte	W48
	.byte	PEND
@ 211   ----------------------------------------
	.byte	PATT
	 .word	mus_thpprf_idolatrizeworld_6_210
@ 212   ----------------------------------------
mus_thpprf_idolatrizeworld_6_212:
	.byte		N18   , Cn1 , v100
	.byte	W24
	.byte		N24   
	.byte	W24
	.byte		N48   , Fn1 
	.byte	W48
	.byte	PEND
@ 213   ----------------------------------------
	.byte	PATT
	 .word	mus_thpprf_idolatrizeworld_6_212
@ 214   ----------------------------------------
mus_thpprf_idolatrizeworld_6_214:
	.byte		N18   , An0 , v100
	.byte	W24
	.byte		N24   
	.byte	W24
	.byte		N48   , Dn1 
	.byte	W48
	.byte	PEND
@ 215   ----------------------------------------
	.byte	PATT
	 .word	mus_thpprf_idolatrizeworld_6_214
@ 216   ----------------------------------------
mus_thpprf_idolatrizeworld_6_216:
	.byte		N18   , Dn1 , v100
	.byte	W24
	.byte		N24   
	.byte	W24
	.byte		N48   , Gn1 
	.byte	W48
	.byte	PEND
@ 217   ----------------------------------------
	.byte	PATT
	 .word	mus_thpprf_idolatrizeworld_6_216
@ 218   ----------------------------------------
	.byte	PATT
	 .word	mus_thpprf_idolatrizeworld_6_210
@ 219   ----------------------------------------
	.byte	PATT
	 .word	mus_thpprf_idolatrizeworld_6_210
@ 220   ----------------------------------------
	.byte	PATT
	 .word	mus_thpprf_idolatrizeworld_6_212
@ 221   ----------------------------------------
	.byte	PATT
	 .word	mus_thpprf_idolatrizeworld_6_212
@ 222   ----------------------------------------
	.byte	PATT
	 .word	mus_thpprf_idolatrizeworld_6_214
@ 223   ----------------------------------------
	.byte	PATT
	 .word	mus_thpprf_idolatrizeworld_6_214
@ 224   ----------------------------------------
	.byte	PATT
	 .word	mus_thpprf_idolatrizeworld_6_216
@ 225   ----------------------------------------
	.byte	PATT
	 .word	mus_thpprf_idolatrizeworld_6_216
@ 226   ----------------------------------------
	.byte	PATT
	 .word	mus_thpprf_idolatrizeworld_6_210
@ 227   ----------------------------------------
	.byte	PATT
	 .word	mus_thpprf_idolatrizeworld_6_210
@ 228   ----------------------------------------
	.byte	PATT
	 .word	mus_thpprf_idolatrizeworld_6_212
@ 229   ----------------------------------------
	.byte	PATT
	 .word	mus_thpprf_idolatrizeworld_6_212
@ 230   ----------------------------------------
	.byte	PATT
	 .word	mus_thpprf_idolatrizeworld_6_214
@ 231   ----------------------------------------
	.byte	PATT
	 .word	mus_thpprf_idolatrizeworld_6_214
@ 232   ----------------------------------------
	.byte	PATT
	 .word	mus_thpprf_idolatrizeworld_6_216
@ 233   ----------------------------------------
	.byte	PATT
	 .word	mus_thpprf_idolatrizeworld_6_216
@ 234   ----------------------------------------
	.byte	PATT
	 .word	mus_thpprf_idolatrizeworld_6_210
@ 235   ----------------------------------------
	.byte	PATT
	 .word	mus_thpprf_idolatrizeworld_6_210
@ 236   ----------------------------------------
	.byte	PATT
	 .word	mus_thpprf_idolatrizeworld_6_212
@ 237   ----------------------------------------
	.byte	PATT
	 .word	mus_thpprf_idolatrizeworld_6_212
@ 238   ----------------------------------------
mus_thpprf_idolatrizeworld_6_238:
	.byte		N18   , Dn1 , v100
	.byte	W24
	.byte		N24   
	.byte	W24
	.byte		        Gn1 
	.byte	W24
	.byte		N18   , Dn1 
	.byte	W24
	.byte	PEND
@ 239   ----------------------------------------
	.byte	PATT
	 .word	mus_thpprf_idolatrizeworld_6_238
@ 240   ----------------------------------------
	.byte	PATT
	 .word	mus_thpprf_idolatrizeworld_6_238
@ 241   ----------------------------------------
	.byte	PATT
	 .word	mus_thpprf_idolatrizeworld_6_238
@ 242   ----------------------------------------
mus_thpprf_idolatrizeworld_6_242:
	.byte		N18   , Bn0 , v100
	.byte	W24
	.byte		N24   
	.byte	W24
	.byte		N48   , En1 
	.byte	W48
	.byte	PEND
@ 243   ----------------------------------------
	.byte	PATT
	 .word	mus_thpprf_idolatrizeworld_6_242
@ 244   ----------------------------------------
mus_thpprf_idolatrizeworld_6_244:
	.byte		N18   , Cs1 , v100
	.byte	W24
	.byte		N24   
	.byte	W24
	.byte		N48   , Fs1 
	.byte	W48
	.byte	PEND
@ 245   ----------------------------------------
	.byte	PATT
	 .word	mus_thpprf_idolatrizeworld_6_244
@ 246   ----------------------------------------
	.byte	PATT
	 .word	mus_thpprf_idolatrizeworld_6_210
@ 247   ----------------------------------------
	.byte	PATT
	 .word	mus_thpprf_idolatrizeworld_6_210
@ 248   ----------------------------------------
mus_thpprf_idolatrizeworld_6_248:
	.byte		N18   , Ds1 , v100
	.byte	W24
	.byte		N24   
	.byte	W24
	.byte		N48   , Gs1 
	.byte	W48
	.byte	PEND
@ 249   ----------------------------------------
	.byte	PATT
	 .word	mus_thpprf_idolatrizeworld_6_248
@ 250   ----------------------------------------
	.byte	PATT
	 .word	mus_thpprf_idolatrizeworld_6_242
@ 251   ----------------------------------------
	.byte	PATT
	 .word	mus_thpprf_idolatrizeworld_6_242
@ 252   ----------------------------------------
	.byte	PATT
	 .word	mus_thpprf_idolatrizeworld_6_244
@ 253   ----------------------------------------
	.byte	PATT
	 .word	mus_thpprf_idolatrizeworld_6_244
@ 254   ----------------------------------------
	.byte	PATT
	 .word	mus_thpprf_idolatrizeworld_6_210
@ 255   ----------------------------------------
	.byte	PATT
	 .word	mus_thpprf_idolatrizeworld_6_210
@ 256   ----------------------------------------
	.byte	PATT
	 .word	mus_thpprf_idolatrizeworld_6_248
@ 257   ----------------------------------------
	.byte	PATT
	 .word	mus_thpprf_idolatrizeworld_6_248
@ 258   ----------------------------------------
	.byte	PATT
	 .word	mus_thpprf_idolatrizeworld_6_242
@ 259   ----------------------------------------
	.byte	PATT
	 .word	mus_thpprf_idolatrizeworld_6_242
@ 260   ----------------------------------------
	.byte	PATT
	 .word	mus_thpprf_idolatrizeworld_6_244
@ 261   ----------------------------------------
	.byte	PATT
	 .word	mus_thpprf_idolatrizeworld_6_244
@ 262   ----------------------------------------
	.byte	PATT
	 .word	mus_thpprf_idolatrizeworld_6_210
@ 263   ----------------------------------------
	.byte	PATT
	 .word	mus_thpprf_idolatrizeworld_6_210
@ 264   ----------------------------------------
	.byte	PATT
	 .word	mus_thpprf_idolatrizeworld_6_248
@ 265   ----------------------------------------
	.byte	PATT
	 .word	mus_thpprf_idolatrizeworld_6_248
@ 266   ----------------------------------------
	.byte	PATT
	 .word	mus_thpprf_idolatrizeworld_6_242
@ 267   ----------------------------------------
	.byte	PATT
	 .word	mus_thpprf_idolatrizeworld_6_242
@ 268   ----------------------------------------
	.byte	PATT
	 .word	mus_thpprf_idolatrizeworld_6_244
@ 269   ----------------------------------------
	.byte	PATT
	 .word	mus_thpprf_idolatrizeworld_6_244
@ 270   ----------------------------------------
mus_thpprf_idolatrizeworld_6_270:
	.byte		N18   , Ds1 , v100
	.byte	W24
	.byte		N24   
	.byte	W24
	.byte		        Gs1 
	.byte	W24
	.byte		N18   , Ds1 
	.byte	W24
	.byte	PEND
@ 271   ----------------------------------------
	.byte	PATT
	 .word	mus_thpprf_idolatrizeworld_6_270
@ 272   ----------------------------------------
	.byte	PATT
	 .word	mus_thpprf_idolatrizeworld_6_270
@ 273   ----------------------------------------
	.byte	PATT
	 .word	mus_thpprf_idolatrizeworld_6_270
@ 274   ----------------------------------------
	.byte		TIE   , Fs1 , v100
	.byte	W96
@ 275   ----------------------------------------
	.byte	W96
	.byte		EOT   
@ 276   ----------------------------------------
	.byte		TIE   , Gs1 
	.byte	W96
@ 277   ----------------------------------------
	.byte	W96
	.byte		EOT   
@ 278   ----------------------------------------
	.byte		TIE   , Fn1 
	.byte	W96
@ 279   ----------------------------------------
	.byte	W96
	.byte		EOT   
@ 280   ----------------------------------------
	.byte		TIE   , As1 
	.byte	W96
@ 281   ----------------------------------------
	.byte	W96
	.byte		EOT   
@ 282   ----------------------------------------
	.byte		TIE   , Fs1 
	.byte	W96
@ 283   ----------------------------------------
	.byte	W96
	.byte		EOT   
@ 284   ----------------------------------------
	.byte		TIE   , Gs1 
	.byte	W96
@ 285   ----------------------------------------
	.byte	W96
	.byte		EOT   
@ 286   ----------------------------------------
	.byte		TIE   , Fn1 
	.byte	W96
@ 287   ----------------------------------------
	.byte	W96
	.byte		EOT   
@ 288   ----------------------------------------
	.byte		TIE   , As1 
	.byte	W96
@ 289   ----------------------------------------
	.byte	W96
	.byte		EOT   
@ 290   ----------------------------------------
	.byte		TIE   , Bn0 
	.byte	W96
@ 291   ----------------------------------------
	.byte	W96
	.byte		EOT   
@ 292   ----------------------------------------
	.byte	PATT
	 .word	mus_thpprf_idolatrizeworld_6_003
@ 293   ----------------------------------------
	.byte	W48
	.byte		N24   , Bn0 , v100
	.byte	W48
@ 294   ----------------------------------------
	.byte		TIE   , An0 
	.byte	W96
@ 295   ----------------------------------------
	.byte	W96
	.byte		EOT   
@ 296   ----------------------------------------
	.byte	PATT
	 .word	mus_thpprf_idolatrizeworld_6_007
@ 297   ----------------------------------------
	.byte	W48
	.byte		N24   , An0 , v100
	.byte	W48
@ 298   ----------------------------------------
	.byte		TIE   , Gs0 
	.byte	W96
@ 299   ----------------------------------------
	.byte	W96
	.byte		EOT   
@ 300   ----------------------------------------
	.byte	PATT
	 .word	mus_thpprf_idolatrizeworld_6_011
@ 301   ----------------------------------------
	.byte	W48
	.byte		N24   , Gs0 , v100
	.byte	W48
@ 302   ----------------------------------------
	.byte		TIE   , Gn0 
	.byte	W96
@ 303   ----------------------------------------
	.byte	W96
	.byte		EOT   
@ 304   ----------------------------------------
	.byte		N96   , An0 
	.byte	W96
@ 305   ----------------------------------------
	.byte		        As0 
	.byte	W96
@ 306   ----------------------------------------
	.byte		TIE   , Bn0 
	.byte	W96
@ 307   ----------------------------------------
	.byte	W96
	.byte		EOT   
@ 308   ----------------------------------------
	.byte	PATT
	 .word	mus_thpprf_idolatrizeworld_6_003
@ 309   ----------------------------------------
	.byte	W48
	.byte		N24   , Bn0 , v100
	.byte	W48
@ 310   ----------------------------------------
	.byte		TIE   , An0 
	.byte	W96
@ 311   ----------------------------------------
	.byte	W96
	.byte		EOT   
@ 312   ----------------------------------------
	.byte	PATT
	 .word	mus_thpprf_idolatrizeworld_6_007
@ 313   ----------------------------------------
	.byte	W48
	.byte		N24   , An0 , v100
	.byte	W48
@ 314   ----------------------------------------
	.byte		TIE   , Gs0 
	.byte	W96
@ 315   ----------------------------------------
	.byte	W96
	.byte		EOT   
@ 316   ----------------------------------------
	.byte	PATT
	 .word	mus_thpprf_idolatrizeworld_6_011
@ 317   ----------------------------------------
	.byte	W48
	.byte		N24   , Gs0 , v100
	.byte	W48
@ 318   ----------------------------------------
	.byte		N84   , Gn0 
	.byte	W96
@ 319   ----------------------------------------
	.byte		N84   
	.byte	W96
@ 320   ----------------------------------------
	.byte		        An0 
	.byte	W96
@ 321   ----------------------------------------
	.byte		        As0 
	.byte	W96
@ 322   ----------------------------------------
	.byte	PATT
	 .word	mus_thpprf_idolatrizeworld_6_033
@ 323   ----------------------------------------
	.byte	PATT
	 .word	mus_thpprf_idolatrizeworld_6_034
@ 324   ----------------------------------------
	.byte	PATT
	 .word	mus_thpprf_idolatrizeworld_6_035
@ 325   ----------------------------------------
	.byte	PATT
	 .word	mus_thpprf_idolatrizeworld_6_036
@ 326   ----------------------------------------
	.byte	PATT
	 .word	mus_thpprf_idolatrizeworld_6_033
@ 327   ----------------------------------------
	.byte	PATT
	 .word	mus_thpprf_idolatrizeworld_6_034
@ 328   ----------------------------------------
	.byte	PATT
	 .word	mus_thpprf_idolatrizeworld_6_035
@ 329   ----------------------------------------
	.byte	PATT
	 .word	mus_thpprf_idolatrizeworld_6_040
@ 330   ----------------------------------------
	.byte	PATT
	 .word	mus_thpprf_idolatrizeworld_6_033
@ 331   ----------------------------------------
	.byte	PATT
	 .word	mus_thpprf_idolatrizeworld_6_034
@ 332   ----------------------------------------
	.byte	PATT
	 .word	mus_thpprf_idolatrizeworld_6_035
@ 333   ----------------------------------------
	.byte	PATT
	 .word	mus_thpprf_idolatrizeworld_6_036
@ 334   ----------------------------------------
	.byte	PATT
	 .word	mus_thpprf_idolatrizeworld_6_033
@ 335   ----------------------------------------
	.byte	PATT
	 .word	mus_thpprf_idolatrizeworld_6_034
@ 336   ----------------------------------------
	.byte	PATT
	 .word	mus_thpprf_idolatrizeworld_6_035
@ 337   ----------------------------------------
	.byte	PATT
	 .word	mus_thpprf_idolatrizeworld_6_040
@ 338   ----------------------------------------
	.byte	GOTO
	.word	mus_thpprf_idolatrizeworld_6_049
	.byte	FINE

@**************** Track 7 (Midi-Chn.7) ****************@

mus_thpprf_idolatrizeworld_7:
	.byte	KEYSH , mus_thpprf_idolatrizeworld_key+0
@ 000   ----------------------------------------
	.byte	W28
	.byte		VOICE , 8
	.byte		PAN   , c_v+0
	.byte		VOL   , 66*mus_thpprf_idolatrizeworld_mvl/mxv
	.byte	W02
	.byte		MOD   , 0
	.byte	W66
@ 001   ----------------------------------------
mus_thpprf_idolatrizeworld_7_001:
	.byte		TIE   , Bn1 , v080
	.byte		TIE   , Fs2 
	.byte		TIE   , Bn2 
	.byte	W96
	.byte	PEND
@ 002   ----------------------------------------
	.byte	W96
	.byte		EOT   , Bn1 
	.byte		        Fs2 
	.byte		        Bn2 
@ 003   ----------------------------------------
mus_thpprf_idolatrizeworld_7_003:
	.byte		N24   , Bn1 , v080
	.byte		N24   , Fs2 
	.byte		N24   , Bn2 
	.byte	W24
	.byte		        Bn1 
	.byte		N24   , Fs2 
	.byte		N24   , Bn2 
	.byte	W72
	.byte	PEND
@ 004   ----------------------------------------
mus_thpprf_idolatrizeworld_7_004:
	.byte	W48
	.byte		N24   , Bn1 , v080
	.byte		N24   , Fs2 
	.byte		N24   , Bn2 
	.byte	W48
	.byte	PEND
@ 005   ----------------------------------------
mus_thpprf_idolatrizeworld_7_005:
	.byte		TIE   , An1 , v080
	.byte		TIE   , En2 
	.byte		TIE   , An2 
	.byte	W96
	.byte	PEND
@ 006   ----------------------------------------
	.byte	W96
	.byte		EOT   , An1 
	.byte		        En2 
	.byte		        An2 
@ 007   ----------------------------------------
mus_thpprf_idolatrizeworld_7_007:
	.byte		N36   , An1 , v080
	.byte		N36   , En2 
	.byte		N36   , An2 
	.byte	W72
	.byte		        An1 
	.byte		N36   , En2 
	.byte		N36   , An2 
	.byte	W24
	.byte	PEND
@ 008   ----------------------------------------
mus_thpprf_idolatrizeworld_7_008:
	.byte	W48
	.byte		N24   , An1 , v080
	.byte		N24   , En2 
	.byte		N24   , An2 
	.byte	W48
	.byte	PEND
@ 009   ----------------------------------------
mus_thpprf_idolatrizeworld_7_009:
	.byte		TIE   , Gs1 , v080
	.byte		TIE   , Ds2 
	.byte		TIE   , Gs2 
	.byte	W96
	.byte	PEND
@ 010   ----------------------------------------
	.byte	W96
	.byte		EOT   , Gs1 
	.byte		        Ds2 
	.byte		        Gs2 
@ 011   ----------------------------------------
mus_thpprf_idolatrizeworld_7_011:
	.byte		N24   , Gs1 , v080
	.byte		N24   , Ds2 
	.byte		N24   , Gs2 
	.byte	W24
	.byte		        Gs1 
	.byte		N24   , Ds2 
	.byte		N24   , Gs2 
	.byte	W72
	.byte	PEND
@ 012   ----------------------------------------
mus_thpprf_idolatrizeworld_7_012:
	.byte	W48
	.byte		N24   , Gs1 , v080
	.byte		N24   , Ds2 
	.byte		N24   , Gs2 
	.byte	W48
	.byte	PEND
@ 013   ----------------------------------------
	.byte		TIE   , Gn1 
	.byte		TIE   , Dn2 
	.byte		TIE   , Gn2 
	.byte	W96
@ 014   ----------------------------------------
	.byte	W96
	.byte		EOT   , Gn1 
	.byte		        Dn2 
	.byte		        Gn2 
@ 015   ----------------------------------------
	.byte		N96   , An1 
	.byte		N96   , En2 
	.byte		N96   , An2 
	.byte	W96
@ 016   ----------------------------------------
	.byte		        As1 
	.byte		N96   , Fn2 
	.byte		N96   , As2 
	.byte	W96
@ 017   ----------------------------------------
	.byte	PATT
	 .word	mus_thpprf_idolatrizeworld_7_001
@ 018   ----------------------------------------
	.byte	W96
	.byte		EOT   , Bn1 
	.byte		        Fs2 
	.byte		        Bn2 
@ 019   ----------------------------------------
	.byte	PATT
	 .word	mus_thpprf_idolatrizeworld_7_003
@ 020   ----------------------------------------
	.byte	PATT
	 .word	mus_thpprf_idolatrizeworld_7_004
@ 021   ----------------------------------------
	.byte	PATT
	 .word	mus_thpprf_idolatrizeworld_7_005
@ 022   ----------------------------------------
	.byte	W96
	.byte		EOT   , An1 
	.byte		        En2 
	.byte		        An2 
@ 023   ----------------------------------------
	.byte	PATT
	 .word	mus_thpprf_idolatrizeworld_7_007
@ 024   ----------------------------------------
	.byte	PATT
	 .word	mus_thpprf_idolatrizeworld_7_008
@ 025   ----------------------------------------
	.byte	PATT
	 .word	mus_thpprf_idolatrizeworld_7_009
@ 026   ----------------------------------------
	.byte	W96
	.byte		EOT   , Gs1 
	.byte		        Ds2 
	.byte		        Gs2 
@ 027   ----------------------------------------
	.byte	PATT
	 .word	mus_thpprf_idolatrizeworld_7_011
@ 028   ----------------------------------------
	.byte	PATT
	 .word	mus_thpprf_idolatrizeworld_7_012
@ 029   ----------------------------------------
mus_thpprf_idolatrizeworld_7_029:
	.byte		N84   , Gn1 , v080
	.byte		N84   , Dn2 
	.byte		N84   , Gn2 
	.byte	W96
	.byte	PEND
@ 030   ----------------------------------------
	.byte	PATT
	 .word	mus_thpprf_idolatrizeworld_7_029
@ 031   ----------------------------------------
	.byte		N84   , An1 , v080
	.byte		N84   , En2 
	.byte		N84   , An2 
	.byte	W96
@ 032   ----------------------------------------
	.byte		        As1 
	.byte		N84   , Fn2 
	.byte		N84   , As2 
	.byte	W96
@ 033   ----------------------------------------
mus_thpprf_idolatrizeworld_7_033:
	.byte		N24   , Bn1 , v080
	.byte		N24   , Fs2 
	.byte		N24   , Bn2 
	.byte	W48
	.byte		        Bn1 
	.byte		N24   , Fs2 
	.byte		N24   , Bn2 
	.byte	W48
	.byte	PEND
@ 034   ----------------------------------------
mus_thpprf_idolatrizeworld_7_034:
	.byte		N24   , Bn1 , v080
	.byte		N24   , Fs2 
	.byte		N24   , Bn2 
	.byte	W36
	.byte		        Bn1 
	.byte		N24   , Fs2 
	.byte		N24   , Bn2 
	.byte	W36
	.byte		        Bn1 
	.byte		N24   , Fs2 
	.byte		N24   , Bn2 
	.byte	W24
	.byte	PEND
@ 035   ----------------------------------------
mus_thpprf_idolatrizeworld_7_035:
	.byte	W12
	.byte		N24   , Bn1 , v080
	.byte		N24   , Fs2 
	.byte		N24   , Bn2 
	.byte	W36
	.byte		        Bn1 
	.byte		N24   , Fs2 
	.byte		N24   , Bn2 
	.byte	W24
	.byte		        Fs1 
	.byte		N24   , Dn2 
	.byte		N24   , Fs2 
	.byte	W24
	.byte	PEND
@ 036   ----------------------------------------
mus_thpprf_idolatrizeworld_7_036:
	.byte		N24   , Dn2 , v080
	.byte		N24   , Bn2 
	.byte		N24   , Dn3 
	.byte	W36
	.byte		        Cs2 
	.byte		N24   , An2 
	.byte		N24   , Cs3 
	.byte	W36
	.byte		        Bn1 
	.byte		N24   , Fs2 
	.byte		N24   , Bn2 
	.byte	W24
	.byte	PEND
@ 037   ----------------------------------------
	.byte	PATT
	 .word	mus_thpprf_idolatrizeworld_7_033
@ 038   ----------------------------------------
	.byte	PATT
	 .word	mus_thpprf_idolatrizeworld_7_034
@ 039   ----------------------------------------
	.byte	PATT
	 .word	mus_thpprf_idolatrizeworld_7_035
@ 040   ----------------------------------------
mus_thpprf_idolatrizeworld_7_040:
	.byte		N24   , Dn2 , v080
	.byte		N24   , Bn2 
	.byte		N24   , Dn3 
	.byte	W24
	.byte		        Cs2 
	.byte		N24   , An2 
	.byte		N24   , Cs3 
	.byte	W24
	.byte		        Bn1 
	.byte		N24   , Fs2 
	.byte		N24   , Bn2 
	.byte	W48
	.byte	PEND
@ 041   ----------------------------------------
	.byte	PATT
	 .word	mus_thpprf_idolatrizeworld_7_033
@ 042   ----------------------------------------
	.byte	PATT
	 .word	mus_thpprf_idolatrizeworld_7_034
@ 043   ----------------------------------------
	.byte	PATT
	 .word	mus_thpprf_idolatrizeworld_7_035
@ 044   ----------------------------------------
	.byte	PATT
	 .word	mus_thpprf_idolatrizeworld_7_036
@ 045   ----------------------------------------
	.byte	PATT
	 .word	mus_thpprf_idolatrizeworld_7_033
@ 046   ----------------------------------------
	.byte	PATT
	 .word	mus_thpprf_idolatrizeworld_7_034
@ 047   ----------------------------------------
	.byte	PATT
	 .word	mus_thpprf_idolatrizeworld_7_035
@ 048   ----------------------------------------
mus_thpprf_idolatrizeworld_7_048:
	.byte		N24   , Dn2 , v080
	.byte		N24   , Bn2 
	.byte		N24   , Dn3 
	.byte	W24
	.byte		        Cs2 
	.byte		N24   , An2 
	.byte		N24   , Cs3 
	.byte	W24
	.byte		        Bn1 
	.byte		N24   , Fs2 
	.byte		N24   , Bn2 
	.byte	W24
	.byte		N06   , Bn1 
	.byte		N06   , Bn2 
	.byte	W06
	.byte		        As1 
	.byte		N06   , As2 
	.byte	W06
	.byte		        An1 
	.byte		N06   , An2 
	.byte	W06
	.byte		        Gs1 
	.byte		N06   , Gs2 
	.byte	W06
	.byte	PEND
@ 049   ----------------------------------------
mus_thpprf_idolatrizeworld_7_049:
	.byte	W96
@ 050   ----------------------------------------
	.byte	W96
@ 051   ----------------------------------------
	.byte	W96
@ 052   ----------------------------------------
	.byte	W96
@ 053   ----------------------------------------
	.byte	W96
@ 054   ----------------------------------------
	.byte	W96
@ 055   ----------------------------------------
	.byte	W96
@ 056   ----------------------------------------
	.byte	W96
@ 057   ----------------------------------------
	.byte	W96
@ 058   ----------------------------------------
	.byte	W96
@ 059   ----------------------------------------
	.byte	W96
@ 060   ----------------------------------------
	.byte	W96
@ 061   ----------------------------------------
	.byte	W96
@ 062   ----------------------------------------
	.byte	W96
@ 063   ----------------------------------------
	.byte	W96
@ 064   ----------------------------------------
	.byte	W96
@ 065   ----------------------------------------
	.byte	W96
@ 066   ----------------------------------------
	.byte	W96
@ 067   ----------------------------------------
	.byte	W96
@ 068   ----------------------------------------
	.byte	W96
@ 069   ----------------------------------------
	.byte	W96
@ 070   ----------------------------------------
	.byte	W96
@ 071   ----------------------------------------
	.byte	W96
@ 072   ----------------------------------------
	.byte	W96
@ 073   ----------------------------------------
	.byte	W96
@ 074   ----------------------------------------
	.byte	W96
@ 075   ----------------------------------------
	.byte	W96
@ 076   ----------------------------------------
	.byte	W96
@ 077   ----------------------------------------
	.byte	W96
@ 078   ----------------------------------------
	.byte	W96
@ 079   ----------------------------------------
	.byte	W96
@ 080   ----------------------------------------
	.byte	W96
@ 081   ----------------------------------------
	.byte	W96
@ 082   ----------------------------------------
	.byte	W96
@ 083   ----------------------------------------
	.byte	W96
@ 084   ----------------------------------------
	.byte	W96
@ 085   ----------------------------------------
	.byte	W96
@ 086   ----------------------------------------
	.byte	W96
@ 087   ----------------------------------------
	.byte	W96
@ 088   ----------------------------------------
	.byte	W96
@ 089   ----------------------------------------
	.byte	W96
@ 090   ----------------------------------------
	.byte	W96
@ 091   ----------------------------------------
	.byte	W96
@ 092   ----------------------------------------
	.byte	W96
@ 093   ----------------------------------------
	.byte	W96
@ 094   ----------------------------------------
	.byte	W96
@ 095   ----------------------------------------
	.byte	W96
@ 096   ----------------------------------------
	.byte	W96
@ 097   ----------------------------------------
	.byte	W96
@ 098   ----------------------------------------
	.byte	W96
@ 099   ----------------------------------------
	.byte	W96
@ 100   ----------------------------------------
	.byte	W96
@ 101   ----------------------------------------
	.byte	W96
@ 102   ----------------------------------------
	.byte	W96
@ 103   ----------------------------------------
	.byte	W96
@ 104   ----------------------------------------
	.byte	W96
@ 105   ----------------------------------------
	.byte	W96
@ 106   ----------------------------------------
	.byte	W96
@ 107   ----------------------------------------
	.byte	W96
@ 108   ----------------------------------------
	.byte	W96
@ 109   ----------------------------------------
	.byte	W96
@ 110   ----------------------------------------
	.byte	W96
@ 111   ----------------------------------------
	.byte	W96
@ 112   ----------------------------------------
	.byte	W96
@ 113   ----------------------------------------
mus_thpprf_idolatrizeworld_7_113:
	.byte		N24   , Bn2 , v092
	.byte		N24   , Ds3 
	.byte		N24   , Gs3 
	.byte	W48
	.byte		        Cs3 
	.byte		N24   , Fs3 
	.byte		N24   , As3 
	.byte	W48
	.byte	PEND
@ 114   ----------------------------------------
mus_thpprf_idolatrizeworld_7_114:
	.byte		N24   , Ds3 , v092
	.byte		N24   , Gs3 
	.byte		N24   , Bn3 
	.byte	W36
	.byte		        Cs3 
	.byte		N24   , Fs3 
	.byte		N24   , As3 
	.byte	W36
	.byte		        Ds3 
	.byte		N24   , Gs3 
	.byte		N24   , Bn3 
	.byte	W24
	.byte	PEND
@ 115   ----------------------------------------
mus_thpprf_idolatrizeworld_7_115:
	.byte	W12
	.byte		N24   , Bn2 , v092
	.byte		N24   , Ds3 
	.byte		N24   , Gs3 
	.byte	W36
	.byte		        Bn2 
	.byte		N24   , Ds3 
	.byte		N24   , Fs3 
	.byte	W24
	.byte		        Gs2 
	.byte		N24   , Bn2 
	.byte		N24   , Ds3 
	.byte	W24
	.byte	PEND
@ 116   ----------------------------------------
	.byte		        Gs2 
	.byte		N24   , Bn2 
	.byte		N24   , En3 
	.byte	W36
	.byte		        Gs2 
	.byte		N24   , Bn2 
	.byte		N24   , En3 
	.byte	W36
	.byte		        Gs2 
	.byte		N24   , Bn2 
	.byte		N24   , Fs3 
	.byte	W24
@ 117   ----------------------------------------
	.byte	PATT
	 .word	mus_thpprf_idolatrizeworld_7_113
@ 118   ----------------------------------------
	.byte	PATT
	 .word	mus_thpprf_idolatrizeworld_7_114
@ 119   ----------------------------------------
mus_thpprf_idolatrizeworld_7_119:
	.byte		N24   , Bn2 , v092
	.byte		N24   , Ds3 
	.byte		N24   , Gs3 
	.byte	W36
	.byte		        Bn2 
	.byte		N24   , Ds3 
	.byte		N24   , Fs3 
	.byte	W36
	.byte		        Gs2 
	.byte		N24   , Bn2 
	.byte		N24   , Ds3 
	.byte	W24
	.byte	PEND
@ 120   ----------------------------------------
	.byte		        Gs2 
	.byte		N24   , Bn2 
	.byte		N24   , En3 
	.byte	W24
	.byte		        Gs2 
	.byte		N24   , Bn2 
	.byte		N24   , En3 
	.byte	W24
	.byte		        Gs2 
	.byte		N24   , Bn2 
	.byte		N24   , Fs3 
	.byte	W24
	.byte		N12   , En2 
	.byte		N12   , Bn2 
	.byte		N12   , En3 
	.byte	W12
	.byte		        Fs2 
	.byte		N12   , En3 
	.byte		N12   , Fs3 
	.byte	W12
@ 121   ----------------------------------------
	.byte	PATT
	 .word	mus_thpprf_idolatrizeworld_7_113
@ 122   ----------------------------------------
	.byte	PATT
	 .word	mus_thpprf_idolatrizeworld_7_114
@ 123   ----------------------------------------
	.byte	PATT
	 .word	mus_thpprf_idolatrizeworld_7_115
@ 124   ----------------------------------------
mus_thpprf_idolatrizeworld_7_124:
	.byte		N24   , Gs2 , v092
	.byte		N24   , Bn2 
	.byte		N24   , En3 
	.byte	W24
	.byte		        Gs2 
	.byte		N24   , Bn2 
	.byte		N24   , En3 
	.byte	W24
	.byte		        Gs2 
	.byte		N24   , Bn2 
	.byte		N24   , Fs3 
	.byte	W48
	.byte	PEND
@ 125   ----------------------------------------
	.byte	PATT
	 .word	mus_thpprf_idolatrizeworld_7_113
@ 126   ----------------------------------------
	.byte	PATT
	 .word	mus_thpprf_idolatrizeworld_7_114
@ 127   ----------------------------------------
	.byte	PATT
	 .word	mus_thpprf_idolatrizeworld_7_119
@ 128   ----------------------------------------
	.byte	PATT
	 .word	mus_thpprf_idolatrizeworld_7_124
@ 129   ----------------------------------------
mus_thpprf_idolatrizeworld_7_129:
	.byte		N24   , Gn2 , v100
	.byte	W24
	.byte		        Cn3 
	.byte	W24
	.byte		        Dn3 
	.byte	W24
	.byte		        Fn3 
	.byte	W24
	.byte	PEND
@ 130   ----------------------------------------
mus_thpprf_idolatrizeworld_7_130:
	.byte		N24   , Dn3 , v100
	.byte	W24
	.byte		        Cn3 
	.byte	W24
	.byte		        Gn2 
	.byte	W24
	.byte		        Cn3 
	.byte	W24
	.byte	PEND
@ 131   ----------------------------------------
mus_thpprf_idolatrizeworld_7_131:
	.byte		N24   , Dn3 , v100
	.byte	W24
	.byte		        Fn3 
	.byte	W24
	.byte		        Dn3 
	.byte	W24
	.byte		        Cn3 
	.byte	W24
	.byte	PEND
@ 132   ----------------------------------------
mus_thpprf_idolatrizeworld_7_132:
	.byte		N24   , An2 , v100
	.byte	W24
	.byte		        As2 
	.byte	W24
	.byte		        An2 
	.byte	W24
	.byte		        Fn2 
	.byte	W24
	.byte	PEND
@ 133   ----------------------------------------
	.byte	PATT
	 .word	mus_thpprf_idolatrizeworld_7_129
@ 134   ----------------------------------------
	.byte	PATT
	 .word	mus_thpprf_idolatrizeworld_7_130
@ 135   ----------------------------------------
	.byte	PATT
	 .word	mus_thpprf_idolatrizeworld_7_131
@ 136   ----------------------------------------
	.byte	PATT
	 .word	mus_thpprf_idolatrizeworld_7_132
@ 137   ----------------------------------------
	.byte	PATT
	 .word	mus_thpprf_idolatrizeworld_7_129
@ 138   ----------------------------------------
	.byte	PATT
	 .word	mus_thpprf_idolatrizeworld_7_130
@ 139   ----------------------------------------
	.byte	PATT
	 .word	mus_thpprf_idolatrizeworld_7_131
@ 140   ----------------------------------------
	.byte	PATT
	 .word	mus_thpprf_idolatrizeworld_7_132
@ 141   ----------------------------------------
	.byte	PATT
	 .word	mus_thpprf_idolatrizeworld_7_129
@ 142   ----------------------------------------
	.byte	PATT
	 .word	mus_thpprf_idolatrizeworld_7_130
@ 143   ----------------------------------------
	.byte	PATT
	 .word	mus_thpprf_idolatrizeworld_7_131
@ 144   ----------------------------------------
	.byte	PATT
	 .word	mus_thpprf_idolatrizeworld_7_132
@ 145   ----------------------------------------
	.byte	W96
@ 146   ----------------------------------------
	.byte	W96
@ 147   ----------------------------------------
	.byte	W96
@ 148   ----------------------------------------
	.byte	W96
@ 149   ----------------------------------------
	.byte	W96
@ 150   ----------------------------------------
	.byte	W96
@ 151   ----------------------------------------
	.byte	W96
@ 152   ----------------------------------------
	.byte	W96
@ 153   ----------------------------------------
	.byte	W96
@ 154   ----------------------------------------
	.byte	W96
@ 155   ----------------------------------------
	.byte	W96
@ 156   ----------------------------------------
	.byte	W96
@ 157   ----------------------------------------
	.byte	W96
@ 158   ----------------------------------------
	.byte	W96
@ 159   ----------------------------------------
	.byte	W96
@ 160   ----------------------------------------
	.byte	W96
@ 161   ----------------------------------------
	.byte	W96
@ 162   ----------------------------------------
	.byte	W96
@ 163   ----------------------------------------
	.byte	W96
@ 164   ----------------------------------------
	.byte	W96
@ 165   ----------------------------------------
	.byte	W96
@ 166   ----------------------------------------
	.byte	W96
@ 167   ----------------------------------------
	.byte	W96
@ 168   ----------------------------------------
	.byte	W96
@ 169   ----------------------------------------
	.byte	W96
@ 170   ----------------------------------------
	.byte	W96
@ 171   ----------------------------------------
	.byte	W96
@ 172   ----------------------------------------
	.byte	W96
@ 173   ----------------------------------------
	.byte	W96
@ 174   ----------------------------------------
	.byte	W96
@ 175   ----------------------------------------
	.byte	W96
@ 176   ----------------------------------------
	.byte	W96
@ 177   ----------------------------------------
	.byte	W96
@ 178   ----------------------------------------
	.byte	W96
@ 179   ----------------------------------------
	.byte	W96
@ 180   ----------------------------------------
	.byte	W96
@ 181   ----------------------------------------
	.byte	W96
@ 182   ----------------------------------------
	.byte	W96
@ 183   ----------------------------------------
	.byte	W96
@ 184   ----------------------------------------
	.byte	W96
@ 185   ----------------------------------------
	.byte	W96
@ 186   ----------------------------------------
	.byte	W96
@ 187   ----------------------------------------
	.byte	W96
@ 188   ----------------------------------------
	.byte	W96
@ 189   ----------------------------------------
	.byte	W96
@ 190   ----------------------------------------
	.byte	W96
@ 191   ----------------------------------------
	.byte	W96
@ 192   ----------------------------------------
	.byte	W96
@ 193   ----------------------------------------
	.byte	W96
@ 194   ----------------------------------------
	.byte	W96
@ 195   ----------------------------------------
	.byte	W96
@ 196   ----------------------------------------
	.byte	W96
@ 197   ----------------------------------------
	.byte	W96
@ 198   ----------------------------------------
	.byte	W96
@ 199   ----------------------------------------
	.byte	W96
@ 200   ----------------------------------------
	.byte	W96
@ 201   ----------------------------------------
	.byte	W96
@ 202   ----------------------------------------
	.byte	W96
@ 203   ----------------------------------------
	.byte	W96
@ 204   ----------------------------------------
	.byte	W96
@ 205   ----------------------------------------
	.byte	W96
@ 206   ----------------------------------------
	.byte	W96
@ 207   ----------------------------------------
	.byte	W96
@ 208   ----------------------------------------
	.byte	W96
@ 209   ----------------------------------------
	.byte	W96
@ 210   ----------------------------------------
	.byte	W96
@ 211   ----------------------------------------
	.byte	W96
@ 212   ----------------------------------------
	.byte	W96
@ 213   ----------------------------------------
	.byte	W96
@ 214   ----------------------------------------
	.byte	W96
@ 215   ----------------------------------------
	.byte	W96
@ 216   ----------------------------------------
	.byte	W96
@ 217   ----------------------------------------
	.byte	W96
@ 218   ----------------------------------------
	.byte	W96
@ 219   ----------------------------------------
	.byte	W96
@ 220   ----------------------------------------
	.byte	W96
@ 221   ----------------------------------------
	.byte	W96
@ 222   ----------------------------------------
	.byte	W96
@ 223   ----------------------------------------
	.byte	W96
@ 224   ----------------------------------------
	.byte	W96
@ 225   ----------------------------------------
	.byte	W96
@ 226   ----------------------------------------
	.byte	W96
@ 227   ----------------------------------------
	.byte	W96
@ 228   ----------------------------------------
	.byte	W96
@ 229   ----------------------------------------
	.byte	W96
@ 230   ----------------------------------------
	.byte	W96
@ 231   ----------------------------------------
	.byte	W96
@ 232   ----------------------------------------
	.byte	W96
@ 233   ----------------------------------------
	.byte	W96
@ 234   ----------------------------------------
	.byte	W96
@ 235   ----------------------------------------
	.byte	W96
@ 236   ----------------------------------------
	.byte	W96
@ 237   ----------------------------------------
	.byte	W96
@ 238   ----------------------------------------
	.byte	W96
@ 239   ----------------------------------------
	.byte	W96
@ 240   ----------------------------------------
	.byte	W96
@ 241   ----------------------------------------
	.byte	W96
@ 242   ----------------------------------------
	.byte	W96
@ 243   ----------------------------------------
	.byte	W96
@ 244   ----------------------------------------
	.byte	W96
@ 245   ----------------------------------------
	.byte	W96
@ 246   ----------------------------------------
	.byte	W96
@ 247   ----------------------------------------
	.byte	W96
@ 248   ----------------------------------------
	.byte	W96
@ 249   ----------------------------------------
	.byte	W96
@ 250   ----------------------------------------
	.byte	W96
@ 251   ----------------------------------------
	.byte	W96
@ 252   ----------------------------------------
	.byte	W96
@ 253   ----------------------------------------
	.byte	W96
@ 254   ----------------------------------------
	.byte	W96
@ 255   ----------------------------------------
	.byte	W96
@ 256   ----------------------------------------
	.byte	W96
@ 257   ----------------------------------------
	.byte	W96
@ 258   ----------------------------------------
mus_thpprf_idolatrizeworld_7_258:
	.byte		N24   , Ds2 , v060
	.byte		N24   , Gs2 
	.byte	W24
	.byte		N24   
	.byte		N24   , Cs3 
	.byte	W24
	.byte		        Bn2 
	.byte		N24   , Ds3 
	.byte	W24
	.byte		        Cs3 
	.byte		N24   , Fs3 
	.byte	W24
	.byte	PEND
@ 259   ----------------------------------------
mus_thpprf_idolatrizeworld_7_259:
	.byte		N24   , Bn2 , v060
	.byte		N24   , Ds3 
	.byte	W24
	.byte		        Gs2 
	.byte		N24   , Cs3 
	.byte	W24
	.byte		        Ds2 
	.byte		N24   , Gs2 
	.byte	W24
	.byte		N24   
	.byte		N24   , Cs3 
	.byte	W24
	.byte	PEND
@ 260   ----------------------------------------
mus_thpprf_idolatrizeworld_7_260:
	.byte		N24   , Bn2 , v060
	.byte		N24   , Ds3 
	.byte	W24
	.byte		        Cs3 
	.byte		N24   , Fs3 
	.byte	W24
	.byte		        Bn2 
	.byte		N24   , Ds3 
	.byte	W24
	.byte		        Gs2 
	.byte		N24   , Cs3 
	.byte	W24
	.byte	PEND
@ 261   ----------------------------------------
mus_thpprf_idolatrizeworld_7_261:
	.byte		N24   , Fs2 , v060
	.byte		N24   , As2 
	.byte	W24
	.byte		        Gs2 
	.byte		N24   , Bn2 
	.byte	W24
	.byte		        Fs2 
	.byte		N24   , As2 
	.byte	W24
	.byte		        Fs2 
	.byte	W24
	.byte	PEND
@ 262   ----------------------------------------
	.byte	PATT
	 .word	mus_thpprf_idolatrizeworld_7_258
@ 263   ----------------------------------------
	.byte	PATT
	 .word	mus_thpprf_idolatrizeworld_7_259
@ 264   ----------------------------------------
	.byte	PATT
	 .word	mus_thpprf_idolatrizeworld_7_260
@ 265   ----------------------------------------
	.byte		N24   , Fs2 , v060
	.byte		N24   , As2 
	.byte	W24
	.byte		        Gs2 
	.byte		N24   , Bn2 
	.byte	W24
	.byte		        Fs2 
	.byte		N24   , As2 
	.byte	W24
	.byte		        Cs2 
	.byte		N24   , Fs2 
	.byte	W24
@ 266   ----------------------------------------
	.byte	PATT
	 .word	mus_thpprf_idolatrizeworld_7_258
@ 267   ----------------------------------------
	.byte	PATT
	 .word	mus_thpprf_idolatrizeworld_7_259
@ 268   ----------------------------------------
	.byte	PATT
	 .word	mus_thpprf_idolatrizeworld_7_260
@ 269   ----------------------------------------
	.byte	PATT
	 .word	mus_thpprf_idolatrizeworld_7_261
@ 270   ----------------------------------------
	.byte		N24   , Gs2 , v060
	.byte	W24
	.byte		N24   
	.byte		N24   , Cs3 
	.byte	W24
	.byte		        Bn2 
	.byte		N24   , Ds3 
	.byte	W24
	.byte		        Cs3 
	.byte		N24   , Fs3 
	.byte	W24
@ 271   ----------------------------------------
	.byte		        Bn2 
	.byte		N24   , Ds3 
	.byte	W24
	.byte		        Gs2 
	.byte		N24   , Cs3 
	.byte	W24
	.byte		        Gs2 
	.byte	W24
	.byte		N24   
	.byte		N24   , Cs3 
	.byte	W24
@ 272   ----------------------------------------
	.byte	PATT
	 .word	mus_thpprf_idolatrizeworld_7_260
@ 273   ----------------------------------------
	.byte		N24   , Fs3 , v072
	.byte		N24   , As3 
	.byte	W24
	.byte		        Gs3 
	.byte		N24   , Bn3 
	.byte	W24
	.byte		        Fs3 
	.byte		N24   , As3 
	.byte	W24
	.byte		        Cs3 
	.byte		N24   , Fs3 
	.byte	W24
@ 274   ----------------------------------------
	.byte	W96
@ 275   ----------------------------------------
	.byte	W96
@ 276   ----------------------------------------
	.byte	W96
@ 277   ----------------------------------------
	.byte	W96
@ 278   ----------------------------------------
	.byte	W96
@ 279   ----------------------------------------
	.byte	W96
@ 280   ----------------------------------------
	.byte	W96
@ 281   ----------------------------------------
	.byte	W96
@ 282   ----------------------------------------
	.byte	W96
@ 283   ----------------------------------------
	.byte	W96
@ 284   ----------------------------------------
	.byte	W96
@ 285   ----------------------------------------
	.byte	W96
@ 286   ----------------------------------------
	.byte	W96
@ 287   ----------------------------------------
	.byte	W96
@ 288   ----------------------------------------
	.byte	W96
@ 289   ----------------------------------------
	.byte	W96
@ 290   ----------------------------------------
mus_thpprf_idolatrizeworld_7_290:
	.byte		TIE   , Fs2 , v080
	.byte		TIE   , Bn2 
	.byte	W96
	.byte	PEND
@ 291   ----------------------------------------
	.byte	W96
	.byte		EOT   , Fs2 
	.byte		        Bn2 
@ 292   ----------------------------------------
mus_thpprf_idolatrizeworld_7_292:
	.byte		N24   , Fs2 , v080
	.byte		N24   , Bn2 
	.byte	W24
	.byte		        Fs2 
	.byte		N24   , Bn2 
	.byte	W72
	.byte	PEND
@ 293   ----------------------------------------
mus_thpprf_idolatrizeworld_7_293:
	.byte	W48
	.byte		N24   , Fs2 , v080
	.byte		N24   , Bn2 
	.byte	W48
	.byte	PEND
@ 294   ----------------------------------------
mus_thpprf_idolatrizeworld_7_294:
	.byte		TIE   , En2 , v080
	.byte		TIE   , An2 
	.byte	W96
	.byte	PEND
@ 295   ----------------------------------------
	.byte	W96
	.byte		EOT   , En2 
	.byte		        An2 
@ 296   ----------------------------------------
mus_thpprf_idolatrizeworld_7_296:
	.byte		N36   , En2 , v080
	.byte		N36   , An2 
	.byte	W72
	.byte		        En2 
	.byte		N36   , An2 
	.byte	W24
	.byte	PEND
@ 297   ----------------------------------------
mus_thpprf_idolatrizeworld_7_297:
	.byte	W48
	.byte		N24   , En2 , v080
	.byte		N24   , An2 
	.byte	W48
	.byte	PEND
@ 298   ----------------------------------------
mus_thpprf_idolatrizeworld_7_298:
	.byte		TIE   , Ds2 , v080
	.byte		TIE   , Gs2 
	.byte	W96
	.byte	PEND
@ 299   ----------------------------------------
	.byte	W96
	.byte		EOT   , Ds2 
	.byte		        Gs2 
@ 300   ----------------------------------------
mus_thpprf_idolatrizeworld_7_300:
	.byte		N24   , Ds2 , v080
	.byte		N24   , Gs2 
	.byte	W24
	.byte		        Ds2 
	.byte		N24   , Gs2 
	.byte	W72
	.byte	PEND
@ 301   ----------------------------------------
mus_thpprf_idolatrizeworld_7_301:
	.byte	W48
	.byte		N24   , Ds2 , v080
	.byte		N24   , Gs2 
	.byte	W48
	.byte	PEND
@ 302   ----------------------------------------
	.byte		TIE   , Dn2 
	.byte		TIE   , Gn2 
	.byte	W96
@ 303   ----------------------------------------
	.byte	W96
	.byte		EOT   , Dn2 
	.byte		        Gn2 
@ 304   ----------------------------------------
	.byte		N96   , En2 
	.byte		N96   , An2 
	.byte	W96
@ 305   ----------------------------------------
	.byte		        Fn2 
	.byte		N96   , As2 
	.byte	W96
@ 306   ----------------------------------------
	.byte	PATT
	 .word	mus_thpprf_idolatrizeworld_7_290
@ 307   ----------------------------------------
	.byte	W96
	.byte		EOT   , Fs2 
	.byte		        Bn2 
@ 308   ----------------------------------------
	.byte	PATT
	 .word	mus_thpprf_idolatrizeworld_7_292
@ 309   ----------------------------------------
	.byte	PATT
	 .word	mus_thpprf_idolatrizeworld_7_293
@ 310   ----------------------------------------
	.byte	PATT
	 .word	mus_thpprf_idolatrizeworld_7_294
@ 311   ----------------------------------------
	.byte	W96
	.byte		EOT   , En2 
	.byte		        An2 
@ 312   ----------------------------------------
	.byte	PATT
	 .word	mus_thpprf_idolatrizeworld_7_296
@ 313   ----------------------------------------
	.byte	PATT
	 .word	mus_thpprf_idolatrizeworld_7_297
@ 314   ----------------------------------------
	.byte	PATT
	 .word	mus_thpprf_idolatrizeworld_7_298
@ 315   ----------------------------------------
	.byte	W96
	.byte		EOT   , Ds2 
	.byte		        Gs2 
@ 316   ----------------------------------------
	.byte	PATT
	 .word	mus_thpprf_idolatrizeworld_7_300
@ 317   ----------------------------------------
	.byte	PATT
	 .word	mus_thpprf_idolatrizeworld_7_301
@ 318   ----------------------------------------
	.byte		N84   , Dn2 , v080
	.byte		N84   , Gn2 
	.byte	W96
@ 319   ----------------------------------------
	.byte		        Dn2 
	.byte		N84   , Gn2 
	.byte	W96
@ 320   ----------------------------------------
	.byte		        En2 
	.byte		N84   , An2 
	.byte	W96
@ 321   ----------------------------------------
	.byte		        Fn2 
	.byte		N84   , As2 
	.byte	W96
@ 322   ----------------------------------------
	.byte	PATT
	 .word	mus_thpprf_idolatrizeworld_7_033
@ 323   ----------------------------------------
	.byte	PATT
	 .word	mus_thpprf_idolatrizeworld_7_034
@ 324   ----------------------------------------
	.byte	PATT
	 .word	mus_thpprf_idolatrizeworld_7_035
@ 325   ----------------------------------------
	.byte	PATT
	 .word	mus_thpprf_idolatrizeworld_7_036
@ 326   ----------------------------------------
	.byte	PATT
	 .word	mus_thpprf_idolatrizeworld_7_033
@ 327   ----------------------------------------
	.byte	PATT
	 .word	mus_thpprf_idolatrizeworld_7_034
@ 328   ----------------------------------------
	.byte	PATT
	 .word	mus_thpprf_idolatrizeworld_7_035
@ 329   ----------------------------------------
	.byte	PATT
	 .word	mus_thpprf_idolatrizeworld_7_040
@ 330   ----------------------------------------
	.byte	PATT
	 .word	mus_thpprf_idolatrizeworld_7_033
@ 331   ----------------------------------------
	.byte	PATT
	 .word	mus_thpprf_idolatrizeworld_7_034
@ 332   ----------------------------------------
	.byte	PATT
	 .word	mus_thpprf_idolatrizeworld_7_035
@ 333   ----------------------------------------
	.byte	PATT
	 .word	mus_thpprf_idolatrizeworld_7_036
@ 334   ----------------------------------------
	.byte	PATT
	 .word	mus_thpprf_idolatrizeworld_7_033
@ 335   ----------------------------------------
	.byte	PATT
	 .word	mus_thpprf_idolatrizeworld_7_034
@ 336   ----------------------------------------
	.byte	PATT
	 .word	mus_thpprf_idolatrizeworld_7_035
@ 337   ----------------------------------------
	.byte	PATT
	 .word	mus_thpprf_idolatrizeworld_7_048
@ 338   ----------------------------------------
	.byte	GOTO
	.word	mus_thpprf_idolatrizeworld_7_049
	.byte	FINE

@**************** Track 8 (Midi-Chn.8) ****************@

mus_thpprf_idolatrizeworld_8:
	.byte	KEYSH , mus_thpprf_idolatrizeworld_key+0
@ 000   ----------------------------------------
	.byte	W28
	.byte		VOICE , 48
	.byte		PAN   , c_v+0
	.byte		VOL   , 42*mus_thpprf_idolatrizeworld_mvl/mxv
	.byte	W02
	.byte		MOD   , 0
	.byte	W66
@ 001   ----------------------------------------
	.byte		TIE   , En3 , v100
	.byte	W96
@ 002   ----------------------------------------
	.byte	W96
@ 003   ----------------------------------------
	.byte	W96
@ 004   ----------------------------------------
	.byte	W72
	.byte		EOT   
	.byte	W24
@ 005   ----------------------------------------
	.byte		TIE   , Fs3 
	.byte	W96
@ 006   ----------------------------------------
	.byte	W96
@ 007   ----------------------------------------
	.byte	W96
@ 008   ----------------------------------------
	.byte	W72
	.byte		EOT   
	.byte	W24
@ 009   ----------------------------------------
	.byte		TIE   , En3 
	.byte	W96
@ 010   ----------------------------------------
	.byte	W96
@ 011   ----------------------------------------
	.byte		        Gs3 
	.byte	W96
@ 012   ----------------------------------------
	.byte	W72
	.byte		EOT   , En3 
	.byte		        Gs3 
	.byte	W24
@ 013   ----------------------------------------
mus_thpprf_idolatrizeworld_8_013:
	.byte		TIE   , Dn3 , v100
	.byte		TIE   , Gn3 
	.byte	W96
	.byte	PEND
@ 014   ----------------------------------------
	.byte	W96
	.byte		EOT   , Dn3 
	.byte		        Gn3 
@ 015   ----------------------------------------
mus_thpprf_idolatrizeworld_8_015:
	.byte		TIE   , En3 , v100
	.byte		TIE   , As3 
	.byte	W96
	.byte	PEND
@ 016   ----------------------------------------
	.byte	W96
	.byte		EOT   , En3 
	.byte		        As3 
@ 017   ----------------------------------------
	.byte		TIE   , Fs3 
	.byte	W96
@ 018   ----------------------------------------
	.byte	W96
@ 019   ----------------------------------------
	.byte	W96
@ 020   ----------------------------------------
	.byte	W72
	.byte		EOT   
	.byte	W24
@ 021   ----------------------------------------
	.byte		TIE   , En3 
	.byte	W96
@ 022   ----------------------------------------
	.byte	W96
@ 023   ----------------------------------------
	.byte	W96
	.byte		EOT   
@ 024   ----------------------------------------
	.byte	W96
@ 025   ----------------------------------------
	.byte	W96
@ 026   ----------------------------------------
	.byte	W96
@ 027   ----------------------------------------
	.byte	W96
@ 028   ----------------------------------------
	.byte	W96
@ 029   ----------------------------------------
	.byte		TIE   , Dn3 
	.byte	W96
@ 030   ----------------------------------------
	.byte	W72
	.byte		EOT   
	.byte	W24
@ 031   ----------------------------------------
	.byte		TIE   , En3 
	.byte	W96
@ 032   ----------------------------------------
	.byte	W72
	.byte		EOT   
	.byte	W24
@ 033   ----------------------------------------
	.byte	W96
@ 034   ----------------------------------------
	.byte	W96
@ 035   ----------------------------------------
	.byte	W96
@ 036   ----------------------------------------
	.byte	W96
@ 037   ----------------------------------------
	.byte	W96
@ 038   ----------------------------------------
	.byte	W96
@ 039   ----------------------------------------
	.byte	W96
@ 040   ----------------------------------------
	.byte	W96
@ 041   ----------------------------------------
	.byte	W96
@ 042   ----------------------------------------
	.byte	W96
@ 043   ----------------------------------------
	.byte	W96
@ 044   ----------------------------------------
	.byte	W96
@ 045   ----------------------------------------
	.byte	W96
@ 046   ----------------------------------------
	.byte	W96
@ 047   ----------------------------------------
	.byte	W96
@ 048   ----------------------------------------
	.byte	W96
@ 049   ----------------------------------------
mus_thpprf_idolatrizeworld_8_049:
	.byte		TIE   , Gs2 , v060
	.byte		TIE   , Bn2 
	.byte		TIE   , Ds3 
	.byte	W96
	.byte	PEND
@ 050   ----------------------------------------
	.byte	W96
	.byte		EOT   , Gs2 
	.byte		        Bn2 
	.byte		        Ds3 
@ 051   ----------------------------------------
mus_thpprf_idolatrizeworld_8_051:
	.byte		TIE   , Gn2 , v060
	.byte		TIE   , Bn2 
	.byte		TIE   , Ds3 
	.byte	W96
	.byte	PEND
@ 052   ----------------------------------------
	.byte	W96
	.byte		EOT   , Gn2 
	.byte		        Bn2 
	.byte		        Ds3 
@ 053   ----------------------------------------
mus_thpprf_idolatrizeworld_8_053:
	.byte		TIE   , Fs2 , v060
	.byte		TIE   , Bn2 
	.byte		TIE   , Ds3 
	.byte	W96
	.byte	PEND
@ 054   ----------------------------------------
	.byte	W96
	.byte		EOT   , Fs2 
	.byte		        Bn2 
	.byte		        Ds3 
@ 055   ----------------------------------------
mus_thpprf_idolatrizeworld_8_055:
	.byte		TIE   , Fn2 , v060
	.byte		TIE   , As2 
	.byte		TIE   , Cs3 
	.byte	W96
	.byte	PEND
@ 056   ----------------------------------------
	.byte	W96
	.byte		EOT   , Fn2 
	.byte		        As2 
	.byte		        Cs3 
@ 057   ----------------------------------------
mus_thpprf_idolatrizeworld_8_057:
	.byte		TIE   , En2 , v060
	.byte		TIE   , Gs2 
	.byte		TIE   , Bn2 
	.byte	W96
	.byte	PEND
@ 058   ----------------------------------------
	.byte	W96
	.byte		EOT   , En2 
	.byte		        Gs2 
	.byte		        Bn2 
@ 059   ----------------------------------------
	.byte		TIE   , Ds2 
	.byte		TIE   , Gn2 
	.byte		TIE   , As2 
	.byte	W96
@ 060   ----------------------------------------
	.byte	W96
	.byte		EOT   , Ds2 
	.byte		        Gn2 
	.byte		        As2 
@ 061   ----------------------------------------
	.byte		TIE   , Cs2 
	.byte		TIE   , Fn2 
	.byte		TIE   , As2 
	.byte	W96
@ 062   ----------------------------------------
	.byte	W96
	.byte		EOT   , Cs2 
	.byte		        Fn2 
	.byte		        As2 
@ 063   ----------------------------------------
	.byte		N96   , Ds2 
	.byte		N96   , Gn2 
	.byte		N96   , As2 
	.byte	W96
@ 064   ----------------------------------------
	.byte		        Gn2 
	.byte		N96   , As2 
	.byte		N96   , Ds3 
	.byte	W96
@ 065   ----------------------------------------
	.byte	PATT
	 .word	mus_thpprf_idolatrizeworld_8_049
@ 066   ----------------------------------------
	.byte	W96
	.byte		EOT   , Gs2 
	.byte		        Bn2 
	.byte		        Ds3 
@ 067   ----------------------------------------
	.byte	PATT
	 .word	mus_thpprf_idolatrizeworld_8_051
@ 068   ----------------------------------------
	.byte	W96
	.byte		EOT   , Gn2 
	.byte		        Bn2 
	.byte		        Ds3 
@ 069   ----------------------------------------
	.byte	PATT
	 .word	mus_thpprf_idolatrizeworld_8_053
@ 070   ----------------------------------------
	.byte	W96
	.byte		EOT   , Fs2 
	.byte		        Bn2 
	.byte		        Ds3 
@ 071   ----------------------------------------
	.byte	PATT
	 .word	mus_thpprf_idolatrizeworld_8_055
@ 072   ----------------------------------------
	.byte	W96
	.byte		EOT   , Fn2 
	.byte		        As2 
	.byte		        Cs3 
@ 073   ----------------------------------------
	.byte	PATT
	 .word	mus_thpprf_idolatrizeworld_8_057
@ 074   ----------------------------------------
	.byte	W96
	.byte		EOT   , En2 
	.byte		        Gs2 
	.byte		        Bn2 
@ 075   ----------------------------------------
	.byte		TIE   , Fs2 , v060
	.byte		TIE   , As2 
	.byte		TIE   , Cs3 
	.byte	W96
@ 076   ----------------------------------------
	.byte	W96
	.byte		EOT   , Fs2 
	.byte		        As2 
	.byte		        Cs3 
@ 077   ----------------------------------------
mus_thpprf_idolatrizeworld_8_077:
	.byte		TIE   , Gs2 , v060
	.byte		TIE   , Cs3 
	.byte		TIE   , Ds3 
	.byte	W96
	.byte	PEND
@ 078   ----------------------------------------
	.byte	W96
	.byte		EOT   , Cs3 
@ 079   ----------------------------------------
	.byte		TIE   , Bn2 
	.byte	W96
@ 080   ----------------------------------------
	.byte	W96
	.byte		EOT   , Gs2 
	.byte		        Bn2 
	.byte		        Ds3 
@ 081   ----------------------------------------
mus_thpprf_idolatrizeworld_8_081:
	.byte		TIE   , Gs2 , v068
	.byte		TIE   , Bn2 
	.byte		TIE   , Ds3 
	.byte	W96
	.byte	PEND
@ 082   ----------------------------------------
	.byte	W96
	.byte		EOT   , Gs2 
	.byte		        Bn2 
	.byte		        Ds3 
@ 083   ----------------------------------------
mus_thpprf_idolatrizeworld_8_083:
	.byte		TIE   , Gn2 , v068
	.byte		TIE   , Bn2 
	.byte		TIE   , Ds3 
	.byte	W96
	.byte	PEND
@ 084   ----------------------------------------
	.byte	W96
	.byte		EOT   , Gn2 
	.byte		        Bn2 
	.byte		        Ds3 
@ 085   ----------------------------------------
mus_thpprf_idolatrizeworld_8_085:
	.byte		TIE   , Fs2 , v068
	.byte		TIE   , Bn2 
	.byte		TIE   , Ds3 
	.byte	W96
	.byte	PEND
@ 086   ----------------------------------------
	.byte	W96
	.byte		EOT   , Fs2 
	.byte		        Bn2 
	.byte		        Ds3 
@ 087   ----------------------------------------
mus_thpprf_idolatrizeworld_8_087:
	.byte		TIE   , Fn2 , v068
	.byte		TIE   , As2 
	.byte		TIE   , Cs3 
	.byte	W96
	.byte	PEND
@ 088   ----------------------------------------
	.byte	W96
	.byte		EOT   , Fn2 
	.byte		        As2 
	.byte		        Cs3 
@ 089   ----------------------------------------
mus_thpprf_idolatrizeworld_8_089:
	.byte		TIE   , En2 , v068
	.byte		TIE   , Gs2 
	.byte		TIE   , Bn2 
	.byte	W96
	.byte	PEND
@ 090   ----------------------------------------
	.byte	W96
	.byte		EOT   , En2 
	.byte		        Gs2 
	.byte		        Bn2 
@ 091   ----------------------------------------
mus_thpprf_idolatrizeworld_8_091:
	.byte		TIE   , Ds2 , v068
	.byte		TIE   , Gn2 
	.byte		TIE   , As2 
	.byte	W96
	.byte	PEND
@ 092   ----------------------------------------
	.byte	W96
	.byte		EOT   , Ds2 
	.byte		        Gn2 
	.byte		        As2 
@ 093   ----------------------------------------
	.byte		TIE   , Cs2 
	.byte		TIE   , Fn2 
	.byte		TIE   , As2 
	.byte	W96
@ 094   ----------------------------------------
	.byte	W96
	.byte		EOT   , Cs2 
	.byte		        Fn2 
	.byte		        As2 
@ 095   ----------------------------------------
	.byte		N96   , Ds2 
	.byte		N96   , Gn2 
	.byte		N96   , As2 
	.byte	W96
@ 096   ----------------------------------------
	.byte		        Gn2 
	.byte		N96   , As2 
	.byte		N96   , Ds3 
	.byte	W96
@ 097   ----------------------------------------
	.byte	PATT
	 .word	mus_thpprf_idolatrizeworld_8_081
@ 098   ----------------------------------------
	.byte	W96
	.byte		EOT   , Gs2 
	.byte		        Bn2 
	.byte		        Ds3 
@ 099   ----------------------------------------
	.byte	PATT
	 .word	mus_thpprf_idolatrizeworld_8_083
@ 100   ----------------------------------------
	.byte	W96
	.byte		EOT   , Gn2 
	.byte		        Bn2 
	.byte		        Ds3 
@ 101   ----------------------------------------
	.byte	PATT
	 .word	mus_thpprf_idolatrizeworld_8_085
@ 102   ----------------------------------------
	.byte	W96
	.byte		EOT   , Fs2 
	.byte		        Bn2 
	.byte		        Ds3 
@ 103   ----------------------------------------
	.byte	PATT
	 .word	mus_thpprf_idolatrizeworld_8_087
@ 104   ----------------------------------------
	.byte	W96
	.byte		EOT   , Fn2 
	.byte		        As2 
	.byte		        Cs3 
@ 105   ----------------------------------------
	.byte	PATT
	 .word	mus_thpprf_idolatrizeworld_8_089
@ 106   ----------------------------------------
	.byte	W96
	.byte		EOT   , En2 
	.byte		        Gs2 
	.byte		        Bn2 
@ 107   ----------------------------------------
	.byte		TIE   , Fs2 , v068
	.byte		TIE   , As2 
	.byte		TIE   , Cs3 
	.byte	W96
@ 108   ----------------------------------------
	.byte	W96
	.byte		EOT   , Fs2 
	.byte		        As2 
	.byte		        Cs3 
@ 109   ----------------------------------------
	.byte	PATT
	 .word	mus_thpprf_idolatrizeworld_8_077
@ 110   ----------------------------------------
	.byte	W96
	.byte		EOT   , Cs3 
@ 111   ----------------------------------------
	.byte		TIE   , Cn3 , v060
	.byte	W96
@ 112   ----------------------------------------
	.byte	W96
	.byte		EOT   , Gs2 
	.byte		        Cn3 
	.byte		        Ds3 
@ 113   ----------------------------------------
	.byte	W96
@ 114   ----------------------------------------
	.byte	W96
@ 115   ----------------------------------------
	.byte	W96
@ 116   ----------------------------------------
	.byte		N96   , Bn3 , v100
	.byte		N96   , En4 
	.byte	W96
@ 117   ----------------------------------------
	.byte	W96
@ 118   ----------------------------------------
	.byte	W96
@ 119   ----------------------------------------
	.byte		TIE   , Bn3 
	.byte		TIE   , En4 
	.byte	W96
@ 120   ----------------------------------------
	.byte	W96
	.byte		EOT   , Bn3 
	.byte		        En4 
@ 121   ----------------------------------------
	.byte	W96
@ 122   ----------------------------------------
	.byte	W96
@ 123   ----------------------------------------
	.byte	W96
@ 124   ----------------------------------------
	.byte		N96   , Bn3 
	.byte		N96   , En4 
	.byte	W96
@ 125   ----------------------------------------
	.byte	W96
@ 126   ----------------------------------------
	.byte	W96
@ 127   ----------------------------------------
	.byte		TIE   , Bn3 
	.byte		N96   , En4 
	.byte	W96
@ 128   ----------------------------------------
	.byte		        Fs4 
	.byte	W96
	.byte		EOT   , Bn3 
@ 129   ----------------------------------------
	.byte		N48   , Gn4 
	.byte		N48   , As4 
	.byte	W96
@ 130   ----------------------------------------
mus_thpprf_idolatrizeworld_8_130:
	.byte	W48
	.byte		N48   , Gn4 , v100
	.byte		N48   , As4 
	.byte	W48
	.byte	PEND
@ 131   ----------------------------------------
	.byte	W96
@ 132   ----------------------------------------
	.byte		N96   , Gn4 
	.byte		N48   , As4 
	.byte	W48
	.byte		        An4 
	.byte	W48
@ 133   ----------------------------------------
	.byte		        Gn4 
	.byte		N48   , As4 
	.byte	W96
@ 134   ----------------------------------------
	.byte	PATT
	 .word	mus_thpprf_idolatrizeworld_8_130
@ 135   ----------------------------------------
	.byte	W96
@ 136   ----------------------------------------
	.byte		N48   , Gn4 , v100
	.byte		N48   , As4 
	.byte	W48
	.byte		        An4 
	.byte		N48   , Cn5 
	.byte	W48
@ 137   ----------------------------------------
	.byte		        Gn4 
	.byte		N48   , As4 
	.byte	W96
@ 138   ----------------------------------------
	.byte	PATT
	 .word	mus_thpprf_idolatrizeworld_8_130
@ 139   ----------------------------------------
	.byte	W96
@ 140   ----------------------------------------
	.byte		N96   , Gn4 , v100
	.byte		N96   , As4 
	.byte	W96
@ 141   ----------------------------------------
	.byte		N48   , Gn4 
	.byte		N48   , As4 
	.byte	W96
@ 142   ----------------------------------------
	.byte	PATT
	 .word	mus_thpprf_idolatrizeworld_8_130
@ 143   ----------------------------------------
	.byte	W96
@ 144   ----------------------------------------
	.byte		N48   , Gn4 , v100
	.byte		N24   , As4 
	.byte	W24
	.byte		N24   
	.byte	W24
	.byte		N48   , Fn4 
	.byte		N24   , An4 
	.byte	W48
@ 145   ----------------------------------------
	.byte	W96
@ 146   ----------------------------------------
	.byte	PATT
	 .word	mus_thpprf_idolatrizeworld_8_091
@ 147   ----------------------------------------
	.byte	W72
	.byte		EOT   , Ds2 
	.byte		        Gn2 
	.byte		        As2 
	.byte	W24
@ 148   ----------------------------------------
mus_thpprf_idolatrizeworld_8_148:
	.byte		TIE   , Fn2 , v068
	.byte		TIE   , An2 
	.byte		TIE   , Cn3 
	.byte	W96
	.byte	PEND
@ 149   ----------------------------------------
	.byte	W72
	.byte		EOT   , Fn2 
	.byte		        An2 
	.byte		        Cn3 
	.byte	W24
@ 150   ----------------------------------------
mus_thpprf_idolatrizeworld_8_150:
	.byte		TIE   , Dn2 , v068
	.byte		TIE   , Fs2 
	.byte		TIE   , An2 
	.byte	W96
	.byte	PEND
@ 151   ----------------------------------------
	.byte	W72
	.byte		EOT   , Dn2 
	.byte		        Fs2 
	.byte		        An2 
	.byte	W24
@ 152   ----------------------------------------
mus_thpprf_idolatrizeworld_8_152:
	.byte		TIE   , Gn2 , v068
	.byte		TIE   , As2 
	.byte		TIE   , Dn3 
	.byte	W96
	.byte	PEND
@ 153   ----------------------------------------
	.byte	W72
	.byte		EOT   , Gn2 
	.byte		        As2 
	.byte		        Dn3 
	.byte	W24
@ 154   ----------------------------------------
	.byte	PATT
	 .word	mus_thpprf_idolatrizeworld_8_091
@ 155   ----------------------------------------
	.byte	W72
	.byte		EOT   , Ds2 
	.byte		        Gn2 
	.byte		        As2 
	.byte	W24
@ 156   ----------------------------------------
	.byte	PATT
	 .word	mus_thpprf_idolatrizeworld_8_148
@ 157   ----------------------------------------
	.byte	W72
	.byte		EOT   , Fn2 
	.byte		        An2 
	.byte		        Cn3 
	.byte	W24
@ 158   ----------------------------------------
	.byte	PATT
	 .word	mus_thpprf_idolatrizeworld_8_150
@ 159   ----------------------------------------
	.byte	W72
	.byte		EOT   , Dn2 
	.byte		        Fs2 
	.byte		        An2 
	.byte	W24
@ 160   ----------------------------------------
	.byte	PATT
	 .word	mus_thpprf_idolatrizeworld_8_152
@ 161   ----------------------------------------
	.byte	W72
	.byte		EOT   , Gn2 
	.byte		        As2 
	.byte		        Dn3 
	.byte	W24
@ 162   ----------------------------------------
	.byte	PATT
	 .word	mus_thpprf_idolatrizeworld_8_091
@ 163   ----------------------------------------
	.byte	W72
	.byte		EOT   , Ds2 
	.byte		        Gn2 
	.byte		        As2 
	.byte	W24
@ 164   ----------------------------------------
	.byte	PATT
	 .word	mus_thpprf_idolatrizeworld_8_148
@ 165   ----------------------------------------
	.byte	W72
	.byte		EOT   , Fn2 
	.byte		        An2 
	.byte		        Cn3 
	.byte	W24
@ 166   ----------------------------------------
	.byte	PATT
	 .word	mus_thpprf_idolatrizeworld_8_150
@ 167   ----------------------------------------
	.byte	W72
	.byte		EOT   , Dn2 
	.byte		        Fs2 
	.byte		        An2 
	.byte	W24
@ 168   ----------------------------------------
	.byte	PATT
	 .word	mus_thpprf_idolatrizeworld_8_152
@ 169   ----------------------------------------
	.byte	W72
	.byte		EOT   , Gn2 
	.byte		        As2 
	.byte		        Dn3 
	.byte	W24
@ 170   ----------------------------------------
	.byte	PATT
	 .word	mus_thpprf_idolatrizeworld_8_091
@ 171   ----------------------------------------
	.byte	W72
	.byte		EOT   , Ds2 
	.byte		        Gn2 
	.byte		        As2 
	.byte	W24
@ 172   ----------------------------------------
	.byte	PATT
	 .word	mus_thpprf_idolatrizeworld_8_148
@ 173   ----------------------------------------
	.byte	W72
	.byte		EOT   , Fn2 
	.byte		        An2 
	.byte		        Cn3 
	.byte	W24
@ 174   ----------------------------------------
mus_thpprf_idolatrizeworld_8_174:
	.byte		TIE   , Dn2 , v068
	.byte		TIE   , Gn2 
	.byte		TIE   , Cn3 
	.byte	W96
	.byte	PEND
@ 175   ----------------------------------------
	.byte	W96
	.byte		EOT   
@ 176   ----------------------------------------
	.byte		TIE   , Bn2 
	.byte	W96
@ 177   ----------------------------------------
	.byte	W72
	.byte		EOT   , Dn2 
	.byte		        Gn2 
	.byte		        Bn2 
	.byte	W24
@ 178   ----------------------------------------
	.byte	PATT
	 .word	mus_thpprf_idolatrizeworld_8_152
@ 179   ----------------------------------------
	.byte	W96
	.byte		EOT   , Gn2 
	.byte		        As2 
	.byte		        Dn3 
@ 180   ----------------------------------------
mus_thpprf_idolatrizeworld_8_180:
	.byte		TIE   , Fs2 , v068
	.byte		TIE   , As2 
	.byte		TIE   , Dn3 
	.byte	W96
	.byte	PEND
@ 181   ----------------------------------------
	.byte	W96
	.byte		EOT   , Fs2 
	.byte		        As2 
	.byte		        Dn3 
@ 182   ----------------------------------------
mus_thpprf_idolatrizeworld_8_182:
	.byte		TIE   , Fn2 , v068
	.byte		TIE   , As2 
	.byte		TIE   , Dn3 
	.byte	W96
	.byte	PEND
@ 183   ----------------------------------------
	.byte	W96
	.byte		EOT   , Fn2 
	.byte		        As2 
	.byte		        Dn3 
@ 184   ----------------------------------------
mus_thpprf_idolatrizeworld_8_184:
	.byte		TIE   , En2 , v068
	.byte		TIE   , An2 
	.byte		TIE   , Cn3 
	.byte	W96
	.byte	PEND
@ 185   ----------------------------------------
	.byte	W96
	.byte		EOT   , En2 
	.byte		        An2 
	.byte		        Cn3 
@ 186   ----------------------------------------
	.byte	PATT
	 .word	mus_thpprf_idolatrizeworld_8_091
@ 187   ----------------------------------------
	.byte	W96
	.byte		EOT   , Ds2 
	.byte		        Gn2 
	.byte		        As2 
@ 188   ----------------------------------------
	.byte	PATT
	 .word	mus_thpprf_idolatrizeworld_8_150
@ 189   ----------------------------------------
	.byte	W96
	.byte		EOT   , Dn2 
	.byte		        Fs2 
	.byte		        An2 
@ 190   ----------------------------------------
	.byte		TIE   , Cn2 , v068
	.byte		TIE   , En2 
	.byte		TIE   , An2 
	.byte	W96
@ 191   ----------------------------------------
	.byte	W96
	.byte		EOT   , Cn2 
	.byte		        En2 
	.byte		        An2 
@ 192   ----------------------------------------
	.byte		N96   , Dn2 
	.byte		N96   , Fs2 
	.byte		N96   , An2 
	.byte	W96
@ 193   ----------------------------------------
	.byte		        Fs2 
	.byte		N96   , An2 
	.byte		N96   , Dn3 
	.byte	W96
@ 194   ----------------------------------------
	.byte	PATT
	 .word	mus_thpprf_idolatrizeworld_8_152
@ 195   ----------------------------------------
	.byte	W96
	.byte		EOT   , Gn2 
	.byte		        As2 
	.byte		        Dn3 
@ 196   ----------------------------------------
	.byte	PATT
	 .word	mus_thpprf_idolatrizeworld_8_180
@ 197   ----------------------------------------
	.byte	W96
	.byte		EOT   , Fs2 
	.byte		        As2 
	.byte		        Dn3 
@ 198   ----------------------------------------
	.byte	PATT
	 .word	mus_thpprf_idolatrizeworld_8_182
@ 199   ----------------------------------------
	.byte	W96
	.byte		EOT   , Fn2 
	.byte		        As2 
	.byte		        Dn3 
@ 200   ----------------------------------------
	.byte	PATT
	 .word	mus_thpprf_idolatrizeworld_8_184
@ 201   ----------------------------------------
	.byte	W96
	.byte		EOT   , En2 
	.byte		        An2 
	.byte		        Cn3 
@ 202   ----------------------------------------
	.byte	PATT
	 .word	mus_thpprf_idolatrizeworld_8_091
@ 203   ----------------------------------------
	.byte	W96
	.byte		EOT   , Ds2 
	.byte		        Gn2 
	.byte		        As2 
@ 204   ----------------------------------------
	.byte	PATT
	 .word	mus_thpprf_idolatrizeworld_8_148
@ 205   ----------------------------------------
	.byte	W96
	.byte		EOT   , Fn2 
	.byte		        An2 
	.byte		        Cn3 
@ 206   ----------------------------------------
	.byte		TIE   , Gn2 , v068
	.byte		TIE   , Cn3 
	.byte		TIE   , Dn3 
	.byte	W96
@ 207   ----------------------------------------
	.byte	W96
	.byte		EOT   , Cn3 
@ 208   ----------------------------------------
	.byte		TIE   , Bn2 
	.byte	W96
@ 209   ----------------------------------------
	.byte	W96
	.byte		EOT   , Gn2 
	.byte		        Bn2 
	.byte		        Dn3 
@ 210   ----------------------------------------
	.byte	PATT
	 .word	mus_thpprf_idolatrizeworld_8_091
@ 211   ----------------------------------------
	.byte	W72
	.byte		EOT   , Ds2 
	.byte		        Gn2 
	.byte		        As2 
	.byte	W24
@ 212   ----------------------------------------
	.byte	PATT
	 .word	mus_thpprf_idolatrizeworld_8_148
@ 213   ----------------------------------------
	.byte	W72
	.byte		EOT   , Fn2 
	.byte		        An2 
	.byte		        Cn3 
	.byte	W24
@ 214   ----------------------------------------
	.byte	PATT
	 .word	mus_thpprf_idolatrizeworld_8_150
@ 215   ----------------------------------------
	.byte	W72
	.byte		EOT   , Dn2 
	.byte		        Fs2 
	.byte		        An2 
	.byte	W24
@ 216   ----------------------------------------
	.byte	PATT
	 .word	mus_thpprf_idolatrizeworld_8_152
@ 217   ----------------------------------------
	.byte	W72
	.byte		EOT   , Gn2 
	.byte		        As2 
	.byte		        Dn3 
	.byte	W24
@ 218   ----------------------------------------
	.byte	PATT
	 .word	mus_thpprf_idolatrizeworld_8_091
@ 219   ----------------------------------------
	.byte	W72
	.byte		EOT   , Ds2 
	.byte		        Gn2 
	.byte		        As2 
	.byte	W24
@ 220   ----------------------------------------
	.byte	PATT
	 .word	mus_thpprf_idolatrizeworld_8_148
@ 221   ----------------------------------------
	.byte	W72
	.byte		EOT   , Fn2 
	.byte		        An2 
	.byte		        Cn3 
	.byte	W24
@ 222   ----------------------------------------
	.byte	PATT
	 .word	mus_thpprf_idolatrizeworld_8_150
@ 223   ----------------------------------------
	.byte	W72
	.byte		EOT   , Dn2 
	.byte		        Fs2 
	.byte		        An2 
	.byte	W24
@ 224   ----------------------------------------
	.byte	PATT
	 .word	mus_thpprf_idolatrizeworld_8_152
@ 225   ----------------------------------------
	.byte	W72
	.byte		EOT   , Gn2 
	.byte		        As2 
	.byte		        Dn3 
	.byte	W24
@ 226   ----------------------------------------
	.byte	PATT
	 .word	mus_thpprf_idolatrizeworld_8_091
@ 227   ----------------------------------------
	.byte	W72
	.byte		EOT   , Ds2 
	.byte		        Gn2 
	.byte		        As2 
	.byte	W24
@ 228   ----------------------------------------
	.byte	PATT
	 .word	mus_thpprf_idolatrizeworld_8_148
@ 229   ----------------------------------------
	.byte	W72
	.byte		EOT   , Fn2 
	.byte		        An2 
	.byte		        Cn3 
	.byte	W24
@ 230   ----------------------------------------
	.byte	PATT
	 .word	mus_thpprf_idolatrizeworld_8_150
@ 231   ----------------------------------------
	.byte	W72
	.byte		EOT   , Dn2 
	.byte		        Fs2 
	.byte		        An2 
	.byte	W24
@ 232   ----------------------------------------
	.byte	PATT
	 .word	mus_thpprf_idolatrizeworld_8_152
@ 233   ----------------------------------------
	.byte	W72
	.byte		EOT   , Gn2 
	.byte		        As2 
	.byte		        Dn3 
	.byte	W24
@ 234   ----------------------------------------
	.byte	PATT
	 .word	mus_thpprf_idolatrizeworld_8_091
@ 235   ----------------------------------------
	.byte	W72
	.byte		EOT   , Ds2 
	.byte		        Gn2 
	.byte		        As2 
	.byte	W24
@ 236   ----------------------------------------
	.byte	PATT
	 .word	mus_thpprf_idolatrizeworld_8_148
@ 237   ----------------------------------------
	.byte	W72
	.byte		EOT   , Fn2 
	.byte		        An2 
	.byte		        Cn3 
	.byte	W24
@ 238   ----------------------------------------
	.byte	PATT
	 .word	mus_thpprf_idolatrizeworld_8_174
@ 239   ----------------------------------------
	.byte	W96
	.byte		EOT   , Cn3 
@ 240   ----------------------------------------
	.byte		TIE   , Bn2 , v068
	.byte	W96
@ 241   ----------------------------------------
	.byte	W72
	.byte		EOT   , Dn2 
	.byte		        Gn2 
	.byte		        Bn2 
	.byte	W24
@ 242   ----------------------------------------
mus_thpprf_idolatrizeworld_8_242:
	.byte		TIE   , En2 , v080
	.byte		TIE   , Gs2 
	.byte		TIE   , Bn2 
	.byte	W96
	.byte	PEND
@ 243   ----------------------------------------
	.byte	W72
	.byte		EOT   , En2 
	.byte		        Gs2 
	.byte		        Bn2 
	.byte	W24
@ 244   ----------------------------------------
mus_thpprf_idolatrizeworld_8_244:
	.byte		TIE   , Fs2 , v080
	.byte		TIE   , As2 
	.byte		TIE   , Cs3 
	.byte	W96
	.byte	PEND
@ 245   ----------------------------------------
	.byte	W72
	.byte		EOT   , Fs2 
	.byte		        As2 
	.byte		        Cs3 
	.byte	W24
@ 246   ----------------------------------------
mus_thpprf_idolatrizeworld_8_246:
	.byte		TIE   , Ds2 , v080
	.byte		TIE   , Gn2 
	.byte		TIE   , As2 
	.byte	W96
	.byte	PEND
@ 247   ----------------------------------------
	.byte	W72
	.byte		EOT   , Ds2 
	.byte		        Gn2 
	.byte		        As2 
	.byte	W24
@ 248   ----------------------------------------
mus_thpprf_idolatrizeworld_8_248:
	.byte		TIE   , Gs2 , v080
	.byte		TIE   , Bn2 
	.byte		TIE   , Ds3 
	.byte	W96
	.byte	PEND
@ 249   ----------------------------------------
	.byte	W72
	.byte		EOT   , Gs2 
	.byte		        Bn2 
	.byte		        Ds3 
	.byte	W24
@ 250   ----------------------------------------
	.byte	PATT
	 .word	mus_thpprf_idolatrizeworld_8_242
@ 251   ----------------------------------------
	.byte	W72
	.byte		EOT   , En2 
	.byte		        Gs2 
	.byte		        Bn2 
	.byte	W24
@ 252   ----------------------------------------
	.byte	PATT
	 .word	mus_thpprf_idolatrizeworld_8_244
@ 253   ----------------------------------------
	.byte	W72
	.byte		EOT   , Fs2 
	.byte		        As2 
	.byte		        Cs3 
	.byte	W24
@ 254   ----------------------------------------
	.byte	PATT
	 .word	mus_thpprf_idolatrizeworld_8_246
@ 255   ----------------------------------------
	.byte	W72
	.byte		EOT   , Ds2 
	.byte		        Gn2 
	.byte		        As2 
	.byte	W24
@ 256   ----------------------------------------
	.byte	PATT
	 .word	mus_thpprf_idolatrizeworld_8_248
@ 257   ----------------------------------------
	.byte	W72
	.byte		EOT   , Gs2 
	.byte		        Bn2 
	.byte		        Ds3 
	.byte	W24
@ 258   ----------------------------------------
	.byte	PATT
	 .word	mus_thpprf_idolatrizeworld_8_242
@ 259   ----------------------------------------
	.byte	W72
	.byte		EOT   , En2 
	.byte		        Gs2 
	.byte		        Bn2 
	.byte	W24
@ 260   ----------------------------------------
	.byte	PATT
	 .word	mus_thpprf_idolatrizeworld_8_244
@ 261   ----------------------------------------
	.byte	W72
	.byte		EOT   , Fs2 
	.byte		        As2 
	.byte		        Cs3 
	.byte	W24
@ 262   ----------------------------------------
	.byte	PATT
	 .word	mus_thpprf_idolatrizeworld_8_246
@ 263   ----------------------------------------
	.byte	W72
	.byte		EOT   , Ds2 
	.byte		        Gn2 
	.byte		        As2 
	.byte	W24
@ 264   ----------------------------------------
	.byte	PATT
	 .word	mus_thpprf_idolatrizeworld_8_248
@ 265   ----------------------------------------
	.byte	W72
	.byte		EOT   , Gs2 
	.byte		        Bn2 
	.byte		        Ds3 
	.byte	W24
@ 266   ----------------------------------------
	.byte	PATT
	 .word	mus_thpprf_idolatrizeworld_8_242
@ 267   ----------------------------------------
	.byte	W72
	.byte		EOT   , En2 
	.byte		        Gs2 
	.byte		        Bn2 
	.byte	W24
@ 268   ----------------------------------------
	.byte	PATT
	 .word	mus_thpprf_idolatrizeworld_8_244
@ 269   ----------------------------------------
	.byte	W72
	.byte		EOT   , Fs2 
	.byte		        As2 
	.byte		        Cs3 
	.byte	W24
@ 270   ----------------------------------------
	.byte		TIE   , Ds2 , v080
	.byte		TIE   , Gs2 
	.byte		TIE   , Cs3 
	.byte	W96
@ 271   ----------------------------------------
	.byte	W96
	.byte		EOT   
@ 272   ----------------------------------------
	.byte		TIE   , Cn3 
	.byte	W96
@ 273   ----------------------------------------
	.byte	W72
	.byte		EOT   , Ds2 
	.byte		        Gs2 
	.byte		        Cn3 
	.byte	W24
@ 274   ----------------------------------------
mus_thpprf_idolatrizeworld_8_274:
	.byte		TIE   , As2 , v060
	.byte		TIE   , Cs3 
	.byte	W96
	.byte	PEND
@ 275   ----------------------------------------
	.byte	W90
	.byte		EOT   , As2 
	.byte		        Cs3 
	.byte	W06
@ 276   ----------------------------------------
mus_thpprf_idolatrizeworld_8_276:
	.byte		TIE   , Cn3 , v060
	.byte		TIE   , Ds3 
	.byte	W96
	.byte	PEND
@ 277   ----------------------------------------
	.byte	W90
	.byte		EOT   , Cn3 
	.byte		        Ds3 
	.byte	W06
@ 278   ----------------------------------------
	.byte		TIE   , An2 
	.byte		TIE   , Cn3 
	.byte	W96
@ 279   ----------------------------------------
	.byte	W90
	.byte		EOT   , An2 
	.byte		        Cn3 
	.byte	W06
@ 280   ----------------------------------------
	.byte		TIE   , Cs3 
	.byte		TIE   , Fn3 
	.byte	W96
@ 281   ----------------------------------------
	.byte	W90
	.byte		EOT   , Cs3 
	.byte		        Fn3 
	.byte	W06
@ 282   ----------------------------------------
	.byte	PATT
	 .word	mus_thpprf_idolatrizeworld_8_274
@ 283   ----------------------------------------
	.byte	W90
	.byte		EOT   , As2 
	.byte		        Cs3 
	.byte	W06
@ 284   ----------------------------------------
	.byte	PATT
	 .word	mus_thpprf_idolatrizeworld_8_276
@ 285   ----------------------------------------
	.byte	W90
	.byte		EOT   , Cn3 
	.byte		        Ds3 
	.byte	W06
@ 286   ----------------------------------------
	.byte		TIE   , Cn3 , v060
	.byte		TIE   , Fn3 
	.byte	W96
@ 287   ----------------------------------------
	.byte	W90
	.byte		EOT   , Cn3 
	.byte		        Fn3 
	.byte	W06
@ 288   ----------------------------------------
	.byte		TIE   
	.byte		TIE   , As3 
	.byte	W96
@ 289   ----------------------------------------
	.byte	W90
	.byte		EOT   , Fn3 
	.byte		        As3 
	.byte	W06
@ 290   ----------------------------------------
	.byte		TIE   , En3 , v100
	.byte	W96
@ 291   ----------------------------------------
	.byte	W96
@ 292   ----------------------------------------
	.byte	W96
@ 293   ----------------------------------------
	.byte	W72
	.byte		EOT   
	.byte	W24
@ 294   ----------------------------------------
	.byte		TIE   , Fs3 
	.byte	W96
@ 295   ----------------------------------------
	.byte	W96
@ 296   ----------------------------------------
	.byte	W96
@ 297   ----------------------------------------
	.byte	W72
	.byte		EOT   
	.byte	W24
@ 298   ----------------------------------------
	.byte		TIE   , En3 
	.byte	W96
@ 299   ----------------------------------------
	.byte	W96
@ 300   ----------------------------------------
	.byte		        Gs3 
	.byte	W96
@ 301   ----------------------------------------
	.byte	W72
	.byte		EOT   , En3 
	.byte		        Gs3 
	.byte	W24
@ 302   ----------------------------------------
	.byte	PATT
	 .word	mus_thpprf_idolatrizeworld_8_013
@ 303   ----------------------------------------
	.byte	W96
	.byte		EOT   , Dn3 
	.byte		        Gn3 
@ 304   ----------------------------------------
	.byte	PATT
	 .word	mus_thpprf_idolatrizeworld_8_015
@ 305   ----------------------------------------
	.byte	W96
	.byte		EOT   , En3 
	.byte		        As3 
@ 306   ----------------------------------------
	.byte		TIE   , Fs3 , v100
	.byte	W96
@ 307   ----------------------------------------
	.byte	W96
@ 308   ----------------------------------------
	.byte	W96
@ 309   ----------------------------------------
	.byte	W72
	.byte		EOT   
	.byte	W24
@ 310   ----------------------------------------
	.byte		TIE   , En3 
	.byte	W96
@ 311   ----------------------------------------
	.byte	W96
@ 312   ----------------------------------------
	.byte	W96
	.byte		EOT   
@ 313   ----------------------------------------
	.byte	W96
@ 314   ----------------------------------------
	.byte	W96
@ 315   ----------------------------------------
	.byte	W96
@ 316   ----------------------------------------
	.byte	W96
@ 317   ----------------------------------------
	.byte	W96
@ 318   ----------------------------------------
	.byte		TIE   , Dn3 
	.byte	W96
@ 319   ----------------------------------------
	.byte	W72
	.byte		EOT   
	.byte	W24
@ 320   ----------------------------------------
	.byte		TIE   , En3 
	.byte	W96
@ 321   ----------------------------------------
	.byte	W72
	.byte		EOT   
	.byte	W24
@ 322   ----------------------------------------
	.byte	W96
@ 323   ----------------------------------------
	.byte	W96
@ 324   ----------------------------------------
	.byte	W96
@ 325   ----------------------------------------
	.byte	W96
@ 326   ----------------------------------------
	.byte	W96
@ 327   ----------------------------------------
	.byte	W96
@ 328   ----------------------------------------
	.byte	W96
@ 329   ----------------------------------------
	.byte	W96
@ 330   ----------------------------------------
	.byte	W96
@ 331   ----------------------------------------
	.byte	W96
@ 332   ----------------------------------------
	.byte	W96
@ 333   ----------------------------------------
	.byte	W96
@ 334   ----------------------------------------
	.byte	W96
@ 335   ----------------------------------------
	.byte	W96
@ 336   ----------------------------------------
	.byte	W96
@ 337   ----------------------------------------
	.byte	W96
@ 338   ----------------------------------------
	.byte	GOTO
	.word	mus_thpprf_idolatrizeworld_8_049
	.byte	FINE

@**************** Track 9 (Midi-Chn.9) ****************@

mus_thpprf_idolatrizeworld_9:
	.byte	KEYSH , mus_thpprf_idolatrizeworld_key+0
@ 000   ----------------------------------------
	.byte		VOICE , 120
	.byte	W28
	.byte		PAN   , c_v+0
	.byte		VOL   , 78*mus_thpprf_idolatrizeworld_mvl/mxv
	.byte	W02
	.byte		MOD   , 0
	.byte	W66
@ 001   ----------------------------------------
	.byte	W96
@ 002   ----------------------------------------
	.byte	W96
@ 003   ----------------------------------------
	.byte	W96
@ 004   ----------------------------------------
	.byte	W96
@ 005   ----------------------------------------
	.byte	W96
@ 006   ----------------------------------------
	.byte	W96
@ 007   ----------------------------------------
	.byte	W96
@ 008   ----------------------------------------
	.byte	W96
@ 009   ----------------------------------------
	.byte	W96
@ 010   ----------------------------------------
	.byte	W96
@ 011   ----------------------------------------
	.byte	W96
@ 012   ----------------------------------------
	.byte	W96
@ 013   ----------------------------------------
	.byte	W96
@ 014   ----------------------------------------
	.byte	W96
@ 015   ----------------------------------------
	.byte	W96
@ 016   ----------------------------------------
	.byte	W96
@ 017   ----------------------------------------
	.byte	W96
@ 018   ----------------------------------------
	.byte	W96
@ 019   ----------------------------------------
	.byte	W96
@ 020   ----------------------------------------
	.byte	W96
@ 021   ----------------------------------------
	.byte	W96
@ 022   ----------------------------------------
	.byte	W96
@ 023   ----------------------------------------
	.byte	W96
@ 024   ----------------------------------------
	.byte	W96
@ 025   ----------------------------------------
	.byte	W96
@ 026   ----------------------------------------
	.byte	W96
@ 027   ----------------------------------------
	.byte	W96
@ 028   ----------------------------------------
	.byte	W96
@ 029   ----------------------------------------
	.byte		N06   , Cn1 , v120
	.byte	W96
@ 030   ----------------------------------------
	.byte		N06   
	.byte	W96
@ 031   ----------------------------------------
	.byte		N06   
	.byte	W96
@ 032   ----------------------------------------
	.byte		N06   
	.byte	W48
	.byte		        Fs1 , v080
	.byte	W12
	.byte		N06   
	.byte	W12
	.byte		        Fs1 , v100
	.byte	W12
	.byte		        Fs1 , v080
	.byte	W12
@ 033   ----------------------------------------
mus_thpprf_idolatrizeworld_9_033:
	.byte		N06   , Cn1 , v120
	.byte		N21   , Dn1 , v100
	.byte	W24
	.byte		N06   , Cn1 , v120
	.byte	W24
	.byte		N06   
	.byte	W48
	.byte	PEND
@ 034   ----------------------------------------
mus_thpprf_idolatrizeworld_9_034:
	.byte		N06   , Cn1 , v120
	.byte		N21   , Dn1 , v100
	.byte	W36
	.byte		N06   , Cn1 , v120
	.byte		N21   , Dn1 , v100
	.byte	W36
	.byte		N06   , Cn1 , v120
	.byte		N21   , Dn1 , v100
	.byte	W24
	.byte	PEND
@ 035   ----------------------------------------
mus_thpprf_idolatrizeworld_9_035:
	.byte	W12
	.byte		N06   , Cn1 , v120
	.byte		N21   , Dn1 , v100
	.byte	W36
	.byte		N06   , Cn1 , v120
	.byte		N21   , Dn1 , v100
	.byte	W24
	.byte		N06   , Cn1 , v120
	.byte		N12   , Dn1 , v100
	.byte	W12
	.byte		N12   
	.byte	W12
	.byte	PEND
@ 036   ----------------------------------------
mus_thpprf_idolatrizeworld_9_036:
	.byte		N06   , Cn1 , v120
	.byte		N21   , Dn1 , v100
	.byte	W12
	.byte		N06   , Cn1 , v120
	.byte	W12
	.byte		N06   
	.byte	W24
	.byte		N06   
	.byte		N21   , Dn1 , v100
	.byte	W24
	.byte		N06   , Cn1 , v120
	.byte		N21   , Dn1 , v100
	.byte	W12
	.byte		N06   , Cn1 , v120
	.byte	W12
	.byte	PEND
@ 037   ----------------------------------------
	.byte	PATT
	 .word	mus_thpprf_idolatrizeworld_9_033
@ 038   ----------------------------------------
	.byte	PATT
	 .word	mus_thpprf_idolatrizeworld_9_034
@ 039   ----------------------------------------
	.byte	PATT
	 .word	mus_thpprf_idolatrizeworld_9_035
@ 040   ----------------------------------------
	.byte	PATT
	 .word	mus_thpprf_idolatrizeworld_9_036
@ 041   ----------------------------------------
	.byte	PATT
	 .word	mus_thpprf_idolatrizeworld_9_033
@ 042   ----------------------------------------
	.byte	PATT
	 .word	mus_thpprf_idolatrizeworld_9_034
@ 043   ----------------------------------------
	.byte	PATT
	 .word	mus_thpprf_idolatrizeworld_9_035
@ 044   ----------------------------------------
	.byte	PATT
	 .word	mus_thpprf_idolatrizeworld_9_036
@ 045   ----------------------------------------
	.byte	PATT
	 .word	mus_thpprf_idolatrizeworld_9_033
@ 046   ----------------------------------------
	.byte	PATT
	 .word	mus_thpprf_idolatrizeworld_9_034
@ 047   ----------------------------------------
	.byte	PATT
	 .word	mus_thpprf_idolatrizeworld_9_035
@ 048   ----------------------------------------
	.byte		N06   , Cn1 , v120
	.byte		N12   , Dn1 , v100
	.byte	W12
	.byte		N06   , Cn1 , v120
	.byte		N12   , Dn1 , v100
	.byte	W12
	.byte		N06   , Cn1 , v120
	.byte		N12   , Dn1 , v100
	.byte	W12
	.byte		N12   
	.byte	W12
	.byte		N06   , Cn1 , v120
	.byte		N12   , Dn1 , v100
	.byte		N06   , Fs1 
	.byte	W12
	.byte		N12   , Dn1 
	.byte	W12
	.byte		N06   , Cn1 , v120
	.byte		N12   , Dn1 , v100
	.byte	W12
	.byte		N06   , Cn1 , v120
	.byte		N21   , Dn1 , v100
	.byte	W12
@ 049   ----------------------------------------
mus_thpprf_idolatrizeworld_9_049:
	.byte		N06   , Fs1 , v080
	.byte	W72
	.byte		N06   
	.byte	W12
	.byte		N06   
	.byte	W12
	.byte	PEND
@ 050   ----------------------------------------
	.byte	PATT
	 .word	mus_thpprf_idolatrizeworld_9_049
@ 051   ----------------------------------------
	.byte	PATT
	 .word	mus_thpprf_idolatrizeworld_9_049
@ 052   ----------------------------------------
mus_thpprf_idolatrizeworld_9_052:
	.byte		N06   , Fs1 , v080
	.byte	W48
	.byte		N06   
	.byte	W24
	.byte		N06   
	.byte	W12
	.byte		N06   
	.byte	W12
	.byte	PEND
@ 053   ----------------------------------------
	.byte	PATT
	 .word	mus_thpprf_idolatrizeworld_9_049
@ 054   ----------------------------------------
	.byte	PATT
	 .word	mus_thpprf_idolatrizeworld_9_049
@ 055   ----------------------------------------
	.byte	PATT
	 .word	mus_thpprf_idolatrizeworld_9_049
@ 056   ----------------------------------------
	.byte	PATT
	 .word	mus_thpprf_idolatrizeworld_9_052
@ 057   ----------------------------------------
	.byte	PATT
	 .word	mus_thpprf_idolatrizeworld_9_049
@ 058   ----------------------------------------
	.byte	PATT
	 .word	mus_thpprf_idolatrizeworld_9_049
@ 059   ----------------------------------------
	.byte	PATT
	 .word	mus_thpprf_idolatrizeworld_9_049
@ 060   ----------------------------------------
	.byte	PATT
	 .word	mus_thpprf_idolatrizeworld_9_052
@ 061   ----------------------------------------
	.byte	PATT
	 .word	mus_thpprf_idolatrizeworld_9_049
@ 062   ----------------------------------------
	.byte	PATT
	 .word	mus_thpprf_idolatrizeworld_9_049
@ 063   ----------------------------------------
	.byte	PATT
	 .word	mus_thpprf_idolatrizeworld_9_049
@ 064   ----------------------------------------
	.byte	PATT
	 .word	mus_thpprf_idolatrizeworld_9_052
@ 065   ----------------------------------------
mus_thpprf_idolatrizeworld_9_065:
	.byte		N06   , Fs1 , v080
	.byte	W24
	.byte		        Fs2 , v100
	.byte	W24
	.byte		        Fs1 , v080
	.byte	W24
	.byte		        Fs2 , v100
	.byte	W12
	.byte		        Fs1 , v080
	.byte	W12
	.byte	PEND
@ 066   ----------------------------------------
	.byte	PATT
	 .word	mus_thpprf_idolatrizeworld_9_065
@ 067   ----------------------------------------
	.byte	PATT
	 .word	mus_thpprf_idolatrizeworld_9_065
@ 068   ----------------------------------------
	.byte	PATT
	 .word	mus_thpprf_idolatrizeworld_9_065
@ 069   ----------------------------------------
	.byte	PATT
	 .word	mus_thpprf_idolatrizeworld_9_065
@ 070   ----------------------------------------
	.byte	PATT
	 .word	mus_thpprf_idolatrizeworld_9_065
@ 071   ----------------------------------------
	.byte	PATT
	 .word	mus_thpprf_idolatrizeworld_9_065
@ 072   ----------------------------------------
	.byte	PATT
	 .word	mus_thpprf_idolatrizeworld_9_065
@ 073   ----------------------------------------
	.byte	PATT
	 .word	mus_thpprf_idolatrizeworld_9_065
@ 074   ----------------------------------------
	.byte	PATT
	 .word	mus_thpprf_idolatrizeworld_9_065
@ 075   ----------------------------------------
	.byte	PATT
	 .word	mus_thpprf_idolatrizeworld_9_065
@ 076   ----------------------------------------
	.byte	PATT
	 .word	mus_thpprf_idolatrizeworld_9_065
@ 077   ----------------------------------------
	.byte	PATT
	 .word	mus_thpprf_idolatrizeworld_9_065
@ 078   ----------------------------------------
	.byte	PATT
	 .word	mus_thpprf_idolatrizeworld_9_065
@ 079   ----------------------------------------
	.byte		N06   , Fs1 , v080
	.byte	W24
	.byte		        Fs2 , v100
	.byte	W24
	.byte		        Fs1 , v080
	.byte	W24
	.byte		N21   , Dn1 , v100
	.byte		N06   , Fs2 
	.byte	W12
	.byte		        Fs1 , v080
	.byte	W12
@ 080   ----------------------------------------
	.byte		        Cn1 , v120
	.byte		N06   , Fs1 , v080
	.byte	W12
	.byte		        Cn1 , v120
	.byte		N06   , Fs1 , v080
	.byte	W12
	.byte		N21   , Dn1 , v100
	.byte		N06   , Fs2 
	.byte	W12
	.byte		        Fs1 , v080
	.byte	W12
	.byte		        Cn1 , v120
	.byte		N06   , Fs1 , v080
	.byte	W12
	.byte		N06   
	.byte	W12
	.byte		N21   , Dn1 , v100
	.byte		N06   , Fs2 
	.byte	W12
	.byte		        Cn1 , v120
	.byte		N06   , Fs1 , v080
	.byte	W12
@ 081   ----------------------------------------
mus_thpprf_idolatrizeworld_9_081:
	.byte		N06   , Cn1 , v120
	.byte		N06   , Fs1 , v080
	.byte		N30   , Cs2 , v120
	.byte	W12
	.byte		N06   , Cn1 
	.byte	W12
	.byte		N06   
	.byte		N06   , Fs1 , v080
	.byte	W24
	.byte		        Cn1 , v120
	.byte		N21   , Dn1 , v100
	.byte		N06   , Fs2 
	.byte	W24
	.byte		N06   
	.byte	W12
	.byte		        Cn1 , v120
	.byte		N06   , Fs1 , v080
	.byte	W12
	.byte	PEND
@ 082   ----------------------------------------
mus_thpprf_idolatrizeworld_9_082:
	.byte		N06   , Cn1 , v120
	.byte		N06   , Fs1 , v080
	.byte	W12
	.byte		N06   
	.byte	W12
	.byte		        Cn1 , v120
	.byte		N06   , Fs2 , v100
	.byte	W24
	.byte		        Cn1 , v120
	.byte		N21   , Dn1 , v100
	.byte		N06   , Fs2 
	.byte	W24
	.byte		        Cn1 , v120
	.byte		N06   , Fs2 , v100
	.byte	W12
	.byte		        Fs1 , v080
	.byte	W12
	.byte	PEND
@ 083   ----------------------------------------
mus_thpprf_idolatrizeworld_9_083:
	.byte		N06   , Cn1 , v120
	.byte		N06   , Fs1 , v080
	.byte	W12
	.byte		        Cn1 , v120
	.byte	W12
	.byte		N06   
	.byte		N06   , Fs2 , v100
	.byte	W12
	.byte		        Fs1 , v080
	.byte	W12
	.byte		        Cn1 , v120
	.byte		N21   , Dn1 , v100
	.byte		N06   , Fs2 
	.byte	W12
	.byte		        Fs1 , v080
	.byte	W12
	.byte		        Fs2 , v100
	.byte	W12
	.byte		        Cn1 , v120
	.byte	W12
	.byte	PEND
@ 084   ----------------------------------------
	.byte	PATT
	 .word	mus_thpprf_idolatrizeworld_9_082
@ 085   ----------------------------------------
mus_thpprf_idolatrizeworld_9_085:
	.byte		N06   , Cn1 , v120
	.byte		N06   , Fs1 , v080
	.byte	W12
	.byte		        Cn1 , v120
	.byte	W12
	.byte		N06   
	.byte		N06   , Fs1 , v080
	.byte	W24
	.byte		        Cn1 , v120
	.byte		N21   , Dn1 , v100
	.byte		N06   , Fs2 
	.byte	W24
	.byte		N06   
	.byte	W12
	.byte		        Cn1 , v120
	.byte		N06   , Fs1 , v080
	.byte	W12
	.byte	PEND
@ 086   ----------------------------------------
	.byte	PATT
	 .word	mus_thpprf_idolatrizeworld_9_082
@ 087   ----------------------------------------
	.byte	PATT
	 .word	mus_thpprf_idolatrizeworld_9_083
@ 088   ----------------------------------------
mus_thpprf_idolatrizeworld_9_088:
	.byte		N06   , Cn1 , v120
	.byte		N06   , Fs1 , v080
	.byte	W12
	.byte		N06   
	.byte	W12
	.byte		        Cn1 , v120
	.byte		N06   , Fs2 , v100
	.byte	W24
	.byte		        Cn1 , v120
	.byte		N21   , Dn1 , v100
	.byte		N06   , Fs2 
	.byte	W24
	.byte		        Cn1 , v120
	.byte		N21   , Dn1 , v100
	.byte		N06   , Fs2 
	.byte	W12
	.byte		        Fs1 , v080
	.byte	W12
	.byte	PEND
@ 089   ----------------------------------------
	.byte	PATT
	 .word	mus_thpprf_idolatrizeworld_9_081
@ 090   ----------------------------------------
	.byte	PATT
	 .word	mus_thpprf_idolatrizeworld_9_082
@ 091   ----------------------------------------
	.byte	PATT
	 .word	mus_thpprf_idolatrizeworld_9_083
@ 092   ----------------------------------------
	.byte	PATT
	 .word	mus_thpprf_idolatrizeworld_9_082
@ 093   ----------------------------------------
	.byte	PATT
	 .word	mus_thpprf_idolatrizeworld_9_085
@ 094   ----------------------------------------
	.byte	PATT
	 .word	mus_thpprf_idolatrizeworld_9_082
@ 095   ----------------------------------------
	.byte		N06   , Cn1 , v120
	.byte		N06   , Fs1 , v080
	.byte	W12
	.byte		        Cn1 , v120
	.byte	W12
	.byte		N06   
	.byte		N06   , Fs2 , v100
	.byte	W12
	.byte		        Fs1 , v080
	.byte	W12
	.byte		        Cn1 , v120
	.byte		N21   , Dn1 , v100
	.byte		N06   , Fs2 
	.byte	W12
	.byte		        Fs1 , v080
	.byte	W12
	.byte		N12   , Dn1 , v120
	.byte		N06   , Fs2 , v100
	.byte	W12
	.byte		        Cn1 , v120
	.byte		N12   , Dn1 
	.byte	W12
@ 096   ----------------------------------------
	.byte		N06   , Cn1 
	.byte		N12   , Dn1 
	.byte		N06   , Fs1 , v080
	.byte	W12
	.byte		N12   , Dn1 , v120
	.byte		N06   , Fs1 , v080
	.byte	W12
	.byte		        Cn1 , v120
	.byte		N12   , Dn1 
	.byte		N06   , Fs2 , v100
	.byte	W12
	.byte		N12   , Dn1 , v120
	.byte	W12
	.byte		N06   , Cn1 
	.byte		N12   , Dn1 , v100
	.byte		N06   , Fs2 
	.byte	W12
	.byte		N12   , Dn1 , v120
	.byte	W12
	.byte		N06   , Cn1 
	.byte		N12   , Dn1 
	.byte		N06   , Fs2 , v100
	.byte	W12
	.byte		N21   , Dn1 , v120
	.byte		N06   , Fs1 , v080
	.byte	W12
@ 097   ----------------------------------------
	.byte	PATT
	 .word	mus_thpprf_idolatrizeworld_9_081
@ 098   ----------------------------------------
	.byte	PATT
	 .word	mus_thpprf_idolatrizeworld_9_082
@ 099   ----------------------------------------
	.byte	PATT
	 .word	mus_thpprf_idolatrizeworld_9_083
@ 100   ----------------------------------------
	.byte	PATT
	 .word	mus_thpprf_idolatrizeworld_9_082
@ 101   ----------------------------------------
	.byte	PATT
	 .word	mus_thpprf_idolatrizeworld_9_085
@ 102   ----------------------------------------
	.byte	PATT
	 .word	mus_thpprf_idolatrizeworld_9_082
@ 103   ----------------------------------------
	.byte		N06   , Cn1 , v120
	.byte		N21   , Dn1 
	.byte		N06   , Fs1 , v080
	.byte		N06   , Fs2 , v100
	.byte	W12
	.byte		        Cn1 , v120
	.byte	W12
	.byte		N06   
	.byte		N06   , Fs2 , v100
	.byte	W12
	.byte		N12   , Dn1 , v120
	.byte		N06   , Fs1 , v080
	.byte		N06   , Fs2 , v100
	.byte	W12
	.byte		        Cn1 , v120
	.byte		N21   , Dn1 , v100
	.byte	W12
	.byte		N06   , Fs1 , v080
	.byte	W12
	.byte		N21   , Dn1 , v120
	.byte		N06   , Fs2 , v100
	.byte	W12
	.byte		        Cn1 , v120
	.byte	W12
@ 104   ----------------------------------------
	.byte		N06   
	.byte		N12   , Dn1 
	.byte		N06   , Fs1 , v080
	.byte		N06   , Fs2 , v100
	.byte	W12
	.byte		N12   , Dn1 , v120
	.byte		N06   , Fs1 , v080
	.byte	W12
	.byte		        Cn1 , v120
	.byte		N12   , Dn1 
	.byte		N06   , Fs2 , v100
	.byte	W12
	.byte		N12   , Dn1 , v120
	.byte	W12
	.byte		N06   , Cn1 
	.byte		N21   , Dn1 , v100
	.byte		N06   , Fs2 
	.byte	W24
	.byte		        Cn1 , v120
	.byte		N12   , Dn1 
	.byte		N06   , Fs2 , v100
	.byte	W12
	.byte		N21   , Dn1 , v120
	.byte		N06   , Fs1 , v080
	.byte	W12
@ 105   ----------------------------------------
	.byte		        Cn1 , v120
	.byte		N06   , Fs1 , v080
	.byte		N30   , Cs2 , v120
	.byte	W12
	.byte		N06   , Cn1 
	.byte	W12
	.byte		N06   
	.byte		N06   , Fs1 , v080
	.byte	W24
	.byte		        Cn1 , v120
	.byte		N21   , Dn1 , v100
	.byte		N06   , Fs2 
	.byte	W24
	.byte		N21   , Dn1 
	.byte		N06   , Fs2 
	.byte	W12
	.byte		        Cn1 , v120
	.byte		N06   , Fs1 , v080
	.byte	W12
@ 106   ----------------------------------------
	.byte	PATT
	 .word	mus_thpprf_idolatrizeworld_9_082
@ 107   ----------------------------------------
mus_thpprf_idolatrizeworld_9_107:
	.byte		N06   , Cn1 , v120
	.byte		N06   , Fs1 , v080
	.byte		N30   , Cs2 , v120
	.byte	W12
	.byte		N06   , Cn1 
	.byte	W12
	.byte		N06   
	.byte		N06   , Fs2 , v100
	.byte	W12
	.byte		        Fs1 , v080
	.byte	W12
	.byte		        Cn1 , v120
	.byte		N21   , Dn1 , v100
	.byte		N06   , Fs2 
	.byte	W12
	.byte		        Fs1 , v080
	.byte	W12
	.byte		N21   , Dn1 , v100
	.byte		N06   , Fs2 
	.byte	W12
	.byte		        Cn1 , v120
	.byte	W12
	.byte	PEND
@ 108   ----------------------------------------
	.byte		N06   
	.byte		N21   , Dn1 , v100
	.byte		N06   , Fs1 , v080
	.byte		N06   , Fs2 , v100
	.byte	W12
	.byte		        Fs1 , v080
	.byte	W12
	.byte		        Cn1 , v120
	.byte		N06   , Fs2 , v100
	.byte	W12
	.byte		N21   , Dn1 
	.byte		N06   , Fs2 
	.byte	W12
	.byte		        Cn1 , v120
	.byte	W24
	.byte		N06   
	.byte		N21   , Dn1 , v100
	.byte		N06   , Fs2 
	.byte	W12
	.byte		        Fs1 , v080
	.byte	W12
@ 109   ----------------------------------------
	.byte	PATT
	 .word	mus_thpprf_idolatrizeworld_9_081
@ 110   ----------------------------------------
	.byte	PATT
	 .word	mus_thpprf_idolatrizeworld_9_082
@ 111   ----------------------------------------
mus_thpprf_idolatrizeworld_9_111:
	.byte		N06   , Cn1 , v120
	.byte		N06   , Fs1 , v080
	.byte	W12
	.byte		        Cn1 , v120
	.byte	W12
	.byte		N06   
	.byte		N06   , Fs2 , v100
	.byte	W12
	.byte		        Fs1 , v080
	.byte	W12
	.byte		        Cn1 , v120
	.byte		N21   , Dn1 , v100
	.byte		N06   , Fs2 
	.byte	W12
	.byte		        Fs1 , v080
	.byte	W12
	.byte		N21   , Dn1 , v100
	.byte		N06   , Fs2 
	.byte	W12
	.byte		        Cn1 , v120
	.byte	W12
	.byte	PEND
@ 112   ----------------------------------------
	.byte		N06   
	.byte		N12   , Dn1 , v100
	.byte		N06   , Fs1 , v080
	.byte	W12
	.byte		N12   , Dn1 , v100
	.byte		N06   , Fs1 , v080
	.byte	W12
	.byte		        Cn1 , v120
	.byte		N12   , Dn1 , v100
	.byte		N06   , Fs2 
	.byte	W12
	.byte		N12   , Dn1 
	.byte	W12
	.byte		N06   , Cn1 , v120
	.byte		N21   , Dn1 , v100
	.byte		N06   , Fs2 
	.byte	W24
	.byte		        Cn1 , v120
	.byte		N12   , Dn1 , v100
	.byte		N06   , Fs2 
	.byte	W12
	.byte		N12   , Dn1 
	.byte		N06   , Fs1 , v080
	.byte	W12
@ 113   ----------------------------------------
mus_thpprf_idolatrizeworld_9_113:
	.byte		N06   , Cn1 , v120
	.byte		N21   , Dn1 , v100
	.byte		N30   , Cs2 , v120
	.byte	W24
	.byte		N06   , Cn1 
	.byte	W24
	.byte		N06   
	.byte	W48
	.byte	PEND
@ 114   ----------------------------------------
mus_thpprf_idolatrizeworld_9_114:
	.byte		N06   , Cn1 , v120
	.byte		N21   , Dn1 , v100
	.byte	W24
	.byte		N06   , Cn1 , v120
	.byte	W12
	.byte		N21   , Dn1 , v100
	.byte	W12
	.byte		N06   , Cn1 , v120
	.byte	W24
	.byte		N21   , Dn1 , v100
	.byte	W24
	.byte	PEND
@ 115   ----------------------------------------
mus_thpprf_idolatrizeworld_9_115:
	.byte		N06   , Cn1 , v120
	.byte	W12
	.byte		N21   , Dn1 , v100
	.byte	W12
	.byte		N06   , Cn1 , v120
	.byte	W24
	.byte		N06   
	.byte		N12   , Dn1 , v100
	.byte	W12
	.byte		N12   
	.byte	W12
	.byte		N21   
	.byte	W12
	.byte		N06   , Cn1 , v120
	.byte	W12
	.byte	PEND
@ 116   ----------------------------------------
mus_thpprf_idolatrizeworld_9_116:
	.byte		N06   , Cn1 , v120
	.byte	W24
	.byte		N06   
	.byte		N21   , Dn1 , v100
	.byte	W24
	.byte		N06   , Cn1 , v120
	.byte		N21   , Dn1 , v100
	.byte	W24
	.byte		N06   , Cn1 , v120
	.byte	W12
	.byte		N06   
	.byte	W12
	.byte	PEND
@ 117   ----------------------------------------
	.byte	PATT
	 .word	mus_thpprf_idolatrizeworld_9_113
@ 118   ----------------------------------------
	.byte	PATT
	 .word	mus_thpprf_idolatrizeworld_9_114
@ 119   ----------------------------------------
	.byte	PATT
	 .word	mus_thpprf_idolatrizeworld_9_115
@ 120   ----------------------------------------
	.byte	PATT
	 .word	mus_thpprf_idolatrizeworld_9_116
@ 121   ----------------------------------------
mus_thpprf_idolatrizeworld_9_121:
	.byte		N06   , Cn1 , v120
	.byte		N21   , Dn1 , v100
	.byte		N06   , Fs1 , v080
	.byte		N30   , Cs2 , v120
	.byte	W24
	.byte		N06   , Cn1 
	.byte		N06   , Fs2 , v100
	.byte	W24
	.byte		        Cn1 , v120
	.byte		N06   , Fs1 , v080
	.byte	W24
	.byte		        Fs2 , v100
	.byte	W12
	.byte		        Fs1 , v080
	.byte	W12
	.byte	PEND
@ 122   ----------------------------------------
mus_thpprf_idolatrizeworld_9_122:
	.byte		N06   , Cn1 , v120
	.byte		N21   , Dn1 , v100
	.byte		N06   , Fs1 , v080
	.byte	W12
	.byte		N06   
	.byte	W12
	.byte		        Cn1 , v120
	.byte		N06   , Fs2 , v100
	.byte	W12
	.byte		N21   , Dn1 
	.byte	W12
	.byte		N06   , Cn1 , v120
	.byte		N06   , Fs1 , v080
	.byte	W24
	.byte		N21   , Dn1 , v100
	.byte		N06   , Fs2 
	.byte	W12
	.byte		        Fs1 , v080
	.byte	W12
	.byte	PEND
@ 123   ----------------------------------------
mus_thpprf_idolatrizeworld_9_123:
	.byte		N06   , Cn1 , v120
	.byte		N06   , Fs1 , v080
	.byte	W12
	.byte		N21   , Dn1 , v100
	.byte	W12
	.byte		N06   , Cn1 , v120
	.byte		N06   , Fs2 , v100
	.byte	W12
	.byte		        Fs1 , v080
	.byte	W12
	.byte		        Cn1 , v120
	.byte		N12   , Dn1 , v100
	.byte		N06   , Fs1 , v080
	.byte	W12
	.byte		N12   , Dn1 , v100
	.byte		N06   , Fs1 , v080
	.byte	W12
	.byte		N21   , Dn1 , v100
	.byte		N06   , Fs2 
	.byte	W12
	.byte		        Cn1 , v120
	.byte	W12
	.byte	PEND
@ 124   ----------------------------------------
mus_thpprf_idolatrizeworld_9_124:
	.byte		N06   , Cn1 , v120
	.byte		N06   , Fs1 , v080
	.byte	W12
	.byte		N06   
	.byte	W12
	.byte		        Cn1 , v120
	.byte		N21   , Dn1 , v100
	.byte		N06   , Fs2 
	.byte	W24
	.byte		        Cn1 , v120
	.byte		N21   , Dn1 , v100
	.byte		N06   , Fs1 , v080
	.byte	W24
	.byte		        Cn1 , v120
	.byte		N06   , Fs2 , v100
	.byte	W12
	.byte		        Cn1 , v120
	.byte		N06   , Fs1 , v080
	.byte	W12
	.byte	PEND
@ 125   ----------------------------------------
	.byte	PATT
	 .word	mus_thpprf_idolatrizeworld_9_121
@ 126   ----------------------------------------
	.byte	PATT
	 .word	mus_thpprf_idolatrizeworld_9_122
@ 127   ----------------------------------------
	.byte	PATT
	 .word	mus_thpprf_idolatrizeworld_9_123
@ 128   ----------------------------------------
	.byte	PATT
	 .word	mus_thpprf_idolatrizeworld_9_124
@ 129   ----------------------------------------
	.byte	PATT
	 .word	mus_thpprf_idolatrizeworld_9_113
@ 130   ----------------------------------------
	.byte	PATT
	 .word	mus_thpprf_idolatrizeworld_9_114
@ 131   ----------------------------------------
	.byte	PATT
	 .word	mus_thpprf_idolatrizeworld_9_115
@ 132   ----------------------------------------
	.byte	PATT
	 .word	mus_thpprf_idolatrizeworld_9_116
@ 133   ----------------------------------------
	.byte	PATT
	 .word	mus_thpprf_idolatrizeworld_9_113
@ 134   ----------------------------------------
	.byte	PATT
	 .word	mus_thpprf_idolatrizeworld_9_114
@ 135   ----------------------------------------
	.byte	PATT
	 .word	mus_thpprf_idolatrizeworld_9_115
@ 136   ----------------------------------------
	.byte	PATT
	 .word	mus_thpprf_idolatrizeworld_9_116
@ 137   ----------------------------------------
	.byte	PATT
	 .word	mus_thpprf_idolatrizeworld_9_121
@ 138   ----------------------------------------
	.byte	PATT
	 .word	mus_thpprf_idolatrizeworld_9_122
@ 139   ----------------------------------------
	.byte	PATT
	 .word	mus_thpprf_idolatrizeworld_9_123
@ 140   ----------------------------------------
	.byte	PATT
	 .word	mus_thpprf_idolatrizeworld_9_124
@ 141   ----------------------------------------
	.byte	PATT
	 .word	mus_thpprf_idolatrizeworld_9_121
@ 142   ----------------------------------------
	.byte	PATT
	 .word	mus_thpprf_idolatrizeworld_9_122
@ 143   ----------------------------------------
	.byte	PATT
	 .word	mus_thpprf_idolatrizeworld_9_123
@ 144   ----------------------------------------
	.byte	PATT
	 .word	mus_thpprf_idolatrizeworld_9_124
@ 145   ----------------------------------------
	.byte	W96
@ 146   ----------------------------------------
	.byte	W96
@ 147   ----------------------------------------
	.byte	W96
@ 148   ----------------------------------------
	.byte	W96
@ 149   ----------------------------------------
	.byte	W96
@ 150   ----------------------------------------
	.byte	W96
@ 151   ----------------------------------------
	.byte	W96
@ 152   ----------------------------------------
	.byte	W96
@ 153   ----------------------------------------
	.byte	W96
@ 154   ----------------------------------------
	.byte	W96
@ 155   ----------------------------------------
	.byte	W96
@ 156   ----------------------------------------
	.byte	W96
@ 157   ----------------------------------------
	.byte	W96
@ 158   ----------------------------------------
	.byte	W96
@ 159   ----------------------------------------
	.byte	W96
@ 160   ----------------------------------------
	.byte	W96
@ 161   ----------------------------------------
	.byte	W96
@ 162   ----------------------------------------
	.byte		N06   , Fs1 , v080
	.byte		N30   , Cs2 , v120
	.byte	W24
	.byte		N06   , Fs2 , v100
	.byte	W24
	.byte		        Fs1 , v080
	.byte	W24
	.byte		        Fs2 , v100
	.byte	W12
	.byte		        Fs1 , v080
	.byte	W12
@ 163   ----------------------------------------
	.byte	PATT
	 .word	mus_thpprf_idolatrizeworld_9_065
@ 164   ----------------------------------------
	.byte	PATT
	 .word	mus_thpprf_idolatrizeworld_9_065
@ 165   ----------------------------------------
	.byte	PATT
	 .word	mus_thpprf_idolatrizeworld_9_065
@ 166   ----------------------------------------
	.byte	PATT
	 .word	mus_thpprf_idolatrizeworld_9_065
@ 167   ----------------------------------------
	.byte	PATT
	 .word	mus_thpprf_idolatrizeworld_9_065
@ 168   ----------------------------------------
	.byte	PATT
	 .word	mus_thpprf_idolatrizeworld_9_065
@ 169   ----------------------------------------
	.byte	PATT
	 .word	mus_thpprf_idolatrizeworld_9_065
@ 170   ----------------------------------------
mus_thpprf_idolatrizeworld_9_170:
	.byte		N21   , Dn1 , v100
	.byte		N06   , Fs1 , v080
	.byte		N30   , Cs2 , v120
	.byte	W24
	.byte		N06   , Fs2 , v100
	.byte	W24
	.byte		        Fs1 , v080
	.byte	W24
	.byte		        Fs2 , v100
	.byte	W12
	.byte		        Fs1 , v080
	.byte	W12
	.byte	PEND
@ 171   ----------------------------------------
	.byte	PATT
	 .word	mus_thpprf_idolatrizeworld_9_065
@ 172   ----------------------------------------
	.byte	PATT
	 .word	mus_thpprf_idolatrizeworld_9_170
@ 173   ----------------------------------------
	.byte	PATT
	 .word	mus_thpprf_idolatrizeworld_9_065
@ 174   ----------------------------------------
	.byte	PATT
	 .word	mus_thpprf_idolatrizeworld_9_170
@ 175   ----------------------------------------
	.byte	PATT
	 .word	mus_thpprf_idolatrizeworld_9_065
@ 176   ----------------------------------------
	.byte	PATT
	 .word	mus_thpprf_idolatrizeworld_9_170
@ 177   ----------------------------------------
	.byte		N06   , Cn1 , v120
	.byte		N06   , Fs1 , v080
	.byte	W12
	.byte		        Cn1 , v120
	.byte		N06   , Fs1 , v080
	.byte	W12
	.byte		        Cn1 , v120
	.byte		N06   , Fs2 , v100
	.byte	W12
	.byte		        Cn1 , v120
	.byte		N06   , Fs1 , v080
	.byte	W12
	.byte		N21   , Dn1 , v100
	.byte		N30   , Cs2 , v120
	.byte		N06   , Fs2 , v100
	.byte	W12
	.byte		        Fs1 , v080
	.byte	W12
	.byte		        Fs2 , v100
	.byte	W12
	.byte		        Cn1 , v120
	.byte		N06   , Fs1 , v080
	.byte	W12
@ 178   ----------------------------------------
mus_thpprf_idolatrizeworld_9_178:
	.byte		N06   , Cn1 , v120
	.byte		N06   , Fs1 , v080
	.byte		N30   , Cs2 , v120
	.byte	W12
	.byte		N06   , Cn1 
	.byte	W12
	.byte		N06   
	.byte		N06   , Fs2 , v100
	.byte	W24
	.byte		        Cn1 , v120
	.byte		N21   , Dn1 , v100
	.byte		N06   , Fs2 
	.byte	W24
	.byte		N06   
	.byte	W12
	.byte		        Cn1 , v120
	.byte		N06   , Fs1 , v080
	.byte	W12
	.byte	PEND
@ 179   ----------------------------------------
	.byte	PATT
	 .word	mus_thpprf_idolatrizeworld_9_082
@ 180   ----------------------------------------
	.byte	PATT
	 .word	mus_thpprf_idolatrizeworld_9_083
@ 181   ----------------------------------------
	.byte	PATT
	 .word	mus_thpprf_idolatrizeworld_9_082
@ 182   ----------------------------------------
mus_thpprf_idolatrizeworld_9_182:
	.byte		N06   , Cn1 , v120
	.byte		N06   , Fs1 , v080
	.byte	W12
	.byte		        Cn1 , v120
	.byte	W12
	.byte		N06   
	.byte		N06   , Fs2 , v100
	.byte	W24
	.byte		        Cn1 , v120
	.byte		N21   , Dn1 , v100
	.byte		N06   , Fs2 
	.byte	W24
	.byte		N06   
	.byte	W12
	.byte		        Cn1 , v120
	.byte		N06   , Fs1 , v080
	.byte	W12
	.byte	PEND
@ 183   ----------------------------------------
	.byte	PATT
	 .word	mus_thpprf_idolatrizeworld_9_082
@ 184   ----------------------------------------
	.byte	PATT
	 .word	mus_thpprf_idolatrizeworld_9_083
@ 185   ----------------------------------------
	.byte	PATT
	 .word	mus_thpprf_idolatrizeworld_9_088
@ 186   ----------------------------------------
	.byte	PATT
	 .word	mus_thpprf_idolatrizeworld_9_178
@ 187   ----------------------------------------
	.byte	PATT
	 .word	mus_thpprf_idolatrizeworld_9_082
@ 188   ----------------------------------------
	.byte	PATT
	 .word	mus_thpprf_idolatrizeworld_9_083
@ 189   ----------------------------------------
	.byte	PATT
	 .word	mus_thpprf_idolatrizeworld_9_082
@ 190   ----------------------------------------
	.byte	PATT
	 .word	mus_thpprf_idolatrizeworld_9_182
@ 191   ----------------------------------------
	.byte	PATT
	 .word	mus_thpprf_idolatrizeworld_9_082
@ 192   ----------------------------------------
	.byte		N06   , Cn1 , v120
	.byte		N06   , Fs1 , v080
	.byte	W12
	.byte		        Cn1 , v120
	.byte	W12
	.byte		N06   
	.byte		N06   , Fs2 , v100
	.byte	W12
	.byte		        Fs1 , v080
	.byte	W12
	.byte		        Cn1 , v120
	.byte		N21   , Dn1 , v100
	.byte		N06   , Fs2 
	.byte	W12
	.byte		        Fs1 , v080
	.byte	W12
	.byte		N12   , Dn1 , v100
	.byte		N06   , Fs2 
	.byte	W12
	.byte		        Cn1 , v120
	.byte		N12   , Dn1 
	.byte	W12
@ 193   ----------------------------------------
mus_thpprf_idolatrizeworld_9_193:
	.byte		N06   , Cn1 , v120
	.byte		N12   , Dn1 , v100
	.byte		N06   , Fs1 , v080
	.byte	W12
	.byte		N12   , Dn1 , v100
	.byte		N06   , Fs1 , v080
	.byte	W12
	.byte		        Cn1 , v120
	.byte		N12   , Dn1 
	.byte		N06   , Fs2 , v100
	.byte	W12
	.byte		N12   , Dn1 , v120
	.byte	W12
	.byte		N06   , Cn1 
	.byte		N12   , Dn1 , v100
	.byte		N06   , Fs2 
	.byte	W12
	.byte		N12   , Dn1 , v120
	.byte	W12
	.byte		N06   , Cn1 
	.byte		N12   , Dn1 
	.byte		N06   , Fs2 , v100
	.byte	W12
	.byte		N21   , Dn1 , v120
	.byte		N06   , Fs1 , v080
	.byte	W12
	.byte	PEND
@ 194   ----------------------------------------
	.byte	PATT
	 .word	mus_thpprf_idolatrizeworld_9_178
@ 195   ----------------------------------------
	.byte	PATT
	 .word	mus_thpprf_idolatrizeworld_9_082
@ 196   ----------------------------------------
	.byte	PATT
	 .word	mus_thpprf_idolatrizeworld_9_083
@ 197   ----------------------------------------
	.byte	PATT
	 .word	mus_thpprf_idolatrizeworld_9_082
@ 198   ----------------------------------------
	.byte	PATT
	 .word	mus_thpprf_idolatrizeworld_9_182
@ 199   ----------------------------------------
	.byte	PATT
	 .word	mus_thpprf_idolatrizeworld_9_082
@ 200   ----------------------------------------
	.byte	PATT
	 .word	mus_thpprf_idolatrizeworld_9_083
@ 201   ----------------------------------------
	.byte	PATT
	 .word	mus_thpprf_idolatrizeworld_9_082
@ 202   ----------------------------------------
	.byte		N06   , Cn1 , v120
	.byte		N06   , Fs1 , v080
	.byte		N30   , Cs2 , v120
	.byte	W12
	.byte		N06   , Cn1 
	.byte	W12
	.byte		N06   
	.byte		N06   , Fs2 , v100
	.byte	W24
	.byte		        Cn1 , v120
	.byte		N21   , Dn1 , v100
	.byte		N06   , Fs2 
	.byte	W24
	.byte		N21   , Dn1 
	.byte		N06   , Fs2 
	.byte	W12
	.byte		        Cn1 , v120
	.byte		N06   , Fs1 , v080
	.byte	W12
@ 203   ----------------------------------------
	.byte	PATT
	 .word	mus_thpprf_idolatrizeworld_9_082
@ 204   ----------------------------------------
	.byte	PATT
	 .word	mus_thpprf_idolatrizeworld_9_107
@ 205   ----------------------------------------
	.byte		N06   , Cn1 , v120
	.byte		N21   , Dn1 , v100
	.byte		N06   , Fs1 , v080
	.byte	W12
	.byte		N06   
	.byte	W12
	.byte		        Cn1 , v120
	.byte		N06   , Fs2 , v100
	.byte	W12
	.byte		N21   , Dn1 
	.byte	W12
	.byte		N06   , Cn1 , v120
	.byte		N06   , Fs2 , v100
	.byte	W24
	.byte		        Cn1 , v120
	.byte		N21   , Dn1 , v100
	.byte		N06   , Fs2 
	.byte	W12
	.byte		        Fs1 , v080
	.byte	W12
@ 206   ----------------------------------------
	.byte	PATT
	 .word	mus_thpprf_idolatrizeworld_9_178
@ 207   ----------------------------------------
	.byte	PATT
	 .word	mus_thpprf_idolatrizeworld_9_082
@ 208   ----------------------------------------
	.byte	PATT
	 .word	mus_thpprf_idolatrizeworld_9_111
@ 209   ----------------------------------------
mus_thpprf_idolatrizeworld_9_209:
	.byte		N06   , Cn1 , v120
	.byte		N12   , Dn1 , v100
	.byte		N06   , Fs1 , v080
	.byte	W12
	.byte		N12   , Dn1 , v100
	.byte		N06   , Fs1 , v080
	.byte	W12
	.byte		        Cn1 , v120
	.byte		N12   , Dn1 , v100
	.byte		N06   , Fs2 
	.byte	W12
	.byte		N12   , Dn1 
	.byte	W12
	.byte		N06   , Cn1 , v120
	.byte		N21   , Dn1 , v100
	.byte		N06   , Fs2 
	.byte	W24
	.byte		        Cn1 , v120
	.byte		N12   , Dn1 , v100
	.byte		N06   , Fs2 
	.byte	W12
	.byte		N21   , Dn1 
	.byte		N06   , Fs1 , v080
	.byte	W12
	.byte	PEND
@ 210   ----------------------------------------
mus_thpprf_idolatrizeworld_9_210:
	.byte		N06   , Cn1 , v120
	.byte		N06   , Fs1 , v080
	.byte		N30   , Cs2 , v120
	.byte	W12
	.byte		N06   , Cn1 
	.byte	W12
	.byte		N06   
	.byte		N21   , Dn1 , v100
	.byte		N06   , Fs2 
	.byte	W24
	.byte		        Cn1 , v120
	.byte		N21   , Dn1 , v100
	.byte		N06   , Fs2 
	.byte	W24
	.byte		N21   , Dn1 
	.byte		N06   , Fs2 
	.byte	W12
	.byte		        Cn1 , v120
	.byte		N06   , Fs1 , v080
	.byte	W12
	.byte	PEND
@ 211   ----------------------------------------
mus_thpprf_idolatrizeworld_9_211:
	.byte		N06   , Cn1 , v120
	.byte		N06   , Fs1 , v080
	.byte	W12
	.byte		N06   
	.byte	W12
	.byte		        Cn1 , v120
	.byte		N21   , Dn1 , v100
	.byte		N06   , Fs2 
	.byte	W24
	.byte		        Cn1 , v120
	.byte		N21   , Dn1 , v100
	.byte		N06   , Fs2 
	.byte	W24
	.byte		        Cn1 , v120
	.byte		N21   , Dn1 , v100
	.byte		N06   , Fs2 
	.byte	W12
	.byte		        Fs1 , v080
	.byte	W12
	.byte	PEND
@ 212   ----------------------------------------
mus_thpprf_idolatrizeworld_9_212:
	.byte		N06   , Cn1 , v120
	.byte		N06   , Fs1 , v080
	.byte	W12
	.byte		        Cn1 , v120
	.byte	W12
	.byte		N06   
	.byte		N21   , Dn1 , v100
	.byte		N06   , Fs2 
	.byte	W12
	.byte		        Fs1 , v080
	.byte	W12
	.byte		        Cn1 , v120
	.byte		N21   , Dn1 , v100
	.byte		N06   , Fs2 
	.byte	W12
	.byte		        Fs1 , v080
	.byte	W12
	.byte		N21   , Dn1 , v100
	.byte		N06   , Fs2 
	.byte	W12
	.byte		        Cn1 , v120
	.byte	W12
	.byte	PEND
@ 213   ----------------------------------------
	.byte	PATT
	 .word	mus_thpprf_idolatrizeworld_9_211
@ 214   ----------------------------------------
mus_thpprf_idolatrizeworld_9_214:
	.byte		N06   , Cn1 , v120
	.byte		N06   , Fs1 , v080
	.byte	W12
	.byte		        Cn1 , v120
	.byte	W12
	.byte		N06   
	.byte		N21   , Dn1 , v100
	.byte		N06   , Fs2 
	.byte	W24
	.byte		        Cn1 , v120
	.byte		N21   , Dn1 , v100
	.byte		N06   , Fs2 
	.byte	W24
	.byte		N21   , Dn1 
	.byte		N06   , Fs2 
	.byte	W12
	.byte		        Cn1 , v120
	.byte		N06   , Fs1 , v080
	.byte	W12
	.byte	PEND
@ 215   ----------------------------------------
	.byte	PATT
	 .word	mus_thpprf_idolatrizeworld_9_211
@ 216   ----------------------------------------
	.byte	PATT
	 .word	mus_thpprf_idolatrizeworld_9_212
@ 217   ----------------------------------------
	.byte	PATT
	 .word	mus_thpprf_idolatrizeworld_9_211
@ 218   ----------------------------------------
	.byte	PATT
	 .word	mus_thpprf_idolatrizeworld_9_210
@ 219   ----------------------------------------
	.byte	PATT
	 .word	mus_thpprf_idolatrizeworld_9_211
@ 220   ----------------------------------------
	.byte	PATT
	 .word	mus_thpprf_idolatrizeworld_9_212
@ 221   ----------------------------------------
	.byte	PATT
	 .word	mus_thpprf_idolatrizeworld_9_211
@ 222   ----------------------------------------
	.byte	PATT
	 .word	mus_thpprf_idolatrizeworld_9_214
@ 223   ----------------------------------------
	.byte	PATT
	 .word	mus_thpprf_idolatrizeworld_9_211
@ 224   ----------------------------------------
	.byte		N06   , Cn1 , v120
	.byte		N06   , Fs1 , v080
	.byte	W12
	.byte		        Cn1 , v120
	.byte	W12
	.byte		N06   
	.byte		N21   , Dn1 , v100
	.byte		N06   , Fs2 
	.byte	W12
	.byte		        Fs1 , v080
	.byte	W12
	.byte		        Cn1 , v120
	.byte		N21   , Dn1 , v100
	.byte		N06   , Fs2 
	.byte	W12
	.byte		        Fs1 , v080
	.byte	W12
	.byte		N12   , Dn1 , v100
	.byte		N06   , Fs2 
	.byte	W12
	.byte		        Cn1 , v120
	.byte		N12   , Dn1 
	.byte	W12
@ 225   ----------------------------------------
	.byte	PATT
	 .word	mus_thpprf_idolatrizeworld_9_193
@ 226   ----------------------------------------
	.byte	PATT
	 .word	mus_thpprf_idolatrizeworld_9_210
@ 227   ----------------------------------------
	.byte	PATT
	 .word	mus_thpprf_idolatrizeworld_9_211
@ 228   ----------------------------------------
	.byte	PATT
	 .word	mus_thpprf_idolatrizeworld_9_212
@ 229   ----------------------------------------
	.byte	PATT
	 .word	mus_thpprf_idolatrizeworld_9_211
@ 230   ----------------------------------------
	.byte	PATT
	 .word	mus_thpprf_idolatrizeworld_9_214
@ 231   ----------------------------------------
	.byte	PATT
	 .word	mus_thpprf_idolatrizeworld_9_211
@ 232   ----------------------------------------
	.byte	PATT
	 .word	mus_thpprf_idolatrizeworld_9_212
@ 233   ----------------------------------------
	.byte	PATT
	 .word	mus_thpprf_idolatrizeworld_9_211
@ 234   ----------------------------------------
	.byte	PATT
	 .word	mus_thpprf_idolatrizeworld_9_210
@ 235   ----------------------------------------
	.byte	PATT
	 .word	mus_thpprf_idolatrizeworld_9_211
@ 236   ----------------------------------------
	.byte		N06   , Cn1 , v120
	.byte		N06   , Fs1 , v080
	.byte		N30   , Cs2 , v120
	.byte	W12
	.byte		N06   , Cn1 
	.byte	W12
	.byte		N06   
	.byte		N21   , Dn1 , v100
	.byte		N06   , Fs2 
	.byte	W12
	.byte		        Fs1 , v080
	.byte	W12
	.byte		        Cn1 , v120
	.byte		N21   , Dn1 , v100
	.byte		N06   , Fs2 
	.byte	W12
	.byte		        Fs1 , v080
	.byte	W12
	.byte		N21   , Dn1 , v100
	.byte		N06   , Fs2 
	.byte	W12
	.byte		        Cn1 , v120
	.byte	W12
@ 237   ----------------------------------------
	.byte		N06   
	.byte		N21   , Dn1 , v100
	.byte		N06   , Fs1 , v080
	.byte	W12
	.byte		N06   
	.byte	W12
	.byte		        Cn1 , v120
	.byte		N12   , Dn1 , v100
	.byte		N06   , Fs2 
	.byte	W12
	.byte		N21   , Dn1 
	.byte	W12
	.byte		N06   , Cn1 , v120
	.byte		N06   , Fs2 , v100
	.byte	W24
	.byte		        Cn1 , v120
	.byte		N21   , Dn1 , v100
	.byte		N06   , Fs2 
	.byte	W12
	.byte		        Fs1 , v080
	.byte	W12
@ 238   ----------------------------------------
	.byte	PATT
	 .word	mus_thpprf_idolatrizeworld_9_210
@ 239   ----------------------------------------
	.byte	PATT
	 .word	mus_thpprf_idolatrizeworld_9_211
@ 240   ----------------------------------------
	.byte	PATT
	 .word	mus_thpprf_idolatrizeworld_9_212
@ 241   ----------------------------------------
	.byte	PATT
	 .word	mus_thpprf_idolatrizeworld_9_209
@ 242   ----------------------------------------
mus_thpprf_idolatrizeworld_9_242:
	.byte		N06   , Cn1 , v120
	.byte		N06   , Fs1 , v080
	.byte		N30   , Cs2 , v120
	.byte	W12
	.byte		N06   , Cn1 
	.byte	W12
	.byte		N06   
	.byte		N21   , Dn1 , v100
	.byte		N06   , Fs2 
	.byte	W24
	.byte		        Cn1 , v120
	.byte		N06   , Fs1 , v080
	.byte	W24
	.byte		N21   , Dn1 , v100
	.byte		N06   , Fs2 
	.byte	W12
	.byte		        Cn1 , v120
	.byte	W12
	.byte	PEND
@ 243   ----------------------------------------
mus_thpprf_idolatrizeworld_9_243:
	.byte		N06   , Cn1 , v120
	.byte		N06   , Fs1 , v080
	.byte	W12
	.byte		N06   
	.byte	W12
	.byte		        Cn1 , v120
	.byte		N21   , Dn1 , v100
	.byte		N06   , Fs2 
	.byte	W24
	.byte		        Cn1 , v120
	.byte		N06   , Fs1 , v080
	.byte	W24
	.byte		        Cn1 , v120
	.byte		N21   , Dn1 , v100
	.byte		N06   , Fs2 
	.byte	W24
	.byte	PEND
@ 244   ----------------------------------------
mus_thpprf_idolatrizeworld_9_244:
	.byte		N06   , Cn1 , v120
	.byte		N06   , Fs1 , v080
	.byte	W12
	.byte		        Cn1 , v120
	.byte	W12
	.byte		N06   
	.byte		N21   , Dn1 , v100
	.byte		N06   , Fs2 
	.byte	W24
	.byte		        Cn1 , v120
	.byte		N06   , Fs1 , v080
	.byte	W12
	.byte		N06   
	.byte	W12
	.byte		N21   , Dn1 , v100
	.byte		N06   , Fs2 
	.byte	W12
	.byte		        Cn1 , v120
	.byte	W12
	.byte	PEND
@ 245   ----------------------------------------
	.byte	PATT
	 .word	mus_thpprf_idolatrizeworld_9_243
@ 246   ----------------------------------------
	.byte	PATT
	 .word	mus_thpprf_idolatrizeworld_9_242
@ 247   ----------------------------------------
	.byte	PATT
	 .word	mus_thpprf_idolatrizeworld_9_243
@ 248   ----------------------------------------
	.byte	PATT
	 .word	mus_thpprf_idolatrizeworld_9_244
@ 249   ----------------------------------------
mus_thpprf_idolatrizeworld_9_249:
	.byte		N06   , Cn1 , v120
	.byte		N06   , Fs1 , v080
	.byte	W12
	.byte		N06   
	.byte	W12
	.byte		        Cn1 , v120
	.byte		N21   , Dn1 , v100
	.byte		N06   , Fs2 
	.byte	W24
	.byte		        Cn1 , v120
	.byte		N21   , Dn1 , v100
	.byte		N06   , Fs1 , v080
	.byte	W24
	.byte		        Cn1 , v120
	.byte		N21   , Dn1 , v100
	.byte		N06   , Fs2 
	.byte	W24
	.byte	PEND
@ 250   ----------------------------------------
	.byte	PATT
	 .word	mus_thpprf_idolatrizeworld_9_242
@ 251   ----------------------------------------
	.byte	PATT
	 .word	mus_thpprf_idolatrizeworld_9_243
@ 252   ----------------------------------------
	.byte	PATT
	 .word	mus_thpprf_idolatrizeworld_9_244
@ 253   ----------------------------------------
	.byte	PATT
	 .word	mus_thpprf_idolatrizeworld_9_243
@ 254   ----------------------------------------
	.byte	PATT
	 .word	mus_thpprf_idolatrizeworld_9_242
@ 255   ----------------------------------------
	.byte	PATT
	 .word	mus_thpprf_idolatrizeworld_9_243
@ 256   ----------------------------------------
	.byte	PATT
	 .word	mus_thpprf_idolatrizeworld_9_244
@ 257   ----------------------------------------
	.byte	PATT
	 .word	mus_thpprf_idolatrizeworld_9_249
@ 258   ----------------------------------------
	.byte	PATT
	 .word	mus_thpprf_idolatrizeworld_9_242
@ 259   ----------------------------------------
	.byte	PATT
	 .word	mus_thpprf_idolatrizeworld_9_243
@ 260   ----------------------------------------
	.byte	PATT
	 .word	mus_thpprf_idolatrizeworld_9_244
@ 261   ----------------------------------------
	.byte	PATT
	 .word	mus_thpprf_idolatrizeworld_9_243
@ 262   ----------------------------------------
	.byte	PATT
	 .word	mus_thpprf_idolatrizeworld_9_242
@ 263   ----------------------------------------
	.byte	PATT
	 .word	mus_thpprf_idolatrizeworld_9_243
@ 264   ----------------------------------------
	.byte	PATT
	 .word	mus_thpprf_idolatrizeworld_9_244
@ 265   ----------------------------------------
	.byte	PATT
	 .word	mus_thpprf_idolatrizeworld_9_249
@ 266   ----------------------------------------
	.byte		N06   , Cn1 , v120
	.byte		N06   , Fs1 , v080
	.byte		N30   , Cs2 , v120
	.byte	W12
	.byte		N06   , Cn1 
	.byte	W12
	.byte		N06   
	.byte	W24
	.byte		N06   
	.byte		N21   , Dn1 , v100
	.byte		N06   , Fs1 , v080
	.byte		N06   , Fs2 , v100
	.byte	W24
	.byte		N21   , Dn1 
	.byte		N06   , Fs2 
	.byte	W12
	.byte		        Cn1 , v120
	.byte	W12
@ 267   ----------------------------------------
	.byte		N06   
	.byte		N06   , Fs1 , v080
	.byte	W12
	.byte		N06   
	.byte	W12
	.byte		        Cn1 , v120
	.byte		N21   , Dn1 , v100
	.byte		N06   , Fs2 
	.byte	W12
	.byte		        Fs1 , v080
	.byte	W12
	.byte		        Cn1 , v120
	.byte		N21   , Dn1 , v100
	.byte		N06   , Fs1 , v080
	.byte		N06   , Fs2 , v100
	.byte	W24
	.byte		        Cn1 , v120
	.byte		N21   , Dn1 , v100
	.byte		N06   , Fs1 , v080
	.byte	W12
	.byte		N06   
	.byte	W12
@ 268   ----------------------------------------
	.byte		        Cn1 , v120
	.byte		N06   , Fs1 , v080
	.byte	W12
	.byte		        Cn1 , v120
	.byte	W12
	.byte		N06   
	.byte		N21   , Dn1 , v100
	.byte	W24
	.byte		N06   , Cn1 , v120
	.byte		N21   , Dn1 , v100
	.byte		N06   , Fs1 , v080
	.byte		N06   , Fs2 , v100
	.byte	W12
	.byte		        Fs1 , v080
	.byte	W12
	.byte		N21   , Dn1 , v100
	.byte		N06   , Fs2 
	.byte	W12
	.byte		        Cn1 , v120
	.byte	W12
@ 269   ----------------------------------------
	.byte		N06   
	.byte		N21   , Dn1 , v100
	.byte		N06   , Fs1 , v080
	.byte		N06   , Fs2 , v100
	.byte	W12
	.byte		        Fs1 , v080
	.byte	W24
	.byte		        Cn1 , v120
	.byte		N21   , Dn1 , v100
	.byte		N06   , Fs2 
	.byte	W12
	.byte		        Fs1 , v080
	.byte	W24
	.byte		        Cn1 , v120
	.byte		N21   , Dn1 , v100
	.byte		N06   , Fs2 
	.byte	W24
@ 270   ----------------------------------------
	.byte		        Cn1 , v120
	.byte		N21   , Dn1 , v100
	.byte		N06   , Fs1 , v080
	.byte		N06   , Fs2 , v100
	.byte	W12
	.byte		        Cn1 , v120
	.byte	W12
	.byte		N06   
	.byte		N06   , Fs1 , v080
	.byte	W12
	.byte		N06   
	.byte	W12
	.byte		        Cn1 , v120
	.byte		N06   , Fs1 , v080
	.byte	W12
	.byte		N06   
	.byte	W12
	.byte		N21   , Dn1 , v100
	.byte		N06   , Fs2 
	.byte	W12
	.byte		        Cn1 , v120
	.byte	W12
@ 271   ----------------------------------------
	.byte		N06   
	.byte		N06   , Fs1 , v080
	.byte	W12
	.byte		N06   
	.byte	W12
	.byte		        Cn1 , v120
	.byte		N06   , Fs1 , v080
	.byte	W12
	.byte		N06   
	.byte	W12
	.byte		        Cn1 , v120
	.byte		N21   , Dn1 , v100
	.byte		N06   , Fs2 
	.byte	W24
	.byte		        Cn1 , v120
	.byte		N06   , Fs1 , v080
	.byte	W12
	.byte		N06   
	.byte	W12
@ 272   ----------------------------------------
	.byte		        Cn1 , v120
	.byte		N21   , Dn1 , v100
	.byte		N06   , Fs2 
	.byte	W12
	.byte		        Cn1 , v120
	.byte	W12
	.byte		N06   
	.byte		N21   , Dn1 , v100
	.byte		N06   , Fs2 
	.byte	W24
	.byte		        Cn1 , v120
	.byte		N21   , Dn1 , v100
	.byte		N06   , Fs2 
	.byte	W24
	.byte		N21   , Dn1 
	.byte		N06   , Fs2 
	.byte	W12
	.byte		        Cn1 , v120
	.byte	W12
@ 273   ----------------------------------------
	.byte		N06   
	.byte		N21   , Dn1 , v100
	.byte		N06   , Fs2 
	.byte	W32
	.byte		        Cn1 , v120
	.byte		N21   , Dn1 , v100
	.byte		N06   , Fs2 
	.byte	W32
	.byte		        Cn1 , v120
	.byte		N21   , Dn1 , v100
	.byte		N06   , Fs2 
	.byte	W16
	.byte		        Cn1 , v120
	.byte	W16
@ 274   ----------------------------------------
	.byte	PATT
	 .word	mus_thpprf_idolatrizeworld_9_049
@ 275   ----------------------------------------
	.byte	PATT
	 .word	mus_thpprf_idolatrizeworld_9_049
@ 276   ----------------------------------------
	.byte	PATT
	 .word	mus_thpprf_idolatrizeworld_9_049
@ 277   ----------------------------------------
	.byte	PATT
	 .word	mus_thpprf_idolatrizeworld_9_052
@ 278   ----------------------------------------
	.byte	PATT
	 .word	mus_thpprf_idolatrizeworld_9_049
@ 279   ----------------------------------------
	.byte	PATT
	 .word	mus_thpprf_idolatrizeworld_9_049
@ 280   ----------------------------------------
	.byte	PATT
	 .word	mus_thpprf_idolatrizeworld_9_049
@ 281   ----------------------------------------
	.byte	PATT
	 .word	mus_thpprf_idolatrizeworld_9_052
@ 282   ----------------------------------------
mus_thpprf_idolatrizeworld_9_282:
	.byte		N06   , Cn1 , v120
	.byte		N21   , Dn1 , v100
	.byte		N06   , Fs2 
	.byte	W24
	.byte		        Cn1 , v120
	.byte	W24
	.byte		N06   
	.byte	W48
	.byte	PEND
@ 283   ----------------------------------------
mus_thpprf_idolatrizeworld_9_283:
	.byte		N06   , Cn1 , v120
	.byte		N21   , Dn1 , v100
	.byte		N06   , Fs2 
	.byte	W24
	.byte		        Cn1 , v120
	.byte	W12
	.byte		N21   , Dn1 , v100
	.byte		N06   , Fs2 
	.byte	W12
	.byte		        Cn1 , v120
	.byte	W24
	.byte		N21   , Dn1 , v100
	.byte		N06   , Fs2 
	.byte	W24
	.byte	PEND
@ 284   ----------------------------------------
	.byte		        Cn1 , v120
	.byte	W12
	.byte		N06   
	.byte		N21   , Dn1 , v100
	.byte		N06   , Fs2 
	.byte	W12
	.byte		        Cn1 , v120
	.byte	W12
	.byte		N06   
	.byte	W12
	.byte		N06   
	.byte		N12   , Dn1 , v100
	.byte		N06   , Fs2 
	.byte	W12
	.byte		N12   , Dn1 
	.byte		N06   , Fs2 
	.byte	W12
	.byte		N21   , Dn1 
	.byte		N06   , Fs2 
	.byte	W12
	.byte		        Cn1 , v120
	.byte	W12
@ 285   ----------------------------------------
	.byte		N06   
	.byte	W12
	.byte		N06   
	.byte	W12
	.byte		N06   
	.byte		N21   , Dn1 , v100
	.byte		N06   , Fs2 
	.byte	W12
	.byte		        Cn1 , v120
	.byte	W12
	.byte		N06   
	.byte		N21   , Dn1 , v100
	.byte		N06   , Fs2 
	.byte	W24
	.byte		        Cn1 , v120
	.byte	W12
	.byte		N06   
	.byte	W12
@ 286   ----------------------------------------
	.byte	PATT
	 .word	mus_thpprf_idolatrizeworld_9_282
@ 287   ----------------------------------------
	.byte	PATT
	 .word	mus_thpprf_idolatrizeworld_9_283
@ 288   ----------------------------------------
	.byte		N06   , Cn1 , v120
	.byte	W12
	.byte		N06   
	.byte		N21   , Dn1 , v100
	.byte		N06   , Fs2 
	.byte	W12
	.byte		        Cn1 , v120
	.byte	W12
	.byte		N06   
	.byte	W12
	.byte		N06   
	.byte		N12   , Dn1 , v100
	.byte		N06   , Fs2 
	.byte	W12
	.byte		N12   , Dn1 
	.byte		N06   , Fs2 
	.byte	W12
	.byte		N12   , Dn1 
	.byte		N06   , Fs2 
	.byte	W12
	.byte		        Cn1 , v120
	.byte		N12   , Dn1 , v100
	.byte		N06   , Fs2 
	.byte	W12
@ 289   ----------------------------------------
	.byte		        Cn1 , v120
	.byte		N12   , Dn1 , v100
	.byte		N06   , Fs2 
	.byte	W12
	.byte		        Cn1 , v120
	.byte		N12   , Dn1 , v100
	.byte		N06   , Fs2 
	.byte	W12
	.byte		        Cn1 , v120
	.byte		N12   , Dn1 , v100
	.byte		N06   , Fs2 
	.byte	W12
	.byte		        Cn1 , v120
	.byte		N12   , Dn1 , v100
	.byte		N06   , Fs2 
	.byte	W12
	.byte		        Cn1 , v120
	.byte		N21   , Dn1 , v100
	.byte		N06   , Fs2 
	.byte	W24
	.byte		        Cn1 , v120
	.byte		N12   , Dn1 , v100
	.byte		N06   , Fs2 
	.byte	W12
	.byte		        Cn1 , v120
	.byte		N12   , Dn1 , v100
	.byte		N06   , Fs2 
	.byte	W12
@ 290   ----------------------------------------
mus_thpprf_idolatrizeworld_9_290:
	.byte		N06   , Cn1 , v120
	.byte		N21   , Dn1 , v100
	.byte		N30   , Cs2 , v120
	.byte	W24
	.byte		N06   , Cn1 
	.byte	W24
	.byte		N06   
	.byte	W24
	.byte		N21   , Dn1 , v100
	.byte		N06   , Fs2 
	.byte	W24
	.byte	PEND
@ 291   ----------------------------------------
mus_thpprf_idolatrizeworld_9_291:
	.byte		N06   , Cn1 , v120
	.byte	W36
	.byte		N06   
	.byte	W12
	.byte		N06   
	.byte		N21   , Dn1 , v100
	.byte		N06   , Fs2 
	.byte	W24
	.byte		        Cn1 , v120
	.byte	W24
	.byte	PEND
@ 292   ----------------------------------------
mus_thpprf_idolatrizeworld_9_292:
	.byte		N06   , Cn1 , v120
	.byte	W12
	.byte		N06   
	.byte	W12
	.byte		N06   
	.byte	W12
	.byte		N06   
	.byte	W12
	.byte		N06   
	.byte	W24
	.byte		N21   , Dn1 , v100
	.byte		N06   , Fs2 
	.byte	W24
	.byte	PEND
@ 293   ----------------------------------------
mus_thpprf_idolatrizeworld_9_293:
	.byte		N06   , Cn1 , v120
	.byte	W48
	.byte		N06   
	.byte		N21   , Dn1 , v100
	.byte		N06   , Fs2 
	.byte	W12
	.byte		        Cn1 , v120
	.byte	W12
	.byte		N06   
	.byte	W12
	.byte		N06   
	.byte	W12
	.byte	PEND
@ 294   ----------------------------------------
	.byte	PATT
	 .word	mus_thpprf_idolatrizeworld_9_290
@ 295   ----------------------------------------
	.byte	PATT
	 .word	mus_thpprf_idolatrizeworld_9_291
@ 296   ----------------------------------------
	.byte	PATT
	 .word	mus_thpprf_idolatrizeworld_9_292
@ 297   ----------------------------------------
	.byte	PATT
	 .word	mus_thpprf_idolatrizeworld_9_293
@ 298   ----------------------------------------
	.byte	PATT
	 .word	mus_thpprf_idolatrizeworld_9_290
@ 299   ----------------------------------------
	.byte	PATT
	 .word	mus_thpprf_idolatrizeworld_9_291
@ 300   ----------------------------------------
	.byte	PATT
	 .word	mus_thpprf_idolatrizeworld_9_292
@ 301   ----------------------------------------
	.byte	PATT
	 .word	mus_thpprf_idolatrizeworld_9_293
@ 302   ----------------------------------------
	.byte	PATT
	 .word	mus_thpprf_idolatrizeworld_9_290
@ 303   ----------------------------------------
	.byte	PATT
	 .word	mus_thpprf_idolatrizeworld_9_291
@ 304   ----------------------------------------
	.byte	PATT
	 .word	mus_thpprf_idolatrizeworld_9_292
@ 305   ----------------------------------------
	.byte	PATT
	 .word	mus_thpprf_idolatrizeworld_9_293
@ 306   ----------------------------------------
mus_thpprf_idolatrizeworld_9_306:
	.byte		N06   , Cn1 , v120
	.byte		N21   , Dn1 , v100
	.byte		N06   , Fs1 , v080
	.byte		N30   , Cs2 , v120
	.byte	W12
	.byte		N06   , Cn1 
	.byte	W12
	.byte		N06   
	.byte		N06   , Fs2 , v100
	.byte	W24
	.byte		        Cn1 , v120
	.byte		N21   , Dn1 , v100
	.byte		N06   , Fs2 
	.byte	W24
	.byte		N06   
	.byte	W12
	.byte		        Cn1 , v120
	.byte		N06   , Fs1 , v080
	.byte	W12
	.byte	PEND
@ 307   ----------------------------------------
	.byte	PATT
	 .word	mus_thpprf_idolatrizeworld_9_082
@ 308   ----------------------------------------
	.byte	PATT
	 .word	mus_thpprf_idolatrizeworld_9_083
@ 309   ----------------------------------------
	.byte	PATT
	 .word	mus_thpprf_idolatrizeworld_9_082
@ 310   ----------------------------------------
	.byte	PATT
	 .word	mus_thpprf_idolatrizeworld_9_306
@ 311   ----------------------------------------
	.byte	PATT
	 .word	mus_thpprf_idolatrizeworld_9_082
@ 312   ----------------------------------------
	.byte	PATT
	 .word	mus_thpprf_idolatrizeworld_9_083
@ 313   ----------------------------------------
	.byte	PATT
	 .word	mus_thpprf_idolatrizeworld_9_082
@ 314   ----------------------------------------
	.byte	PATT
	 .word	mus_thpprf_idolatrizeworld_9_306
@ 315   ----------------------------------------
	.byte	PATT
	 .word	mus_thpprf_idolatrizeworld_9_082
@ 316   ----------------------------------------
	.byte	PATT
	 .word	mus_thpprf_idolatrizeworld_9_083
@ 317   ----------------------------------------
	.byte	PATT
	 .word	mus_thpprf_idolatrizeworld_9_082
@ 318   ----------------------------------------
mus_thpprf_idolatrizeworld_9_318:
	.byte		N06   , Cn1 , v120
	.byte		N21   , Dn1 , v100
	.byte		N06   , Fs2 
	.byte	W96
	.byte	PEND
@ 319   ----------------------------------------
	.byte	PATT
	 .word	mus_thpprf_idolatrizeworld_9_318
@ 320   ----------------------------------------
	.byte	PATT
	 .word	mus_thpprf_idolatrizeworld_9_318
@ 321   ----------------------------------------
	.byte		N06   , Cn1 , v120
	.byte		N21   , Dn1 , v100
	.byte		N06   , Fs2 
	.byte	W48
	.byte		        Cn1 , v120
	.byte		N06   , Fs1 , v100
	.byte	W12
	.byte		        Cn1 , v120
	.byte		N06   , Fs1 , v100
	.byte	W12
	.byte		        Cn1 , v120
	.byte		N06   , Fs2 , v100
	.byte	W12
	.byte		        Cn1 , v120
	.byte		N06   , Fs1 , v100
	.byte	W12
@ 322   ----------------------------------------
	.byte	PATT
	 .word	mus_thpprf_idolatrizeworld_9_033
@ 323   ----------------------------------------
	.byte	PATT
	 .word	mus_thpprf_idolatrizeworld_9_034
@ 324   ----------------------------------------
	.byte	PATT
	 .word	mus_thpprf_idolatrizeworld_9_035
@ 325   ----------------------------------------
	.byte	PATT
	 .word	mus_thpprf_idolatrizeworld_9_036
@ 326   ----------------------------------------
	.byte	PATT
	 .word	mus_thpprf_idolatrizeworld_9_033
@ 327   ----------------------------------------
	.byte	PATT
	 .word	mus_thpprf_idolatrizeworld_9_034
@ 328   ----------------------------------------
	.byte	PATT
	 .word	mus_thpprf_idolatrizeworld_9_035
@ 329   ----------------------------------------
	.byte	PATT
	 .word	mus_thpprf_idolatrizeworld_9_036
@ 330   ----------------------------------------
	.byte	PATT
	 .word	mus_thpprf_idolatrizeworld_9_033
@ 331   ----------------------------------------
	.byte	PATT
	 .word	mus_thpprf_idolatrizeworld_9_034
@ 332   ----------------------------------------
	.byte	PATT
	 .word	mus_thpprf_idolatrizeworld_9_035
@ 333   ----------------------------------------
	.byte	PATT
	 .word	mus_thpprf_idolatrizeworld_9_036
@ 334   ----------------------------------------
	.byte	PATT
	 .word	mus_thpprf_idolatrizeworld_9_033
@ 335   ----------------------------------------
	.byte	PATT
	 .word	mus_thpprf_idolatrizeworld_9_034
@ 336   ----------------------------------------
	.byte	PATT
	 .word	mus_thpprf_idolatrizeworld_9_035
@ 337   ----------------------------------------
	.byte		N06   , Cn1 , v120
	.byte		N12   , Dn1 , v100
	.byte	W12
	.byte		N06   , Cn1 , v120
	.byte		N12   , Dn1 , v100
	.byte	W12
	.byte		N06   , Cn1 , v120
	.byte		N12   , Dn1 , v100
	.byte	W12
	.byte		N12   
	.byte	W12
	.byte		N06   , Cn1 , v120
	.byte		N12   , Dn1 , v100
	.byte		N06   , Fs2 
	.byte	W12
	.byte		N12   , Dn1 
	.byte	W12
	.byte		N06   , Cn1 , v120
	.byte		N12   , Dn1 , v100
	.byte	W12
	.byte		N06   , Cn1 , v120
	.byte		N21   , Dn1 , v100
	.byte	W12
@ 338   ----------------------------------------
	.byte	GOTO
	.word	mus_thpprf_idolatrizeworld_9_049
	.byte	FINE

@**************** Track 10 (Midi-Chn.10) ****************@

mus_thpprf_idolatrizeworld_10:
	.byte	KEYSH , mus_thpprf_idolatrizeworld_key+0
@ 000   ----------------------------------------
	.byte		VOICE , 120
	.byte	W28
	.byte		PAN   , c_v+0
	.byte		VOL   , 26*mus_thpprf_idolatrizeworld_mvl/mxv
	.byte	W02
	.byte		MOD   , 0
	.byte	W66
@ 001   ----------------------------------------
	.byte	W96
@ 002   ----------------------------------------
	.byte	W96
@ 003   ----------------------------------------
	.byte	W96
@ 004   ----------------------------------------
	.byte	W96
@ 005   ----------------------------------------
	.byte	W96
@ 006   ----------------------------------------
	.byte	W96
@ 007   ----------------------------------------
	.byte	W96
@ 008   ----------------------------------------
	.byte	W96
@ 009   ----------------------------------------
	.byte	W96
@ 010   ----------------------------------------
	.byte	W96
@ 011   ----------------------------------------
	.byte	W96
@ 012   ----------------------------------------
	.byte	W96
@ 013   ----------------------------------------
	.byte	W96
@ 014   ----------------------------------------
	.byte	W96
@ 015   ----------------------------------------
	.byte	W96
@ 016   ----------------------------------------
	.byte	W96
@ 017   ----------------------------------------
	.byte	W96
@ 018   ----------------------------------------
	.byte	W96
@ 019   ----------------------------------------
	.byte	W96
@ 020   ----------------------------------------
	.byte	W96
@ 021   ----------------------------------------
	.byte	W96
@ 022   ----------------------------------------
	.byte	W96
@ 023   ----------------------------------------
	.byte	W96
@ 024   ----------------------------------------
	.byte	W96
@ 025   ----------------------------------------
	.byte	W96
@ 026   ----------------------------------------
	.byte	W96
@ 027   ----------------------------------------
	.byte	W96
@ 028   ----------------------------------------
	.byte	W96
@ 029   ----------------------------------------
	.byte	W96
@ 030   ----------------------------------------
	.byte	W96
@ 031   ----------------------------------------
	.byte	W96
@ 032   ----------------------------------------
	.byte	W48
	.byte		N06   , Fs1 , v080
	.byte	W12
	.byte		N06   
	.byte	W12
	.byte		        Fs1 , v100
	.byte	W12
	.byte		        Fs1 , v080
	.byte	W12
@ 033   ----------------------------------------
	.byte	W96
@ 034   ----------------------------------------
	.byte	W96
@ 035   ----------------------------------------
	.byte	W96
@ 036   ----------------------------------------
	.byte	W96
@ 037   ----------------------------------------
	.byte	W96
@ 038   ----------------------------------------
	.byte	W96
@ 039   ----------------------------------------
	.byte	W96
@ 040   ----------------------------------------
	.byte	W96
@ 041   ----------------------------------------
	.byte	W96
@ 042   ----------------------------------------
	.byte	W96
@ 043   ----------------------------------------
	.byte	W96
@ 044   ----------------------------------------
	.byte	W96
@ 045   ----------------------------------------
	.byte	W96
@ 046   ----------------------------------------
	.byte	W96
@ 047   ----------------------------------------
	.byte	W96
@ 048   ----------------------------------------
	.byte	W48
	.byte		        Fs1 , v100
	.byte	W48
@ 049   ----------------------------------------
mus_thpprf_idolatrizeworld_10_049:
	.byte		N06   , Fs1 , v080
	.byte	W72
	.byte		N06   
	.byte	W12
	.byte		N06   
	.byte	W12
	.byte	PEND
@ 050   ----------------------------------------
	.byte	PATT
	 .word	mus_thpprf_idolatrizeworld_10_049
@ 051   ----------------------------------------
	.byte	PATT
	 .word	mus_thpprf_idolatrizeworld_10_049
@ 052   ----------------------------------------
mus_thpprf_idolatrizeworld_10_052:
	.byte		N06   , Fs1 , v080
	.byte	W48
	.byte		N06   
	.byte	W24
	.byte		N06   
	.byte	W12
	.byte		N06   
	.byte	W12
	.byte	PEND
@ 053   ----------------------------------------
	.byte	PATT
	 .word	mus_thpprf_idolatrizeworld_10_049
@ 054   ----------------------------------------
	.byte	PATT
	 .word	mus_thpprf_idolatrizeworld_10_049
@ 055   ----------------------------------------
	.byte	PATT
	 .word	mus_thpprf_idolatrizeworld_10_049
@ 056   ----------------------------------------
	.byte	PATT
	 .word	mus_thpprf_idolatrizeworld_10_052
@ 057   ----------------------------------------
	.byte	PATT
	 .word	mus_thpprf_idolatrizeworld_10_049
@ 058   ----------------------------------------
	.byte	PATT
	 .word	mus_thpprf_idolatrizeworld_10_049
@ 059   ----------------------------------------
	.byte	PATT
	 .word	mus_thpprf_idolatrizeworld_10_049
@ 060   ----------------------------------------
	.byte	PATT
	 .word	mus_thpprf_idolatrizeworld_10_052
@ 061   ----------------------------------------
	.byte	PATT
	 .word	mus_thpprf_idolatrizeworld_10_049
@ 062   ----------------------------------------
	.byte	PATT
	 .word	mus_thpprf_idolatrizeworld_10_049
@ 063   ----------------------------------------
	.byte	PATT
	 .word	mus_thpprf_idolatrizeworld_10_049
@ 064   ----------------------------------------
	.byte	PATT
	 .word	mus_thpprf_idolatrizeworld_10_052
@ 065   ----------------------------------------
mus_thpprf_idolatrizeworld_10_065:
	.byte		N06   , Fs1 , v080
	.byte	W48
	.byte		N06   
	.byte	W36
	.byte		N06   
	.byte	W12
	.byte	PEND
@ 066   ----------------------------------------
	.byte	PATT
	 .word	mus_thpprf_idolatrizeworld_10_065
@ 067   ----------------------------------------
	.byte	PATT
	 .word	mus_thpprf_idolatrizeworld_10_065
@ 068   ----------------------------------------
	.byte	PATT
	 .word	mus_thpprf_idolatrizeworld_10_065
@ 069   ----------------------------------------
	.byte	PATT
	 .word	mus_thpprf_idolatrizeworld_10_065
@ 070   ----------------------------------------
	.byte	PATT
	 .word	mus_thpprf_idolatrizeworld_10_065
@ 071   ----------------------------------------
	.byte	PATT
	 .word	mus_thpprf_idolatrizeworld_10_065
@ 072   ----------------------------------------
	.byte	PATT
	 .word	mus_thpprf_idolatrizeworld_10_065
@ 073   ----------------------------------------
	.byte	PATT
	 .word	mus_thpprf_idolatrizeworld_10_065
@ 074   ----------------------------------------
	.byte	PATT
	 .word	mus_thpprf_idolatrizeworld_10_065
@ 075   ----------------------------------------
	.byte	PATT
	 .word	mus_thpprf_idolatrizeworld_10_065
@ 076   ----------------------------------------
	.byte	PATT
	 .word	mus_thpprf_idolatrizeworld_10_065
@ 077   ----------------------------------------
	.byte	PATT
	 .word	mus_thpprf_idolatrizeworld_10_065
@ 078   ----------------------------------------
	.byte	PATT
	 .word	mus_thpprf_idolatrizeworld_10_065
@ 079   ----------------------------------------
	.byte	PATT
	 .word	mus_thpprf_idolatrizeworld_10_065
@ 080   ----------------------------------------
	.byte		N06   , Fs1 , v080
	.byte	W12
	.byte		N06   
	.byte	W24
	.byte		N06   
	.byte	W12
	.byte		N06   
	.byte	W12
	.byte		N06   
	.byte	W24
	.byte		N06   
	.byte	W12
@ 081   ----------------------------------------
mus_thpprf_idolatrizeworld_10_081:
	.byte		N06   , Fs1 , v080
	.byte		N30   , An2 , v120
	.byte	W24
	.byte		N06   , Fs1 , v080
	.byte	W60
	.byte		N06   
	.byte	W12
	.byte	PEND
@ 082   ----------------------------------------
mus_thpprf_idolatrizeworld_10_082:
	.byte		N06   , Fs1 , v080
	.byte	W12
	.byte		N06   
	.byte	W72
	.byte		N06   
	.byte	W12
	.byte	PEND
@ 083   ----------------------------------------
mus_thpprf_idolatrizeworld_10_083:
	.byte		N06   , Fs1 , v080
	.byte	W36
	.byte		N06   
	.byte	W24
	.byte		N06   
	.byte	W36
	.byte	PEND
@ 084   ----------------------------------------
	.byte	PATT
	 .word	mus_thpprf_idolatrizeworld_10_082
@ 085   ----------------------------------------
mus_thpprf_idolatrizeworld_10_085:
	.byte		N06   , Fs1 , v080
	.byte	W24
	.byte		N06   
	.byte	W60
	.byte		N06   
	.byte	W12
	.byte	PEND
@ 086   ----------------------------------------
	.byte	PATT
	 .word	mus_thpprf_idolatrizeworld_10_082
@ 087   ----------------------------------------
	.byte	PATT
	 .word	mus_thpprf_idolatrizeworld_10_083
@ 088   ----------------------------------------
	.byte	PATT
	 .word	mus_thpprf_idolatrizeworld_10_082
@ 089   ----------------------------------------
	.byte	PATT
	 .word	mus_thpprf_idolatrizeworld_10_081
@ 090   ----------------------------------------
	.byte	PATT
	 .word	mus_thpprf_idolatrizeworld_10_082
@ 091   ----------------------------------------
	.byte	PATT
	 .word	mus_thpprf_idolatrizeworld_10_083
@ 092   ----------------------------------------
	.byte	PATT
	 .word	mus_thpprf_idolatrizeworld_10_082
@ 093   ----------------------------------------
	.byte	PATT
	 .word	mus_thpprf_idolatrizeworld_10_085
@ 094   ----------------------------------------
	.byte	PATT
	 .word	mus_thpprf_idolatrizeworld_10_082
@ 095   ----------------------------------------
	.byte	PATT
	 .word	mus_thpprf_idolatrizeworld_10_083
@ 096   ----------------------------------------
	.byte	PATT
	 .word	mus_thpprf_idolatrizeworld_10_082
@ 097   ----------------------------------------
	.byte	PATT
	 .word	mus_thpprf_idolatrizeworld_10_081
@ 098   ----------------------------------------
	.byte	PATT
	 .word	mus_thpprf_idolatrizeworld_10_082
@ 099   ----------------------------------------
	.byte	PATT
	 .word	mus_thpprf_idolatrizeworld_10_083
@ 100   ----------------------------------------
	.byte	PATT
	 .word	mus_thpprf_idolatrizeworld_10_082
@ 101   ----------------------------------------
	.byte	PATT
	 .word	mus_thpprf_idolatrizeworld_10_085
@ 102   ----------------------------------------
	.byte	PATT
	 .word	mus_thpprf_idolatrizeworld_10_082
@ 103   ----------------------------------------
	.byte	PATT
	 .word	mus_thpprf_idolatrizeworld_10_083
@ 104   ----------------------------------------
	.byte	PATT
	 .word	mus_thpprf_idolatrizeworld_10_082
@ 105   ----------------------------------------
	.byte	PATT
	 .word	mus_thpprf_idolatrizeworld_10_081
@ 106   ----------------------------------------
	.byte	PATT
	 .word	mus_thpprf_idolatrizeworld_10_082
@ 107   ----------------------------------------
mus_thpprf_idolatrizeworld_10_107:
	.byte		N06   , Fs1 , v080
	.byte		N30   , An2 , v120
	.byte	W36
	.byte		N06   , Fs1 , v080
	.byte	W24
	.byte		N06   
	.byte	W36
	.byte	PEND
@ 108   ----------------------------------------
	.byte	PATT
	 .word	mus_thpprf_idolatrizeworld_10_082
@ 109   ----------------------------------------
	.byte	PATT
	 .word	mus_thpprf_idolatrizeworld_10_081
@ 110   ----------------------------------------
	.byte	PATT
	 .word	mus_thpprf_idolatrizeworld_10_082
@ 111   ----------------------------------------
	.byte	PATT
	 .word	mus_thpprf_idolatrizeworld_10_083
@ 112   ----------------------------------------
	.byte	PATT
	 .word	mus_thpprf_idolatrizeworld_10_082
@ 113   ----------------------------------------
	.byte		N30   , An2 , v120
	.byte	W96
@ 114   ----------------------------------------
	.byte	W96
@ 115   ----------------------------------------
	.byte	W96
@ 116   ----------------------------------------
	.byte	W96
@ 117   ----------------------------------------
	.byte		N30   
	.byte	W96
@ 118   ----------------------------------------
	.byte	W96
@ 119   ----------------------------------------
	.byte	W96
@ 120   ----------------------------------------
	.byte	W96
@ 121   ----------------------------------------
mus_thpprf_idolatrizeworld_10_121:
	.byte		N06   , Fs1 , v080
	.byte		N30   , An2 , v120
	.byte	W48
	.byte		N06   , Fs1 , v080
	.byte	W36
	.byte		N06   
	.byte	W12
	.byte	PEND
@ 122   ----------------------------------------
mus_thpprf_idolatrizeworld_10_122:
	.byte		N06   , Fs1 , v080
	.byte	W12
	.byte		N06   
	.byte	W36
	.byte		N06   
	.byte	W36
	.byte		N06   
	.byte	W12
	.byte	PEND
@ 123   ----------------------------------------
mus_thpprf_idolatrizeworld_10_123:
	.byte		N06   , Fs1 , v080
	.byte	W36
	.byte		N06   
	.byte	W12
	.byte		N06   
	.byte	W12
	.byte		N06   
	.byte	W36
	.byte	PEND
@ 124   ----------------------------------------
	.byte	PATT
	 .word	mus_thpprf_idolatrizeworld_10_122
@ 125   ----------------------------------------
	.byte	PATT
	 .word	mus_thpprf_idolatrizeworld_10_121
@ 126   ----------------------------------------
	.byte	PATT
	 .word	mus_thpprf_idolatrizeworld_10_122
@ 127   ----------------------------------------
	.byte	PATT
	 .word	mus_thpprf_idolatrizeworld_10_123
@ 128   ----------------------------------------
	.byte	PATT
	 .word	mus_thpprf_idolatrizeworld_10_122
@ 129   ----------------------------------------
	.byte		N30   , An2 , v120
	.byte	W96
@ 130   ----------------------------------------
	.byte	W96
@ 131   ----------------------------------------
	.byte	W96
@ 132   ----------------------------------------
	.byte	W96
@ 133   ----------------------------------------
	.byte		N30   
	.byte	W96
@ 134   ----------------------------------------
	.byte	W96
@ 135   ----------------------------------------
	.byte	W96
@ 136   ----------------------------------------
	.byte	W96
@ 137   ----------------------------------------
	.byte	PATT
	 .word	mus_thpprf_idolatrizeworld_10_121
@ 138   ----------------------------------------
	.byte	PATT
	 .word	mus_thpprf_idolatrizeworld_10_122
@ 139   ----------------------------------------
	.byte	PATT
	 .word	mus_thpprf_idolatrizeworld_10_123
@ 140   ----------------------------------------
	.byte	PATT
	 .word	mus_thpprf_idolatrizeworld_10_122
@ 141   ----------------------------------------
	.byte	PATT
	 .word	mus_thpprf_idolatrizeworld_10_121
@ 142   ----------------------------------------
	.byte	PATT
	 .word	mus_thpprf_idolatrizeworld_10_122
@ 143   ----------------------------------------
	.byte	PATT
	 .word	mus_thpprf_idolatrizeworld_10_123
@ 144   ----------------------------------------
	.byte	PATT
	 .word	mus_thpprf_idolatrizeworld_10_122
@ 145   ----------------------------------------
	.byte	W96
@ 146   ----------------------------------------
	.byte	W96
@ 147   ----------------------------------------
	.byte	W96
@ 148   ----------------------------------------
	.byte	W96
@ 149   ----------------------------------------
	.byte	W96
@ 150   ----------------------------------------
	.byte	W96
@ 151   ----------------------------------------
	.byte	W96
@ 152   ----------------------------------------
	.byte	W96
@ 153   ----------------------------------------
	.byte	W96
@ 154   ----------------------------------------
	.byte	W96
@ 155   ----------------------------------------
	.byte	W96
@ 156   ----------------------------------------
	.byte	W96
@ 157   ----------------------------------------
	.byte	W96
@ 158   ----------------------------------------
	.byte	W96
@ 159   ----------------------------------------
	.byte	W96
@ 160   ----------------------------------------
	.byte	W96
@ 161   ----------------------------------------
	.byte	W96
@ 162   ----------------------------------------
	.byte	PATT
	 .word	mus_thpprf_idolatrizeworld_10_121
@ 163   ----------------------------------------
	.byte	PATT
	 .word	mus_thpprf_idolatrizeworld_10_065
@ 164   ----------------------------------------
	.byte	PATT
	 .word	mus_thpprf_idolatrizeworld_10_065
@ 165   ----------------------------------------
	.byte	PATT
	 .word	mus_thpprf_idolatrizeworld_10_065
@ 166   ----------------------------------------
	.byte	PATT
	 .word	mus_thpprf_idolatrizeworld_10_065
@ 167   ----------------------------------------
	.byte	PATT
	 .word	mus_thpprf_idolatrizeworld_10_065
@ 168   ----------------------------------------
	.byte	PATT
	 .word	mus_thpprf_idolatrizeworld_10_065
@ 169   ----------------------------------------
	.byte	PATT
	 .word	mus_thpprf_idolatrizeworld_10_065
@ 170   ----------------------------------------
	.byte	PATT
	 .word	mus_thpprf_idolatrizeworld_10_121
@ 171   ----------------------------------------
	.byte	PATT
	 .word	mus_thpprf_idolatrizeworld_10_065
@ 172   ----------------------------------------
	.byte	PATT
	 .word	mus_thpprf_idolatrizeworld_10_121
@ 173   ----------------------------------------
	.byte	PATT
	 .word	mus_thpprf_idolatrizeworld_10_065
@ 174   ----------------------------------------
	.byte	PATT
	 .word	mus_thpprf_idolatrizeworld_10_121
@ 175   ----------------------------------------
	.byte	PATT
	 .word	mus_thpprf_idolatrizeworld_10_065
@ 176   ----------------------------------------
	.byte	PATT
	 .word	mus_thpprf_idolatrizeworld_10_121
@ 177   ----------------------------------------
	.byte		N06   , Fs1 , v080
	.byte	W12
	.byte		N06   
	.byte	W24
	.byte		N06   
	.byte	W12
	.byte		N30   , An2 , v120
	.byte	W12
	.byte		N06   , Fs1 , v080
	.byte	W24
	.byte		N06   
	.byte	W12
@ 178   ----------------------------------------
mus_thpprf_idolatrizeworld_10_178:
	.byte		N06   , Fs1 , v080
	.byte		N30   , An2 , v120
	.byte	W84
	.byte		N06   , Fs1 , v080
	.byte	W12
	.byte	PEND
@ 179   ----------------------------------------
	.byte	PATT
	 .word	mus_thpprf_idolatrizeworld_10_082
@ 180   ----------------------------------------
	.byte	PATT
	 .word	mus_thpprf_idolatrizeworld_10_083
@ 181   ----------------------------------------
	.byte	PATT
	 .word	mus_thpprf_idolatrizeworld_10_082
@ 182   ----------------------------------------
mus_thpprf_idolatrizeworld_10_182:
	.byte		N06   , Fs1 , v080
	.byte	W84
	.byte		N06   
	.byte	W12
	.byte	PEND
@ 183   ----------------------------------------
	.byte	PATT
	 .word	mus_thpprf_idolatrizeworld_10_082
@ 184   ----------------------------------------
	.byte	PATT
	 .word	mus_thpprf_idolatrizeworld_10_083
@ 185   ----------------------------------------
	.byte	PATT
	 .word	mus_thpprf_idolatrizeworld_10_082
@ 186   ----------------------------------------
	.byte	PATT
	 .word	mus_thpprf_idolatrizeworld_10_178
@ 187   ----------------------------------------
	.byte	PATT
	 .word	mus_thpprf_idolatrizeworld_10_082
@ 188   ----------------------------------------
	.byte	PATT
	 .word	mus_thpprf_idolatrizeworld_10_083
@ 189   ----------------------------------------
	.byte	PATT
	 .word	mus_thpprf_idolatrizeworld_10_082
@ 190   ----------------------------------------
	.byte	PATT
	 .word	mus_thpprf_idolatrizeworld_10_182
@ 191   ----------------------------------------
	.byte	PATT
	 .word	mus_thpprf_idolatrizeworld_10_082
@ 192   ----------------------------------------
	.byte	PATT
	 .word	mus_thpprf_idolatrizeworld_10_083
@ 193   ----------------------------------------
	.byte	PATT
	 .word	mus_thpprf_idolatrizeworld_10_082
@ 194   ----------------------------------------
	.byte	PATT
	 .word	mus_thpprf_idolatrizeworld_10_178
@ 195   ----------------------------------------
	.byte	PATT
	 .word	mus_thpprf_idolatrizeworld_10_082
@ 196   ----------------------------------------
	.byte	PATT
	 .word	mus_thpprf_idolatrizeworld_10_083
@ 197   ----------------------------------------
	.byte	PATT
	 .word	mus_thpprf_idolatrizeworld_10_082
@ 198   ----------------------------------------
	.byte	PATT
	 .word	mus_thpprf_idolatrizeworld_10_182
@ 199   ----------------------------------------
	.byte	PATT
	 .word	mus_thpprf_idolatrizeworld_10_082
@ 200   ----------------------------------------
	.byte	PATT
	 .word	mus_thpprf_idolatrizeworld_10_083
@ 201   ----------------------------------------
	.byte	PATT
	 .word	mus_thpprf_idolatrizeworld_10_082
@ 202   ----------------------------------------
	.byte	PATT
	 .word	mus_thpprf_idolatrizeworld_10_178
@ 203   ----------------------------------------
	.byte	PATT
	 .word	mus_thpprf_idolatrizeworld_10_082
@ 204   ----------------------------------------
	.byte	PATT
	 .word	mus_thpprf_idolatrizeworld_10_107
@ 205   ----------------------------------------
	.byte	PATT
	 .word	mus_thpprf_idolatrizeworld_10_082
@ 206   ----------------------------------------
	.byte	PATT
	 .word	mus_thpprf_idolatrizeworld_10_178
@ 207   ----------------------------------------
	.byte	PATT
	 .word	mus_thpprf_idolatrizeworld_10_082
@ 208   ----------------------------------------
	.byte	PATT
	 .word	mus_thpprf_idolatrizeworld_10_083
@ 209   ----------------------------------------
	.byte	PATT
	 .word	mus_thpprf_idolatrizeworld_10_082
@ 210   ----------------------------------------
	.byte	PATT
	 .word	mus_thpprf_idolatrizeworld_10_178
@ 211   ----------------------------------------
	.byte	PATT
	 .word	mus_thpprf_idolatrizeworld_10_082
@ 212   ----------------------------------------
	.byte	PATT
	 .word	mus_thpprf_idolatrizeworld_10_083
@ 213   ----------------------------------------
	.byte	PATT
	 .word	mus_thpprf_idolatrizeworld_10_082
@ 214   ----------------------------------------
	.byte	PATT
	 .word	mus_thpprf_idolatrizeworld_10_182
@ 215   ----------------------------------------
	.byte	PATT
	 .word	mus_thpprf_idolatrizeworld_10_082
@ 216   ----------------------------------------
	.byte	PATT
	 .word	mus_thpprf_idolatrizeworld_10_083
@ 217   ----------------------------------------
	.byte	PATT
	 .word	mus_thpprf_idolatrizeworld_10_082
@ 218   ----------------------------------------
	.byte	PATT
	 .word	mus_thpprf_idolatrizeworld_10_178
@ 219   ----------------------------------------
	.byte	PATT
	 .word	mus_thpprf_idolatrizeworld_10_082
@ 220   ----------------------------------------
	.byte	PATT
	 .word	mus_thpprf_idolatrizeworld_10_083
@ 221   ----------------------------------------
	.byte	PATT
	 .word	mus_thpprf_idolatrizeworld_10_082
@ 222   ----------------------------------------
	.byte	PATT
	 .word	mus_thpprf_idolatrizeworld_10_182
@ 223   ----------------------------------------
	.byte	PATT
	 .word	mus_thpprf_idolatrizeworld_10_082
@ 224   ----------------------------------------
	.byte	PATT
	 .word	mus_thpprf_idolatrizeworld_10_083
@ 225   ----------------------------------------
	.byte	PATT
	 .word	mus_thpprf_idolatrizeworld_10_082
@ 226   ----------------------------------------
	.byte	PATT
	 .word	mus_thpprf_idolatrizeworld_10_178
@ 227   ----------------------------------------
	.byte	PATT
	 .word	mus_thpprf_idolatrizeworld_10_082
@ 228   ----------------------------------------
	.byte	PATT
	 .word	mus_thpprf_idolatrizeworld_10_083
@ 229   ----------------------------------------
	.byte	PATT
	 .word	mus_thpprf_idolatrizeworld_10_082
@ 230   ----------------------------------------
	.byte	PATT
	 .word	mus_thpprf_idolatrizeworld_10_182
@ 231   ----------------------------------------
	.byte	PATT
	 .word	mus_thpprf_idolatrizeworld_10_082
@ 232   ----------------------------------------
	.byte	PATT
	 .word	mus_thpprf_idolatrizeworld_10_083
@ 233   ----------------------------------------
	.byte	PATT
	 .word	mus_thpprf_idolatrizeworld_10_082
@ 234   ----------------------------------------
	.byte	PATT
	 .word	mus_thpprf_idolatrizeworld_10_178
@ 235   ----------------------------------------
	.byte	PATT
	 .word	mus_thpprf_idolatrizeworld_10_082
@ 236   ----------------------------------------
	.byte	PATT
	 .word	mus_thpprf_idolatrizeworld_10_107
@ 237   ----------------------------------------
	.byte	PATT
	 .word	mus_thpprf_idolatrizeworld_10_082
@ 238   ----------------------------------------
	.byte	PATT
	 .word	mus_thpprf_idolatrizeworld_10_178
@ 239   ----------------------------------------
	.byte	PATT
	 .word	mus_thpprf_idolatrizeworld_10_082
@ 240   ----------------------------------------
	.byte	PATT
	 .word	mus_thpprf_idolatrizeworld_10_083
@ 241   ----------------------------------------
	.byte	PATT
	 .word	mus_thpprf_idolatrizeworld_10_082
@ 242   ----------------------------------------
mus_thpprf_idolatrizeworld_10_242:
	.byte		N06   , Fs1 , v080
	.byte		N30   , An2 , v120
	.byte	W48
	.byte		N06   , Fs1 , v080
	.byte	W48
	.byte	PEND
@ 243   ----------------------------------------
mus_thpprf_idolatrizeworld_10_243:
	.byte		N06   , Fs1 , v080
	.byte	W12
	.byte		N06   
	.byte	W36
	.byte		N06   
	.byte	W48
	.byte	PEND
@ 244   ----------------------------------------
mus_thpprf_idolatrizeworld_10_244:
	.byte		N06   , Fs1 , v080
	.byte	W48
	.byte		N06   
	.byte	W12
	.byte		N06   
	.byte	W36
	.byte	PEND
@ 245   ----------------------------------------
	.byte	PATT
	 .word	mus_thpprf_idolatrizeworld_10_243
@ 246   ----------------------------------------
	.byte	PATT
	 .word	mus_thpprf_idolatrizeworld_10_242
@ 247   ----------------------------------------
	.byte	PATT
	 .word	mus_thpprf_idolatrizeworld_10_243
@ 248   ----------------------------------------
	.byte	PATT
	 .word	mus_thpprf_idolatrizeworld_10_244
@ 249   ----------------------------------------
	.byte	PATT
	 .word	mus_thpprf_idolatrizeworld_10_243
@ 250   ----------------------------------------
	.byte	PATT
	 .word	mus_thpprf_idolatrizeworld_10_242
@ 251   ----------------------------------------
	.byte	PATT
	 .word	mus_thpprf_idolatrizeworld_10_243
@ 252   ----------------------------------------
	.byte	PATT
	 .word	mus_thpprf_idolatrizeworld_10_244
@ 253   ----------------------------------------
	.byte	PATT
	 .word	mus_thpprf_idolatrizeworld_10_243
@ 254   ----------------------------------------
	.byte	PATT
	 .word	mus_thpprf_idolatrizeworld_10_242
@ 255   ----------------------------------------
	.byte	PATT
	 .word	mus_thpprf_idolatrizeworld_10_243
@ 256   ----------------------------------------
	.byte	PATT
	 .word	mus_thpprf_idolatrizeworld_10_244
@ 257   ----------------------------------------
	.byte	PATT
	 .word	mus_thpprf_idolatrizeworld_10_243
@ 258   ----------------------------------------
	.byte	PATT
	 .word	mus_thpprf_idolatrizeworld_10_242
@ 259   ----------------------------------------
	.byte	PATT
	 .word	mus_thpprf_idolatrizeworld_10_243
@ 260   ----------------------------------------
	.byte	PATT
	 .word	mus_thpprf_idolatrizeworld_10_244
@ 261   ----------------------------------------
	.byte	PATT
	 .word	mus_thpprf_idolatrizeworld_10_243
@ 262   ----------------------------------------
	.byte	PATT
	 .word	mus_thpprf_idolatrizeworld_10_242
@ 263   ----------------------------------------
	.byte	PATT
	 .word	mus_thpprf_idolatrizeworld_10_243
@ 264   ----------------------------------------
	.byte	PATT
	 .word	mus_thpprf_idolatrizeworld_10_244
@ 265   ----------------------------------------
	.byte	PATT
	 .word	mus_thpprf_idolatrizeworld_10_243
@ 266   ----------------------------------------
	.byte	PATT
	 .word	mus_thpprf_idolatrizeworld_10_242
@ 267   ----------------------------------------
	.byte		N06   , Fs1 , v080
	.byte	W12
	.byte		N06   
	.byte	W24
	.byte		N06   
	.byte	W12
	.byte		N06   
	.byte	W24
	.byte		N06   
	.byte	W12
	.byte		N06   
	.byte	W12
@ 268   ----------------------------------------
	.byte	PATT
	 .word	mus_thpprf_idolatrizeworld_10_244
@ 269   ----------------------------------------
	.byte	PATT
	 .word	mus_thpprf_idolatrizeworld_10_243
@ 270   ----------------------------------------
	.byte		N06   , Fs1 , v080
	.byte	W24
	.byte		N06   
	.byte	W12
	.byte		N06   
	.byte	W12
	.byte		N06   
	.byte	W12
	.byte		N06   
	.byte	W36
@ 271   ----------------------------------------
	.byte		N06   
	.byte	W12
	.byte		N06   
	.byte	W12
	.byte		N06   
	.byte	W12
	.byte		N06   
	.byte	W36
	.byte		N06   
	.byte	W12
	.byte		N06   
	.byte	W12
@ 272   ----------------------------------------
	.byte	W96
@ 273   ----------------------------------------
	.byte	W96
@ 274   ----------------------------------------
	.byte	PATT
	 .word	mus_thpprf_idolatrizeworld_10_049
@ 275   ----------------------------------------
	.byte	PATT
	 .word	mus_thpprf_idolatrizeworld_10_049
@ 276   ----------------------------------------
	.byte	PATT
	 .word	mus_thpprf_idolatrizeworld_10_049
@ 277   ----------------------------------------
	.byte	PATT
	 .word	mus_thpprf_idolatrizeworld_10_052
@ 278   ----------------------------------------
	.byte	PATT
	 .word	mus_thpprf_idolatrizeworld_10_049
@ 279   ----------------------------------------
	.byte	PATT
	 .word	mus_thpprf_idolatrizeworld_10_049
@ 280   ----------------------------------------
	.byte	PATT
	 .word	mus_thpprf_idolatrizeworld_10_049
@ 281   ----------------------------------------
	.byte	PATT
	 .word	mus_thpprf_idolatrizeworld_10_052
@ 282   ----------------------------------------
	.byte	W96
@ 283   ----------------------------------------
	.byte	W96
@ 284   ----------------------------------------
	.byte	W96
@ 285   ----------------------------------------
	.byte	W96
@ 286   ----------------------------------------
	.byte	W96
@ 287   ----------------------------------------
	.byte	W96
@ 288   ----------------------------------------
	.byte	W96
@ 289   ----------------------------------------
	.byte	W96
@ 290   ----------------------------------------
	.byte		N30   , An2 , v120
	.byte	W96
@ 291   ----------------------------------------
	.byte	W96
@ 292   ----------------------------------------
	.byte	W96
@ 293   ----------------------------------------
	.byte	W96
@ 294   ----------------------------------------
	.byte		N30   
	.byte	W96
@ 295   ----------------------------------------
	.byte	W96
@ 296   ----------------------------------------
	.byte	W96
@ 297   ----------------------------------------
	.byte	W96
@ 298   ----------------------------------------
	.byte		N30   
	.byte	W96
@ 299   ----------------------------------------
	.byte	W96
@ 300   ----------------------------------------
	.byte	W96
@ 301   ----------------------------------------
	.byte	W96
@ 302   ----------------------------------------
	.byte		N30   
	.byte	W96
@ 303   ----------------------------------------
	.byte	W96
@ 304   ----------------------------------------
	.byte	W96
@ 305   ----------------------------------------
	.byte	W96
@ 306   ----------------------------------------
	.byte	PATT
	 .word	mus_thpprf_idolatrizeworld_10_178
@ 307   ----------------------------------------
	.byte	PATT
	 .word	mus_thpprf_idolatrizeworld_10_082
@ 308   ----------------------------------------
	.byte	PATT
	 .word	mus_thpprf_idolatrizeworld_10_083
@ 309   ----------------------------------------
	.byte	PATT
	 .word	mus_thpprf_idolatrizeworld_10_082
@ 310   ----------------------------------------
	.byte	PATT
	 .word	mus_thpprf_idolatrizeworld_10_178
@ 311   ----------------------------------------
	.byte	PATT
	 .word	mus_thpprf_idolatrizeworld_10_082
@ 312   ----------------------------------------
	.byte	PATT
	 .word	mus_thpprf_idolatrizeworld_10_083
@ 313   ----------------------------------------
	.byte	PATT
	 .word	mus_thpprf_idolatrizeworld_10_082
@ 314   ----------------------------------------
	.byte	PATT
	 .word	mus_thpprf_idolatrizeworld_10_178
@ 315   ----------------------------------------
	.byte	PATT
	 .word	mus_thpprf_idolatrizeworld_10_082
@ 316   ----------------------------------------
	.byte	PATT
	 .word	mus_thpprf_idolatrizeworld_10_083
@ 317   ----------------------------------------
	.byte	PATT
	 .word	mus_thpprf_idolatrizeworld_10_082
@ 318   ----------------------------------------
	.byte	W96
@ 319   ----------------------------------------
	.byte	W96
@ 320   ----------------------------------------
	.byte	W96
@ 321   ----------------------------------------
	.byte	W48
	.byte		N06   , Fs1 , v100
	.byte	W12
	.byte		N06   
	.byte	W24
	.byte		N06   
	.byte	W12
@ 322   ----------------------------------------
	.byte	W96
@ 323   ----------------------------------------
	.byte	W96
@ 324   ----------------------------------------
	.byte	W96
@ 325   ----------------------------------------
	.byte	W96
@ 326   ----------------------------------------
	.byte	W96
@ 327   ----------------------------------------
	.byte	W96
@ 328   ----------------------------------------
	.byte	W96
@ 329   ----------------------------------------
	.byte	W96
@ 330   ----------------------------------------
	.byte	W96
@ 331   ----------------------------------------
	.byte	W96
@ 332   ----------------------------------------
	.byte	W96
@ 333   ----------------------------------------
	.byte	W96
@ 334   ----------------------------------------
	.byte	W96
@ 335   ----------------------------------------
	.byte	W96
@ 336   ----------------------------------------
	.byte	W96
@ 337   ----------------------------------------
	.byte	W96
@ 338   ----------------------------------------
	.byte	GOTO
	.word	mus_thpprf_idolatrizeworld_10_049
	.byte	FINE

@******************************************************@
	.align	2

mus_thpprf_idolatrizeworld:
	.byte	10	@ NumTrks
	.byte	0	@ NumBlks
	.byte	mus_thpprf_idolatrizeworld_pri	@ Priority
	.byte	mus_thpprf_idolatrizeworld_rev	@ Reverb.

	.word	mus_thpprf_idolatrizeworld_grp

	.word	mus_thpprf_idolatrizeworld_1
	.word	mus_thpprf_idolatrizeworld_2
	.word	mus_thpprf_idolatrizeworld_3
	.word	mus_thpprf_idolatrizeworld_4
	.word	mus_thpprf_idolatrizeworld_5
	.word	mus_thpprf_idolatrizeworld_6
	.word	mus_thpprf_idolatrizeworld_7
	.word	mus_thpprf_idolatrizeworld_8
	.word	mus_thpprf_idolatrizeworld_9
	.word	mus_thpprf_idolatrizeworld_10

	.end
