        .include "MPlayDef.s"

        .equ    mus_dbz_hikari_no_willpower_grp, voicegroup_common_main
        .equ    mus_dbz_hikari_no_willpower_pri, 0
        .equ    mus_dbz_hikari_no_willpower_rev, reverb_set+50
        .equ    mus_dbz_hikari_no_willpower_key, 0

        .section .rodata
        .global mus_dbz_hikari_no_willpower
        .align  2

@****************** Track 0 (Midi-Chn.1) ******************@

mus_dbz_hikari_no_willpower_0:
        .byte   KEYSH , mus_dbz_hikari_no_willpower_key+0
@ 000   ----------------------------------------
        .byte   TEMPO , 152/2
        .byte           VOICE , 81
        .byte           VOL   , 100
@ 001   ----------------------------------------
        .byte   W36
@ 002   ----------------------------------------
        .byte   W96
@ 003   ----------------------------------------
        .byte   W96
@ 004   ----------------------------------------
        .byte   W96
@ 005   ----------------------------------------
        .byte   W96
@ 006   ----------------------------------------
        .byte   W96
@ 007   ----------------------------------------
        .byte   W96
@ 008   ----------------------------------------
        .byte   W96
@ 009   ----------------------------------------
        .byte   W96
@ 010   ----------------------------------------
mus_dbz_hikari_no_willpower_0_10:
        .byte   W96
@ 011   ----------------------------------------
        .byte   W96
@ 012   ----------------------------------------
        .byte   W96
@ 013   ----------------------------------------
        .byte   W96
@ 014   ----------------------------------------
        .byte   W96
@ 015   ----------------------------------------
        .byte   W96
@ 016   ----------------------------------------
        .byte   W96
@ 017   ----------------------------------------
        .byte   W96
@ 018   ----------------------------------------
        .byte   W96
@ 019   ----------------------------------------
        .byte   W96
@ 020   ----------------------------------------
        .byte   W96
@ 021   ----------------------------------------
        .byte   W96
@ 022   ----------------------------------------
        .byte   W96
@ 023   ----------------------------------------
        .byte   W96
@ 024   ----------------------------------------
        .byte   W96
@ 025   ----------------------------------------
mus_dbz_hikari_no_willpower_0_25:
        .byte   W48
        .byte           N05   , An2 , v100
        .byte   W06
        .byte                   En3
        .byte   W06
        .byte                   An3
        .byte   W06
        .byte                   Bn3
        .byte   W06
        .byte                   En4
        .byte   W06
        .byte                   An4
        .byte   W06
        .byte                   Bn4
        .byte   W06
        .byte                   En5
        .byte   W06
        .byte   PEND
@ 026   ----------------------------------------
        .byte   W96
@ 027   ----------------------------------------
        .byte   W96
@ 028   ----------------------------------------
        .byte   W96
@ 029   ----------------------------------------
mus_dbz_hikari_no_willpower_0_29:
        .byte   W48
        .byte           N05   , Bn2 , v100
        .byte   W06
        .byte                   Dn3
        .byte   W06
        .byte                   Fs3
        .byte   W06
        .byte                   Bn3
        .byte   W06
        .byte                   Dn4
        .byte   W06
        .byte                   Fs4
        .byte   W06
        .byte                   Bn4
        .byte   W06
        .byte                   Dn5
        .byte   W06
        .byte   PEND
@ 030   ----------------------------------------
        .byte   W96
@ 031   ----------------------------------------
        .byte   W96
@ 032   ----------------------------------------
mus_dbz_hikari_no_willpower_0_32:
        .byte   W24
        .byte           N23   , Fs4 , v100
        .byte   W24
        .byte                   Cs4
        .byte   W24
        .byte                   Bn3
        .byte   W24
        .byte   PEND
@ 033   ----------------------------------------
        .byte                   Fs3
        .byte   W24
        .byte                   Cs4
        .byte   W24
        .byte                   Fs4
        .byte   W24
        .byte                   Cs4
        .byte   W24
@ 034   ----------------------------------------
        .byte   W96
@ 035   ----------------------------------------
        .byte   W96
@ 036   ----------------------------------------
        .byte   W96
@ 037   ----------------------------------------
        .byte   W96
@ 038   ----------------------------------------
        .byte   W96
@ 039   ----------------------------------------
        .byte   W96
@ 040   ----------------------------------------
        .byte   W96
@ 041   ----------------------------------------
        .byte   PATT
         .word  mus_dbz_hikari_no_willpower_0_25
@ 042   ----------------------------------------
        .byte   W96
@ 043   ----------------------------------------
        .byte   W96
@ 044   ----------------------------------------
        .byte   W96
@ 045   ----------------------------------------
        .byte   PATT
         .word  mus_dbz_hikari_no_willpower_0_29
@ 046   ----------------------------------------
        .byte   W96
@ 047   ----------------------------------------
        .byte   W96
@ 048   ----------------------------------------
        .byte   PATT
         .word  mus_dbz_hikari_no_willpower_0_32
@ 049   ----------------------------------------
        .byte   W96
@ 050   ----------------------------------------
        .byte   W96
@ 051   ----------------------------------------
        .byte   W96
@ 052   ----------------------------------------
        .byte   W96
@ 053   ----------------------------------------
        .byte   W96
@ 054   ----------------------------------------
        .byte   W96
@ 055   ----------------------------------------
        .byte   W96
@ 056   ----------------------------------------
        .byte   W96
@ 057   ----------------------------------------
        .byte   W96
@ 058   ----------------------------------------
        .byte   W96
@ 059   ----------------------------------------
        .byte   W96
@ 060   ----------------------------------------
        .byte   W96
@ 061   ----------------------------------------
        .byte   W96
@ 062   ----------------------------------------
        .byte   W96
@ 063   ----------------------------------------
        .byte   W96
@ 064   ----------------------------------------
        .byte   W96
@ 065   ----------------------------------------
        .byte   W96
@ 066   ----------------------------------------
        .byte   W96
@ 067   ----------------------------------------
        .byte   W96
@ 068   ----------------------------------------
        .byte   W96
@ 069   ----------------------------------------
        .byte   W96
@ 070   ----------------------------------------
        .byte   W96
@ 071   ----------------------------------------
        .byte   W96
@ 072   ----------------------------------------
        .byte   W96
@ 073   ----------------------------------------
        .byte   W96
@ 074   ----------------------------------------
        .byte   W96
@ 075   ----------------------------------------
        .byte   W96
@ 076   ----------------------------------------
        .byte   W96
@ 077   ----------------------------------------
        .byte   W96
@ 078   ----------------------------------------
        .byte   W96
@ 079   ----------------------------------------
        .byte   W96
@ 080   ----------------------------------------
        .byte   W96
@ 081   ----------------------------------------
        .byte   W96
@ 082   ----------------------------------------
        .byte   GOTO
        .word	mus_dbz_hikari_no_willpower_0_10
        .byte   FINE

@****************** Track 1 (Midi-Chn.2) ******************@

mus_dbz_hikari_no_willpower_1:
        .byte   KEYSH , mus_dbz_hikari_no_willpower_key+0
@ 000   ----------------------------------------
        .byte           VOICE , 95
        .byte           VOL   , 100
@ 001   ----------------------------------------
        .byte   W36
@ 002   ----------------------------------------
        .byte   W96
@ 003   ----------------------------------------
        .byte   W96
@ 004   ----------------------------------------
        .byte   W96
@ 005   ----------------------------------------
        .byte   W96
@ 006   ----------------------------------------
        .byte   W96
@ 007   ----------------------------------------
        .byte   W96
@ 008   ----------------------------------------
        .byte   W96
@ 009   ----------------------------------------
        .byte   W96
@ 010   ----------------------------------------
mus_dbz_hikari_no_willpower_1_10:
        .byte           TIE   , Fs2 , v100
        .byte           TIE   , Bn2
        .byte   W96
        .byte   PEND
@ 011   ----------------------------------------
        .byte   W44
        .byte   W03
        .byte           EOT   , Fs2
        .byte                   Bn2
        .byte   W01
        .byte           N17   , Cn3
        .byte           N17   , Fn3
        .byte   W18
        .byte                   En3
        .byte           N11   , Bn2
        .byte   W18
        .byte                   An2
        .byte           N11   , Dn3
        .byte   W12
@ 012   ----------------------------------------
        .byte   PATT
         .word  mus_dbz_hikari_no_willpower_1_10
@ 013   ----------------------------------------
        .byte   W44
        .byte   W03
        .byte           EOT   , Fs2
        .byte                   Bn2
        .byte   W01
        .byte           N08   , An2 , v100
        .byte           N08   , Dn3
        .byte   W18
        .byte           N17   , Bn2
        .byte           N11   , En3
        .byte   W18
        .byte                   En2
        .byte           N11   , An2
        .byte   W12
@ 014   ----------------------------------------
        .byte   PATT
         .word  mus_dbz_hikari_no_willpower_1_10
@ 015   ----------------------------------------
        .byte   W44
        .byte   W03
        .byte           EOT   , Fs2
        .byte                   Bn2
        .byte   W01
        .byte           N08   , Cn3 , v100
        .byte           N08   , Fn3
        .byte   W18
        .byte           N17   , Bn2
        .byte           N17   , En3
        .byte   W18
        .byte           N05   , An2
        .byte           N05   , Dn3
        .byte   W12
@ 016   ----------------------------------------
        .byte   PATT
         .word  mus_dbz_hikari_no_willpower_1_10
@ 017   ----------------------------------------
        .byte   W44
        .byte   W03
        .byte           EOT   , Fs2
        .byte                   Bn2
        .byte   W01
        .byte           N08   , An2 , v100
        .byte           N08   , Dn3
        .byte   W18
        .byte           N17   , Bn2
        .byte           N11   , En3
        .byte   W18
        .byte           N05   , En2
        .byte           N05   , An2
        .byte   W12
@ 018   ----------------------------------------
        .byte   W96
@ 019   ----------------------------------------
        .byte   W96
@ 020   ----------------------------------------
        .byte   W96
@ 021   ----------------------------------------
        .byte   W96
@ 022   ----------------------------------------
        .byte   W96
@ 023   ----------------------------------------
        .byte   W96
@ 024   ----------------------------------------
        .byte   W96
@ 025   ----------------------------------------
        .byte   W96
@ 026   ----------------------------------------
        .byte   W96
@ 027   ----------------------------------------
        .byte   W96
@ 028   ----------------------------------------
        .byte   W96
@ 029   ----------------------------------------
        .byte   W96
@ 030   ----------------------------------------
        .byte   W96
@ 031   ----------------------------------------
        .byte   W96
@ 032   ----------------------------------------
        .byte   W96
@ 033   ----------------------------------------
        .byte   W96
@ 034   ----------------------------------------
        .byte   W96
@ 035   ----------------------------------------
        .byte   W96
@ 036   ----------------------------------------
        .byte   W96
@ 037   ----------------------------------------
        .byte   W96
@ 038   ----------------------------------------
        .byte   W96
@ 039   ----------------------------------------
        .byte   W96
@ 040   ----------------------------------------
        .byte   W96
@ 041   ----------------------------------------
        .byte   W96
@ 042   ----------------------------------------
        .byte   W96
@ 043   ----------------------------------------
        .byte   W96
@ 044   ----------------------------------------
        .byte   W96
@ 045   ----------------------------------------
        .byte   W96
@ 046   ----------------------------------------
        .byte   W96
@ 047   ----------------------------------------
        .byte   W96
@ 048   ----------------------------------------
        .byte   W96
@ 049   ----------------------------------------
        .byte   W96
@ 050   ----------------------------------------
        .byte   W96
@ 051   ----------------------------------------
        .byte   W96
@ 052   ----------------------------------------
        .byte   W96
@ 053   ----------------------------------------
        .byte   W96
@ 054   ----------------------------------------
        .byte   W96
@ 055   ----------------------------------------
        .byte   W96
@ 056   ----------------------------------------
        .byte   W96
@ 057   ----------------------------------------
        .byte   W96
@ 058   ----------------------------------------
        .byte   W96
@ 059   ----------------------------------------
        .byte   W96
@ 060   ----------------------------------------
        .byte   W96
@ 061   ----------------------------------------
        .byte   W96
@ 062   ----------------------------------------
        .byte   W96
@ 063   ----------------------------------------
        .byte   W96
@ 064   ----------------------------------------
        .byte   W96
@ 065   ----------------------------------------
        .byte   W96
@ 066   ----------------------------------------
        .byte   W96
@ 067   ----------------------------------------
        .byte   W96
@ 068   ----------------------------------------
        .byte   W96
@ 069   ----------------------------------------
        .byte   W96
@ 070   ----------------------------------------
        .byte   W96
@ 071   ----------------------------------------
        .byte   W96
@ 072   ----------------------------------------
        .byte   W96
@ 073   ----------------------------------------
        .byte   W96
@ 074   ----------------------------------------
        .byte   W96
@ 075   ----------------------------------------
        .byte   W96
@ 076   ----------------------------------------
        .byte   W96
@ 077   ----------------------------------------
        .byte   W96
@ 078   ----------------------------------------
        .byte   W96
@ 079   ----------------------------------------
        .byte   W96
@ 080   ----------------------------------------
        .byte   W96
@ 081   ----------------------------------------
        .byte   W96
@ 082   ----------------------------------------
        .byte   GOTO
        .word	mus_dbz_hikari_no_willpower_1_10
        .byte   FINE

@****************** Track 2 (Midi-Chn.3) ******************@

mus_dbz_hikari_no_willpower_2:
        .byte   KEYSH , mus_dbz_hikari_no_willpower_key+0
@ 000   ----------------------------------------
        .byte           VOICE , 52
        .byte           VOL   , 90
@ 001   ----------------------------------------
        .byte   W36
@ 002   ----------------------------------------
mus_dbz_hikari_no_willpower_2_2:
        .byte           N92   , Bn2 , v070 , gtp3
        .byte                   Dn3
        .byte           N92   , Fs3 , v070 , gtp3
        .byte   W96
        .byte   PEND
@ 003   ----------------------------------------
mus_dbz_hikari_no_willpower_2_3:
        .byte           N92   , Bn2 , v070 , gtp3
        .byte                   Dn3
        .byte           N92   , Gn3 , v070 , gtp3
        .byte   W96
        .byte   PEND
@ 004   ----------------------------------------
mus_dbz_hikari_no_willpower_2_4:
        .byte           N92   , Cs3 , v070 , gtp3
        .byte                   En3
        .byte           N92   , An3 , v070 , gtp3
        .byte   W96
        .byte   PEND
@ 005   ----------------------------------------
        .byte           N32   , An2 , v070 , gtp3
        .byte                   Dn3
        .byte           N32   , Gn3 , v070 , gtp3
        .byte   W36
        .byte           N28   , An2 , v070 , gtp1
        .byte                   Dn3
        .byte           N28   , Fs3 , v070 , gtp1
        .byte   W36
        .byte           N23   , As2
        .byte           N23   , Cs3
        .byte           N23   , En3
        .byte   W24
@ 006   ----------------------------------------
        .byte   PATT
         .word  mus_dbz_hikari_no_willpower_2_2
@ 007   ----------------------------------------
        .byte   PATT
         .word  mus_dbz_hikari_no_willpower_2_3
@ 008   ----------------------------------------
        .byte   PATT
         .word  mus_dbz_hikari_no_willpower_2_4
@ 009   ----------------------------------------
        .byte           N92   , An2 , v070 , gtp3
        .byte                   Cs3
        .byte           N92   , Fs3 , v070 , gtp3
        .byte   W96
@ 010   ----------------------------------------
mus_dbz_hikari_no_willpower_2_10:
        .byte   W96
@ 011   ----------------------------------------
        .byte   W96
@ 012   ----------------------------------------
        .byte   W96
@ 013   ----------------------------------------
        .byte   W96
@ 014   ----------------------------------------
        .byte   W96
@ 015   ----------------------------------------
        .byte   W96
@ 016   ----------------------------------------
        .byte   W96
@ 017   ----------------------------------------
        .byte   W96
@ 018   ----------------------------------------
        .byte   W96
@ 019   ----------------------------------------
        .byte   W96
@ 020   ----------------------------------------
        .byte   W96
@ 021   ----------------------------------------
        .byte   W96
@ 022   ----------------------------------------
        .byte   W96
@ 023   ----------------------------------------
        .byte   W96
@ 024   ----------------------------------------
        .byte   W96
@ 025   ----------------------------------------
        .byte   W96
@ 026   ----------------------------------------
        .byte   W96
@ 027   ----------------------------------------
        .byte   W96
@ 028   ----------------------------------------
        .byte   W96
@ 029   ----------------------------------------
        .byte   W96
@ 030   ----------------------------------------
        .byte   W96
@ 031   ----------------------------------------
        .byte   W96
@ 032   ----------------------------------------
        .byte   W96
@ 033   ----------------------------------------
        .byte   W96
@ 034   ----------------------------------------
        .byte   W96
@ 035   ----------------------------------------
        .byte   W96
@ 036   ----------------------------------------
        .byte   W96
@ 037   ----------------------------------------
        .byte   W96
@ 038   ----------------------------------------
        .byte   W96
@ 039   ----------------------------------------
        .byte   W96
@ 040   ----------------------------------------
        .byte   W96
@ 041   ----------------------------------------
        .byte   W96
@ 042   ----------------------------------------
        .byte   W96
@ 043   ----------------------------------------
        .byte   W96
@ 044   ----------------------------------------
        .byte   W96
@ 045   ----------------------------------------
        .byte   W96
@ 046   ----------------------------------------
        .byte   W96
@ 047   ----------------------------------------
        .byte   W96
@ 048   ----------------------------------------
        .byte   W96
@ 049   ----------------------------------------
        .byte   W96
@ 050   ----------------------------------------
        .byte   W96
@ 051   ----------------------------------------
        .byte   W96
@ 052   ----------------------------------------
        .byte   W96
@ 053   ----------------------------------------
        .byte   W96
@ 054   ----------------------------------------
        .byte   W96
@ 055   ----------------------------------------
        .byte   W96
@ 056   ----------------------------------------
        .byte   W96
@ 057   ----------------------------------------
        .byte   W96
@ 058   ----------------------------------------
        .byte   W96
@ 059   ----------------------------------------
        .byte   W96
@ 060   ----------------------------------------
        .byte   W96
@ 061   ----------------------------------------
        .byte   W96
@ 062   ----------------------------------------
        .byte   W96
@ 063   ----------------------------------------
        .byte   W96
@ 064   ----------------------------------------
        .byte   W96
@ 065   ----------------------------------------
        .byte   W96
@ 066   ----------------------------------------
        .byte   W96
@ 067   ----------------------------------------
        .byte   W96
@ 068   ----------------------------------------
        .byte   W96
@ 069   ----------------------------------------
        .byte   W96
@ 070   ----------------------------------------
        .byte   W96
@ 071   ----------------------------------------
        .byte   W96
@ 072   ----------------------------------------
        .byte   W96
@ 073   ----------------------------------------
        .byte   W96
@ 074   ----------------------------------------
        .byte   W96
@ 075   ----------------------------------------
        .byte   W96
@ 076   ----------------------------------------
        .byte   W96
@ 077   ----------------------------------------
        .byte   W96
@ 078   ----------------------------------------
        .byte   W96
@ 079   ----------------------------------------
        .byte   W96
@ 080   ----------------------------------------
        .byte   W96
@ 081   ----------------------------------------
        .byte   W96
@ 082   ----------------------------------------
        .byte   GOTO
        .word	mus_dbz_hikari_no_willpower_2_10
        .byte   FINE

@****************** Track 3 (Midi-Chn.4) ******************@

mus_dbz_hikari_no_willpower_3:
        .byte   KEYSH , mus_dbz_hikari_no_willpower_key+0
@ 000   ----------------------------------------
        .byte           VOICE , 44
        .byte           VOL   , 100
@ 001   ----------------------------------------
        .byte   W36
@ 002   ----------------------------------------
        .byte   W96
@ 003   ----------------------------------------
        .byte   W96
@ 004   ----------------------------------------
        .byte   W96
@ 005   ----------------------------------------
        .byte   W96
@ 006   ----------------------------------------
        .byte   W96
@ 007   ----------------------------------------
        .byte   W96
@ 008   ----------------------------------------
        .byte   W96
@ 009   ----------------------------------------
        .byte   W96
@ 010   ----------------------------------------
mus_dbz_hikari_no_willpower_3_10:
        .byte   W96
@ 011   ----------------------------------------
        .byte   W48
        .byte           N08   , Cn4 , v100
        .byte           N08   , Fn4
        .byte   W18
        .byte           N11   , Bn3
        .byte           N11   , En4
        .byte   W18
        .byte           N05   , An3
        .byte           N05   , Dn4
        .byte   W12
@ 012   ----------------------------------------
        .byte   W96
@ 013   ----------------------------------------
        .byte   W48
        .byte           N08   , An3
        .byte           N08   , Dn4
        .byte   W18
        .byte           N11   , Bn3
        .byte           N11   , En4
        .byte   W18
        .byte           N05   , En3
        .byte           N05   , An3
        .byte   W12
@ 014   ----------------------------------------
        .byte   W96
@ 015   ----------------------------------------
        .byte   W48
        .byte           N08   , Cn4
        .byte           N08   , Fn4
        .byte   W18
        .byte           N17   , Bn3
        .byte           N17   , En4
        .byte   W18
        .byte           N11   , An3
        .byte           N11   , Dn4
        .byte   W12
@ 016   ----------------------------------------
        .byte   W96
@ 017   ----------------------------------------
mus_dbz_hikari_no_willpower_3_17:
        .byte   W48
        .byte           N17   , An3 , v100
        .byte           N17   , Dn4
        .byte   W18
        .byte                   Bn3
        .byte           N17   , En4
        .byte   W18
        .byte           N11   , En3
        .byte           N11   , An3
        .byte   W12
        .byte   PEND
@ 018   ----------------------------------------
        .byte   W96
@ 019   ----------------------------------------
        .byte   W96
@ 020   ----------------------------------------
        .byte   W96
@ 021   ----------------------------------------
        .byte   W96
@ 022   ----------------------------------------
        .byte   W96
@ 023   ----------------------------------------
        .byte   W96
@ 024   ----------------------------------------
        .byte   W96
@ 025   ----------------------------------------
        .byte   W96
@ 026   ----------------------------------------
        .byte   W96
@ 027   ----------------------------------------
        .byte   W96
@ 028   ----------------------------------------
        .byte   W96
@ 029   ----------------------------------------
        .byte   W96
@ 030   ----------------------------------------
        .byte   W96
@ 031   ----------------------------------------
        .byte   W96
@ 032   ----------------------------------------
        .byte   W96
@ 033   ----------------------------------------
        .byte   W96
@ 034   ----------------------------------------
        .byte   W96
@ 035   ----------------------------------------
        .byte   W96
@ 036   ----------------------------------------
        .byte   W96
@ 037   ----------------------------------------
        .byte   W96
@ 038   ----------------------------------------
        .byte   W96
@ 039   ----------------------------------------
        .byte   W96
@ 040   ----------------------------------------
        .byte   W96
@ 041   ----------------------------------------
        .byte   W96
@ 042   ----------------------------------------
        .byte   W96
@ 043   ----------------------------------------
        .byte   W96
@ 044   ----------------------------------------
        .byte   W96
@ 045   ----------------------------------------
        .byte   W96
@ 046   ----------------------------------------
        .byte   W96
@ 047   ----------------------------------------
        .byte   W96
@ 048   ----------------------------------------
        .byte   W96
@ 049   ----------------------------------------
        .byte   W96
@ 050   ----------------------------------------
        .byte   W96
@ 051   ----------------------------------------
        .byte   W96
@ 052   ----------------------------------------
        .byte   W96
@ 053   ----------------------------------------
        .byte   W96
@ 054   ----------------------------------------
        .byte   W96
@ 055   ----------------------------------------
        .byte   W96
@ 056   ----------------------------------------
        .byte   W96
@ 057   ----------------------------------------
        .byte   W96
@ 058   ----------------------------------------
        .byte   W96
@ 059   ----------------------------------------
        .byte   W96
@ 060   ----------------------------------------
        .byte   W96
@ 061   ----------------------------------------
        .byte   W96
@ 062   ----------------------------------------
        .byte   W96
@ 063   ----------------------------------------
        .byte   W96
@ 064   ----------------------------------------
        .byte   W96
@ 065   ----------------------------------------
        .byte   W96
@ 066   ----------------------------------------
        .byte   W96
@ 067   ----------------------------------------
        .byte   W96
@ 068   ----------------------------------------
        .byte   W96
@ 069   ----------------------------------------
        .byte   W96
@ 070   ----------------------------------------
        .byte   W96
@ 071   ----------------------------------------
        .byte   W96
@ 072   ----------------------------------------
        .byte   W96
@ 073   ----------------------------------------
        .byte   W96
@ 074   ----------------------------------------
        .byte   W96
@ 075   ----------------------------------------
        .byte   W96
@ 076   ----------------------------------------
        .byte   W96
@ 077   ----------------------------------------
        .byte   W96
@ 078   ----------------------------------------
        .byte   W96
@ 079   ----------------------------------------
        .byte   W96
@ 080   ----------------------------------------
        .byte   W96
@ 081   ----------------------------------------
        .byte   W96
@ 082   ----------------------------------------
        .byte   GOTO
        .word	mus_dbz_hikari_no_willpower_3_10
        .byte   FINE

@****************** Track 4 (Midi-Chn.5) ******************@

mus_dbz_hikari_no_willpower_4:
        .byte   KEYSH , mus_dbz_hikari_no_willpower_key+0
@ 000   ----------------------------------------
        .byte           VOICE , 4 @ 7
        .byte           VOL   , 81
@ 001   ----------------------------------------
        .byte   W36
@ 002   ----------------------------------------
        .byte   W96
@ 003   ----------------------------------------
        .byte   W96
@ 004   ----------------------------------------
        .byte   W96
@ 005   ----------------------------------------
        .byte   W96
@ 006   ----------------------------------------
        .byte   W96
@ 007   ----------------------------------------
        .byte   W96
@ 008   ----------------------------------------
        .byte   W96
@ 009   ----------------------------------------
        .byte   W96
@ 010   ----------------------------------------
mus_dbz_hikari_no_willpower_4_10:
        .byte           TIE   , Bn2 , v100
        .byte   W96
@ 011   ----------------------------------------
mus_dbz_hikari_no_willpower_4_11:
        .byte   W44
        .byte   W03
        .byte           EOT   , Bn2
        .byte   W01
        .byte           N17   , Fn3 , v100
        .byte   W18
        .byte                   En3
        .byte   W18
        .byte           N11   , Dn3
        .byte   W12
        .byte   PEND
@ 012   ----------------------------------------
        .byte           TIE   , Bn2
        .byte   W96
@ 013   ----------------------------------------
mus_dbz_hikari_no_willpower_4_13:
        .byte   W44
        .byte   W03
        .byte           EOT   , Bn2
        .byte   W01
        .byte           N17   , Dn3 , v100
        .byte   W18
        .byte                   En3
        .byte   W18
        .byte           N11   , An2
        .byte   W12
        .byte   PEND
@ 014   ----------------------------------------
        .byte           TIE   , Bn2
        .byte   W96
@ 015   ----------------------------------------
        .byte   PATT
         .word  mus_dbz_hikari_no_willpower_4_11
@ 016   ----------------------------------------
        .byte           TIE   , Bn2 , v100
        .byte   W96
@ 017   ----------------------------------------
        .byte   PATT
         .word  mus_dbz_hikari_no_willpower_4_13
@ 018   ----------------------------------------
mus_dbz_hikari_no_willpower_4_18:
        .byte   W12
        .byte           N05   , Fs3 , v100
        .byte           N05   , Bn3
        .byte   W24
        .byte                   Fs3
        .byte           N05   , Bn3
        .byte   W12
        .byte           N17   , Fs3
        .byte           N17   , Bn3
        .byte   W18
        .byte           N11   , Fs3
        .byte           N11   , Bn3
        .byte   W18
        .byte                   Fs3
        .byte           N11   , Bn3
        .byte   W12
        .byte   PEND
@ 019   ----------------------------------------
mus_dbz_hikari_no_willpower_4_19:
        .byte   W12
        .byte           N05   , Fs3 , v100
        .byte           N05   , Bn3
        .byte   W24
        .byte                   Fs3
        .byte           N05   , Bn3
        .byte   W12
        .byte           N08   , Fs3
        .byte           N08   , Bn3
        .byte   W18
        .byte           N11   , Fs3
        .byte           N11   , Bn3
        .byte   W18
        .byte                   Fs3
        .byte           N11   , Bn3
        .byte   W12
        .byte   PEND
@ 020   ----------------------------------------
mus_dbz_hikari_no_willpower_4_20:
        .byte   W12
        .byte           N05   , Dn3 , v100
        .byte           N05   , Gn3
        .byte   W24
        .byte                   Dn3
        .byte           N05   , Gn3
        .byte   W12
        .byte           N08   , Dn3
        .byte           N08   , Gn3
        .byte   W18
        .byte           N17   , Dn3
        .byte           N17   , Gn3
        .byte   W18
        .byte           N11   , Dn3
        .byte           N11   , Gn3
        .byte   W12
        .byte   PEND
@ 021   ----------------------------------------
mus_dbz_hikari_no_willpower_4_21:
        .byte   W12
        .byte           N05   , En3 , v100
        .byte           N05   , An3
        .byte   W24
        .byte                   En3
        .byte           N05   , An3
        .byte   W12
        .byte           N08   , En3
        .byte           N08   , An3
        .byte   W18
        .byte           N11   , En3
        .byte           N11   , An3
        .byte   W18
        .byte                   En3
        .byte           N11   , An3
        .byte   W12
        .byte   PEND
@ 022   ----------------------------------------
mus_dbz_hikari_no_willpower_4_22:
        .byte   W12
        .byte           N05   , Fs3 , v100
        .byte           N05   , Bn3
        .byte   W24
        .byte                   Fs3
        .byte           N05   , Bn3
        .byte   W12
        .byte           N08   , Fs3
        .byte           N08   , Bn3
        .byte   W18
        .byte           N17   , Fs3
        .byte           N17   , Bn3
        .byte   W18
        .byte           N11   , Fs3
        .byte           N11   , Bn3
        .byte   W12
        .byte   PEND
@ 023   ----------------------------------------
        .byte   PATT
         .word  mus_dbz_hikari_no_willpower_4_18
@ 024   ----------------------------------------
mus_dbz_hikari_no_willpower_4_24:
        .byte   W12
        .byte           N05   , Dn3 , v100
        .byte           N05   , Gn3
        .byte   W24
        .byte                   Dn3
        .byte           N05   , Gn3
        .byte   W12
        .byte           N08   , Dn3
        .byte           N08   , Gn3
        .byte   W18
        .byte           N11   , Dn3
        .byte           N11   , Gn3
        .byte   W18
        .byte                   Dn3
        .byte           N11   , Gn3
        .byte   W12
        .byte   PEND
@ 025   ----------------------------------------
mus_dbz_hikari_no_willpower_4_25:
        .byte   W12
        .byte           N05   , En3 , v100
        .byte           N05   , An3
        .byte   W24
        .byte                   En3
        .byte           N05   , An3
        .byte   W12
        .byte           N08   , En3
        .byte           N08   , An3
        .byte   W18
        .byte           N17   , En3
        .byte           N17   , An3
        .byte   W18
        .byte           N11   , En3
        .byte           N11   , An3
        .byte   W12
        .byte   PEND
@ 026   ----------------------------------------
mus_dbz_hikari_no_willpower_4_26:
        .byte   W12
        .byte           N05   , Dn3 , v100
        .byte           N05   , An3
        .byte   W24
        .byte                   Dn3
        .byte           N05   , An3
        .byte   W12
        .byte           N08   , Dn3
        .byte           N08   , An3
        .byte   W18
        .byte           N11   , Dn3
        .byte           N11   , An3
        .byte   W18
        .byte                   Dn3
        .byte           N11   , An3
        .byte   W12
        .byte   PEND
@ 027   ----------------------------------------
mus_dbz_hikari_no_willpower_4_27:
        .byte   W12
        .byte           N05   , En3 , v100
        .byte           N05   , Bn3
        .byte   W24
        .byte                   En3
        .byte           N05   , Bn3
        .byte   W12
        .byte           N08   , En3
        .byte           N08   , Bn3
        .byte   W18
        .byte           N17   , En3
        .byte           N17   , Bn3
        .byte   W18
        .byte           N11   , En3
        .byte           N11   , Bn3
        .byte   W12
        .byte   PEND
@ 028   ----------------------------------------
mus_dbz_hikari_no_willpower_4_28:
        .byte   W12
        .byte           N05   , Gn3 , v100
        .byte           N05   , Cn4
        .byte   W24
        .byte                   Gn3
        .byte           N05   , Cn4
        .byte   W12
        .byte           N08   , Gn3
        .byte           N08   , Cn4
        .byte   W18
        .byte           N11   , Gn3
        .byte           N11   , Cn4
        .byte   W18
        .byte                   Gn3
        .byte           N11   , Cn4
        .byte   W12
        .byte   PEND
@ 029   ----------------------------------------
        .byte   PATT
         .word  mus_dbz_hikari_no_willpower_4_19
@ 030   ----------------------------------------
mus_dbz_hikari_no_willpower_4_30:
        .byte   W12
        .byte           N05   , An3 , v100
        .byte           N05   , Dn4
        .byte   W24
        .byte                   An3
        .byte           N05   , Dn4
        .byte   W12
        .byte           N08   , An3
        .byte           N08   , Dn4
        .byte   W18
        .byte           N11   , An3
        .byte           N11   , Dn4
        .byte   W18
        .byte                   An3
        .byte           N11   , Dn4
        .byte   W12
        .byte   PEND
@ 031   ----------------------------------------
mus_dbz_hikari_no_willpower_4_31:
        .byte   W12
        .byte           N05   , Bn3 , v100
        .byte           N05   , En4
        .byte   W24
        .byte                   Bn3
        .byte           N05   , En4
        .byte   W12
        .byte           N08   , Bn3
        .byte           N08   , En4
        .byte   W18
        .byte           N11   , Bn3
        .byte           N11   , En4
        .byte   W18
        .byte                   Bn3
        .byte           N11   , En4
        .byte   W12
        .byte   PEND
@ 032   ----------------------------------------
mus_dbz_hikari_no_willpower_4_32:
        .byte   W12
        .byte           N05   , Bn3 , v100
        .byte           N05   , Cs4
        .byte           N05   , Fs4
        .byte   W24
        .byte                   Bn3
        .byte           N05   , Cs4
        .byte           N05   , Fs4
        .byte   W12
        .byte           N08   , Bn3
        .byte           N08   , Cs4
        .byte           N08   , Fs4
        .byte   W18
        .byte           N17   , Bn3
        .byte           N17   , Cs4
        .byte           N17   , Fs4
        .byte   W18
        .byte           N11   , Bn3
        .byte           N11   , Cs4
        .byte           N11   , Fs4
        .byte   W12
        .byte   PEND
@ 033   ----------------------------------------
mus_dbz_hikari_no_willpower_4_33:
        .byte   W12
        .byte           N05   , As3 , v100
        .byte           N05   , Cs4
        .byte           N05   , Fs4
        .byte   W24
        .byte                   As3
        .byte           N05   , Cs4
        .byte           N05   , Fs4
        .byte   W12
        .byte           N08   , As3
        .byte           N08   , Cs4
        .byte           N08   , Fs4
        .byte   W18
        .byte           N11   , As3
        .byte           N11   , Cs4
        .byte           N11   , Fs4
        .byte   W18
        .byte                   As3
        .byte           N11   , Cs4
        .byte           N11   , Fs4
        .byte   W12
        .byte   PEND
@ 034   ----------------------------------------
        .byte   PATT
         .word  mus_dbz_hikari_no_willpower_4_18
@ 035   ----------------------------------------
        .byte   PATT
         .word  mus_dbz_hikari_no_willpower_4_19
@ 036   ----------------------------------------
        .byte   PATT
         .word  mus_dbz_hikari_no_willpower_4_20
@ 037   ----------------------------------------
        .byte   PATT
         .word  mus_dbz_hikari_no_willpower_4_21
@ 038   ----------------------------------------
        .byte   PATT
         .word  mus_dbz_hikari_no_willpower_4_22
@ 039   ----------------------------------------
        .byte   PATT
         .word  mus_dbz_hikari_no_willpower_4_18
@ 040   ----------------------------------------
        .byte   PATT
         .word  mus_dbz_hikari_no_willpower_4_24
@ 041   ----------------------------------------
        .byte   PATT
         .word  mus_dbz_hikari_no_willpower_4_25
@ 042   ----------------------------------------
        .byte   PATT
         .word  mus_dbz_hikari_no_willpower_4_26
@ 043   ----------------------------------------
        .byte   PATT
         .word  mus_dbz_hikari_no_willpower_4_27
@ 044   ----------------------------------------
        .byte   PATT
         .word  mus_dbz_hikari_no_willpower_4_28
@ 045   ----------------------------------------
        .byte   PATT
         .word  mus_dbz_hikari_no_willpower_4_19
@ 046   ----------------------------------------
        .byte   PATT
         .word  mus_dbz_hikari_no_willpower_4_30
@ 047   ----------------------------------------
        .byte   PATT
         .word  mus_dbz_hikari_no_willpower_4_31
@ 048   ----------------------------------------
        .byte   PATT
         .word  mus_dbz_hikari_no_willpower_4_32
@ 049   ----------------------------------------
        .byte   PATT
         .word  mus_dbz_hikari_no_willpower_4_33
@ 050   ----------------------------------------
mus_dbz_hikari_no_willpower_4_50:
        .byte   W12
        .byte           N05   , Cs4 , v110
        .byte           N05   , Gs4
        .byte   W24
        .byte                   Cs4
        .byte           N05   , Gs4
        .byte   W12
        .byte           N08   , Cs4
        .byte           N08   , Gs4
        .byte   W18
        .byte           N05   , Cs4
        .byte           N05   , Gs4
        .byte   W18
        .byte                   Cs4
        .byte           N05   , Gs4
        .byte   W12
        .byte   PEND
@ 051   ----------------------------------------
        .byte   PATT
         .word  mus_dbz_hikari_no_willpower_4_50
@ 052   ----------------------------------------
mus_dbz_hikari_no_willpower_4_52:
        .byte   W12
        .byte           N05   , Bn3 , v110
        .byte           N05   , Fs4
        .byte   W24
        .byte                   Bn3
        .byte           N05   , Fs4
        .byte   W12
        .byte           N08   , Bn3
        .byte           N08   , Fs4
        .byte   W18
        .byte           N05   , Bn3
        .byte           N05   , Fs4
        .byte   W18
        .byte                   Bn3
        .byte           N05   , Fs4
        .byte   W12
        .byte   PEND
@ 053   ----------------------------------------
        .byte   PATT
         .word  mus_dbz_hikari_no_willpower_4_52
@ 054   ----------------------------------------
        .byte   PATT
         .word  mus_dbz_hikari_no_willpower_4_50
@ 055   ----------------------------------------
        .byte   PATT
         .word  mus_dbz_hikari_no_willpower_4_50
@ 056   ----------------------------------------
mus_dbz_hikari_no_willpower_4_56:
        .byte   W12
        .byte           N05   , Bn3 , v110
        .byte           N05   , Fs4
        .byte   W24
        .byte                   Bn3
        .byte           N05   , Fs4
        .byte   W12
        .byte           N17   , Bn3
        .byte           N17   , Fs4
        .byte   W18
        .byte           N05   , Bn3
        .byte           N05   , Fs4
        .byte   W18
        .byte                   Bn3
        .byte           N05   , Fs4
        .byte   W12
        .byte   PEND
@ 057   ----------------------------------------
mus_dbz_hikari_no_willpower_4_57:
        .byte   W12
        .byte           N05   , Bn3 , v110
        .byte           N05   , Fs4
        .byte   W12
        .byte                   Bn3
        .byte           N05   , Fs4
        .byte   W12
        .byte                   Bn3
        .byte           N05   , Fs4
        .byte   W60
        .byte   PEND
@ 058   ----------------------------------------
        .byte   PATT
         .word  mus_dbz_hikari_no_willpower_4_50
@ 059   ----------------------------------------
        .byte   PATT
         .word  mus_dbz_hikari_no_willpower_4_50
@ 060   ----------------------------------------
        .byte   PATT
         .word  mus_dbz_hikari_no_willpower_4_52
@ 061   ----------------------------------------
        .byte   PATT
         .word  mus_dbz_hikari_no_willpower_4_52
@ 062   ----------------------------------------
        .byte   PATT
         .word  mus_dbz_hikari_no_willpower_4_50
@ 063   ----------------------------------------
        .byte   PATT
         .word  mus_dbz_hikari_no_willpower_4_50
@ 064   ----------------------------------------
        .byte   PATT
         .word  mus_dbz_hikari_no_willpower_4_56
@ 065   ----------------------------------------
        .byte   PATT
         .word  mus_dbz_hikari_no_willpower_4_57
@ 066   ----------------------------------------
        .byte   PATT
         .word  mus_dbz_hikari_no_willpower_4_50
@ 067   ----------------------------------------
        .byte   PATT
         .word  mus_dbz_hikari_no_willpower_4_56
@ 068   ----------------------------------------
        .byte   PATT
         .word  mus_dbz_hikari_no_willpower_4_50
@ 069   ----------------------------------------
        .byte   W96
@ 070   ----------------------------------------
        .byte   W96
@ 071   ----------------------------------------
        .byte   W96
@ 072   ----------------------------------------
        .byte   W96
@ 073   ----------------------------------------
        .byte   W96
@ 074   ----------------------------------------
        .byte   W96
@ 075   ----------------------------------------
        .byte   W96
@ 076   ----------------------------------------
        .byte   W96
@ 077   ----------------------------------------
        .byte   W96
@ 078   ----------------------------------------
        .byte   W96
@ 079   ----------------------------------------
        .byte   W96
@ 080   ----------------------------------------
        .byte   W96
@ 081   ----------------------------------------
        .byte   W96
@ 082   ----------------------------------------
        .byte   GOTO
        .word	mus_dbz_hikari_no_willpower_4_10
        .byte   FINE

@****************** Track 5 (Midi-Chn.6) ******************@

mus_dbz_hikari_no_willpower_5:
        .byte   KEYSH , mus_dbz_hikari_no_willpower_key+0
@ 000   ----------------------------------------
        .byte           VOICE , 38
        .byte           VOL   , 100
@ 001   ----------------------------------------
        .byte   W36
@ 002   ----------------------------------------
        .byte   W96
@ 003   ----------------------------------------
        .byte   W96
@ 004   ----------------------------------------
        .byte   W96
@ 005   ----------------------------------------
        .byte   W96
@ 006   ----------------------------------------
        .byte   W96
@ 007   ----------------------------------------
        .byte   W96
@ 008   ----------------------------------------
        .byte   W96
@ 009   ----------------------------------------
        .byte   W96
@ 010   ----------------------------------------
mus_dbz_hikari_no_willpower_5_10:
        .byte   W12
        .byte           N05   , Bn3 , v127
        .byte           N05   , Fs4
        .byte   W24
        .byte                   Bn3
        .byte           N05   , Fs4
        .byte   W12
        .byte           N08   , Bn3
        .byte           N08   , Fs4
        .byte   W18
        .byte           N05   , Bn3
        .byte           N05   , Fs4
        .byte   W18
        .byte                   Bn3
        .byte           N05   , Fs4
        .byte   W12
        .byte   PEND
@ 011   ----------------------------------------
mus_dbz_hikari_no_willpower_5_11:
        .byte   W12
        .byte           N05   , Bn3 , v127
        .byte           N05   , Fs4
        .byte   W24
        .byte                   Bn3
        .byte           N05   , Fs4
        .byte   W60
        .byte   PEND
@ 012   ----------------------------------------
        .byte   PATT
         .word  mus_dbz_hikari_no_willpower_5_10
@ 013   ----------------------------------------
        .byte   PATT
         .word  mus_dbz_hikari_no_willpower_5_11
@ 014   ----------------------------------------
        .byte   PATT
         .word  mus_dbz_hikari_no_willpower_5_10
@ 015   ----------------------------------------
        .byte   PATT
         .word  mus_dbz_hikari_no_willpower_5_11
@ 016   ----------------------------------------
mus_dbz_hikari_no_willpower_5_16:
        .byte   W12
        .byte           N05   , Bn3 , v127
        .byte           N05   , Fs4
        .byte   W24
        .byte                   Bn3
        .byte           N05   , Fs4
        .byte   W12
        .byte           N17   , Bn3
        .byte           N17   , Fs4
        .byte   W18
        .byte           N05   , Bn3
        .byte           N05   , Fs4
        .byte   W18
        .byte                   Bn3
        .byte           N05   , Fs4
        .byte   W12
        .byte   PEND
@ 017   ----------------------------------------
        .byte   PATT
         .word  mus_dbz_hikari_no_willpower_5_11
@ 018   ----------------------------------------
        .byte   W96
@ 019   ----------------------------------------
        .byte   W96
@ 020   ----------------------------------------
        .byte   W96
@ 021   ----------------------------------------
        .byte   W96
@ 022   ----------------------------------------
        .byte   W96
@ 023   ----------------------------------------
        .byte   W96
@ 024   ----------------------------------------
        .byte   W96
@ 025   ----------------------------------------
        .byte   W96
@ 026   ----------------------------------------
        .byte           N03   , Gn1 , v127
        .byte   W01
        .byte           N02   , An1
        .byte   W02
        .byte                   Gn1
        .byte           N03   , An1
        .byte           N07   , Bn1
        .byte   W02
        .byte           N05   , Cs2
        .byte   W01
        .byte           N04   , Dn2
        .byte   W02
        .byte           N02   , En2
        .byte   W02
        .byte                   Dn2
        .byte           N03   , En2
        .byte           N05   , Fs2
        .byte   W02
        .byte           N03   , Gn2
        .byte   W01
        .byte           N02   , An2
        .byte   W02
        .byte           N04   , Bn2
        .byte           N02   , Gn2
        .byte           N03   , An2
        .byte           N05   , Cs3
        .byte   W02
        .byte                   Dn3
        .byte   W02
        .byte           N03   , En3
        .byte   W01
        .byte           N02   , Fs3
        .byte   W02
        .byte                   En3
        .byte           N24   , Fs3 , v127 , gtp2
        .byte                   Gn3
        .byte   W02
        .byte           N11   , An3
        .byte           N11   , Fs4
        .byte           N11   , An4
        .byte           N11   , Dn5
        .byte   W72
@ 027   ----------------------------------------
        .byte   W90
        .byte           N05   , Dn1
        .byte           N05   , En1
        .byte   W03
        .byte           N02   , Fs1
        .byte   W03
@ 028   ----------------------------------------
        .byte                   Gn1
        .byte           N03   , Bn1
        .byte   W01
        .byte           N02   , Cs2
        .byte   W02
        .byte           N04   , An1
        .byte           N02   , Bn1
        .byte           N03   , Cs2
        .byte           N05   , Dn2
        .byte   W02
        .byte                   En2
        .byte   W01
        .byte           N04   , Fs2
        .byte   W02
        .byte           N02   , Gn2
        .byte   W02
        .byte           N03   , Fs2
        .byte           N03   , Gn2
        .byte           N03   , An2
        .byte   W02
        .byte           N01   , Cs3
        .byte   W01
        .byte           N02   , Bn2
        .byte   W01
        .byte           N05   , En3
        .byte   W01
        .byte           N02   , Dn3
        .byte   W01
        .byte           N03   , Fs3
        .byte   W01
        .byte           N05   , Gn3
        .byte   W03
        .byte           N03   , An3
        .byte   W02
        .byte           N02   , Bn3
        .byte   W02
        .byte           N23   , Gn4
        .byte           N23   , Cn5
        .byte           N23   , En5
        .byte   W72
@ 029   ----------------------------------------
mus_dbz_hikari_no_willpower_5_29:
        .byte   W92
        .byte   W01
        .byte           N02   , Dn1 , v127
        .byte           N02   , En1
        .byte   W03
        .byte   PEND
@ 030   ----------------------------------------
        .byte                   Gn1
        .byte           N05   , Fs1
        .byte   W02
        .byte           N02   , An1
        .byte   W02
        .byte           N03   , Bn1
        .byte   W03
        .byte           N02   , Cs2
        .byte   W02
        .byte           N05   , En2
        .byte           N02   , Dn2
        .byte   W03
        .byte           N01   , Gn2
        .byte   W02
        .byte                   An2
        .byte           N01   , Fs2
        .byte   W02
        .byte                   Cs3
        .byte           N03   , Bn2
        .byte   W02
        .byte           N01   , Dn3
        .byte   W01
        .byte           N04   , En3
        .byte   W01
        .byte           N24   , Fs3 , v127 , gtp3
        .byte   W02
        .byte           N24   , Gn3 , v127 , gtp1
        .byte   W02
        .byte           N11   , An3
        .byte           N11   , Fs4
        .byte           N11   , An4
        .byte           N11   , Dn5
        .byte   W72
@ 031   ----------------------------------------
        .byte   W96
@ 032   ----------------------------------------
        .byte   W96
@ 033   ----------------------------------------
        .byte   W96
@ 034   ----------------------------------------
        .byte   W96
@ 035   ----------------------------------------
        .byte   W96
@ 036   ----------------------------------------
        .byte   W96
@ 037   ----------------------------------------
        .byte   W96
@ 038   ----------------------------------------
        .byte   W96
@ 039   ----------------------------------------
        .byte   W96
@ 040   ----------------------------------------
        .byte   W96
@ 041   ----------------------------------------
        .byte   W96
@ 042   ----------------------------------------
        .byte           N03   , Gn1
        .byte   W01
        .byte           N02   , An1
        .byte   W02
        .byte                   Gn1
        .byte           N03   , An1
        .byte           N05   , Bn1
        .byte   W02
        .byte                   Cs2
        .byte   W01
        .byte           N04   , Dn2
        .byte   W02
        .byte           N02   , En2
        .byte   W02
        .byte                   Dn2
        .byte           N03   , En2
        .byte           N05   , Fs2
        .byte   W02
        .byte           N03   , Gn2
        .byte   W01
        .byte           N02   , An2
        .byte   W02
        .byte                   Gn2
        .byte           N03   , An2
        .byte           N02   , Bn2
        .byte   W02
        .byte           N01   , Cs3
        .byte   W02
        .byte                   Dn3
        .byte   W01
        .byte           N02   , En3
        .byte   W02
        .byte                   En3
        .byte           N24   , Fs3 , v127 , gtp2
        .byte   W01
        .byte           N24   , Gn3 , v127 , gtp1
        .byte   W01
        .byte           N11   , An3
        .byte           N11   , Fs4
        .byte           N11   , An4
        .byte           N11   , Dn5
        .byte   W72
@ 043   ----------------------------------------
        .byte   W90
        .byte           N05   , Dn1
        .byte           N05   , En1
        .byte   W02
        .byte           N03   , Fs1
        .byte   W04
@ 044   ----------------------------------------
        .byte           N02   , Gn1
        .byte           N05   , Bn1
        .byte   W02
        .byte                   Cs2
        .byte   W01
        .byte           N01   , An1
        .byte   W01
        .byte                   Dn2
        .byte   W02
        .byte           N05   , Fs2
        .byte           N01   , En2
        .byte   W02
        .byte           N03   , Gn2
        .byte   W01
        .byte           N05   , An2
        .byte   W01
        .byte           N13   , Bn2
        .byte   W02
        .byte           N03   , Cs3
        .byte           N03   , Dn3
        .byte   W02
        .byte           N01   , En3
        .byte   W01
        .byte           N02   , Cs3
        .byte           N03   , Dn3
        .byte           N03   , En3
        .byte           N05   , Fs3
        .byte   W02
        .byte           N04   , Gn3
        .byte   W01
        .byte           N03   , An3
        .byte   W03
        .byte           N01   , Gn3
        .byte           N03   , An3
        .byte           N03   , Bn3
        .byte   W03
        .byte           N24   , Gn4
        .byte           N24   , Cn5
        .byte           N24   , En5
        .byte   W72
@ 045   ----------------------------------------
        .byte   PATT
         .word  mus_dbz_hikari_no_willpower_5_29
@ 046   ----------------------------------------
        .byte           N03   , An1 , v127
        .byte           N11   , Fs1
        .byte           N05   , Gn1
        .byte   W01
        .byte           N02   , Bn1
        .byte   W02
        .byte           N03   , An1
        .byte           N05   , Bn1
        .byte           N07   , Cs2
        .byte   W02
        .byte           N05   , Dn2
        .byte   W01
        .byte           N04   , En2
        .byte   W02
        .byte           N02   , Fs2
        .byte   W02
        .byte                   Dn2
        .byte           N03   , En2
        .byte           N05   , Fs2
        .byte           N05   , Gn2
        .byte   W02
        .byte           N03   , An2
        .byte   W01
        .byte           N02   , Bn2
        .byte   W02
        .byte           N03   , An2
        .byte           N03   , Bn2
        .byte           N05   , Cs3
        .byte   W02
        .byte                   Dn3
        .byte   W02
        .byte           N03   , En3
        .byte   W01
        .byte           N02   , Fs3
        .byte   W02
        .byte                   En3
        .byte           N02   , Fs3
        .byte           N24   , Gn3 , v127 , gtp2
        .byte   W02
        .byte           N11   , An3
        .byte           N11   , Fs4
        .byte           N11   , An4
        .byte           N11   , Dn5
        .byte   W72
@ 047   ----------------------------------------
        .byte   W96
@ 048   ----------------------------------------
        .byte   W96
@ 049   ----------------------------------------
        .byte   W96
@ 050   ----------------------------------------
mus_dbz_hikari_no_willpower_5_50:
        .byte   W12
        .byte           N05   , Cs4 , v127
        .byte           N05   , Gs4
        .byte   W24
        .byte                   Cs4
        .byte           N05   , Gs4
        .byte   W12
        .byte           N08   , Cs4
        .byte           N08   , Gs4
        .byte   W18
        .byte           N05   , Cs4
        .byte           N05   , Gs4
        .byte   W18
        .byte                   Cs4
        .byte           N05   , Gs4
        .byte   W12
        .byte   PEND
@ 051   ----------------------------------------
        .byte   PATT
         .word  mus_dbz_hikari_no_willpower_5_50
@ 052   ----------------------------------------
        .byte   PATT
         .word  mus_dbz_hikari_no_willpower_5_10
@ 053   ----------------------------------------
        .byte   PATT
         .word  mus_dbz_hikari_no_willpower_5_10
@ 054   ----------------------------------------
        .byte   PATT
         .word  mus_dbz_hikari_no_willpower_5_50
@ 055   ----------------------------------------
        .byte   PATT
         .word  mus_dbz_hikari_no_willpower_5_50
@ 056   ----------------------------------------
        .byte   PATT
         .word  mus_dbz_hikari_no_willpower_5_16
@ 057   ----------------------------------------
mus_dbz_hikari_no_willpower_5_57:
        .byte   W12
        .byte           N05   , Bn3 , v127
        .byte           N05   , Fs4
        .byte   W12
        .byte                   Bn3
        .byte           N05   , Fs4
        .byte   W12
        .byte                   Bn3
        .byte           N05   , Fs4
        .byte   W60
        .byte   PEND
@ 058   ----------------------------------------
        .byte   PATT
         .word  mus_dbz_hikari_no_willpower_5_50
@ 059   ----------------------------------------
        .byte   PATT
         .word  mus_dbz_hikari_no_willpower_5_50
@ 060   ----------------------------------------
        .byte   PATT
         .word  mus_dbz_hikari_no_willpower_5_10
@ 061   ----------------------------------------
        .byte   PATT
         .word  mus_dbz_hikari_no_willpower_5_10
@ 062   ----------------------------------------
        .byte   PATT
         .word  mus_dbz_hikari_no_willpower_5_50
@ 063   ----------------------------------------
        .byte   PATT
         .word  mus_dbz_hikari_no_willpower_5_50
@ 064   ----------------------------------------
        .byte   PATT
         .word  mus_dbz_hikari_no_willpower_5_16
@ 065   ----------------------------------------
        .byte   PATT
         .word  mus_dbz_hikari_no_willpower_5_57
@ 066   ----------------------------------------
        .byte   PATT
         .word  mus_dbz_hikari_no_willpower_5_50
@ 067   ----------------------------------------
        .byte   PATT
         .word  mus_dbz_hikari_no_willpower_5_16
@ 068   ----------------------------------------
        .byte   PATT
         .word  mus_dbz_hikari_no_willpower_5_50
@ 069   ----------------------------------------
        .byte   W12
        .byte           N05   , Cn4 , v127
        .byte           N05   , Ds4
        .byte           N05   , Gs4
        .byte   W12
        .byte                   Cn4
        .byte           N05   , Ds4 , v100
        .byte           N05   , Gs4 , v127
        .byte   W12
        .byte           N11   , Cn4
        .byte           N11   , Ds4
        .byte           N11   , Gs4
        .byte   W60
@ 070   ----------------------------------------
        .byte   W96
@ 071   ----------------------------------------
        .byte   W96
@ 072   ----------------------------------------
        .byte   W96
@ 073   ----------------------------------------
        .byte   W96
@ 074   ----------------------------------------
        .byte   W96
@ 075   ----------------------------------------
        .byte   W96
@ 076   ----------------------------------------
        .byte   W96
@ 077   ----------------------------------------
        .byte   W96
@ 078   ----------------------------------------
        .byte   W96
@ 079   ----------------------------------------
        .byte   W96
@ 080   ----------------------------------------
        .byte   W96
@ 081   ----------------------------------------
        .byte   W96
@ 082   ----------------------------------------
        .byte   GOTO
        .word	mus_dbz_hikari_no_willpower_5_10
        .byte   FINE

@****************** Track 6 (Midi-Chn.7) ******************@

mus_dbz_hikari_no_willpower_6:
        .byte   KEYSH , mus_dbz_hikari_no_willpower_key+0
@ 000   ----------------------------------------
        .byte           VOICE , 1
        .byte           VOL   , 108
@ 001   ----------------------------------------
        .byte           N11   , Bn3 , v120
        .byte   W12
        .byte                   Cs4
        .byte   W12
        .byte           N22   , Dn4
        .byte   W12
@ 002   ----------------------------------------
mus_dbz_hikari_no_willpower_6_2:
        .byte   W12
        .byte           N11   , Bn3 , v120
        .byte   W12
        .byte                   Cs4
        .byte   W12
        .byte           N22   , Dn4
        .byte   W24
        .byte           N11   , Bn3
        .byte   W12
        .byte                   Cs4
        .byte   W12
        .byte           N22   , Dn4
        .byte   W12
        .byte   PEND
@ 003   ----------------------------------------
        .byte   W12
        .byte                   Dn4
        .byte   W24
        .byte                   Cs4
        .byte   W24
        .byte           N32   , Bn3 , v120 , gtp2
        .byte   W36
@ 004   ----------------------------------------
        .byte           N22   , Cs4
        .byte   W24
        .byte           N11   , An3
        .byte   W12
        .byte           N22   , En3
        .byte   W24
        .byte           N32   , An3 , v120 , gtp2
        .byte   W36
@ 005   ----------------------------------------
        .byte           N22   , Gn3
        .byte   W24
        .byte           N11   , An3
        .byte   W12
        .byte           N32   , Fs3 , v120 , gtp2
        .byte   W24
        .byte           N11   , Bn3
        .byte   W12
        .byte                   Cs4
        .byte   W12
        .byte           N22   , Dn4
        .byte   W12
@ 006   ----------------------------------------
        .byte   PATT
         .word  mus_dbz_hikari_no_willpower_6_2
@ 007   ----------------------------------------
        .byte   W12
        .byte           N22   , Dn4 , v120
        .byte   W24
        .byte                   En4
        .byte   W24
        .byte           N32   , Dn4 , v120 , gtp2
        .byte   W36
@ 008   ----------------------------------------
        .byte           N90   , Cs4 , v120 , gtp1
        .byte   W96
@ 009   ----------------------------------------
        .byte   W24
        .byte           N11   , Dn4
        .byte   W12
        .byte                   Cs4
        .byte   W12
        .byte                   An3
        .byte   W12
        .byte           N32   , Fs3 , v120 , gtp2
        .byte   W36
@ 010   ----------------------------------------
mus_dbz_hikari_no_willpower_6_10:
        .byte           N90   , Bn3 , v120 , gtp1
        .byte   W96
@ 011   ----------------------------------------
        .byte   W96
@ 012   ----------------------------------------
        .byte   W96
@ 013   ----------------------------------------
        .byte   W96
@ 014   ----------------------------------------
        .byte   W96
@ 015   ----------------------------------------
        .byte   W96
@ 016   ----------------------------------------
        .byte   W96
@ 017   ----------------------------------------
        .byte   W96
@ 018   ----------------------------------------
        .byte   W96
@ 019   ----------------------------------------
        .byte   W96
@ 020   ----------------------------------------
        .byte   W96
@ 021   ----------------------------------------
        .byte   W96
@ 022   ----------------------------------------
        .byte   W96
@ 023   ----------------------------------------
        .byte   W96
@ 024   ----------------------------------------
        .byte   W96
@ 025   ----------------------------------------
        .byte   W96
@ 026   ----------------------------------------
        .byte   W96
@ 027   ----------------------------------------
        .byte   W96
@ 028   ----------------------------------------
        .byte   W96
@ 029   ----------------------------------------
        .byte   W96
@ 030   ----------------------------------------
        .byte   W96
@ 031   ----------------------------------------
        .byte   W96
@ 032   ----------------------------------------
        .byte   W96
@ 033   ----------------------------------------
        .byte   W96
@ 034   ----------------------------------------
        .byte   W96
@ 035   ----------------------------------------
        .byte   W96
@ 036   ----------------------------------------
        .byte   W96
@ 037   ----------------------------------------
        .byte   W96
@ 038   ----------------------------------------
        .byte   W96
@ 039   ----------------------------------------
        .byte   W96
@ 040   ----------------------------------------
        .byte   W96
@ 041   ----------------------------------------
        .byte   W96
@ 042   ----------------------------------------
        .byte   W96
@ 043   ----------------------------------------
        .byte   W96
@ 044   ----------------------------------------
        .byte   W96
@ 045   ----------------------------------------
        .byte   W96
@ 046   ----------------------------------------
        .byte   W96
@ 047   ----------------------------------------
        .byte   W96
@ 048   ----------------------------------------
        .byte   W96
@ 049   ----------------------------------------
        .byte   W96
@ 050   ----------------------------------------
        .byte   W96
@ 051   ----------------------------------------
        .byte   W96
@ 052   ----------------------------------------
        .byte   W96
@ 053   ----------------------------------------
        .byte   W96
@ 054   ----------------------------------------
        .byte   W96
@ 055   ----------------------------------------
        .byte   W96
@ 056   ----------------------------------------
        .byte   W96
@ 057   ----------------------------------------
        .byte   W96
@ 058   ----------------------------------------
        .byte   W96
@ 059   ----------------------------------------
        .byte   W96
@ 060   ----------------------------------------
        .byte   W96
@ 061   ----------------------------------------
        .byte   W96
@ 062   ----------------------------------------
        .byte   W96
@ 063   ----------------------------------------
        .byte   W96
@ 064   ----------------------------------------
        .byte   W96
@ 065   ----------------------------------------
        .byte   W96
@ 066   ----------------------------------------
        .byte   W96
@ 067   ----------------------------------------
        .byte   W96
@ 068   ----------------------------------------
        .byte   W96
@ 069   ----------------------------------------
        .byte   W60
        .byte           N11   , Cs4
        .byte   W12
        .byte                   Ds4
        .byte   W12
        .byte           N22   , En4
        .byte   W12
@ 070   ----------------------------------------
mus_dbz_hikari_no_willpower_6_70:
        .byte   W12
        .byte           N11   , Cs4 , v120
        .byte   W12
        .byte                   Ds4
        .byte   W12
        .byte           N22   , En4
        .byte   W24
        .byte           N11   , Cs4
        .byte   W12
        .byte                   Ds4
        .byte   W12
        .byte           N22   , En4
        .byte   W12
        .byte   PEND
@ 071   ----------------------------------------
        .byte   W12
        .byte                   En4
        .byte   W24
        .byte                   Ds4
        .byte   W24
        .byte           N32   , Cs4 , v120 , gtp2
        .byte   W36
@ 072   ----------------------------------------
        .byte           N22   , Ds4
        .byte   W24
        .byte           N11   , Bn3
        .byte   W12
        .byte           N22   , Fs3
        .byte   W24
        .byte           N32   , Bn3 , v120 , gtp2
        .byte   W36
@ 073   ----------------------------------------
        .byte           N22   , An3
        .byte   W24
        .byte           N11   , Bn3
        .byte   W12
        .byte           N32   , Gs3 , v120 , gtp2
        .byte   W24
        .byte           N11   , Cs4
        .byte   W12
        .byte                   Ds4
        .byte   W12
        .byte           N22   , En4
        .byte   W12
@ 074   ----------------------------------------
        .byte   PATT
         .word  mus_dbz_hikari_no_willpower_6_70
@ 075   ----------------------------------------
        .byte   W12
        .byte           N22   , En4 , v120
        .byte   W24
        .byte                   Fs4
        .byte   W24
        .byte           N32   , En4 , v120 , gtp2
        .byte   W36
@ 076   ----------------------------------------
        .byte           N90   , Ds4 , v120 , gtp1
        .byte   W96
@ 077   ----------------------------------------
        .byte   W24
        .byte           N11   , En4
        .byte   W12
        .byte                   Ds4
        .byte   W12
        .byte                   Bn3
        .byte   W12
        .byte           N32   , Gs3 , v120 , gtp2
        .byte   W36
@ 078   ----------------------------------------
        .byte           N90   , Cs4 , v120 , gtp1
        .byte   W96
@ 079   ----------------------------------------
        .byte   W96
@ 080   ----------------------------------------
        .byte   W96
@ 081   ----------------------------------------
        .byte   W96
@ 082   ----------------------------------------
        .byte   GOTO
        .word	mus_dbz_hikari_no_willpower_6_10
        .byte   FINE

@****************** Track 7 (Midi-Chn.8) ******************@

mus_dbz_hikari_no_willpower_7:
        .byte   KEYSH , mus_dbz_hikari_no_willpower_key+0
@ 000   ----------------------------------------
        .byte           VOICE , 1
        .byte           VOL   , 108
@ 001   ----------------------------------------
        .byte   W36
@ 002   ----------------------------------------
mus_dbz_hikari_no_willpower_7_2:
        .byte           N90   , Bn1 , v118 , gtp1
        .byte   W12
        .byte           N78   , Fs2 , v108 , gtp1
        .byte   W84
        .byte   PEND
@ 003   ----------------------------------------
mus_dbz_hikari_no_willpower_7_3:
        .byte   W24
        .byte           N68   , An2 , v108
        .byte   W12
        .byte           N56   , Bn2
        .byte   W60
        .byte   PEND
@ 004   ----------------------------------------
mus_dbz_hikari_no_willpower_7_4:
        .byte           N90   , An1 , v118 , gtp1
        .byte   W12
        .byte           N78   , En2 , v108 , gtp1
        .byte   W84
        .byte   PEND
@ 005   ----------------------------------------
        .byte   W24
        .byte           N22
        .byte   W12
        .byte           N11   , Fs2
        .byte   W12
        .byte                   En2
        .byte   W12
        .byte                   Dn2
        .byte   W12
        .byte           N22   , As2
        .byte   W24
@ 006   ----------------------------------------
        .byte   PATT
         .word  mus_dbz_hikari_no_willpower_7_2
@ 007   ----------------------------------------
        .byte   PATT
         .word  mus_dbz_hikari_no_willpower_7_3
@ 008   ----------------------------------------
        .byte           N90   , An1 , v118 , gtp1
        .byte   W12
        .byte           N78   , En2 , v108 , gtp1
        .byte   W60
        .byte           N22   , An3
        .byte   W12
        .byte           N11   , Bn3
        .byte   W12
@ 009   ----------------------------------------
        .byte           N22   , Cs4
        .byte   W96
@ 010   ----------------------------------------
mus_dbz_hikari_no_willpower_7_10:
        .byte   W96
@ 011   ----------------------------------------
        .byte   W96
@ 012   ----------------------------------------
        .byte   W96
@ 013   ----------------------------------------
        .byte   W96
@ 014   ----------------------------------------
        .byte   W96
@ 015   ----------------------------------------
        .byte   W96
@ 016   ----------------------------------------
        .byte   W96
@ 017   ----------------------------------------
        .byte   W96
@ 018   ----------------------------------------
        .byte   W96
@ 019   ----------------------------------------
        .byte   W96
@ 020   ----------------------------------------
        .byte   W96
@ 021   ----------------------------------------
        .byte   W96
@ 022   ----------------------------------------
        .byte   W96
@ 023   ----------------------------------------
        .byte   W96
@ 024   ----------------------------------------
        .byte   W96
@ 025   ----------------------------------------
        .byte   W96
@ 026   ----------------------------------------
        .byte   W96
@ 027   ----------------------------------------
        .byte   W96
@ 028   ----------------------------------------
        .byte   W96
@ 029   ----------------------------------------
        .byte   W96
@ 030   ----------------------------------------
        .byte   W96
@ 031   ----------------------------------------
        .byte   W96
@ 032   ----------------------------------------
        .byte   W96
@ 033   ----------------------------------------
        .byte   W96
@ 034   ----------------------------------------
        .byte   W96
@ 035   ----------------------------------------
        .byte   W96
@ 036   ----------------------------------------
        .byte   W96
@ 037   ----------------------------------------
        .byte   W96
@ 038   ----------------------------------------
        .byte   W96
@ 039   ----------------------------------------
        .byte   W96
@ 040   ----------------------------------------
        .byte   W96
@ 041   ----------------------------------------
        .byte   W96
@ 042   ----------------------------------------
        .byte   W96
@ 043   ----------------------------------------
        .byte   W96
@ 044   ----------------------------------------
        .byte   W96
@ 045   ----------------------------------------
        .byte   W96
@ 046   ----------------------------------------
        .byte   W96
@ 047   ----------------------------------------
        .byte   W96
@ 048   ----------------------------------------
        .byte   W96
@ 049   ----------------------------------------
        .byte   W96
@ 050   ----------------------------------------
        .byte   W96
@ 051   ----------------------------------------
        .byte   W96
@ 052   ----------------------------------------
        .byte   W96
@ 053   ----------------------------------------
        .byte   W96
@ 054   ----------------------------------------
        .byte   W96
@ 055   ----------------------------------------
        .byte   W96
@ 056   ----------------------------------------
        .byte   W96
@ 057   ----------------------------------------
        .byte   W96
@ 058   ----------------------------------------
        .byte   W96
@ 059   ----------------------------------------
        .byte   W96
@ 060   ----------------------------------------
        .byte   W96
@ 061   ----------------------------------------
        .byte   W96
@ 062   ----------------------------------------
        .byte   W96
@ 063   ----------------------------------------
        .byte   W96
@ 064   ----------------------------------------
        .byte   W96
@ 065   ----------------------------------------
        .byte   W96
@ 066   ----------------------------------------
        .byte   W96
@ 067   ----------------------------------------
        .byte   W96
@ 068   ----------------------------------------
        .byte   W96
@ 069   ----------------------------------------
        .byte   W96
@ 070   ----------------------------------------
mus_dbz_hikari_no_willpower_7_70:
        .byte           N90   , Cs2 , v118 , gtp1
        .byte   W12
        .byte           N78   , Gs2 , v108 , gtp1
        .byte   W84
        .byte   PEND
@ 071   ----------------------------------------
        .byte   W12
        .byte                   En2
        .byte   W12
        .byte           N68   , Bn2
        .byte   W12
        .byte           N56   , Cs3
        .byte   W60
@ 072   ----------------------------------------
        .byte   PATT
         .word  mus_dbz_hikari_no_willpower_7_2
@ 073   ----------------------------------------
        .byte   W24
        .byte           N22   , Fs2 , v108
        .byte   W12
        .byte           N11   , Gs2
        .byte   W12
        .byte                   Fs2
        .byte   W12
        .byte                   En2
        .byte   W12
        .byte           N22   , Cn3
        .byte   W24
@ 074   ----------------------------------------
        .byte   PATT
         .word  mus_dbz_hikari_no_willpower_7_70
@ 075   ----------------------------------------
        .byte   W24
        .byte           N68   , Bn2 , v108
        .byte   W12
        .byte           N56   , Cs3
        .byte   W60
@ 076   ----------------------------------------
        .byte           N90   , Bn1 , v118 , gtp1
        .byte   W12
        .byte           N78   , Fs2 , v108 , gtp1
        .byte   W60
        .byte           N22   , Bn3
        .byte   W12
        .byte           N11   , Cs4
        .byte   W12
@ 077   ----------------------------------------
        .byte           N22   , Ds4
        .byte   W96
@ 078   ----------------------------------------
        .byte   W96
@ 079   ----------------------------------------
        .byte   W96
@ 080   ----------------------------------------
        .byte   W96
@ 081   ----------------------------------------
        .byte   W96
@ 082   ----------------------------------------
        .byte   GOTO
        .word	mus_dbz_hikari_no_willpower_7_10
        .byte   FINE

@****************** Track 8 (Midi-Chn.8) ******************@

mus_dbz_hikari_no_willpower_8:
        .byte   KEYSH , mus_dbz_hikari_no_willpower_key+0
@ 000   ----------------------------------------
        .byte           VOICE , 1
        .byte           VOL   , 127
@ 001   ----------------------------------------
        .byte   W36
@ 002   ----------------------------------------
mus_dbz_hikari_no_willpower_8_2:
        .byte   W24
        .byte           N68   , Cs3 , v108
        .byte   W12
        .byte           N56   , Dn3
        .byte   W60
        .byte   PEND
@ 003   ----------------------------------------
mus_dbz_hikari_no_willpower_8_3:
        .byte           N90   , Gn1 , v118 , gtp1
        .byte   W12
        .byte           N78   , Dn2 , v108 , gtp1
        .byte   W84
        .byte   PEND
@ 004   ----------------------------------------
        .byte   W24
        .byte           N68   , Bn2
        .byte   W12
        .byte           N56   , Cs3
        .byte   W48
        .byte           N11   , En1
        .byte   W12
@ 005   ----------------------------------------
        .byte           N68   , Dn1 , v118
        .byte   W12
        .byte           N56   , An1 , v108
        .byte   W60
        .byte           N22   , Cs2 , v118
        .byte   W24
@ 006   ----------------------------------------
        .byte   PATT
         .word  mus_dbz_hikari_no_willpower_8_2
@ 007   ----------------------------------------
        .byte   PATT
         .word  mus_dbz_hikari_no_willpower_8_3
@ 008   ----------------------------------------
        .byte   W24
        .byte           N68   , An2 , v108
        .byte   W12
        .byte           N56   , Bn2
        .byte   W12
        .byte           N44   , Cs3 , v108 , gtp1
        .byte   W12
        .byte           N32   , En3 , v108 , gtp2
        .byte   W36
@ 009   ----------------------------------------
        .byte           N90   , Fs1 , v118 , gtp1
        .byte                   An2 , v108
        .byte           N90   , En3 , v108 , gtp1
        .byte   W96
@ 010   ----------------------------------------
mus_dbz_hikari_no_willpower_8_10:
        .byte   W96
@ 011   ----------------------------------------
        .byte   W96
@ 012   ----------------------------------------
        .byte   W96
@ 013   ----------------------------------------
        .byte   W96
@ 014   ----------------------------------------
        .byte   W96
@ 015   ----------------------------------------
        .byte   W96
@ 016   ----------------------------------------
        .byte   W96
@ 017   ----------------------------------------
        .byte   W96
@ 018   ----------------------------------------
        .byte   W96
@ 019   ----------------------------------------
        .byte   W96
@ 020   ----------------------------------------
        .byte   W96
@ 021   ----------------------------------------
        .byte   W96
@ 022   ----------------------------------------
        .byte   W96
@ 023   ----------------------------------------
        .byte   W96
@ 024   ----------------------------------------
        .byte   W96
@ 025   ----------------------------------------
        .byte   W96
@ 026   ----------------------------------------
        .byte   W96
@ 027   ----------------------------------------
        .byte   W96
@ 028   ----------------------------------------
        .byte   W96
@ 029   ----------------------------------------
        .byte   W96
@ 030   ----------------------------------------
        .byte   W96
@ 031   ----------------------------------------
        .byte   W96
@ 032   ----------------------------------------
        .byte   W96
@ 033   ----------------------------------------
        .byte   W96
@ 034   ----------------------------------------
        .byte   W96
@ 035   ----------------------------------------
        .byte   W96
@ 036   ----------------------------------------
        .byte   W96
@ 037   ----------------------------------------
        .byte   W96
@ 038   ----------------------------------------
        .byte   W96
@ 039   ----------------------------------------
        .byte   W96
@ 040   ----------------------------------------
        .byte   W96
@ 041   ----------------------------------------
        .byte   W96
@ 042   ----------------------------------------
        .byte   W96
@ 043   ----------------------------------------
        .byte   W96
@ 044   ----------------------------------------
        .byte   W96
@ 045   ----------------------------------------
        .byte   W96
@ 046   ----------------------------------------
        .byte   W96
@ 047   ----------------------------------------
        .byte   W96
@ 048   ----------------------------------------
        .byte   W96
@ 049   ----------------------------------------
        .byte   W96
@ 050   ----------------------------------------
        .byte   W96
@ 051   ----------------------------------------
        .byte   W96
@ 052   ----------------------------------------
        .byte   W96
@ 053   ----------------------------------------
        .byte   W96
@ 054   ----------------------------------------
        .byte   W96
@ 055   ----------------------------------------
        .byte   W96
@ 056   ----------------------------------------
        .byte   W96
@ 057   ----------------------------------------
        .byte   W96
@ 058   ----------------------------------------
        .byte   W96
@ 059   ----------------------------------------
        .byte   W96
@ 060   ----------------------------------------
        .byte   W96
@ 061   ----------------------------------------
        .byte   W96
@ 062   ----------------------------------------
        .byte   W96
@ 063   ----------------------------------------
        .byte   W96
@ 064   ----------------------------------------
        .byte   W96
@ 065   ----------------------------------------
        .byte   W96
@ 066   ----------------------------------------
        .byte   W96
@ 067   ----------------------------------------
        .byte   W96
@ 068   ----------------------------------------
        .byte   W96
@ 069   ----------------------------------------
        .byte   W96
@ 070   ----------------------------------------
mus_dbz_hikari_no_willpower_8_70:
        .byte   W24
        .byte           N68   , Ds3 , v108
        .byte   W12
        .byte           N56   , En3
        .byte   W60
        .byte   PEND
@ 071   ----------------------------------------
        .byte           N90   , An1 , v118 , gtp1
        .byte   W96
@ 072   ----------------------------------------
        .byte   W24
        .byte           N68   , Cs3 , v108
        .byte   W12
        .byte           N56   , Ds3
        .byte   W48
        .byte           N11   , Fs1
        .byte   W12
@ 073   ----------------------------------------
        .byte           N68   , En1 , v118
        .byte   W12
        .byte           N56   , Bn1 , v108
        .byte   W60
        .byte           N22   , Ds2 , v118
        .byte   W24
@ 074   ----------------------------------------
        .byte   PATT
         .word  mus_dbz_hikari_no_willpower_8_70
@ 075   ----------------------------------------
        .byte   PATT
         .word  mus_dbz_hikari_no_willpower_7_4
@ 076   ----------------------------------------
        .byte   W24
        .byte           N68   , Bn2 , v108
        .byte   W12
        .byte           N56   , Cs3
        .byte   W12
        .byte           N44   , Ds3 , v108 , gtp1
        .byte   W12
        .byte           N32   , Fs3 , v108 , gtp2
        .byte   W36
@ 077   ----------------------------------------
        .byte           N90   , Gs1 , v118 , gtp1
        .byte                   Bn2 , v108
        .byte           N90   , Fs3 , v108 , gtp1
        .byte   W96
@ 078   ----------------------------------------
        .byte   W96
@ 079   ----------------------------------------
        .byte   W96
@ 080   ----------------------------------------
        .byte   W96
@ 081   ----------------------------------------
        .byte   W96
@ 082   ----------------------------------------
        .byte   GOTO
        .word	mus_dbz_hikari_no_willpower_8_10
        .byte   FINE

@****************** Track 9 (Midi-Chn.9) ******************@

mus_dbz_hikari_no_willpower_9:
        .byte   KEYSH , mus_dbz_hikari_no_willpower_key+0
@ 000   ----------------------------------------
        .byte           VOICE , 34
        .byte           VOL   , 121
@ 001   ----------------------------------------
        .byte   W36
@ 002   ----------------------------------------
        .byte   W96
@ 003   ----------------------------------------
        .byte   W96
@ 004   ----------------------------------------
        .byte   W96
@ 005   ----------------------------------------
        .byte   W96
@ 006   ----------------------------------------
        .byte   W96
@ 007   ----------------------------------------
        .byte   W96
@ 008   ----------------------------------------
        .byte   W96
@ 009   ----------------------------------------
        .byte   W96
@ 010   ----------------------------------------
mus_dbz_hikari_no_willpower_9_10:
        .byte   W96
@ 011   ----------------------------------------
        .byte   W96
@ 012   ----------------------------------------
        .byte   W96
@ 013   ----------------------------------------
        .byte   W96
@ 014   ----------------------------------------
        .byte   W96
@ 015   ----------------------------------------
        .byte   W96
@ 016   ----------------------------------------
        .byte   W96
@ 017   ----------------------------------------
        .byte   W96
@ 018   ----------------------------------------
mus_dbz_hikari_no_willpower_9_18:
        .byte           N05   , Bn0 , v120
        .byte   W06
        .byte                   Bn0 , v117
        .byte   W06
        .byte           N11   , Bn1 , v120
        .byte   W12
        .byte                   Bn0 , v118
        .byte   W12
        .byte                   Bn1 , v117
        .byte   W12
        .byte                   Bn0 , v119
        .byte   W12
        .byte           N05   , Bn1 , v120
        .byte   W06
        .byte                   Bn0 , v117
        .byte   W12
        .byte                   Bn0 , v116
        .byte   W06
        .byte           N11   , Bn1 , v119
        .byte   W12
        .byte   PEND
@ 019   ----------------------------------------
        .byte           N05   , Bn0 , v121
        .byte   W06
        .byte                   Bn0 , v116
        .byte   W06
        .byte           N11   , Bn1 , v121
        .byte   W12
        .byte                   Bn0 , v117
        .byte   W12
        .byte                   Bn1 , v118
        .byte   W12
        .byte                   Bn0 , v119
        .byte   W12
        .byte           N05   , Bn1 , v121
        .byte   W06
        .byte                   Bn0
        .byte   W12
        .byte                   Bn0 , v118
        .byte   W06
        .byte           N11   , Bn1 , v117
        .byte   W12
@ 020   ----------------------------------------
        .byte           N05   , Gn0 , v116
        .byte   W06
        .byte                   Gn0 , v119
        .byte   W06
        .byte           N11   , Gn1 , v117
        .byte   W12
        .byte                   Gn0 , v115
        .byte   W12
        .byte                   Gn1 , v119
        .byte   W12
        .byte                   Gn0 , v118
        .byte   W12
        .byte           N05   , Gn1 , v117
        .byte   W06
        .byte                   Gn0 , v116
        .byte   W12
        .byte                   Gn0 , v120
        .byte   W06
        .byte           N11   , Gn1 , v121
        .byte   W12
@ 021   ----------------------------------------
        .byte           N05   , An0 , v118
        .byte   W06
        .byte                   An0
        .byte   W06
        .byte           N11   , An1 , v120
        .byte   W12
        .byte                   An0 , v117
        .byte   W12
        .byte                   An1 , v121
        .byte   W12
        .byte                   An0
        .byte   W12
        .byte           N05   , An1 , v117
        .byte   W06
        .byte                   An0 , v118
        .byte   W12
        .byte                   An0 , v117
        .byte   W06
        .byte           N11   , An1 , v119
        .byte   W12
@ 022   ----------------------------------------
        .byte           N05   , Bn0 , v121
        .byte   W06
        .byte                   Bn0 , v116
        .byte   W06
        .byte           N11   , Bn1 , v121
        .byte   W12
        .byte                   Bn0 , v118
        .byte   W12
        .byte                   Bn1 , v121
        .byte   W12
        .byte                   Bn0 , v119
        .byte   W12
        .byte           N05   , Bn1 , v121
        .byte   W06
        .byte                   Bn0 , v116
        .byte   W12
        .byte                   Bn0 , v120
        .byte   W06
        .byte           N11   , Bn1 , v118
        .byte   W12
@ 023   ----------------------------------------
        .byte           N05   , Bn0
        .byte   W06
        .byte                   Bn0 , v115
        .byte   W06
        .byte           N11   , Bn1 , v119
        .byte   W12
        .byte                   Bn0
        .byte   W12
        .byte                   Bn1
        .byte   W12
        .byte                   Bn0 , v118
        .byte   W12
        .byte           N05   , Bn1 , v117
        .byte   W06
        .byte                   Bn0 , v120
        .byte   W12
        .byte                   Bn0 , v117
        .byte   W06
        .byte           N11   , Bn1 , v115
        .byte   W12
@ 024   ----------------------------------------
        .byte           N02   , Gn0 , v121
        .byte   W06
        .byte           N05   , Gn0 , v118
        .byte   W06
        .byte           N11   , Gn1 , v120
        .byte   W12
        .byte                   Gn0 , v117
        .byte   W12
        .byte                   Gn1 , v115
        .byte   W12
        .byte                   Gn0 , v120
        .byte   W12
        .byte           N05   , Gn1 , v118
        .byte   W06
        .byte                   Gn0 , v119
        .byte   W12
        .byte                   Gn0 , v116
        .byte   W06
        .byte           N11   , Gn1 , v120
        .byte   W12
@ 025   ----------------------------------------
        .byte           N05   , An0 , v117
        .byte   W06
        .byte                   An0 , v119
        .byte   W06
        .byte           N11   , An1 , v117
        .byte   W12
        .byte                   An0
        .byte   W12
        .byte                   An1 , v121
        .byte   W12
        .byte                   An0 , v117
        .byte   W12
        .byte           N05   , An1 , v118
        .byte   W06
        .byte                   An0 , v117
        .byte   W12
        .byte                   An0 , v115
        .byte   W06
        .byte           N11   , Gn0 , v116
        .byte   W12
@ 026   ----------------------------------------
mus_dbz_hikari_no_willpower_9_26:
        .byte           N02   , Fs0 , v116
        .byte   W06
        .byte           N05   , Fs0 , v118
        .byte   W06
        .byte           N11   , Fs1 , v121
        .byte   W12
        .byte                   Fs0 , v119
        .byte   W12
        .byte                   Fs1 , v120
        .byte   W12
        .byte                   Fs0 , v116
        .byte   W12
        .byte           N05   , Fs1 , v117
        .byte   W06
        .byte                   Fs0 , v121
        .byte   W12
        .byte                   Fs0
        .byte   W06
        .byte           N11   , Fs1 , v119
        .byte   W12
        .byte   PEND
@ 027   ----------------------------------------
        .byte           N02   , En0 , v120
        .byte   W06
        .byte           N05   , En0 , v118
        .byte   W06
        .byte           N11   , En1 , v117
        .byte   W12
        .byte                   En0 , v115
        .byte   W12
        .byte                   En1 , v120
        .byte   W12
        .byte                   En0 , v118
        .byte   W12
        .byte           N05   , En1 , v115
        .byte   W06
        .byte                   En0 , v121
        .byte   W12
        .byte                   En0 , v116
        .byte   W06
        .byte           N11   , Dn1 , v120
        .byte   W12
@ 028   ----------------------------------------
mus_dbz_hikari_no_willpower_9_28:
        .byte           N05   , Cn1 , v119
        .byte   W06
        .byte                   Cn1 , v118
        .byte   W06
        .byte           N11   , Cn2
        .byte   W12
        .byte                   Cn1 , v115
        .byte   W12
        .byte                   Cn2 , v116
        .byte   W12
        .byte                   Cn1 , v119
        .byte   W12
        .byte           N05   , Cn2
        .byte   W06
        .byte                   Cn1 , v116
        .byte   W12
        .byte                   Cn1 , v117
        .byte   W06
        .byte           N11   , Cn2 , v118
        .byte   W12
        .byte   PEND
@ 029   ----------------------------------------
        .byte           N02   , Bn0 , v115
        .byte   W06
        .byte           N05   , Bn0 , v118
        .byte   W06
        .byte           N11   , Bn1 , v116
        .byte   W12
        .byte                   Bn0 , v121
        .byte   W12
        .byte                   Bn1 , v118
        .byte   W12
        .byte                   Bn0 , v115
        .byte   W12
        .byte           N05   , Bn1 , v120
        .byte   W06
        .byte                   Bn0 , v117
        .byte   W12
        .byte                   Bn0 , v119
        .byte   W06
        .byte           N11   , Bn1 , v116
        .byte   W12
@ 030   ----------------------------------------
mus_dbz_hikari_no_willpower_9_30:
        .byte           N02   , Dn0 , v121
        .byte   W06
        .byte           N05   , Dn0 , v118
        .byte   W06
        .byte           N11   , Dn1 , v115
        .byte   W12
        .byte                   Dn0 , v120
        .byte   W12
        .byte                   Dn1
        .byte   W12
        .byte                   Dn0 , v116
        .byte   W12
        .byte           N05   , Dn1 , v119
        .byte   W06
        .byte                   Dn0 , v120
        .byte   W12
        .byte                   Dn0 , v116
        .byte   W06
        .byte           N11   , Dn1 , v121
        .byte   W12
        .byte   PEND
@ 031   ----------------------------------------
mus_dbz_hikari_no_willpower_9_31:
        .byte           N02   , En0 , v119
        .byte   W06
        .byte           N05   , En0 , v115
        .byte   W06
        .byte           N11   , En1 , v117
        .byte   W12
        .byte                   En0
        .byte   W12
        .byte                   En1 , v120
        .byte   W12
        .byte                   En0 , v115
        .byte   W12
        .byte           N05   , En1 , v117
        .byte   W06
        .byte                   En0 , v120
        .byte   W12
        .byte                   En0 , v121
        .byte   W06
        .byte           N11   , En1 , v116
        .byte   W12
        .byte   PEND
@ 032   ----------------------------------------
        .byte           N05   , Fs0 , v118
        .byte   W06
        .byte                   Fs0 , v119
        .byte   W06
        .byte           N11   , Fs1 , v121
        .byte   W12
        .byte                   Fs0 , v118
        .byte   W12
        .byte                   Fs1
        .byte   W12
        .byte                   Fs0 , v115
        .byte   W12
        .byte           N05   , Fs1 , v119
        .byte   W06
        .byte                   Fs0 , v115
        .byte   W12
        .byte                   Fs0 , v120
        .byte   W06
        .byte           N11   , Fs1
        .byte   W12
@ 033   ----------------------------------------
        .byte           N05   , Fs0 , v118
        .byte   W06
        .byte                   Fs0 , v116
        .byte   W06
        .byte           N11   , Fs1 , v119
        .byte   W12
        .byte                   Fs0 , v115
        .byte   W12
        .byte                   Fs1 , v118
        .byte   W12
        .byte                   Fs0 , v121
        .byte   W12
        .byte           N05   , En1 , v118
        .byte   W06
        .byte                   Fs1 , v120
        .byte   W06
        .byte                   Cs1 , v121
        .byte   W06
        .byte                   En1
        .byte   W06
        .byte                   Fs0
        .byte   W06
        .byte                   As0
        .byte   W06
@ 034   ----------------------------------------
mus_dbz_hikari_no_willpower_9_34:
        .byte   W01
        .byte           N04   , Bn0 , v120
        .byte   W07
        .byte           N03   , Bn0 , v117
        .byte   W04
        .byte           N11   , Bn1 , v120
        .byte   W12
        .byte                   Bn0 , v118
        .byte   W12
        .byte                   Bn1 , v117
        .byte   W12
        .byte           N14   , Bn0 , v119
        .byte   W14
        .byte           N05   , Bn1 , v120
        .byte   W05
        .byte           N08   , Bn0 , v117
        .byte   W13
        .byte           N03   , Bn0 , v116
        .byte   W04
        .byte           N11   , Bn1 , v119
        .byte   W12
        .byte   PEND
@ 035   ----------------------------------------
mus_dbz_hikari_no_willpower_9_35:
        .byte   W01
        .byte           N04   , Bn0 , v121
        .byte   W07
        .byte           N03   , Bn0 , v116
        .byte   W04
        .byte           N11   , Bn1 , v121
        .byte   W12
        .byte                   Bn0 , v117
        .byte   W12
        .byte                   Bn1 , v118
        .byte   W12
        .byte           N14   , Bn0 , v119
        .byte   W14
        .byte           N05   , Bn1 , v121
        .byte   W05
        .byte           N08   , Bn0
        .byte   W13
        .byte           N03   , Bn0 , v118
        .byte   W04
        .byte           N11   , Bn1 , v117
        .byte   W12
        .byte   PEND
@ 036   ----------------------------------------
mus_dbz_hikari_no_willpower_9_36:
        .byte   W01
        .byte           N04   , Gn0 , v116
        .byte   W07
        .byte           N03   , Gn0 , v119
        .byte   W04
        .byte           N11   , Gn1 , v117
        .byte   W12
        .byte                   Gn0 , v115
        .byte   W12
        .byte                   Gn1 , v119
        .byte   W12
        .byte           N14   , Gn0 , v118
        .byte   W14
        .byte           N05   , Gn1 , v117
        .byte   W05
        .byte           N08   , Gn0 , v116
        .byte   W13
        .byte           N03   , Gn0 , v120
        .byte   W04
        .byte           N11   , Gn1 , v121
        .byte   W12
        .byte   PEND
@ 037   ----------------------------------------
mus_dbz_hikari_no_willpower_9_37:
        .byte   W01
        .byte           N04   , An0 , v118
        .byte   W07
        .byte           N03
        .byte   W04
        .byte           N11   , An1 , v120
        .byte   W12
        .byte                   An0 , v117
        .byte   W12
        .byte                   An1 , v121
        .byte   W12
        .byte           N14   , An0
        .byte   W14
        .byte           N05   , An1 , v117
        .byte   W05
        .byte           N08   , An0 , v118
        .byte   W13
        .byte           N03   , An0 , v117
        .byte   W04
        .byte           N11   , An1 , v119
        .byte   W12
        .byte   PEND
@ 038   ----------------------------------------
        .byte   PATT
         .word  mus_dbz_hikari_no_willpower_9_34
@ 039   ----------------------------------------
        .byte   PATT
         .word  mus_dbz_hikari_no_willpower_9_35
@ 040   ----------------------------------------
        .byte   PATT
         .word  mus_dbz_hikari_no_willpower_9_36
@ 041   ----------------------------------------
        .byte   PATT
         .word  mus_dbz_hikari_no_willpower_9_37
@ 042   ----------------------------------------
        .byte   PATT
         .word  mus_dbz_hikari_no_willpower_9_30
@ 043   ----------------------------------------
        .byte   PATT
         .word  mus_dbz_hikari_no_willpower_9_31
@ 044   ----------------------------------------
        .byte   PATT
         .word  mus_dbz_hikari_no_willpower_9_28
@ 045   ----------------------------------------
        .byte   PATT
         .word  mus_dbz_hikari_no_willpower_9_18
@ 046   ----------------------------------------
        .byte   PATT
         .word  mus_dbz_hikari_no_willpower_9_30
@ 047   ----------------------------------------
        .byte   PATT
         .word  mus_dbz_hikari_no_willpower_9_31
@ 048   ----------------------------------------
        .byte   PATT
         .word  mus_dbz_hikari_no_willpower_9_26
@ 049   ----------------------------------------
        .byte           N02   , Gs0 , v119
        .byte   W06
        .byte           N05   , Gs0 , v115
        .byte   W06
        .byte           N11   , Gs1 , v117
        .byte   W12
        .byte                   Gs0
        .byte   W12
        .byte                   Gs1 , v120
        .byte   W12
        .byte                   Gs0 , v115
        .byte   W12
        .byte           N05   , Gs1 , v117
        .byte   W06
        .byte                   Gs0 , v120
        .byte   W12
        .byte                   Gs0 , v121
        .byte   W06
        .byte           N11   , Gs1 , v116
        .byte   W12
@ 050   ----------------------------------------
mus_dbz_hikari_no_willpower_9_50:
        .byte           N02   , Cs1 , v119
        .byte   W06
        .byte           N05   , Cs1 , v115
        .byte   W06
        .byte           N11   , Cs2 , v117
        .byte   W12
        .byte                   Cs1
        .byte   W12
        .byte                   Cs2 , v120
        .byte   W12
        .byte                   Cs1 , v115
        .byte   W12
        .byte           N05   , Cs2 , v117
        .byte   W06
        .byte                   Cs1 , v120
        .byte   W12
        .byte                   Cs1 , v121
        .byte   W06
        .byte           N11   , Cs2 , v116
        .byte   W12
        .byte   PEND
@ 051   ----------------------------------------
mus_dbz_hikari_no_willpower_9_51:
        .byte           N02   , An0 , v119
        .byte   W06
        .byte           N05   , An0 , v115
        .byte   W06
        .byte           N11   , An1 , v117
        .byte   W12
        .byte                   An0
        .byte   W12
        .byte                   An1 , v120
        .byte   W12
        .byte                   An0 , v115
        .byte   W12
        .byte           N05   , An1 , v117
        .byte   W06
        .byte                   An0 , v120
        .byte   W12
        .byte                   An0 , v121
        .byte   W06
        .byte           N11   , An1 , v116
        .byte   W12
        .byte   PEND
@ 052   ----------------------------------------
mus_dbz_hikari_no_willpower_9_52:
        .byte           N02   , Bn0 , v119
        .byte   W06
        .byte           N05   , Bn0 , v115
        .byte   W06
        .byte           N11   , Bn1 , v117
        .byte   W12
        .byte                   Bn0
        .byte   W12
        .byte                   Bn1 , v120
        .byte   W12
        .byte                   Bn0 , v115
        .byte   W12
        .byte           N05   , Bn1 , v117
        .byte   W06
        .byte                   Bn0 , v120
        .byte   W12
        .byte                   Bn0 , v121
        .byte   W06
        .byte           N11   , Bn1 , v116
        .byte   W12
        .byte   PEND
@ 053   ----------------------------------------
        .byte   PATT
         .word  mus_dbz_hikari_no_willpower_9_31
@ 054   ----------------------------------------
        .byte   PATT
         .word  mus_dbz_hikari_no_willpower_9_50
@ 055   ----------------------------------------
        .byte   PATT
         .word  mus_dbz_hikari_no_willpower_9_51
@ 056   ----------------------------------------
        .byte   PATT
         .word  mus_dbz_hikari_no_willpower_9_52
@ 057   ----------------------------------------
        .byte   PATT
         .word  mus_dbz_hikari_no_willpower_9_52
@ 058   ----------------------------------------
        .byte   PATT
         .word  mus_dbz_hikari_no_willpower_9_50
@ 059   ----------------------------------------
        .byte   PATT
         .word  mus_dbz_hikari_no_willpower_9_51
@ 060   ----------------------------------------
        .byte   PATT
         .word  mus_dbz_hikari_no_willpower_9_52
@ 061   ----------------------------------------
        .byte   PATT
         .word  mus_dbz_hikari_no_willpower_9_31
@ 062   ----------------------------------------
        .byte   PATT
         .word  mus_dbz_hikari_no_willpower_9_50
@ 063   ----------------------------------------
        .byte   PATT
         .word  mus_dbz_hikari_no_willpower_9_51
@ 064   ----------------------------------------
        .byte   PATT
         .word  mus_dbz_hikari_no_willpower_9_52
@ 065   ----------------------------------------
        .byte   PATT
         .word  mus_dbz_hikari_no_willpower_9_52
@ 066   ----------------------------------------
        .byte   PATT
         .word  mus_dbz_hikari_no_willpower_9_50
@ 067   ----------------------------------------
        .byte   PATT
         .word  mus_dbz_hikari_no_willpower_9_52
@ 068   ----------------------------------------
mus_dbz_hikari_no_willpower_9_68:
        .byte           N02   , Gs1 , v119
        .byte   W06
        .byte           N05   , Gs1 , v115
        .byte   W06
        .byte           N11   , Gs2 , v117
        .byte   W12
        .byte                   Gs1
        .byte   W12
        .byte                   Gs2 , v120
        .byte   W12
        .byte                   Gs1 , v115
        .byte   W12
        .byte           N05   , Gs2 , v117
        .byte   W06
        .byte                   Gs1 , v120
        .byte   W12
        .byte                   Gs1 , v121
        .byte   W06
        .byte           N11   , Gs2 , v116
        .byte   W12
        .byte   PEND
@ 069   ----------------------------------------
        .byte   PATT
         .word  mus_dbz_hikari_no_willpower_9_68
@ 070   ----------------------------------------
mus_dbz_hikari_no_willpower_9_70:
        .byte           N44   , Cs1 , v100 , gtp3
        .byte   W84
        .byte           N11
        .byte   W12
        .byte   PEND
@ 071   ----------------------------------------
mus_dbz_hikari_no_willpower_9_71:
        .byte           N68   , An0 , v100 , gtp3
        .byte   W84
        .byte           N11
        .byte   W12
        .byte   PEND
@ 072   ----------------------------------------
mus_dbz_hikari_no_willpower_9_72:
        .byte           N68   , Bn0 , v100 , gtp3
        .byte   W84
        .byte           N11
        .byte   W12
        .byte   PEND
@ 073   ----------------------------------------
mus_dbz_hikari_no_willpower_9_73:
        .byte           N68   , En1 , v100 , gtp3
        .byte   W84
        .byte           N11
        .byte   W12
        .byte   PEND
@ 074   ----------------------------------------
        .byte           N68   , Cs1 , v100 , gtp3
        .byte   W84
        .byte           N05
        .byte   W12
@ 075   ----------------------------------------
        .byte           N68   , An1 , v100 , gtp3
        .byte   W84
        .byte           N11
        .byte   W12
@ 076   ----------------------------------------
        .byte           N68   , Bn1 , v100 , gtp3
        .byte   W84
        .byte           N11
        .byte   W12
@ 077   ----------------------------------------
        .byte           N68   , Gs1 , v100 , gtp3
        .byte   W96
@ 078   ----------------------------------------
        .byte   PATT
         .word  mus_dbz_hikari_no_willpower_9_70
@ 079   ----------------------------------------
        .byte   PATT
         .word  mus_dbz_hikari_no_willpower_9_71
@ 080   ----------------------------------------
        .byte   PATT
         .word  mus_dbz_hikari_no_willpower_9_72
@ 081   ----------------------------------------
        .byte   PATT
         .word  mus_dbz_hikari_no_willpower_9_73
@ 082   ----------------------------------------
        .byte   GOTO
        .word	mus_dbz_hikari_no_willpower_9_10
        .byte   FINE

@***************** Track 10 (Midi-Chn.10) ******************@

mus_dbz_hikari_no_willpower_10:
        .byte   KEYSH , mus_dbz_hikari_no_willpower_key+0
@ 000   ----------------------------------------
        .byte           VOICE , 0
        .byte           VOL   , 105
@ 001   ----------------------------------------
        .byte   W36
@ 002   ----------------------------------------
        .byte   W96
@ 003   ----------------------------------------
        .byte   W96
@ 004   ----------------------------------------
        .byte   W96
@ 005   ----------------------------------------
        .byte   W96
@ 006   ----------------------------------------
        .byte   W96
@ 007   ----------------------------------------
        .byte   W96
@ 008   ----------------------------------------
        .byte   W96
@ 009   ----------------------------------------
        .byte   W96
@ 010   ----------------------------------------
mus_dbz_hikari_no_willpower_10_10:
        .byte           N11   , Fs1 , v110
        .byte           N11   , En2
        .byte           N05   , Cn1 , v125
        .byte   W06
        .byte           N17   , Cn1 , v105
        .byte   W06
        .byte           N11   , Dn1 , v120
        .byte           N11   , Fs1 , v090
        .byte   W12
        .byte                   Fs1 , v110
        .byte           N23   , Cn1 , v125
        .byte   W12
        .byte           N11   , Dn1 , v120
        .byte           N11   , Fs1 , v090
        .byte   W12
        .byte                   Fs1 , v110
        .byte           N23   , Cn1 , v125
        .byte   W12
        .byte           N11   , Dn1 , v120
        .byte           N11   , Fs1 , v090
        .byte   W12
        .byte                   Fs1 , v110
        .byte           N05   , Cn1 , v105
        .byte   W06
        .byte           N17   , Cn1 , v125
        .byte   W06
        .byte           N11   , Dn1 , v120
        .byte           N11   , Fs1 , v090
        .byte   W12
        .byte   PEND
@ 011   ----------------------------------------
mus_dbz_hikari_no_willpower_10_11:
        .byte           N11   , Fs1 , v110
        .byte           N05   , Cn1 , v125
        .byte   W06
        .byte           N17   , Cn1 , v105
        .byte   W06
        .byte           N11   , Dn1 , v120
        .byte           N11   , Fs1 , v090
        .byte   W12
        .byte                   Fs1 , v110
        .byte           N23   , Cn1 , v125
        .byte   W12
        .byte           N11   , Dn1 , v120
        .byte           N11   , Fs1 , v090
        .byte   W12
        .byte                   Fs1 , v110
        .byte           N23   , Cn1 , v125
        .byte   W12
        .byte           N11   , Dn1 , v120
        .byte           N11   , Fs1 , v090
        .byte   W12
        .byte                   Fs1 , v110
        .byte           N05   , Cn1 , v105
        .byte   W06
        .byte           N17   , Cn1 , v125
        .byte   W06
        .byte           N11   , Dn1 , v120
        .byte           N11   , Fs1 , v090
        .byte   W12
        .byte   PEND
@ 012   ----------------------------------------
mus_dbz_hikari_no_willpower_10_12:
        .byte           N11   , Fs1 , v110
        .byte           N11   , An2
        .byte           N05   , Cn1 , v125
        .byte   W06
        .byte           N17   , Cn1 , v105
        .byte   W06
        .byte           N11   , Dn1 , v120
        .byte           N11   , Fs1 , v090
        .byte   W12
        .byte                   Fs1 , v110
        .byte           N23   , Cn1 , v125
        .byte   W12
        .byte           N11   , Dn1 , v120
        .byte           N11   , Fs1 , v090
        .byte   W12
        .byte                   Fs1 , v110
        .byte           N23   , Cn1 , v125
        .byte   W12
        .byte           N11   , Dn1 , v120
        .byte           N11   , Fs1 , v090
        .byte   W12
        .byte                   Fs1 , v110
        .byte           N05   , Cn1 , v105
        .byte   W06
        .byte           N17   , Cn1 , v125
        .byte   W06
        .byte           N11   , Dn1 , v120
        .byte           N11   , Fs1 , v090
        .byte   W12
        .byte   PEND
@ 013   ----------------------------------------
        .byte                   Fs1 , v110
        .byte           N05   , Cn1 , v125
        .byte   W06
        .byte           N17   , Cn1 , v105
        .byte   W06
        .byte           N11   , Dn1 , v120
        .byte           N11   , Fs1 , v090
        .byte   W12
        .byte                   Fs1 , v110
        .byte           N23   , Cn1 , v125
        .byte   W12
        .byte           N11   , Dn1 , v120
        .byte           N11   , Fs1 , v090
        .byte   W12
        .byte                   Bn1 , v110
        .byte           N11   , Fs1
        .byte           N17   , Cn1 , v125
        .byte   W12
        .byte           N11   , Dn1 , v120
        .byte           N11   , Fs1 , v090
        .byte   W06
        .byte           N05   , Gn1 , v110
        .byte   W06
        .byte           N11   , Fs1
        .byte           N05   , Cn1 , v105
        .byte   W06
        .byte           N17   , Cn1 , v125
        .byte   W06
        .byte           N11   , Fn1 , v110
        .byte           N11   , Dn1 , v120
        .byte           N11   , Fs1 , v090
        .byte   W12
@ 014   ----------------------------------------
        .byte                   Fs1 , v110
        .byte           N11   , Cs2
        .byte           N05   , Cn1 , v125
        .byte   W06
        .byte           N17   , Cn1 , v105
        .byte   W06
        .byte           N11   , Dn1 , v120
        .byte           N11   , Fs1 , v090
        .byte   W12
        .byte                   Fs1 , v110
        .byte           N23   , Cn1 , v125
        .byte   W12
        .byte           N11   , Dn1 , v120
        .byte           N11   , Fs1 , v090
        .byte   W12
        .byte                   Fs1 , v110
        .byte           N23   , Cn1 , v125
        .byte   W12
        .byte           N11   , Dn1 , v120
        .byte           N11   , Fs1 , v090
        .byte   W12
        .byte                   Fs1 , v110
        .byte           N05   , Cn1 , v105
        .byte   W06
        .byte           N17   , Cn1 , v125
        .byte   W06
        .byte           N11   , Dn1 , v120
        .byte           N11   , Fs1 , v090
        .byte   W12
@ 015   ----------------------------------------
        .byte   PATT
         .word  mus_dbz_hikari_no_willpower_10_11
@ 016   ----------------------------------------
        .byte   PATT
         .word  mus_dbz_hikari_no_willpower_10_12
@ 017   ----------------------------------------
        .byte           N11   , Fs1 , v110
        .byte           N05   , Cn1 , v125
        .byte   W06
        .byte           N17   , Cn1 , v105
        .byte   W06
        .byte           N11   , Dn1 , v120
        .byte           N11   , Fs1 , v090
        .byte   W12
        .byte                   Fs1 , v110
        .byte           N23   , Cn1 , v125
        .byte   W12
        .byte           N11   , Dn1 , v120
        .byte           N11   , Fs1 , v090
        .byte   W12
        .byte           N05   , Bn1 , v110
        .byte           N05   , Dn2
        .byte           N05   , Fs1
        .byte           N11   , Cn1 , v125
        .byte   W06
        .byte           N05   , Bn1 , v110
        .byte   W06
        .byte                   Fs1 , v090
        .byte           N05   , Gn1 , v110
        .byte   W06
        .byte                   Bn1
        .byte           N05   , Gn1
        .byte   W06
        .byte                   Fs1
        .byte           N11   , Gn1
        .byte   W06
        .byte           N05   , Fn1
        .byte   W06
        .byte           N11
        .byte           N11   , Fs1 , v090
        .byte           N11   , Gn1 , v110
        .byte   W12
@ 018   ----------------------------------------
mus_dbz_hikari_no_willpower_10_18:
        .byte           N11   , Ds2 , v110
        .byte           N11   , Fs1
        .byte           N05   , Cn1 , v125
        .byte   W06
        .byte           N17   , Cn1 , v105
        .byte   W06
        .byte           N11   , Dn1 , v120
        .byte           N11   , Fs1 , v090
        .byte   W12
        .byte                   Fs1 , v110
        .byte           N23   , Cn1 , v125
        .byte   W12
        .byte           N11   , Dn1 , v120
        .byte           N11   , Fs1 , v090
        .byte   W12
        .byte                   Fs1 , v110
        .byte           N23   , Cn1 , v125
        .byte   W12
        .byte           N11   , Dn1 , v120
        .byte           N11   , Fs1 , v090
        .byte   W12
        .byte                   Fs1 , v110
        .byte           N05   , Cn1 , v105
        .byte   W06
        .byte           N17   , Cn1 , v125
        .byte   W06
        .byte           N11   , Dn1 , v120
        .byte           N11   , Fs1 , v090
        .byte   W12
        .byte   PEND
@ 019   ----------------------------------------
        .byte   PATT
         .word  mus_dbz_hikari_no_willpower_10_11
@ 020   ----------------------------------------
        .byte   PATT
         .word  mus_dbz_hikari_no_willpower_10_11
@ 021   ----------------------------------------
        .byte   PATT
         .word  mus_dbz_hikari_no_willpower_10_11
@ 022   ----------------------------------------
        .byte   PATT
         .word  mus_dbz_hikari_no_willpower_10_11
@ 023   ----------------------------------------
        .byte   PATT
         .word  mus_dbz_hikari_no_willpower_10_11
@ 024   ----------------------------------------
        .byte   PATT
         .word  mus_dbz_hikari_no_willpower_10_11
@ 025   ----------------------------------------
        .byte   PATT
         .word  mus_dbz_hikari_no_willpower_10_11
@ 026   ----------------------------------------
        .byte   PATT
         .word  mus_dbz_hikari_no_willpower_10_11
@ 027   ----------------------------------------
        .byte   PATT
         .word  mus_dbz_hikari_no_willpower_10_11
@ 028   ----------------------------------------
        .byte   PATT
         .word  mus_dbz_hikari_no_willpower_10_11
@ 029   ----------------------------------------
        .byte   PATT
         .word  mus_dbz_hikari_no_willpower_10_11
@ 030   ----------------------------------------
        .byte   PATT
         .word  mus_dbz_hikari_no_willpower_10_11
@ 031   ----------------------------------------
        .byte   PATT
         .word  mus_dbz_hikari_no_willpower_10_11
@ 032   ----------------------------------------
        .byte   PATT
         .word  mus_dbz_hikari_no_willpower_10_10
@ 033   ----------------------------------------
        .byte           N11   , Fs1 , v110
        .byte           N11   , An2
        .byte           N05   , Cn1 , v125
        .byte   W06
        .byte           N17   , Cn1 , v105
        .byte   W06
        .byte           N11   , Dn1 , v120
        .byte           N11   , Fs1 , v090
        .byte   W12
        .byte                   Fs1 , v110
        .byte           N23   , Cn1 , v125
        .byte   W12
        .byte           N11   , Dn1 , v120
        .byte           N11   , Fs1 , v090
        .byte   W12
        .byte                   Fs1 , v110
        .byte           N23   , Cn1 , v125
        .byte   W12
        .byte           N11   , Dn1 , v120
        .byte           N11   , Fs1 , v090
        .byte   W12
        .byte           N05   , Dn2 , v110
        .byte           N05   , Fs1
        .byte           N05   , Cn1 , v105
        .byte   W06
        .byte                   Bn1 , v110
        .byte           N05   , Cn1 , v125
        .byte   W06
        .byte                   Dn1 , v120
        .byte           N05   , Fs1 , v090
        .byte           N11   , Gn1 , v110
        .byte   W06
        .byte           N05   , Fn1
        .byte   W06
@ 034   ----------------------------------------
        .byte   PATT
         .word  mus_dbz_hikari_no_willpower_10_18
@ 035   ----------------------------------------
        .byte   PATT
         .word  mus_dbz_hikari_no_willpower_10_11
@ 036   ----------------------------------------
        .byte   PATT
         .word  mus_dbz_hikari_no_willpower_10_11
@ 037   ----------------------------------------
        .byte   PATT
         .word  mus_dbz_hikari_no_willpower_10_11
@ 038   ----------------------------------------
        .byte   PATT
         .word  mus_dbz_hikari_no_willpower_10_18
@ 039   ----------------------------------------
        .byte   PATT
         .word  mus_dbz_hikari_no_willpower_10_11
@ 040   ----------------------------------------
        .byte   PATT
         .word  mus_dbz_hikari_no_willpower_10_11
@ 041   ----------------------------------------
        .byte   PATT
         .word  mus_dbz_hikari_no_willpower_10_11
@ 042   ----------------------------------------
        .byte   PATT
         .word  mus_dbz_hikari_no_willpower_10_11
@ 043   ----------------------------------------
        .byte   PATT
         .word  mus_dbz_hikari_no_willpower_10_11
@ 044   ----------------------------------------
        .byte   PATT
         .word  mus_dbz_hikari_no_willpower_10_11
@ 045   ----------------------------------------
        .byte   PATT
         .word  mus_dbz_hikari_no_willpower_10_11
@ 046   ----------------------------------------
        .byte   PATT
         .word  mus_dbz_hikari_no_willpower_10_11
@ 047   ----------------------------------------
        .byte   PATT
         .word  mus_dbz_hikari_no_willpower_10_11
@ 048   ----------------------------------------
        .byte   PATT
         .word  mus_dbz_hikari_no_willpower_10_11
@ 049   ----------------------------------------
        .byte   PATT
         .word  mus_dbz_hikari_no_willpower_10_11
@ 050   ----------------------------------------
        .byte   PATT
         .word  mus_dbz_hikari_no_willpower_10_11
@ 051   ----------------------------------------
        .byte   PATT
         .word  mus_dbz_hikari_no_willpower_10_11
@ 052   ----------------------------------------
        .byte   PATT
         .word  mus_dbz_hikari_no_willpower_10_11
@ 053   ----------------------------------------
        .byte   PATT
         .word  mus_dbz_hikari_no_willpower_10_11
@ 054   ----------------------------------------
        .byte   PATT
         .word  mus_dbz_hikari_no_willpower_10_11
@ 055   ----------------------------------------
        .byte   PATT
         .word  mus_dbz_hikari_no_willpower_10_11
@ 056   ----------------------------------------
        .byte   PATT
         .word  mus_dbz_hikari_no_willpower_10_11
@ 057   ----------------------------------------
        .byte   PATT
         .word  mus_dbz_hikari_no_willpower_10_11
@ 058   ----------------------------------------
        .byte           N11   , Fs1 , v110
        .byte           N05   , Cn1 , v125
        .byte           N03   , Cs2 , v100
        .byte   W06
        .byte           N17   , Cn1 , v105
        .byte   W06
        .byte           N11   , Dn1 , v120
        .byte           N11   , Fs1 , v090
        .byte   W12
        .byte                   Fs1 , v110
        .byte           N23   , Cn1 , v125
        .byte   W12
        .byte           N11   , Dn1 , v120
        .byte           N11   , Fs1 , v090
        .byte   W12
        .byte                   Fs1 , v110
        .byte           N23   , Cn1 , v125
        .byte   W12
        .byte           N11   , Dn1 , v120
        .byte           N11   , Fs1 , v090
        .byte   W12
        .byte                   Fs1 , v110
        .byte           N05   , Cn1 , v105
        .byte   W06
        .byte           N17   , Cn1 , v125
        .byte   W06
        .byte           N11   , Dn1 , v120
        .byte           N11   , Fs1 , v090
        .byte   W12
@ 059   ----------------------------------------
        .byte   PATT
         .word  mus_dbz_hikari_no_willpower_10_11
@ 060   ----------------------------------------
        .byte   PATT
         .word  mus_dbz_hikari_no_willpower_10_11
@ 061   ----------------------------------------
        .byte   PATT
         .word  mus_dbz_hikari_no_willpower_10_11
@ 062   ----------------------------------------
        .byte           N11   , Cs2 , v100
        .byte           N05   , Cn1 , v125
        .byte           N03   , Fs1 , v110
        .byte   W06
        .byte           N17   , Cn1 , v105
        .byte   W06
        .byte           N11   , Dn1 , v120
        .byte           N11   , Fs1 , v090
        .byte   W12
        .byte                   Fs1 , v110
        .byte           N23   , Cn1 , v125
        .byte   W12
        .byte           N11   , Dn1 , v120
        .byte           N11   , Fs1 , v090
        .byte   W12
        .byte                   Fs1 , v110
        .byte           N23   , Cn1 , v125
        .byte   W12
        .byte           N11   , Dn1 , v120
        .byte           N11   , Fs1 , v090
        .byte   W12
        .byte                   Fs1 , v110
        .byte           N05   , Cn1 , v105
        .byte   W06
        .byte           N17   , Cn1 , v125
        .byte   W06
        .byte           N11   , Dn1 , v120
        .byte           N11   , Fs1 , v090
        .byte   W12
@ 063   ----------------------------------------
        .byte   PATT
         .word  mus_dbz_hikari_no_willpower_10_11
@ 064   ----------------------------------------
        .byte   PATT
         .word  mus_dbz_hikari_no_willpower_10_11
@ 065   ----------------------------------------
        .byte   PATT
         .word  mus_dbz_hikari_no_willpower_10_11
@ 066   ----------------------------------------
        .byte   PATT
         .word  mus_dbz_hikari_no_willpower_10_11
@ 067   ----------------------------------------
        .byte   PATT
         .word  mus_dbz_hikari_no_willpower_10_11
@ 068   ----------------------------------------
        .byte   PATT
         .word  mus_dbz_hikari_no_willpower_10_11
@ 069   ----------------------------------------
        .byte           N11   , Fs1 , v110
        .byte           N05   , Cn1 , v125
        .byte   W06
        .byte           N17   , Cn1 , v105
        .byte   W06
        .byte           N11   , Dn1 , v120
        .byte           N11   , Fs1 , v090
        .byte   W12
        .byte                   Fs1 , v110
        .byte           N23   , Cn1 , v125
        .byte   W12
        .byte           N11   , Dn1 , v120
        .byte           N11   , Fs1 , v090
        .byte   W12
        .byte                   Fs1 , v110
        .byte           N23   , Cn1 , v125
        .byte   W12
        .byte           N05   , Dn1 , v120
        .byte           N05   , Bn1 , v100
        .byte           N05   , Fs1 , v090
        .byte   W06
        .byte                   An1 , v100
        .byte   W06
        .byte           N11   , Gn1
        .byte   W03
        .byte           N02   , Bn1
        .byte   W04
        .byte           N03   , An1
        .byte   W05
        .byte           N11   , Gn1
        .byte   W12
@ 070   ----------------------------------------
mus_dbz_hikari_no_willpower_10_70:
        .byte           N23   , Cn1 , v100
        .byte   W48
        .byte                   Dn1
        .byte   W36
        .byte           N11   , Cn1
        .byte   W12
        .byte   PEND
@ 071   ----------------------------------------
mus_dbz_hikari_no_willpower_10_71:
        .byte           N23   , Cn1 , v100
        .byte   W48
        .byte                   Dn1
        .byte   W48
        .byte   PEND
@ 072   ----------------------------------------
        .byte   PATT
         .word  mus_dbz_hikari_no_willpower_10_70
@ 073   ----------------------------------------
        .byte   PATT
         .word  mus_dbz_hikari_no_willpower_10_71
@ 074   ----------------------------------------
        .byte   PATT
         .word  mus_dbz_hikari_no_willpower_10_70
@ 075   ----------------------------------------
        .byte   PATT
         .word  mus_dbz_hikari_no_willpower_10_71
@ 076   ----------------------------------------
        .byte   PATT
         .word  mus_dbz_hikari_no_willpower_10_70
@ 077   ----------------------------------------
        .byte   PATT
         .word  mus_dbz_hikari_no_willpower_10_71
@ 078   ----------------------------------------
        .byte   PATT
         .word  mus_dbz_hikari_no_willpower_10_70
@ 079   ----------------------------------------
        .byte   PATT
         .word  mus_dbz_hikari_no_willpower_10_71
@ 080   ----------------------------------------
        .byte   PATT
         .word  mus_dbz_hikari_no_willpower_10_70
@ 081   ----------------------------------------
        .byte   PATT
         .word  mus_dbz_hikari_no_willpower_10_71
@ 082   ----------------------------------------
        .byte   GOTO
        .word	mus_dbz_hikari_no_willpower_10_10
        .byte   FINE

@***************** Track 11 (Midi-Chn.11) *****************@

mus_dbz_hikari_no_willpower_11:
        .byte   KEYSH , mus_dbz_hikari_no_willpower_key+0
@ 000   ----------------------------------------
        .byte           VOICE , 74
        .byte           VOL   , 127
@ 001   ----------------------------------------
        .byte   W36
@ 002   ----------------------------------------
        .byte   W96
@ 003   ----------------------------------------
        .byte   W96
@ 004   ----------------------------------------
        .byte   W96
@ 005   ----------------------------------------
        .byte   W96
@ 006   ----------------------------------------
        .byte   W96
@ 007   ----------------------------------------
        .byte   W96
@ 008   ----------------------------------------
        .byte   W96
@ 009   ----------------------------------------
        .byte   W96
@ 010   ----------------------------------------
mus_dbz_hikari_no_willpower_11_10:
        .byte   W96
@ 011   ----------------------------------------
        .byte   W96
@ 012   ----------------------------------------
        .byte   W96
@ 013   ----------------------------------------
        .byte   W96
@ 014   ----------------------------------------
        .byte   W96
@ 015   ----------------------------------------
        .byte   W96
@ 016   ----------------------------------------
        .byte   W96
@ 017   ----------------------------------------
        .byte   W96
@ 018   ----------------------------------------
mus_dbz_hikari_no_willpower_11_18:
        .byte   W12
        .byte           N05   , Fs4 , v120
        .byte   W12
        .byte           N11
        .byte   W12
        .byte                   Dn4
        .byte   W12
        .byte                   En4
        .byte   W12
        .byte                   Dn4
        .byte   W24
        .byte           N23   , Fs4
        .byte   W12
        .byte   PEND
@ 019   ----------------------------------------
mus_dbz_hikari_no_willpower_11_19:
        .byte   W12
        .byte           N11   , Dn4 , v120
        .byte   W12
        .byte                   En4
        .byte   W12
        .byte           N23   , Bn4
        .byte   W24
        .byte           N11   , Fs4
        .byte   W12
        .byte                   En4
        .byte   W12
        .byte                   Dn4
        .byte   W12
        .byte   PEND
@ 020   ----------------------------------------
mus_dbz_hikari_no_willpower_11_20:
        .byte           N23   , Bn3 , v120
        .byte   W24
        .byte           N11   , Fs4
        .byte   W12
        .byte           N23   , En4
        .byte   W24
        .byte           N32   , Fs4 , v120 , gtp3
        .byte   W36
        .byte   PEND
@ 021   ----------------------------------------
mus_dbz_hikari_no_willpower_11_21:
        .byte           N23   , En4 , v120
        .byte   W24
        .byte           N11   , Cs4
        .byte   W12
        .byte           N23   , Bn3
        .byte   W24
        .byte           N32   , An3 , v120 , gtp3
        .byte   W36
        .byte   PEND
@ 022   ----------------------------------------
        .byte   PATT
         .word  mus_dbz_hikari_no_willpower_11_18
@ 023   ----------------------------------------
        .byte   W12
        .byte           N11   , Dn4 , v120
        .byte   W12
        .byte                   En4
        .byte   W12
        .byte           N23   , Bn4
        .byte   W24
        .byte           N11   , Fs4
        .byte   W12
        .byte                   En4
        .byte   W12
        .byte                   Fs4
        .byte   W12
@ 024   ----------------------------------------
        .byte           N23   , Gn4
        .byte   W24
        .byte           N11
        .byte   W12
        .byte           N23   , An4
        .byte   W24
        .byte           N32   , Bn4 , v120 , gtp3
        .byte   W36
@ 025   ----------------------------------------
        .byte           N11   , Dn5
        .byte   W12
        .byte                   Cs5
        .byte   W12
        .byte                   Bn4
        .byte   W12
        .byte           N28   , Cs5 , v120 , gtp1
        .byte   W60
@ 026   ----------------------------------------
mus_dbz_hikari_no_willpower_11_26:
        .byte           N23   , An4 , v120
        .byte   W60
        .byte           N05
        .byte   W12
        .byte           N11
        .byte   W12
        .byte                   Bn4
        .byte   W12
        .byte   PEND
@ 027   ----------------------------------------
        .byte           N23   , Gs4
        .byte   W24
        .byte           N11   , Fs4
        .byte   W12
        .byte           N28   , En4 , v120 , gtp1
        .byte   W36
        .byte           N11
        .byte   W12
        .byte                   Fs4
        .byte   W12
@ 028   ----------------------------------------
        .byte           N23   , Gn4
        .byte   W60
        .byte           N05
        .byte   W12
        .byte           N11
        .byte   W12
        .byte                   An4
        .byte   W12
@ 029   ----------------------------------------
        .byte           N23   , Fs4
        .byte   W24
        .byte           N11   , En4
        .byte   W12
        .byte           N28   , Dn4 , v120 , gtp1
        .byte   W60
@ 030   ----------------------------------------
        .byte   PATT
         .word  mus_dbz_hikari_no_willpower_11_26
@ 031   ----------------------------------------
        .byte           N23   , Gs4 , v120
        .byte   W24
        .byte           N11   , Fs4
        .byte   W12
        .byte           N17   , En4
        .byte   W24
        .byte           N05
        .byte   W12
        .byte           N11
        .byte   W12
        .byte           TIE   , Fs4
        .byte   W12
@ 032   ----------------------------------------
        .byte   W92
        .byte   W03
        .byte           EOT
        .byte   W01
@ 033   ----------------------------------------
        .byte   W96
@ 034   ----------------------------------------
        .byte   PATT
         .word  mus_dbz_hikari_no_willpower_11_18
@ 035   ----------------------------------------
        .byte   PATT
         .word  mus_dbz_hikari_no_willpower_11_19
@ 036   ----------------------------------------
        .byte   PATT
         .word  mus_dbz_hikari_no_willpower_11_20
@ 037   ----------------------------------------
        .byte   PATT
         .word  mus_dbz_hikari_no_willpower_11_21
@ 038   ----------------------------------------
        .byte   PATT
         .word  mus_dbz_hikari_no_willpower_11_18
@ 039   ----------------------------------------
        .byte   PATT
         .word  mus_dbz_hikari_no_willpower_11_19
@ 040   ----------------------------------------
        .byte           N23   , En4 , v100
        .byte   W24
        .byte           N11
        .byte   W12
        .byte           N17   , Fs4
        .byte   W24
        .byte                   Gn4
        .byte   W36
@ 041   ----------------------------------------
        .byte           N11   , Dn5
        .byte   W12
        .byte                   Cs5
        .byte   W12
        .byte                   Bn4
        .byte   W12
        .byte           N28   , Cs5 , v100 , gtp1
        .byte   W60
@ 042   ----------------------------------------
        .byte           N52   , An4 , v100 , gtp1
        .byte   W60
        .byte           N05
        .byte   W12
        .byte           N11
        .byte   W12
        .byte           N05   , Bn4
        .byte   W12
@ 043   ----------------------------------------
        .byte           N23   , Gn4
        .byte   W24
        .byte           N05   , Fs4
        .byte   W12
        .byte           N28   , En4 , v100 , gtp1
        .byte   W36
        .byte           N11
        .byte   W12
        .byte                   Fs4
        .byte   W12
@ 044   ----------------------------------------
        .byte           N52   , Gn4 , v100 , gtp1
        .byte   W60
        .byte           N05
        .byte   W12
        .byte                   Gn4
        .byte   W12
        .byte           N11   , An4
        .byte   W12
@ 045   ----------------------------------------
        .byte           N23   , Fs4
        .byte   W24
        .byte           N11   , En4
        .byte   W12
        .byte           N56   , Dn4 , v100 , gtp3
        .byte   W60
@ 046   ----------------------------------------
        .byte           N44   , An4 , v100 , gtp3
        .byte   W60
        .byte           N05
        .byte   W12
        .byte                   An4
        .byte   W12
        .byte           N11   , Bn4
        .byte   W12
@ 047   ----------------------------------------
        .byte           N23   , Gn4
        .byte   W24
        .byte           N11   , Fs4
        .byte   W12
        .byte                   En4
        .byte   W24
        .byte           N05
        .byte   W12
        .byte                   En4
        .byte   W12
        .byte           N64   , Fs4 , v100 , gtp1
        .byte   W12
@ 048   ----------------------------------------
        .byte   W60
        .byte           N05
        .byte   W12
        .byte                   Fs4
        .byte   W12
        .byte           N56   , Gs4 , v100 , gtp3
        .byte   W12
@ 049   ----------------------------------------
        .byte   W60
        .byte           N11   , Cs5
        .byte   W12
        .byte                   Ds5
        .byte   W12
        .byte           N23   , En5
        .byte   W12
@ 050   ----------------------------------------
mus_dbz_hikari_no_willpower_11_50:
        .byte   W12
        .byte           N11   , Cs5 , v100
        .byte   W12
        .byte                   Ds5
        .byte   W12
        .byte           N17   , En5
        .byte   W24
        .byte           N11   , Cs5
        .byte   W12
        .byte                   Ds5
        .byte   W12
        .byte           N23   , En5
        .byte   W12
        .byte   PEND
@ 051   ----------------------------------------
mus_dbz_hikari_no_willpower_11_51:
        .byte   W12
        .byte           N23   , En5 , v100
        .byte   W24
        .byte                   Ds5
        .byte   W24
        .byte           N32   , Cs5 , v100 , gtp3
        .byte   W36
        .byte   PEND
@ 052   ----------------------------------------
mus_dbz_hikari_no_willpower_11_52:
        .byte           N23   , Ds5 , v100
        .byte   W24
        .byte           N11   , Bn4
        .byte   W12
        .byte           N23   , An4
        .byte   W24
        .byte           N32   , Bn4 , v100 , gtp3
        .byte   W36
        .byte   PEND
@ 053   ----------------------------------------
mus_dbz_hikari_no_willpower_11_53:
        .byte           N23   , An4 , v100
        .byte   W24
        .byte           N11   , Bn4
        .byte   W12
        .byte           N17   , Gs4
        .byte   W24
        .byte           N11   , Cs5
        .byte   W12
        .byte                   Ds5
        .byte   W12
        .byte           N23   , En5
        .byte   W12
        .byte   PEND
@ 054   ----------------------------------------
mus_dbz_hikari_no_willpower_11_54:
        .byte   W12
        .byte           N11   , Cs5 , v100
        .byte   W12
        .byte                   Ds5
        .byte   W12
        .byte           N23   , En5
        .byte   W24
        .byte           N11   , Cs5
        .byte   W12
        .byte                   Ds5
        .byte   W12
        .byte           N23   , En5
        .byte   W12
        .byte   PEND
@ 055   ----------------------------------------
mus_dbz_hikari_no_willpower_11_55:
        .byte   W12
        .byte           N23   , En5 , v100
        .byte   W24
        .byte           N17   , Fs5
        .byte   W24
        .byte           N32   , En5 , v100 , gtp3
        .byte   W36
        .byte   PEND
@ 056   ----------------------------------------
        .byte           TIE   , Ds5
        .byte   W96
@ 057   ----------------------------------------
        .byte   W44
        .byte   W03
        .byte           EOT
        .byte   W13
        .byte           N11   , Cs5
        .byte   W12
        .byte                   Ds5
        .byte   W12
        .byte           N23   , En5
        .byte   W12
@ 058   ----------------------------------------
        .byte   PATT
         .word  mus_dbz_hikari_no_willpower_11_50
@ 059   ----------------------------------------
        .byte   PATT
         .word  mus_dbz_hikari_no_willpower_11_51
@ 060   ----------------------------------------
        .byte   PATT
         .word  mus_dbz_hikari_no_willpower_11_52
@ 061   ----------------------------------------
        .byte   PATT
         .word  mus_dbz_hikari_no_willpower_11_53
@ 062   ----------------------------------------
        .byte   PATT
         .word  mus_dbz_hikari_no_willpower_11_54
@ 063   ----------------------------------------
        .byte   PATT
         .word  mus_dbz_hikari_no_willpower_11_55
@ 064   ----------------------------------------
        .byte           N92   , Ds5 , v100 , gtp3
        .byte   W96
@ 065   ----------------------------------------
        .byte   W24
        .byte           N11   , En5
        .byte   W12
        .byte                   Ds5
        .byte   W12
        .byte                   Bn4
        .byte   W12
        .byte           N32   , Gs4 , v100 , gtp3
        .byte   W36
@ 066   ----------------------------------------
        .byte           TIE   , Cs5
        .byte   W96
@ 067   ----------------------------------------
        .byte   W23
        .byte           EOT
        .byte   W72
        .byte   W01
@ 068   ----------------------------------------
        .byte   W96
@ 069   ----------------------------------------
        .byte   W96
@ 070   ----------------------------------------
        .byte   W96
@ 071   ----------------------------------------
        .byte   W96
@ 072   ----------------------------------------
        .byte   W96
@ 073   ----------------------------------------
        .byte   W96
@ 074   ----------------------------------------
        .byte   W96
@ 075   ----------------------------------------
        .byte   W96
@ 076   ----------------------------------------
        .byte   W96
@ 077   ----------------------------------------
        .byte   W96
@ 078   ----------------------------------------
        .byte   W96
@ 079   ----------------------------------------
        .byte   W96
@ 080   ----------------------------------------
        .byte   W96
@ 081   ----------------------------------------
        .byte   W96
@ 082   ----------------------------------------
        .byte   GOTO
        .word	mus_dbz_hikari_no_willpower_11_10
        .byte   FINE

@***************** Track 12 (Midi-Chn.12) *****************@

mus_dbz_hikari_no_willpower_12:
        .byte   KEYSH , mus_dbz_hikari_no_willpower_key+0
@ 000   ----------------------------------------
        .byte           VOICE , 80
        .byte           VOL   , 100
@ 001   ----------------------------------------
        .byte   W36
@ 002   ----------------------------------------
        .byte   W96
@ 003   ----------------------------------------
        .byte   W96
@ 004   ----------------------------------------
        .byte   W96
@ 005   ----------------------------------------
        .byte   W96
@ 006   ----------------------------------------
        .byte   W96
@ 007   ----------------------------------------
        .byte   W96
@ 008   ----------------------------------------
        .byte   W96
@ 009   ----------------------------------------
        .byte   W96
@ 010   ----------------------------------------
mus_dbz_hikari_no_willpower_12_10:
        .byte   W96
@ 011   ----------------------------------------
        .byte   W96
@ 012   ----------------------------------------
        .byte   W96
@ 013   ----------------------------------------
        .byte   W96
@ 014   ----------------------------------------
        .byte   W96
@ 015   ----------------------------------------
        .byte   W96
@ 016   ----------------------------------------
        .byte   W96
@ 017   ----------------------------------------
        .byte   W96
@ 018   ----------------------------------------
        .byte   W96
@ 019   ----------------------------------------
        .byte   W96
@ 020   ----------------------------------------
        .byte   W96
@ 021   ----------------------------------------
        .byte   W96
@ 022   ----------------------------------------
        .byte   W96
@ 023   ----------------------------------------
        .byte   W96
@ 024   ----------------------------------------
        .byte   W96
@ 025   ----------------------------------------
        .byte   W96
@ 026   ----------------------------------------
        .byte   W96
@ 027   ----------------------------------------
        .byte   W96
@ 028   ----------------------------------------
        .byte   W96
@ 029   ----------------------------------------
        .byte   W96
@ 030   ----------------------------------------
        .byte   W96
@ 031   ----------------------------------------
        .byte   W96
@ 032   ----------------------------------------
        .byte   W96
@ 033   ----------------------------------------
        .byte   W96
@ 034   ----------------------------------------
        .byte   PATT
         .word  mus_dbz_hikari_no_willpower_4_18
@ 035   ----------------------------------------
        .byte   PATT
         .word  mus_dbz_hikari_no_willpower_4_19
@ 036   ----------------------------------------
        .byte   PATT
         .word  mus_dbz_hikari_no_willpower_4_20
@ 037   ----------------------------------------
        .byte   PATT
         .word  mus_dbz_hikari_no_willpower_4_21
@ 038   ----------------------------------------
        .byte   PATT
         .word  mus_dbz_hikari_no_willpower_4_18
@ 039   ----------------------------------------
        .byte   PATT
         .word  mus_dbz_hikari_no_willpower_4_19
@ 040   ----------------------------------------
        .byte   PATT
         .word  mus_dbz_hikari_no_willpower_4_20
@ 041   ----------------------------------------
        .byte   PATT
         .word  mus_dbz_hikari_no_willpower_4_21
@ 042   ----------------------------------------
        .byte   W12
        .byte           N05   , Dn3 , v100
        .byte           N05   , An3
        .byte   W24
        .byte                   Dn3
        .byte           N05   , An3
        .byte   W12
        .byte           N17   , Dn3
        .byte           N17   , An3
        .byte   W18
        .byte           N11   , Dn3
        .byte           N11   , An3
        .byte   W18
        .byte                   Dn3
        .byte           N11   , An3
        .byte   W12
@ 043   ----------------------------------------
mus_dbz_hikari_no_willpower_12_43:
        .byte   W12
        .byte           N05   , Bn2 , v100
        .byte           N05   , En3
        .byte   W24
        .byte                   Bn2
        .byte           N05   , En3
        .byte   W12
        .byte           N08   , Bn2
        .byte           N08   , En3
        .byte   W18
        .byte           N11   , Bn2
        .byte           N11   , En3
        .byte   W18
        .byte                   Bn2
        .byte           N11   , En3
        .byte   W12
        .byte   PEND
@ 044   ----------------------------------------
        .byte   W12
        .byte           N05   , Cn3
        .byte           N05   , Gn3
        .byte   W24
        .byte                   Cn3
        .byte           N05   , Gn3
        .byte   W12
        .byte           N17   , Cn3
        .byte           N17   , Gn3
        .byte   W18
        .byte           N11   , Cn3
        .byte           N11   , Gn3
        .byte   W18
        .byte                   Cn3
        .byte           N11   , Gn3
        .byte   W12
@ 045   ----------------------------------------
        .byte   W12
        .byte           N05   , Bn2
        .byte           N05   , Dn3
        .byte   W24
        .byte                   Bn2
        .byte           N05   , Dn3
        .byte   W12
        .byte           N08   , Bn2
        .byte           N08   , Dn3
        .byte   W18
        .byte           N11   , Bn2
        .byte           N11   , Dn3
        .byte   W18
        .byte                   Bn2
        .byte           N11   , Dn3
        .byte   W12
@ 046   ----------------------------------------
        .byte   W12
        .byte           N05   , En3
        .byte           N05   , An3
        .byte   W24
        .byte                   En3
        .byte           N05   , An3
        .byte   W12
        .byte           N17   , En3
        .byte           N17   , An3
        .byte   W18
        .byte           N11   , En3
        .byte           N11   , An3
        .byte   W18
        .byte                   En3
        .byte           N11   , An3
        .byte   W12
@ 047   ----------------------------------------
        .byte   PATT
         .word  mus_dbz_hikari_no_willpower_12_43
@ 048   ----------------------------------------
        .byte   W12
        .byte           N05   , Bn2 , v100
        .byte           N05   , Cs3
        .byte           N05   , Fs3
        .byte   W24
        .byte                   Bn2
        .byte           N05   , Cs3
        .byte           N05   , Fs3
        .byte   W12
        .byte           N08   , Bn2
        .byte           N08   , Cs3
        .byte           N08   , Fs3
        .byte   W18
        .byte           N17   , Bn2
        .byte           N17   , Cs3
        .byte           N17   , Fs3
        .byte   W18
        .byte           N11   , Bn2
        .byte           N11   , Cs3
        .byte           N11   , Fs3
        .byte   W12
@ 049   ----------------------------------------
        .byte   W12
        .byte           N05   , Cn3
        .byte           N05   , Ds3
        .byte           N05   , Gs3
        .byte   W24
        .byte                   Cn3
        .byte           N05   , Ds3
        .byte           N05   , Gs3
        .byte   W12
        .byte           N08   , Cn3
        .byte           N08   , Ds3
        .byte           N08   , Gs3
        .byte   W18
        .byte           N11   , Cn3
        .byte           N11   , Ds3
        .byte           N11   , Gs3
        .byte   W18
        .byte                   Cn3
        .byte           N11   , Ds3
        .byte           N11   , Gs3
        .byte   W12
@ 050   ----------------------------------------
        .byte   W96
@ 051   ----------------------------------------
        .byte   W96
@ 052   ----------------------------------------
        .byte   W96
@ 053   ----------------------------------------
        .byte   W96
@ 054   ----------------------------------------
        .byte   W96
@ 055   ----------------------------------------
        .byte   W96
@ 056   ----------------------------------------
        .byte   W96
@ 057   ----------------------------------------
        .byte   W96
@ 058   ----------------------------------------
        .byte   W96
@ 059   ----------------------------------------
        .byte   W96
@ 060   ----------------------------------------
        .byte   W96
@ 061   ----------------------------------------
        .byte   W96
@ 062   ----------------------------------------
        .byte   W96
@ 063   ----------------------------------------
        .byte   W96
@ 064   ----------------------------------------
        .byte   W96
@ 065   ----------------------------------------
        .byte   W96
@ 066   ----------------------------------------
        .byte   W96
@ 067   ----------------------------------------
        .byte   W96
@ 068   ----------------------------------------
        .byte   W96
@ 069   ----------------------------------------
        .byte   W96
@ 070   ----------------------------------------
        .byte   W96
@ 071   ----------------------------------------
        .byte   W96
@ 072   ----------------------------------------
        .byte   W96
@ 073   ----------------------------------------
        .byte   W96
@ 074   ----------------------------------------
        .byte   W96
@ 075   ----------------------------------------
        .byte   W96
@ 076   ----------------------------------------
        .byte   W96
@ 077   ----------------------------------------
        .byte   W96
@ 078   ----------------------------------------
        .byte   W96
@ 079   ----------------------------------------
        .byte   W96
@ 080   ----------------------------------------
        .byte   W96
@ 081   ----------------------------------------
        .byte   W96
@ 082   ----------------------------------------
        .byte   GOTO
        .word	mus_dbz_hikari_no_willpower_12_10
        .byte   FINE

@***************** Track 13 (Midi-Chn.13) *****************@

mus_dbz_hikari_no_willpower_13:
        .byte   KEYSH , mus_dbz_hikari_no_willpower_key+0
@ 000   ----------------------------------------
        .byte           VOICE , 29
        .byte           VOL   , 100
@ 001   ----------------------------------------
        .byte   W36
@ 002   ----------------------------------------
        .byte   W96
@ 003   ----------------------------------------
        .byte   W96
@ 004   ----------------------------------------
        .byte   W96
@ 005   ----------------------------------------
        .byte   W96
@ 006   ----------------------------------------
        .byte   W96
@ 007   ----------------------------------------
        .byte   W96
@ 008   ----------------------------------------
        .byte   W96
@ 009   ----------------------------------------
        .byte   W96
@ 010   ----------------------------------------
mus_dbz_hikari_no_willpower_13_10:
        .byte           TIE   , Fs2 , v127
        .byte           TIE   , Bn2
        .byte   W96
        .byte   PEND
@ 011   ----------------------------------------
        .byte   W44
        .byte   W03
        .byte           EOT   , Fs2
        .byte                   Bn2
        .byte   W01
        .byte           N17   , Cn3
        .byte           N17   , Fn3
        .byte   W18
        .byte                   En3
        .byte           N11   , Bn2
        .byte   W18
        .byte                   An2
        .byte           N11   , Dn3
        .byte   W12
@ 012   ----------------------------------------
        .byte   PATT
         .word  mus_dbz_hikari_no_willpower_13_10
@ 013   ----------------------------------------
        .byte   W44
        .byte   W03
        .byte           EOT   , Fs2
        .byte                   Bn2
        .byte   W01
        .byte           N08   , An2 , v127
        .byte           N08   , Dn3
        .byte   W18
        .byte           N17   , Bn2
        .byte           N11   , En3
        .byte   W18
        .byte                   En2
        .byte           N11   , An2
        .byte   W12
@ 014   ----------------------------------------
        .byte   PATT
         .word  mus_dbz_hikari_no_willpower_13_10
@ 015   ----------------------------------------
        .byte   W44
        .byte   W03
        .byte           EOT   , Fs2
        .byte                   Bn2
        .byte   W01
        .byte           N08   , Cn3 , v127
        .byte           N08   , Fn3
        .byte   W18
        .byte           N17   , Bn2
        .byte           N17   , En3
        .byte   W18
        .byte           N05   , An2
        .byte           N05   , Dn3
        .byte   W12
@ 016   ----------------------------------------
        .byte   PATT
         .word  mus_dbz_hikari_no_willpower_13_10
@ 017   ----------------------------------------
        .byte   W44
        .byte   W03
        .byte           EOT   , Fs2
        .byte                   Bn2
        .byte   W01
        .byte           N08   , An2 , v127
        .byte           N08   , Dn3
        .byte   W18
        .byte           N17   , Bn2
        .byte           N11   , En3
        .byte   W18
        .byte           N05   , En2
        .byte           N05   , An2
        .byte   W12
@ 018   ----------------------------------------
mus_dbz_hikari_no_willpower_13_18:
        .byte           N11   , Bn2 , v127
        .byte   W12
        .byte                   Bn2
        .byte   W12
        .byte                   Bn2
        .byte   W12
        .byte                   Bn2
        .byte   W12
        .byte                   Bn2
        .byte   W12
        .byte                   Bn2
        .byte   W12
        .byte                   Bn2
        .byte   W12
        .byte                   Bn2
        .byte   W12
        .byte   PEND
@ 019   ----------------------------------------
        .byte   PATT
         .word  mus_dbz_hikari_no_willpower_13_18
@ 020   ----------------------------------------
mus_dbz_hikari_no_willpower_13_20:
        .byte           N11   , Gn2 , v127
        .byte   W12
        .byte                   Gn2
        .byte   W12
        .byte                   Gn2
        .byte   W12
        .byte                   Gn2
        .byte   W12
        .byte                   Gn2
        .byte   W12
        .byte                   Gn2
        .byte   W12
        .byte                   Gn2
        .byte   W12
        .byte                   Gn2
        .byte   W12
        .byte   PEND
@ 021   ----------------------------------------
mus_dbz_hikari_no_willpower_13_21:
        .byte           N11   , An2 , v127
        .byte   W12
        .byte                   An2
        .byte   W12
        .byte                   An2
        .byte   W12
        .byte                   An2
        .byte   W12
        .byte                   An2
        .byte   W12
        .byte                   An2
        .byte   W12
        .byte                   An2
        .byte   W12
        .byte                   An2
        .byte   W12
        .byte   PEND
@ 022   ----------------------------------------
        .byte   PATT
         .word  mus_dbz_hikari_no_willpower_13_18
@ 023   ----------------------------------------
        .byte   PATT
         .word  mus_dbz_hikari_no_willpower_13_18
@ 024   ----------------------------------------
        .byte   PATT
         .word  mus_dbz_hikari_no_willpower_13_20
@ 025   ----------------------------------------
        .byte   PATT
         .word  mus_dbz_hikari_no_willpower_13_21
@ 026   ----------------------------------------
mus_dbz_hikari_no_willpower_13_26:
        .byte           N11   , Fs2 , v127
        .byte   W12
        .byte                   Fs2
        .byte   W12
        .byte                   Fs2
        .byte   W12
        .byte                   Fs2
        .byte   W12
        .byte                   Fs2
        .byte   W12
        .byte                   Fs2
        .byte   W12
        .byte                   Fs2
        .byte   W12
        .byte                   Fs2
        .byte   W12
        .byte   PEND
@ 027   ----------------------------------------
mus_dbz_hikari_no_willpower_13_27:
        .byte           N11   , En2 , v127
        .byte   W12
        .byte                   En2
        .byte   W12
        .byte                   En2
        .byte   W12
        .byte                   En2
        .byte   W12
        .byte                   En2
        .byte   W12
        .byte                   En2
        .byte   W12
        .byte                   En2
        .byte   W12
        .byte                   En2
        .byte   W12
        .byte   PEND
@ 028   ----------------------------------------
mus_dbz_hikari_no_willpower_13_28:
        .byte           N11   , Cn2 , v127
        .byte   W12
        .byte                   Cn2
        .byte   W12
        .byte                   Cn2
        .byte   W12
        .byte                   Cn2
        .byte   W12
        .byte                   Cn2
        .byte   W12
        .byte                   Cn2
        .byte   W12
        .byte                   Cn2
        .byte   W12
        .byte                   Cn2
        .byte   W12
        .byte   PEND
@ 029   ----------------------------------------
        .byte   PATT
         .word  mus_dbz_hikari_no_willpower_13_18
@ 030   ----------------------------------------
mus_dbz_hikari_no_willpower_13_30:
        .byte           N11   , Dn2 , v127
        .byte   W12
        .byte                   Dn2
        .byte   W12
        .byte                   Dn2
        .byte   W12
        .byte                   Dn2
        .byte   W12
        .byte                   Dn2
        .byte   W12
        .byte                   Dn2
        .byte   W12
        .byte                   Dn2
        .byte   W12
        .byte                   Dn2
        .byte   W12
        .byte   PEND
@ 031   ----------------------------------------
        .byte   PATT
         .word  mus_dbz_hikari_no_willpower_13_27
@ 032   ----------------------------------------
        .byte   PATT
         .word  mus_dbz_hikari_no_willpower_13_26
@ 033   ----------------------------------------
        .byte   PATT
         .word  mus_dbz_hikari_no_willpower_13_26
@ 034   ----------------------------------------
        .byte   PATT
         .word  mus_dbz_hikari_no_willpower_13_18
@ 035   ----------------------------------------
        .byte   PATT
         .word  mus_dbz_hikari_no_willpower_13_18
@ 036   ----------------------------------------
        .byte   PATT
         .word  mus_dbz_hikari_no_willpower_13_20
@ 037   ----------------------------------------
        .byte   PATT
         .word  mus_dbz_hikari_no_willpower_13_21
@ 038   ----------------------------------------
        .byte   PATT
         .word  mus_dbz_hikari_no_willpower_13_18
@ 039   ----------------------------------------
        .byte   PATT
         .word  mus_dbz_hikari_no_willpower_13_18
@ 040   ----------------------------------------
        .byte   PATT
         .word  mus_dbz_hikari_no_willpower_13_20
@ 041   ----------------------------------------
        .byte   PATT
         .word  mus_dbz_hikari_no_willpower_13_21
@ 042   ----------------------------------------
        .byte   PATT
         .word  mus_dbz_hikari_no_willpower_13_30
@ 043   ----------------------------------------
        .byte   PATT
         .word  mus_dbz_hikari_no_willpower_13_27
@ 044   ----------------------------------------
        .byte   PATT
         .word  mus_dbz_hikari_no_willpower_13_28
@ 045   ----------------------------------------
        .byte   PATT
         .word  mus_dbz_hikari_no_willpower_13_18
@ 046   ----------------------------------------
        .byte   PATT
         .word  mus_dbz_hikari_no_willpower_13_30
@ 047   ----------------------------------------
        .byte   PATT
         .word  mus_dbz_hikari_no_willpower_13_27
@ 048   ----------------------------------------
        .byte   PATT
         .word  mus_dbz_hikari_no_willpower_13_26
@ 049   ----------------------------------------
        .byte           N11   , Gs2 , v127
        .byte   W12
        .byte                   Gs2
        .byte   W12
        .byte                   Gs2
        .byte   W12
        .byte                   Gs2
        .byte   W12
        .byte                   Gs2
        .byte   W12
        .byte                   Gs2
        .byte   W12
        .byte                   Gs2
        .byte   W12
        .byte                   Gs2
        .byte   W12
@ 050   ----------------------------------------
mus_dbz_hikari_no_willpower_13_50:
        .byte           N11   , Cs2 , v127
        .byte   W12
        .byte                   Cs2
        .byte   W12
        .byte                   Cs2
        .byte           N11   , Gs2
        .byte   W12
        .byte                   Cs2
        .byte   W12
        .byte                   Cs2
        .byte   W12
        .byte                   Cs2
        .byte           N11   , Gs2
        .byte   W12
        .byte                   Cs2
        .byte   W12
        .byte                   Cs2
        .byte   W12
        .byte   PEND
@ 051   ----------------------------------------
mus_dbz_hikari_no_willpower_13_51:
        .byte           N11   , An2 , v127
        .byte   W12
        .byte                   An2
        .byte   W12
        .byte                   An2
        .byte           N11   , En3
        .byte   W12
        .byte                   An2
        .byte   W12
        .byte                   An2
        .byte   W12
        .byte                   An2
        .byte           N11   , En3
        .byte   W12
        .byte                   An2
        .byte   W12
        .byte                   An2
        .byte   W12
        .byte   PEND
@ 052   ----------------------------------------
mus_dbz_hikari_no_willpower_13_52:
        .byte           N11   , Bn2 , v127
        .byte   W12
        .byte                   Bn2
        .byte   W12
        .byte                   Bn2
        .byte           N11   , Fs3
        .byte   W12
        .byte                   Bn2
        .byte   W12
        .byte                   Bn2
        .byte   W12
        .byte                   Bn2
        .byte           N11   , Fs3
        .byte   W12
        .byte                   Bn2
        .byte   W12
        .byte                   Bn2
        .byte   W12
        .byte   PEND
@ 053   ----------------------------------------
mus_dbz_hikari_no_willpower_13_53:
        .byte           N11   , En2 , v127
        .byte   W12
        .byte                   En2
        .byte   W12
        .byte                   En2
        .byte           N11   , Bn2
        .byte   W12
        .byte                   En2
        .byte   W12
        .byte                   En2
        .byte   W12
        .byte                   En2
        .byte           N11   , Bn2
        .byte   W12
        .byte                   En2
        .byte   W12
        .byte                   En2
        .byte   W12
        .byte   PEND
@ 054   ----------------------------------------
        .byte   PATT
         .word  mus_dbz_hikari_no_willpower_13_50
@ 055   ----------------------------------------
        .byte   PATT
         .word  mus_dbz_hikari_no_willpower_13_51
@ 056   ----------------------------------------
        .byte   PATT
         .word  mus_dbz_hikari_no_willpower_13_52
@ 057   ----------------------------------------
        .byte           N11   , Bn2 , v127
        .byte   W12
        .byte                   Bn2
        .byte   W12
        .byte                   Bn2
        .byte   W12
        .byte                   Bn2
        .byte   W60
@ 058   ----------------------------------------
        .byte   PATT
         .word  mus_dbz_hikari_no_willpower_13_50
@ 059   ----------------------------------------
        .byte           N11   , An1 , v127
        .byte   W12
        .byte                   An1
        .byte   W12
        .byte                   An1
        .byte           N11   , En2
        .byte   W12
        .byte                   An1
        .byte   W12
        .byte                   An1
        .byte   W12
        .byte           N05
        .byte           N05   , En2
        .byte   W12
        .byte           N11   , An1
        .byte   W12
        .byte                   An1
        .byte   W12
@ 060   ----------------------------------------
        .byte                   Bn2
        .byte   W12
        .byte                   Bn2
        .byte   W12
        .byte           N05   , Fs2
        .byte           N05   , Bn2
        .byte   W12
        .byte           N11
        .byte   W12
        .byte                   Bn2
        .byte   W12
        .byte                   Fs2
        .byte           N11   , Bn2
        .byte   W12
        .byte                   Bn2
        .byte   W12
        .byte                   Bn2
        .byte   W12
@ 061   ----------------------------------------
        .byte   PATT
         .word  mus_dbz_hikari_no_willpower_13_53
@ 062   ----------------------------------------
        .byte   PATT
         .word  mus_dbz_hikari_no_willpower_13_50
@ 063   ----------------------------------------
        .byte           N11   , An1 , v127
        .byte   W12
        .byte                   An1
        .byte   W12
        .byte                   An1
        .byte           N11   , En2
        .byte   W12
        .byte                   An1
        .byte   W12
        .byte                   An1
        .byte   W12
        .byte                   An1
        .byte           N11   , En2
        .byte   W12
        .byte                   An1
        .byte   W12
        .byte                   An1
        .byte   W12
@ 064   ----------------------------------------
        .byte                   Bn2
        .byte   W12
        .byte                   Bn2
        .byte   W12
        .byte                   Fs2
        .byte           N11   , Bn2
        .byte   W12
        .byte                   Bn2
        .byte   W12
        .byte                   Bn2
        .byte   W12
        .byte                   Fs2
        .byte           N11   , Bn2
        .byte   W12
        .byte                   Bn2
        .byte   W12
        .byte                   Bn2
        .byte   W12
@ 065   ----------------------------------------
        .byte   PATT
         .word  mus_dbz_hikari_no_willpower_13_18
@ 066   ----------------------------------------
        .byte   W96
@ 067   ----------------------------------------
        .byte   W96
@ 068   ----------------------------------------
        .byte   W96
@ 069   ----------------------------------------
        .byte   W96
@ 070   ----------------------------------------
mus_dbz_hikari_no_willpower_13_70:
        .byte           N80   , Cs2 , v105 , gtp3
        .byte                   En2
        .byte           N80   , Gs2 , v105 , gtp3
        .byte   W84
        .byte           N05   , Cs2 , v115
        .byte           N05   , En2
        .byte           N05   , Gs2
        .byte   W12
        .byte   PEND
@ 071   ----------------------------------------
mus_dbz_hikari_no_willpower_13_71:
        .byte           N92   , Cs2 , v105 , gtp3
        .byte                   En2
        .byte           N92   , An2 , v105 , gtp3
        .byte   W96
        .byte   PEND
@ 072   ----------------------------------------
mus_dbz_hikari_no_willpower_13_72:
        .byte           N80   , Ds2 , v105 , gtp3
        .byte                   Fs2
        .byte           N80   , Bn2 , v105 , gtp3
        .byte   W84
        .byte           N05   , Ds2 , v110
        .byte           N05   , Fs2
        .byte           N05   , Bn2
        .byte   W12
        .byte   PEND
@ 073   ----------------------------------------
        .byte           N32   , Bn1 , v105 , gtp3
        .byte                   En2
        .byte           N32   , An2 , v105 , gtp3
        .byte   W36
        .byte           N28   , Bn1 , v105 , gtp1
        .byte                   En2
        .byte           N28   , Gs2 , v105 , gtp1
        .byte   W36
        .byte           N23   , Cn2
        .byte           N23   , Ds2
        .byte           N23   , Fs2
        .byte   W24
@ 074   ----------------------------------------
        .byte           N80   , Cs2 , v105 , gtp3
        .byte                   En2
        .byte           N80   , Gs2 , v105 , gtp3
        .byte   W84
        .byte           N05   , Cs2 , v110
        .byte           N05   , En2
        .byte           N05   , Gs2
        .byte   W12
@ 075   ----------------------------------------
        .byte   PATT
         .word  mus_dbz_hikari_no_willpower_13_71
@ 076   ----------------------------------------
        .byte           N80   , Ds2 , v105 , gtp3
        .byte                   Fs2
        .byte           N80   , Bn2 , v105 , gtp3
        .byte   W84
        .byte           N11   , Ds2 , v110
        .byte           N11   , Fs2
        .byte           N11   , Bn2
        .byte   W12
@ 077   ----------------------------------------
        .byte           N92   , Bn1 , v105 , gtp3
        .byte                   Ds2
        .byte           N92   , Gs2 , v105 , gtp3
        .byte   W96
@ 078   ----------------------------------------
        .byte   PATT
         .word  mus_dbz_hikari_no_willpower_13_70
@ 079   ----------------------------------------
        .byte   PATT
         .word  mus_dbz_hikari_no_willpower_13_71
@ 080   ----------------------------------------
        .byte   PATT
         .word  mus_dbz_hikari_no_willpower_13_72
@ 081   ----------------------------------------
        .byte           N32   , Bn1 , v105 , gtp3
        .byte                   En2
        .byte           N32   , An2 , v105 , gtp3
        .byte   W36
        .byte           N28   , Bn1 , v105 , gtp1
        .byte                   En2
        .byte           N28   , Gs2 , v105 , gtp1
        .byte   W60
@ 082   ----------------------------------------
        .byte   GOTO
        .word	mus_dbz_hikari_no_willpower_13_10
        .byte   FINE

@***************** Track 14 (Midi-Chn.14) *****************@

mus_dbz_hikari_no_willpower_14:
        .byte   KEYSH , mus_dbz_hikari_no_willpower_key+0
@ 000   ----------------------------------------
        .byte           VOICE , 43 @ 30
        .byte           VOL   , 127
@ 001   ----------------------------------------
        .byte   W36
@ 002   ----------------------------------------
        .byte   W96
@ 003   ----------------------------------------
        .byte   W96
@ 004   ----------------------------------------
        .byte   W96
@ 005   ----------------------------------------
        .byte   W96
@ 006   ----------------------------------------
        .byte   W96
@ 007   ----------------------------------------
        .byte   W96
@ 008   ----------------------------------------
        .byte   W96
@ 009   ----------------------------------------
        .byte   W96
@ 010   ----------------------------------------
mus_dbz_hikari_no_willpower_14_10:
        .byte   W96
@ 011   ----------------------------------------
        .byte   W96
@ 012   ----------------------------------------
        .byte   W96
@ 013   ----------------------------------------
        .byte   W96
@ 014   ----------------------------------------
        .byte   W96
@ 015   ----------------------------------------
        .byte   W96
@ 016   ----------------------------------------
        .byte   W96
@ 017   ----------------------------------------
        .byte   W96
@ 018   ----------------------------------------
        .byte   W96
@ 019   ----------------------------------------
        .byte   W96
@ 020   ----------------------------------------
        .byte   W96
@ 021   ----------------------------------------
        .byte   W96
@ 022   ----------------------------------------
        .byte   W96
@ 023   ----------------------------------------
        .byte   W96
@ 024   ----------------------------------------
        .byte   W96
@ 025   ----------------------------------------
        .byte   W96
@ 026   ----------------------------------------
        .byte   W96
@ 027   ----------------------------------------
        .byte   W96
@ 028   ----------------------------------------
        .byte   W96
@ 029   ----------------------------------------
        .byte   W96
@ 030   ----------------------------------------
        .byte   W96
@ 031   ----------------------------------------
        .byte   W96
@ 032   ----------------------------------------
        .byte   W96
@ 033   ----------------------------------------
        .byte   W96
@ 034   ----------------------------------------
        .byte   W96
@ 035   ----------------------------------------
        .byte   W96
@ 036   ----------------------------------------
        .byte   W96
@ 037   ----------------------------------------
        .byte   W96
@ 038   ----------------------------------------
        .byte   W96
@ 039   ----------------------------------------
        .byte   W96
@ 040   ----------------------------------------
        .byte   W96
@ 041   ----------------------------------------
        .byte   W96
@ 042   ----------------------------------------
        .byte   W96
@ 043   ----------------------------------------
        .byte   W96
@ 044   ----------------------------------------
        .byte   W96
@ 045   ----------------------------------------
        .byte   W96
@ 046   ----------------------------------------
        .byte   W96
@ 047   ----------------------------------------
        .byte   W96
@ 048   ----------------------------------------
        .byte   W96
@ 049   ----------------------------------------
        .byte   W96
@ 050   ----------------------------------------
        .byte   W96
@ 051   ----------------------------------------
        .byte   W96
@ 052   ----------------------------------------
        .byte   W96
@ 053   ----------------------------------------
        .byte   W96
@ 054   ----------------------------------------
        .byte   W96
@ 055   ----------------------------------------
        .byte   W96
@ 056   ----------------------------------------
        .byte   W96
@ 057   ----------------------------------------
        .byte   W96
@ 058   ----------------------------------------
        .byte   W96
@ 059   ----------------------------------------
        .byte   W96
@ 060   ----------------------------------------
        .byte   W96
@ 061   ----------------------------------------
        .byte   W96
@ 062   ----------------------------------------
        .byte   W96
@ 063   ----------------------------------------
        .byte   W96
@ 064   ----------------------------------------
        .byte   W96
@ 065   ----------------------------------------
        .byte   W96
@ 066   ----------------------------------------
        .byte   W96
@ 067   ----------------------------------------
        .byte   W96
@ 068   ----------------------------------------
        .byte   W96
@ 069   ----------------------------------------
        .byte   W96
@ 070   ----------------------------------------
        .byte   W96
@ 071   ----------------------------------------
        .byte   W96
@ 072   ----------------------------------------
        .byte   W96
@ 073   ----------------------------------------
        .byte   W96
@ 074   ----------------------------------------
        .byte   W96
@ 075   ----------------------------------------
        .byte   W96
@ 076   ----------------------------------------
        .byte   W96
@ 077   ----------------------------------------
        .byte   W96
@ 078   ----------------------------------------
        .byte           N44   , Cs4 , v100 , gtp3
        .byte   W60
        .byte           N17
        .byte   W36
@ 079   ----------------------------------------
        .byte           N32   , Cs4 , v100 , gtp3
        .byte   W36
        .byte                   Bn3
        .byte   W60
@ 080   ----------------------------------------
        .byte           N44   , Cs4 , v100 , gtp3
        .byte   W36
        .byte           N80   , Bn3 , v100 , gtp3
        .byte   W60
@ 081   ----------------------------------------
        .byte           N23   , An3
        .byte   W24
        .byte           N11   , Bn3
        .byte   W12
        .byte           N40   , Gs3 , v100 , gtp1
        .byte   W60
@ 082   ----------------------------------------
        .byte   GOTO
        .word	mus_dbz_hikari_no_willpower_14_10
        .byte   FINE


@********************** End of Song ***********************@

        .align  2
mus_dbz_hikari_no_willpower:
        .byte   15                      @ Num Tracks
        .byte   0                       @ Unknown
        .byte   mus_dbz_hikari_no_willpower_pri @ Priority
        .byte   mus_dbz_hikari_no_willpower_rev @ Reverb

        .word   mus_dbz_hikari_no_willpower_grp

        .word   mus_dbz_hikari_no_willpower_0
        .word   mus_dbz_hikari_no_willpower_1
        .word   mus_dbz_hikari_no_willpower_2
        .word   mus_dbz_hikari_no_willpower_3
        .word   mus_dbz_hikari_no_willpower_4
        .word   mus_dbz_hikari_no_willpower_5
        .word   mus_dbz_hikari_no_willpower_6
        .word   mus_dbz_hikari_no_willpower_7
        .word   mus_dbz_hikari_no_willpower_8
        .word   mus_dbz_hikari_no_willpower_9
        .word   mus_dbz_hikari_no_willpower_10
        .word   mus_dbz_hikari_no_willpower_11
        .word   mus_dbz_hikari_no_willpower_12
        .word   mus_dbz_hikari_no_willpower_13
        .word   mus_dbz_hikari_no_willpower_14

        .end
