        .include "MPlayDef.s"

        .equ    mus_etc_hana_ni_natte_grp, voicegroup205
        .equ    mus_etc_hana_ni_natte_pri, 0
        .equ    mus_etc_hana_ni_natte_mvl, 127
        .equ    mus_etc_hana_ni_natte_rev, 0
        .equ    mus_etc_hana_ni_natte_key, 0

        .section .rodata
        .global mus_etc_hana_ni_natte
        .align  2

@****************** Track 0 (Midi-Chn.0) ******************@

mus_etc_hana_ni_natte_0:
        .byte   KEYSH , mus_etc_hana_ni_natte_key+0
@ 000   ----------------------------------------
        .byte   TEMPO , 176/2
        .byte           PAN   , c_v-10
        .byte           VOICE , 86 @ 26 @ 25 @ Square
        .byte           BENDR , 12
        .byte           VOL   , 100*mus_etc_hana_ni_natte_mvl/mxv
        .byte   W96
@ 001   ----------------------------------------
        .byte   W96
@ 002   ----------------------------------------
        .byte   W96
@ 003   ----------------------------------------
        .byte   W96
@ 004   ----------------------------------------
mus_etc_hana_ni_natte_0_LOOP:
        .byte   W96
@ 005   ----------------------------------------
        .byte   W96
@ 006   ----------------------------------------
        .byte           N32   , As3 , v075 , gtp3
        .byte   W36
        .byte                   As4
        .byte   W36
        .byte           N44   , Gs3 , v075 , gtp3
        .byte   W24
@ 007   ----------------------------------------
        .byte   W96
@ 008   ----------------------------------------
        .byte           N32   , Gs3 , v075 , gtp3
        .byte   W36
        .byte                   Gs4
        .byte   W36
        .byte           N23   , Gs3
        .byte   W24
@ 009   ----------------------------------------
        .byte   W96
@ 010   ----------------------------------------
        .byte   W96
@ 011   ----------------------------------------
        .byte   W96
@ 012   ----------------------------------------
        .byte   W96
@ 013   ----------------------------------------
        .byte   W96
@ 014   ----------------------------------------
        .byte   W96
@ 015   ----------------------------------------
mus_etc_hana_ni_natte_0_15:
        .byte           N23   , Ds4 , v075
        .byte   W24
        .byte           N11   , Cs4
        .byte   W12
        .byte           N44   , Fn4 , v075 , gtp3
        .byte   W60
        .byte   PEND
@ 016   ----------------------------------------
        .byte   W96
@ 017   ----------------------------------------
        .byte   W96
@ 018   ----------------------------------------
        .byte   W96
@ 019   ----------------------------------------
mus_etc_hana_ni_natte_0_19:
        .byte           N23   , Cn4 , v075
        .byte   W24
        .byte           N11   , As3
        .byte   W12
        .byte           N44   , Fn4 , v075 , gtp3
        .byte   W60
        .byte   PEND
@ 020   ----------------------------------------
mus_etc_hana_ni_natte_0_20:
        .byte           N11   , Cs4 , v080
        .byte   W12
        .byte                   Fs3
        .byte   W12
        .byte                   As3
        .byte   W12
        .byte           N23   , Cs4
        .byte   W24
        .byte                   Fs3
        .byte   W24
        .byte           N11   , Cs4
        .byte   W12
        .byte   PEND
@ 021   ----------------------------------------
        .byte                   Fn4
        .byte   W12
        .byte                   As3
        .byte   W12
        .byte                   Fn4
        .byte   W12
        .byte                   Gs4
        .byte   W12
        .byte           N23   , As4
        .byte   W36
        .byte           N11   , Fn4
        .byte   W12
@ 022   ----------------------------------------
        .byte           N23   , Fs4
        .byte   W24
        .byte           N11
        .byte   W12
        .byte                   Cs4
        .byte   W12
        .byte           N23   , As3
        .byte   W24
        .byte           N11   , Gs3
        .byte   W12
        .byte                   Fn3
        .byte   W12
@ 023   ----------------------------------------
        .byte   W12
        .byte                   Cn4
        .byte   W12
        .byte                   Ds4
        .byte   W12
        .byte                   Fn4
        .byte   W12
        .byte                   Ds4
        .byte   W12
        .byte                   Cn4
        .byte   W12
        .byte                   As3
        .byte   W12
        .byte                   Cn4
        .byte   W12
@ 024   ----------------------------------------
        .byte   PATT
         .word  mus_etc_hana_ni_natte_0_20
@ 025   ----------------------------------------
        .byte           N11   , Fn4 , v080
        .byte   W12
        .byte                   As3
        .byte   W12
        .byte                   Fn4
        .byte   W12
        .byte                   Cs4
        .byte   W12
        .byte           N23   , As3
        .byte   W36
        .byte           N11   , Fn4
        .byte   W12
@ 026   ----------------------------------------
        .byte   W12
        .byte                   Fs4
        .byte   W24
        .byte                   Gs4
        .byte   W12
        .byte           N23   , Fs4
        .byte   W24
        .byte                   An4
        .byte   W24
@ 027   ----------------------------------------
        .byte           N92   , As4 , v080 , gtp3
        .byte   W96
@ 028   ----------------------------------------
        .byte   W96
@ 029   ----------------------------------------
        .byte           N23   , Fs4 , v075
        .byte   W24
        .byte           N11
        .byte   W12
        .byte           N32   , An4 , v075 , gtp3
        .byte   W36
        .byte           N23   , As4
        .byte   W24
@ 030   ----------------------------------------
        .byte   W96
@ 031   ----------------------------------------
        .byte                   Fn4
        .byte   W24
        .byte           N11
        .byte   W12
        .byte           N32   , An4 , v075 , gtp3
        .byte   W36
        .byte           N23   , As4
        .byte   W24
@ 032   ----------------------------------------
        .byte   W96
@ 033   ----------------------------------------
        .byte   W96
@ 034   ----------------------------------------
        .byte   W96
@ 035   ----------------------------------------
mus_etc_hana_ni_natte_0_35:
        .byte           N11   , Fn4 , v075
        .byte   W12
        .byte                   Gn4
        .byte   W12
        .byte                   Dn4
        .byte   W12
        .byte                   Fn4
        .byte   W12
        .byte                   An3
        .byte   W12
        .byte                   Cn4
        .byte   W12
        .byte           N23   , Fn3
        .byte   W24
        .byte   PEND
@ 036   ----------------------------------------
        .byte   W96
@ 037   ----------------------------------------
        .byte   W96
@ 038   ----------------------------------------
        .byte   W96
@ 039   ----------------------------------------
        .byte   PATT
         .word  mus_etc_hana_ni_natte_0_35
@ 040   ----------------------------------------
        .byte   W96
@ 041   ----------------------------------------
        .byte   W96
@ 042   ----------------------------------------
        .byte   W96
@ 043   ----------------------------------------
        .byte   W96
@ 044   ----------------------------------------
        .byte   W96
@ 045   ----------------------------------------
        .byte   W96
@ 046   ----------------------------------------
        .byte           N92   , An4 , v088 , gtp3
        .byte   W96
@ 047   ----------------------------------------
        .byte   W96
@ 048   ----------------------------------------
        .byte   W96
@ 049   ----------------------------------------
        .byte   W96
@ 050   ----------------------------------------
        .byte   W96
@ 051   ----------------------------------------
        .byte   W96
@ 052   ----------------------------------------
        .byte   W96
@ 053   ----------------------------------------
        .byte   W96
@ 054   ----------------------------------------
        .byte   W96
@ 055   ----------------------------------------
        .byte   W96
@ 056   ----------------------------------------
        .byte   W96
@ 057   ----------------------------------------
        .byte   W96
@ 058   ----------------------------------------
        .byte   W96
@ 059   ----------------------------------------
        .byte   W96
@ 060   ----------------------------------------
        .byte   W96
@ 061   ----------------------------------------
        .byte   W96
@ 062   ----------------------------------------
        .byte   W96
@ 063   ----------------------------------------
        .byte   W11
        .byte   GOTO
         .word  mus_etc_hana_ni_natte_0_LOOP
        .byte   FINE

@****************** Track 1 (Midi-Chn.1) ******************@

mus_etc_hana_ni_natte_1:
        .byte   KEYSH , mus_etc_hana_ni_natte_key+0
@ 000   ----------------------------------------
        .byte           VOICE , 82 @ Sq-1
        .byte           PAN   , c_v+36
        .byte           BENDR , 12
        .byte           VOL   , 100*mus_etc_hana_ni_natte_mvl/mxv
        .byte   W96
@ 001   ----------------------------------------
        .byte   W96
@ 002   ----------------------------------------
        .byte   W96
@ 003   ----------------------------------------
        .byte   W96
@ 004   ----------------------------------------
mus_etc_hana_ni_natte_1_LOOP:
        .byte   W96
@ 005   ----------------------------------------
        .byte   W96
@ 006   ----------------------------------------
        .byte           N32   , Gs3 , v075 , gtp3
        .byte   W36
        .byte                   Gs4
        .byte   W36
        .byte           N44   , Cs3 , v075 , gtp3
        .byte   W24
@ 007   ----------------------------------------
        .byte   W96
@ 008   ----------------------------------------
        .byte           N32   , Ds3 , v075 , gtp3
        .byte   W36
        .byte                   Ds4
        .byte   W36
        .byte           N23   , Gs3
        .byte   W24
@ 009   ----------------------------------------
        .byte   W96
@ 010   ----------------------------------------
        .byte   W96
@ 011   ----------------------------------------
        .byte   W96
@ 012   ----------------------------------------
        .byte   W96
@ 013   ----------------------------------------
        .byte   W96
@ 014   ----------------------------------------
        .byte   W96
@ 015   ----------------------------------------
        .byte   PATT
         .word  mus_etc_hana_ni_natte_0_15
@ 016   ----------------------------------------
        .byte   W96
@ 017   ----------------------------------------
        .byte   W96
@ 018   ----------------------------------------
        .byte   W96
@ 019   ----------------------------------------
        .byte   PATT
         .word  mus_etc_hana_ni_natte_0_19
@ 020   ----------------------------------------
mus_etc_hana_ni_natte_1_20:
        .byte           N11   , Cs4 , v075
        .byte   W12
        .byte                   Fs3
        .byte   W12
        .byte                   As3
        .byte   W12
        .byte           N23   , Cs4
        .byte   W24
        .byte                   Fs3
        .byte   W24
        .byte           N11   , Cs4
        .byte   W12
        .byte   PEND
@ 021   ----------------------------------------
        .byte                   Fn4
        .byte   W12
        .byte                   As3
        .byte   W12
        .byte                   Fn4
        .byte   W12
        .byte                   Gs4
        .byte   W12
        .byte           N23   , As4
        .byte   W36
        .byte           N11   , Fn4
        .byte   W12
@ 022   ----------------------------------------
        .byte           N23   , Fs4
        .byte   W24
        .byte           N11
        .byte   W12
        .byte                   Cs4
        .byte   W12
        .byte           N23   , As3
        .byte   W24
        .byte           N11   , Gs3
        .byte   W12
        .byte                   Fn3
        .byte   W12
@ 023   ----------------------------------------
        .byte   W12
        .byte                   Cn4
        .byte   W12
        .byte                   Ds4
        .byte   W12
        .byte                   Fn4
        .byte   W12
        .byte                   Ds4
        .byte   W12
        .byte                   Cn4
        .byte   W12
        .byte                   As3
        .byte   W12
        .byte                   Cn4
        .byte   W12
@ 024   ----------------------------------------
        .byte   PATT
         .word  mus_etc_hana_ni_natte_1_20
@ 025   ----------------------------------------
        .byte           N11   , Fn4 , v075
        .byte   W12
        .byte                   As3
        .byte   W12
        .byte                   Fn4
        .byte   W12
        .byte                   Cs4
        .byte   W12
        .byte           N23   , As3
        .byte   W36
        .byte           N11   , Fn4
        .byte   W12
@ 026   ----------------------------------------
        .byte   W12
        .byte                   Fs4
        .byte   W24
        .byte                   Gs4
        .byte   W12
        .byte           N23   , Fs4
        .byte   W24
        .byte                   An4
        .byte   W24
@ 027   ----------------------------------------
        .byte           N92   , As4 , v075 , gtp3
        .byte   W96
@ 028   ----------------------------------------
        .byte   W96
@ 029   ----------------------------------------
        .byte           N23   , Ds4
        .byte   W24
        .byte           N11   , Fs4
        .byte   W12
        .byte           N32   , Fn4 , v075 , gtp3
        .byte   W36
        .byte           N23   , Fs4
        .byte   W24
@ 030   ----------------------------------------
        .byte   W96
@ 031   ----------------------------------------
        .byte                   Cs4
        .byte   W24
        .byte           N11
        .byte   W12
        .byte           N32   , Ds4 , v075 , gtp3
        .byte   W36
        .byte           N23   , Fn4
        .byte   W24
@ 032   ----------------------------------------
        .byte   W96
@ 033   ----------------------------------------
        .byte   W96
@ 034   ----------------------------------------
        .byte   W96
@ 035   ----------------------------------------
        .byte   W96
@ 036   ----------------------------------------
        .byte   W96
@ 037   ----------------------------------------
        .byte   W96
@ 038   ----------------------------------------
        .byte   W96
@ 039   ----------------------------------------
        .byte   PATT
         .word  mus_etc_hana_ni_natte_0_35
@ 040   ----------------------------------------
        .byte   W96
@ 041   ----------------------------------------
        .byte   W96
@ 042   ----------------------------------------
        .byte   W96
@ 043   ----------------------------------------
        .byte   W96
@ 044   ----------------------------------------
        .byte   W96
@ 045   ----------------------------------------
        .byte   W96
@ 046   ----------------------------------------
        .byte           N92   , An4 , v088 , gtp3
        .byte   W96
@ 047   ----------------------------------------
        .byte   W96
@ 048   ----------------------------------------
        .byte   W96
@ 049   ----------------------------------------
        .byte   W96
@ 050   ----------------------------------------
        .byte   W96
@ 051   ----------------------------------------
        .byte   W96
@ 052   ----------------------------------------
        .byte   W96
@ 053   ----------------------------------------
        .byte   W96
@ 054   ----------------------------------------
        .byte   W96
@ 055   ----------------------------------------
        .byte   W96
@ 056   ----------------------------------------
        .byte   W96
@ 057   ----------------------------------------
        .byte   W96
@ 058   ----------------------------------------
        .byte   W96
@ 059   ----------------------------------------
        .byte   W96
@ 060   ----------------------------------------
        .byte   W96
@ 061   ----------------------------------------
        .byte   W96
@ 062   ----------------------------------------
        .byte   W96
@ 063   ----------------------------------------
        .byte   W11
        .byte   GOTO
         .word  mus_etc_hana_ni_natte_1_LOOP
        .byte   FINE

@****************** Track 2 (Midi-Chn.2) ******************@

mus_etc_hana_ni_natte_2:
        .byte   KEYSH , mus_etc_hana_ni_natte_key+0
@ 000   ----------------------------------------
        .byte           VOICE , 125 @ Sawtooth
        .byte           PAN   , c_v-32
        .byte           BENDR , 12
        .byte           VOL   , 100*mus_etc_hana_ni_natte_mvl/mxv
        .byte   W96
@ 001   ----------------------------------------
        .byte   W96
@ 002   ----------------------------------------
        .byte   W96
@ 003   ----------------------------------------
mus_etc_hana_ni_natte_2_3:
        .byte           N11   , Cn3 , v080
        .byte   W12
        .byte                   Ds3
        .byte   W24
        .byte                   En3
        .byte   W24
        .byte           N32   , Fn3 , v080 , gtp3
        .byte   W36
        .byte   PEND
@ 004   ----------------------------------------
mus_etc_hana_ni_natte_2_LOOP:
        .byte           N32   , As2 , v126 , gtp3
        .byte   W36
        .byte           N80   , As3 , v126 , gtp3
        .byte   W60
@ 005   ----------------------------------------
        .byte   W24
        .byte           N11   , As2
        .byte   W12
        .byte                   As2
        .byte   W12
        .byte           N23   , Cs3
        .byte   W24
        .byte           N11   , Fn3
        .byte   W12
        .byte           TIE   , As3
        .byte   W12
@ 006   ----------------------------------------
        .byte   W92
        .byte   W03
        .byte           EOT
        .byte   W01
@ 007   ----------------------------------------
        .byte   W24
        .byte           N23
        .byte   W24
        .byte                   Cs4
        .byte   W24
        .byte           N11   , Cn4
        .byte   W12
        .byte           TIE   , Gs3
        .byte   W12
@ 008   ----------------------------------------
        .byte   W92
        .byte   W03
        .byte           EOT
        .byte   W01
@ 009   ----------------------------------------
        .byte   W24
        .byte           N11
        .byte   W12
        .byte                   Gs3
        .byte   W12
        .byte           N23   , Cs4
        .byte   W24
        .byte           N11   , Cn4
        .byte   W12
        .byte           N68   , Ds3 , v126 , gtp3
        .byte   W12
@ 010   ----------------------------------------
        .byte   W60
        .byte           N11
        .byte   W12
        .byte                   Fn3
        .byte   W12
        .byte                   Fs3
        .byte   W12
@ 011   ----------------------------------------
        .byte           N23
        .byte   W24
        .byte           N11   , Fn3
        .byte   W12
        .byte           N23   , Ds3
        .byte   W24
        .byte           N32   , Fs3 , v126 , gtp3
        .byte   W36
@ 012   ----------------------------------------
        .byte   W12
        .byte           N11   , Fn3 , v075
        .byte   W12
        .byte                   Fn3
        .byte   W12
        .byte                   Fn3
        .byte   W12
        .byte           N23
        .byte   W24
        .byte           N11
        .byte   W12
        .byte           N23   , Ds3
        .byte   W12
@ 013   ----------------------------------------
        .byte   W12
        .byte                   Fn3
        .byte   W24
        .byte           N11
        .byte   W12
        .byte           N23   , Ds3
        .byte   W24
        .byte                   Cs3
        .byte   W24
@ 014   ----------------------------------------
        .byte   W96
@ 015   ----------------------------------------
        .byte   W96
@ 016   ----------------------------------------
        .byte   W12
        .byte           N11
        .byte   W12
        .byte                   Ds3
        .byte   W12
        .byte                   Ds3
        .byte   W12
        .byte           N23
        .byte   W24
        .byte           N11
        .byte   W12
        .byte           N23
        .byte   W12
@ 017   ----------------------------------------
        .byte   W12
        .byte                   Ds3
        .byte   W24
        .byte           N11   , Fn3
        .byte   W12
        .byte           N23   , Ds3
        .byte   W24
        .byte                   Cs3
        .byte   W24
@ 018   ----------------------------------------
        .byte   W96
@ 019   ----------------------------------------
        .byte   W96
@ 020   ----------------------------------------
        .byte   W12
        .byte           N11   , Fn3 , v088
        .byte   W12
        .byte                   Fn3
        .byte   W12
        .byte                   Fn3
        .byte   W12
        .byte           N23
        .byte   W24
        .byte           N11   , Ds3
        .byte   W12
        .byte           N23
        .byte   W12
@ 021   ----------------------------------------
        .byte   W12
        .byte                   Ds3
        .byte   W24
        .byte           N11
        .byte   W12
        .byte           N23   , Cs3
        .byte   W24
        .byte                   Cn3
        .byte   W24
@ 022   ----------------------------------------
        .byte   W96
@ 023   ----------------------------------------
        .byte                   Ds3
        .byte   W24
        .byte           N11   , Cs3
        .byte   W12
        .byte           N44   , Fn3 , v088 , gtp3
        .byte   W60
@ 024   ----------------------------------------
        .byte   W12
        .byte           N11   , Cs3
        .byte   W12
        .byte                   Ds3
        .byte   W12
        .byte                   Ds3
        .byte   W12
        .byte           N23
        .byte   W24
        .byte           N11
        .byte   W12
        .byte           N23
        .byte   W12
@ 025   ----------------------------------------
        .byte   W12
        .byte                   Ds3
        .byte   W24
        .byte           N11   , Cs3
        .byte   W12
        .byte           N23   , Ds3
        .byte   W24
        .byte                   Ds3
        .byte   W24
@ 026   ----------------------------------------
        .byte                   Ds3
        .byte   W24
        .byte           N11
        .byte   W12
        .byte                   Fn3
        .byte   W12
        .byte                   Ds3
        .byte   W12
        .byte           N32   , Cs3 , v088 , gtp3
        .byte   W36
@ 027   ----------------------------------------
        .byte           N11   , Gs3
        .byte   W12
        .byte                   As2
        .byte   W12
        .byte                   Fn3
        .byte   W12
        .byte                   Gs3
        .byte   W12
        .byte                   Ds3
        .byte   W12
        .byte                   Fn3
        .byte   W24
        .byte           N05   , Ds3
        .byte   W06
        .byte                   Cs3
        .byte   W06
@ 028   ----------------------------------------
        .byte           N23   , As2
        .byte   W24
        .byte           N68   , Fn3 , v062 , gtp3
        .byte   W72
@ 029   ----------------------------------------
        .byte           N23
        .byte   W96
@ 030   ----------------------------------------
        .byte   W24
        .byte           N68   , Ds3 , v062 , gtp3
        .byte   W72
@ 031   ----------------------------------------
        .byte           N23
        .byte   W96
@ 032   ----------------------------------------
        .byte   W24
        .byte           N68   , As2 , v062 , gtp3
        .byte   W72
@ 033   ----------------------------------------
        .byte           N23
        .byte   W24
        .byte           TIE   , Dn3
        .byte   W72
@ 034   ----------------------------------------
        .byte   W92
        .byte   W03
        .byte           EOT
        .byte   W01
@ 035   ----------------------------------------
        .byte           N92   , Dn3 , v062 , gtp3
        .byte   W96
@ 036   ----------------------------------------
        .byte   W96
@ 037   ----------------------------------------
        .byte   W96
@ 038   ----------------------------------------
        .byte   W96
@ 039   ----------------------------------------
        .byte   W96
@ 040   ----------------------------------------
        .byte   W96
@ 041   ----------------------------------------
        .byte   W96
@ 042   ----------------------------------------
        .byte   W96
@ 043   ----------------------------------------
        .byte   W96
@ 044   ----------------------------------------
        .byte   W96
@ 045   ----------------------------------------
        .byte           N23   , Fs3
        .byte   W24
        .byte           N11
        .byte   W12
        .byte           N23
        .byte   W24
        .byte           N32   , Gn3 , v062 , gtp3
        .byte   W36
@ 046   ----------------------------------------
        .byte           N92   , Fs3 , v088 , gtp3
        .byte   W96
@ 047   ----------------------------------------
        .byte   W96
@ 048   ----------------------------------------
        .byte   W96
@ 049   ----------------------------------------
        .byte   W96
@ 050   ----------------------------------------
mus_etc_hana_ni_natte_2_50:
        .byte   W48
        .byte           N11   , Fn3 , v088
        .byte   W24
        .byte                   Fs3
        .byte   W24
        .byte   PEND
@ 051   ----------------------------------------
        .byte           N23   , Gn3
        .byte   W96
@ 052   ----------------------------------------
        .byte   W96
@ 053   ----------------------------------------
        .byte   W96
@ 054   ----------------------------------------
        .byte   W96
@ 055   ----------------------------------------
        .byte   W96
@ 056   ----------------------------------------
        .byte   W96
@ 057   ----------------------------------------
        .byte   W96
@ 058   ----------------------------------------
        .byte   W96
@ 059   ----------------------------------------
        .byte   W96
@ 060   ----------------------------------------
        .byte   W96
@ 061   ----------------------------------------
        .byte   W96
@ 062   ----------------------------------------
        .byte   W96
@ 063   ----------------------------------------
        .byte   W11
        .byte   GOTO
         .word  mus_etc_hana_ni_natte_2_LOOP
        .byte   FINE

@****************** Track 3 (Midi-Chn.3) ******************@

mus_etc_hana_ni_natte_3:
        .byte   KEYSH , mus_etc_hana_ni_natte_key+0
@ 000   ----------------------------------------
        .byte           VOICE , 100 @ Over Guitar
        .byte           PAN   , c_v+45
        .byte           BENDR , 12
        .byte           VOL   , 100*mus_etc_hana_ni_natte_mvl/mxv
        .byte   W96
@ 001   ----------------------------------------
        .byte   W96
@ 002   ----------------------------------------
        .byte   W96
@ 003   ----------------------------------------
        .byte   PATT
         .word  mus_etc_hana_ni_natte_2_3
@ 004   ----------------------------------------
mus_etc_hana_ni_natte_3_LOOP:
        .byte   W96
@ 005   ----------------------------------------
        .byte   W96
@ 006   ----------------------------------------
        .byte           N32   , Cs3 , v075 , gtp3
        .byte   W36
        .byte                   Cs4
        .byte   W36
        .byte           N44   , Fn3 , v075 , gtp3
        .byte   W24
@ 007   ----------------------------------------
        .byte   W96
@ 008   ----------------------------------------
        .byte           N32   , Ds3 , v075 , gtp3
        .byte   W36
        .byte                   Ds4
        .byte   W36
        .byte           N23   , Ds3
        .byte   W24
@ 009   ----------------------------------------
        .byte   W96
@ 010   ----------------------------------------
        .byte   W96
@ 011   ----------------------------------------
        .byte   W96
@ 012   ----------------------------------------
        .byte   W12
        .byte           N11   , Cs3 , v080
        .byte   W12
        .byte                   Cs3
        .byte   W12
        .byte                   Cs3
        .byte   W12
        .byte           N23
        .byte   W24
        .byte           N11
        .byte   W12
        .byte           N23   , Cn3
        .byte   W12
@ 013   ----------------------------------------
        .byte   W12
        .byte                   Cs3
        .byte   W24
        .byte           N11
        .byte   W12
        .byte           N23   , Cn3
        .byte   W24
        .byte                   As2
        .byte   W24
@ 014   ----------------------------------------
        .byte   W96
@ 015   ----------------------------------------
        .byte   W96
@ 016   ----------------------------------------
        .byte   W12
        .byte           N11   , Cs3
        .byte   W12
        .byte                   Gs2
        .byte   W12
        .byte                   Gs2
        .byte   W12
        .byte           N23
        .byte   W36
        .byte                   Gs2
        .byte   W12
@ 017   ----------------------------------------
        .byte   W12
        .byte                   Gs2
        .byte   W24
        .byte           N11   , Cs3
        .byte   W12
        .byte           N23   , Gs2
        .byte   W24
        .byte                   Gs2
        .byte   W24
@ 018   ----------------------------------------
        .byte   W96
@ 019   ----------------------------------------
        .byte   W96
@ 020   ----------------------------------------
        .byte   W12
        .byte           N11   , Cs3 , v096
        .byte   W12
        .byte                   Cs3
        .byte   W12
        .byte                   Cs3
        .byte   W12
        .byte           N23
        .byte   W24
        .byte           N11   , Cn3
        .byte   W12
        .byte           N23
        .byte   W12
@ 021   ----------------------------------------
        .byte   W12
        .byte                   Cn3
        .byte   W24
        .byte           N11
        .byte   W12
        .byte           N23   , As2
        .byte   W24
        .byte                   Gs2
        .byte   W24
@ 022   ----------------------------------------
        .byte   W96
@ 023   ----------------------------------------
        .byte                   Cn3
        .byte   W24
        .byte           N11
        .byte   W12
        .byte           N44   , Ds3 , v096 , gtp3
        .byte   W60
@ 024   ----------------------------------------
        .byte   W12
        .byte           N11   , Fs2
        .byte   W12
        .byte                   As2
        .byte   W12
        .byte                   As2
        .byte   W12
        .byte           N23
        .byte   W24
        .byte           N11   , Ds3
        .byte   W12
        .byte           N23   , As2
        .byte   W12
@ 025   ----------------------------------------
        .byte   W12
        .byte                   As2
        .byte   W24
        .byte           N11   , Ds3
        .byte   W12
        .byte           N23   , As2
        .byte   W24
        .byte                   As2
        .byte   W24
@ 026   ----------------------------------------
        .byte                   As2
        .byte   W24
        .byte           N11
        .byte   W12
        .byte                   Fn3
        .byte   W12
        .byte                   Ds3
        .byte   W12
        .byte           N32   , An2 , v096 , gtp3
        .byte   W36
@ 027   ----------------------------------------
        .byte           N11   , Gs3
        .byte   W12
        .byte                   As2
        .byte   W12
        .byte                   Fn3
        .byte   W12
        .byte                   Gs3
        .byte   W12
        .byte                   Ds3
        .byte   W12
        .byte           N23   , Fn3
        .byte   W24
        .byte           N05
        .byte   W06
        .byte                   Ds3
        .byte   W06
@ 028   ----------------------------------------
        .byte           N23   , As2
        .byte   W48
        .byte           N44   , Gs3 , v062 , gtp3
        .byte   W48
@ 029   ----------------------------------------
        .byte           N23
        .byte   W96
@ 030   ----------------------------------------
        .byte   W48
        .byte           N44   , Fs3 , v062 , gtp3
        .byte   W48
@ 031   ----------------------------------------
        .byte           N23
        .byte   W96
@ 032   ----------------------------------------
        .byte   W48
        .byte           N44   , Cs3 , v062 , gtp3
        .byte   W48
@ 033   ----------------------------------------
        .byte           N23
        .byte   W48
        .byte           N44   , Fs3 , v062 , gtp3
        .byte   W48
@ 034   ----------------------------------------
        .byte           N92   , Fn3 , v062 , gtp3
        .byte   W96
@ 035   ----------------------------------------
        .byte           N11   , Fn3 , v080
        .byte   W12
        .byte                   Gn3
        .byte   W12
        .byte                   Dn3
        .byte   W12
        .byte                   Fn3
        .byte   W12
        .byte                   An2
        .byte   W12
        .byte                   Cn3
        .byte   W12
        .byte           N23   , Fn2
        .byte   W24
@ 036   ----------------------------------------
        .byte   W96
@ 037   ----------------------------------------
        .byte   W96
@ 038   ----------------------------------------
        .byte   W96
@ 039   ----------------------------------------
        .byte   W96
@ 040   ----------------------------------------
        .byte   W96
@ 041   ----------------------------------------
        .byte   W96
@ 042   ----------------------------------------
        .byte   W96
@ 043   ----------------------------------------
        .byte   W96
@ 044   ----------------------------------------
        .byte   W96
@ 045   ----------------------------------------
mus_etc_hana_ni_natte_3_45:
        .byte           N23   , Cn3 , v080
        .byte   W24
        .byte           N11   , Dn3
        .byte   W12
        .byte           N23
        .byte   W24
        .byte           N32   , Dn3 , v080 , gtp3
        .byte   W36
        .byte   PEND
@ 046   ----------------------------------------
        .byte           N92   , Fs3 , v088 , gtp3
        .byte   W96
@ 047   ----------------------------------------
        .byte   W96
@ 048   ----------------------------------------
        .byte   W96
@ 049   ----------------------------------------
        .byte   W96
@ 050   ----------------------------------------
        .byte   PATT
         .word  mus_etc_hana_ni_natte_2_50
@ 051   ----------------------------------------
        .byte           N23   , Gn3 , v088
        .byte   W96
@ 052   ----------------------------------------
        .byte   W96
@ 053   ----------------------------------------
        .byte   W96
@ 054   ----------------------------------------
        .byte   W96
@ 055   ----------------------------------------
        .byte   W96
@ 056   ----------------------------------------
        .byte   W96
@ 057   ----------------------------------------
        .byte   W96
@ 058   ----------------------------------------
        .byte   W96
@ 059   ----------------------------------------
        .byte   W96
@ 060   ----------------------------------------
        .byte   W96
@ 061   ----------------------------------------
        .byte   W96
@ 062   ----------------------------------------
        .byte   W96
@ 063   ----------------------------------------
        .byte   W11
        .byte   GOTO
         .word  mus_etc_hana_ni_natte_3_LOOP
        .byte   FINE

@****************** Track 4 (Midi-Chn.4) ******************@

mus_etc_hana_ni_natte_4:
        .byte   KEYSH , mus_etc_hana_ni_natte_key+0
@ 000   ----------------------------------------
        .byte           VOL   , 127*mus_etc_hana_ni_natte_mvl/mxv
        .byte           PAN   , c_v+24
        .byte           VOICE , 37 @ Bass
        .byte           BENDR , 12
        .byte   W96
@ 001   ----------------------------------------
        .byte   W96
@ 002   ----------------------------------------
        .byte   W96
@ 003   ----------------------------------------
        .byte   PATT
         .word  mus_etc_hana_ni_natte_2_3
@ 004   ----------------------------------------
mus_etc_hana_ni_natte_4_LOOP:
        .byte   W96
@ 005   ----------------------------------------
        .byte   W96
@ 006   ----------------------------------------
        .byte           N32   , As1 , v080 , gtp3
        .byte   W36
        .byte                   As2
        .byte   W36
        .byte           N44   , Cs2 , v080 , gtp3
        .byte   W24
@ 007   ----------------------------------------
        .byte   W96
@ 008   ----------------------------------------
        .byte           N32   , Cs2 , v080 , gtp3
        .byte   W36
        .byte                   Cs3
        .byte   W36
        .byte           N23   , Ds2
        .byte   W24
@ 009   ----------------------------------------
        .byte   W96
@ 010   ----------------------------------------
        .byte   W96
@ 011   ----------------------------------------
        .byte   W96
@ 012   ----------------------------------------
        .byte   W96
@ 013   ----------------------------------------
        .byte   W96
@ 014   ----------------------------------------
        .byte   W96
@ 015   ----------------------------------------
mus_etc_hana_ni_natte_4_15:
        .byte           N23   , Ds3 , v075
        .byte   W24
        .byte           N11   , Cs3
        .byte   W12
        .byte           N44   , Fn3 , v075 , gtp3
        .byte   W60
        .byte   PEND
@ 016   ----------------------------------------
        .byte   W96
@ 017   ----------------------------------------
        .byte   W96
@ 018   ----------------------------------------
        .byte   W96
@ 019   ----------------------------------------
        .byte           N23   , Cn3
        .byte   W24
        .byte           N11   , As2
        .byte   W12
        .byte           N44   , Fn3 , v075 , gtp3
        .byte   W60
@ 020   ----------------------------------------
        .byte           N11   , Cs2 , v062
        .byte   W12
        .byte                   As1
        .byte   W12
        .byte                   As1
        .byte   W12
        .byte                   As1
        .byte   W12
        .byte                   Cs2
        .byte   W12
        .byte                   As1
        .byte   W12
        .byte                   As1
        .byte   W12
        .byte                   As1
        .byte   W12
@ 021   ----------------------------------------
        .byte                   Ds2
        .byte   W12
        .byte                   As1
        .byte   W12
        .byte                   Cs2
        .byte   W12
        .byte                   Cs2
        .byte   W12
        .byte                   Ds2
        .byte   W12
        .byte                   Fn2
        .byte   W12
        .byte                   Ds2
        .byte   W12
        .byte                   Cs2
        .byte   W12
@ 022   ----------------------------------------
        .byte                   Cs2
        .byte   W12
        .byte                   Cs2
        .byte   W12
        .byte                   Cs2
        .byte   W12
        .byte                   Cs2
        .byte   W12
        .byte                   Gs1
        .byte   W12
        .byte                   As1
        .byte   W12
        .byte                   Cn2
        .byte   W12
        .byte                   Cs2
        .byte   W12
@ 023   ----------------------------------------
        .byte   W12
        .byte                   Fn2
        .byte   W12
        .byte                   Gs2
        .byte   W12
        .byte                   As2
        .byte   W12
        .byte                   Gs2
        .byte   W12
        .byte                   Fn2
        .byte   W12
        .byte                   Ds2
        .byte   W12
        .byte                   Cs2
        .byte   W12
@ 024   ----------------------------------------
        .byte                   Ds2
        .byte   W12
        .byte                   Ds2
        .byte   W12
        .byte                   Ds2
        .byte   W12
        .byte           N23   , As1
        .byte   W24
        .byte           N11   , Ds2
        .byte   W12
        .byte                   Ds2
        .byte   W12
        .byte                   Ds2
        .byte   W12
@ 025   ----------------------------------------
        .byte   W12
        .byte                   Cs2
        .byte   W12
        .byte                   Cs2
        .byte   W12
        .byte                   Cs2
        .byte   W12
        .byte                   Gs1
        .byte   W12
        .byte                   As1
        .byte   W12
        .byte                   Cs2
        .byte   W12
        .byte                   Ds2
        .byte   W12
@ 026   ----------------------------------------
        .byte                   Fn2
        .byte   W12
        .byte                   Fn2
        .byte   W12
        .byte                   Fn2
        .byte   W12
        .byte           N23   , Gs2
        .byte   W24
        .byte                   An2
        .byte   W24
        .byte           N11   , Fn2
        .byte   W12
@ 027   ----------------------------------------
        .byte           N92   , As2 , v062 , gtp3
        .byte   W96
@ 028   ----------------------------------------
        .byte           N23   , As2 , v080
        .byte   W24
        .byte           N11   , Gs2
        .byte   W12
        .byte                   As2
        .byte   W12
        .byte                   As2
        .byte   W12
        .byte                   As2
        .byte   W12
        .byte           N23
        .byte   W24
@ 029   ----------------------------------------
        .byte                   As2
        .byte   W36
        .byte           N32   , Cn3 , v080 , gtp3
        .byte   W36
        .byte           N23   , Cs3
        .byte   W24
@ 030   ----------------------------------------
        .byte   W24
        .byte           N11   , An2
        .byte   W12
        .byte                   As2
        .byte   W12
        .byte           N23
        .byte   W24
        .byte                   As2
        .byte           N23   , Cn3
        .byte   W24
@ 031   ----------------------------------------
        .byte                   As2
        .byte   W24
        .byte           N11   , Cs3
        .byte   W12
        .byte           N32   , Cn3 , v080 , gtp3
        .byte   W36
        .byte           N23   , Cs3
        .byte   W24
@ 032   ----------------------------------------
        .byte   W24
        .byte           N11   , Ds3
        .byte   W12
        .byte                   Ds3
        .byte   W12
        .byte           N23
        .byte   W24
        .byte                   Ds3
        .byte   W24
@ 033   ----------------------------------------
        .byte                   An2
        .byte           N23   , Cn3
        .byte           N23   , Ds3
        .byte   W24
        .byte           N11   , An2
        .byte           N11   , Ds3
        .byte   W12
        .byte           N23   , As2
        .byte           N23   , Cn3
        .byte           N23   , Fn3
        .byte   W24
        .byte           N32   , Cn3 , v080 , gtp3
        .byte                   Ds3
        .byte           N32   , Fs3 , v080 , gtp3
        .byte   W36
@ 034   ----------------------------------------
        .byte                   Fn3
        .byte   W36
        .byte                   Ds3
        .byte   W36
        .byte           N23   , Dn3
        .byte   W24
@ 035   ----------------------------------------
        .byte           N11   , An3
        .byte   W12
        .byte                   Dn4
        .byte   W12
        .byte                   Dn3
        .byte   W12
        .byte                   An3
        .byte   W12
        .byte                   An2
        .byte   W12
        .byte                   Dn3
        .byte   W12
        .byte                   Dn2
        .byte   W12
        .byte                   An2
        .byte   W12
@ 036   ----------------------------------------
        .byte           N32   , En2 , v080 , gtp3
        .byte   W36
        .byte                   An2
        .byte   W36
        .byte           N23   , Dn3
        .byte   W24
@ 037   ----------------------------------------
        .byte           N32   , Cs3 , v080 , gtp3
        .byte   W36
        .byte                   An2
        .byte   W36
        .byte           N23   , Gn2
        .byte   W24
@ 038   ----------------------------------------
        .byte           N44   , Fn2 , v080 , gtp3
        .byte   W48
        .byte                   En2
        .byte   W48
@ 039   ----------------------------------------
mus_etc_hana_ni_natte_4_39:
        .byte           N32   , Cn2 , v080 , gtp3
        .byte   W36
        .byte                   Bn1
        .byte   W36
        .byte           N23   , As1
        .byte   W24
        .byte   PEND
@ 040   ----------------------------------------
        .byte                   Ds2
        .byte   W96
@ 041   ----------------------------------------
        .byte   W96
@ 042   ----------------------------------------
        .byte           N11
        .byte   W12
        .byte                   Ds2
        .byte   W60
        .byte                   Ds2
        .byte   W12
        .byte                   Ds2
        .byte   W12
@ 043   ----------------------------------------
        .byte   W48
        .byte                   Ds2
        .byte   W12
        .byte                   Ds2
        .byte   W24
        .byte                   Fs2
        .byte   W12
@ 044   ----------------------------------------
        .byte   W96
@ 045   ----------------------------------------
        .byte   W96
@ 046   ----------------------------------------
        .byte           N92   , Cn3 , v088 , gtp3
        .byte   W96
@ 047   ----------------------------------------
        .byte   W96
@ 048   ----------------------------------------
        .byte   W96
@ 049   ----------------------------------------
        .byte   W96
@ 050   ----------------------------------------
        .byte   W96
@ 051   ----------------------------------------
        .byte   W96
@ 052   ----------------------------------------
        .byte   W96
@ 053   ----------------------------------------
        .byte   W96
@ 054   ----------------------------------------
        .byte   W96
@ 055   ----------------------------------------
        .byte   W96
@ 056   ----------------------------------------
        .byte   W96
@ 057   ----------------------------------------
        .byte   W96
@ 058   ----------------------------------------
        .byte   W96
@ 059   ----------------------------------------
        .byte   W96
@ 060   ----------------------------------------
        .byte   W96
@ 061   ----------------------------------------
        .byte   W96
@ 062   ----------------------------------------
        .byte   W96
@ 063   ----------------------------------------
        .byte   W11
        .byte   GOTO
         .word  mus_etc_hana_ni_natte_4_LOOP
        .byte   FINE

@****************** Track 5 (Midi-Chn.5) ******************@

mus_etc_hana_ni_natte_5:
        .byte   KEYSH , mus_etc_hana_ni_natte_key+0
@ 000   ----------------------------------------
        .byte           VOL   , 127*mus_etc_hana_ni_natte_mvl/mxv
        .byte           PAN   , c_v-24
        .byte           VOICE , 33 @ Bass
        .byte           BENDR , 12
        .byte   W96
@ 001   ----------------------------------------
        .byte   W96
@ 002   ----------------------------------------
        .byte   W96
@ 003   ----------------------------------------
        .byte   W96
@ 004   ----------------------------------------
mus_etc_hana_ni_natte_5_LOOP:
        .byte           N11   , Cs2 , v075
        .byte   W12
        .byte                   As1
        .byte   W12
        .byte                   Cs2
        .byte   W12
        .byte                   As1
        .byte   W12
        .byte                   Cs2
        .byte   W12
        .byte                   As1
        .byte   W12
        .byte                   Cs2
        .byte   W12
        .byte                   As1
        .byte   W12
@ 005   ----------------------------------------
        .byte                   Cs2
        .byte   W12
        .byte                   As1
        .byte   W12
        .byte                   Cs2
        .byte   W12
        .byte                   Ds2
        .byte   W12
        .byte                   Fn2
        .byte   W12
        .byte                   Gs2
        .byte   W12
        .byte                   Cn3
        .byte   W12
        .byte                   Cs3
        .byte   W12
@ 006   ----------------------------------------
        .byte                   Cs2
        .byte   W12
        .byte                   Fs1
        .byte   W12
        .byte                   Cs2
        .byte   W12
        .byte                   Fs1
        .byte   W12
        .byte                   Cs2
        .byte   W12
        .byte                   Fs1
        .byte   W12
        .byte                   Cs2
        .byte   W12
        .byte                   Fs1
        .byte   W12
@ 007   ----------------------------------------
        .byte                   Cs2
        .byte   W12
        .byte                   As1
        .byte   W12
        .byte                   Cs2
        .byte   W12
        .byte                   Fn2
        .byte   W12
        .byte                   Fs2
        .byte   W12
        .byte                   As1
        .byte   W12
        .byte                   Fs2
        .byte   W12
        .byte                   As1
        .byte   W12
@ 008   ----------------------------------------
mus_etc_hana_ni_natte_5_8:
        .byte           N11   , Gs1 , v075
        .byte   W12
        .byte                   Gs1
        .byte   W12
        .byte                   Cs2
        .byte   W12
        .byte                   Ds2
        .byte   W12
        .byte                   Fn2
        .byte   W12
        .byte                   Gs1
        .byte   W12
        .byte                   Cs2
        .byte   W12
        .byte                   Gs1
        .byte   W12
        .byte   PEND
@ 009   ----------------------------------------
        .byte   PATT
         .word  mus_etc_hana_ni_natte_5_8
@ 010   ----------------------------------------
        .byte           N11   , Ds2 , v075
        .byte   W12
        .byte                   Gs1
        .byte   W12
        .byte                   Ds2
        .byte   W12
        .byte                   Gs2
        .byte   W12
        .byte                   Cn3
        .byte   W12
        .byte                   Gs1
        .byte   W12
        .byte                   Gs2
        .byte   W12
        .byte                   Gs1
        .byte   W12
@ 011   ----------------------------------------
        .byte                   An1
        .byte   W12
        .byte                   An1
        .byte   W12
        .byte                   Cs2
        .byte   W12
        .byte                   Ds2
        .byte   W12
        .byte                   Fn2
        .byte   W12
        .byte                   An1
        .byte   W12
        .byte                   Cn3
        .byte   W12
        .byte                   An1
        .byte   W12
@ 012   ----------------------------------------
        .byte                   As1 , v080
        .byte   W12
        .byte                   As1
        .byte   W12
        .byte                   As1
        .byte   W12
        .byte           N23
        .byte   W24
        .byte           N11
        .byte   W12
        .byte                   As1
        .byte   W12
        .byte                   As1
        .byte   W12
@ 013   ----------------------------------------
        .byte   W12
        .byte                   As1
        .byte   W12
        .byte                   Cs2
        .byte   W12
        .byte                   As1
        .byte   W12
        .byte                   Ds2
        .byte   W12
        .byte                   Fn2
        .byte   W12
        .byte                   Ds2
        .byte   W12
        .byte                   Cs2
        .byte   W12
@ 014   ----------------------------------------
        .byte                   Fs1
        .byte   W12
        .byte                   Fs1
        .byte   W12
        .byte                   Fs1
        .byte   W12
        .byte           N23
        .byte   W24
        .byte           N11
        .byte   W12
        .byte                   Fs1
        .byte   W12
        .byte                   Fs1
        .byte   W12
@ 015   ----------------------------------------
        .byte   W12
        .byte                   Fs1
        .byte   W12
        .byte                   Cs2
        .byte   W12
        .byte                   Ds2
        .byte   W12
        .byte                   Fn2
        .byte   W12
        .byte                   Ds2
        .byte   W12
        .byte                   Cs2
        .byte   W12
        .byte                   Fs1
        .byte   W12
@ 016   ----------------------------------------
        .byte                   Cs2
        .byte   W12
        .byte                   Cs2
        .byte   W12
        .byte                   Cs2
        .byte   W12
        .byte           N23
        .byte   W24
        .byte           N11
        .byte   W12
        .byte                   Cs2
        .byte   W12
        .byte                   Cs2
        .byte   W12
@ 017   ----------------------------------------
        .byte   W12
        .byte                   Cs2
        .byte   W12
        .byte                   Cs2
        .byte   W12
        .byte                   Cs2
        .byte   W12
        .byte                   Ds2
        .byte   W12
        .byte                   Ds2
        .byte   W12
        .byte                   Fn2
        .byte   W12
        .byte                   Fn2
        .byte   W12
@ 018   ----------------------------------------
        .byte                   Gs1
        .byte   W12
        .byte                   Gs1
        .byte   W12
        .byte                   Gs1
        .byte   W12
        .byte           N23
        .byte   W24
        .byte           N11
        .byte   W12
        .byte                   Gs1
        .byte   W12
        .byte                   Gs1
        .byte   W12
@ 019   ----------------------------------------
        .byte   W12
        .byte                   Gs1
        .byte   W12
        .byte                   Gs1
        .byte   W12
        .byte                   Gs1
        .byte   W12
        .byte                   Gs1
        .byte   W12
        .byte                   Cn2
        .byte   W12
        .byte                   Gs1
        .byte   W12
        .byte                   As1
        .byte   W12
@ 020   ----------------------------------------
        .byte                   As1 , v062
        .byte   W12
        .byte                   Fn1
        .byte   W12
        .byte                   Gs1
        .byte   W12
        .byte                   As1
        .byte   W12
        .byte                   Cs2
        .byte   W12
        .byte                   As1
        .byte   W12
        .byte                   As1
        .byte   W12
        .byte                   As1
        .byte   W12
@ 021   ----------------------------------------
        .byte                   Ds2
        .byte   W12
        .byte                   As1
        .byte   W12
        .byte                   Cs2
        .byte   W12
        .byte                   As1
        .byte   W12
        .byte                   Gs1
        .byte   W12
        .byte                   As1
        .byte   W12
        .byte                   Ds1
        .byte   W12
        .byte                   Fn1
        .byte   W12
@ 022   ----------------------------------------
        .byte                   Fs1
        .byte   W12
        .byte                   Fs1
        .byte   W12
        .byte                   Fs1
        .byte   W12
        .byte                   Fs1
        .byte   W12
        .byte                   Gs1
        .byte   W12
        .byte                   Fs1
        .byte   W12
        .byte                   Fs1
        .byte   W12
        .byte                   Fs1
        .byte   W12
@ 023   ----------------------------------------
        .byte   W12
        .byte                   Fs1
        .byte   W12
        .byte                   Cs2
        .byte   W12
        .byte                   Ds2
        .byte   W12
        .byte                   Fn2
        .byte   W12
        .byte                   Ds2
        .byte   W12
        .byte                   Cs2
        .byte   W12
        .byte                   Fs1
        .byte   W12
@ 024   ----------------------------------------
        .byte                   Ds2
        .byte   W12
        .byte                   Ds2
        .byte   W12
        .byte                   Ds2
        .byte   W12
        .byte           N23   , Ds1
        .byte   W24
        .byte           N11   , Ds2
        .byte   W12
        .byte                   Ds2
        .byte   W12
        .byte                   Ds2
        .byte   W12
@ 025   ----------------------------------------
        .byte   W12
        .byte                   Fs1
        .byte   W12
        .byte                   Fs1
        .byte   W12
        .byte                   Fs1
        .byte   W12
        .byte                   Gs1
        .byte   W12
        .byte                   As1
        .byte   W12
        .byte                   Cs2
        .byte   W12
        .byte                   Ds2
        .byte   W12
@ 026   ----------------------------------------
        .byte                   Fn1
        .byte   W12
        .byte                   Fn1
        .byte   W12
        .byte                   Fn1
        .byte   W12
        .byte           N23   , Gs1
        .byte   W24
        .byte                   An1
        .byte   W24
        .byte           N11   , Fn1
        .byte   W12
@ 027   ----------------------------------------
        .byte           N92   , As1 , v062 , gtp3
        .byte   W96
@ 028   ----------------------------------------
        .byte   W96
@ 029   ----------------------------------------
        .byte   W96
@ 030   ----------------------------------------
        .byte   W24
        .byte           N44   , Fn2 , v080 , gtp3
        .byte   W72
@ 031   ----------------------------------------
        .byte   W96
@ 032   ----------------------------------------
        .byte   W24
        .byte           N11   , Fs1
        .byte   W12
        .byte                   Fs1
        .byte   W12
        .byte           N23
        .byte   W24
        .byte                   As1
        .byte   W24
@ 033   ----------------------------------------
        .byte   W96
@ 034   ----------------------------------------
        .byte           N32   , As1 , v080 , gtp3
        .byte   W36
        .byte                   Cn2
        .byte   W36
        .byte           N23   , Dn2
        .byte   W24
@ 035   ----------------------------------------
        .byte   W96
@ 036   ----------------------------------------
        .byte           N32   , En1 , v080 , gtp3
        .byte   W36
        .byte                   An1
        .byte   W36
        .byte           N23   , Dn2
        .byte   W24
@ 037   ----------------------------------------
        .byte           N32   , Cs2 , v080 , gtp3
        .byte   W36
        .byte                   An1
        .byte   W36
        .byte           N23   , Gn1
        .byte   W24
@ 038   ----------------------------------------
mus_etc_hana_ni_natte_5_38:
        .byte           N44   , Fn1 , v080 , gtp3
        .byte   W48
        .byte                   En1
        .byte   W48
        .byte   PEND
@ 039   ----------------------------------------
        .byte   PATT
         .word  mus_etc_hana_ni_natte_4_39
@ 040   ----------------------------------------
        .byte           N23   , Cn2 , v080
        .byte   W96
@ 041   ----------------------------------------
        .byte   W96
@ 042   ----------------------------------------
        .byte           N11
        .byte   W12
        .byte                   Cn2
        .byte   W60
        .byte                   Cn2
        .byte   W12
        .byte                   Cn2
        .byte   W12
@ 043   ----------------------------------------
        .byte   W48
        .byte                   Cn2
        .byte   W12
        .byte                   Cn2
        .byte   W24
        .byte                   Ds2
        .byte   W12
@ 044   ----------------------------------------
        .byte   W96
@ 045   ----------------------------------------
        .byte   W96
@ 046   ----------------------------------------
        .byte           N92   , An1 , v088 , gtp3
        .byte   W96
@ 047   ----------------------------------------
        .byte   W84
        .byte           N23   , Cn2 , v080
        .byte   W12
@ 048   ----------------------------------------
mus_etc_hana_ni_natte_5_48:
        .byte   W12
        .byte           N11   , Cn2 , v080
        .byte   W12
        .byte                   Dn2
        .byte   W12
        .byte                   Dn2
        .byte   W12
        .byte                   Ds2
        .byte   W12
        .byte                   Ds2
        .byte   W12
        .byte                   En2
        .byte   W12
        .byte                   En2
        .byte   W12
        .byte   PEND
@ 049   ----------------------------------------
        .byte           N23   , Fn2
        .byte   W24
        .byte           N11
        .byte   W12
        .byte                   Fn2
        .byte   W12
        .byte                   Fn2
        .byte   W12
        .byte           N23   , Fs2
        .byte   W24
        .byte                   Gn2
        .byte   W12
@ 050   ----------------------------------------
        .byte   W12
        .byte           N11
        .byte   W12
        .byte                   Dn2
        .byte   W12
        .byte                   Dn2
        .byte   W12
        .byte           N23   , Fn2
        .byte   W24
        .byte                   Fs2
        .byte   W24
@ 051   ----------------------------------------
        .byte           N11   , Gn2
        .byte   W24
        .byte                   Gn2
        .byte   W12
        .byte                   Gn2
        .byte   W12
        .byte                   As1
        .byte   W12
        .byte           N23   , Dn2
        .byte   W24
        .byte                   Ds2
        .byte   W12
@ 052   ----------------------------------------
        .byte   W12
        .byte           N11
        .byte   W12
        .byte                   Ds2
        .byte   W12
        .byte                   Ds2
        .byte   W12
        .byte           N23   , Gn2
        .byte   W24
        .byte           N11   , Fs2
        .byte   W12
        .byte           N23   , Fn2
        .byte   W12
@ 053   ----------------------------------------
        .byte   W12
        .byte           N11
        .byte   W12
        .byte                   Fn2
        .byte   W12
        .byte                   Dn2
        .byte   W12
        .byte                   Dn2
        .byte   W12
        .byte                   As1
        .byte   W12
        .byte                   As1
        .byte   W12
        .byte           N23   , Gn2
        .byte   W12
@ 054   ----------------------------------------
        .byte   W12
        .byte           N11
        .byte   W12
        .byte                   Gn2
        .byte   W12
        .byte                   Gn2
        .byte   W12
        .byte                   As2
        .byte   W12
        .byte                   As2
        .byte   W12
        .byte                   Cn3
        .byte   W12
        .byte                   Cn3
        .byte   W12
@ 055   ----------------------------------------
        .byte                   Bn2
        .byte   W24
        .byte                   Gn2
        .byte   W12
        .byte                   Gn2
        .byte   W12
        .byte                   As1
        .byte   W12
        .byte           N23   , Dn2
        .byte   W24
        .byte                   Cn2
        .byte   W12
@ 056   ----------------------------------------
        .byte   PATT
         .word  mus_etc_hana_ni_natte_5_48
@ 057   ----------------------------------------
        .byte           N23   , Fn2 , v080
        .byte   W24
        .byte           N11
        .byte   W12
        .byte                   Fn2
        .byte   W12
        .byte                   Fn2
        .byte   W12
        .byte                   Fn2
        .byte   W12
        .byte                   Fn2
        .byte   W12
        .byte           N23   , Gn2
        .byte   W12
@ 058   ----------------------------------------
        .byte   W12
        .byte           N11
        .byte   W12
        .byte                   Gn2
        .byte   W12
        .byte                   Dn2
        .byte   W12
        .byte                   Dn2
        .byte   W12
        .byte                   Dn2
        .byte   W12
        .byte                   Cn2
        .byte   W12
        .byte                   Cn2
        .byte   W12
@ 059   ----------------------------------------
        .byte                   Gn2
        .byte   W12
        .byte                   Gn2
        .byte   W12
        .byte                   Gn2
        .byte   W12
        .byte                   Dn2
        .byte   W12
        .byte                   Dn2
        .byte   W12
        .byte                   Dn2
        .byte   W12
        .byte                   Cn2
        .byte   W12
        .byte                   Cn2
        .byte   W12
@ 060   ----------------------------------------
        .byte                   Ds2
        .byte   W12
        .byte                   Ds2
        .byte   W12
        .byte                   Ds2
        .byte   W12
        .byte                   Ds2
        .byte   W12
        .byte                   Ds2
        .byte   W12
        .byte                   Ds2
        .byte   W12
        .byte                   Ds2
        .byte   W12
        .byte                   Ds2
        .byte   W12
@ 061   ----------------------------------------
        .byte                   Fn2
        .byte   W12
        .byte                   Fn2
        .byte   W12
        .byte                   Fs2
        .byte   W12
        .byte                   Fs2
        .byte   W12
        .byte                   Gn2
        .byte   W12
        .byte                   Gn2
        .byte   W12
        .byte                   An2
        .byte   W12
        .byte                   An2
        .byte   W12
@ 062   ----------------------------------------
        .byte   W96
@ 063   ----------------------------------------
        .byte   W11
        .byte   GOTO
         .word  mus_etc_hana_ni_natte_5_LOOP
        .byte   FINE

@****************** Track 6 (Midi-Chn.6) ******************@

mus_etc_hana_ni_natte_6:
        .byte   KEYSH , mus_etc_hana_ni_natte_key+0
@ 000   ----------------------------------------
        .byte           PAN   , c_v-17
        .byte           BENDR , 12
        .byte           VOICE , 56 @ Trumpet
        .byte           VOL   , 120*mus_etc_hana_ni_natte_mvl/mxv
        .byte   W96
@ 001   ----------------------------------------
        .byte   W96
@ 002   ----------------------------------------
        .byte   W96
@ 003   ----------------------------------------
        .byte           N11   , Cn4 , v080
        .byte   W12
        .byte                   Ds4
        .byte   W24
        .byte                   En4
        .byte   W24
        .byte           N32   , Fn4 , v080 , gtp3
        .byte   W36
@ 004   ----------------------------------------
mus_etc_hana_ni_natte_6_LOOP:
        .byte   W96
@ 005   ----------------------------------------
        .byte   W96
@ 006   ----------------------------------------
        .byte   W96
@ 007   ----------------------------------------
        .byte   W96
@ 008   ----------------------------------------
        .byte   W96
@ 009   ----------------------------------------
        .byte   W96
@ 010   ----------------------------------------
        .byte   W96
@ 011   ----------------------------------------
        .byte   W96
@ 012   ----------------------------------------
        .byte   W96
@ 013   ----------------------------------------
        .byte   W96
@ 014   ----------------------------------------
        .byte           N23   , Ds3 , v062
        .byte   W24
        .byte           N11   , Cs3
        .byte   W12
        .byte           N44   , Fn3 , v062 , gtp3
        .byte   W60
@ 015   ----------------------------------------
        .byte   W96
@ 016   ----------------------------------------
        .byte   W96
@ 017   ----------------------------------------
        .byte   W96
@ 018   ----------------------------------------
        .byte           N23   , Cn4
        .byte   W24
        .byte           N11   , As3
        .byte   W12
        .byte           N44   , Fn4 , v062 , gtp3
        .byte   W60
@ 019   ----------------------------------------
        .byte   W96
@ 020   ----------------------------------------
        .byte   W96
@ 021   ----------------------------------------
        .byte   W96
@ 022   ----------------------------------------
        .byte   PATT
         .word  mus_etc_hana_ni_natte_4_15
@ 023   ----------------------------------------
        .byte   W96
@ 024   ----------------------------------------
        .byte   W96
@ 025   ----------------------------------------
        .byte   W96
@ 026   ----------------------------------------
        .byte   W96
@ 027   ----------------------------------------
        .byte   W96
@ 028   ----------------------------------------
        .byte   W96
@ 029   ----------------------------------------
mus_etc_hana_ni_natte_6_29:
        .byte   W36
        .byte           N32   , An3 , v062 , gtp3
        .byte   W36
        .byte           N23   , As3
        .byte   W24
        .byte   PEND
@ 030   ----------------------------------------
        .byte   W96
@ 031   ----------------------------------------
        .byte   PATT
         .word  mus_etc_hana_ni_natte_6_29
@ 032   ----------------------------------------
        .byte   W96
@ 033   ----------------------------------------
        .byte   W96
@ 034   ----------------------------------------
        .byte   W96
@ 035   ----------------------------------------
        .byte   W96
@ 036   ----------------------------------------
        .byte   W24
        .byte           N23   , Dn3 , v080
        .byte   W24
        .byte                   Dn3
        .byte   W24
        .byte                   Fn3
        .byte   W24
@ 037   ----------------------------------------
        .byte                   En3
        .byte   W24
        .byte           N11
        .byte   W12
        .byte           N32   , Fn3 , v080 , gtp3
        .byte   W36
        .byte           N23   , Gn3
        .byte   W24
@ 038   ----------------------------------------
        .byte   W24
        .byte                   Fn3
        .byte   W24
        .byte                   Fn3
        .byte   W24
        .byte                   An3
        .byte   W24
@ 039   ----------------------------------------
        .byte                   Gn3
        .byte   W24
        .byte           N11
        .byte   W12
        .byte           N32   , An3 , v080 , gtp3
        .byte   W36
        .byte           N23   , As3
        .byte   W24
@ 040   ----------------------------------------
mus_etc_hana_ni_natte_6_40:
        .byte   W24
        .byte           N11   , Ds3 , v080
        .byte   W12
        .byte                   Ds3
        .byte   W12
        .byte                   Ds3
        .byte   W12
        .byte                   Ds3
        .byte   W12
        .byte                   Ds3
        .byte   W12
        .byte                   Ds3
        .byte   W12
        .byte   PEND
@ 041   ----------------------------------------
mus_etc_hana_ni_natte_6_41:
        .byte           N23   , Ds3 , v080
        .byte   W24
        .byte           N11
        .byte   W12
        .byte           N32   , Fn3 , v080 , gtp3
        .byte   W36
        .byte           N23   , Gn3
        .byte   W24
        .byte   PEND
@ 042   ----------------------------------------
        .byte   PATT
         .word  mus_etc_hana_ni_natte_6_40
@ 043   ----------------------------------------
        .byte   PATT
         .word  mus_etc_hana_ni_natte_6_41
@ 044   ----------------------------------------
        .byte   W24
        .byte           N11   , Fs3 , v080
        .byte   W12
        .byte                   Fs3
        .byte   W12
        .byte                   Fs3
        .byte   W12
        .byte                   Fs3
        .byte   W12
        .byte                   Fs3
        .byte   W12
        .byte                   Fs3
        .byte   W12
@ 045   ----------------------------------------
        .byte           N23
        .byte   W24
        .byte           N11
        .byte   W12
        .byte           N23
        .byte   W24
        .byte           N32   , Gn3 , v080 , gtp3
        .byte   W36
@ 046   ----------------------------------------
        .byte           N92   , An3 , v088 , gtp3
        .byte   W96
@ 047   ----------------------------------------
        .byte   W24
        .byte           N11   , Gn3 , v075
        .byte   W12
        .byte                   Gn3
        .byte   W12
        .byte                   As3
        .byte   W12
        .byte           N23   , Dn4
        .byte   W24
        .byte           TIE   , Cn4
        .byte   W12
@ 048   ----------------------------------------
        .byte   W92
        .byte   W03
        .byte           EOT
        .byte   W01
@ 049   ----------------------------------------
        .byte           N44   , An3 , v075 , gtp3
        .byte   W48
        .byte           N11   , Gn3
        .byte   W12
        .byte           N23   , An3
        .byte   W24
        .byte                   As3
        .byte   W12
@ 050   ----------------------------------------
        .byte   W12
        .byte           N11   , An3
        .byte   W12
        .byte                   Gn3
        .byte   W12
        .byte                   Dn3
        .byte   W12
        .byte                   Fn3
        .byte   W24
        .byte                   Fs3
        .byte   W24
@ 051   ----------------------------------------
        .byte           N23   , Gn3
        .byte   W24
        .byte           N11
        .byte   W12
        .byte                   Gn3
        .byte   W12
        .byte                   As3
        .byte   W12
        .byte           N23   , Dn4
        .byte   W24
        .byte           N80   , Cn4 , v075 , gtp3
        .byte   W12
@ 052   ----------------------------------------
        .byte   W72
        .byte           N11   , As3
        .byte   W12
        .byte           N23   , An3
        .byte   W12
@ 053   ----------------------------------------
        .byte   W12
        .byte                   Ds4
        .byte   W24
        .byte                   Dn4
        .byte   W24
        .byte                   As3
        .byte   W24
        .byte                   Gn3
        .byte   W12
@ 054   ----------------------------------------
        .byte   W12
        .byte           N11
        .byte   W12
        .byte                   As3
        .byte   W12
        .byte                   Gn3
        .byte   W12
        .byte           N23   , As3
        .byte   W24
        .byte                   Cn4
        .byte   W24
@ 055   ----------------------------------------
        .byte                   Dn4
        .byte   W24
        .byte                   Gn3
        .byte   W24
        .byte           N11   , As3
        .byte   W12
        .byte           N23   , Dn4
        .byte   W24
        .byte           TIE   , Cn4
        .byte   W12
@ 056   ----------------------------------------
        .byte   W92
        .byte   W03
        .byte           EOT
        .byte   W01
@ 057   ----------------------------------------
        .byte           N44   , An3 , v075 , gtp3
        .byte   W48
        .byte           N23
        .byte   W24
        .byte           N11   , Gn3
        .byte   W12
        .byte           N23   , An3
        .byte   W12
@ 058   ----------------------------------------
        .byte   W12
        .byte           N11   , Gn3
        .byte   W12
        .byte           N23   , An3
        .byte   W24
        .byte           N11   , Gn3
        .byte   W12
        .byte           N23   , An3
        .byte   W24
        .byte           N11   , Gn3
        .byte   W12
@ 059   ----------------------------------------
        .byte           N23   , An3
        .byte   W24
        .byte                   Gn3
        .byte   W24
        .byte           N11   , An3
        .byte   W12
        .byte           N23   , As3
        .byte   W24
        .byte           N56   , Ds3 , v075 , gtp3
        .byte   W12
@ 060   ----------------------------------------
        .byte   W48
        .byte           N23   , Gn3
        .byte   W24
        .byte                   As3
        .byte   W24
@ 061   ----------------------------------------
        .byte                   Cn4
        .byte   W24
        .byte           N11   , Dn4
        .byte   W12
        .byte           N23   , An3
        .byte   W24
        .byte                   Fn3
        .byte   W24
        .byte                   Gn3
        .byte   W12
@ 062   ----------------------------------------
        .byte   W48
        .byte           N11   , Fn3
        .byte   W12
        .byte           N23   , Fs3
        .byte   W24
        .byte                   Gn3
        .byte   W12
@ 063   ----------------------------------------
        .byte   W11
        .byte   GOTO
         .word  mus_etc_hana_ni_natte_6_LOOP
        .byte   FINE

@****************** Track 7 (Midi-Chn.7) ******************@

mus_etc_hana_ni_natte_7:
        .byte   KEYSH , mus_etc_hana_ni_natte_key+0
@ 000   ----------------------------------------
        .byte           VOL   , 110*mus_etc_hana_ni_natte_mvl/mxv
        .byte           VOICE , 125 @ Sawtooth
        .byte           PAN   , c_v+40
        .byte           BENDR , 12
        .byte   W96
@ 001   ----------------------------------------
        .byte   W96
@ 002   ----------------------------------------
        .byte   W96
@ 003   ----------------------------------------
        .byte   PATT
         .word  mus_etc_hana_ni_natte_2_3
@ 004   ----------------------------------------
mus_etc_hana_ni_natte_7_LOOP:
        .byte   W96
@ 005   ----------------------------------------
        .byte   W96
@ 006   ----------------------------------------
        .byte   W96
@ 007   ----------------------------------------
        .byte   W96
@ 008   ----------------------------------------
        .byte   W96
@ 009   ----------------------------------------
        .byte   W96
@ 010   ----------------------------------------
        .byte   W96
@ 011   ----------------------------------------
        .byte   W96
@ 012   ----------------------------------------
        .byte   W96
@ 013   ----------------------------------------
        .byte   W96
@ 014   ----------------------------------------
        .byte           N23   , Cs3 , v062
        .byte   W24
        .byte           N11
        .byte   W12
        .byte           N44   , Cs3 , v062 , gtp3
        .byte   W60
@ 015   ----------------------------------------
        .byte   W96
@ 016   ----------------------------------------
        .byte   W96
@ 017   ----------------------------------------
        .byte   W96
@ 018   ----------------------------------------
        .byte           N23   , Gs3
        .byte   W24
        .byte           N11   , Fn3
        .byte   W12
        .byte           N44   , Cn4 , v062 , gtp3
        .byte   W60
@ 019   ----------------------------------------
        .byte   W96
@ 020   ----------------------------------------
        .byte   W96
@ 021   ----------------------------------------
        .byte   W96
@ 022   ----------------------------------------
        .byte           N23   , Cs3 , v075
        .byte   W24
        .byte           N11
        .byte   W12
        .byte           N44   , Cs3 , v075 , gtp3
        .byte   W60
@ 023   ----------------------------------------
        .byte   W96
@ 024   ----------------------------------------
        .byte   W96
@ 025   ----------------------------------------
        .byte   W96
@ 026   ----------------------------------------
        .byte   W96
@ 027   ----------------------------------------
        .byte   W96
@ 028   ----------------------------------------
        .byte   W96
@ 029   ----------------------------------------
        .byte   W36
        .byte           N32   , Fn3 , v064 , gtp3
        .byte   W36
        .byte           N23   , Fs3
        .byte   W24
@ 030   ----------------------------------------
        .byte   W96
@ 031   ----------------------------------------
        .byte   W36
        .byte           N32   , Ds3 , v064 , gtp3
        .byte   W36
        .byte           N23   , Fn3
        .byte   W24
@ 032   ----------------------------------------
        .byte   W96
@ 033   ----------------------------------------
        .byte   W96
@ 034   ----------------------------------------
        .byte   W96
@ 035   ----------------------------------------
        .byte   W96
@ 036   ----------------------------------------
        .byte   W24
        .byte                   An2 , v080
        .byte   W24
        .byte                   An2
        .byte   W24
        .byte                   Dn3
        .byte   W24
@ 037   ----------------------------------------
        .byte                   Cs3
        .byte   W24
        .byte           N11
        .byte   W12
        .byte           N32   , Dn3 , v080 , gtp3
        .byte   W36
        .byte           N23   , En3
        .byte   W24
@ 038   ----------------------------------------
        .byte   W24
        .byte                   Dn3
        .byte   W24
        .byte                   Cs3
        .byte   W24
        .byte                   Fn3
        .byte   W24
@ 039   ----------------------------------------
        .byte   PATT
         .word  mus_etc_hana_ni_natte_6_41
@ 040   ----------------------------------------
mus_etc_hana_ni_natte_7_40:
        .byte   W24
        .byte           N11   , Cn3 , v080
        .byte   W12
        .byte                   Cn3
        .byte   W12
        .byte                   Cn3
        .byte   W12
        .byte                   Cn3
        .byte   W12
        .byte                   Cn3
        .byte   W12
        .byte                   Cn3
        .byte   W12
        .byte   PEND
@ 041   ----------------------------------------
mus_etc_hana_ni_natte_7_41:
        .byte           N23   , Cn3 , v080
        .byte   W24
        .byte           N11
        .byte   W12
        .byte           N32   , Dn3 , v080 , gtp3
        .byte   W36
        .byte           N23   , Ds3
        .byte   W24
        .byte   PEND
@ 042   ----------------------------------------
        .byte   PATT
         .word  mus_etc_hana_ni_natte_7_40
@ 043   ----------------------------------------
        .byte   PATT
         .word  mus_etc_hana_ni_natte_7_41
@ 044   ----------------------------------------
        .byte   W24
        .byte           N11   , Dn3 , v080
        .byte   W12
        .byte                   Dn3
        .byte   W12
        .byte                   Dn3
        .byte   W12
        .byte                   Dn3
        .byte   W12
        .byte                   Dn3
        .byte   W12
        .byte                   Dn3
        .byte   W12
@ 045   ----------------------------------------
        .byte   PATT
         .word  mus_etc_hana_ni_natte_3_45
@ 046   ----------------------------------------
        .byte           N92   , Fs3 , v088 , gtp3
        .byte   W96
@ 047   ----------------------------------------
        .byte   W24
        .byte           N11   , Gn3 , v080
        .byte   W12
        .byte                   Gn3
        .byte   W12
        .byte                   As3
        .byte   W12
        .byte           N23   , Dn4
        .byte   W24
        .byte           TIE   , Cn4
        .byte   W12
@ 048   ----------------------------------------
        .byte   W92
        .byte   W03
        .byte           EOT
        .byte   W01
@ 049   ----------------------------------------
        .byte           N44   , An3 , v080 , gtp3
        .byte   W48
        .byte           N11   , Dn3
        .byte   W12
        .byte           N23   , Fs3
        .byte   W24
        .byte                   Gn3
        .byte   W12
@ 050   ----------------------------------------
        .byte   W12
        .byte           N11   , Fn3
        .byte   W12
        .byte                   Dn3
        .byte   W12
        .byte                   As2
        .byte   W12
        .byte                   Dn3
        .byte   W24
        .byte                   Ds3
        .byte   W24
@ 051   ----------------------------------------
        .byte           N23   , Fn3
        .byte   W24
        .byte           N11   , Gn3
        .byte   W12
        .byte           N23   , As3
        .byte   W24
        .byte                   Gn3
        .byte   W24
        .byte           N80   , Ds4 , v080 , gtp3
        .byte   W12
@ 052   ----------------------------------------
        .byte   W72
        .byte           N11   , As3
        .byte   W12
        .byte           N23   , An3
        .byte   W12
@ 053   ----------------------------------------
        .byte   W12
        .byte                   Ds4
        .byte   W24
        .byte                   Dn4
        .byte   W24
        .byte                   As3
        .byte   W24
        .byte                   Gn3
        .byte   W12
@ 054   ----------------------------------------
        .byte   W12
        .byte           N11
        .byte   W12
        .byte                   As3
        .byte   W12
        .byte                   Gn3
        .byte   W12
        .byte           N23   , As3
        .byte   W24
        .byte                   Cn4
        .byte   W24
@ 055   ----------------------------------------
        .byte                   Dn4
        .byte   W24
        .byte                   Gn3
        .byte   W24
        .byte           N11   , As3
        .byte   W12
        .byte           N23   , Dn4
        .byte   W24
        .byte           TIE   , Cn4
        .byte   W12
@ 056   ----------------------------------------
        .byte   W92
        .byte   W03
        .byte           EOT
        .byte   W01
@ 057   ----------------------------------------
        .byte           N44   , An3 , v080 , gtp3
        .byte   W48
        .byte           N23
        .byte   W24
        .byte           N11   , Gn3
        .byte   W12
        .byte           N23   , An3
        .byte   W12
@ 058   ----------------------------------------
mus_etc_hana_ni_natte_7_58:
        .byte   W12
        .byte           N11   , Gn3 , v080
        .byte   W12
        .byte           N23   , An3
        .byte   W24
        .byte           N11   , Gn3
        .byte   W12
        .byte           N23   , An3
        .byte   W24
        .byte           N11   , Gn3
        .byte   W12
        .byte   PEND
@ 059   ----------------------------------------
mus_etc_hana_ni_natte_7_59:
        .byte           N23   , An3 , v080
        .byte   W24
        .byte                   Gn3
        .byte   W24
        .byte           N11   , An3
        .byte   W12
        .byte           N23   , As3
        .byte   W24
        .byte           N56   , Ds3 , v080 , gtp3
        .byte   W12
        .byte   PEND
@ 060   ----------------------------------------
mus_etc_hana_ni_natte_7_60:
        .byte   W48
        .byte           N23   , Gn3 , v080
        .byte   W24
        .byte                   As3
        .byte   W24
        .byte   PEND
@ 061   ----------------------------------------
        .byte                   Cn4
        .byte   W24
        .byte           N11   , Dn4
        .byte   W12
        .byte           N23   , An3
        .byte   W24
        .byte                   Fn3
        .byte   W24
        .byte                   Gn3
        .byte   W12
@ 062   ----------------------------------------
        .byte   W48
        .byte           N11   , Fn3
        .byte   W12
        .byte           N23   , Fs3
        .byte   W24
        .byte                   Gn3
        .byte   W12
@ 063   ----------------------------------------
        .byte   W11
        .byte   GOTO
         .word  mus_etc_hana_ni_natte_7_LOOP
        .byte   FINE

@****************** Track 8 (Midi-Chn.8) ******************@

mus_etc_hana_ni_natte_8:
        .byte   KEYSH , mus_etc_hana_ni_natte_key+0
@ 000   ----------------------------------------
        .byte           VOICE , 48 @ Strings
        .byte           PAN   , c_v-36
        .byte           BENDR , 12
        .byte           VOL   , 100*mus_etc_hana_ni_natte_mvl/mxv
        .byte   W96
@ 001   ----------------------------------------
        .byte   W96
@ 002   ----------------------------------------
        .byte   W96
@ 003   ----------------------------------------
mus_etc_hana_ni_natte_8_3:
        .byte           N11   , Cn2 , v080
        .byte   W12
        .byte                   Ds2
        .byte   W24
        .byte                   En2
        .byte   W24
        .byte           N32   , Fn2 , v080 , gtp3
        .byte   W36
        .byte   PEND
@ 004   ----------------------------------------
mus_etc_hana_ni_natte_8_LOOP:
        .byte           N23   , As1 , v064
        .byte           N23   , Fn2
        .byte   W24
        .byte           N68   , As1 , v064 , gtp3
        .byte                   Fn2
        .byte   W72
@ 005   ----------------------------------------
        .byte           N92   , As1 , v064 , gtp3
        .byte                   Fn2
        .byte   W96
@ 006   ----------------------------------------
        .byte           N44   , Cs2 , v064 , gtp3
        .byte                   Fs2
        .byte   W48
        .byte                   Fs1
        .byte           N44   , Fs2 , v064 , gtp3
        .byte   W48
@ 007   ----------------------------------------
        .byte           N92   , Fs2 , v064 , gtp3
        .byte                   Cs3
        .byte   W96
@ 008   ----------------------------------------
        .byte           N44   , Gs1 , v064 , gtp3
        .byte                   Fn2
        .byte   W48
        .byte                   Fn2
        .byte           N44   , Gs2 , v064 , gtp3
        .byte   W48
@ 009   ----------------------------------------
        .byte                   Gs1
        .byte           N44   , Cs2 , v064 , gtp3
        .byte   W48
        .byte                   Fn1
        .byte           N44   , Gs1 , v064 , gtp3
        .byte   W48
@ 010   ----------------------------------------
        .byte           N92   , Gs1 , v064 , gtp3
        .byte                   Ds2
        .byte   W96
@ 011   ----------------------------------------
        .byte           N44   , An1 , v064 , gtp3
        .byte                   Cn2
        .byte   W48
        .byte                   An1
        .byte           N44   , Cs2 , v064 , gtp3
        .byte   W48
@ 012   ----------------------------------------
        .byte   W96
@ 013   ----------------------------------------
        .byte   W96
@ 014   ----------------------------------------
        .byte           N23   , As2 , v062
        .byte   W24
        .byte           N11   , Cs3
        .byte   W12
        .byte           N44   , As2 , v062 , gtp3
        .byte   W60
@ 015   ----------------------------------------
        .byte   W96
@ 016   ----------------------------------------
        .byte   W96
@ 017   ----------------------------------------
        .byte   W96
@ 018   ----------------------------------------
        .byte           N23   , Cn3
        .byte   W24
        .byte           N11   , As2
        .byte   W12
        .byte           N44   , Cn3 , v062 , gtp3
        .byte                   Fn3
        .byte   W60
@ 019   ----------------------------------------
        .byte   W96
@ 020   ----------------------------------------
        .byte           N23   , Fn2
        .byte   W36
        .byte                   Fn2
        .byte   W60
@ 021   ----------------------------------------
        .byte                   Fn2
        .byte   W36
        .byte                   Fn2
        .byte   W36
        .byte                   Gs2
        .byte   W24
@ 022   ----------------------------------------
        .byte                   As2 , v080
        .byte   W24
        .byte           N11   , Cs3
        .byte   W12
        .byte           N44   , As2 , v080 , gtp3
        .byte   W60
@ 023   ----------------------------------------
        .byte   W96
@ 024   ----------------------------------------
        .byte   W96
@ 025   ----------------------------------------
        .byte   W96
@ 026   ----------------------------------------
        .byte           N23   , Fn2
        .byte   W24
        .byte           N11
        .byte   W12
        .byte           N23   , Gs2
        .byte   W24
        .byte                   An2
        .byte   W36
@ 027   ----------------------------------------
        .byte           N92   , As2 , v080 , gtp3
        .byte   W96
@ 028   ----------------------------------------
mus_etc_hana_ni_natte_8_28:
        .byte           N23   , Fs2 , v062
        .byte   W36
        .byte           N11
        .byte   W12
        .byte                   Fs2
        .byte   W24
        .byte                   Fs2
        .byte   W12
        .byte           N44   , Fs2 , v062 , gtp3
        .byte   W12
        .byte   PEND
@ 029   ----------------------------------------
        .byte   W96
@ 030   ----------------------------------------
mus_etc_hana_ni_natte_8_30:
        .byte           N23   , Fn2 , v062
        .byte   W36
        .byte           N11
        .byte   W12
        .byte                   Fn2
        .byte   W24
        .byte                   Fn2
        .byte   W12
        .byte           N44   , Fn2 , v062 , gtp3
        .byte   W12
        .byte   PEND
@ 031   ----------------------------------------
        .byte   W96
@ 032   ----------------------------------------
mus_etc_hana_ni_natte_8_32:
        .byte           N23   , Ds2 , v062
        .byte   W36
        .byte           N11
        .byte   W12
        .byte                   Ds2
        .byte   W24
        .byte                   Ds2
        .byte   W12
        .byte           N44   , Ds2 , v062 , gtp3
        .byte   W12
        .byte   PEND
@ 033   ----------------------------------------
        .byte   W96
@ 034   ----------------------------------------
mus_etc_hana_ni_natte_8_34:
        .byte           N23   , Dn2 , v062
        .byte   W36
        .byte                   Dn2
        .byte   W36
        .byte           N56   , Dn2 , v062 , gtp3
        .byte   W24
        .byte   PEND
@ 035   ----------------------------------------
        .byte   W96
@ 036   ----------------------------------------
        .byte   W96
@ 037   ----------------------------------------
        .byte   W96
@ 038   ----------------------------------------
        .byte   W96
@ 039   ----------------------------------------
        .byte   W96
@ 040   ----------------------------------------
        .byte           N23   , An2
        .byte   W96
@ 041   ----------------------------------------
        .byte   W96
@ 042   ----------------------------------------
        .byte           N11
        .byte   W12
        .byte                   An2
        .byte   W60
        .byte                   An2
        .byte   W12
        .byte                   An2
        .byte   W12
@ 043   ----------------------------------------
        .byte   W48
        .byte                   An2
        .byte   W12
        .byte                   An2
        .byte   W24
        .byte                   Cn3
        .byte   W12
@ 044   ----------------------------------------
        .byte           N92   , Fn2 , v062 , gtp3
        .byte   W96
@ 045   ----------------------------------------
        .byte   W96
@ 046   ----------------------------------------
        .byte   W96
@ 047   ----------------------------------------
        .byte   W24
        .byte           N11   , Fn2 , v080
        .byte   W12
        .byte                   Fn2
        .byte   W12
        .byte                   As2
        .byte   W12
        .byte           N23   , Dn3
        .byte   W24
        .byte           TIE   , Cn3
        .byte   W12
@ 048   ----------------------------------------
        .byte   W92
        .byte   W03
        .byte           EOT
        .byte   W01
@ 049   ----------------------------------------
        .byte           N44   , An2 , v080 , gtp3
        .byte   W48
        .byte           N11   , Gn2
        .byte   W12
        .byte           N23   , An2
        .byte   W24
        .byte                   As2
        .byte   W12
@ 050   ----------------------------------------
        .byte   W12
        .byte           N11   , An2
        .byte   W12
        .byte                   Gn2
        .byte   W12
        .byte                   Dn2
        .byte   W12
        .byte                   Fn2
        .byte   W24
        .byte                   Fs2
        .byte   W24
@ 051   ----------------------------------------
        .byte           N23   , Dn2
        .byte           N23   , Gn2
        .byte   W24
        .byte           N11   , Dn2
        .byte           N11   , Gn2
        .byte   W12
        .byte                   Dn2
        .byte           N11   , Gn2
        .byte   W12
        .byte                   Gn2
        .byte           N11   , As2
        .byte   W12
        .byte           N23
        .byte           N23   , Dn3
        .byte   W24
        .byte           N80   , Gn2 , v080 , gtp3
        .byte                   As2
        .byte   W12
@ 052   ----------------------------------------
        .byte   W72
        .byte           N11   , Gn2
        .byte   W12
        .byte           N23   , Fs2
        .byte   W12
@ 053   ----------------------------------------
        .byte   W12
        .byte                   Gn2
        .byte   W24
        .byte                   Fs2
        .byte   W24
        .byte                   Dn2
        .byte   W24
        .byte           N56   , Dn2 , v080 , gtp3
        .byte   W12
@ 054   ----------------------------------------
        .byte   W48
        .byte           N23
        .byte   W24
        .byte                   Fs2
        .byte   W24
@ 055   ----------------------------------------
        .byte                   Dn3
        .byte   W24
        .byte                   Gn2
        .byte   W24
        .byte           N11   , As2
        .byte   W12
        .byte           N23   , Dn3
        .byte   W24
        .byte           TIE   , As2
        .byte           TIE   , Cn3
        .byte   W12
@ 056   ----------------------------------------
        .byte   W92
        .byte   W03
        .byte           EOT   , As2
        .byte                   Cn3
        .byte   W01
@ 057   ----------------------------------------
        .byte           N44   , Fn3 , v080 , gtp3
        .byte                   An3
        .byte   W48
        .byte           N23
        .byte   W24
        .byte           N11   , Gn3
        .byte   W12
        .byte           N23   , An3
        .byte   W12
@ 058   ----------------------------------------
        .byte   PATT
         .word  mus_etc_hana_ni_natte_7_58
@ 059   ----------------------------------------
        .byte   PATT
         .word  mus_etc_hana_ni_natte_7_59
@ 060   ----------------------------------------
        .byte   PATT
         .word  mus_etc_hana_ni_natte_7_60
@ 061   ----------------------------------------
        .byte           N23   , Cn4 , v080
        .byte   W24
        .byte           N11   , Dn4
        .byte   W12
        .byte           N23   , An3
        .byte   W24
        .byte                   Fn3
        .byte   W24
        .byte           N11
        .byte   W12
@ 062   ----------------------------------------
        .byte           N23   , Gn2
        .byte           N23   , As2
        .byte   W48
        .byte           N11   , Fn2
        .byte           N11   , Cn3
        .byte   W12
        .byte           N23   , Fs2
        .byte           N23   , Cs3
        .byte   W24
        .byte                   Gn2
        .byte           N23   , Dn3
        .byte   W12
@ 063   ----------------------------------------
        .byte   W11
        .byte   GOTO
         .word  mus_etc_hana_ni_natte_8_LOOP
        .byte   FINE

@***************** Track 9 (Midi-Chn.10) ******************@

mus_etc_hana_ni_natte_9:
        .byte   KEYSH , mus_etc_hana_ni_natte_key+0
@ 000   ----------------------------------------
        .byte           VOICE , 50 @ 40 @ Violin
        .byte           PAN   , c_v+51
        .byte           BENDR , 12
        .byte           VOL   , 100*mus_etc_hana_ni_natte_mvl/mxv
        .byte   W96
@ 001   ----------------------------------------
        .byte   W96
@ 002   ----------------------------------------
        .byte   W96
@ 003   ----------------------------------------
        .byte   PATT
         .word  mus_etc_hana_ni_natte_8_3
@ 004   ----------------------------------------
mus_etc_hana_ni_natte_9_LOOP:
        .byte           N92   , As1 , v062 , gtp3
        .byte                   Fn2
        .byte   W96
@ 005   ----------------------------------------
        .byte                   As1
        .byte           N92   , Fn2 , v062 , gtp3
        .byte   W96
@ 006   ----------------------------------------
        .byte           N44   , Cs2 , v062 , gtp3
        .byte                   Fs2
        .byte   W48
        .byte                   Fs1
        .byte           N44   , Fs2 , v062 , gtp3
        .byte   W48
@ 007   ----------------------------------------
        .byte                   Fs2
        .byte           N44   , Cs3 , v062 , gtp3
        .byte   W48
        .byte                   Fs2
        .byte           N44   , As2 , v062 , gtp3
        .byte   W48
@ 008   ----------------------------------------
        .byte                   Gs1
        .byte           N44   , Fn2 , v062 , gtp3
        .byte   W48
        .byte                   Fn2
        .byte           N44   , Gs2 , v062 , gtp3
        .byte   W48
@ 009   ----------------------------------------
        .byte           N92   , Gs1 , v062 , gtp3
        .byte                   Cs2
        .byte   W96
@ 010   ----------------------------------------
        .byte                   Gs1
        .byte           N92   , Cn2 , v062 , gtp3
        .byte   W96
@ 011   ----------------------------------------
        .byte           N44   , An1 , v062 , gtp3
        .byte                   Cn2
        .byte   W48
        .byte                   Fn1
        .byte           N44   , An1 , v062 , gtp3
        .byte   W48
@ 012   ----------------------------------------
        .byte   W96
@ 013   ----------------------------------------
        .byte   W96
@ 014   ----------------------------------------
        .byte           N23   , Fs2
        .byte   W24
        .byte           N11   , Cs3
        .byte   W12
        .byte           N44   , Fs2 , v062 , gtp3
        .byte   W60
@ 015   ----------------------------------------
        .byte   W96
@ 016   ----------------------------------------
        .byte   W96
@ 017   ----------------------------------------
        .byte   W96
@ 018   ----------------------------------------
        .byte           N23   , Gs2
        .byte   W24
        .byte           N11   , Fn2
        .byte   W12
        .byte           N44   , As2 , v062 , gtp3
        .byte   W60
@ 019   ----------------------------------------
        .byte   W96
@ 020   ----------------------------------------
        .byte   W96
@ 021   ----------------------------------------
        .byte   W96
@ 022   ----------------------------------------
        .byte           N23   , Fs2 , v080
        .byte   W24
        .byte           N11   , Cs3
        .byte   W12
        .byte           N44   , Fs2 , v080 , gtp3
        .byte   W60
@ 023   ----------------------------------------
        .byte   W96
@ 024   ----------------------------------------
        .byte   W96
@ 025   ----------------------------------------
        .byte   W96
@ 026   ----------------------------------------
        .byte           N23   , Fn2
        .byte   W24
        .byte           N11
        .byte   W12
        .byte           N23   , Ds2
        .byte   W24
        .byte           N32   , Cs2 , v080 , gtp3
        .byte   W36
@ 027   ----------------------------------------
        .byte           N92   , As1 , v080 , gtp3
        .byte   W96
@ 028   ----------------------------------------
        .byte   PATT
         .word  mus_etc_hana_ni_natte_8_28
@ 029   ----------------------------------------
        .byte   W96
@ 030   ----------------------------------------
        .byte   PATT
         .word  mus_etc_hana_ni_natte_8_30
@ 031   ----------------------------------------
        .byte   W96
@ 032   ----------------------------------------
        .byte   PATT
         .word  mus_etc_hana_ni_natte_8_32
@ 033   ----------------------------------------
        .byte   W96
@ 034   ----------------------------------------
        .byte   PATT
         .word  mus_etc_hana_ni_natte_8_34
@ 035   ----------------------------------------
        .byte   W96
@ 036   ----------------------------------------
        .byte   W96
@ 037   ----------------------------------------
        .byte   W96
@ 038   ----------------------------------------
        .byte   W96
@ 039   ----------------------------------------
        .byte   W96
@ 040   ----------------------------------------
        .byte           N23   , Fs2 , v062
        .byte   W96
@ 041   ----------------------------------------
        .byte   W96
@ 042   ----------------------------------------
        .byte           N11
        .byte   W12
        .byte                   Fs2
        .byte   W60
        .byte                   Fs2
        .byte   W12
        .byte                   Fs2
        .byte   W12
@ 043   ----------------------------------------
        .byte   W48
        .byte                   Fs2
        .byte   W12
        .byte                   Fs2
        .byte   W24
        .byte                   An2
        .byte   W12
@ 044   ----------------------------------------
        .byte           N92   , Fn2 , v062 , gtp3
        .byte   W96
@ 045   ----------------------------------------
        .byte   W96
@ 046   ----------------------------------------
        .byte   W96
@ 047   ----------------------------------------
        .byte   W24
        .byte           N11   , Dn3 , v080
        .byte   W12
        .byte                   Dn3
        .byte   W12
        .byte                   Gn3
        .byte   W12
        .byte           N23   , As3
        .byte   W24
        .byte           TIE   , Ds3
        .byte   W12
@ 048   ----------------------------------------
        .byte   W92
        .byte   W03
        .byte           EOT
        .byte   W01
@ 049   ----------------------------------------
        .byte           N44   , Fn3 , v080 , gtp3
        .byte   W48
        .byte           N11   , Dn3
        .byte   W12
        .byte           N23   , Fs3
        .byte   W24
        .byte                   Gn3
        .byte   W12
@ 050   ----------------------------------------
        .byte   W12
        .byte           N11   , Fn3
        .byte   W12
        .byte                   Dn3
        .byte   W12
        .byte                   As2
        .byte   W12
        .byte                   An2
        .byte           N11   , Cn3
        .byte   W24
        .byte                   An2
        .byte           N11   , Cs3
        .byte   W24
@ 051   ----------------------------------------
        .byte           N23   , Dn2
        .byte           N23   , Gn2
        .byte   W24
        .byte           N11
        .byte   W12
        .byte           N23   , As2
        .byte   W24
        .byte                   Gn2
        .byte   W24
        .byte           N56   , Ds3 , v080 , gtp3
        .byte   W12
@ 052   ----------------------------------------
        .byte   W72
        .byte           N11   , As2
        .byte   W12
        .byte           N23   , An2
        .byte   W12
@ 053   ----------------------------------------
        .byte   W12
        .byte                   Cn3
        .byte   W24
        .byte                   Dn3
        .byte   W24
        .byte                   As2
        .byte   W24
        .byte           N56   , As2 , v080 , gtp3
        .byte   W12
@ 054   ----------------------------------------
        .byte   W48
        .byte           N23
        .byte   W24
        .byte                   Cn3
        .byte   W24
@ 055   ----------------------------------------
        .byte                   Gn2
        .byte   W24
        .byte                   Gn2
        .byte   W24
        .byte           N11
        .byte   W12
        .byte           N23   , As2
        .byte   W24
        .byte           TIE   , Ds2
        .byte           TIE   , Gn2
        .byte   W12
@ 056   ----------------------------------------
        .byte   W92
        .byte   W03
        .byte           EOT   , Ds2
        .byte                   Gn2
        .byte   W01
@ 057   ----------------------------------------
        .byte           N44   , An2 , v080 , gtp3
        .byte                   Cn3
        .byte   W48
        .byte           N23   , Dn3
        .byte   W24
        .byte           N11
        .byte   W12
        .byte           N23   , Fs3
        .byte   W12
@ 058   ----------------------------------------
        .byte   W12
        .byte           N11   , Dn3
        .byte   W12
        .byte           N23   , Fs3
        .byte   W24
        .byte           N11   , Dn3
        .byte   W12
        .byte           N23   , Fs3
        .byte   W24
        .byte           N11   , Dn3
        .byte   W12
@ 059   ----------------------------------------
        .byte           N23   , Fs3
        .byte   W24
        .byte                   Dn3
        .byte   W24
        .byte           N11   , Fs3
        .byte   W12
        .byte           N23   , Gn3
        .byte   W24
        .byte           N56   , Gn2 , v080 , gtp3
        .byte                   Cn3
        .byte   W12
@ 060   ----------------------------------------
        .byte   W48
        .byte           N23   , Ds3
        .byte   W24
        .byte                   Ds3
        .byte           N23   , Gn3
        .byte   W24
@ 061   ----------------------------------------
        .byte                   Fn3
        .byte           N23   , An3
        .byte   W24
        .byte           N11   , As3
        .byte   W12
        .byte           N23   , Cn3
        .byte           N23   , Fn3
        .byte   W24
        .byte                   Cn3
        .byte   W24
        .byte           N11   , Dn3
        .byte   W12
@ 062   ----------------------------------------
        .byte           N23
        .byte           N23   , Gn3
        .byte   W48
        .byte           N11   , Cn3
        .byte           N11   , Fn3
        .byte   W12
        .byte           N23   , Cs3
        .byte           N23   , Fs3
        .byte   W24
        .byte                   Dn3
        .byte           N23   , Gn3
        .byte   W12
@ 063   ----------------------------------------
        .byte   W11
        .byte   GOTO
         .word  mus_etc_hana_ni_natte_9_LOOP
        .byte   FINE

@***************** Track 10 (Midi-Chn.9) ******************@

mus_etc_hana_ni_natte_10:
        .byte   KEYSH , mus_etc_hana_ni_natte_key+0
@ 000   ----------------------------------------
        .byte           VOL   , 127*mus_etc_hana_ni_natte_mvl/mxv
        .byte           VOICE , 120 @ Drum
        .byte           N36   , Cn1 , v080
        .byte   W36
        .byte           N60
        .byte   W36
        .byte           N96   , Dn1
        .byte   W24
@ 001   ----------------------------------------
        .byte           N36   , Cn1
        .byte   W36
        .byte           N60
        .byte   W36
        .byte           N84   , Dn1
        .byte   W24
@ 002   ----------------------------------------
        .byte           N36   , Cn1
        .byte   W36
        .byte           N60
        .byte   W24
        .byte           N48   , Dn1
        .byte   W36
@ 003   ----------------------------------------
        .byte           N36   , Cn1
        .byte   W12
        .byte           N24   , Dn1
        .byte   W24
        .byte                   Dn1
        .byte           N60   , Cn1
        .byte   W24
        .byte                   Dn1
        .byte   W36
@ 004   ----------------------------------------
mus_etc_hana_ni_natte_10_LOOP:
        .byte           TIE   , Cs2 , v080
        .byte           N48   , Cn1
        .byte   W12
        .byte           N12   , Fs1
        .byte   W12
        .byte           N48   , Dn1
        .byte           N12   , Fs1
        .byte   W12
        .byte                   Fs1
        .byte   W12
        .byte                   Fs1
        .byte           N12   , Cn1
        .byte   W12
        .byte                   Fs1
        .byte           N24   , Cn1
        .byte   W12
        .byte           N48   , Dn1
        .byte           N12   , Fs1
        .byte   W12
        .byte                   Fs1
        .byte           N24   , Cn1
        .byte   W12
@ 005   ----------------------------------------
        .byte           N12   , Fs1
        .byte   W12
        .byte                   Fs1
        .byte           N36   , Cn1
        .byte   W12
        .byte           N48   , Dn1
        .byte           N12   , Fs1
        .byte   W12
        .byte                   Fs1
        .byte   W12
        .byte                   Fs1
        .byte           N12   , Cn1
        .byte   W12
        .byte                   Fs1
        .byte           N48   , Cn1
        .byte   W12
        .byte                   Dn1
        .byte           N12   , Fs1
        .byte   W12
        .byte                   Fs1
        .byte   W12
@ 006   ----------------------------------------
mus_etc_hana_ni_natte_10_6:
        .byte           N12   , Fs1 , v080
        .byte   W12
        .byte                   Fs1
        .byte           N24   , Cn1
        .byte   W12
        .byte           N48   , Dn1
        .byte           N12   , Fs1
        .byte   W12
        .byte                   Fs1
        .byte           N24   , Cn1
        .byte   W12
        .byte           N12   , Fs1
        .byte   W12
        .byte                   Fs1
        .byte           N48   , Cn1
        .byte   W12
        .byte                   Dn1
        .byte           N12   , Fs1
        .byte   W12
        .byte                   Fs1
        .byte   W12
        .byte   PEND
@ 007   ----------------------------------------
mus_etc_hana_ni_natte_10_7:
        .byte           N12   , Fs1 , v080
        .byte   W12
        .byte                   Fs1
        .byte           N24   , Cn1
        .byte   W12
        .byte           N48   , Dn1
        .byte           N12   , Fs1
        .byte   W12
        .byte                   Fs1
        .byte           N24   , Cn1
        .byte   W12
        .byte           N12   , Fs1
        .byte   W12
        .byte                   Fs1
        .byte           N06   , Cn1
        .byte   W06
        .byte           N30
        .byte   W06
        .byte           N48   , Dn1
        .byte           N12   , Fs1
        .byte   W12
        .byte                   Fs1
        .byte   W12
        .byte   PEND
@ 008   ----------------------------------------
        .byte                   Fs1
        .byte           N48   , Cn1
        .byte   W12
        .byte           N12   , Fs1
        .byte   W12
        .byte           N48   , Dn1
        .byte           N12   , Fs1
        .byte   W12
        .byte                   Fs1
        .byte   W12
        .byte                   Fs1
        .byte           N12   , Cn1
        .byte   W12
        .byte                   Fs1
        .byte           N24   , Cn1
        .byte   W12
        .byte           N48   , Dn1
        .byte           N12   , Fs1
        .byte   W12
        .byte           N24
        .byte           N24   , Cn1
        .byte   W12
@ 009   ----------------------------------------
        .byte           EOT   , Cs2
        .byte           TIE
        .byte   W12
        .byte           N12   , Fs1
        .byte           N36   , Cn1
        .byte   W12
        .byte           N48   , Dn1
        .byte           N12   , Fs1
        .byte   W12
        .byte                   Fs1
        .byte   W12
        .byte                   Fs1
        .byte           N12   , Cn1
        .byte   W12
        .byte                   Fs1
        .byte           N36   , Cn1
        .byte   W12
        .byte           N48   , Dn1
        .byte           N12   , Fs1
        .byte   W12
        .byte                   Fs1
        .byte   W12
@ 010   ----------------------------------------
mus_etc_hana_ni_natte_10_10:
        .byte           N12   , Fs1 , v080
        .byte           N36   , Cn1
        .byte   W12
        .byte           N24   , Fs1
        .byte   W12
        .byte           N06   , Dn1
        .byte   W06
        .byte           N18
        .byte   W06
        .byte           N24   , Fs1
        .byte           N24   , Cn1
        .byte   W12
        .byte                   Dn1
        .byte   W12
        .byte                   Fs1
        .byte           N48   , Cn1
        .byte   W12
        .byte           N06   , Dn1
        .byte   W06
        .byte           N18
        .byte   W06
        .byte           N24   , Fs1
        .byte   W12
        .byte   PEND
@ 011   ----------------------------------------
        .byte                   Dn1
        .byte   W12
        .byte           N12   , Fs1
        .byte           N24   , Cn1
        .byte   W12
        .byte           N12   , Dn1
        .byte           N24   , Fs1
        .byte   W12
        .byte           N36   , Dn1
        .byte           N24   , Cn1
        .byte   W12
        .byte           N12   , Fs1
        .byte   W12
        .byte           N36
        .byte           N06   , Cn1
        .byte   W06
        .byte           N30
        .byte   W06
        .byte           N06   , Dn1
        .byte   W06
        .byte                   Dn1
        .byte   W06
        .byte                   Dn1
        .byte   W06
        .byte           N78
        .byte   W06
@ 012   ----------------------------------------
mus_etc_hana_ni_natte_10_12:
        .byte           N24   , Fs1 , v080
        .byte           N36   , Cn1
        .byte   W24
        .byte           N24   , Fs1
        .byte   W12
        .byte           N60   , Cn1
        .byte   W12
        .byte           N24   , Fs1
        .byte   W24
        .byte           N96   , Dn1
        .byte           N24   , Fs1
        .byte   W24
        .byte   PEND
@ 013   ----------------------------------------
        .byte   PATT
         .word  mus_etc_hana_ni_natte_10_12
@ 014   ----------------------------------------
        .byte   PATT
         .word  mus_etc_hana_ni_natte_10_12
@ 015   ----------------------------------------
        .byte   PATT
         .word  mus_etc_hana_ni_natte_10_12
@ 016   ----------------------------------------
        .byte   PATT
         .word  mus_etc_hana_ni_natte_10_12
@ 017   ----------------------------------------
        .byte   PATT
         .word  mus_etc_hana_ni_natte_10_12
@ 018   ----------------------------------------
        .byte           N24   , Fs1 , v080
        .byte           N36   , Cn1
        .byte   W24
        .byte           N24   , Fs1
        .byte   W12
        .byte           N60   , Cn1
        .byte   W12
        .byte           N24   , Fs1
        .byte   W24
        .byte           N96   , Dn1
        .byte           TIE   , Fs1
        .byte   W24
@ 019   ----------------------------------------
        .byte           N24   , As1
        .byte           N36   , Cn1
        .byte   W24
        .byte           N24   , As1
        .byte   W12
        .byte           N60   , Cn1
        .byte   W36
        .byte           N96   , Dn1
        .byte   W24
@ 020   ----------------------------------------
        .byte           EOT   , Cs2
        .byte           TIE
        .byte           N36   , Cn1
        .byte   W12
        .byte           EOT   , Fs1
        .byte           N12
        .byte   W12
        .byte                   Fs1
        .byte   W12
        .byte                   Fs1
        .byte           N60   , Cn1
        .byte   W12
        .byte           N12   , Fs1
        .byte   W12
        .byte                   Fs1
        .byte   W12
        .byte           N96   , Dn1
        .byte           N12   , Fs1
        .byte   W12
        .byte                   Fs1
        .byte   W12
@ 021   ----------------------------------------
mus_etc_hana_ni_natte_10_21:
        .byte           N12   , Fs1 , v080
        .byte           N36   , Cn1
        .byte   W12
        .byte           N12   , Fs1
        .byte   W12
        .byte                   Fs1
        .byte   W12
        .byte                   Fs1
        .byte           N60   , Cn1
        .byte   W12
        .byte           N12   , Fs1
        .byte   W12
        .byte                   Fs1
        .byte   W12
        .byte           N96   , Dn1
        .byte           N12   , Fs1
        .byte   W12
        .byte                   Fs1
        .byte   W12
        .byte   PEND
@ 022   ----------------------------------------
        .byte   PATT
         .word  mus_etc_hana_ni_natte_10_21
@ 023   ----------------------------------------
        .byte   PATT
         .word  mus_etc_hana_ni_natte_10_21
@ 024   ----------------------------------------
        .byte   PATT
         .word  mus_etc_hana_ni_natte_10_21
@ 025   ----------------------------------------
        .byte           N12   , Fs1 , v080
        .byte           N36   , Cn1
        .byte   W12
        .byte           N12   , Fs1
        .byte   W12
        .byte                   Fs1
        .byte   W12
        .byte                   Fs1
        .byte           N60   , Cn1
        .byte   W12
        .byte           N12   , Fs1
        .byte   W12
        .byte                   Fs1
        .byte   W12
        .byte           N60   , Dn1
        .byte           N12   , Fs1
        .byte   W12
        .byte                   Fs1
        .byte   W12
@ 026   ----------------------------------------
        .byte           TIE
        .byte           N24   , Cn1
        .byte   W24
        .byte           N36
        .byte   W12
        .byte           N60   , Dn1
        .byte   W24
        .byte           N36   , Cn1
        .byte   W36
@ 027   ----------------------------------------
        .byte           EOT   , Cs2
        .byte           N96   , Cn1
        .byte           N84   , Dn1
        .byte           TIE   , Cs2
        .byte   W84
        .byte           N06   , Dn1
        .byte   W06
        .byte           N78
        .byte   W06
@ 028   ----------------------------------------
        .byte           EOT   , Fs1
        .byte           N24
        .byte           N36   , Cn1
        .byte   W24
        .byte           N24   , Fs1
        .byte   W12
        .byte           N60   , Cn1
        .byte   W12
        .byte           N24   , Fs1
        .byte   W24
        .byte           N60   , Dn1
        .byte           N24   , Fs1
        .byte   W24
@ 029   ----------------------------------------
mus_etc_hana_ni_natte_10_29:
        .byte           N12   , Fs1 , v080
        .byte           N24   , Cn1
        .byte   W12
        .byte           N84   , Fs1
        .byte   W12
        .byte           N12   , Cn1
        .byte   W12
        .byte           EOT   , Cs2
        .byte           N36   , Dn1
        .byte           N36   , Cs2
        .byte           N36   , Cn1
        .byte   W36
        .byte           N96   , Dn1
        .byte           TIE   , Cs2
        .byte           N24   , Cn1
        .byte   W24
        .byte   PEND
@ 030   ----------------------------------------
mus_etc_hana_ni_natte_10_30:
        .byte           N24   , Fs1 , v080
        .byte           N36   , Cn1
        .byte   W24
        .byte           N24   , Fs1
        .byte   W12
        .byte           N60   , Cn1
        .byte   W12
        .byte           N24   , Fs1
        .byte   W24
        .byte           N60   , Dn1
        .byte           N24   , Fs1
        .byte   W24
        .byte   PEND
@ 031   ----------------------------------------
        .byte   PATT
         .word  mus_etc_hana_ni_natte_10_29
@ 032   ----------------------------------------
        .byte   PATT
         .word  mus_etc_hana_ni_natte_10_30
@ 033   ----------------------------------------
        .byte           N12   , Fs1 , v080
        .byte           N24   , Cn1
        .byte   W12
        .byte           TIE   , Fs1
        .byte   W12
        .byte           N12   , Cn1
        .byte   W12
        .byte           EOT   , Cs2
        .byte           N36   , Dn1
        .byte           N36   , Cs2
        .byte           N36   , Cn1
        .byte   W36
        .byte           N24   , Dn1
        .byte           N24   , Cs2
        .byte           N24   , Cn1
        .byte   W24
@ 034   ----------------------------------------
        .byte           TIE   , Dn1
        .byte           TIE   , Cs2
        .byte           N96   , Cn1
        .byte   W24
        .byte           EOT   , Fs1
        .byte           N24
        .byte   W24
        .byte                   Fs1
        .byte   W24
        .byte                   Fs1
        .byte   W24
@ 035   ----------------------------------------
        .byte                   Fs1
        .byte           N72   , Cn1
        .byte   W24
        .byte           N24   , Fs1
        .byte   W24
        .byte                   Fs1
        .byte   W24
        .byte           N36
        .byte           N12   , Cn1
        .byte   W12
        .byte                   Cn1
        .byte   W12
@ 036   ----------------------------------------
        .byte           EOT   , Cs2
        .byte           TIE
        .byte           N48   , Cn1
        .byte   W12
        .byte           N12   , Fs1
        .byte   W12
        .byte           EOT   , Dn1
        .byte           N48
        .byte           N12   , Fs1
        .byte   W12
        .byte                   Fs1
        .byte   W12
        .byte                   Fs1
        .byte           N12   , Cn1
        .byte   W12
        .byte                   Fs1
        .byte           N24   , Cn1
        .byte   W12
        .byte           N48   , Dn1
        .byte           N12   , Fs1
        .byte   W12
        .byte                   Fs1
        .byte           N24   , Cn1
        .byte   W12
@ 037   ----------------------------------------
        .byte           N12   , Fs1
        .byte   W12
        .byte                   Fs1
        .byte           N36   , Cn1
        .byte   W12
        .byte           N48   , Dn1
        .byte           N12   , Fs1
        .byte   W12
        .byte                   Fs1
        .byte   W12
        .byte                   Fs1
        .byte           N12   , Cn1
        .byte   W12
        .byte                   Fs1
        .byte           N48   , Cn1
        .byte   W12
        .byte           N12   , Dn1
        .byte           N12   , Fs1
        .byte   W12
        .byte           N36   , Dn1
        .byte           N12   , Fs1
        .byte   W12
@ 038   ----------------------------------------
        .byte   PATT
         .word  mus_etc_hana_ni_natte_10_6
@ 039   ----------------------------------------
        .byte           N12   , Fs1 , v080
        .byte   W12
        .byte                   Fs1
        .byte           N24   , Cn1
        .byte   W12
        .byte           N48   , Dn1
        .byte           N12   , Fs1
        .byte   W12
        .byte                   Fs1
        .byte           N24   , Cn1
        .byte   W12
        .byte           N12   , Fs1
        .byte   W12
        .byte                   Fs1
        .byte           N06   , Cn1
        .byte   W06
        .byte           N30
        .byte   W06
        .byte           N24   , Dn1
        .byte           N12   , Fs1
        .byte   W12
        .byte           TIE
        .byte   W12
@ 040   ----------------------------------------
        .byte                   Dn1
        .byte           TIE   , Cn1
        .byte   W96
@ 041   ----------------------------------------
        .byte   W96
@ 042   ----------------------------------------
        .byte           EOT   , Dn1
        .byte                   Cn1
        .byte           N12   , Dn1
        .byte           N12   , Cn1
        .byte   W12
        .byte           N60   , Dn1
        .byte           N60   , Cn1
        .byte   W60
        .byte           N12   , Dn1
        .byte           N12   , Cn1
        .byte   W12
        .byte           N60   , Dn1
        .byte           N60   , Cn1
        .byte   W12
@ 043   ----------------------------------------
        .byte   W48
        .byte           N12   , Dn1
        .byte           N12   , Cn1
        .byte   W12
        .byte           N24   , Dn1
        .byte           N24   , Cn1
        .byte   W24
        .byte           N12   , Dn1
        .byte           N12   , Cn1
        .byte   W12
@ 044   ----------------------------------------
        .byte           EOT   , Cs2
        .byte           N48   , Dn1
        .byte           TIE   , Cs2
        .byte           N36   , Cn1
        .byte   W36
        .byte                   Cn1
        .byte   W12
        .byte           N96   , Dn1
        .byte   W24
        .byte           N48   , Cn1
        .byte   W24
@ 045   ----------------------------------------
        .byte   W24
        .byte           N60
        .byte   W24
        .byte           N48   , Dn1
        .byte   W36
        .byte           N12   , Cn1
        .byte   W12
@ 046   ----------------------------------------
        .byte           EOT   , Cs2
        .byte           N36   , Cn1
        .byte           N36   , Dn1
        .byte           N36   , Cs2
        .byte   W36
        .byte                   Cn1
        .byte           N36   , Dn1
        .byte           N36   , Cs2
        .byte   W36
        .byte           TIE   , Cn1
        .byte           N24   , Dn1
        .byte           TIE   , Cs2
        .byte   W24
@ 047   ----------------------------------------
        .byte                   Dn1
        .byte   W84
        .byte           EOT   , Cs2
        .byte                   Cn1
        .byte           TIE   , Cs2
        .byte           N60   , Cn1
        .byte   W12
@ 048   ----------------------------------------
        .byte           EOT   , Fs1
        .byte           N12
        .byte   W12
        .byte                   Fs1
        .byte   W12
        .byte           EOT   , Dn1
        .byte           N48
        .byte           N12   , Fs1
        .byte   W12
        .byte                   Fs1
        .byte   W12
        .byte                   Fs1
        .byte           N12   , Cn1
        .byte   W12
        .byte                   Fs1
        .byte           N24   , Cn1
        .byte   W12
        .byte           N48   , Dn1
        .byte           N12   , Fs1
        .byte   W12
        .byte                   Fs1
        .byte           N24   , Cn1
        .byte   W12
@ 049   ----------------------------------------
mus_etc_hana_ni_natte_10_49:
        .byte           N12   , Fs1 , v080
        .byte   W12
        .byte           N24
        .byte           N36   , Cn1
        .byte   W12
        .byte           N06   , Dn1
        .byte   W06
        .byte           N42
        .byte   W06
        .byte           N12   , Fs1
        .byte   W12
        .byte                   Fs1
        .byte           N12   , Cn1
        .byte   W12
        .byte                   Fs1
        .byte           N36   , Cn1
        .byte   W12
        .byte           N48   , Dn1
        .byte           N12   , Fs1
        .byte   W12
        .byte                   Fs1
        .byte   W12
        .byte   PEND
@ 050   ----------------------------------------
mus_etc_hana_ni_natte_10_50:
        .byte           N12   , Fs1 , v080
        .byte           N36   , Cn1
        .byte   W12
        .byte           N12   , Fs1
        .byte   W12
        .byte           N48   , Dn1
        .byte           N12   , Fs1
        .byte   W12
        .byte                   Fs1
        .byte           N24   , Cn1
        .byte   W12
        .byte           N12   , Fs1
        .byte   W12
        .byte                   Fs1
        .byte           N48   , Cn1
        .byte   W12
        .byte                   Dn1
        .byte           N12   , Fs1
        .byte   W12
        .byte                   Fs1
        .byte   W12
        .byte   PEND
@ 051   ----------------------------------------
        .byte                   Fs1
        .byte   W12
        .byte                   Fs1
        .byte           N24   , Cn1
        .byte   W12
        .byte           N48   , Dn1
        .byte           N12   , Fs1
        .byte   W12
        .byte                   Fs1
        .byte           N24   , Cn1
        .byte   W12
        .byte           N12   , Fs1
        .byte   W12
        .byte                   Fs1
        .byte           N06   , Cn1
        .byte   W06
        .byte           N30
        .byte   W06
        .byte           N48   , Dn1
        .byte           N12   , Fs1
        .byte   W12
        .byte           N24
        .byte   W12
@ 052   ----------------------------------------
        .byte           EOT   , Cs2
        .byte           TIE
        .byte           N48   , Cn1
        .byte   W12
        .byte           N12   , Fs1
        .byte   W12
        .byte           N48   , Dn1
        .byte           N12   , Fs1
        .byte   W12
        .byte                   Fs1
        .byte   W12
        .byte                   Fs1
        .byte           N12   , Cn1
        .byte   W12
        .byte                   Fs1
        .byte           N24   , Cn1
        .byte   W12
        .byte           N48   , Dn1
        .byte           N12   , Fs1
        .byte   W12
        .byte                   Fs1
        .byte           N24   , Cn1
        .byte   W12
@ 053   ----------------------------------------
        .byte           N12   , Fs1
        .byte   W12
        .byte                   Fs1
        .byte           N36   , Cn1
        .byte   W12
        .byte           N48   , Dn1
        .byte           N12   , Fs1
        .byte   W12
        .byte                   Fs1
        .byte   W12
        .byte                   Fs1
        .byte           N12   , Cn1
        .byte   W12
        .byte                   Fs1
        .byte           N36   , Cn1
        .byte   W12
        .byte           N48   , Dn1
        .byte           N12   , Fs1
        .byte   W12
        .byte                   Fs1
        .byte   W12
@ 054   ----------------------------------------
        .byte   PATT
         .word  mus_etc_hana_ni_natte_10_10
@ 055   ----------------------------------------
        .byte           N24   , Dn1 , v080
        .byte   W12
        .byte           N36   , Fs1
        .byte           N24   , Cn1
        .byte   W12
        .byte           N06   , Dn1
        .byte   W06
        .byte                   Dn1
        .byte   W06
        .byte           N36
        .byte           N24   , Cn1
        .byte   W12
        .byte           N12   , Fs1
        .byte   W12
        .byte           N72
        .byte           N06   , Cn1
        .byte   W06
        .byte           N54
        .byte   W06
        .byte           N06   , Dn1
        .byte   W06
        .byte                   Dn1
        .byte   W06
        .byte                   Dn1
        .byte   W06
        .byte           N54
        .byte   W06
@ 056   ----------------------------------------
        .byte   W24
        .byte           EOT   , Cs2
        .byte           N84   , Cn1
        .byte           TIE   , Cs2
        .byte   W12
        .byte           N12   , Fs1
        .byte   W12
        .byte           N72   , Dn1
        .byte           N12   , Fs1
        .byte   W12
        .byte                   Fs1
        .byte   W12
        .byte                   Fs1
        .byte   W12
        .byte                   Fs1
        .byte   W12
@ 057   ----------------------------------------
        .byte   PATT
         .word  mus_etc_hana_ni_natte_10_49
@ 058   ----------------------------------------
        .byte   PATT
         .word  mus_etc_hana_ni_natte_10_50
@ 059   ----------------------------------------
        .byte   PATT
         .word  mus_etc_hana_ni_natte_10_7
@ 060   ----------------------------------------
        .byte           N12   , Fs1 , v080
        .byte           N36   , Cn1
        .byte   W12
        .byte           N12   , Fs1
        .byte   W12
        .byte           N48   , Dn1
        .byte           N12   , Fs1
        .byte   W12
        .byte                   Fs1
        .byte           N24   , Cn1
        .byte   W12
        .byte           N12   , Fs1
        .byte   W12
        .byte                   Fs1
        .byte           TIE   , Cn1
        .byte   W12
        .byte           N24   , Dn1
        .byte           N12   , Fs1
        .byte   W24
@ 061   ----------------------------------------
        .byte           N06   , Dn1 , v049
        .byte   W06
        .byte                   Dn1
        .byte   W06
        .byte                   Dn1 , v051
        .byte   W06
        .byte                   Dn1 , v054
        .byte   W06
        .byte                   Dn1 , v056
        .byte   W06
        .byte                   Dn1 , v059
        .byte   W06
        .byte                   Dn1 , v062
        .byte   W06
        .byte                   Dn1 , v064
        .byte   W06
        .byte                   Dn1 , v067
        .byte   W06
        .byte                   Dn1 , v069
        .byte   W06
        .byte                   Dn1 , v072
        .byte   W06
        .byte                   Dn1 , v075
        .byte   W06
        .byte                   Dn1 , v077
        .byte   W06
        .byte                   Dn1 , v080
        .byte   W06
        .byte                   Dn1 , v082
        .byte   W06
        .byte                   Dn1 , v085
        .byte   W06
@ 062   ----------------------------------------
        .byte           EOT   , Cs2
        .byte                   Cn1
        .byte           N48   , Dn1 , v088
        .byte           N48   , Cs2
        .byte           N48   , Cn1
        .byte   W48
        .byte           N12   , Dn1
        .byte           N12   , Cs2
        .byte           N12   , Cn1
        .byte   W12
        .byte           N24   , Dn1
        .byte           N24   , Cs2
        .byte           N24   , Cn1
        .byte   W36
@ 063   ----------------------------------------
        .byte   W11
        .byte   GOTO
         .word  mus_etc_hana_ni_natte_10_LOOP
        .byte   FINE

@***************** Track 11 (Midi-Chn.11) *****************@

mus_etc_hana_ni_natte_11:
        .byte   KEYSH , mus_etc_hana_ni_natte_key+0
@ 000   ----------------------------------------
        .byte           BENDR , 12
        .byte           VOICE , 58 @ Tuba
        .byte           VOL   , 100*mus_etc_hana_ni_natte_mvl/mxv
        .byte   W96
@ 001   ----------------------------------------
        .byte   W96
@ 002   ----------------------------------------
        .byte   W96
@ 003   ----------------------------------------
        .byte   W96
@ 004   ----------------------------------------
mus_etc_hana_ni_natte_11_LOOP:
        .byte           N23   , As0 , v080
        .byte   W36
        .byte           N11
        .byte   W36
        .byte                   As0
        .byte   W12
        .byte           TIE
        .byte   W12
@ 005   ----------------------------------------
        .byte   W92
        .byte   W03
        .byte           EOT
        .byte   W01
@ 006   ----------------------------------------
        .byte           N23   , Fs0
        .byte   W36
        .byte                   Fs0
        .byte   W36
        .byte           N11
        .byte   W12
        .byte           TIE
        .byte   W12
@ 007   ----------------------------------------
        .byte   W92
        .byte   W03
        .byte           EOT
        .byte   W01
@ 008   ----------------------------------------
        .byte           N11   , Gs0
        .byte   W12
        .byte                   Gs0
        .byte   W24
        .byte           N23
        .byte   W36
        .byte           N11
        .byte   W12
        .byte           TIE
        .byte   W12
@ 009   ----------------------------------------
        .byte   W92
        .byte   W03
        .byte           EOT
        .byte   W01
@ 010   ----------------------------------------
        .byte           N23   , Fn0
        .byte   W36
        .byte                   Fn0
        .byte   W36
        .byte           TIE
        .byte   W24
@ 011   ----------------------------------------
        .byte   W92
        .byte   W03
        .byte           EOT
        .byte   W01
@ 012   ----------------------------------------
mus_etc_hana_ni_natte_11_12:
        .byte           N23   , As0 , v088
        .byte   W36
        .byte                   As0
        .byte   W60
        .byte   PEND
@ 013   ----------------------------------------
        .byte   PATT
         .word  mus_etc_hana_ni_natte_11_12
@ 014   ----------------------------------------
mus_etc_hana_ni_natte_11_14:
        .byte           N23   , Fs0 , v088
        .byte   W36
        .byte                   Fs0
        .byte   W60
        .byte   PEND
@ 015   ----------------------------------------
        .byte   PATT
         .word  mus_etc_hana_ni_natte_11_14
@ 016   ----------------------------------------
mus_etc_hana_ni_natte_11_16:
        .byte           N23   , Cs1 , v088
        .byte   W36
        .byte                   Cs1
        .byte   W60
        .byte   PEND
@ 017   ----------------------------------------
        .byte   PATT
         .word  mus_etc_hana_ni_natte_11_16
@ 018   ----------------------------------------
        .byte           N23   , Gs0 , v088
        .byte   W36
        .byte                   Gs0
        .byte   W60
@ 019   ----------------------------------------
        .byte                   Gs0
        .byte   W36
        .byte           N11
        .byte   W24
        .byte           N23   , An0
        .byte   W36
@ 020   ----------------------------------------
        .byte   PATT
         .word  mus_etc_hana_ni_natte_11_12
@ 021   ----------------------------------------
        .byte           N23   , As0 , v088
        .byte   W36
        .byte                   As0
        .byte   W36
        .byte                   Cs1
        .byte   W24
@ 022   ----------------------------------------
        .byte   PATT
         .word  mus_etc_hana_ni_natte_11_14
@ 023   ----------------------------------------
        .byte           N23   , Fs0 , v088
        .byte   W36
        .byte                   Fs0
        .byte   W36
        .byte                   As0
        .byte   W24
@ 024   ----------------------------------------
        .byte                   Ds1
        .byte   W36
        .byte                   Ds1
        .byte   W60
@ 025   ----------------------------------------
        .byte   PATT
         .word  mus_etc_hana_ni_natte_11_14
@ 026   ----------------------------------------
        .byte           N23   , Fn1 , v088
        .byte   W24
        .byte           N11
        .byte   W12
        .byte           N23   , Ds1
        .byte   W24
        .byte           N32   , Cs1 , v088 , gtp3
        .byte   W36
@ 027   ----------------------------------------
        .byte           N92   , As0 , v088 , gtp3
        .byte   W96
@ 028   ----------------------------------------
        .byte                   Fs1 , v080
        .byte   W96
@ 029   ----------------------------------------
        .byte   W96
@ 030   ----------------------------------------
        .byte                   Fn1
        .byte   W96
@ 031   ----------------------------------------
        .byte   W96
@ 032   ----------------------------------------
        .byte                   Ds1
        .byte   W96
@ 033   ----------------------------------------
        .byte   W96
@ 034   ----------------------------------------
        .byte           N32   , As0 , v080 , gtp3
        .byte   W36
        .byte                   Cn1
        .byte   W36
        .byte           N68   , Dn1 , v080 , gtp3
        .byte   W24
@ 035   ----------------------------------------
        .byte   W96
@ 036   ----------------------------------------
        .byte           N44   , En1 , v080 , gtp3
        .byte   W72
        .byte           N23   , Fn1
        .byte   W24
@ 037   ----------------------------------------
        .byte           N44   , Cs1 , v080 , gtp3
        .byte   W72
        .byte           N23   , En1
        .byte   W24
@ 038   ----------------------------------------
        .byte   PATT
         .word  mus_etc_hana_ni_natte_5_38
@ 039   ----------------------------------------
        .byte           N44   , Gn1 , v080 , gtp3
        .byte   W48
        .byte           N23   , Fs1
        .byte   W24
        .byte                   Fn1
        .byte   W24
@ 040   ----------------------------------------
        .byte                   Ds1
        .byte   W96
@ 041   ----------------------------------------
        .byte   W96
@ 042   ----------------------------------------
        .byte           N11
        .byte   W12
        .byte                   Ds1
        .byte   W60
        .byte                   Ds1
        .byte   W12
        .byte                   Ds1
        .byte   W12
@ 043   ----------------------------------------
        .byte   W48
        .byte                   Ds1
        .byte   W12
        .byte                   Ds1
        .byte   W24
        .byte                   Fs1
        .byte   W12
@ 044   ----------------------------------------
        .byte           N92   , Fn1 , v080 , gtp3
        .byte   W96
@ 045   ----------------------------------------
        .byte   W96
@ 046   ----------------------------------------
        .byte   W96
@ 047   ----------------------------------------
        .byte   W84
        .byte           N23   , Cn0 , v088
        .byte   W12
@ 048   ----------------------------------------
mus_etc_hana_ni_natte_11_48:
        .byte   W12
        .byte           N11   , Cn0 , v088
        .byte   W12
        .byte                   Dn0
        .byte   W12
        .byte                   Dn0
        .byte   W12
        .byte                   Ds0
        .byte   W12
        .byte                   Ds0
        .byte   W12
        .byte                   En0
        .byte   W12
        .byte                   En0
        .byte   W12
        .byte   PEND
@ 049   ----------------------------------------
        .byte           N44   , Fn0 , v088 , gtp3
        .byte   W48
        .byte           N23
        .byte   W36
        .byte                   Gn0
        .byte   W12
@ 050   ----------------------------------------
        .byte   W24
        .byte                   Dn0
        .byte   W24
        .byte                   Fn0
        .byte   W24
        .byte                   Fs0
        .byte   W24
@ 051   ----------------------------------------
        .byte                   Dn0
        .byte   W24
        .byte           N11   , Gn0
        .byte   W12
        .byte           N23   , AsM1
        .byte   W24
        .byte                   GnM1
        .byte   W24
        .byte           N32   , Ds0 , v088 , gtp3
        .byte   W12
@ 052   ----------------------------------------
        .byte   W36
        .byte           N11
        .byte   W12
        .byte           N23
        .byte   W24
        .byte           N11   , Fs0
        .byte   W12
        .byte           N32   , Fn0 , v088 , gtp3
        .byte   W12
@ 053   ----------------------------------------
        .byte   W24
        .byte           N11
        .byte   W12
        .byte           N23   , Dn0
        .byte   W24
        .byte                   AsM1
        .byte   W24
        .byte           N32   , Gn0 , v088 , gtp3
        .byte   W12
@ 054   ----------------------------------------
        .byte   W24
        .byte           N23
        .byte   W24
        .byte                   As0
        .byte   W24
        .byte                   Cn1
        .byte   W24
@ 055   ----------------------------------------
        .byte           N32   , Bn0 , v088 , gtp3
        .byte   W36
        .byte           N11   , Gn0
        .byte   W12
        .byte           N23   , Dn0
        .byte   W24
        .byte           N11
        .byte   W12
        .byte           N23   , Cn0
        .byte   W12
@ 056   ----------------------------------------
        .byte   PATT
         .word  mus_etc_hana_ni_natte_11_48
@ 057   ----------------------------------------
        .byte           N23   , Fn0 , v088
        .byte   W24
        .byte           N11   , Gn0
        .byte   W12
        .byte           N23   , Dn0
        .byte   W24
        .byte                   Fn0
        .byte   W24
        .byte                   Gn0
        .byte   W12
@ 058   ----------------------------------------
        .byte   W24
        .byte           N11
        .byte   W12
        .byte                   Dn0
        .byte   W12
        .byte           N23   , Cs0
        .byte   W24
        .byte           N44   , Cn0 , v088 , gtp3
        .byte   W24
@ 059   ----------------------------------------
        .byte   W24
        .byte           N11   , Cs0
        .byte   W12
        .byte                   Dn0
        .byte   W12
        .byte           N23
        .byte   W24
        .byte           N11   , Cn0
        .byte   W12
        .byte                   Dn0
        .byte   W12
@ 060   ----------------------------------------
        .byte           N44   , Ds0 , v088 , gtp3
        .byte   W48
        .byte                   Ds0
        .byte   W48
@ 061   ----------------------------------------
        .byte           N11   , Fn0
        .byte   W12
        .byte                   Fn0
        .byte   W12
        .byte                   Fs0
        .byte   W12
        .byte                   Fs0
        .byte   W12
        .byte                   Gn0
        .byte   W12
        .byte                   Gn0
        .byte   W12
        .byte                   An0
        .byte   W12
        .byte                   An0
        .byte   W12
@ 062   ----------------------------------------
        .byte   W96
@ 063   ----------------------------------------
        .byte   W11
        .byte   GOTO
         .word  mus_etc_hana_ni_natte_11_LOOP
        .byte   FINE


@********************** End of Song ***********************@

        .align  2
mus_etc_hana_ni_natte:
        .byte   12                      @ Num Tracks
        .byte   0                       @ Unknown
        .byte   mus_etc_hana_ni_natte_pri @ Priority
        .byte   mus_etc_hana_ni_natte_rev @ Reverb

        .word   mus_etc_hana_ni_natte_grp

        .word   mus_etc_hana_ni_natte_0
        .word   mus_etc_hana_ni_natte_1
        .word   mus_etc_hana_ni_natte_2
        .word   mus_etc_hana_ni_natte_3
        .word   mus_etc_hana_ni_natte_4
        .word   mus_etc_hana_ni_natte_5
        .word   mus_etc_hana_ni_natte_6
        .word   mus_etc_hana_ni_natte_7
        .word   mus_etc_hana_ni_natte_8
        .word   mus_etc_hana_ni_natte_9
        .word   mus_etc_hana_ni_natte_10
        .word   mus_etc_hana_ni_natte_11

        .end
